<svg width="26" height="27" viewBox="0 0 26 27" fill="none" xmlns="http://www.w3.org/2000/svg">
<path fill-rule="evenodd" clip-rule="evenodd" d="M1.625 13.4999C1.625 13.2761 1.7106 13.0615 1.86298 12.9033C2.01535 12.7451 2.22201 12.6562 2.4375 12.6562L21.6011 12.6562L16.4873 7.34729C16.3347 7.18885 16.249 6.97397 16.249 6.74991C16.249 6.52585 16.3347 6.31097 16.4873 6.15254C16.6398 5.9941 16.8467 5.9051 17.0625 5.9051C17.2783 5.9051 17.4852 5.9941 17.6377 6.15254L24.1378 12.9025C24.2134 12.9809 24.2734 13.074 24.3144 13.1765C24.3554 13.279 24.3765 13.3889 24.3765 13.4999C24.3765 13.6109 24.3554 13.7208 24.3144 13.8233C24.2734 13.9258 24.2134 14.0189 24.1378 14.0973L17.6378 20.8473C17.4852 21.0057 17.2783 21.0947 17.0625 21.0947C16.8467 21.0947 16.6398 21.0057 16.4873 20.8473C16.3347 20.6889 16.249 20.474 16.249 20.2499C16.249 20.0259 16.3347 19.811 16.4873 19.6525L21.6011 14.3437L2.4375 14.3437C2.22201 14.3437 2.01535 14.2548 1.86298 14.0965C1.7106 13.9383 1.625 13.7237 1.625 13.4999Z" fill="white"/>
</svg>
