<svg width="42" height="42" viewBox="0 0 42 42" fill="none" xmlns="http://www.w3.org/2000/svg">
<circle cx="21" cy="21" r="20.5" stroke="white"/>
<path fill-rule="evenodd" clip-rule="evenodd" d="M20.9997 10.7021C15.3146 10.7021 10.7017 15.3151 10.7017 21.0002C10.7017 26.6854 15.3146 31.2983 20.9997 31.2983C26.6737 31.2983 31.2978 26.6854 31.2978 21.0002C31.2978 15.3151 26.6737 10.7021 20.9997 10.7021ZM27.8018 15.4491C29.0304 16.9458 29.7676 18.8557 29.79 20.922C29.4996 20.8662 26.5955 20.2742 23.6692 20.6428C23.6022 20.4976 23.5463 20.3412 23.4793 20.1849C23.3006 19.7604 23.0996 19.3248 22.8985 18.9116C26.1376 17.5936 27.6119 15.6948 27.8018 15.4491ZM20.9997 12.2212C23.2336 12.2212 25.2776 13.0589 26.8301 14.4327C26.6737 14.6561 25.3446 16.432 22.2172 17.6048C20.7764 14.9576 19.1791 12.7908 18.9334 12.4557C19.5924 12.2994 20.2849 12.2212 20.9997 12.2212ZM17.258 13.0477C17.4926 13.3604 19.0563 15.5385 20.5195 18.1297C16.4092 19.2243 12.7792 19.202 12.3882 19.202C12.9578 16.4767 14.8008 14.2093 17.258 13.0477ZM12.1983 21.0114C12.1983 20.922 12.1983 20.8327 12.1983 20.7433C12.5781 20.7545 16.8448 20.8104 21.2343 19.4924C21.4912 19.9838 21.7257 20.4864 21.9491 20.9891C21.8374 21.0226 21.7146 21.0561 21.6029 21.0896C17.0682 22.5528 14.6556 26.5514 14.4545 26.8864C13.0584 25.3339 12.1983 23.2676 12.1983 21.0114ZM20.9997 29.8016C18.9669 29.8016 17.0905 29.1091 15.605 27.9475C15.7614 27.6236 17.5484 24.1835 22.5076 22.4522C22.5299 22.4411 22.5411 22.4411 22.5634 22.4299C23.8032 25.6355 24.3059 28.3273 24.4399 29.098C23.3788 29.5559 22.2172 29.8016 20.9997 29.8016ZM25.9031 28.2938C25.8137 27.7576 25.3446 25.1887 24.1942 22.0278C26.953 21.5922 29.3655 22.307 29.6671 22.4076C29.2873 24.8536 27.88 26.9646 25.9031 28.2938Z" fill="white"/>
</svg>
