<svg width="43" height="43" viewBox="0 0 43 43" fill="none" xmlns="http://www.w3.org/2000/svg">
<path d="M16.1892 14.2904C15.9344 14.053 15.5975 13.9238 15.2494 13.9299C14.9013 13.9361 14.5691 14.0771 14.3229 14.3233C14.0767 14.5695 13.9357 14.9016 13.9296 15.2498C13.9234 15.5979 14.0526 15.9348 14.29 16.1895L19.5987 21.5L14.29 26.8087C14.158 26.9318 14.0521 27.0801 13.9786 27.2449C13.9052 27.4098 13.8657 27.5877 13.8625 27.7681C13.8593 27.9486 13.8925 28.1278 13.9601 28.2951C14.0277 28.4624 14.1283 28.6144 14.2559 28.742C14.3835 28.8696 14.5355 28.9702 14.7028 29.0378C14.8701 29.1054 15.0493 29.1386 15.2298 29.1354C15.4102 29.1322 15.5881 29.0927 15.753 29.0193C15.9178 28.9458 16.0661 28.8399 16.1892 28.7079L21.4997 23.3992L26.8084 28.7097C27.0617 28.9546 27.4011 29.0902 27.7534 29.0873C28.1057 29.0844 28.4428 28.9432 28.6921 28.6942C28.9413 28.4452 29.0828 28.1082 29.086 27.7559C29.0893 27.4036 28.954 27.0641 28.7093 26.8105L23.4006 21.5L28.7093 16.1895C28.8413 16.0665 28.9472 15.9182 29.0207 15.7533C29.0941 15.5885 29.1336 15.4106 29.1368 15.2301C29.14 15.0497 29.1068 14.8705 29.0392 14.7032C28.9716 14.5358 28.871 14.3838 28.7434 14.2562C28.6158 14.1286 28.4638 14.0281 28.2965 13.9605C28.1292 13.8929 27.95 13.8597 27.7696 13.8629C27.5891 13.8661 27.4112 13.9056 27.2464 13.979C27.0815 14.0524 26.9332 14.1583 26.8102 14.2904L21.4997 19.5991L16.1892 14.2904Z" fill="white"/>
<path fill-rule="evenodd" clip-rule="evenodd" d="M21.5003 1.79163C10.6159 1.79163 1.79199 10.6156 1.79199 21.5C1.79199 32.3843 10.6159 41.2083 21.5003 41.2083C32.3847 41.2083 41.2087 32.3843 41.2087 21.5C41.2087 10.6156 32.3847 1.79163 21.5003 1.79163ZM4.47949 21.5C4.47949 16.9858 6.27275 12.6564 9.46478 9.46441C12.6568 6.27239 16.9861 4.47913 21.5003 4.47913C26.0145 4.47913 30.3438 6.27239 33.5359 9.46441C36.7279 12.6564 38.5212 16.9858 38.5212 21.5C38.5212 26.0142 36.7279 30.3435 33.5359 33.5355C30.3438 36.7275 26.0145 38.5208 21.5003 38.5208C16.9861 38.5208 12.6568 36.7275 9.46478 33.5355C6.27275 30.3435 4.47949 26.0142 4.47949 21.5Z" fill="white"/>
</svg>
