<svg width="1440" height="302" viewBox="0 0 1440 302" fill="none" xmlns="http://www.w3.org/2000/svg">
<path opacity="0.5" d="M-17 237.943C205.5 -41.5569 299.511 283.854 504.014 79.1451C708.516 -125.563 1142.98 147.353 1292.5 55.4431C1442.02 -36.4667 1493 120.443 1457 38.2293" stroke="#34383E" stroke-dasharray="3.3 3.3"/>
<path opacity="0.5" d="M-17 300.772C205.5 21.2724 299.511 346.683 504.014 141.974C708.516 -62.7341 1142.98 210.182 1292.5 118.272C1442.02 26.3626 1493 183.272 1457 101.059" stroke="#62A1DB" stroke-opacity="0.4" stroke-dasharray="3.3 3.3"/>
<path opacity="0.5" d="M-17 258.886C205.5 -20.6138 299.511 304.797 504.014 100.088C708.516 -104.62 1142.98 168.296 1292.5 76.3862C1442.02 -15.5236 1493 141.386 1457 59.1724" stroke="#DB9A62" stroke-opacity="0.4"/>
<path opacity="0.5" d="M-17 279.829C205.5 0.32933 299.511 325.74 504.014 121.031C708.516 -83.6772 1142.98 189.239 1292.5 97.3293C1442.02 5.41949 1493 162.329 1457 80.1155" stroke="#34383E"/>
</svg>
