<svg width="42" height="42" viewBox="0 0 42 42" fill="none" xmlns="http://www.w3.org/2000/svg">
<circle cx="21" cy="21" r="20.5" stroke="white"/>
<path d="M14.399 15.2872C15.5885 15.2872 16.5529 14.3764 16.5529 13.253C16.5529 12.1295 15.5885 11.2188 14.399 11.2188C13.2094 11.2188 12.2451 12.1295 12.2451 13.253C12.2451 14.3764 13.2094 15.2872 14.399 15.2872Z" fill="white"/>
<path d="M18.5254 16.7905H22.0951V18.335C22.0951 18.335 23.0638 16.5052 25.6994 16.5052C28.0505 16.5052 29.9981 17.5991 29.9981 20.9333V27.9641H26.2989V21.7852C26.2989 19.8184 25.1871 19.6021 24.3399 19.6021C22.5816 19.6021 22.2806 21.0344 22.2806 22.0418V27.9641H18.5254V16.7905Z" fill="white"/>
<path d="M12.5214 16.7905H16.2766V27.964H12.5214V16.7905Z" fill="white"/>
</svg>
