<svg width="48" height="48" viewBox="0 0 48 48" fill="none" xmlns="http://www.w3.org/2000/svg">
<circle cx="24" cy="24" r="23.5" stroke="#DC2020"/>
<path d="M33.6924 16.8457H14.3078C13.8793 16.8457 13.4685 17.0159 13.1655 17.3188C12.8626 17.6218 12.6924 18.0327 12.6924 18.4611V31.3842C12.6924 31.8126 12.8626 32.2235 13.1655 32.5264C13.4685 32.8294 13.8793 32.9996 14.3078 32.9996H33.6924C34.1208 32.9996 34.5317 32.8294 34.8346 32.5264C35.1376 32.2235 35.3078 31.8126 35.3078 31.3842V18.4611C35.3078 18.0327 35.1376 17.6218 34.8346 17.3188C34.5317 17.0159 34.1208 16.8457 33.6924 16.8457V16.8457ZM31.9155 18.4611L24.0001 23.9372L16.0847 18.4611H31.9155ZM14.3078 31.3842V19.1961L23.5397 25.5849C23.6749 25.6787 23.8355 25.729 24.0001 25.729C24.1646 25.729 24.3253 25.6787 24.4605 25.5849L33.6924 19.1961V31.3842H14.3078Z" fill="#DC2020"/>
</svg>
