<svg width="42" height="42" viewBox="0 0 42 42" fill="none" xmlns="http://www.w3.org/2000/svg">
<circle cx="21" cy="21" r="20.5" stroke="#dc2020"/>
<path d="M29.481 14.7402H12.5194C12.1445 14.7402 11.785 14.8892 11.52 15.1542C11.2549 15.4193 11.106 15.7788 11.106 16.1537V27.4614C11.106 27.8363 11.2549 28.1958 11.52 28.4609C11.785 28.7259 12.1445 28.8748 12.5194 28.8748H29.481C29.8558 28.8748 30.2153 28.7259 30.4804 28.4609C30.7455 28.1958 30.8944 27.8363 30.8944 27.4614V16.1537C30.8944 15.7788 30.7455 15.4193 30.4804 15.1542C30.2153 14.8892 29.8558 14.7402 29.481 14.7402V14.7402ZM27.9261 16.1537L21.0002 20.9453L14.0742 16.1537H27.9261ZM12.5194 27.4614V16.7968L20.5974 22.3871C20.7157 22.4691 20.8562 22.5131 21.0002 22.5131C21.1442 22.5131 21.2847 22.4691 21.403 22.3871L29.481 16.7968V27.4614H12.5194Z" fill="#dc2020"/>
</svg>
