<svg width="501" height="415" viewBox="0 0 501 415" fill="none" xmlns="http://www.w3.org/2000/svg">
<path d="M447.354 17.3536C447.549 17.1583 447.549 16.8417 447.354 16.6465L444.172 13.4645C443.976 13.2692 443.66 13.2692 443.464 13.4645C443.269 13.6598 443.269 13.9763 443.464 14.1716L446.293 17L443.464 19.8285C443.269 20.0237 443.269 20.3403 443.464 20.5356C443.66 20.7308 443.976 20.7308 444.172 20.5356L447.354 17.3536ZM-4.37114e-08 17.5L447 17.5L447 16.5L4.37114e-08 16.5L-4.37114e-08 17.5Z" fill="#DBDBDB"/>
<path d="M497.354 0.646447C497.158 0.451184 496.842 0.451184 496.646 0.646447L493.464 3.82843C493.269 4.02369 493.269 4.34027 493.464 4.53553C493.66 4.7308 493.976 4.7308 494.172 4.53553L497 1.70711L499.828 4.53553C500.024 4.7308 500.34 4.7308 500.536 4.53553C500.731 4.34027 500.731 4.02369 500.536 3.82843L497.354 0.646447ZM497.5 415L497.5 1H496.5L496.5 415H497.5Z" fill="#DBDBDB"/>
<g filter="url(#filter0_d)">
<g filter="url(#filter1_d)">
<path d="M167.684 165.846C167.684 164.741 168.579 163.846 169.684 163.846H290.684C291.788 163.846 292.684 164.741 292.684 165.846V272.846C292.684 273.95 291.788 274.846 290.684 274.846H169.684C168.579 274.846 167.684 273.95 167.684 272.846V165.846Z" fill="#986AF3"/>
<path d="M169.684 164.346H290.684C291.512 164.346 292.184 165.017 292.184 165.846V272.846C292.184 273.674 291.512 274.346 290.684 274.346H169.684C168.855 274.346 168.184 273.674 168.184 272.846V165.846C168.184 165.017 168.855 164.346 169.684 164.346Z" stroke="#333333" stroke-opacity="0.1"/>
</g>
<rect x="167.684" y="163.846" width="125" height="12" fill="white" fill-opacity="0.1"/>
</g>
<g filter="url(#filter2_d)">
<g filter="url(#filter3_d)">
<path d="M14.9341 165.846C14.9341 164.741 15.8295 163.846 16.9341 163.846H135.934C137.039 163.846 137.934 164.741 137.934 165.846V272.846C137.934 273.95 137.039 274.846 135.934 274.846H16.9341C15.8295 274.846 14.9341 273.95 14.9341 272.846V165.846Z" fill="#986AF3"/>
<path d="M16.9341 164.346H135.934C136.763 164.346 137.434 165.017 137.434 165.846V272.846C137.434 273.674 136.763 274.346 135.934 274.346H16.9341C16.1057 274.346 15.4341 273.674 15.4341 272.846V165.846C15.4341 165.017 16.1057 164.346 16.9341 164.346Z" stroke="#333333" stroke-opacity="0.1"/>
</g>
<rect x="14.9341" y="163.846" width="123" height="12" fill="white" fill-opacity="0.1"/>
</g>
<path d="M31.8915 73.872V90H27.3296V83.7101H21.1088V90H16.5469V73.872H21.1088V79.9315H27.3296V73.872H31.8915ZM48.0118 83.7792C48.0118 83.8099 47.9887 84.1709 47.9427 84.8621H38.8649C39.0492 85.5072 39.4025 86.0064 39.9247 86.3597C40.4623 86.6976 41.1305 86.8666 41.9292 86.8666C42.5283 86.8666 43.0428 86.7821 43.4729 86.6131C43.9183 86.4442 44.3638 86.1677 44.8092 85.7837L47.1132 88.1798C45.8998 89.5315 44.1257 90.2074 41.791 90.2074C40.3318 90.2074 39.0492 89.9309 37.9433 89.3779C36.8374 88.825 35.9772 88.057 35.3628 87.0739C34.7638 86.0909 34.4643 84.9773 34.4643 83.7331C34.4643 82.5043 34.7561 81.4061 35.3398 80.4384C35.9388 79.4554 36.7606 78.6874 37.8051 78.1344C38.8495 77.5814 40.0246 77.305 41.3302 77.305C42.5743 77.305 43.7033 77.5661 44.7171 78.0883C45.7308 78.5952 46.5295 79.3402 47.1132 80.3232C47.7123 81.2909 48.0118 82.4429 48.0118 83.7792ZM41.3532 80.4154C40.6774 80.4154 40.1091 80.6074 39.6483 80.9914C39.2028 81.3754 38.9187 81.8976 38.7958 82.5581H43.9107C43.7878 81.8976 43.4959 81.3754 43.0351 80.9914C42.5897 80.6074 42.0291 80.4154 41.3532 80.4154ZM55.3605 77.305C57.4341 77.305 59.0161 77.7811 60.1067 78.7334C61.1973 79.6704 61.7425 81.1142 61.7425 83.065V90H57.6645V88.3872C57.0347 89.6006 55.8059 90.2074 53.9781 90.2074C53.0104 90.2074 52.1733 90.0384 51.4667 89.7005C50.7601 89.3626 50.2225 88.9094 49.8539 88.3411C49.5006 87.7574 49.324 87.097 49.324 86.3597C49.324 85.177 49.7771 84.263 50.6833 83.6179C51.5896 82.9574 52.9873 82.6272 54.8766 82.6272H57.3649C57.2881 81.3062 56.4049 80.6458 54.7153 80.6458C54.1163 80.6458 53.5096 80.7456 52.8952 80.9453C52.2808 81.1296 51.7585 81.3907 51.3285 81.7286L49.8539 78.7565C50.5451 78.2957 51.3822 77.9424 52.3653 77.6966C53.3637 77.4355 54.3621 77.305 55.3605 77.305ZM55.1992 87.4426C55.7061 87.4426 56.1515 87.3197 56.5355 87.0739C56.9195 86.8282 57.196 86.4672 57.3649 85.991V84.9082H55.4757C54.2008 84.9082 53.5633 85.3306 53.5633 86.1754C53.5633 86.5594 53.7093 86.8666 54.0011 87.097C54.2929 87.3274 54.6923 87.4426 55.1992 87.4426ZM69.0216 79.0099C69.467 78.4416 70.043 78.0192 70.7496 77.7427C71.4715 77.4509 72.2932 77.305 73.2148 77.305V81.2448C72.8155 81.1987 72.4852 81.1757 72.2241 81.1757C71.2872 81.1757 70.5499 81.4291 70.0123 81.936C69.49 82.4429 69.2289 83.2186 69.2289 84.263V90H64.8513V77.5123H69.0216V79.0099Z" fill="white"/>
<path d="M205.143 204.03V207.446H210.057V208.65H205.143V212.612H203.743V202.812H210.659V204.03H205.143ZM213.795 206.438C214.029 206.009 214.374 205.682 214.831 205.458C215.289 205.234 215.844 205.122 216.497 205.122V206.424C216.423 206.415 216.32 206.41 216.189 206.41C215.461 206.41 214.887 206.63 214.467 207.068C214.057 207.498 213.851 208.114 213.851 208.916V212.612H212.507V205.192H213.795V206.438ZM218.364 205.192H219.708V212.612H218.364V205.192ZM219.036 203.764C218.775 203.764 218.555 203.68 218.378 203.512C218.21 203.344 218.126 203.139 218.126 202.896C218.126 202.654 218.21 202.448 218.378 202.28C218.555 202.103 218.775 202.014 219.036 202.014C219.297 202.014 219.512 202.098 219.68 202.266C219.857 202.425 219.946 202.626 219.946 202.868C219.946 203.12 219.857 203.335 219.68 203.512C219.512 203.68 219.297 203.764 219.036 203.764ZM229.19 208.944C229.19 209.047 229.181 209.182 229.162 209.35H223.142C223.226 210.004 223.511 210.531 223.996 210.932C224.491 211.324 225.102 211.52 225.83 211.52C226.717 211.52 227.431 211.222 227.972 210.624L228.714 211.492C228.378 211.884 227.958 212.183 227.454 212.388C226.959 212.594 226.404 212.696 225.788 212.696C225.004 212.696 224.309 212.538 223.702 212.22C223.095 211.894 222.624 211.441 222.288 210.862C221.961 210.284 221.798 209.63 221.798 208.902C221.798 208.184 221.957 207.535 222.274 206.956C222.601 206.378 223.044 205.93 223.604 205.612C224.173 205.286 224.813 205.122 225.522 205.122C226.231 205.122 226.861 205.286 227.412 205.612C227.972 205.93 228.406 206.378 228.714 206.956C229.031 207.535 229.19 208.198 229.19 208.944ZM225.522 206.256C224.878 206.256 224.337 206.452 223.898 206.844C223.469 207.236 223.217 207.75 223.142 208.384H227.902C227.827 207.759 227.571 207.25 227.132 206.858C226.703 206.457 226.166 206.256 225.522 206.256ZM235.228 205.122C236.171 205.122 236.918 205.398 237.468 205.948C238.028 206.49 238.308 207.288 238.308 208.342V212.612H236.964V208.496C236.964 207.778 236.792 207.236 236.446 206.872C236.101 206.508 235.606 206.326 234.962 206.326C234.234 206.326 233.66 206.541 233.24 206.97C232.82 207.39 232.61 207.997 232.61 208.79V212.612H231.266V205.192H232.554V206.312C232.825 205.93 233.189 205.636 233.646 205.43C234.113 205.225 234.64 205.122 235.228 205.122ZM248.047 202.224V212.612H246.759V211.436C246.46 211.847 246.082 212.16 245.625 212.374C245.167 212.589 244.663 212.696 244.113 212.696C243.394 212.696 242.75 212.538 242.181 212.22C241.611 211.903 241.163 211.46 240.837 210.89C240.519 210.312 240.361 209.649 240.361 208.902C240.361 208.156 240.519 207.498 240.837 206.928C241.163 206.359 241.611 205.916 242.181 205.598C242.75 205.281 243.394 205.122 244.113 205.122C244.645 205.122 245.135 205.225 245.583 205.43C246.031 205.626 246.404 205.92 246.703 206.312V202.224H248.047ZM244.225 211.52C244.691 211.52 245.116 211.413 245.499 211.198C245.881 210.974 246.18 210.666 246.395 210.274C246.609 209.873 246.717 209.416 246.717 208.902C246.717 208.389 246.609 207.936 246.395 207.544C246.18 207.143 245.881 206.835 245.499 206.62C245.116 206.406 244.691 206.298 244.225 206.298C243.749 206.298 243.319 206.406 242.937 206.62C242.563 206.835 242.265 207.143 242.041 207.544C241.826 207.936 241.719 208.389 241.719 208.902C241.719 209.416 241.826 209.873 242.041 210.274C242.265 210.666 242.563 210.974 242.937 211.198C243.319 211.413 243.749 211.52 244.225 211.52ZM252.928 212.696C252.321 212.696 251.738 212.617 251.178 212.458C250.618 212.29 250.179 212.08 249.862 211.828L250.422 210.764C250.748 210.998 251.145 211.184 251.612 211.324C252.078 211.464 252.55 211.534 253.026 211.534C254.202 211.534 254.79 211.198 254.79 210.526C254.79 210.302 254.71 210.125 254.552 209.994C254.393 209.864 254.192 209.77 253.95 209.714C253.716 209.649 253.38 209.579 252.942 209.504C252.344 209.411 251.854 209.304 251.472 209.182C251.098 209.061 250.776 208.856 250.506 208.566C250.235 208.277 250.1 207.871 250.1 207.348C250.1 206.676 250.38 206.14 250.94 205.738C251.5 205.328 252.251 205.122 253.194 205.122C253.688 205.122 254.183 205.183 254.678 205.304C255.172 205.426 255.578 205.589 255.896 205.794L255.322 206.858C254.715 206.466 254.001 206.27 253.18 206.27C252.61 206.27 252.176 206.364 251.878 206.55C251.579 206.737 251.43 206.984 251.43 207.292C251.43 207.535 251.514 207.726 251.682 207.866C251.85 208.006 252.055 208.109 252.298 208.174C252.55 208.24 252.9 208.314 253.348 208.398C253.945 208.501 254.426 208.613 254.79 208.734C255.163 208.846 255.48 209.042 255.742 209.322C256.003 209.602 256.134 209.994 256.134 210.498C256.134 211.17 255.844 211.707 255.266 212.108C254.696 212.5 253.917 212.696 252.928 212.696ZM175.846 229.438C176.079 229.009 176.424 228.682 176.882 228.458C177.339 228.234 177.894 228.122 178.548 228.122V229.424C178.473 229.415 178.37 229.41 178.24 229.41C177.512 229.41 176.938 229.63 176.518 230.068C176.107 230.498 175.902 231.114 175.902 231.916V235.612H174.558V228.192H175.846V229.438ZM187.052 231.944C187.052 232.047 187.042 232.182 187.024 232.35H181.004C181.088 233.004 181.372 233.531 181.858 233.932C182.352 234.324 182.964 234.52 183.692 234.52C184.578 234.52 185.292 234.222 185.834 233.624L186.576 234.492C186.24 234.884 185.82 235.183 185.316 235.388C184.821 235.594 184.266 235.696 183.65 235.696C182.866 235.696 182.17 235.538 181.564 235.22C180.957 234.894 180.486 234.441 180.15 233.862C179.823 233.284 179.66 232.63 179.66 231.902C179.66 231.184 179.818 230.535 180.136 229.956C180.462 229.378 180.906 228.93 181.466 228.612C182.035 228.286 182.674 228.122 183.384 228.122C184.093 228.122 184.723 228.286 185.274 228.612C185.834 228.93 186.268 229.378 186.576 229.956C186.893 230.535 187.052 231.198 187.052 231.944ZM183.384 229.256C182.74 229.256 182.198 229.452 181.76 229.844C181.33 230.236 181.078 230.75 181.004 231.384H185.764C185.689 230.759 185.432 230.25 184.994 229.858C184.564 229.457 184.028 229.256 183.384 229.256ZM192.362 235.696C191.606 235.696 190.929 235.533 190.332 235.206C189.744 234.88 189.282 234.432 188.946 233.862C188.61 233.284 188.442 232.63 188.442 231.902C188.442 231.174 188.61 230.526 188.946 229.956C189.282 229.378 189.744 228.93 190.332 228.612C190.929 228.286 191.606 228.122 192.362 228.122C193.034 228.122 193.631 228.258 194.154 228.528C194.686 228.799 195.097 229.191 195.386 229.704L194.364 230.362C194.131 230.008 193.841 229.742 193.496 229.564C193.151 229.387 192.768 229.298 192.348 229.298C191.863 229.298 191.424 229.406 191.032 229.62C190.649 229.835 190.346 230.143 190.122 230.544C189.907 230.936 189.8 231.389 189.8 231.902C189.8 232.425 189.907 232.887 190.122 233.288C190.346 233.68 190.649 233.984 191.032 234.198C191.424 234.413 191.863 234.52 192.348 234.52C192.768 234.52 193.151 234.432 193.496 234.254C193.841 234.077 194.131 233.811 194.364 233.456L195.386 234.1C195.097 234.614 194.686 235.01 194.154 235.29C193.631 235.561 193.034 235.696 192.362 235.696ZM200.405 235.696C199.667 235.696 199.005 235.533 198.417 235.206C197.829 234.88 197.367 234.432 197.031 233.862C196.704 233.284 196.541 232.63 196.541 231.902C196.541 231.174 196.704 230.526 197.031 229.956C197.367 229.378 197.829 228.93 198.417 228.612C199.005 228.286 199.667 228.122 200.405 228.122C201.142 228.122 201.8 228.286 202.379 228.612C202.967 228.93 203.424 229.378 203.751 229.956C204.087 230.526 204.255 231.174 204.255 231.902C204.255 232.63 204.087 233.284 203.751 233.862C203.424 234.432 202.967 234.88 202.379 235.206C201.8 235.533 201.142 235.696 200.405 235.696ZM200.405 234.52C200.881 234.52 201.305 234.413 201.679 234.198C202.061 233.974 202.36 233.666 202.575 233.274C202.789 232.873 202.897 232.416 202.897 231.902C202.897 231.389 202.789 230.936 202.575 230.544C202.36 230.143 202.061 229.835 201.679 229.62C201.305 229.406 200.881 229.298 200.405 229.298C199.929 229.298 199.499 229.406 199.117 229.62C198.743 229.835 198.445 230.143 198.221 230.544C198.006 230.936 197.899 231.389 197.899 231.902C197.899 232.416 198.006 232.873 198.221 233.274C198.445 233.666 198.743 233.974 199.117 234.198C199.499 234.413 199.929 234.52 200.405 234.52ZM215.605 228.122C216.539 228.122 217.276 228.393 217.817 228.934C218.368 229.476 218.643 230.278 218.643 231.342V235.612H217.299V231.496C217.299 230.778 217.131 230.236 216.795 229.872C216.469 229.508 215.997 229.326 215.381 229.326C214.7 229.326 214.159 229.541 213.757 229.97C213.356 230.39 213.155 230.997 213.155 231.79V235.612H211.811V231.496C211.811 230.778 211.643 230.236 211.307 229.872C210.981 229.508 210.509 229.326 209.893 229.326C209.212 229.326 208.671 229.541 208.269 229.97C207.868 230.39 207.667 230.997 207.667 231.79V235.612H206.323V228.192H207.611V229.298C207.882 228.916 208.237 228.626 208.675 228.43C209.114 228.225 209.613 228.122 210.173 228.122C210.752 228.122 211.265 228.239 211.713 228.472C212.161 228.706 212.507 229.046 212.749 229.494C213.029 229.065 213.417 228.729 213.911 228.486C214.415 228.244 214.98 228.122 215.605 228.122ZM228.073 231.944C228.073 232.047 228.064 232.182 228.045 232.35H222.025C222.109 233.004 222.394 233.531 222.879 233.932C223.374 234.324 223.985 234.52 224.713 234.52C225.6 234.52 226.314 234.222 226.855 233.624L227.597 234.492C227.261 234.884 226.841 235.183 226.337 235.388C225.843 235.594 225.287 235.696 224.671 235.696C223.887 235.696 223.192 235.538 222.585 235.22C221.979 234.894 221.507 234.441 221.171 233.862C220.845 233.284 220.681 232.63 220.681 231.902C220.681 231.184 220.84 230.535 221.157 229.956C221.484 229.378 221.927 228.93 222.487 228.612C223.057 228.286 223.696 228.122 224.405 228.122C225.115 228.122 225.745 228.286 226.295 228.612C226.855 228.93 227.289 229.378 227.597 229.956C227.915 230.535 228.073 231.198 228.073 231.944ZM224.405 229.256C223.761 229.256 223.22 229.452 222.781 229.844C222.352 230.236 222.1 230.75 222.025 231.384H226.785C226.711 230.759 226.454 230.25 226.015 229.858C225.586 229.457 225.049 229.256 224.405 229.256ZM234.112 228.122C235.054 228.122 235.801 228.398 236.352 228.948C236.912 229.49 237.192 230.288 237.192 231.342V235.612H235.848V231.496C235.848 230.778 235.675 230.236 235.33 229.872C234.984 229.508 234.49 229.326 233.846 229.326C233.118 229.326 232.544 229.541 232.124 229.97C231.704 230.39 231.494 230.997 231.494 231.79V235.612H230.15V228.192H231.438V229.312C231.708 228.93 232.072 228.636 232.53 228.43C232.996 228.225 233.524 228.122 234.112 228.122ZM246.93 225.224V235.612H245.642V234.436C245.343 234.847 244.965 235.16 244.508 235.374C244.051 235.589 243.547 235.696 242.996 235.696C242.277 235.696 241.633 235.538 241.064 235.22C240.495 234.903 240.047 234.46 239.72 233.89C239.403 233.312 239.244 232.649 239.244 231.902C239.244 231.156 239.403 230.498 239.72 229.928C240.047 229.359 240.495 228.916 241.064 228.598C241.633 228.281 242.277 228.122 242.996 228.122C243.528 228.122 244.018 228.225 244.466 228.43C244.914 228.626 245.287 228.92 245.586 229.312V225.224H246.93ZM243.108 234.52C243.575 234.52 243.999 234.413 244.382 234.198C244.765 233.974 245.063 233.666 245.278 233.274C245.493 232.873 245.6 232.416 245.6 231.902C245.6 231.389 245.493 230.936 245.278 230.544C245.063 230.143 244.765 229.835 244.382 229.62C243.999 229.406 243.575 229.298 243.108 229.298C242.632 229.298 242.203 229.406 241.82 229.62C241.447 229.835 241.148 230.143 240.924 230.544C240.709 230.936 240.602 231.389 240.602 231.902C240.602 232.416 240.709 232.873 240.924 233.274C241.148 233.666 241.447 233.974 241.82 234.198C242.203 234.413 242.632 234.52 243.108 234.52ZM252.385 228.122C253.412 228.122 254.196 228.374 254.737 228.878C255.288 229.382 255.563 230.134 255.563 231.132V235.612H254.289V234.632C254.065 234.978 253.743 235.244 253.323 235.43C252.912 235.608 252.422 235.696 251.853 235.696C251.022 235.696 250.355 235.496 249.851 235.094C249.356 234.693 249.109 234.166 249.109 233.512C249.109 232.859 249.347 232.336 249.823 231.944C250.299 231.543 251.055 231.342 252.091 231.342H254.219V231.076C254.219 230.498 254.051 230.054 253.715 229.746C253.379 229.438 252.884 229.284 252.231 229.284C251.792 229.284 251.363 229.359 250.943 229.508C250.523 229.648 250.168 229.84 249.879 230.082L249.319 229.074C249.702 228.766 250.159 228.533 250.691 228.374C251.223 228.206 251.788 228.122 252.385 228.122ZM252.077 234.66C252.59 234.66 253.034 234.548 253.407 234.324C253.78 234.091 254.051 233.764 254.219 233.344V232.308H252.147C251.008 232.308 250.439 232.691 250.439 233.456C250.439 233.83 250.584 234.124 250.873 234.338C251.162 234.553 251.564 234.66 252.077 234.66ZM262.432 235.178C262.236 235.346 261.993 235.477 261.704 235.57C261.415 235.654 261.116 235.696 260.808 235.696C260.061 235.696 259.483 235.496 259.072 235.094C258.661 234.693 258.456 234.119 258.456 233.372V229.298H257.196V228.192H258.456V226.568H259.8V228.192H261.928V229.298H259.8V233.316C259.8 233.718 259.898 234.026 260.094 234.24C260.299 234.455 260.589 234.562 260.962 234.562C261.373 234.562 261.723 234.446 262.012 234.212L262.432 235.178ZM264.267 228.192H265.611V235.612H264.267V228.192ZM264.939 226.764C264.678 226.764 264.458 226.68 264.281 226.512C264.113 226.344 264.029 226.139 264.029 225.896C264.029 225.654 264.113 225.448 264.281 225.28C264.458 225.103 264.678 225.014 264.939 225.014C265.2 225.014 265.415 225.098 265.583 225.266C265.76 225.425 265.849 225.626 265.849 225.868C265.849 226.12 265.76 226.335 265.583 226.512C265.415 226.68 265.2 226.764 264.939 226.764ZM271.565 235.696C270.828 235.696 270.165 235.533 269.577 235.206C268.989 234.88 268.527 234.432 268.191 233.862C267.864 233.284 267.701 232.63 267.701 231.902C267.701 231.174 267.864 230.526 268.191 229.956C268.527 229.378 268.989 228.93 269.577 228.612C270.165 228.286 270.828 228.122 271.565 228.122C272.302 228.122 272.96 228.286 273.539 228.612C274.127 228.93 274.584 229.378 274.911 229.956C275.247 230.526 275.415 231.174 275.415 231.902C275.415 232.63 275.247 233.284 274.911 233.862C274.584 234.432 274.127 234.88 273.539 235.206C272.96 235.533 272.302 235.696 271.565 235.696ZM271.565 234.52C272.041 234.52 272.466 234.413 272.839 234.198C273.222 233.974 273.52 233.666 273.735 233.274C273.95 232.873 274.057 232.416 274.057 231.902C274.057 231.389 273.95 230.936 273.735 230.544C273.52 230.143 273.222 229.835 272.839 229.62C272.466 229.406 272.041 229.298 271.565 229.298C271.089 229.298 270.66 229.406 270.277 229.62C269.904 229.835 269.605 230.143 269.381 230.544C269.166 230.936 269.059 231.389 269.059 231.902C269.059 232.416 269.166 232.873 269.381 233.274C269.605 233.666 269.904 233.974 270.277 234.198C270.66 234.413 271.089 234.52 271.565 234.52ZM281.446 228.122C282.388 228.122 283.135 228.398 283.686 228.948C284.246 229.49 284.526 230.288 284.526 231.342V235.612H283.182V231.496C283.182 230.778 283.009 230.236 282.664 229.872C282.318 229.508 281.824 229.326 281.18 229.326C280.452 229.326 279.878 229.541 279.458 229.97C279.038 230.39 278.828 230.997 278.828 231.79V235.612H277.484V228.192H278.772V229.312C279.042 228.93 279.406 228.636 279.864 228.43C280.33 228.225 280.858 228.122 281.446 228.122Z" fill="white"/>
<path d="M41.2189 202.355V203.573H34.1069V193.773H41.0229V194.991H35.5069V198.001H40.4209V199.191H35.5069V202.355H41.2189ZM48.0677 203.573L45.9257 200.731L43.7557 203.573H42.2577L45.1837 199.779L42.3977 196.153H43.8957L45.9397 198.827L47.9697 196.153H49.4397L46.6397 199.779L49.5937 203.573H48.0677ZM55.2043 196.083C55.923 196.083 56.567 196.242 57.1363 196.559C57.7057 196.877 58.149 197.32 58.4663 197.889C58.793 198.459 58.9563 199.117 58.9563 199.863C58.9563 200.61 58.793 201.273 58.4663 201.851C58.149 202.421 57.7057 202.864 57.1363 203.181C56.567 203.499 55.923 203.657 55.2043 203.657C54.6723 203.657 54.1823 203.555 53.7343 203.349C53.2957 203.144 52.9223 202.845 52.6143 202.453V206.289H51.2703V196.153H52.5583V197.329C52.857 196.919 53.235 196.611 53.6923 196.405C54.1497 196.191 54.6537 196.083 55.2043 196.083ZM55.0923 202.481C55.5683 202.481 55.993 202.374 56.3663 202.159C56.749 201.935 57.0477 201.627 57.2623 201.235C57.4863 200.834 57.5983 200.377 57.5983 199.863C57.5983 199.35 57.4863 198.897 57.2623 198.505C57.0477 198.104 56.749 197.796 56.3663 197.581C55.993 197.367 55.5683 197.259 55.0923 197.259C54.6257 197.259 54.201 197.371 53.8183 197.595C53.445 197.81 53.1463 198.113 52.9223 198.505C52.7077 198.897 52.6003 199.35 52.6003 199.863C52.6003 200.377 52.7077 200.834 52.9223 201.235C53.137 201.627 53.4357 201.935 53.8183 202.159C54.201 202.374 54.6257 202.481 55.0923 202.481ZM67.7293 199.905C67.7293 200.008 67.72 200.143 67.7013 200.311H61.6813C61.7653 200.965 62.05 201.492 62.5353 201.893C63.03 202.285 63.6413 202.481 64.3693 202.481C65.256 202.481 65.97 202.183 66.5113 201.585L67.2533 202.453C66.9173 202.845 66.4973 203.144 65.9933 203.349C65.4986 203.555 64.9433 203.657 64.3273 203.657C63.5433 203.657 62.848 203.499 62.2413 203.181C61.6346 202.855 61.1633 202.402 60.8273 201.823C60.5006 201.245 60.3373 200.591 60.3373 199.863C60.3373 199.145 60.496 198.496 60.8133 197.917C61.14 197.339 61.5833 196.891 62.1433 196.573C62.7126 196.247 63.352 196.083 64.0613 196.083C64.7706 196.083 65.4006 196.247 65.9513 196.573C66.5113 196.891 66.9453 197.339 67.2533 197.917C67.5706 198.496 67.7293 199.159 67.7293 199.905ZM64.0613 197.217C63.4173 197.217 62.876 197.413 62.4373 197.805C62.008 198.197 61.756 198.711 61.6813 199.345H66.4413C66.3666 198.72 66.11 198.211 65.6713 197.819C65.242 197.418 64.7053 197.217 64.0613 197.217ZM71.0936 197.399C71.3269 196.97 71.6722 196.643 72.1296 196.419C72.5869 196.195 73.1422 196.083 73.7956 196.083V197.385C73.7209 197.376 73.6182 197.371 73.4876 197.371C72.7596 197.371 72.1856 197.591 71.7656 198.029C71.3549 198.459 71.1496 199.075 71.1496 199.877V203.573H69.8056V196.153H71.0936V197.399ZM75.6621 196.153H77.0061V203.573H75.6621V196.153ZM76.3341 194.725C76.0727 194.725 75.8534 194.641 75.6761 194.473C75.5081 194.305 75.4241 194.1 75.4241 193.857C75.4241 193.615 75.5081 193.409 75.6761 193.241C75.8534 193.064 76.0727 192.975 76.3341 192.975C76.5954 192.975 76.8101 193.059 76.9781 193.227C77.1554 193.386 77.2441 193.587 77.2441 193.829C77.2441 194.081 77.1554 194.296 76.9781 194.473C76.8101 194.641 76.5954 194.725 76.3341 194.725ZM86.4882 199.905C86.4882 200.008 86.4789 200.143 86.4602 200.311H80.4402C80.5242 200.965 80.8089 201.492 81.2942 201.893C81.7889 202.285 82.4002 202.481 83.1282 202.481C84.0149 202.481 84.7289 202.183 85.2702 201.585L86.0122 202.453C85.6762 202.845 85.2562 203.144 84.7522 203.349C84.2576 203.555 83.7022 203.657 83.0862 203.657C82.3022 203.657 81.6069 203.499 81.0002 203.181C80.3936 202.855 79.9222 202.402 79.5862 201.823C79.2596 201.245 79.0962 200.591 79.0962 199.863C79.0962 199.145 79.2549 198.496 79.5722 197.917C79.8989 197.339 80.3422 196.891 80.9022 196.573C81.4716 196.247 82.1109 196.083 82.8202 196.083C83.5296 196.083 84.1596 196.247 84.7102 196.573C85.2702 196.891 85.7042 197.339 86.0122 197.917C86.3296 198.496 86.4882 199.159 86.4882 199.905ZM82.8202 197.217C82.1762 197.217 81.6349 197.413 81.1962 197.805C80.7669 198.197 80.5149 198.711 80.4402 199.345H85.2002C85.1256 198.72 84.8689 198.211 84.4302 197.819C84.0009 197.418 83.4642 197.217 82.8202 197.217ZM92.5265 196.083C93.4692 196.083 94.2158 196.359 94.7665 196.909C95.3265 197.451 95.6065 198.249 95.6065 199.303V203.573H94.2625V199.457C94.2625 198.739 94.0898 198.197 93.7445 197.833C93.3992 197.469 92.9045 197.287 92.2605 197.287C91.5325 197.287 90.9585 197.502 90.5385 197.931C90.1185 198.351 89.9085 198.958 89.9085 199.751V203.573H88.5645V196.153H89.8525V197.273C90.1232 196.891 90.4872 196.597 90.9445 196.391C91.4112 196.186 91.9385 196.083 92.5265 196.083ZM101.579 203.657C100.823 203.657 100.146 203.494 99.5488 203.167C98.9608 202.841 98.4988 202.393 98.1628 201.823C97.8268 201.245 97.6588 200.591 97.6588 199.863C97.6588 199.135 97.8268 198.487 98.1628 197.917C98.4988 197.339 98.9608 196.891 99.5488 196.573C100.146 196.247 100.823 196.083 101.579 196.083C102.251 196.083 102.848 196.219 103.371 196.489C103.903 196.76 104.313 197.152 104.603 197.665L103.581 198.323C103.347 197.969 103.058 197.703 102.713 197.525C102.367 197.348 101.985 197.259 101.565 197.259C101.079 197.259 100.641 197.367 100.249 197.581C99.8661 197.796 99.5628 198.104 99.3388 198.505C99.1241 198.897 99.0168 199.35 99.0168 199.863C99.0168 200.386 99.1241 200.848 99.3388 201.249C99.5628 201.641 99.8661 201.945 100.249 202.159C100.641 202.374 101.079 202.481 101.565 202.481C101.985 202.481 102.367 202.393 102.713 202.215C103.058 202.038 103.347 201.772 103.581 201.417L104.603 202.061C104.313 202.575 103.903 202.971 103.371 203.251C102.848 203.522 102.251 203.657 101.579 203.657ZM113.149 199.905C113.149 200.008 113.14 200.143 113.121 200.311H107.101C107.185 200.965 107.47 201.492 107.955 201.893C108.45 202.285 109.061 202.481 109.789 202.481C110.676 202.481 111.39 202.183 111.931 201.585L112.673 202.453C112.337 202.845 111.917 203.144 111.413 203.349C110.919 203.555 110.363 203.657 109.747 203.657C108.963 203.657 108.268 203.499 107.661 203.181C107.055 202.855 106.583 202.402 106.247 201.823C105.921 201.245 105.757 200.591 105.757 199.863C105.757 199.145 105.916 198.496 106.233 197.917C106.56 197.339 107.003 196.891 107.563 196.573C108.133 196.247 108.772 196.083 109.481 196.083C110.191 196.083 110.821 196.247 111.371 196.573C111.931 196.891 112.365 197.339 112.673 197.917C112.991 198.496 113.149 199.159 113.149 199.905ZM109.481 197.217C108.837 197.217 108.296 197.413 107.857 197.805C107.428 198.197 107.176 198.711 107.101 199.345H111.861C111.787 198.72 111.53 198.211 111.091 197.819C110.662 197.418 110.125 197.217 109.481 197.217ZM117.354 203.657C116.747 203.657 116.164 203.578 115.604 203.419C115.044 203.251 114.605 203.041 114.288 202.789L114.848 201.725C115.174 201.959 115.571 202.145 116.038 202.285C116.504 202.425 116.976 202.495 117.452 202.495C118.628 202.495 119.216 202.159 119.216 201.487C119.216 201.263 119.136 201.086 118.978 200.955C118.819 200.825 118.618 200.731 118.376 200.675C118.142 200.61 117.806 200.54 117.368 200.465C116.77 200.372 116.28 200.265 115.898 200.143C115.524 200.022 115.202 199.817 114.932 199.527C114.661 199.238 114.526 198.832 114.526 198.309C114.526 197.637 114.806 197.101 115.366 196.699C115.926 196.289 116.677 196.083 117.62 196.083C118.114 196.083 118.609 196.144 119.104 196.265C119.598 196.387 120.004 196.55 120.322 196.755L119.748 197.819C119.141 197.427 118.427 197.231 117.606 197.231C117.036 197.231 116.602 197.325 116.304 197.511C116.005 197.698 115.856 197.945 115.856 198.253C115.856 198.496 115.94 198.687 116.108 198.827C116.276 198.967 116.481 199.07 116.724 199.135C116.976 199.201 117.326 199.275 117.774 199.359C118.371 199.462 118.852 199.574 119.216 199.695C119.589 199.807 119.906 200.003 120.168 200.283C120.429 200.563 120.56 200.955 120.56 201.459C120.56 202.131 120.27 202.668 119.692 203.069C119.122 203.461 118.343 203.657 117.354 203.657ZM52.443 226.657C51.7056 226.657 51.043 226.494 50.455 226.167C49.867 225.841 49.405 225.393 49.069 224.823C48.7423 224.245 48.579 223.591 48.579 222.863C48.579 222.135 48.7423 221.487 49.069 220.917C49.405 220.339 49.867 219.891 50.455 219.573C51.043 219.247 51.7056 219.083 52.443 219.083C53.1803 219.083 53.8383 219.247 54.417 219.573C55.005 219.891 55.4623 220.339 55.789 220.917C56.125 221.487 56.293 222.135 56.293 222.863C56.293 223.591 56.125 224.245 55.789 224.823C55.4623 225.393 55.005 225.841 54.417 226.167C53.8383 226.494 53.1803 226.657 52.443 226.657ZM52.443 225.481C52.919 225.481 53.3436 225.374 53.717 225.159C54.0996 224.935 54.3983 224.627 54.613 224.235C54.8276 223.834 54.935 223.377 54.935 222.863C54.935 222.35 54.8276 221.897 54.613 221.505C54.3983 221.104 54.0996 220.796 53.717 220.581C53.3436 220.367 52.919 220.259 52.443 220.259C51.967 220.259 51.5376 220.367 51.155 220.581C50.7816 220.796 50.483 221.104 50.259 221.505C50.0443 221.897 49.937 222.35 49.937 222.863C49.937 223.377 50.0443 223.834 50.259 224.235C50.483 224.627 50.7816 224.935 51.155 225.159C51.5376 225.374 51.967 225.481 52.443 225.481ZM61.0777 217.207C60.275 217.207 59.8737 217.641 59.8737 218.509V219.153H62.0297V220.259H59.9017V226.573H58.5577V220.259H57.2977V219.153H58.5577V218.495C58.5577 217.758 58.7723 217.175 59.2017 216.745C59.631 216.316 60.233 216.101 61.0077 216.101C61.3063 216.101 61.5863 216.139 61.8477 216.213C62.109 216.288 62.333 216.395 62.5197 216.535L62.1137 217.557C61.8057 217.324 61.4603 217.207 61.0777 217.207ZM70.655 226.657C69.9177 226.657 69.255 226.494 68.667 226.167C68.079 225.841 67.617 225.393 67.281 224.823C66.9543 224.245 66.791 223.591 66.791 222.863C66.791 222.135 66.9543 221.487 67.281 220.917C67.617 220.339 68.079 219.891 68.667 219.573C69.255 219.247 69.9177 219.083 70.655 219.083C71.3923 219.083 72.0503 219.247 72.629 219.573C73.217 219.891 73.6743 220.339 74.001 220.917C74.337 221.487 74.505 222.135 74.505 222.863C74.505 223.591 74.337 224.245 74.001 224.823C73.6743 225.393 73.217 225.841 72.629 226.167C72.0503 226.494 71.3923 226.657 70.655 226.657ZM70.655 225.481C71.131 225.481 71.5557 225.374 71.929 225.159C72.3117 224.935 72.6103 224.627 72.825 224.235C73.0397 223.834 73.147 223.377 73.147 222.863C73.147 222.35 73.0397 221.897 72.825 221.505C72.6103 221.104 72.3117 220.796 71.929 220.581C71.5557 220.367 71.131 220.259 70.655 220.259C70.179 220.259 69.7497 220.367 69.367 220.581C68.9937 220.796 68.695 221.104 68.471 221.505C68.2563 221.897 68.149 222.35 68.149 222.863C68.149 223.377 68.2563 223.834 68.471 224.235C68.695 224.627 68.9937 224.935 69.367 225.159C69.7497 225.374 70.179 225.481 70.655 225.481ZM80.7457 226.139C80.5497 226.307 80.307 226.438 80.0177 226.531C79.7284 226.615 79.4297 226.657 79.1217 226.657C78.375 226.657 77.7964 226.457 77.3857 226.055C76.975 225.654 76.7697 225.08 76.7697 224.333V220.259H75.5097V219.153H76.7697V217.529H78.1137V219.153H80.2417V220.259H78.1137V224.277C78.1137 224.679 78.2117 224.987 78.4077 225.201C78.613 225.416 78.9024 225.523 79.2757 225.523C79.6864 225.523 80.0364 225.407 80.3257 225.173L80.7457 226.139ZM86.5426 219.083C87.4852 219.083 88.2319 219.359 88.7826 219.909C89.3426 220.451 89.6226 221.249 89.6226 222.303V226.573H88.2786V222.457C88.2786 221.739 88.1059 221.197 87.7606 220.833C87.4152 220.469 86.9206 220.287 86.2766 220.287C85.5486 220.287 84.9746 220.502 84.5546 220.931C84.1346 221.351 83.9246 221.958 83.9246 222.751V226.573H82.5806V216.185H83.9246V220.203C84.2046 219.849 84.5686 219.573 85.0166 219.377C85.4739 219.181 85.9826 219.083 86.5426 219.083ZM99.0669 222.905C99.0669 223.008 99.0576 223.143 99.0389 223.311H93.0189C93.1029 223.965 93.3876 224.492 93.8729 224.893C94.3676 225.285 94.9789 225.481 95.7069 225.481C96.5936 225.481 97.3076 225.183 97.8489 224.585L98.5909 225.453C98.2549 225.845 97.8349 226.144 97.3309 226.349C96.8362 226.555 96.2809 226.657 95.6649 226.657C94.8809 226.657 94.1856 226.499 93.5789 226.181C92.9722 225.855 92.5009 225.402 92.1649 224.823C91.8382 224.245 91.6749 223.591 91.6749 222.863C91.6749 222.145 91.8336 221.496 92.1509 220.917C92.4776 220.339 92.9209 219.891 93.4809 219.573C94.0502 219.247 94.6896 219.083 95.3989 219.083C96.1082 219.083 96.7382 219.247 97.2889 219.573C97.8489 219.891 98.2829 220.339 98.5909 220.917C98.9082 221.496 99.0669 222.159 99.0669 222.905ZM95.3989 220.217C94.7549 220.217 94.2136 220.413 93.7749 220.805C93.3456 221.197 93.0936 221.711 93.0189 222.345H97.7789C97.7042 221.72 97.4476 221.211 97.0089 220.819C96.5796 220.418 96.0429 220.217 95.3989 220.217ZM102.431 220.399C102.664 219.97 103.01 219.643 103.467 219.419C103.924 219.195 104.48 219.083 105.133 219.083V220.385C105.058 220.376 104.956 220.371 104.825 220.371C104.097 220.371 103.523 220.591 103.103 221.029C102.692 221.459 102.487 222.075 102.487 222.877V226.573H101.143V219.153H102.431V220.399ZM57.0755 241.083C57.7941 241.083 58.4381 241.242 59.0075 241.559C59.5768 241.877 60.0201 242.32 60.3375 242.889C60.6641 243.459 60.8275 244.117 60.8275 244.863C60.8275 245.61 60.6641 246.273 60.3375 246.851C60.0201 247.421 59.5768 247.864 59.0075 248.181C58.4381 248.499 57.7941 248.657 57.0755 248.657C56.5435 248.657 56.0535 248.555 55.6055 248.349C55.1668 248.144 54.7935 247.845 54.4855 247.453V251.289H53.1415V241.153H54.4295V242.329C54.7281 241.919 55.1061 241.611 55.5635 241.405C56.0208 241.191 56.5248 241.083 57.0755 241.083ZM56.9635 247.481C57.4395 247.481 57.8641 247.374 58.2375 247.159C58.6201 246.935 58.9188 246.627 59.1335 246.235C59.3575 245.834 59.4695 245.377 59.4695 244.863C59.4695 244.35 59.3575 243.897 59.1335 243.505C58.9188 243.104 58.6201 242.796 58.2375 242.581C57.8641 242.367 57.4395 242.259 56.9635 242.259C56.4968 242.259 56.0721 242.371 55.6895 242.595C55.3161 242.81 55.0175 243.113 54.7935 243.505C54.5788 243.897 54.4715 244.35 54.4715 244.863C54.4715 245.377 54.5788 245.834 54.7935 246.235C55.0081 246.627 55.3068 246.935 55.6895 247.159C56.0721 247.374 56.4968 247.481 56.9635 247.481ZM69.6004 244.905C69.6004 245.008 69.5911 245.143 69.5724 245.311H63.5524C63.6364 245.965 63.9211 246.492 64.4064 246.893C64.9011 247.285 65.5124 247.481 66.2404 247.481C67.1271 247.481 67.8411 247.183 68.3824 246.585L69.1244 247.453C68.7884 247.845 68.3684 248.144 67.8644 248.349C67.3698 248.555 66.8144 248.657 66.1984 248.657C65.4144 248.657 64.7191 248.499 64.1124 248.181C63.5058 247.855 63.0344 247.402 62.6984 246.823C62.3718 246.245 62.2084 245.591 62.2084 244.863C62.2084 244.145 62.3671 243.496 62.6844 242.917C63.0111 242.339 63.4544 241.891 64.0144 241.573C64.5838 241.247 65.2231 241.083 65.9324 241.083C66.6418 241.083 67.2718 241.247 67.8224 241.573C68.3824 241.891 68.8164 242.339 69.1244 242.917C69.4418 243.496 69.6004 244.159 69.6004 244.905ZM65.9324 242.217C65.2884 242.217 64.7471 242.413 64.3084 242.805C63.8791 243.197 63.6271 243.711 63.5524 244.345H68.3124C68.2378 243.72 67.9811 243.211 67.5424 242.819C67.1131 242.418 66.5764 242.217 65.9324 242.217ZM74.8547 248.657C74.1174 248.657 73.4547 248.494 72.8667 248.167C72.2787 247.841 71.8167 247.393 71.4807 246.823C71.154 246.245 70.9907 245.591 70.9907 244.863C70.9907 244.135 71.154 243.487 71.4807 242.917C71.8167 242.339 72.2787 241.891 72.8667 241.573C73.4547 241.247 74.1174 241.083 74.8547 241.083C75.592 241.083 76.25 241.247 76.8287 241.573C77.4167 241.891 77.874 242.339 78.2007 242.917C78.5367 243.487 78.7047 244.135 78.7047 244.863C78.7047 245.591 78.5367 246.245 78.2007 246.823C77.874 247.393 77.4167 247.841 76.8287 248.167C76.25 248.494 75.592 248.657 74.8547 248.657ZM74.8547 247.481C75.3307 247.481 75.7554 247.374 76.1287 247.159C76.5114 246.935 76.81 246.627 77.0247 246.235C77.2394 245.834 77.3467 245.377 77.3467 244.863C77.3467 244.35 77.2394 243.897 77.0247 243.505C76.81 243.104 76.5114 242.796 76.1287 242.581C75.7554 242.367 75.3307 242.259 74.8547 242.259C74.3787 242.259 73.9494 242.367 73.5667 242.581C73.1934 242.796 72.8947 243.104 72.6707 243.505C72.456 243.897 72.3487 244.35 72.3487 244.863C72.3487 245.377 72.456 245.834 72.6707 246.235C72.8947 246.627 73.1934 246.935 73.5667 247.159C73.9494 247.374 74.3787 247.481 74.8547 247.481ZM84.7074 241.083C85.4261 241.083 86.0701 241.242 86.6394 241.559C87.2088 241.877 87.6521 242.32 87.9694 242.889C88.2961 243.459 88.4594 244.117 88.4594 244.863C88.4594 245.61 88.2961 246.273 87.9694 246.851C87.6521 247.421 87.2088 247.864 86.6394 248.181C86.0701 248.499 85.4261 248.657 84.7074 248.657C84.1754 248.657 83.6854 248.555 83.2374 248.349C82.7988 248.144 82.4254 247.845 82.1174 247.453V251.289H80.7734V241.153H82.0614V242.329C82.3601 241.919 82.7381 241.611 83.1954 241.405C83.6528 241.191 84.1568 241.083 84.7074 241.083ZM84.5954 247.481C85.0714 247.481 85.4961 247.374 85.8694 247.159C86.2521 246.935 86.5508 246.627 86.7654 246.235C86.9894 245.834 87.1014 245.377 87.1014 244.863C87.1014 244.35 86.9894 243.897 86.7654 243.505C86.5508 243.104 86.2521 242.796 85.8694 242.581C85.4961 242.367 85.0714 242.259 84.5954 242.259C84.1288 242.259 83.7041 242.371 83.3214 242.595C82.9481 242.81 82.6494 243.113 82.4254 243.505C82.2108 243.897 82.1034 244.35 82.1034 244.863C82.1034 245.377 82.2108 245.834 82.4254 246.235C82.6401 246.627 82.9388 246.935 83.3214 247.159C83.7041 247.374 84.1288 247.481 84.5954 247.481ZM90.5264 238.185H91.8704V248.573H90.5264V238.185ZM101.353 244.905C101.353 245.008 101.343 245.143 101.325 245.311H95.3046C95.3886 245.965 95.6732 246.492 96.1586 246.893C96.6532 247.285 97.2646 247.481 97.9926 247.481C98.8792 247.481 99.5932 247.183 100.135 246.585L100.877 247.453C100.541 247.845 100.121 248.144 99.6166 248.349C99.1219 248.555 98.5666 248.657 97.9506 248.657C97.1666 248.657 96.4712 248.499 95.8646 248.181C95.2579 247.855 94.7866 247.402 94.4506 246.823C94.1239 246.245 93.9606 245.591 93.9606 244.863C93.9606 244.145 94.1192 243.496 94.4366 242.917C94.7632 242.339 95.2066 241.891 95.7666 241.573C96.3359 241.247 96.9752 241.083 97.6846 241.083C98.3939 241.083 99.0239 241.247 99.5746 241.573C100.135 241.891 100.569 242.339 100.877 242.917C101.194 243.496 101.353 244.159 101.353 244.905ZM97.6846 242.217C97.0406 242.217 96.4992 242.413 96.0606 242.805C95.6312 243.197 95.3792 243.711 95.3046 244.345H100.065C99.9899 243.72 99.7332 243.211 99.2946 242.819C98.8652 242.418 98.3286 242.217 97.6846 242.217Z" fill="white"/>
<defs>
<filter id="filter0_d" x="154.684" y="162.846" width="151" height="137.226" filterUnits="userSpaceOnUse" color-interpolation-filters="sRGB">
<feFlood flood-opacity="0" result="BackgroundImageFix"/>
<feColorMatrix in="SourceAlpha" type="matrix" values="0 0 0 0 0 0 0 0 0 0 0 0 0 0 0 0 0 0 127 0"/>
<feOffset dy="12"/>
<feGaussianBlur stdDeviation="6.5"/>
<feColorMatrix type="matrix" values="0 0 0 0 0 0 0 0 0 0 0 0 0 0 0 0 0 0 0.25 0"/>
<feBlend mode="normal" in2="BackgroundImageFix" result="effect1_dropShadow"/>
<feBlend mode="normal" in="SourceGraphic" in2="effect1_dropShadow" result="shape"/>
</filter>
<filter id="filter1_d" x="159.684" y="159.846" width="141" height="127" filterUnits="userSpaceOnUse" color-interpolation-filters="sRGB">
<feFlood flood-opacity="0" result="BackgroundImageFix"/>
<feColorMatrix in="SourceAlpha" type="matrix" values="0 0 0 0 0 0 0 0 0 0 0 0 0 0 0 0 0 0 127 0"/>
<feOffset dy="4"/>
<feGaussianBlur stdDeviation="4"/>
<feColorMatrix type="matrix" values="0 0 0 0 0 0 0 0 0 0 0 0 0 0 0 0 0 0 0.1 0"/>
<feBlend mode="normal" in2="BackgroundImageFix" result="effect1_dropShadow"/>
<feBlend mode="normal" in="SourceGraphic" in2="effect1_dropShadow" result="shape"/>
</filter>
<filter id="filter2_d" x="1.93408" y="162.846" width="149.091" height="137.226" filterUnits="userSpaceOnUse" color-interpolation-filters="sRGB">
<feFlood flood-opacity="0" result="BackgroundImageFix"/>
<feColorMatrix in="SourceAlpha" type="matrix" values="0 0 0 0 0 0 0 0 0 0 0 0 0 0 0 0 0 0 127 0"/>
<feOffset dy="12"/>
<feGaussianBlur stdDeviation="6.5"/>
<feColorMatrix type="matrix" values="0 0 0 0 0 0 0 0 0 0 0 0 0 0 0 0 0 0 0.25 0"/>
<feBlend mode="normal" in2="BackgroundImageFix" result="effect1_dropShadow"/>
<feBlend mode="normal" in="SourceGraphic" in2="effect1_dropShadow" result="shape"/>
</filter>
<filter id="filter3_d" x="6.93408" y="159.846" width="139" height="127" filterUnits="userSpaceOnUse" color-interpolation-filters="sRGB">
<feFlood flood-opacity="0" result="BackgroundImageFix"/>
<feColorMatrix in="SourceAlpha" type="matrix" values="0 0 0 0 0 0 0 0 0 0 0 0 0 0 0 0 0 0 127 0"/>
<feOffset dy="4"/>
<feGaussianBlur stdDeviation="4"/>
<feColorMatrix type="matrix" values="0 0 0 0 0 0 0 0 0 0 0 0 0 0 0 0 0 0 0.1 0"/>
<feBlend mode="normal" in2="BackgroundImageFix" result="effect1_dropShadow"/>
<feBlend mode="normal" in="SourceGraphic" in2="effect1_dropShadow" result="shape"/>
</filter>
</defs>
</svg>
