<svg width="501" height="415" viewBox="0 0 501 415" fill="none" xmlns="http://www.w3.org/2000/svg">
<path d="M53.6465 16.6464C53.4512 16.8417 53.4512 17.1583 53.6465 17.3536L56.8285 20.5355C57.0237 20.7308 57.3403 20.7308 57.5356 20.5355C57.7308 20.3403 57.7308 20.0237 57.5356 19.8284L54.7071 17L57.5356 14.1716C57.7308 13.9763 57.7308 13.6597 57.5356 13.4645C57.3403 13.2692 57.0237 13.2692 56.8285 13.4645L53.6465 16.6464ZM501 16.5L54 16.5V17.5L501 17.5V16.5Z" fill="#DBDBDB"/>
<path d="M4.35355 0.646447C4.15829 0.451184 3.84171 0.451184 3.64645 0.646447L0.464466 3.82843C0.269204 4.02369 0.269204 4.34027 0.464466 4.53553C0.659728 4.7308 0.976311 4.7308 1.17157 4.53553L4 1.70711L6.82843 4.53553C7.02369 4.7308 7.34027 4.7308 7.53553 4.53553C7.7308 4.34027 7.7308 4.02369 7.53553 3.82843L4.35355 0.646447ZM4.5 415L4.5 1H3.5L3.5 415H4.5Z" fill="#DBDBDB"/>
<path d="M67.2806 90.3226C65.975 90.3226 64.7078 90.1613 63.479 89.8387C62.2502 89.5162 61.2518 89.0861 60.4838 88.5485L61.9814 85.1846C62.7034 85.6608 63.5405 86.0448 64.4928 86.3366C65.4451 86.6285 66.3821 86.7744 67.3037 86.7744C69.0547 86.7744 69.9302 86.3366 69.9302 85.4611C69.9302 85.0003 69.6768 84.6624 69.1699 84.4474C68.6784 84.217 67.8797 83.9789 66.7738 83.7331C65.5603 83.472 64.5466 83.1955 63.7325 82.9037C62.9184 82.5965 62.2195 82.1126 61.6358 81.4522C61.0522 80.7917 60.7603 79.9008 60.7603 78.7795C60.7603 77.7965 61.0291 76.9133 61.5667 76.1299C62.1043 75.3312 62.903 74.7014 63.9629 74.2406C65.0381 73.7798 66.3514 73.5494 67.9027 73.5494C68.9626 73.5494 70.007 73.6723 71.0362 73.9181C72.0653 74.1485 72.9715 74.4941 73.7549 74.9549L72.3494 78.3418C70.8134 77.5123 69.3235 77.0976 67.8797 77.0976C66.9734 77.0976 66.313 77.2358 65.8982 77.5123C65.4835 77.7734 65.2762 78.119 65.2762 78.5491C65.2762 78.9792 65.5219 79.3018 66.0134 79.5168C66.505 79.7318 67.296 79.9546 68.3866 80.185C69.6154 80.4461 70.6291 80.7302 71.4278 81.0374C72.2419 81.3293 72.9408 81.8054 73.5245 82.4659C74.1235 83.111 74.423 83.9942 74.423 85.1155C74.423 86.0832 74.1542 86.9587 73.6166 87.7421C73.079 88.5254 72.2726 89.1552 71.1974 89.6314C70.1222 90.0922 68.8166 90.3226 67.2806 90.3226ZM89.4327 83.7792C89.4327 83.8099 89.4097 84.1709 89.3636 84.8621H80.2858C80.4701 85.5072 80.8234 86.0064 81.3457 86.3597C81.8833 86.6976 82.5514 86.8666 83.3501 86.8666C83.9492 86.8666 84.4637 86.7821 84.8938 86.6131C85.3393 86.4442 85.7847 86.1677 86.2301 85.7837L88.5341 88.1798C87.3207 89.5315 85.5466 90.2074 83.2119 90.2074C81.7527 90.2074 80.4701 89.9309 79.3642 89.3779C78.2583 88.825 77.3981 88.057 76.7837 87.0739C76.1847 86.0909 75.8852 84.9773 75.8852 83.7331C75.8852 82.5043 76.177 81.4061 76.7607 80.4384C77.3597 79.4554 78.1815 78.6874 79.226 78.1344C80.2705 77.5814 81.4455 77.305 82.7511 77.305C83.9953 77.305 85.1242 77.5661 86.138 78.0883C87.1517 78.5952 87.9505 79.3402 88.5341 80.3232C89.1332 81.2909 89.4327 82.4429 89.4327 83.7792ZM82.7741 80.4154C82.0983 80.4154 81.53 80.6074 81.0692 80.9914C80.6237 81.3754 80.3396 81.8976 80.2167 82.5581H85.3316C85.2087 81.8976 84.9169 81.3754 84.4561 80.9914C84.0106 80.6074 83.45 80.4154 82.7741 80.4154ZM104.561 83.7792C104.561 83.8099 104.538 84.1709 104.492 84.8621H95.4139C95.5982 85.5072 95.9515 86.0064 96.4738 86.3597C97.0114 86.6976 97.6795 86.8666 98.4782 86.8666C99.0773 86.8666 99.5918 86.7821 100.022 86.6131C100.467 86.4442 100.913 86.1677 101.358 85.7837L103.662 88.1798C102.449 89.5315 100.675 90.2074 98.34 90.2074C96.8808 90.2074 95.5982 89.9309 94.4923 89.3779C93.3864 88.825 92.5262 88.057 91.9118 87.0739C91.3128 86.0909 91.0133 84.9773 91.0133 83.7331C91.0133 82.5043 91.3051 81.4061 91.8888 80.4384C92.4878 79.4554 93.3096 78.6874 94.3541 78.1344C95.3986 77.5814 96.5736 77.305 97.8792 77.305C99.1234 77.305 100.252 77.5661 101.266 78.0883C102.28 78.5952 103.079 79.3402 103.662 80.3232C104.261 81.2909 104.561 82.4429 104.561 83.7792ZM97.9022 80.4154C97.2264 80.4154 96.6581 80.6074 96.1973 80.9914C95.7518 81.3754 95.4677 81.8976 95.3448 82.5581H100.46C100.337 81.8976 100.045 81.3754 99.5842 80.9914C99.1387 80.6074 98.5781 80.4154 97.9022 80.4154Z" fill="white"/>
<g filter="url(#filter0_d)">
<g filter="url(#filter1_d)">
<path d="M231.09 160.127C231.09 159.023 231.986 158.127 233.09 158.127H354.09C355.195 158.127 356.09 159.023 356.09 160.127V267.127C356.09 268.232 355.195 269.127 354.09 269.127H233.09C231.986 269.127 231.09 268.232 231.09 267.127V160.127Z" fill="#396AF5"/>
<path d="M233.09 158.627H354.09C354.919 158.627 355.59 159.299 355.59 160.127V267.127C355.59 267.956 354.919 268.627 354.09 268.627H233.09C232.262 268.627 231.59 267.956 231.59 267.127V160.127C231.59 159.299 232.262 158.627 233.09 158.627Z" stroke="#333333" stroke-opacity="0.1"/>
</g>
<rect x="231.09" y="158.127" width="125" height="12" fill="white" fill-opacity="0.1"/>
</g>
<path d="M275.148 190.327L270.85 200.127H269.464L265.152 190.327H266.664L270.192 198.377L273.748 190.327H275.148ZM276.426 192.707H277.77V200.127H276.426V192.707ZM277.098 191.279C276.837 191.279 276.617 191.195 276.44 191.027C276.272 190.859 276.188 190.654 276.188 190.411C276.188 190.169 276.272 189.963 276.44 189.795C276.617 189.618 276.837 189.529 277.098 189.529C277.359 189.529 277.574 189.613 277.742 189.781C277.919 189.94 278.008 190.141 278.008 190.383C278.008 190.635 277.919 190.85 277.742 191.027C277.574 191.195 277.359 191.279 277.098 191.279ZM287.546 189.739V200.127H286.258V198.951C285.959 199.362 285.581 199.675 285.124 199.889C284.667 200.104 284.163 200.211 283.612 200.211C282.893 200.211 282.249 200.053 281.68 199.735C281.111 199.418 280.663 198.975 280.336 198.405C280.019 197.827 279.86 197.164 279.86 196.417C279.86 195.671 280.019 195.013 280.336 194.443C280.663 193.874 281.111 193.431 281.68 193.113C282.249 192.796 282.893 192.637 283.612 192.637C284.144 192.637 284.634 192.74 285.082 192.945C285.53 193.141 285.903 193.435 286.202 193.827V189.739H287.546ZM283.724 199.035C284.191 199.035 284.615 198.928 284.998 198.713C285.381 198.489 285.679 198.181 285.894 197.789C286.109 197.388 286.216 196.931 286.216 196.417C286.216 195.904 286.109 195.451 285.894 195.059C285.679 194.658 285.381 194.35 284.998 194.135C284.615 193.921 284.191 193.813 283.724 193.813C283.248 193.813 282.819 193.921 282.436 194.135C282.063 194.35 281.764 194.658 281.54 195.059C281.325 195.451 281.218 195.904 281.218 196.417C281.218 196.931 281.325 197.388 281.54 197.789C281.764 198.181 282.063 198.489 282.436 198.713C282.819 198.928 283.248 199.035 283.724 199.035ZM297.005 196.459C297.005 196.562 296.996 196.697 296.977 196.865H290.957C291.041 197.519 291.326 198.046 291.811 198.447C292.306 198.839 292.917 199.035 293.645 199.035C294.532 199.035 295.246 198.737 295.787 198.139L296.529 199.007C296.193 199.399 295.773 199.698 295.269 199.903C294.774 200.109 294.219 200.211 293.603 200.211C292.819 200.211 292.124 200.053 291.517 199.735C290.91 199.409 290.439 198.956 290.103 198.377C289.776 197.799 289.613 197.145 289.613 196.417C289.613 195.699 289.772 195.05 290.089 194.471C290.416 193.893 290.859 193.445 291.419 193.127C291.988 192.801 292.628 192.637 293.337 192.637C294.046 192.637 294.676 192.801 295.227 193.127C295.787 193.445 296.221 193.893 296.529 194.471C296.846 195.05 297.005 195.713 297.005 196.459ZM293.337 193.771C292.693 193.771 292.152 193.967 291.713 194.359C291.284 194.751 291.032 195.265 290.957 195.899H295.717C295.642 195.274 295.386 194.765 294.947 194.373C294.518 193.972 293.981 193.771 293.337 193.771ZM302.259 200.211C301.522 200.211 300.859 200.048 300.271 199.721C299.683 199.395 299.221 198.947 298.885 198.377C298.559 197.799 298.395 197.145 298.395 196.417C298.395 195.689 298.559 195.041 298.885 194.471C299.221 193.893 299.683 193.445 300.271 193.127C300.859 192.801 301.522 192.637 302.259 192.637C302.997 192.637 303.655 192.801 304.233 193.127C304.821 193.445 305.279 193.893 305.605 194.471C305.941 195.041 306.109 195.689 306.109 196.417C306.109 197.145 305.941 197.799 305.605 198.377C305.279 198.947 304.821 199.395 304.233 199.721C303.655 200.048 302.997 200.211 302.259 200.211ZM302.259 199.035C302.735 199.035 303.16 198.928 303.533 198.713C303.916 198.489 304.215 198.181 304.429 197.789C304.644 197.388 304.751 196.931 304.751 196.417C304.751 195.904 304.644 195.451 304.429 195.059C304.215 194.658 303.916 194.35 303.533 194.135C303.16 193.921 302.735 193.813 302.259 193.813C301.783 193.813 301.354 193.921 300.971 194.135C300.598 194.35 300.299 194.658 300.075 195.059C299.861 195.451 299.753 195.904 299.753 196.417C299.753 196.931 299.861 197.388 300.075 197.789C300.299 198.181 300.598 198.489 300.971 198.713C301.354 198.928 301.783 199.035 302.259 199.035ZM310.306 200.211C309.699 200.211 309.116 200.132 308.556 199.973C307.996 199.805 307.557 199.595 307.24 199.343L307.8 198.279C308.127 198.513 308.523 198.699 308.99 198.839C309.457 198.979 309.928 199.049 310.404 199.049C311.58 199.049 312.168 198.713 312.168 198.041C312.168 197.817 312.089 197.64 311.93 197.509C311.771 197.379 311.571 197.285 311.328 197.229C311.095 197.164 310.759 197.094 310.32 197.019C309.723 196.926 309.233 196.819 308.85 196.697C308.477 196.576 308.155 196.371 307.884 196.081C307.613 195.792 307.478 195.386 307.478 194.863C307.478 194.191 307.758 193.655 308.318 193.253C308.878 192.843 309.629 192.637 310.572 192.637C311.067 192.637 311.561 192.698 312.056 192.819C312.551 192.941 312.957 193.104 313.274 193.309L312.7 194.373C312.093 193.981 311.379 193.785 310.558 193.785C309.989 193.785 309.555 193.879 309.256 194.065C308.957 194.252 308.808 194.499 308.808 194.807C308.808 195.05 308.892 195.241 309.06 195.381C309.228 195.521 309.433 195.624 309.676 195.689C309.928 195.755 310.278 195.829 310.726 195.913C311.323 196.016 311.804 196.128 312.168 196.249C312.541 196.361 312.859 196.557 313.12 196.837C313.381 197.117 313.512 197.509 313.512 198.013C313.512 198.685 313.223 199.222 312.644 199.623C312.075 200.015 311.295 200.211 310.306 200.211ZM267.186 217.707L264.414 225.127H263.126L260.984 219.499L258.814 225.127H257.526L254.768 217.707H256.042L258.198 223.615L260.438 217.707H261.572L263.77 223.643L265.982 217.707H267.186ZM268.76 217.707H270.104V225.127H268.76V217.707ZM269.432 216.279C269.17 216.279 268.951 216.195 268.774 216.027C268.606 215.859 268.522 215.654 268.522 215.411C268.522 215.169 268.606 214.963 268.774 214.795C268.951 214.618 269.17 214.529 269.432 214.529C269.693 214.529 269.908 214.613 270.076 214.781C270.253 214.94 270.342 215.141 270.342 215.383C270.342 215.635 270.253 215.85 270.076 216.027C269.908 216.195 269.693 216.279 269.432 216.279ZM277.052 224.693C276.856 224.861 276.613 224.992 276.324 225.085C276.035 225.169 275.736 225.211 275.428 225.211C274.681 225.211 274.103 225.011 273.692 224.609C273.281 224.208 273.076 223.634 273.076 222.887V218.813H271.816V217.707H273.076V216.083H274.42V217.707H276.548V218.813H274.42V222.831C274.42 223.233 274.518 223.541 274.714 223.755C274.919 223.97 275.209 224.077 275.582 224.077C275.993 224.077 276.343 223.961 276.632 223.727L277.052 224.693ZM282.849 217.637C283.791 217.637 284.538 217.913 285.089 218.463C285.649 219.005 285.929 219.803 285.929 220.857V225.127H284.585V221.011C284.585 220.293 284.412 219.751 284.067 219.387C283.721 219.023 283.227 218.841 282.583 218.841C281.855 218.841 281.281 219.056 280.861 219.485C280.441 219.905 280.231 220.512 280.231 221.305V225.127H278.887V214.739H280.231V218.757C280.511 218.403 280.875 218.127 281.323 217.931C281.78 217.735 282.289 217.637 282.849 217.637ZM296.768 224.693C296.572 224.861 296.329 224.992 296.04 225.085C295.751 225.169 295.452 225.211 295.144 225.211C294.397 225.211 293.819 225.011 293.408 224.609C292.997 224.208 292.792 223.634 292.792 222.887V218.813H291.532V217.707H292.792V216.083H294.136V217.707H296.264V218.813H294.136V222.831C294.136 223.233 294.234 223.541 294.43 223.755C294.635 223.97 294.925 224.077 295.298 224.077C295.709 224.077 296.059 223.961 296.348 223.727L296.768 224.693ZM299.891 218.953C300.124 218.524 300.469 218.197 300.927 217.973C301.384 217.749 301.939 217.637 302.593 217.637V218.939C302.518 218.93 302.415 218.925 302.285 218.925C301.557 218.925 300.983 219.145 300.563 219.583C300.152 220.013 299.947 220.629 299.947 221.431V225.127H298.603V217.707H299.891V218.953ZM307.148 217.637C308.174 217.637 308.958 217.889 309.5 218.393C310.05 218.897 310.326 219.649 310.326 220.647V225.127H309.052V224.147C308.828 224.493 308.506 224.759 308.086 224.945C307.675 225.123 307.185 225.211 306.616 225.211C305.785 225.211 305.118 225.011 304.614 224.609C304.119 224.208 303.872 223.681 303.872 223.027C303.872 222.374 304.11 221.851 304.586 221.459C305.062 221.058 305.818 220.857 306.854 220.857H308.982V220.591C308.982 220.013 308.814 219.569 308.478 219.261C308.142 218.953 307.647 218.799 306.994 218.799C306.555 218.799 306.126 218.874 305.706 219.023C305.286 219.163 304.931 219.355 304.642 219.597L304.082 218.589C304.464 218.281 304.922 218.048 305.454 217.889C305.986 217.721 306.55 217.637 307.148 217.637ZM306.84 224.175C307.353 224.175 307.796 224.063 308.17 223.839C308.543 223.606 308.814 223.279 308.982 222.859V221.823H306.91C305.771 221.823 305.202 222.206 305.202 222.971C305.202 223.345 305.346 223.639 305.636 223.853C305.925 224.068 306.326 224.175 306.84 224.175ZM319.452 217.707L316.204 225.127H314.832L311.584 217.707H312.984L315.532 223.657L318.136 217.707H319.452ZM327.417 221.459C327.417 221.562 327.408 221.697 327.389 221.865H321.369C321.453 222.519 321.738 223.046 322.223 223.447C322.718 223.839 323.329 224.035 324.057 224.035C324.944 224.035 325.658 223.737 326.199 223.139L326.941 224.007C326.605 224.399 326.185 224.698 325.681 224.903C325.187 225.109 324.631 225.211 324.015 225.211C323.231 225.211 322.536 225.053 321.929 224.735C321.323 224.409 320.851 223.956 320.515 223.377C320.189 222.799 320.025 222.145 320.025 221.417C320.025 220.699 320.184 220.05 320.501 219.471C320.828 218.893 321.271 218.445 321.831 218.127C322.401 217.801 323.04 217.637 323.749 217.637C324.459 217.637 325.089 217.801 325.639 218.127C326.199 218.445 326.633 218.893 326.941 219.471C327.259 220.05 327.417 220.713 327.417 221.459ZM323.749 218.771C323.105 218.771 322.564 218.967 322.125 219.359C321.696 219.751 321.444 220.265 321.369 220.899H326.129C326.055 220.274 325.798 219.765 325.359 219.373C324.93 218.972 324.393 218.771 323.749 218.771ZM329.494 214.739H330.838V225.127H329.494V214.739ZM256.491 239.637C257.518 239.637 258.302 239.889 258.843 240.393C259.394 240.897 259.669 241.649 259.669 242.647V247.127H258.395V246.147C258.171 246.493 257.849 246.759 257.429 246.945C257.018 247.123 256.528 247.211 255.959 247.211C255.128 247.211 254.461 247.011 253.957 246.609C253.462 246.208 253.215 245.681 253.215 245.027C253.215 244.374 253.453 243.851 253.929 243.459C254.405 243.058 255.161 242.857 256.197 242.857H258.325V242.591C258.325 242.013 258.157 241.569 257.821 241.261C257.485 240.953 256.99 240.799 256.337 240.799C255.898 240.799 255.469 240.874 255.049 241.023C254.629 241.163 254.274 241.355 253.985 241.597L253.425 240.589C253.808 240.281 254.265 240.048 254.797 239.889C255.329 239.721 255.894 239.637 256.491 239.637ZM256.183 246.175C256.696 246.175 257.14 246.063 257.513 245.839C257.886 245.606 258.157 245.279 258.325 244.859V243.823H256.253C255.114 243.823 254.545 244.206 254.545 244.971C254.545 245.345 254.69 245.639 254.979 245.853C255.268 246.068 255.67 246.175 256.183 246.175ZM269.407 236.739V247.127H268.119V245.951C267.821 246.362 267.443 246.675 266.985 246.889C266.528 247.104 266.024 247.211 265.473 247.211C264.755 247.211 264.111 247.053 263.541 246.735C262.972 246.418 262.524 245.975 262.197 245.405C261.88 244.827 261.721 244.164 261.721 243.417C261.721 242.671 261.88 242.013 262.197 241.443C262.524 240.874 262.972 240.431 263.541 240.113C264.111 239.796 264.755 239.637 265.473 239.637C266.005 239.637 266.495 239.74 266.943 239.945C267.391 240.141 267.765 240.435 268.063 240.827V236.739H269.407ZM265.585 246.035C266.052 246.035 266.477 245.928 266.859 245.713C267.242 245.489 267.541 245.181 267.755 244.789C267.97 244.388 268.077 243.931 268.077 243.417C268.077 242.904 267.97 242.451 267.755 242.059C267.541 241.658 267.242 241.35 266.859 241.135C266.477 240.921 266.052 240.813 265.585 240.813C265.109 240.813 264.68 240.921 264.297 241.135C263.924 241.35 263.625 241.658 263.401 242.059C263.187 242.451 263.079 242.904 263.079 243.417C263.079 243.931 263.187 244.388 263.401 244.789C263.625 245.181 263.924 245.489 264.297 245.713C264.68 245.928 265.109 246.035 265.585 246.035ZM278.726 239.707L275.478 247.127H274.106L270.858 239.707H272.258L274.806 245.657L277.41 239.707H278.726ZM286.691 243.459C286.691 243.562 286.682 243.697 286.663 243.865H280.643C280.727 244.519 281.012 245.046 281.497 245.447C281.992 245.839 282.603 246.035 283.331 246.035C284.218 246.035 284.932 245.737 285.473 245.139L286.215 246.007C285.879 246.399 285.459 246.698 284.955 246.903C284.461 247.109 283.905 247.211 283.289 247.211C282.505 247.211 281.81 247.053 281.203 246.735C280.597 246.409 280.125 245.956 279.789 245.377C279.463 244.799 279.299 244.145 279.299 243.417C279.299 242.699 279.458 242.05 279.775 241.471C280.102 240.893 280.545 240.445 281.105 240.127C281.675 239.801 282.314 239.637 283.023 239.637C283.733 239.637 284.363 239.801 284.913 240.127C285.473 240.445 285.907 240.893 286.215 241.471C286.533 242.05 286.691 242.713 286.691 243.459ZM283.023 240.771C282.379 240.771 281.838 240.967 281.399 241.359C280.97 241.751 280.718 242.265 280.643 242.899H285.403C285.329 242.274 285.072 241.765 284.633 241.373C284.204 240.972 283.667 240.771 283.023 240.771ZM292.73 239.637C293.672 239.637 294.419 239.913 294.97 240.463C295.53 241.005 295.81 241.803 295.81 242.857V247.127H294.466V243.011C294.466 242.293 294.293 241.751 293.948 241.387C293.602 241.023 293.108 240.841 292.464 240.841C291.736 240.841 291.162 241.056 290.742 241.485C290.322 241.905 290.112 242.512 290.112 243.305V247.127H288.768V239.707H290.056V240.827C290.326 240.445 290.69 240.151 291.148 239.945C291.614 239.74 292.142 239.637 292.73 239.637ZM302.679 246.693C302.483 246.861 302.24 246.992 301.951 247.085C301.662 247.169 301.363 247.211 301.055 247.211C300.308 247.211 299.73 247.011 299.319 246.609C298.908 246.208 298.703 245.634 298.703 244.887V240.813H297.443V239.707H298.703V238.083H300.047V239.707H302.175V240.813H300.047V244.831C300.047 245.233 300.145 245.541 300.341 245.755C300.546 245.97 300.836 246.077 301.209 246.077C301.62 246.077 301.97 245.961 302.259 245.727L302.679 246.693ZM311.43 239.707V247.127H310.156V246.007C309.885 246.39 309.526 246.689 309.078 246.903C308.639 247.109 308.159 247.211 307.636 247.211C306.647 247.211 305.867 246.941 305.298 246.399C304.729 245.849 304.444 245.041 304.444 243.977V239.707H305.788V243.823C305.788 244.542 305.961 245.088 306.306 245.461C306.651 245.825 307.146 246.007 307.79 246.007C308.499 246.007 309.059 245.793 309.47 245.363C309.881 244.934 310.086 244.327 310.086 243.543V239.707H311.43ZM315.487 240.953C315.72 240.524 316.065 240.197 316.523 239.973C316.98 239.749 317.535 239.637 318.189 239.637V240.939C318.114 240.93 318.011 240.925 317.881 240.925C317.153 240.925 316.579 241.145 316.159 241.583C315.748 242.013 315.543 242.629 315.543 243.431V247.127H314.199V239.707H315.487V240.953ZM326.693 243.459C326.693 243.562 326.683 243.697 326.665 243.865H320.645C320.729 244.519 321.013 245.046 321.499 245.447C321.993 245.839 322.605 246.035 323.333 246.035C324.219 246.035 324.933 245.737 325.475 245.139L326.217 246.007C325.881 246.399 325.461 246.698 324.957 246.903C324.462 247.109 323.907 247.211 323.291 247.211C322.507 247.211 321.811 247.053 321.205 246.735C320.598 246.409 320.127 245.956 319.791 245.377C319.464 244.799 319.301 244.145 319.301 243.417C319.301 242.699 319.459 242.05 319.777 241.471C320.103 240.893 320.547 240.445 321.107 240.127C321.676 239.801 322.315 239.637 323.025 239.637C323.734 239.637 324.364 239.801 324.915 240.127C325.475 240.445 325.909 240.893 326.217 241.471C326.534 242.05 326.693 242.713 326.693 243.459ZM323.025 240.771C322.381 240.771 321.839 240.967 321.401 241.359C320.971 241.751 320.719 242.265 320.645 242.899H325.405C325.33 242.274 325.073 241.765 324.635 241.373C324.205 240.972 323.669 240.771 323.025 240.771ZM330.897 247.211C330.29 247.211 329.707 247.132 329.147 246.973C328.587 246.805 328.148 246.595 327.831 246.343L328.391 245.279C328.718 245.513 329.114 245.699 329.581 245.839C330.048 245.979 330.519 246.049 330.995 246.049C332.171 246.049 332.759 245.713 332.759 245.041C332.759 244.817 332.68 244.64 332.521 244.509C332.362 244.379 332.162 244.285 331.919 244.229C331.686 244.164 331.35 244.094 330.911 244.019C330.314 243.926 329.824 243.819 329.441 243.697C329.068 243.576 328.746 243.371 328.475 243.081C328.204 242.792 328.069 242.386 328.069 241.863C328.069 241.191 328.349 240.655 328.909 240.253C329.469 239.843 330.22 239.637 331.163 239.637C331.658 239.637 332.152 239.698 332.647 239.819C333.142 239.941 333.548 240.104 333.865 240.309L333.291 241.373C332.684 240.981 331.97 240.785 331.149 240.785C330.58 240.785 330.146 240.879 329.847 241.065C329.548 241.252 329.399 241.499 329.399 241.807C329.399 242.05 329.483 242.241 329.651 242.381C329.819 242.521 330.024 242.624 330.267 242.689C330.519 242.755 330.869 242.829 331.317 242.913C331.914 243.016 332.395 243.128 332.759 243.249C333.132 243.361 333.45 243.557 333.711 243.837C333.972 244.117 334.103 244.509 334.103 245.013C334.103 245.685 333.814 246.222 333.235 246.623C332.666 247.015 331.886 247.211 330.897 247.211Z" fill="white"/>
<g filter="url(#filter2_d)">
<g filter="url(#filter3_d)">
<path d="M78 160.127C78 159.023 78.8954 158.127 80 158.127H199C200.105 158.127 201 159.023 201 160.127V267.127C201 268.232 200.105 269.127 199 269.127H80C78.8954 269.127 78 268.232 78 267.127V160.127Z" fill="#396AF5"/>
<path d="M80 158.627H199C199.828 158.627 200.5 159.299 200.5 160.127V267.127C200.5 267.956 199.828 268.627 199 268.627H80C79.1716 268.627 78.5 267.956 78.5 267.127V160.127C78.5 159.299 79.1716 158.627 80 158.627Z" stroke="#333333" stroke-opacity="0.1"/>
</g>
<rect x="78" y="158.127" width="123" height="12" fill="white" fill-opacity="0.1"/>
</g>
<path d="M129.715 189.273H126.355V188.055H134.461V189.273H131.101V197.855H129.715V189.273ZM137.11 191.681C137.344 191.252 137.689 190.925 138.146 190.701C138.604 190.477 139.159 190.365 139.812 190.365V191.667C139.738 191.658 139.635 191.653 139.504 191.653C138.776 191.653 138.202 191.872 137.782 192.311C137.372 192.74 137.166 193.356 137.166 194.159V197.855H135.822V190.435H137.11V191.681ZM141.679 190.435H143.023V197.855H141.679V190.435ZM142.351 189.007C142.089 189.007 141.87 188.923 141.693 188.755C141.525 188.587 141.441 188.382 141.441 188.139C141.441 187.896 141.525 187.691 141.693 187.523C141.87 187.346 142.089 187.257 142.351 187.257C142.612 187.257 142.827 187.341 142.995 187.509C143.172 187.668 143.261 187.868 143.261 188.111C143.261 188.363 143.172 188.578 142.995 188.755C142.827 188.923 142.612 189.007 142.351 189.007ZM149.733 190.365C150.452 190.365 151.096 190.524 151.665 190.841C152.234 191.158 152.678 191.602 152.995 192.171C153.322 192.74 153.485 193.398 153.485 194.145C153.485 194.892 153.322 195.554 152.995 196.133C152.678 196.702 152.234 197.146 151.665 197.463C151.096 197.78 150.452 197.939 149.733 197.939C149.201 197.939 148.711 197.836 148.263 197.631C147.824 197.426 147.451 197.127 147.143 196.735V200.571H145.799V190.435H147.087V191.611C147.386 191.2 147.764 190.892 148.221 190.687C148.678 190.472 149.182 190.365 149.733 190.365ZM149.621 196.763C150.097 196.763 150.522 196.656 150.895 196.441C151.278 196.217 151.576 195.909 151.791 195.517C152.015 195.116 152.127 194.658 152.127 194.145C152.127 193.632 152.015 193.179 151.791 192.787C151.576 192.386 151.278 192.078 150.895 191.863C150.522 191.648 150.097 191.541 149.621 191.541C149.154 191.541 148.73 191.653 148.347 191.877C147.974 192.092 147.675 192.395 147.451 192.787C147.236 193.179 147.129 193.632 147.129 194.145C147.129 194.658 147.236 195.116 147.451 195.517C147.666 195.909 147.964 196.217 148.347 196.441C148.73 196.656 149.154 196.763 149.621 196.763ZM104.423 217.187C104.423 217.29 104.414 217.425 104.395 217.593H98.375C98.459 218.246 98.7437 218.774 99.229 219.175C99.7237 219.567 100.335 219.763 101.063 219.763C101.95 219.763 102.664 219.464 103.205 218.867L103.947 219.735C103.611 220.127 103.191 220.426 102.687 220.631C102.192 220.836 101.637 220.939 101.021 220.939C100.237 220.939 99.5417 220.78 98.935 220.463C98.3284 220.136 97.857 219.684 97.521 219.105C97.1944 218.526 97.031 217.873 97.031 217.145C97.031 216.426 97.1897 215.778 97.507 215.199C97.8337 214.62 98.277 214.172 98.837 213.855C99.4064 213.528 100.046 213.365 100.755 213.365C101.464 213.365 102.094 213.528 102.645 213.855C103.205 214.172 103.639 214.62 103.947 215.199C104.264 215.778 104.423 216.44 104.423 217.187ZM100.755 214.499C100.111 214.499 99.5697 214.695 99.131 215.087C98.7017 215.479 98.4497 215.992 98.375 216.627H103.135C103.06 216.002 102.804 215.493 102.365 215.101C101.936 214.7 101.399 214.499 100.755 214.499ZM111.026 220.855L108.884 218.013L106.714 220.855H105.216L108.142 217.061L105.356 213.435H106.854L108.898 216.109L110.928 213.435H112.398L109.598 217.061L112.552 220.855H111.026ZM118.163 213.365C118.882 213.365 119.526 213.524 120.095 213.841C120.664 214.158 121.108 214.602 121.425 215.171C121.752 215.74 121.915 216.398 121.915 217.145C121.915 217.892 121.752 218.554 121.425 219.133C121.108 219.702 120.664 220.146 120.095 220.463C119.526 220.78 118.882 220.939 118.163 220.939C117.631 220.939 117.141 220.836 116.693 220.631C116.254 220.426 115.881 220.127 115.573 219.735V223.571H114.229V213.435H115.517V214.611C115.816 214.2 116.194 213.892 116.651 213.687C117.108 213.472 117.612 213.365 118.163 213.365ZM118.051 219.763C118.527 219.763 118.952 219.656 119.325 219.441C119.708 219.217 120.006 218.909 120.221 218.517C120.445 218.116 120.557 217.658 120.557 217.145C120.557 216.632 120.445 216.179 120.221 215.787C120.006 215.386 119.708 215.078 119.325 214.863C118.952 214.648 118.527 214.541 118.051 214.541C117.584 214.541 117.16 214.653 116.777 214.877C116.404 215.092 116.105 215.395 115.881 215.787C115.666 216.179 115.559 216.632 115.559 217.145C115.559 217.658 115.666 218.116 115.881 218.517C116.096 218.909 116.394 219.217 116.777 219.441C117.16 219.656 117.584 219.763 118.051 219.763ZM130.688 217.187C130.688 217.29 130.678 217.425 130.66 217.593H124.64C124.724 218.246 125.008 218.774 125.494 219.175C125.988 219.567 126.6 219.763 127.328 219.763C128.214 219.763 128.928 219.464 129.47 218.867L130.212 219.735C129.876 220.127 129.456 220.426 128.952 220.631C128.457 220.836 127.902 220.939 127.286 220.939C126.502 220.939 125.806 220.78 125.2 220.463C124.593 220.136 124.122 219.684 123.786 219.105C123.459 218.526 123.296 217.873 123.296 217.145C123.296 216.426 123.454 215.778 123.772 215.199C124.098 214.62 124.542 214.172 125.102 213.855C125.671 213.528 126.31 213.365 127.02 213.365C127.729 213.365 128.359 213.528 128.91 213.855C129.47 214.172 129.904 214.62 130.212 215.199C130.529 215.778 130.688 216.44 130.688 217.187ZM127.02 214.499C126.376 214.499 125.834 214.695 125.396 215.087C124.966 215.479 124.714 215.992 124.64 216.627H129.4C129.325 216.002 129.068 215.493 128.63 215.101C128.2 214.7 127.664 214.499 127.02 214.499ZM134.052 214.681C134.285 214.252 134.631 213.925 135.088 213.701C135.545 213.477 136.101 213.365 136.754 213.365V214.667C136.679 214.658 136.577 214.653 136.446 214.653C135.718 214.653 135.144 214.872 134.724 215.311C134.313 215.74 134.108 216.356 134.108 217.159V220.855H132.764V213.435H134.052V214.681ZM138.621 213.435H139.965V220.855H138.621V213.435ZM139.293 212.007C139.031 212.007 138.812 211.923 138.635 211.755C138.467 211.587 138.383 211.382 138.383 211.139C138.383 210.896 138.467 210.691 138.635 210.523C138.812 210.346 139.031 210.257 139.293 210.257C139.554 210.257 139.769 210.341 139.937 210.509C140.114 210.668 140.203 210.868 140.203 211.111C140.203 211.363 140.114 211.578 139.937 211.755C139.769 211.923 139.554 212.007 139.293 212.007ZM149.447 217.187C149.447 217.29 149.437 217.425 149.419 217.593H143.399C143.483 218.246 143.767 218.774 144.253 219.175C144.747 219.567 145.359 219.763 146.087 219.763C146.973 219.763 147.687 219.464 148.229 218.867L148.971 219.735C148.635 220.127 148.215 220.426 147.711 220.631C147.216 220.836 146.661 220.939 146.045 220.939C145.261 220.939 144.565 220.78 143.959 220.463C143.352 220.136 142.881 219.684 142.545 219.105C142.218 218.526 142.055 217.873 142.055 217.145C142.055 216.426 142.213 215.778 142.531 215.199C142.857 214.62 143.301 214.172 143.861 213.855C144.43 213.528 145.069 213.365 145.779 213.365C146.488 213.365 147.118 213.528 147.669 213.855C148.229 214.172 148.663 214.62 148.971 215.199C149.288 215.778 149.447 216.44 149.447 217.187ZM145.779 214.499C145.135 214.499 144.593 214.695 144.155 215.087C143.725 215.479 143.473 215.992 143.399 216.627H148.159C148.084 216.002 147.827 215.493 147.389 215.101C146.959 214.7 146.423 214.499 145.779 214.499ZM155.485 213.365C156.428 213.365 157.174 213.64 157.725 214.191C158.285 214.732 158.565 215.53 158.565 216.585V220.855H157.221V216.739C157.221 216.02 157.048 215.479 156.703 215.115C156.358 214.751 155.863 214.569 155.219 214.569C154.491 214.569 153.917 214.784 153.497 215.213C153.077 215.633 152.867 216.24 152.867 217.033V220.855H151.523V213.435H152.811V214.555C153.082 214.172 153.446 213.878 153.903 213.673C154.37 213.468 154.897 213.365 155.485 213.365ZM164.537 220.939C163.781 220.939 163.105 220.776 162.507 220.449C161.919 220.122 161.457 219.674 161.121 219.105C160.785 218.526 160.617 217.873 160.617 217.145C160.617 216.417 160.785 215.768 161.121 215.199C161.457 214.62 161.919 214.172 162.507 213.855C163.105 213.528 163.781 213.365 164.537 213.365C165.209 213.365 165.807 213.5 166.329 213.771C166.861 214.042 167.272 214.434 167.561 214.947L166.539 215.605C166.306 215.25 166.017 214.984 165.671 214.807C165.326 214.63 164.943 214.541 164.523 214.541C164.038 214.541 163.599 214.648 163.207 214.863C162.825 215.078 162.521 215.386 162.297 215.787C162.083 216.179 161.975 216.632 161.975 217.145C161.975 217.668 162.083 218.13 162.297 218.531C162.521 218.923 162.825 219.226 163.207 219.441C163.599 219.656 164.038 219.763 164.523 219.763C164.943 219.763 165.326 219.674 165.671 219.497C166.017 219.32 166.306 219.054 166.539 218.699L167.561 219.343C167.272 219.856 166.861 220.253 166.329 220.533C165.807 220.804 165.209 220.939 164.537 220.939ZM176.108 217.187C176.108 217.29 176.099 217.425 176.08 217.593H170.06C170.144 218.246 170.429 218.774 170.914 219.175C171.409 219.567 172.02 219.763 172.748 219.763C173.635 219.763 174.349 219.464 174.89 218.867L175.632 219.735C175.296 220.127 174.876 220.426 174.372 220.631C173.877 220.836 173.322 220.939 172.706 220.939C171.922 220.939 171.227 220.78 170.62 220.463C170.013 220.136 169.542 219.684 169.206 219.105C168.879 218.526 168.716 217.873 168.716 217.145C168.716 216.426 168.875 215.778 169.192 215.199C169.519 214.62 169.962 214.172 170.522 213.855C171.091 213.528 171.731 213.365 172.44 213.365C173.149 213.365 173.779 213.528 174.33 213.855C174.89 214.172 175.324 214.62 175.632 215.199C175.949 215.778 176.108 216.44 176.108 217.187ZM172.44 214.499C171.796 214.499 171.255 214.695 170.816 215.087C170.387 215.479 170.135 215.992 170.06 216.627H174.82C174.745 216.002 174.489 215.493 174.05 215.101C173.621 214.7 173.084 214.499 172.44 214.499ZM180.312 220.939C179.706 220.939 179.122 220.86 178.562 220.701C178.002 220.533 177.564 220.323 177.246 220.071L177.806 219.007C178.133 219.24 178.53 219.427 178.996 219.567C179.463 219.707 179.934 219.777 180.41 219.777C181.586 219.777 182.174 219.441 182.174 218.769C182.174 218.545 182.095 218.368 181.936 218.237C181.778 218.106 181.577 218.013 181.334 217.957C181.101 217.892 180.765 217.822 180.326 217.747C179.729 217.654 179.239 217.546 178.856 217.425C178.483 217.304 178.161 217.098 177.89 216.809C177.62 216.52 177.484 216.114 177.484 215.591C177.484 214.919 177.764 214.382 178.324 213.981C178.884 213.57 179.636 213.365 180.578 213.365C181.073 213.365 181.568 213.426 182.062 213.547C182.557 213.668 182.963 213.832 183.28 214.037L182.706 215.101C182.1 214.709 181.386 214.513 180.564 214.513C179.995 214.513 179.561 214.606 179.262 214.793C178.964 214.98 178.814 215.227 178.814 215.535C178.814 215.778 178.898 215.969 179.066 216.109C179.234 216.249 179.44 216.352 179.682 216.417C179.934 216.482 180.284 216.557 180.732 216.641C181.33 216.744 181.81 216.856 182.174 216.977C182.548 217.089 182.865 217.285 183.126 217.565C183.388 217.845 183.518 218.237 183.518 218.741C183.518 219.413 183.229 219.95 182.65 220.351C182.081 220.743 181.302 220.939 180.312 220.939ZM112.339 242.939C111.602 242.939 110.939 242.776 110.351 242.449C109.763 242.122 109.301 241.674 108.965 241.105C108.638 240.526 108.475 239.873 108.475 239.145C108.475 238.417 108.638 237.768 108.965 237.199C109.301 236.62 109.763 236.172 110.351 235.855C110.939 235.528 111.602 235.365 112.339 235.365C113.076 235.365 113.734 235.528 114.313 235.855C114.901 236.172 115.358 236.62 115.685 237.199C116.021 237.768 116.189 238.417 116.189 239.145C116.189 239.873 116.021 240.526 115.685 241.105C115.358 241.674 114.901 242.122 114.313 242.449C113.734 242.776 113.076 242.939 112.339 242.939ZM112.339 241.763C112.815 241.763 113.24 241.656 113.613 241.441C113.996 241.217 114.294 240.909 114.509 240.517C114.724 240.116 114.831 239.658 114.831 239.145C114.831 238.632 114.724 238.179 114.509 237.787C114.294 237.386 113.996 237.078 113.613 236.863C113.24 236.648 112.815 236.541 112.339 236.541C111.863 236.541 111.434 236.648 111.051 236.863C110.678 237.078 110.379 237.386 110.155 237.787C109.94 238.179 109.833 238.632 109.833 239.145C109.833 239.658 109.94 240.116 110.155 240.517C110.379 240.909 110.678 241.217 111.051 241.441C111.434 241.656 111.863 241.763 112.339 241.763ZM120.974 233.489C120.171 233.489 119.77 233.923 119.77 234.791V235.435H121.926V236.541H119.798V242.855H118.454V236.541H117.194V235.435H118.454V234.777C118.454 234.04 118.668 233.456 119.098 233.027C119.527 232.598 120.129 232.383 120.904 232.383C121.202 232.383 121.482 232.42 121.744 232.495C122.005 232.57 122.229 232.677 122.416 232.817L122.01 233.839C121.702 233.606 121.356 233.489 120.974 233.489ZM130.551 242.939C129.814 242.939 129.151 242.776 128.563 242.449C127.975 242.122 127.513 241.674 127.177 241.105C126.85 240.526 126.687 239.873 126.687 239.145C126.687 238.417 126.85 237.768 127.177 237.199C127.513 236.62 127.975 236.172 128.563 235.855C129.151 235.528 129.814 235.365 130.551 235.365C131.288 235.365 131.946 235.528 132.525 235.855C133.113 236.172 133.57 236.62 133.897 237.199C134.233 237.768 134.401 238.417 134.401 239.145C134.401 239.873 134.233 240.526 133.897 241.105C133.57 241.674 133.113 242.122 132.525 242.449C131.946 242.776 131.288 242.939 130.551 242.939ZM130.551 241.763C131.027 241.763 131.452 241.656 131.825 241.441C132.208 241.217 132.506 240.909 132.721 240.517C132.936 240.116 133.043 239.658 133.043 239.145C133.043 238.632 132.936 238.179 132.721 237.787C132.506 237.386 132.208 237.078 131.825 236.863C131.452 236.648 131.027 236.541 130.551 236.541C130.075 236.541 129.646 236.648 129.263 236.863C128.89 237.078 128.591 237.386 128.367 237.787C128.152 238.179 128.045 238.632 128.045 239.145C128.045 239.658 128.152 240.116 128.367 240.517C128.591 240.909 128.89 241.217 129.263 241.441C129.646 241.656 130.075 241.763 130.551 241.763ZM140.642 242.421C140.446 242.589 140.203 242.72 139.914 242.813C139.624 242.897 139.326 242.939 139.018 242.939C138.271 242.939 137.692 242.738 137.282 242.337C136.871 241.936 136.666 241.362 136.666 240.615V236.541H135.406V235.435H136.666V233.811H138.01V235.435H140.138V236.541H138.01V240.559C138.01 240.96 138.108 241.268 138.304 241.483C138.509 241.698 138.798 241.805 139.172 241.805C139.582 241.805 139.932 241.688 140.222 241.455L140.642 242.421ZM146.439 235.365C147.381 235.365 148.128 235.64 148.679 236.191C149.239 236.732 149.519 237.53 149.519 238.585V242.855H148.175V238.739C148.175 238.02 148.002 237.479 147.657 237.115C147.311 236.751 146.817 236.569 146.173 236.569C145.445 236.569 144.871 236.784 144.451 237.213C144.031 237.633 143.821 238.24 143.821 239.033V242.855H142.477V232.467H143.821V236.485C144.101 236.13 144.465 235.855 144.913 235.659C145.37 235.463 145.879 235.365 146.439 235.365ZM158.963 239.187C158.963 239.29 158.954 239.425 158.935 239.593H152.915C152.999 240.246 153.284 240.774 153.769 241.175C154.264 241.567 154.875 241.763 155.603 241.763C156.49 241.763 157.204 241.464 157.745 240.867L158.487 241.735C158.151 242.127 157.731 242.426 157.227 242.631C156.732 242.836 156.177 242.939 155.561 242.939C154.777 242.939 154.082 242.78 153.475 242.463C152.868 242.136 152.397 241.684 152.061 241.105C151.734 240.526 151.571 239.873 151.571 239.145C151.571 238.426 151.73 237.778 152.047 237.199C152.374 236.62 152.817 236.172 153.377 235.855C153.946 235.528 154.586 235.365 155.295 235.365C156.004 235.365 156.634 235.528 157.185 235.855C157.745 236.172 158.179 236.62 158.487 237.199C158.804 237.778 158.963 238.44 158.963 239.187ZM155.295 236.499C154.651 236.499 154.11 236.695 153.671 237.087C153.242 237.479 152.99 237.992 152.915 238.627H157.675C157.6 238.002 157.344 237.493 156.905 237.101C156.476 236.7 155.939 236.499 155.295 236.499ZM162.327 236.681C162.56 236.252 162.906 235.925 163.363 235.701C163.82 235.477 164.376 235.365 165.029 235.365V236.667C164.954 236.658 164.852 236.653 164.721 236.653C163.993 236.653 163.419 236.872 162.999 237.311C162.588 237.74 162.383 238.356 162.383 239.159V242.855H161.039V235.435H162.327V236.681ZM169.078 242.939C168.472 242.939 167.888 242.86 167.328 242.701C166.768 242.533 166.33 242.323 166.012 242.071L166.572 241.007C166.899 241.24 167.296 241.427 167.762 241.567C168.229 241.707 168.7 241.777 169.176 241.777C170.352 241.777 170.94 241.441 170.94 240.769C170.94 240.545 170.861 240.368 170.702 240.237C170.544 240.106 170.343 240.013 170.1 239.957C169.867 239.892 169.531 239.822 169.092 239.747C168.495 239.654 168.005 239.546 167.622 239.425C167.249 239.304 166.927 239.098 166.656 238.809C166.386 238.52 166.25 238.114 166.25 237.591C166.25 236.919 166.53 236.382 167.09 235.981C167.65 235.57 168.402 235.365 169.344 235.365C169.839 235.365 170.334 235.426 170.828 235.547C171.323 235.668 171.729 235.832 172.046 236.037L171.472 237.101C170.866 236.709 170.152 236.513 169.33 236.513C168.761 236.513 168.327 236.606 168.028 236.793C167.73 236.98 167.58 237.227 167.58 237.535C167.58 237.778 167.664 237.969 167.832 238.109C168 238.249 168.206 238.352 168.448 238.417C168.7 238.482 169.05 238.557 169.498 238.641C170.096 238.744 170.576 238.856 170.94 238.977C171.314 239.089 171.631 239.285 171.892 239.565C172.154 239.845 172.284 240.237 172.284 240.741C172.284 241.413 171.995 241.95 171.416 242.351C170.847 242.743 170.068 242.939 169.078 242.939Z" fill="white"/>
<defs>
<filter id="filter0_d" x="218.09" y="157.127" width="151" height="137.226" filterUnits="userSpaceOnUse" color-interpolation-filters="sRGB">
<feFlood flood-opacity="0" result="BackgroundImageFix"/>
<feColorMatrix in="SourceAlpha" type="matrix" values="0 0 0 0 0 0 0 0 0 0 0 0 0 0 0 0 0 0 127 0"/>
<feOffset dy="12"/>
<feGaussianBlur stdDeviation="6.5"/>
<feColorMatrix type="matrix" values="0 0 0 0 0 0 0 0 0 0 0 0 0 0 0 0 0 0 0.25 0"/>
<feBlend mode="normal" in2="BackgroundImageFix" result="effect1_dropShadow"/>
<feBlend mode="normal" in="SourceGraphic" in2="effect1_dropShadow" result="shape"/>
</filter>
<filter id="filter1_d" x="223.09" y="154.127" width="141" height="127" filterUnits="userSpaceOnUse" color-interpolation-filters="sRGB">
<feFlood flood-opacity="0" result="BackgroundImageFix"/>
<feColorMatrix in="SourceAlpha" type="matrix" values="0 0 0 0 0 0 0 0 0 0 0 0 0 0 0 0 0 0 127 0"/>
<feOffset dy="4"/>
<feGaussianBlur stdDeviation="4"/>
<feColorMatrix type="matrix" values="0 0 0 0 0 0 0 0 0 0 0 0 0 0 0 0 0 0 0.1 0"/>
<feBlend mode="normal" in2="BackgroundImageFix" result="effect1_dropShadow"/>
<feBlend mode="normal" in="SourceGraphic" in2="effect1_dropShadow" result="shape"/>
</filter>
<filter id="filter2_d" x="65" y="157.127" width="149.091" height="137.226" filterUnits="userSpaceOnUse" color-interpolation-filters="sRGB">
<feFlood flood-opacity="0" result="BackgroundImageFix"/>
<feColorMatrix in="SourceAlpha" type="matrix" values="0 0 0 0 0 0 0 0 0 0 0 0 0 0 0 0 0 0 127 0"/>
<feOffset dy="12"/>
<feGaussianBlur stdDeviation="6.5"/>
<feColorMatrix type="matrix" values="0 0 0 0 0 0 0 0 0 0 0 0 0 0 0 0 0 0 0.25 0"/>
<feBlend mode="normal" in2="BackgroundImageFix" result="effect1_dropShadow"/>
<feBlend mode="normal" in="SourceGraphic" in2="effect1_dropShadow" result="shape"/>
</filter>
<filter id="filter3_d" x="70" y="154.127" width="139" height="127" filterUnits="userSpaceOnUse" color-interpolation-filters="sRGB">
<feFlood flood-opacity="0" result="BackgroundImageFix"/>
<feColorMatrix in="SourceAlpha" type="matrix" values="0 0 0 0 0 0 0 0 0 0 0 0 0 0 0 0 0 0 127 0"/>
<feOffset dy="4"/>
<feGaussianBlur stdDeviation="4"/>
<feColorMatrix type="matrix" values="0 0 0 0 0 0 0 0 0 0 0 0 0 0 0 0 0 0 0.1 0"/>
<feBlend mode="normal" in2="BackgroundImageFix" result="effect1_dropShadow"/>
<feBlend mode="normal" in="SourceGraphic" in2="effect1_dropShadow" result="shape"/>
</filter>
</defs>
</svg>
