<svg width="335" height="90" viewBox="0 0 335 90" fill="none" xmlns="http://www.w3.org/2000/svg">
<rect y="10" width="246" height="24" rx="8" fill="#F3CD6A"/>
<path d="M32.15 17.2V27H29.882V22.982H25.43V27H23.162V17.2H25.43V21.064H29.882V17.2H32.15ZM38.1086 27.112C37.3153 27.112 36.6013 26.9487 35.9666 26.622C35.3413 26.286 34.8513 25.824 34.4966 25.236C34.142 24.648 33.9646 23.9807 33.9646 23.234C33.9646 22.4873 34.142 21.82 34.4966 21.232C34.8513 20.644 35.3413 20.1867 35.9666 19.86C36.6013 19.524 37.3153 19.356 38.1086 19.356C38.902 19.356 39.6113 19.524 40.2366 19.86C40.862 20.1867 41.352 20.644 41.7066 21.232C42.0613 21.82 42.2386 22.4873 42.2386 23.234C42.2386 23.9807 42.0613 24.648 41.7066 25.236C41.352 25.824 40.862 26.286 40.2366 26.622C39.6113 26.9487 38.902 27.112 38.1086 27.112ZM38.1086 25.32C38.6686 25.32 39.126 25.1333 39.4806 24.76C39.8446 24.3773 40.0266 23.8687 40.0266 23.234C40.0266 22.5993 39.8446 22.0953 39.4806 21.722C39.126 21.3393 38.6686 21.148 38.1086 21.148C37.5486 21.148 37.0866 21.3393 36.7226 21.722C36.3586 22.0953 36.1766 22.5993 36.1766 23.234C36.1766 23.8687 36.3586 24.3773 36.7226 24.76C37.0866 25.1333 37.5486 25.32 38.1086 25.32ZM55.7994 19.468L53.0694 27H50.9694L49.2754 22.324L47.5254 27H45.4254L42.7094 19.468H44.7674L46.5454 24.564L48.3934 19.468H50.2414L52.0334 24.564L53.8674 19.468H55.7994ZM66.0576 26.636C65.8429 26.7947 65.5769 26.916 65.2596 27C64.9516 27.0747 64.6249 27.112 64.2796 27.112C63.3836 27.112 62.6882 26.8833 62.1936 26.426C61.7082 25.9687 61.4656 25.2967 61.4656 24.41V21.316H60.3036V19.636H61.4656V17.802H63.6496V19.636H65.5256V21.316H63.6496V24.382C63.6496 24.6993 63.7289 24.9467 63.8876 25.124C64.0556 25.292 64.2889 25.376 64.5876 25.376C64.9329 25.376 65.2269 25.2827 65.4696 25.096L66.0576 26.636ZM72.0715 19.356C73.0049 19.356 73.7562 19.636 74.3255 20.196C74.9042 20.756 75.1935 21.5867 75.1935 22.688V27H73.0095V23.024C73.0095 22.4267 72.8789 21.9833 72.6175 21.694C72.3562 21.3953 71.9782 21.246 71.4835 21.246C70.9329 21.246 70.4942 21.4187 70.1675 21.764C69.8409 22.1 69.6775 22.604 69.6775 23.276V27H67.4935V16.612H69.6775V20.252C69.9669 19.9627 70.3169 19.7433 70.7275 19.594C71.1382 19.4353 71.5862 19.356 72.0715 19.356ZM84.8433 23.262C84.8433 23.29 84.8293 23.486 84.8013 23.85H79.1033C79.2059 24.3167 79.4486 24.6853 79.8313 24.956C80.2139 25.2267 80.6899 25.362 81.2593 25.362C81.6513 25.362 81.9966 25.306 82.2953 25.194C82.6033 25.0727 82.8879 24.886 83.1493 24.634L84.3113 25.894C83.6019 26.706 82.5659 27.112 81.2033 27.112C80.3539 27.112 79.6026 26.9487 78.9493 26.622C78.2959 26.286 77.7919 25.824 77.4373 25.236C77.0826 24.648 76.9053 23.9807 76.9053 23.234C76.9053 22.4967 77.0779 21.834 77.4233 21.246C77.7779 20.6487 78.2586 20.1867 78.8653 19.86C79.4813 19.524 80.1673 19.356 80.9233 19.356C81.6606 19.356 82.3279 19.5147 82.9253 19.832C83.5226 20.1493 83.9893 20.6067 84.3253 21.204C84.6706 21.792 84.8433 22.478 84.8433 23.262ZM80.9373 21.008C80.4426 21.008 80.0273 21.148 79.6913 21.428C79.3553 21.708 79.1499 22.0907 79.0753 22.576H82.7853C82.7106 22.1 82.5053 21.722 82.1693 21.442C81.8333 21.1527 81.4226 21.008 80.9373 21.008ZM98.2701 19.468V27H96.1981V26.104C95.9088 26.4307 95.5635 26.6827 95.1621 26.86C94.7608 27.028 94.3268 27.112 93.8601 27.112C92.8708 27.112 92.0868 26.8273 91.5081 26.258C90.9295 25.6887 90.6401 24.844 90.6401 23.724V19.468H92.8241V23.402C92.8241 24.6153 93.3328 25.222 94.3501 25.222C94.8728 25.222 95.2928 25.054 95.6101 24.718C95.9275 24.3727 96.0861 23.864 96.0861 23.192V19.468H98.2701ZM103.037 27.112C102.412 27.112 101.801 27.0373 101.203 26.888C100.606 26.7293 100.13 26.5333 99.7755 26.3L100.503 24.732C100.839 24.9467 101.245 25.124 101.721 25.264C102.197 25.3947 102.664 25.46 103.121 25.46C104.045 25.46 104.507 25.2313 104.507 24.774C104.507 24.5593 104.381 24.4053 104.129 24.312C103.877 24.2187 103.49 24.1393 102.967 24.074C102.351 23.9807 101.843 23.8733 101.441 23.752C101.04 23.6307 100.69 23.416 100.391 23.108C100.102 22.8 99.9575 22.3613 99.9575 21.792C99.9575 21.316 100.093 20.896 100.363 20.532C100.643 20.1587 101.045 19.8693 101.567 19.664C102.099 19.4587 102.725 19.356 103.443 19.356C103.975 19.356 104.503 19.4167 105.025 19.538C105.557 19.65 105.996 19.8087 106.341 20.014L105.613 21.568C104.951 21.1947 104.227 21.008 103.443 21.008C102.977 21.008 102.627 21.0733 102.393 21.204C102.16 21.3347 102.043 21.5027 102.043 21.708C102.043 21.9413 102.169 22.1047 102.421 22.198C102.673 22.2913 103.075 22.38 103.625 22.464C104.241 22.5667 104.745 22.6787 105.137 22.8C105.529 22.912 105.87 23.122 106.159 23.43C106.449 23.738 106.593 24.1673 106.593 24.718C106.593 25.1847 106.453 25.6 106.173 25.964C105.893 26.328 105.483 26.6127 104.941 26.818C104.409 27.014 103.775 27.112 103.037 27.112ZM115.529 23.262C115.529 23.29 115.515 23.486 115.487 23.85H109.789C109.892 24.3167 110.134 24.6853 110.517 24.956C110.9 25.2267 111.376 25.362 111.945 25.362C112.337 25.362 112.682 25.306 112.981 25.194C113.289 25.0727 113.574 24.886 113.835 24.634L114.997 25.894C114.288 26.706 113.252 27.112 111.889 27.112C111.04 27.112 110.288 26.9487 109.635 26.622C108.982 26.286 108.478 25.824 108.123 25.236C107.768 24.648 107.591 23.9807 107.591 23.234C107.591 22.4967 107.764 21.834 108.109 21.246C108.464 20.6487 108.944 20.1867 109.551 19.86C110.167 19.524 110.853 19.356 111.609 19.356C112.346 19.356 113.014 19.5147 113.611 19.832C114.208 20.1493 114.675 20.6067 115.011 21.204C115.356 21.792 115.529 22.478 115.529 23.262ZM111.623 21.008C111.128 21.008 110.713 21.148 110.377 21.428C110.041 21.708 109.836 22.0907 109.761 22.576H113.471C113.396 22.1 113.191 21.722 112.855 21.442C112.519 21.1527 112.108 21.008 111.623 21.008ZM119.279 20.462C119.54 20.098 119.89 19.8227 120.329 19.636C120.777 19.4493 121.29 19.356 121.869 19.356V21.372C121.626 21.3533 121.463 21.344 121.379 21.344C120.754 21.344 120.264 21.5213 119.909 21.876C119.554 22.2213 119.377 22.744 119.377 23.444V27H117.193V19.468H119.279V20.462ZM139.703 19.468L136.973 27H134.873L133.179 22.324L131.429 27H129.329L126.613 19.468H128.671L130.449 24.564L132.297 19.468H134.145L135.937 24.564L137.771 19.468H139.703ZM143.72 19.356C144.887 19.356 145.783 19.636 146.408 20.196C147.034 20.7467 147.346 21.582 147.346 22.702V27H145.302V26.062C144.892 26.762 144.126 27.112 143.006 27.112C142.428 27.112 141.924 27.014 141.494 26.818C141.074 26.622 140.752 26.3513 140.528 26.006C140.304 25.6607 140.192 25.2687 140.192 24.83C140.192 24.13 140.454 23.5793 140.976 23.178C141.508 22.7767 142.325 22.576 143.426 22.576H145.162C145.162 22.1 145.018 21.736 144.728 21.484C144.439 21.2227 144.005 21.092 143.426 21.092C143.025 21.092 142.628 21.1573 142.236 21.288C141.854 21.4093 141.527 21.5773 141.256 21.792L140.472 20.266C140.883 19.9767 141.373 19.7527 141.942 19.594C142.521 19.4353 143.114 19.356 143.72 19.356ZM143.552 25.642C143.926 25.642 144.257 25.558 144.546 25.39C144.836 25.2127 145.041 24.956 145.162 24.62V23.85H143.664C142.768 23.85 142.32 24.144 142.32 24.732C142.32 25.012 142.428 25.236 142.642 25.404C142.866 25.5627 143.17 25.642 143.552 25.642ZM154.111 19.356C155.044 19.356 155.796 19.636 156.365 20.196C156.944 20.756 157.233 21.5867 157.233 22.688V27H155.049V23.024C155.049 22.4267 154.918 21.9833 154.657 21.694C154.396 21.3953 154.018 21.246 153.523 21.246C152.972 21.246 152.534 21.4187 152.207 21.764C151.88 22.1 151.717 22.604 151.717 23.276V27H149.533V19.468H151.619V20.35C151.908 20.0327 152.268 19.79 152.697 19.622C153.126 19.4447 153.598 19.356 154.111 19.356ZM164.281 26.636C164.066 26.7947 163.8 26.916 163.483 27C163.175 27.0747 162.848 27.112 162.503 27.112C161.607 27.112 160.911 26.8833 160.417 26.426C159.931 25.9687 159.689 25.2967 159.689 24.41V21.316H158.527V19.636H159.689V17.802H161.873V19.636H163.749V21.316H161.873V24.382C161.873 24.6993 161.952 24.9467 162.111 25.124C162.279 25.292 162.512 25.376 162.811 25.376C163.156 25.376 163.45 25.2827 163.693 25.096L164.281 26.636ZM168.251 27.112C167.625 27.112 167.014 27.0373 166.417 26.888C165.819 26.7293 165.343 26.5333 164.989 26.3L165.717 24.732C166.053 24.9467 166.459 25.124 166.935 25.264C167.411 25.3947 167.877 25.46 168.335 25.46C169.259 25.46 169.721 25.2313 169.721 24.774C169.721 24.5593 169.595 24.4053 169.343 24.312C169.091 24.2187 168.703 24.1393 168.181 24.074C167.565 23.9807 167.056 23.8733 166.655 23.752C166.253 23.6307 165.903 23.416 165.605 23.108C165.315 22.8 165.171 22.3613 165.171 21.792C165.171 21.316 165.306 20.896 165.577 20.532C165.857 20.1587 166.258 19.8693 166.781 19.664C167.313 19.4587 167.938 19.356 168.657 19.356C169.189 19.356 169.716 19.4167 170.239 19.538C170.771 19.65 171.209 19.8087 171.555 20.014L170.827 21.568C170.164 21.1947 169.441 21.008 168.657 21.008C168.19 21.008 167.84 21.0733 167.607 21.204C167.373 21.3347 167.257 21.5027 167.257 21.708C167.257 21.9413 167.383 22.1047 167.635 22.198C167.887 22.2913 168.288 22.38 168.839 22.464C169.455 22.5667 169.959 22.6787 170.351 22.8C170.743 22.912 171.083 23.122 171.373 23.43C171.662 23.738 171.807 24.1673 171.807 24.718C171.807 25.1847 171.667 25.6 171.387 25.964C171.107 26.328 170.696 26.6127 170.155 26.818C169.623 27.014 168.988 27.112 168.251 27.112ZM182.397 26.636C182.182 26.7947 181.916 26.916 181.599 27C181.291 27.0747 180.964 27.112 180.619 27.112C179.723 27.112 179.028 26.8833 178.533 26.426C178.048 25.9687 177.805 25.2967 177.805 24.41V21.316H176.643V19.636H177.805V17.802H179.989V19.636H181.865V21.316H179.989V24.382C179.989 24.6993 180.068 24.9467 180.227 25.124C180.395 25.292 180.628 25.376 180.927 25.376C181.272 25.376 181.566 25.2827 181.809 25.096L182.397 26.636ZM187.185 27.112C186.391 27.112 185.677 26.9487 185.043 26.622C184.417 26.286 183.927 25.824 183.573 25.236C183.218 24.648 183.041 23.9807 183.041 23.234C183.041 22.4873 183.218 21.82 183.573 21.232C183.927 20.644 184.417 20.1867 185.043 19.86C185.677 19.524 186.391 19.356 187.185 19.356C187.978 19.356 188.687 19.524 189.313 19.86C189.938 20.1867 190.428 20.644 190.783 21.232C191.137 21.82 191.315 22.4873 191.315 23.234C191.315 23.9807 191.137 24.648 190.783 25.236C190.428 25.824 189.938 26.286 189.313 26.622C188.687 26.9487 187.978 27.112 187.185 27.112ZM187.185 25.32C187.745 25.32 188.202 25.1333 188.557 24.76C188.921 24.3773 189.103 23.8687 189.103 23.234C189.103 22.5993 188.921 22.0953 188.557 21.722C188.202 21.3393 187.745 21.148 187.185 21.148C186.625 21.148 186.163 21.3393 185.799 21.722C185.435 22.0953 185.253 22.5993 185.253 23.234C185.253 23.8687 185.435 24.3773 185.799 24.76C186.163 25.1333 186.625 25.32 187.185 25.32ZM199.553 19.636H201.485V21.316H199.609V27H197.425V21.316H196.263V19.636H197.425V19.3C197.425 18.4413 197.677 17.76 198.181 17.256C198.695 16.752 199.413 16.5 200.337 16.5C200.664 16.5 200.972 16.5373 201.261 16.612C201.56 16.6773 201.807 16.7753 202.003 16.906L201.429 18.488C201.177 18.3107 200.883 18.222 200.547 18.222C199.885 18.222 199.553 18.586 199.553 19.314V19.636ZM210.066 23.262C210.066 23.29 210.052 23.486 210.024 23.85H204.326C204.428 24.3167 204.671 24.6853 205.054 24.956C205.436 25.2267 205.912 25.362 206.482 25.362C206.874 25.362 207.219 25.306 207.518 25.194C207.826 25.0727 208.11 24.886 208.372 24.634L209.534 25.894C208.824 26.706 207.788 27.112 206.426 27.112C205.576 27.112 204.825 26.9487 204.172 26.622C203.518 26.286 203.014 25.824 202.66 25.236C202.305 24.648 202.128 23.9807 202.128 23.234C202.128 22.4967 202.3 21.834 202.646 21.246C203 20.6487 203.481 20.1867 204.088 19.86C204.704 19.524 205.39 19.356 206.146 19.356C206.883 19.356 207.55 19.5147 208.148 19.832C208.745 20.1493 209.212 20.6067 209.548 21.204C209.893 21.792 210.066 22.478 210.066 23.262ZM206.16 21.008C205.665 21.008 205.25 21.148 204.914 21.428C204.578 21.708 204.372 22.0907 204.298 22.576H208.008C207.933 22.1 207.728 21.722 207.392 21.442C207.056 21.1527 206.645 21.008 206.16 21.008ZM219.108 23.262C219.108 23.29 219.094 23.486 219.066 23.85H213.368C213.47 24.3167 213.713 24.6853 214.096 24.956C214.478 25.2267 214.954 25.362 215.524 25.362C215.916 25.362 216.261 25.306 216.56 25.194C216.868 25.0727 217.152 24.886 217.414 24.634L218.576 25.894C217.866 26.706 216.83 27.112 215.468 27.112C214.618 27.112 213.867 26.9487 213.214 26.622C212.56 26.286 212.056 25.824 211.702 25.236C211.347 24.648 211.17 23.9807 211.17 23.234C211.17 22.4967 211.342 21.834 211.688 21.246C212.042 20.6487 212.523 20.1867 213.13 19.86C213.746 19.524 214.432 19.356 215.188 19.356C215.925 19.356 216.592 19.5147 217.19 19.832C217.787 20.1493 218.254 20.6067 218.59 21.204C218.935 21.792 219.108 22.478 219.108 23.262ZM215.202 21.008C214.707 21.008 214.292 21.148 213.956 21.428C213.62 21.708 213.414 22.0907 213.34 22.576H217.05C216.975 22.1 216.77 21.722 216.434 21.442C216.098 21.1527 215.687 21.008 215.202 21.008ZM220.772 16.612H222.956V27H220.772V16.612Z" fill="#252424"/>
<path d="M2.09281 71.5473C1.75512 71.5473 1.4663 71.4318 1.22636 71.2007C0.995307 70.9696 0.87978 70.6764 0.87978 70.3209C0.87978 69.9832 0.99975 69.6989 1.23969 69.4678C1.47963 69.2279 1.764 69.1079 2.09281 69.1079C2.42162 69.1079 2.70155 69.2279 2.9326 69.4678C3.17254 69.6989 3.29251 69.9832 3.29251 70.3209C3.29251 70.6764 3.17254 70.9696 2.9326 71.2007C2.70155 71.4318 2.42162 71.5473 2.09281 71.5473ZM12.2904 74.1066C11.5883 74.1066 10.9085 74 10.2509 73.7867C9.60215 73.5646 9.09116 73.2802 8.71792 72.9336L9.21113 71.8939C9.5666 72.2138 10.0198 72.4759 10.5708 72.6803C11.1307 72.8758 11.7038 72.9736 12.2904 72.9736C13.0635 72.9736 13.6411 72.8447 14.0233 72.587C14.4054 72.3204 14.5965 71.9694 14.5965 71.5339C14.5965 71.214 14.4898 70.9563 14.2765 70.7608C14.0721 70.5564 13.8144 70.4009 13.5034 70.2943C13.2012 70.1876 12.7702 70.0676 12.2104 69.9343C11.5083 69.7655 10.9396 69.5967 10.5041 69.4278C10.0776 69.259 9.70879 69.0012 9.39775 68.6547C9.09561 68.2992 8.94453 67.8238 8.94453 67.2284C8.94453 66.7307 9.07339 66.2819 9.3311 65.882C9.5977 65.4821 9.9976 65.1622 10.5308 64.9223C11.064 64.6823 11.7261 64.5624 12.517 64.5624C13.0679 64.5624 13.61 64.6335 14.1432 64.7756C14.6764 64.9178 15.1341 65.1222 15.5162 65.3888L15.0763 66.4552C14.6853 66.2064 14.2676 66.0198 13.8233 65.8954C13.379 65.7621 12.9435 65.6954 12.517 65.6954C11.7616 65.6954 11.1929 65.8332 10.8107 66.1086C10.4375 66.3841 10.2509 66.7396 10.2509 67.175C10.2509 67.495 10.3575 67.7571 10.5708 67.9615C10.7841 68.157 11.0462 68.3125 11.3573 68.4281C11.6772 68.5347 12.1082 68.6502 12.6503 68.7746C13.3523 68.9435 13.9166 69.1123 14.3432 69.2812C14.7697 69.45 15.1341 69.7077 15.4362 70.0543C15.7473 70.4009 15.9028 70.8674 15.9028 71.454C15.9028 71.9427 15.7695 72.3915 15.5029 72.8003C15.2363 73.2002 14.832 73.5201 14.2899 73.7601C13.7478 73.9911 13.0813 74.1066 12.2904 74.1066ZM21.6093 66.8684C22.2936 66.8684 22.9067 67.0195 23.4488 67.3217C23.9909 67.6238 24.413 68.0459 24.7152 68.588C25.0262 69.1301 25.1817 69.7566 25.1817 70.4675C25.1817 71.1785 25.0262 71.8094 24.7152 72.3604C24.413 72.9025 23.9909 73.3246 23.4488 73.6268C22.9067 73.9289 22.2936 74.08 21.6093 74.08C21.1027 74.08 20.6362 73.9822 20.2096 73.7867C19.792 73.5912 19.4365 73.3068 19.1432 72.9336V76.586H17.8636V66.9351H19.0899V68.0548C19.3743 67.6638 19.7342 67.3705 20.1696 67.175C20.6051 66.9706 21.085 66.8684 21.6093 66.8684ZM21.5026 72.9603C21.9559 72.9603 22.3602 72.8581 22.7157 72.6537C23.08 72.4404 23.3644 72.1471 23.5688 71.7739C23.7821 71.3918 23.8887 70.9563 23.8887 70.4675C23.8887 69.9788 23.7821 69.5478 23.5688 69.1745C23.3644 68.7924 23.08 68.4992 22.7157 68.2948C22.3602 68.0904 21.9559 67.9882 21.5026 67.9882C21.0583 67.9882 20.654 68.0948 20.2896 68.3081C19.9341 68.5125 19.6498 68.8013 19.4365 69.1745C19.2321 69.5478 19.1299 69.9788 19.1299 70.4675C19.1299 70.9563 19.2321 71.3918 19.4365 71.7739C19.6409 72.1471 19.9253 72.4404 20.2896 72.6537C20.654 72.8581 21.0583 72.9603 21.5026 72.9603ZM30.1757 74.08C29.4736 74.08 28.8427 73.9245 28.2828 73.6134C27.723 73.3024 27.2831 72.8758 26.9632 72.3338C26.6521 71.7828 26.4966 71.1607 26.4966 70.4675C26.4966 69.7744 26.6521 69.1568 26.9632 68.6147C27.2831 68.0637 27.723 67.6371 28.2828 67.335C28.8427 67.024 29.4736 66.8684 30.1757 66.8684C30.8777 66.8684 31.5042 67.024 32.0552 67.335C32.6151 67.6371 33.0505 68.0637 33.3616 68.6147C33.6815 69.1568 33.8414 69.7744 33.8414 70.4675C33.8414 71.1607 33.6815 71.7828 33.3616 72.3338C33.0505 72.8758 32.6151 73.3024 32.0552 73.6134C31.5042 73.9245 30.8777 74.08 30.1757 74.08ZM30.1757 72.9603C30.6289 72.9603 31.0332 72.8581 31.3887 72.6537C31.7531 72.4404 32.0374 72.1471 32.2418 71.7739C32.4462 71.3918 32.5484 70.9563 32.5484 70.4675C32.5484 69.9788 32.4462 69.5478 32.2418 69.1745C32.0374 68.7924 31.7531 68.4992 31.3887 68.2948C31.0332 68.0904 30.6289 67.9882 30.1757 67.9882C29.7225 67.9882 29.3137 68.0904 28.9493 68.2948C28.5939 68.4992 28.3095 68.7924 28.0962 69.1745C27.8918 69.5478 27.7896 69.9788 27.7896 70.4675C27.7896 70.9563 27.8918 71.3918 28.0962 71.7739C28.3095 72.1471 28.5939 72.4404 28.9493 72.6537C29.3137 72.8581 29.7225 72.9603 30.1757 72.9603ZM39.5835 66.8684C40.4811 66.8684 41.192 67.1306 41.7163 67.6549C42.2495 68.1703 42.5161 68.9302 42.5161 69.9343V74H41.2365V70.081C41.2365 69.3967 41.0721 68.8813 40.7432 68.5347C40.4144 68.1881 39.9434 68.0148 39.3303 68.0148C38.6371 68.0148 38.0906 68.2192 37.6907 68.628C37.2908 69.0279 37.0908 69.6055 37.0908 70.3609V74H35.8111V66.9351H37.0375V68.0015C37.2952 67.6371 37.6418 67.3572 38.0772 67.1617C38.5216 66.9662 39.0237 66.8684 39.5835 66.8684ZM49.0567 73.5868C48.8701 73.7467 48.639 73.8711 48.3635 73.96C48.088 74.04 47.8037 74.08 47.5104 74.08C46.7995 74.08 46.2485 73.8889 45.8575 73.5068C45.4665 73.1247 45.271 72.5781 45.271 71.8672V67.9882H44.0713V66.9351H45.271V65.3888H46.5506V66.9351H48.5768V67.9882H46.5506V71.8139C46.5506 72.196 46.644 72.4893 46.8306 72.6937C47.0261 72.8981 47.3016 73.0002 47.657 73.0002C48.0481 73.0002 48.3813 72.8892 48.6568 72.667L49.0567 73.5868ZM53.3764 66.8684C54.354 66.8684 55.1005 67.1084 55.6159 67.5883C56.1402 68.0681 56.4024 68.7835 56.4024 69.7344V74H55.1893V73.0669C54.976 73.3957 54.6695 73.649 54.2696 73.8267C53.8785 73.9956 53.412 74.08 52.8699 74.08C52.079 74.08 51.4436 73.8889 50.9637 73.5068C50.4927 73.1247 50.2572 72.6226 50.2572 72.0005C50.2572 71.3784 50.4838 70.8808 50.9371 70.5075C51.3903 70.1254 52.1101 69.9343 53.0965 69.9343H55.1227V69.6811C55.1227 69.1301 54.9627 68.708 54.6428 68.4147C54.3229 68.1215 53.8519 67.9748 53.2298 67.9748C52.8121 67.9748 52.4034 68.0459 52.0035 68.1881C51.6036 68.3214 51.2659 68.5036 50.9904 68.7346L50.4572 67.7749C50.8215 67.4816 51.257 67.2595 51.7635 67.1084C52.2701 66.9484 52.8077 66.8684 53.3764 66.8684ZM53.0832 73.0936C53.572 73.0936 53.9941 72.9869 54.3495 72.7736C54.705 72.5515 54.9627 72.2404 55.1227 71.8405V70.8541H53.1498C52.0657 70.8541 51.5236 71.2185 51.5236 71.9472C51.5236 72.3026 51.6613 72.5826 51.9368 72.787C52.2123 72.9914 52.5944 73.0936 53.0832 73.0936ZM65.7678 66.9351V73.0402C65.7678 74.2755 65.4612 75.1864 64.8481 75.7729C64.2349 76.3683 63.3195 76.666 62.1021 76.666C61.4356 76.666 60.8002 76.5727 60.1959 76.3861C59.5916 76.2083 59.1028 75.9506 58.7296 75.6129L59.3428 74.6265C59.6716 74.9109 60.0759 75.1331 60.5558 75.293C61.0446 75.4619 61.5467 75.5463 62.0621 75.5463C62.8885 75.5463 63.4973 75.3508 63.8883 74.9598C64.2882 74.5687 64.4881 73.9733 64.4881 73.1735V72.6137C64.186 72.978 63.8128 73.2535 63.3684 73.4401C62.933 73.6179 62.4575 73.7067 61.9421 73.7067C61.2667 73.7067 60.6535 73.5646 60.1026 73.2802C59.5605 72.9869 59.1339 72.5826 58.8229 72.0671C58.5119 71.5428 58.3563 70.9474 58.3563 70.2809C58.3563 69.6144 58.5119 69.0235 58.8229 68.508C59.1339 67.9837 59.5605 67.5794 60.1026 67.295C60.6535 67.0106 61.2667 66.8684 61.9421 66.8684C62.4753 66.8684 62.9685 66.9662 63.4217 67.1617C63.8839 67.3572 64.2615 67.646 64.5548 68.0282V66.9351H65.7678ZM62.0887 72.587C62.5509 72.587 62.9641 72.4893 63.3284 72.2938C63.7017 72.0983 63.9905 71.8272 64.1949 71.4806C64.4082 71.1252 64.5148 70.7253 64.5148 70.2809C64.5148 69.5967 64.2882 69.0457 63.835 68.628C63.3818 68.2014 62.7997 67.9882 62.0887 67.9882C61.3689 67.9882 60.7824 68.2014 60.3292 68.628C59.876 69.0457 59.6494 69.5967 59.6494 70.2809C59.6494 70.7253 59.7516 71.1252 59.9559 71.4806C60.1692 71.8272 60.458 72.0983 60.8224 72.2938C61.1956 72.4893 61.6178 72.587 62.0887 72.587ZM74.798 70.5075C74.798 70.6053 74.7891 70.7341 74.7713 70.8941H69.0394C69.1194 71.5162 69.3904 72.0183 69.8525 72.4004C70.3235 72.7736 70.9056 72.9603 71.5988 72.9603C72.443 72.9603 73.1228 72.6759 73.6382 72.1071L74.3447 72.9336C74.0248 73.3068 73.6249 73.5912 73.145 73.7867C72.674 73.9822 72.1453 74.08 71.5588 74.08C70.8123 74.08 70.1502 73.9289 69.5726 73.6268C68.995 73.3157 68.5462 72.8847 68.2263 72.3338C67.9152 71.7828 67.7597 71.1607 67.7597 70.4675C67.7597 69.7833 67.9108 69.1657 68.2129 68.6147C68.524 68.0637 68.9461 67.6371 69.4793 67.335C70.0214 67.024 70.6301 66.8684 71.3055 66.8684C71.9809 66.8684 72.5807 67.024 73.105 67.335C73.6382 67.6371 74.0515 68.0637 74.3447 68.6147C74.6469 69.1657 74.798 69.7966 74.798 70.5075ZM71.3055 67.9482C70.6923 67.9482 70.1769 68.1348 69.7592 68.508C69.3504 68.8813 69.1105 69.37 69.0394 69.9743H73.5716C73.5005 69.3789 73.2561 68.8946 72.8384 68.5214C72.4297 68.1392 71.9187 67.9482 71.3055 67.9482ZM83.3599 66.9351V74H82.1469V72.9336C81.8891 73.298 81.547 73.5823 81.1204 73.7867C80.7028 73.9822 80.2451 74.08 79.7475 74.08C78.8055 74.08 78.0634 73.8223 77.5213 73.3068C76.9793 72.7825 76.7082 72.0138 76.7082 71.0007V66.9351H77.9879V70.8541C77.9879 71.5384 78.1523 72.0583 78.4811 72.4137C78.8099 72.7603 79.2809 72.9336 79.8941 72.9336C80.5695 72.9336 81.1027 72.7292 81.4937 72.3204C81.8847 71.9116 82.0802 71.334 82.0802 70.5875V66.9351H83.3599ZM88.0222 74.08C87.4445 74.08 86.8891 74.0044 86.3559 73.8534C85.8227 73.6934 85.405 73.4935 85.1029 73.2535L85.6361 72.2404C85.9471 72.4626 86.3248 72.6403 86.7691 72.7736C87.2135 72.9069 87.6622 72.9736 88.1155 72.9736C89.2352 72.9736 89.795 72.6537 89.795 72.0138C89.795 71.8005 89.7195 71.6317 89.5684 71.5073C89.4174 71.3829 89.2263 71.294 88.9952 71.2407C88.7731 71.1785 88.4532 71.1118 88.0355 71.0407C87.4667 70.9519 87.0002 70.8497 86.6358 70.7341C86.2804 70.6186 85.9738 70.4231 85.7161 70.1476C85.4584 69.8721 85.3295 69.4856 85.3295 68.9879C85.3295 68.3481 85.5961 67.8371 86.1293 67.455C86.6625 67.064 87.3779 66.8684 88.2754 66.8684C88.7464 66.8684 89.2174 66.9262 89.6884 67.0417C90.1594 67.1573 90.546 67.3128 90.8481 67.5083L90.3016 68.5214C89.724 68.1481 89.0441 67.9615 88.2621 67.9615C87.72 67.9615 87.3068 68.0504 87.0224 68.2281C86.738 68.4058 86.5958 68.6413 86.5958 68.9346C86.5958 69.1657 86.6758 69.3478 86.8358 69.4811C86.9957 69.6144 87.1913 69.7122 87.4223 69.7744C87.6622 69.8366 87.9955 69.9077 88.4221 69.9877C88.9908 70.0854 89.4485 70.1921 89.795 70.3076C90.1505 70.4142 90.4527 70.6008 90.7015 70.8674C90.9503 71.134 91.0747 71.5073 91.0747 71.9872C91.0747 72.627 90.7992 73.138 90.2483 73.5201C89.7062 73.8934 88.9641 74.08 88.0222 74.08ZM100.399 66.8684C101.084 66.8684 101.697 67.0195 102.239 67.3217C102.781 67.6238 103.203 68.0459 103.505 68.588C103.816 69.1301 103.972 69.7566 103.972 70.4675C103.972 71.1785 103.816 71.8094 103.505 72.3604C103.203 72.9025 102.781 73.3246 102.239 73.6268C101.697 73.9289 101.084 74.08 100.399 74.08C99.8752 74.08 99.3953 73.9778 98.9598 73.7734C98.5244 73.569 98.1645 73.2713 97.8801 72.8803V74H96.6537V64.1091H97.9334V68.0015C98.2178 67.6283 98.5733 67.3483 98.9998 67.1617C99.4264 66.9662 99.8929 66.8684 100.399 66.8684ZM100.293 72.9603C100.746 72.9603 101.15 72.8581 101.506 72.6537C101.87 72.4404 102.155 72.1471 102.359 71.7739C102.572 71.3918 102.679 70.9563 102.679 70.4675C102.679 69.9788 102.572 69.5478 102.359 69.1745C102.155 68.7924 101.87 68.4992 101.506 68.2948C101.15 68.0904 100.746 67.9882 100.293 67.9882C99.8485 67.9882 99.4442 68.0904 99.0798 68.2948C98.7155 68.4992 98.4311 68.7924 98.2267 69.1745C98.0223 69.5478 97.9201 69.9788 97.9201 70.4675C97.9201 70.9563 98.0223 71.3918 98.2267 71.7739C98.4311 72.1471 98.7155 72.4404 99.0798 72.6537C99.4442 72.8581 99.8485 72.9603 100.293 72.9603ZM112.525 66.9351V74H111.312V72.9336C111.054 73.298 110.712 73.5823 110.286 73.7867C109.868 73.9822 109.41 74.08 108.913 74.08C107.971 74.08 107.229 73.8223 106.686 73.3068C106.144 72.7825 105.873 72.0138 105.873 71.0007V66.9351H107.153V70.8541C107.153 71.5384 107.317 72.0583 107.646 72.4137C107.975 72.7603 108.446 72.9336 109.059 72.9336C109.735 72.9336 110.268 72.7292 110.659 72.3204C111.05 71.9116 111.245 71.334 111.245 70.5875V66.9351H112.525ZM119.133 73.5868C118.947 73.7467 118.716 73.8711 118.44 73.96C118.165 74.04 117.88 74.08 117.587 74.08C116.876 74.08 116.325 73.8889 115.934 73.5068C115.543 73.1247 115.348 72.5781 115.348 71.8672V67.9882H114.148V66.9351H115.348V65.3888H116.627V66.9351H118.654V67.9882H116.627V71.8139C116.627 72.196 116.721 72.4893 116.907 72.6937C117.103 72.8981 117.378 73.0002 117.734 73.0002C118.125 73.0002 118.458 72.8892 118.734 72.667L119.133 73.5868ZM124.66 66.9351H125.94V74H124.66V66.9351ZM125.3 65.5754C125.051 65.5754 124.842 65.4955 124.674 65.3355C124.514 65.1755 124.434 64.98 124.434 64.749C124.434 64.5179 124.514 64.3224 124.674 64.1625C124.842 63.9936 125.051 63.9092 125.3 63.9092C125.549 63.9092 125.753 63.9892 125.913 64.1491C126.082 64.3002 126.167 64.4913 126.167 64.7223C126.167 64.9623 126.082 65.1667 125.913 65.3355C125.753 65.4955 125.549 65.5754 125.3 65.5754ZM132.356 66.8684C133.253 66.8684 133.964 67.1306 134.488 67.6549C135.022 68.1703 135.288 68.9302 135.288 69.9343V74H134.009V70.081C134.009 69.3967 133.844 68.8813 133.515 68.5347C133.187 68.1881 132.716 68.0148 132.102 68.0148C131.409 68.0148 130.863 68.2192 130.463 68.628C130.063 69.0279 129.863 69.6055 129.863 70.3609V74H128.583V66.9351H129.81V68.0015C130.067 67.6371 130.414 67.3572 130.849 67.1617C131.294 66.9662 131.796 66.8684 132.356 66.8684ZM144.715 74.08C143.996 74.08 143.351 73.9245 142.783 73.6134C142.223 73.3024 141.783 72.8758 141.463 72.3338C141.143 71.7828 140.983 71.1607 140.983 70.4675C140.983 69.7744 141.143 69.1568 141.463 68.6147C141.783 68.0637 142.223 67.6371 142.783 67.335C143.351 67.024 143.996 66.8684 144.715 66.8684C145.355 66.8684 145.924 66.9973 146.422 67.255C146.928 67.5127 147.319 67.886 147.595 68.3747L146.622 69.0012C146.4 68.6636 146.124 68.4103 145.795 68.2414C145.466 68.0726 145.102 67.9882 144.702 67.9882C144.24 67.9882 143.822 68.0904 143.449 68.2948C143.085 68.4992 142.796 68.7924 142.583 69.1745C142.378 69.5478 142.276 69.9788 142.276 70.4675C142.276 70.9652 142.378 71.4051 142.583 71.7872C142.796 72.1605 143.085 72.4493 143.449 72.6537C143.822 72.8581 144.24 72.9603 144.702 72.9603C145.102 72.9603 145.466 72.8758 145.795 72.707C146.124 72.5381 146.4 72.2849 146.622 71.9472L147.595 72.5604C147.319 73.0491 146.928 73.4268 146.422 73.6934C145.924 73.9511 145.355 74.08 144.715 74.08ZM152.373 74.08C151.671 74.08 151.04 73.9245 150.48 73.6134C149.921 73.3024 149.481 72.8758 149.161 72.3338C148.85 71.7828 148.694 71.1607 148.694 70.4675C148.694 69.7744 148.85 69.1568 149.161 68.6147C149.481 68.0637 149.921 67.6371 150.48 67.335C151.04 67.024 151.671 66.8684 152.373 66.8684C153.075 66.8684 153.702 67.024 154.253 67.335C154.813 67.6371 155.248 68.0637 155.559 68.6147C155.879 69.1568 156.039 69.7744 156.039 70.4675C156.039 71.1607 155.879 71.7828 155.559 72.3338C155.248 72.8758 154.813 73.3024 154.253 73.6134C153.702 73.9245 153.075 74.08 152.373 74.08ZM152.373 72.9603C152.826 72.9603 153.231 72.8581 153.586 72.6537C153.951 72.4404 154.235 72.1471 154.439 71.7739C154.644 71.3918 154.746 70.9563 154.746 70.4675C154.746 69.9788 154.644 69.5478 154.439 69.1745C154.235 68.7924 153.951 68.4992 153.586 68.2948C153.231 68.0904 152.826 67.9882 152.373 67.9882C151.92 67.9882 151.511 68.0904 151.147 68.2948C150.791 68.4992 150.507 68.7924 150.294 69.1745C150.089 69.5478 149.987 69.9788 149.987 70.4675C149.987 70.9563 150.089 71.3918 150.294 71.7739C150.507 72.1471 150.791 72.4404 151.147 72.6537C151.511 72.8581 151.92 72.9603 152.373 72.9603ZM161.781 66.8684C162.679 66.8684 163.39 67.1306 163.914 67.6549C164.447 68.1703 164.714 68.9302 164.714 69.9343V74H163.434V70.081C163.434 69.3967 163.27 68.8813 162.941 68.5347C162.612 68.1881 162.141 68.0148 161.528 68.0148C160.835 68.0148 160.288 68.2192 159.888 68.628C159.488 69.0279 159.288 69.6055 159.288 70.3609V74H158.009V66.9351H159.235V68.0015C159.493 67.6371 159.839 67.3572 160.275 67.1617C160.719 66.9662 161.221 66.8684 161.781 66.8684ZM171.254 73.5868C171.068 73.7467 170.837 73.8711 170.561 73.96C170.286 74.04 170.001 74.08 169.708 74.08C168.997 74.08 168.446 73.8889 168.055 73.5068C167.664 73.1247 167.469 72.5781 167.469 71.8672V67.9882H166.269V66.9351H167.469V65.3888H168.748V66.9351H170.774V67.9882H168.748V71.8139C168.748 72.196 168.842 72.4893 169.028 72.6937C169.224 72.8981 169.499 73.0002 169.855 73.0002C170.246 73.0002 170.579 72.8892 170.854 72.667L171.254 73.5868ZM174.228 68.1215C174.45 67.7127 174.779 67.4016 175.214 67.1884C175.65 66.9751 176.178 66.8684 176.8 66.8684V68.1081C176.729 68.0993 176.632 68.0948 176.507 68.0948C175.814 68.0948 175.267 68.3036 174.868 68.7213C174.477 69.1301 174.281 69.7166 174.281 70.4809V74H173.001V66.9351H174.228V68.1215ZM181.538 74.08C180.836 74.08 180.205 73.9245 179.645 73.6134C179.086 73.3024 178.646 72.8758 178.326 72.3338C178.015 71.7828 177.859 71.1607 177.859 70.4675C177.859 69.7744 178.015 69.1568 178.326 68.6147C178.646 68.0637 179.086 67.6371 179.645 67.335C180.205 67.024 180.836 66.8684 181.538 66.8684C182.24 66.8684 182.867 67.024 183.418 67.335C183.978 67.6371 184.413 68.0637 184.724 68.6147C185.044 69.1568 185.204 69.7744 185.204 70.4675C185.204 71.1607 185.044 71.7828 184.724 72.3338C184.413 72.8758 183.978 73.3024 183.418 73.6134C182.867 73.9245 182.24 74.08 181.538 74.08ZM181.538 72.9603C181.992 72.9603 182.396 72.8581 182.751 72.6537C183.116 72.4404 183.4 72.1471 183.604 71.7739C183.809 71.3918 183.911 70.9563 183.911 70.4675C183.911 69.9788 183.809 69.5478 183.604 69.1745C183.4 68.7924 183.116 68.4992 182.751 68.2948C182.396 68.0904 181.992 67.9882 181.538 67.9882C181.085 67.9882 180.676 68.0904 180.312 68.2948C179.957 68.4992 179.672 68.7924 179.459 69.1745C179.254 69.5478 179.152 69.9788 179.152 70.4675C179.152 70.9563 179.254 71.3918 179.459 71.7739C179.672 72.1471 179.957 72.4404 180.312 72.6537C180.676 72.8581 181.085 72.9603 181.538 72.9603ZM187.174 64.1091H188.453V74H187.174V64.1091Z" fill="white"/>
</svg>
