<svg width="96" height="85" viewBox="0 0 96 85" fill="none" xmlns="http://www.w3.org/2000/svg">
<path d="M18.45 0.999998V36H10.35V7.5H3.35V0.999998H18.45ZM38.7801 0.999998V36H30.6801V7.5H23.6801V0.999998H38.7801Z" fill="#396AF5"/>
<path d="M1.696 63.648H2.496V72H1.696V63.648ZM2.096 61.616C1.91467 61.616 1.76 61.5573 1.632 61.44C1.504 61.312 1.44 61.1573 1.44 60.976C1.44 60.7947 1.504 60.64 1.632 60.512C1.76 60.384 1.91467 60.32 2.096 60.32C2.27733 60.32 2.432 60.384 2.56 60.512C2.688 60.6293 2.752 60.7787 2.752 60.96C2.752 61.1413 2.688 61.296 2.56 61.424C2.432 61.552 2.27733 61.616 2.096 61.616ZM10.1879 63.584C11.2332 63.584 12.0599 63.888 12.6679 64.496C13.2759 65.104 13.5799 65.9787 13.5799 67.12V72H12.7799V67.184C12.7799 66.2453 12.5399 65.5307 12.0599 65.04C11.5905 64.5493 10.9292 64.304 10.0759 64.304C9.09454 64.304 8.32121 64.5973 7.75587 65.184C7.19054 65.7707 6.90787 66.56 6.90787 67.552V72H6.10787V63.648H6.87587V65.456C7.16387 64.8693 7.59054 64.4107 8.15587 64.08C8.73188 63.7493 9.40921 63.584 10.1879 63.584ZM21.2575 71.472C21.0548 71.664 20.7988 71.8133 20.4895 71.92C20.1908 72.016 19.8762 72.064 19.5455 72.064C18.8202 72.064 18.2602 71.8667 17.8655 71.472C17.4708 71.0667 17.2735 70.5067 17.2735 69.792V64.336H15.7375V63.648H17.2735V61.824H18.0735V63.648H20.7295V64.336H18.0735V69.712C18.0735 70.256 18.2015 70.672 18.4575 70.96C18.7242 71.2373 19.1135 71.376 19.6255 71.376C20.1482 71.376 20.5802 71.2213 20.9215 70.912L21.2575 71.472ZM30.4876 68.016H23.3036C23.325 68.6667 23.4903 69.248 23.7996 69.76C24.109 70.2613 24.525 70.6507 25.0476 70.928C25.581 71.2053 26.1783 71.344 26.8396 71.344C27.3836 71.344 27.885 71.248 28.3436 71.056C28.813 70.8533 29.2023 70.56 29.5116 70.176L29.9756 70.704C29.613 71.1413 29.1543 71.4773 28.5996 71.712C28.0556 71.9467 27.4636 72.064 26.8236 72.064C25.9916 72.064 25.2503 71.8827 24.5996 71.52C23.949 71.1573 23.437 70.656 23.0636 70.016C22.701 69.376 22.5196 68.6453 22.5196 67.824C22.5196 67.0133 22.6903 66.288 23.0316 65.648C23.3836 64.9973 23.8636 64.4907 24.4716 64.128C25.0796 63.7653 25.7623 63.584 26.5196 63.584C27.277 63.584 27.9543 63.7653 28.5516 64.128C29.1596 64.48 29.6343 64.976 29.9756 65.616C30.3276 66.256 30.5036 66.9813 30.5036 67.792L30.4876 68.016ZM26.5196 64.288C25.933 64.288 25.405 64.4213 24.9356 64.688C24.4663 64.944 24.0876 65.312 23.7996 65.792C23.5223 66.2613 23.3623 66.7947 23.3196 67.392H29.7196C29.6876 66.7947 29.5276 66.2613 29.2396 65.792C28.9516 65.3227 28.573 64.9547 28.1036 64.688C27.6343 64.4213 27.1063 64.288 26.5196 64.288ZM33.9865 65.472C34.2425 64.864 34.6425 64.4 35.1865 64.08C35.7305 63.7493 36.3918 63.584 37.1705 63.584V64.368L36.9785 64.352C36.0505 64.352 35.3252 64.6453 34.8025 65.232C34.2798 65.808 34.0185 66.6133 34.0185 67.648V72H33.2185V63.648H33.9865V65.472ZM46.6938 63.648L42.9178 72H42.1018L38.3418 63.648H39.1898L42.5178 71.12L45.8778 63.648H46.6938ZM48.6829 63.648H49.4829V72H48.6829V63.648ZM49.0829 61.616C48.9015 61.616 48.7469 61.5573 48.6189 61.44C48.4909 61.312 48.4269 61.1573 48.4269 60.976C48.4269 60.7947 48.4909 60.64 48.6189 60.512C48.7469 60.384 48.9015 60.32 49.0829 60.32C49.2642 60.32 49.4189 60.384 49.5469 60.512C49.6749 60.6293 49.7389 60.7787 49.7389 60.96C49.7389 61.1413 49.6749 61.296 49.5469 61.424C49.4189 61.552 49.2642 61.616 49.0829 61.616ZM60.1508 68.016H52.9668C52.9881 68.6667 53.1534 69.248 53.4628 69.76C53.7721 70.2613 54.1881 70.6507 54.7108 70.928C55.2441 71.2053 55.8414 71.344 56.5028 71.344C57.0468 71.344 57.5481 71.248 58.0068 71.056C58.4761 70.8533 58.8654 70.56 59.1748 70.176L59.6388 70.704C59.2761 71.1413 58.8174 71.4773 58.2628 71.712C57.7188 71.9467 57.1268 72.064 56.4868 72.064C55.6548 72.064 54.9134 71.8827 54.2628 71.52C53.6121 71.1573 53.1001 70.656 52.7268 70.016C52.3641 69.376 52.1828 68.6453 52.1828 67.824C52.1828 67.0133 52.3534 66.288 52.6948 65.648C53.0468 64.9973 53.5268 64.4907 54.1348 64.128C54.7428 63.7653 55.4254 63.584 56.1828 63.584C56.9401 63.584 57.6174 63.7653 58.2148 64.128C58.8228 64.48 59.2974 64.976 59.6388 65.616C59.9908 66.256 60.1668 66.9813 60.1668 67.792L60.1508 68.016ZM56.1828 64.288C55.5961 64.288 55.0681 64.4213 54.5988 64.688C54.1294 64.944 53.7508 65.312 53.4628 65.792C53.1854 66.2613 53.0254 66.7947 52.9828 67.392H59.3828C59.3508 66.7947 59.1908 66.2613 58.9028 65.792C58.6148 65.3227 58.2361 64.9547 57.7668 64.688C57.2974 64.4213 56.7694 64.288 56.1828 64.288ZM74.6614 63.648L71.4934 72H70.7414L67.9254 64.752L65.0934 72H64.3574L61.1894 63.648H61.9574L64.7414 71.104L67.5894 63.648H68.2774L71.1094 71.088L73.9254 63.648H74.6614ZM83.5839 68.016H76.3999C76.4212 68.6667 76.5865 69.248 76.8959 69.76C77.2052 70.2613 77.6212 70.6507 78.1439 70.928C78.6772 71.2053 79.2745 71.344 79.9359 71.344C80.4799 71.344 80.9812 71.248 81.4399 71.056C81.9092 70.8533 82.2985 70.56 82.6079 70.176L83.0719 70.704C82.7092 71.1413 82.2505 71.4773 81.6959 71.712C81.1519 71.9467 80.5599 72.064 79.9199 72.064C79.0879 72.064 78.3465 71.8827 77.6959 71.52C77.0452 71.1573 76.5332 70.656 76.1599 70.016C75.7972 69.376 75.6159 68.6453 75.6159 67.824C75.6159 67.0133 75.7865 66.288 76.1279 65.648C76.4799 64.9973 76.9599 64.4907 77.5679 64.128C78.1759 63.7653 78.8585 63.584 79.6159 63.584C80.3732 63.584 81.0505 63.7653 81.6479 64.128C82.2559 64.48 82.7305 64.976 83.0719 65.616C83.4239 66.256 83.5999 66.9813 83.5999 67.792L83.5839 68.016ZM79.6159 64.288C79.0292 64.288 78.5012 64.4213 78.0319 64.688C77.5625 64.944 77.1839 65.312 76.8959 65.792C76.6185 66.2613 76.4585 66.7947 76.4159 67.392H82.8159C82.7839 66.7947 82.6239 66.2613 82.3359 65.792C82.0479 65.3227 81.6692 64.9547 81.1999 64.688C80.7305 64.4213 80.2025 64.288 79.6159 64.288ZM93.7388 60.128V72H92.9548V70.032C92.6241 70.6827 92.1601 71.184 91.5628 71.536C90.9654 71.888 90.2881 72.064 89.5308 72.064C88.7521 72.064 88.0481 71.8827 87.4188 71.52C86.7894 71.1573 86.2934 70.656 85.9308 70.016C85.5788 69.376 85.4028 68.6453 85.4028 67.824C85.4028 67.0027 85.5788 66.272 85.9308 65.632C86.2934 64.9813 86.7894 64.48 87.4188 64.128C88.0481 63.7653 88.7521 63.584 89.5308 63.584C90.2774 63.584 90.9441 63.76 91.5308 64.112C92.1281 64.464 92.5974 64.9547 92.9388 65.584V60.128H93.7388ZM89.5788 71.344C90.2188 71.344 90.7894 71.1947 91.2908 70.896C91.8028 70.5973 92.2028 70.1813 92.4908 69.648C92.7894 69.1147 92.9388 68.5067 92.9388 67.824C92.9388 67.1413 92.7894 66.5333 92.4908 66C92.2028 65.4667 91.8028 65.0507 91.2908 64.752C90.7894 64.4533 90.2188 64.304 89.5788 64.304C88.9388 64.304 88.3628 64.4533 87.8508 64.752C87.3494 65.0507 86.9494 65.4667 86.6508 66C86.3628 66.5333 86.2188 67.1413 86.2188 67.824C86.2188 68.5067 86.3628 69.1147 86.6508 69.648C86.9494 70.1813 87.3494 70.5973 87.8508 70.896C88.3628 71.1947 88.9388 71.344 89.5788 71.344Z" fill="white"/>
</svg>
