<svg width="406" height="346" viewBox="0 0 406 346" fill="none" xmlns="http://www.w3.org/2000/svg">
<path d="M70.115 11.5L66.68 22H64.07L61.76 14.89L59.375 22H56.78L53.33 11.5H55.85L58.22 18.88L60.695 11.5H62.945L65.345 18.94L67.79 11.5H70.115ZM76.6563 13.81C77.6563 13.81 78.4613 14.11 79.0713 14.71C79.6913 15.31 80.0013 16.2 80.0013 17.38V22H77.6613V17.74C77.6613 17.1 77.5213 16.625 77.2413 16.315C76.9613 15.995 76.5563 15.835 76.0263 15.835C75.4363 15.835 74.9663 16.02 74.6163 16.39C74.2663 16.75 74.0913 17.29 74.0913 18.01V22H71.7513V10.87H74.0913V14.77C74.4013 14.46 74.7763 14.225 75.2163 14.065C75.6563 13.895 76.1363 13.81 76.6563 13.81ZM85.6024 13.81C86.8524 13.81 87.8124 14.11 88.4824 14.71C89.1524 15.3 89.4874 16.195 89.4874 17.395V22H87.2974V20.995C86.8574 21.745 86.0374 22.12 84.8374 22.12C84.2174 22.12 83.6774 22.015 83.2174 21.805C82.7674 21.595 82.4224 21.305 82.1824 20.935C81.9424 20.565 81.8224 20.145 81.8224 19.675C81.8224 18.925 82.1024 18.335 82.6624 17.905C83.2324 17.475 84.1074 17.26 85.2874 17.26H87.1474C87.1474 16.75 86.9924 16.36 86.6824 16.09C86.3724 15.81 85.9074 15.67 85.2874 15.67C84.8574 15.67 84.4324 15.74 84.0124 15.88C83.6024 16.01 83.2524 16.19 82.9624 16.42L82.1224 14.785C82.5624 14.475 83.0874 14.235 83.6974 14.065C84.3174 13.895 84.9524 13.81 85.6024 13.81ZM85.4224 20.545C85.8224 20.545 86.1774 20.455 86.4874 20.275C86.7974 20.085 87.0174 19.81 87.1474 19.45V18.625H85.5424C84.5824 18.625 84.1024 18.94 84.1024 19.57C84.1024 19.87 84.2174 20.11 84.4474 20.29C84.6874 20.46 85.0124 20.545 85.4224 20.545ZM97.0352 21.61C96.8052 21.78 96.5202 21.91 96.1802 22C95.8502 22.08 95.5002 22.12 95.1302 22.12C94.1702 22.12 93.4252 21.875 92.8952 21.385C92.3752 20.895 92.1152 20.175 92.1152 19.225V15.91H90.8702V14.11H92.1152V12.145H94.4552V14.11H96.4652V15.91H94.4552V19.195C94.4552 19.535 94.5402 19.8 94.7102 19.99C94.8902 20.17 95.1402 20.26 95.4602 20.26C95.8302 20.26 96.1452 20.16 96.4052 19.96L97.0352 21.61ZM106.302 13.81C107.552 13.81 108.512 14.11 109.182 14.71C109.852 15.3 110.187 16.195 110.187 17.395V22H107.997V20.995C107.557 21.745 106.737 22.12 105.537 22.12C104.917 22.12 104.377 22.015 103.917 21.805C103.467 21.595 103.122 21.305 102.882 20.935C102.642 20.565 102.522 20.145 102.522 19.675C102.522 18.925 102.802 18.335 103.362 17.905C103.932 17.475 104.807 17.26 105.987 17.26H107.847C107.847 16.75 107.692 16.36 107.382 16.09C107.072 15.81 106.607 15.67 105.987 15.67C105.557 15.67 105.132 15.74 104.712 15.88C104.302 16.01 103.952 16.19 103.662 16.42L102.822 14.785C103.262 14.475 103.787 14.235 104.397 14.065C105.017 13.895 105.652 13.81 106.302 13.81ZM106.122 20.545C106.522 20.545 106.877 20.455 107.187 20.275C107.497 20.085 107.717 19.81 107.847 19.45V18.625H106.242C105.282 18.625 104.802 18.94 104.802 19.57C104.802 19.87 104.917 20.11 105.147 20.29C105.387 20.46 105.712 20.545 106.122 20.545ZM116.517 22.12C115.657 22.12 114.882 21.945 114.192 21.595C113.512 21.235 112.977 20.74 112.587 20.11C112.207 19.48 112.017 18.765 112.017 17.965C112.017 17.165 112.207 16.45 112.587 15.82C112.977 15.19 113.512 14.7 114.192 14.35C114.882 13.99 115.657 13.81 116.517 13.81C117.367 13.81 118.107 13.99 118.737 14.35C119.377 14.7 119.842 15.205 120.132 15.865L118.317 16.84C117.897 16.1 117.292 15.73 116.502 15.73C115.892 15.73 115.387 15.93 114.987 16.33C114.587 16.73 114.387 17.275 114.387 17.965C114.387 18.655 114.587 19.2 114.987 19.6C115.387 20 115.892 20.2 116.502 20.2C117.302 20.2 117.907 19.83 118.317 19.09L120.132 20.08C119.842 20.72 119.377 21.22 118.737 21.58C118.107 21.94 117.367 22.12 116.517 22.12ZM127.027 21.61C126.797 21.78 126.512 21.91 126.172 22C125.842 22.08 125.492 22.12 125.122 22.12C124.162 22.12 123.417 21.875 122.887 21.385C122.367 20.895 122.107 20.175 122.107 19.225V15.91H120.862V14.11H122.107V12.145H124.447V14.11H126.457V15.91H124.447V19.195C124.447 19.535 124.532 19.8 124.702 19.99C124.882 20.17 125.132 20.26 125.452 20.26C125.822 20.26 126.137 20.16 126.397 19.96L127.027 21.61ZM128.566 13.93H130.906V22H128.566V13.93ZM129.736 12.805C129.306 12.805 128.956 12.68 128.686 12.43C128.416 12.18 128.281 11.87 128.281 11.5C128.281 11.13 128.416 10.82 128.686 10.57C128.956 10.32 129.306 10.195 129.736 10.195C130.166 10.195 130.516 10.315 130.786 10.555C131.056 10.795 131.191 11.095 131.191 11.455C131.191 11.845 131.056 12.17 130.786 12.43C130.516 12.68 130.166 12.805 129.736 12.805ZM141.312 13.93L137.907 22H135.492L132.102 13.93H134.517L136.752 19.42L139.062 13.93H141.312ZM142.492 13.93H144.832V22H142.492V13.93ZM143.662 12.805C143.232 12.805 142.882 12.68 142.612 12.43C142.342 12.18 142.207 11.87 142.207 11.5C142.207 11.13 142.342 10.82 142.612 10.57C142.882 10.32 143.232 10.195 143.662 10.195C144.092 10.195 144.442 10.315 144.712 10.555C144.982 10.795 145.117 11.095 145.117 11.455C145.117 11.845 144.982 12.17 144.712 12.43C144.442 12.68 144.092 12.805 143.662 12.805ZM152.434 21.61C152.204 21.78 151.919 21.91 151.579 22C151.249 22.08 150.899 22.12 150.529 22.12C149.569 22.12 148.824 21.875 148.294 21.385C147.774 20.895 147.514 20.175 147.514 19.225V15.91H146.269V14.11H147.514V12.145H149.854V14.11H151.864V15.91H149.854V19.195C149.854 19.535 149.939 19.8 150.109 19.99C150.289 20.17 150.539 20.26 150.859 20.26C151.229 20.26 151.544 20.16 151.804 19.96L152.434 21.61ZM153.972 13.93H156.312V22H153.972V13.93ZM155.142 12.805C154.712 12.805 154.362 12.68 154.092 12.43C153.822 12.18 153.687 11.87 153.687 11.5C153.687 11.13 153.822 10.82 154.092 10.57C154.362 10.32 154.712 10.195 155.142 10.195C155.572 10.195 155.922 10.315 156.192 10.555C156.462 10.795 156.597 11.095 156.597 11.455C156.597 11.845 156.462 12.17 156.192 12.43C155.922 12.68 155.572 12.805 155.142 12.805ZM166.614 17.995C166.614 18.025 166.599 18.235 166.569 18.625H160.464C160.574 19.125 160.834 19.52 161.244 19.81C161.654 20.1 162.164 20.245 162.774 20.245C163.194 20.245 163.564 20.185 163.884 20.065C164.214 19.935 164.519 19.735 164.799 19.465L166.044 20.815C165.284 21.685 164.174 22.12 162.714 22.12C161.804 22.12 160.999 21.945 160.299 21.595C159.599 21.235 159.059 20.74 158.679 20.11C158.299 19.48 158.109 18.765 158.109 17.965C158.109 17.175 158.294 16.465 158.664 15.835C159.044 15.195 159.559 14.7 160.209 14.35C160.869 13.99 161.604 13.81 162.414 13.81C163.204 13.81 163.919 13.98 164.559 14.32C165.199 14.66 165.699 15.15 166.059 15.79C166.429 16.42 166.614 17.155 166.614 17.995ZM162.429 15.58C161.899 15.58 161.454 15.73 161.094 16.03C160.734 16.33 160.514 16.74 160.434 17.26H164.409C164.329 16.75 164.109 16.345 163.749 16.045C163.389 15.735 162.949 15.58 162.429 15.58ZM171.112 22.12C170.442 22.12 169.787 22.04 169.147 21.88C168.507 21.71 167.997 21.5 167.617 21.25L168.397 19.57C168.757 19.8 169.192 19.99 169.702 20.14C170.212 20.28 170.712 20.35 171.202 20.35C172.192 20.35 172.687 20.105 172.687 19.615C172.687 19.385 172.552 19.22 172.282 19.12C172.012 19.02 171.597 18.935 171.037 18.865C170.377 18.765 169.832 18.65 169.402 18.52C168.972 18.39 168.597 18.16 168.277 17.83C167.967 17.5 167.812 17.03 167.812 16.42C167.812 15.91 167.957 15.46 168.247 15.07C168.547 14.67 168.977 14.36 169.537 14.14C170.107 13.92 170.777 13.81 171.547 13.81C172.117 13.81 172.682 13.875 173.242 14.005C173.812 14.125 174.282 14.295 174.652 14.515L173.872 16.18C173.162 15.78 172.387 15.58 171.547 15.58C171.047 15.58 170.672 15.65 170.422 15.79C170.172 15.93 170.047 16.11 170.047 16.33C170.047 16.58 170.182 16.755 170.452 16.855C170.722 16.955 171.152 17.05 171.742 17.14C172.402 17.25 172.942 17.37 173.362 17.5C173.782 17.62 174.147 17.845 174.457 18.175C174.767 18.505 174.922 18.965 174.922 19.555C174.922 20.055 174.772 20.5 174.472 20.89C174.172 21.28 173.732 21.585 173.152 21.805C172.582 22.015 171.902 22.12 171.112 22.12ZM184.964 22.12C184.104 22.12 183.329 21.945 182.639 21.595C181.959 21.235 181.424 20.74 181.034 20.11C180.654 19.48 180.464 18.765 180.464 17.965C180.464 17.165 180.654 16.45 181.034 15.82C181.424 15.19 181.959 14.7 182.639 14.35C183.329 13.99 184.104 13.81 184.964 13.81C185.814 13.81 186.554 13.99 187.184 14.35C187.824 14.7 188.289 15.205 188.579 15.865L186.764 16.84C186.344 16.1 185.739 15.73 184.949 15.73C184.339 15.73 183.834 15.93 183.434 16.33C183.034 16.73 182.834 17.275 182.834 17.965C182.834 18.655 183.034 19.2 183.434 19.6C183.834 20 184.339 20.2 184.949 20.2C185.749 20.2 186.354 19.83 186.764 19.09L188.579 20.08C188.289 20.72 187.824 21.22 187.184 21.58C186.554 21.94 185.814 22.12 184.964 22.12ZM198.281 13.93V22H196.061V21.04C195.751 21.39 195.381 21.66 194.951 21.85C194.521 22.03 194.056 22.12 193.556 22.12C192.496 22.12 191.656 21.815 191.036 21.205C190.416 20.595 190.106 19.69 190.106 18.49V13.93H192.446V18.145C192.446 19.445 192.991 20.095 194.081 20.095C194.641 20.095 195.091 19.915 195.431 19.555C195.771 19.185 195.941 18.64 195.941 17.92V13.93H198.281ZM202.909 14.995C203.189 14.605 203.564 14.31 204.034 14.11C204.514 13.91 205.064 13.81 205.684 13.81V15.97C205.424 15.95 205.249 15.94 205.159 15.94C204.489 15.94 203.964 16.13 203.584 16.51C203.204 16.88 203.014 17.44 203.014 18.19V22H200.674V13.93H202.909V14.995ZM209.535 14.995C209.815 14.605 210.19 14.31 210.66 14.11C211.14 13.91 211.69 13.81 212.31 13.81V15.97C212.05 15.95 211.875 15.94 211.785 15.94C211.115 15.94 210.59 16.13 210.21 16.51C209.83 16.88 209.64 17.44 209.64 18.19V22H207.3V13.93H209.535V14.995ZM221.758 17.995C221.758 18.025 221.743 18.235 221.713 18.625H215.608C215.718 19.125 215.978 19.52 216.388 19.81C216.798 20.1 217.308 20.245 217.918 20.245C218.338 20.245 218.708 20.185 219.028 20.065C219.358 19.935 219.663 19.735 219.943 19.465L221.188 20.815C220.428 21.685 219.318 22.12 217.858 22.12C216.948 22.12 216.143 21.945 215.443 21.595C214.743 21.235 214.203 20.74 213.823 20.11C213.443 19.48 213.253 18.765 213.253 17.965C213.253 17.175 213.438 16.465 213.808 15.835C214.188 15.195 214.703 14.7 215.353 14.35C216.013 13.99 216.748 13.81 217.558 13.81C218.348 13.81 219.063 13.98 219.703 14.32C220.343 14.66 220.843 15.15 221.203 15.79C221.573 16.42 221.758 17.155 221.758 17.995ZM217.573 15.58C217.043 15.58 216.598 15.73 216.238 16.03C215.878 16.33 215.658 16.74 215.578 17.26H219.553C219.473 16.75 219.253 16.345 218.893 16.045C218.533 15.735 218.093 15.58 217.573 15.58ZM228.446 13.81C229.446 13.81 230.251 14.11 230.861 14.71C231.481 15.31 231.791 16.2 231.791 17.38V22H229.451V17.74C229.451 17.1 229.311 16.625 229.031 16.315C228.751 15.995 228.346 15.835 227.816 15.835C227.226 15.835 226.756 16.02 226.406 16.39C226.056 16.75 225.881 17.29 225.881 18.01V22H223.541V13.93H225.776V14.875C226.086 14.535 226.471 14.275 226.931 14.095C227.391 13.905 227.896 13.81 228.446 13.81ZM239.342 21.61C239.112 21.78 238.827 21.91 238.487 22C238.157 22.08 237.807 22.12 237.437 22.12C236.477 22.12 235.732 21.875 235.202 21.385C234.682 20.895 234.422 20.175 234.422 19.225V15.91H233.177V14.11H234.422V12.145H236.762V14.11H238.772V15.91H236.762V19.195C236.762 19.535 236.847 19.8 237.017 19.99C237.197 20.17 237.447 20.26 237.767 20.26C238.137 20.26 238.452 20.16 238.712 19.96L239.342 21.61ZM240.881 10.87H243.221V22H240.881V10.87ZM253.628 13.93L249.983 22.495C249.613 23.425 249.153 24.08 248.603 24.46C248.063 24.84 247.408 25.03 246.638 25.03C246.218 25.03 245.803 24.965 245.393 24.835C244.983 24.705 244.648 24.525 244.388 24.295L245.243 22.63C245.423 22.79 245.628 22.915 245.858 23.005C246.098 23.095 246.333 23.14 246.563 23.14C246.883 23.14 247.143 23.06 247.343 22.9C247.543 22.75 247.723 22.495 247.883 22.135L247.913 22.06L244.418 13.93H246.833L249.098 19.405L251.378 13.93H253.628ZM272.241 13.93L269.316 22H267.066L265.251 16.99L263.376 22H261.126L258.216 13.93H260.421L262.326 19.39L264.306 13.93H266.286L268.206 19.39L270.171 13.93H272.241ZM276.545 13.81C277.795 13.81 278.755 14.11 279.425 14.71C280.095 15.3 280.43 16.195 280.43 17.395V22H278.24V20.995C277.8 21.745 276.98 22.12 275.78 22.12C275.16 22.12 274.62 22.015 274.16 21.805C273.71 21.595 273.365 21.305 273.125 20.935C272.885 20.565 272.765 20.145 272.765 19.675C272.765 18.925 273.045 18.335 273.605 17.905C274.175 17.475 275.05 17.26 276.23 17.26H278.09C278.09 16.75 277.935 16.36 277.625 16.09C277.315 15.81 276.85 15.67 276.23 15.67C275.8 15.67 275.375 15.74 274.955 15.88C274.545 16.01 274.195 16.19 273.905 16.42L273.065 14.785C273.505 14.475 274.03 14.235 274.64 14.065C275.26 13.895 275.895 13.81 276.545 13.81ZM276.365 20.545C276.765 20.545 277.12 20.455 277.43 20.275C277.74 20.085 277.96 19.81 278.09 19.45V18.625H276.485C275.525 18.625 275.045 18.94 275.045 19.57C275.045 19.87 275.16 20.11 275.39 20.29C275.63 20.46 275.955 20.545 276.365 20.545ZM285.488 22.12C284.818 22.12 284.163 22.04 283.523 21.88C282.883 21.71 282.373 21.5 281.993 21.25L282.773 19.57C283.133 19.8 283.568 19.99 284.078 20.14C284.588 20.28 285.088 20.35 285.578 20.35C286.568 20.35 287.063 20.105 287.063 19.615C287.063 19.385 286.928 19.22 286.658 19.12C286.388 19.02 285.973 18.935 285.413 18.865C284.753 18.765 284.208 18.65 283.778 18.52C283.348 18.39 282.973 18.16 282.653 17.83C282.343 17.5 282.188 17.03 282.188 16.42C282.188 15.91 282.333 15.46 282.623 15.07C282.923 14.67 283.353 14.36 283.913 14.14C284.483 13.92 285.153 13.81 285.923 13.81C286.493 13.81 287.058 13.875 287.618 14.005C288.188 14.125 288.658 14.295 289.028 14.515L288.248 16.18C287.538 15.78 286.763 15.58 285.923 15.58C285.423 15.58 285.048 15.65 284.798 15.79C284.548 15.93 284.423 16.11 284.423 16.33C284.423 16.58 284.558 16.755 284.828 16.855C285.098 16.955 285.528 17.05 286.118 17.14C286.778 17.25 287.318 17.37 287.738 17.5C288.158 17.62 288.523 17.845 288.833 18.175C289.143 18.505 289.298 18.965 289.298 19.555C289.298 20.055 289.148 20.5 288.848 20.89C288.548 21.28 288.108 21.585 287.528 21.805C286.958 22.015 286.278 22.12 285.488 22.12ZM296.171 21.61C295.941 21.78 295.656 21.91 295.316 22C294.986 22.08 294.636 22.12 294.266 22.12C293.306 22.12 292.561 21.875 292.031 21.385C291.511 20.895 291.251 20.175 291.251 19.225V15.91H290.006V14.11H291.251V12.145H293.591V14.11H295.601V15.91H293.591V19.195C293.591 19.535 293.676 19.8 293.846 19.99C294.026 20.17 294.276 20.26 294.596 20.26C294.966 20.26 295.281 20.16 295.541 19.96L296.171 21.61ZM305.366 17.995C305.366 18.025 305.351 18.235 305.321 18.625H299.216C299.326 19.125 299.586 19.52 299.996 19.81C300.406 20.1 300.916 20.245 301.526 20.245C301.946 20.245 302.316 20.185 302.636 20.065C302.966 19.935 303.271 19.735 303.551 19.465L304.796 20.815C304.036 21.685 302.926 22.12 301.466 22.12C300.556 22.12 299.751 21.945 299.051 21.595C298.351 21.235 297.811 20.74 297.431 20.11C297.051 19.48 296.861 18.765 296.861 17.965C296.861 17.175 297.046 16.465 297.416 15.835C297.796 15.195 298.311 14.7 298.961 14.35C299.621 13.99 300.356 13.81 301.166 13.81C301.956 13.81 302.671 13.98 303.311 14.32C303.951 14.66 304.451 15.15 304.811 15.79C305.181 16.42 305.366 17.155 305.366 17.995ZM301.181 15.58C300.651 15.58 300.206 15.73 299.846 16.03C299.486 16.33 299.266 16.74 299.186 17.26H303.161C303.081 16.75 302.861 16.345 302.501 16.045C302.141 15.735 301.701 15.58 301.181 15.58ZM62.09 45.93L58.445 54.495C58.075 55.425 57.615 56.08 57.065 56.46C56.525 56.84 55.87 57.03 55.1 57.03C54.68 57.03 54.265 56.965 53.855 56.835C53.445 56.705 53.11 56.525 52.85 56.295L53.705 54.63C53.885 54.79 54.09 54.915 54.32 55.005C54.56 55.095 54.795 55.14 55.025 55.14C55.345 55.14 55.605 55.06 55.805 54.9C56.005 54.75 56.185 54.495 56.345 54.135L56.375 54.06L52.88 45.93H55.295L57.56 51.405L59.84 45.93H62.09ZM66.8901 54.12C66.0401 54.12 65.2751 53.945 64.5951 53.595C63.9251 53.235 63.4001 52.74 63.0201 52.11C62.6401 51.48 62.4501 50.765 62.4501 49.965C62.4501 49.165 62.6401 48.45 63.0201 47.82C63.4001 47.19 63.9251 46.7 64.5951 46.35C65.2751 45.99 66.0401 45.81 66.8901 45.81C67.7401 45.81 68.5001 45.99 69.1701 46.35C69.8401 46.7 70.3651 47.19 70.7451 47.82C71.1251 48.45 71.3151 49.165 71.3151 49.965C71.3151 50.765 71.1251 51.48 70.7451 52.11C70.3651 52.74 69.8401 53.235 69.1701 53.595C68.5001 53.945 67.7401 54.12 66.8901 54.12ZM66.8901 52.2C67.4901 52.2 67.9801 52 68.3601 51.6C68.7501 51.19 68.9451 50.645 68.9451 49.965C68.9451 49.285 68.7501 48.745 68.3601 48.345C67.9801 47.935 67.4901 47.73 66.8901 47.73C66.2901 47.73 65.7951 47.935 65.4051 48.345C65.0151 48.745 64.8201 49.285 64.8201 49.965C64.8201 50.645 65.0151 51.19 65.4051 51.6C65.7951 52 66.2901 52.2 66.8901 52.2ZM81.2342 45.93V54H79.0142V53.04C78.7042 53.39 78.3342 53.66 77.9042 53.85C77.4742 54.03 77.0092 54.12 76.5092 54.12C75.4492 54.12 74.6092 53.815 73.9892 53.205C73.3692 52.595 73.0592 51.69 73.0592 50.49V45.93H75.3992V50.145C75.3992 51.445 75.9442 52.095 77.0342 52.095C77.5942 52.095 78.0442 51.915 78.3842 51.555C78.7242 51.185 78.8942 50.64 78.8942 49.92V45.93H81.2342ZM85.8621 46.995C86.1421 46.605 86.5171 46.31 86.9871 46.11C87.4671 45.91 88.0171 45.81 88.6371 45.81V47.97C88.3771 47.95 88.2021 47.94 88.1121 47.94C87.4421 47.94 86.9171 48.13 86.5371 48.51C86.1571 48.88 85.9671 49.44 85.9671 50.19V54H83.6271V45.93H85.8621V46.995ZM99.9901 53.61C99.7601 53.78 99.4751 53.91 99.1351 54C98.8051 54.08 98.4551 54.12 98.0851 54.12C97.1251 54.12 96.3801 53.875 95.8501 53.385C95.3301 52.895 95.0701 52.175 95.0701 51.225V47.91H93.8251V46.11H95.0701V44.145H97.4101V46.11H99.4201V47.91H97.4101V51.195C97.4101 51.535 97.4951 51.8 97.6651 51.99C97.8451 52.17 98.0951 52.26 98.4151 52.26C98.7851 52.26 99.1001 52.16 99.3601 51.96L99.9901 53.61ZM101.529 45.93H103.869V54H101.529V45.93ZM102.699 44.805C102.269 44.805 101.919 44.68 101.649 44.43C101.379 44.18 101.244 43.87 101.244 43.5C101.244 43.13 101.379 42.82 101.649 42.57C101.919 42.32 102.269 42.195 102.699 42.195C103.129 42.195 103.479 42.315 103.749 42.555C104.019 42.795 104.154 43.095 104.154 43.455C104.154 43.845 104.019 44.17 103.749 44.43C103.479 44.68 103.129 44.805 102.699 44.805ZM116.6 45.81C117.61 45.81 118.41 46.11 119 46.71C119.6 47.3 119.9 48.19 119.9 49.38V54H117.56V49.74C117.56 49.1 117.425 48.625 117.155 48.315C116.895 47.995 116.52 47.835 116.03 47.835C115.48 47.835 115.045 48.015 114.725 48.375C114.405 48.725 114.245 49.25 114.245 49.95V54H111.905V49.74C111.905 48.47 111.395 47.835 110.375 47.835C109.835 47.835 109.405 48.015 109.085 48.375C108.765 48.725 108.605 49.25 108.605 49.95V54H106.265V45.93H108.5V46.86C108.8 46.52 109.165 46.26 109.595 46.08C110.035 45.9 110.515 45.81 111.035 45.81C111.605 45.81 112.12 45.925 112.58 46.155C113.04 46.375 113.41 46.7 113.69 47.13C114.02 46.71 114.435 46.385 114.935 46.155C115.445 45.925 116 45.81 116.6 45.81ZM130.216 49.995C130.216 50.025 130.201 50.235 130.171 50.625H124.066C124.176 51.125 124.436 51.52 124.846 51.81C125.256 52.1 125.766 52.245 126.376 52.245C126.796 52.245 127.166 52.185 127.486 52.065C127.816 51.935 128.121 51.735 128.401 51.465L129.646 52.815C128.886 53.685 127.776 54.12 126.316 54.12C125.406 54.12 124.601 53.945 123.901 53.595C123.201 53.235 122.661 52.74 122.281 52.11C121.901 51.48 121.711 50.765 121.711 49.965C121.711 49.175 121.896 48.465 122.266 47.835C122.646 47.195 123.161 46.7 123.811 46.35C124.471 45.99 125.206 45.81 126.016 45.81C126.806 45.81 127.521 45.98 128.161 46.32C128.801 46.66 129.301 47.15 129.661 47.79C130.031 48.42 130.216 49.155 130.216 49.995ZM126.031 47.58C125.501 47.58 125.056 47.73 124.696 48.03C124.336 48.33 124.116 48.74 124.036 49.26H128.011C127.931 48.75 127.711 48.345 127.351 48.045C126.991 47.735 126.551 47.58 126.031 47.58ZM133.514 50.355C133.514 49.835 133.629 49.405 133.859 49.065C134.099 48.725 134.444 48.35 134.894 47.94C135.224 47.64 135.464 47.39 135.614 47.19C135.774 46.98 135.854 46.745 135.854 46.485C135.854 46.115 135.704 45.825 135.404 45.615C135.114 45.395 134.724 45.285 134.234 45.285C133.764 45.285 133.344 45.385 132.974 45.585C132.614 45.775 132.309 46.045 132.059 46.395L130.244 45.33C130.664 44.69 131.229 44.195 131.939 43.845C132.659 43.495 133.509 43.32 134.489 43.32C135.639 43.32 136.559 43.565 137.249 44.055C137.949 44.545 138.299 45.225 138.299 46.095C138.299 46.505 138.229 46.865 138.089 47.175C137.959 47.485 137.794 47.75 137.594 47.97C137.404 48.18 137.154 48.425 136.844 48.705C136.474 49.035 136.204 49.315 136.034 49.545C135.864 49.765 135.779 50.035 135.779 50.355H133.514ZM134.654 54.12C134.244 54.12 133.899 53.99 133.619 53.73C133.349 53.46 133.214 53.135 133.214 52.755C133.214 52.375 133.349 52.06 133.619 51.81C133.889 51.55 134.234 51.42 134.654 51.42C135.074 51.42 135.419 51.55 135.689 51.81C135.959 52.06 136.094 52.375 136.094 52.755C136.094 53.135 135.954 53.46 135.674 53.73C135.404 53.99 135.064 54.12 134.654 54.12Z" fill="#F3CD6A"/>
<path d="M114.688 144.08C113.589 144.08 112.597 143.835 111.712 143.344C110.837 142.853 110.144 142.176 109.632 141.312C109.131 140.448 108.88 139.477 108.88 138.4C108.88 137.323 109.131 136.352 109.632 135.488C110.144 134.624 110.837 133.947 111.712 133.456C112.597 132.965 113.589 132.72 114.688 132.72C115.499 132.72 116.245 132.853 116.928 133.12C117.611 133.376 118.192 133.76 118.672 134.272L118.16 134.8C117.264 133.915 116.117 133.472 114.72 133.472C113.781 133.472 112.928 133.685 112.16 134.112C111.392 134.539 110.789 135.131 110.352 135.888C109.915 136.635 109.696 137.472 109.696 138.4C109.696 139.328 109.915 140.171 110.352 140.928C110.789 141.675 111.392 142.261 112.16 142.688C112.928 143.115 113.781 143.328 114.72 143.328C116.107 143.328 117.253 142.88 118.16 141.984L118.672 142.512C118.192 143.024 117.605 143.413 116.912 143.68C116.229 143.947 115.488 144.08 114.688 144.08ZM124.064 135.584C125.099 135.584 125.894 135.851 126.449 136.384C127.003 136.907 127.28 137.68 127.28 138.704V144H126.513V142.512C126.246 143.003 125.857 143.387 125.345 143.664C124.832 143.931 124.219 144.064 123.504 144.064C122.576 144.064 121.84 143.845 121.296 143.408C120.763 142.971 120.496 142.395 120.496 141.68C120.496 140.987 120.742 140.427 121.232 140C121.734 139.563 122.528 139.344 123.616 139.344H126.481V138.672C126.481 137.893 126.267 137.301 125.84 136.896C125.424 136.491 124.811 136.288 124.001 136.288C123.446 136.288 122.912 136.384 122.4 136.576C121.899 136.768 121.472 137.024 121.12 137.344L120.72 136.768C121.136 136.395 121.638 136.107 122.224 135.904C122.811 135.691 123.424 135.584 124.064 135.584ZM123.616 143.408C124.31 143.408 124.896 143.248 125.377 142.928C125.867 142.608 126.235 142.144 126.481 141.536V139.968H123.633C122.811 139.968 122.214 140.117 121.84 140.416C121.478 140.715 121.296 141.125 121.296 141.648C121.296 142.192 121.499 142.624 121.904 142.944C122.31 143.253 122.88 143.408 123.616 143.408ZM130.817 132.128H131.617V144H130.817V132.128ZM138.54 144.064C137.73 144.064 137.004 143.883 136.364 143.52C135.724 143.157 135.223 142.656 134.86 142.016C134.498 141.365 134.316 140.635 134.316 139.824C134.316 139.003 134.498 138.272 134.86 137.632C135.223 136.981 135.724 136.48 136.364 136.128C137.004 135.765 137.73 135.584 138.54 135.584C139.212 135.584 139.82 135.717 140.364 135.984C140.919 136.24 141.367 136.619 141.708 137.12L141.116 137.552C140.818 137.136 140.444 136.827 139.996 136.624C139.559 136.411 139.074 136.304 138.54 136.304C137.89 136.304 137.303 136.453 136.78 136.752C136.268 137.04 135.863 137.451 135.564 137.984C135.276 138.517 135.132 139.131 135.132 139.824C135.132 140.517 135.276 141.131 135.564 141.664C135.863 142.197 136.268 142.613 136.78 142.912C137.303 143.2 137.89 143.344 138.54 143.344C139.074 143.344 139.559 143.243 139.996 143.04C140.444 142.827 140.818 142.512 141.116 142.096L141.708 142.528C141.367 143.029 140.919 143.413 140.364 143.68C139.82 143.936 139.212 144.064 138.54 144.064ZM151.655 135.648V144H150.887V142.208C150.61 142.795 150.199 143.253 149.655 143.584C149.111 143.904 148.471 144.064 147.735 144.064C146.647 144.064 145.794 143.76 145.175 143.152C144.557 142.544 144.247 141.669 144.247 140.528V135.648H145.047V140.464C145.047 141.403 145.287 142.117 145.767 142.608C146.247 143.099 146.925 143.344 147.799 143.344C148.738 143.344 149.479 143.051 150.023 142.464C150.578 141.877 150.855 141.088 150.855 140.096V135.648H151.655ZM155.287 132.128H156.087V144H155.287V132.128ZM162.514 135.584C163.549 135.584 164.344 135.851 164.898 136.384C165.453 136.907 165.73 137.68 165.73 138.704V144H164.962V142.512C164.696 143.003 164.306 143.387 163.794 143.664C163.282 143.931 162.669 144.064 161.954 144.064C161.026 144.064 160.29 143.845 159.746 143.408C159.213 142.971 158.946 142.395 158.946 141.68C158.946 140.987 159.192 140.427 159.682 140C160.184 139.563 160.978 139.344 162.066 139.344H164.93V138.672C164.93 137.893 164.717 137.301 164.29 136.896C163.874 136.491 163.261 136.288 162.45 136.288C161.896 136.288 161.362 136.384 160.85 136.576C160.349 136.768 159.922 137.024 159.57 137.344L159.17 136.768C159.586 136.395 160.088 136.107 160.674 135.904C161.261 135.691 161.874 135.584 162.514 135.584ZM162.066 143.408C162.76 143.408 163.346 143.248 163.826 142.928C164.317 142.608 164.685 142.144 164.93 141.536V139.968H162.082C161.261 139.968 160.664 140.117 160.29 140.416C159.928 140.715 159.746 141.125 159.746 141.648C159.746 142.192 159.949 142.624 160.354 142.944C160.76 143.253 161.33 143.408 162.066 143.408ZM173.411 143.472C173.208 143.664 172.952 143.813 172.643 143.92C172.344 144.016 172.029 144.064 171.699 144.064C170.973 144.064 170.413 143.867 170.019 143.472C169.624 143.067 169.427 142.507 169.427 141.792V136.336H167.891V135.648H169.427V133.824H170.227V135.648H172.883V136.336H170.227V141.712C170.227 142.256 170.355 142.672 170.611 142.96C170.877 143.237 171.267 143.376 171.779 143.376C172.301 143.376 172.733 143.221 173.075 142.912L173.411 143.472ZM175.882 135.648H176.682V144H175.882V135.648ZM176.282 133.616C176.1 133.616 175.946 133.557 175.818 133.44C175.69 133.312 175.626 133.157 175.626 132.976C175.626 132.795 175.69 132.64 175.818 132.512C175.946 132.384 176.1 132.32 176.282 132.32C176.463 132.32 176.618 132.384 176.746 132.512C176.874 132.629 176.938 132.779 176.938 132.96C176.938 133.141 176.874 133.296 176.746 133.424C176.618 133.552 176.463 133.616 176.282 133.616ZM184.374 135.584C185.419 135.584 186.246 135.888 186.854 136.496C187.462 137.104 187.766 137.979 187.766 139.12V144H186.966V139.184C186.966 138.245 186.726 137.531 186.246 137.04C185.776 136.549 185.115 136.304 184.262 136.304C183.28 136.304 182.507 136.597 181.942 137.184C181.376 137.771 181.094 138.56 181.094 139.552V144H180.294V135.648H181.062V137.456C181.35 136.869 181.776 136.411 182.342 136.08C182.918 135.749 183.595 135.584 184.374 135.584ZM198.835 135.648V143.104C198.835 144.491 198.499 145.515 197.827 146.176C197.155 146.837 196.141 147.168 194.787 147.168C194.019 147.168 193.293 147.051 192.611 146.816C191.928 146.581 191.379 146.256 190.963 145.84L191.395 145.232C191.811 145.616 192.312 145.915 192.899 146.128C193.485 146.341 194.109 146.448 194.771 146.448C195.88 146.448 196.701 146.181 197.235 145.648C197.768 145.125 198.035 144.309 198.035 143.2V141.792C197.693 142.4 197.219 142.869 196.611 143.2C196.003 143.531 195.32 143.696 194.563 143.696C193.784 143.696 193.075 143.525 192.435 143.184C191.805 142.832 191.309 142.347 190.947 141.728C190.584 141.109 190.403 140.411 190.403 139.632C190.403 138.853 190.584 138.155 190.947 137.536C191.309 136.917 191.805 136.437 192.435 136.096C193.075 135.755 193.784 135.584 194.563 135.584C195.331 135.584 196.024 135.755 196.643 136.096C197.261 136.437 197.736 136.917 198.067 137.536V135.648H198.835ZM194.627 142.976C195.277 142.976 195.864 142.837 196.387 142.56C196.909 142.272 197.315 141.877 197.603 141.376C197.901 140.864 198.051 140.283 198.051 139.632C198.051 138.981 197.901 138.405 197.603 137.904C197.315 137.403 196.909 137.013 196.387 136.736C195.864 136.448 195.277 136.304 194.627 136.304C193.976 136.304 193.389 136.448 192.867 136.736C192.355 137.013 191.949 137.403 191.651 137.904C191.363 138.405 191.219 138.981 191.219 139.632C191.219 140.283 191.363 140.864 191.651 141.376C191.949 141.877 192.355 142.272 192.867 142.56C193.389 142.837 193.976 142.976 194.627 142.976ZM217.21 135.584C218.245 135.584 219.056 135.888 219.642 136.496C220.24 137.104 220.538 137.979 220.538 139.12V144H219.738V139.184C219.738 138.245 219.509 137.531 219.05 137.04C218.592 136.549 217.952 136.304 217.13 136.304C216.192 136.304 215.445 136.597 214.89 137.184C214.346 137.771 214.074 138.56 214.074 139.552V144H213.274V139.184C213.274 138.245 213.045 137.531 212.586 137.04C212.128 136.549 211.488 136.304 210.666 136.304C209.728 136.304 208.981 136.597 208.426 137.184C207.882 137.771 207.61 138.56 207.61 139.552V144H206.81V135.648H207.578V137.44C207.856 136.853 208.266 136.4 208.81 136.08C209.365 135.749 210.021 135.584 210.778 135.584C211.536 135.584 212.176 135.755 212.698 136.096C213.232 136.437 213.61 136.939 213.834 137.6C214.112 136.981 214.544 136.491 215.13 136.128C215.728 135.765 216.421 135.584 217.21 135.584ZM230.629 135.648L226.341 145.136C226.021 145.872 225.648 146.395 225.221 146.704C224.805 147.013 224.309 147.168 223.733 147.168C223.349 147.168 222.987 147.104 222.645 146.976C222.315 146.848 222.032 146.661 221.797 146.416L222.197 145.808C222.624 146.245 223.141 146.464 223.749 146.464C224.155 146.464 224.501 146.352 224.789 146.128C225.077 145.904 225.344 145.52 225.589 144.976L226.037 143.968L222.277 135.648H223.125L226.469 143.12L229.813 135.648H230.629ZM241.16 135.584C241.939 135.584 242.643 135.765 243.272 136.128C243.901 136.48 244.392 136.981 244.744 137.632C245.107 138.272 245.288 139.003 245.288 139.824C245.288 140.645 245.107 141.376 244.744 142.016C244.392 142.656 243.901 143.157 243.272 143.52C242.643 143.883 241.939 144.064 241.16 144.064C240.413 144.064 239.736 143.888 239.128 143.536C238.531 143.173 238.067 142.672 237.736 142.032V144H236.968V132.128H237.768V137.552C238.099 136.933 238.563 136.453 239.16 136.112C239.757 135.76 240.424 135.584 241.16 135.584ZM241.112 143.344C241.752 143.344 242.328 143.195 242.84 142.896C243.352 142.597 243.752 142.181 244.04 141.648C244.339 141.115 244.488 140.507 244.488 139.824C244.488 139.141 244.339 138.533 244.04 138C243.752 137.467 243.352 137.051 242.84 136.752C242.328 136.453 241.752 136.304 241.112 136.304C240.472 136.304 239.896 136.453 239.384 136.752C238.883 137.051 238.483 137.467 238.184 138C237.896 138.533 237.752 139.141 237.752 139.824C237.752 140.507 237.896 141.115 238.184 141.648C238.483 142.181 238.883 142.597 239.384 142.896C239.896 143.195 240.472 143.344 241.112 143.344ZM255.317 135.648V144H254.549V142.208C254.271 142.795 253.861 143.253 253.317 143.584C252.773 143.904 252.133 144.064 251.397 144.064C250.309 144.064 249.455 143.76 248.837 143.152C248.218 142.544 247.909 141.669 247.909 140.528V135.648H248.709V140.464C248.709 141.403 248.949 142.117 249.429 142.608C249.909 143.099 250.586 143.344 251.461 143.344C252.399 143.344 253.141 143.051 253.685 142.464C254.239 141.877 254.517 141.088 254.517 140.096V135.648H255.317ZM266.372 132.128V144H265.588V142.032C265.257 142.683 264.793 143.184 264.196 143.536C263.599 143.888 262.921 144.064 262.164 144.064C261.385 144.064 260.681 143.883 260.052 143.52C259.423 143.157 258.927 142.656 258.564 142.016C258.212 141.376 258.036 140.645 258.036 139.824C258.036 139.003 258.212 138.272 258.564 137.632C258.927 136.981 259.423 136.48 260.052 136.128C260.681 135.765 261.385 135.584 262.164 135.584C262.911 135.584 263.577 135.76 264.164 136.112C264.761 136.464 265.231 136.955 265.572 137.584V132.128H266.372ZM262.212 143.344C262.852 143.344 263.423 143.195 263.924 142.896C264.436 142.597 264.836 142.181 265.124 141.648C265.423 141.115 265.572 140.507 265.572 139.824C265.572 139.141 265.423 138.533 265.124 138C264.836 137.467 264.436 137.051 263.924 136.752C263.423 136.453 262.852 136.304 262.212 136.304C261.572 136.304 260.996 136.453 260.484 136.752C259.983 137.051 259.583 137.467 259.284 138C258.996 138.533 258.852 139.141 258.852 139.824C258.852 140.507 258.996 141.115 259.284 141.648C259.583 142.181 259.983 142.597 260.484 142.896C260.996 143.195 261.572 143.344 262.212 143.344ZM277.505 135.648V143.104C277.505 144.491 277.169 145.515 276.497 146.176C275.825 146.837 274.811 147.168 273.457 147.168C272.689 147.168 271.963 147.051 271.281 146.816C270.598 146.581 270.049 146.256 269.633 145.84L270.065 145.232C270.481 145.616 270.982 145.915 271.569 146.128C272.155 146.341 272.779 146.448 273.441 146.448C274.55 146.448 275.371 146.181 275.905 145.648C276.438 145.125 276.705 144.309 276.705 143.2V141.792C276.363 142.4 275.889 142.869 275.281 143.2C274.673 143.531 273.99 143.696 273.233 143.696C272.454 143.696 271.745 143.525 271.105 143.184C270.475 142.832 269.979 142.347 269.617 141.728C269.254 141.109 269.073 140.411 269.073 139.632C269.073 138.853 269.254 138.155 269.617 137.536C269.979 136.917 270.475 136.437 271.105 136.096C271.745 135.755 272.454 135.584 273.233 135.584C274.001 135.584 274.694 135.755 275.313 136.096C275.931 136.437 276.406 136.917 276.737 137.536V135.648H277.505ZM273.297 142.976C273.947 142.976 274.534 142.837 275.057 142.56C275.579 142.272 275.985 141.877 276.273 141.376C276.571 140.864 276.721 140.283 276.721 139.632C276.721 138.981 276.571 138.405 276.273 137.904C275.985 137.403 275.579 137.013 275.057 136.736C274.534 136.448 273.947 136.304 273.297 136.304C272.646 136.304 272.059 136.448 271.537 136.736C271.025 137.013 270.619 137.403 270.321 137.904C270.033 138.405 269.889 138.981 269.889 139.632C269.889 140.283 270.033 140.864 270.321 141.376C270.619 141.877 271.025 142.272 271.537 142.56C272.059 142.837 272.646 142.976 273.297 142.976ZM288.187 140.016H281.003C281.024 140.667 281.19 141.248 281.499 141.76C281.808 142.261 282.224 142.651 282.747 142.928C283.28 143.205 283.878 143.344 284.539 143.344C285.083 143.344 285.584 143.248 286.043 143.056C286.512 142.853 286.902 142.56 287.211 142.176L287.675 142.704C287.312 143.141 286.854 143.477 286.299 143.712C285.755 143.947 285.163 144.064 284.523 144.064C283.691 144.064 282.95 143.883 282.299 143.52C281.648 143.157 281.136 142.656 280.763 142.016C280.4 141.376 280.219 140.645 280.219 139.824C280.219 139.013 280.39 138.288 280.731 137.648C281.083 136.997 281.563 136.491 282.171 136.128C282.779 135.765 283.462 135.584 284.219 135.584C284.976 135.584 285.654 135.765 286.251 136.128C286.859 136.48 287.334 136.976 287.675 137.616C288.027 138.256 288.203 138.981 288.203 139.792L288.187 140.016ZM284.219 136.288C283.632 136.288 283.104 136.421 282.635 136.688C282.166 136.944 281.787 137.312 281.499 137.792C281.222 138.261 281.062 138.795 281.019 139.392H287.419C287.387 138.795 287.227 138.261 286.939 137.792C286.651 137.323 286.272 136.955 285.803 136.688C285.334 136.421 284.806 136.288 284.219 136.288ZM295.062 143.472C294.859 143.664 294.603 143.813 294.294 143.92C293.995 144.016 293.681 144.064 293.35 144.064C292.625 144.064 292.065 143.867 291.67 143.472C291.275 143.067 291.078 142.507 291.078 141.792V136.336H289.542V135.648H291.078V133.824H291.878V135.648H294.534V136.336H291.878V141.712C291.878 142.256 292.006 142.672 292.262 142.96C292.529 143.237 292.918 143.376 293.43 143.376C293.953 143.376 294.385 143.221 294.726 142.912L295.062 143.472Z" fill="white"/>
<rect x="43.5" y="107.5" width="321" height="62" rx="19.5" stroke="#A9A9A9"/>
<path d="M9.855 125.215C10.785 125.665 11.505 126.325 12.015 127.195C12.525 128.035 12.78 129.04 12.78 130.21C12.78 131.95 12.225 133.345 11.115 134.395C10.005 135.445 8.58 135.97 6.84 135.97C5.1 135.97 3.675 135.445 2.565 134.395C1.455 133.345 0.9 131.95 0.9 130.21C0.9 129.43 1.005 128.65 1.215 127.87C1.425 127.09 1.905 125.905 2.655 124.315L5.805 117.61H12.105L9.855 125.215ZM25.9987 125.215C26.9287 125.665 27.6487 126.325 28.1588 127.195C28.6687 128.035 28.9237 129.04 28.9237 130.21C28.9237 131.95 28.3687 133.345 27.2587 134.395C26.1487 135.445 24.7237 135.97 22.9837 135.97C21.2437 135.97 19.8187 135.445 18.7087 134.395C17.5987 133.345 17.0437 131.95 17.0437 130.21C17.0437 129.43 17.1487 128.65 17.3587 127.87C17.5687 127.09 18.0487 125.905 18.7987 124.315L21.9487 117.61H28.2488L25.9987 125.215Z" fill="#696969"/>
<path d="M396.145 128.785C395.215 128.335 394.495 127.675 393.985 126.805C393.475 125.965 393.22 124.96 393.22 123.79C393.22 122.05 393.775 120.655 394.885 119.605C395.995 118.555 397.42 118.03 399.16 118.03C400.9 118.03 402.325 118.555 403.435 119.605C404.545 120.655 405.1 122.05 405.1 123.79C405.1 124.57 404.995 125.35 404.785 126.13C404.575 126.91 404.095 128.095 403.345 129.685L400.195 136.39L393.895 136.39L396.145 128.785ZM380.001 128.785C379.071 128.335 378.351 127.675 377.841 126.805C377.331 125.965 377.076 124.96 377.076 123.79C377.076 122.05 377.631 120.655 378.741 119.605C379.851 118.555 381.276 118.03 383.016 118.03C384.756 118.03 386.181 118.555 387.291 119.605C388.401 120.655 388.956 122.05 388.956 123.79C388.956 124.57 388.851 125.35 388.641 126.13C388.431 126.91 387.951 128.095 387.201 129.685L384.051 136.39L377.751 136.39L380.001 128.785Z" fill="#696969"/>
<path d="M117.704 232.08C116.605 232.08 115.613 231.835 114.728 231.344C113.843 230.843 113.144 230.16 112.632 229.296C112.131 228.432 111.88 227.467 111.88 226.4C111.88 225.333 112.131 224.368 112.632 223.504C113.144 222.64 113.843 221.963 114.728 221.472C115.613 220.971 116.605 220.72 117.704 220.72C118.803 220.72 119.795 220.965 120.68 221.456C121.565 221.947 122.259 222.624 122.76 223.488C123.272 224.352 123.528 225.323 123.528 226.4C123.528 227.477 123.272 228.448 122.76 229.312C122.259 230.176 121.565 230.853 120.68 231.344C119.795 231.835 118.803 232.08 117.704 232.08ZM117.704 231.328C118.643 231.328 119.491 231.115 120.248 230.688C121.005 230.261 121.603 229.675 122.04 228.928C122.477 228.171 122.696 227.328 122.696 226.4C122.696 225.472 122.477 224.635 122.04 223.888C121.603 223.131 121.005 222.539 120.248 222.112C119.491 221.685 118.643 221.472 117.704 221.472C116.765 221.472 115.912 221.685 115.144 222.112C114.387 222.539 113.789 223.131 113.352 223.888C112.915 224.635 112.696 225.472 112.696 226.4C112.696 227.328 112.915 228.171 113.352 228.928C113.789 229.675 114.387 230.261 115.144 230.688C115.912 231.115 116.765 231.328 117.704 231.328ZM127.11 225.472C127.366 224.864 127.766 224.4 128.31 224.08C128.854 223.749 129.516 223.584 130.294 223.584V224.368L130.102 224.352C129.174 224.352 128.449 224.645 127.926 225.232C127.404 225.808 127.142 226.613 127.142 227.648V232H126.342V223.648H127.11V225.472ZM140.18 223.648V231.104C140.18 232.491 139.844 233.515 139.172 234.176C138.5 234.837 137.487 235.168 136.132 235.168C135.364 235.168 134.639 235.051 133.956 234.816C133.274 234.581 132.724 234.256 132.308 233.84L132.74 233.232C133.156 233.616 133.658 233.915 134.244 234.128C134.831 234.341 135.455 234.448 136.116 234.448C137.226 234.448 138.047 234.181 138.58 233.648C139.114 233.125 139.38 232.309 139.38 231.2V229.792C139.039 230.4 138.564 230.869 137.956 231.2C137.348 231.531 136.666 231.696 135.908 231.696C135.13 231.696 134.42 231.525 133.78 231.184C133.151 230.832 132.655 230.347 132.292 229.728C131.93 229.109 131.748 228.411 131.748 227.632C131.748 226.853 131.93 226.155 132.292 225.536C132.655 224.917 133.151 224.437 133.78 224.096C134.42 223.755 135.13 223.584 135.908 223.584C136.676 223.584 137.37 223.755 137.988 224.096C138.607 224.437 139.082 224.917 139.412 225.536V223.648H140.18ZM135.972 230.976C136.623 230.976 137.21 230.837 137.732 230.56C138.255 230.272 138.66 229.877 138.948 229.376C139.247 228.864 139.396 228.283 139.396 227.632C139.396 226.981 139.247 226.405 138.948 225.904C138.66 225.403 138.255 225.013 137.732 224.736C137.21 224.448 136.623 224.304 135.972 224.304C135.322 224.304 134.735 224.448 134.212 224.736C133.7 225.013 133.295 225.403 132.996 225.904C132.708 226.405 132.564 226.981 132.564 227.632C132.564 228.283 132.708 228.864 132.996 229.376C133.295 229.877 133.7 230.272 134.212 230.56C134.735 230.837 135.322 230.976 135.972 230.976ZM146.623 223.584C147.657 223.584 148.452 223.851 149.007 224.384C149.561 224.907 149.839 225.68 149.839 226.704V232H149.071V230.512C148.804 231.003 148.415 231.387 147.903 231.664C147.391 231.931 146.777 232.064 146.063 232.064C145.135 232.064 144.399 231.845 143.855 231.408C143.321 230.971 143.055 230.395 143.055 229.68C143.055 228.987 143.3 228.427 143.791 228C144.292 227.563 145.087 227.344 146.175 227.344H149.039V226.672C149.039 225.893 148.825 225.301 148.399 224.896C147.983 224.491 147.369 224.288 146.559 224.288C146.004 224.288 145.471 224.384 144.959 224.576C144.457 224.768 144.031 225.024 143.679 225.344L143.279 224.768C143.695 224.395 144.196 224.107 144.783 223.904C145.369 223.691 145.983 223.584 146.623 223.584ZM146.175 231.408C146.868 231.408 147.455 231.248 147.935 230.928C148.425 230.608 148.793 230.144 149.039 229.536V227.968H146.191C145.369 227.968 144.772 228.117 144.399 228.416C144.036 228.715 143.855 229.125 143.855 229.648C143.855 230.192 144.057 230.624 144.463 230.944C144.868 231.253 145.439 231.408 146.175 231.408ZM157.455 223.584C158.5 223.584 159.327 223.888 159.935 224.496C160.543 225.104 160.847 225.979 160.847 227.12V232H160.047V227.184C160.047 226.245 159.807 225.531 159.327 225.04C158.857 224.549 158.196 224.304 157.343 224.304C156.361 224.304 155.588 224.597 155.023 225.184C154.457 225.771 154.175 226.56 154.175 227.552V232H153.375V223.648H154.143V225.456C154.431 224.869 154.857 224.411 155.423 224.08C155.999 223.749 156.676 223.584 157.455 223.584ZM164.38 223.648H165.18V232H164.38V223.648ZM164.78 221.616C164.599 221.616 164.444 221.557 164.316 221.44C164.188 221.312 164.124 221.157 164.124 220.976C164.124 220.795 164.188 220.64 164.316 220.512C164.444 220.384 164.599 220.32 164.78 220.32C164.962 220.32 165.116 220.384 165.244 220.512C165.372 220.629 165.436 220.779 165.436 220.96C165.436 221.141 165.372 221.296 165.244 221.424C165.116 221.552 164.962 221.616 164.78 221.616ZM174.44 231.312V232H167.8V231.456L173.304 224.336H167.88V223.648H174.344V224.192L168.824 231.312H174.44ZM177.079 223.648H177.879V232H177.079V223.648ZM177.479 221.616C177.298 221.616 177.143 221.557 177.015 221.44C176.887 221.312 176.823 221.157 176.823 220.976C176.823 220.795 176.887 220.64 177.015 220.512C177.143 220.384 177.298 220.32 177.479 220.32C177.66 220.32 177.815 220.384 177.943 220.512C178.071 220.629 178.135 220.779 178.135 220.96C178.135 221.141 178.071 221.296 177.943 221.424C177.815 221.552 177.66 221.616 177.479 221.616ZM185.571 223.584C186.616 223.584 187.443 223.888 188.051 224.496C188.659 225.104 188.963 225.979 188.963 227.12V232H188.163V227.184C188.163 226.245 187.923 225.531 187.443 225.04C186.974 224.549 186.312 224.304 185.459 224.304C184.478 224.304 183.704 224.597 183.139 225.184C182.574 225.771 182.291 226.56 182.291 227.552V232H181.491V223.648H182.259V225.456C182.547 224.869 182.974 224.411 183.539 224.08C184.115 223.749 184.792 223.584 185.571 223.584ZM200.032 223.648V231.104C200.032 232.491 199.696 233.515 199.024 234.176C198.352 234.837 197.339 235.168 195.984 235.168C195.216 235.168 194.491 235.051 193.808 234.816C193.126 234.581 192.576 234.256 192.16 233.84L192.592 233.232C193.008 233.616 193.51 233.915 194.096 234.128C194.683 234.341 195.307 234.448 195.968 234.448C197.078 234.448 197.899 234.181 198.432 233.648C198.966 233.125 199.232 232.309 199.232 231.2V229.792C198.891 230.4 198.416 230.869 197.808 231.2C197.2 231.531 196.518 231.696 195.76 231.696C194.982 231.696 194.272 231.525 193.632 231.184C193.003 230.832 192.507 230.347 192.144 229.728C191.782 229.109 191.6 228.411 191.6 227.632C191.6 226.853 191.782 226.155 192.144 225.536C192.507 224.917 193.003 224.437 193.632 224.096C194.272 223.755 194.982 223.584 195.76 223.584C196.528 223.584 197.222 223.755 197.84 224.096C198.459 224.437 198.934 224.917 199.264 225.536V223.648H200.032ZM195.824 230.976C196.475 230.976 197.062 230.837 197.584 230.56C198.107 230.272 198.512 229.877 198.8 229.376C199.099 228.864 199.248 228.283 199.248 227.632C199.248 226.981 199.099 226.405 198.8 225.904C198.512 225.403 198.107 225.013 197.584 224.736C197.062 224.448 196.475 224.304 195.824 224.304C195.174 224.304 194.587 224.448 194.064 224.736C193.552 225.013 193.147 225.403 192.848 225.904C192.56 226.405 192.416 226.981 192.416 227.632C192.416 228.283 192.56 228.864 192.848 229.376C193.147 229.877 193.552 230.272 194.064 230.56C194.587 230.837 195.174 230.976 195.824 230.976ZM218.408 223.584C219.443 223.584 220.253 223.888 220.84 224.496C221.437 225.104 221.736 225.979 221.736 227.12V232H220.936V227.184C220.936 226.245 220.707 225.531 220.248 225.04C219.789 224.549 219.149 224.304 218.328 224.304C217.389 224.304 216.643 224.597 216.088 225.184C215.544 225.771 215.272 226.56 215.272 227.552V232H214.472V227.184C214.472 226.245 214.243 225.531 213.784 225.04C213.325 224.549 212.685 224.304 211.864 224.304C210.925 224.304 210.179 224.597 209.624 225.184C209.08 225.771 208.808 226.56 208.808 227.552V232H208.008V223.648H208.776V225.44C209.053 224.853 209.464 224.4 210.008 224.08C210.563 223.749 211.219 223.584 211.976 223.584C212.733 223.584 213.373 223.755 213.896 224.096C214.429 224.437 214.808 224.939 215.032 225.6C215.309 224.981 215.741 224.491 216.328 224.128C216.925 223.765 217.619 223.584 218.408 223.584ZM231.827 223.648L227.539 233.136C227.219 233.872 226.846 234.395 226.419 234.704C226.003 235.013 225.507 235.168 224.931 235.168C224.547 235.168 224.184 235.104 223.843 234.976C223.512 234.848 223.23 234.661 222.995 234.416L223.395 233.808C223.822 234.245 224.339 234.464 224.947 234.464C225.352 234.464 225.699 234.352 225.987 234.128C226.275 233.904 226.542 233.52 226.787 232.976L227.235 231.968L223.475 223.648H224.323L227.667 231.12L231.011 223.648H231.827ZM240.677 220.752C239.632 220.752 239.109 221.312 239.109 222.432V223.648H241.781V224.336H239.125V232H238.325V224.336H236.789V223.648H238.325V222.368C238.325 221.664 238.528 221.104 238.933 220.688C239.339 220.272 239.909 220.064 240.645 220.064C240.965 220.064 241.269 220.112 241.557 220.208C241.856 220.293 242.101 220.427 242.293 220.608L241.973 221.216C241.632 220.907 241.2 220.752 240.677 220.752ZM245.705 225.472C245.961 224.864 246.361 224.4 246.905 224.08C247.449 223.749 248.11 223.584 248.889 223.584V224.368L248.697 224.352C247.769 224.352 247.043 224.645 246.521 225.232C245.998 225.808 245.737 226.613 245.737 227.648V232H244.937V223.648H245.705V225.472ZM251.333 223.648H252.133V232H251.333V223.648ZM251.733 221.616C251.552 221.616 251.397 221.557 251.269 221.44C251.141 221.312 251.077 221.157 251.077 220.976C251.077 220.795 251.141 220.64 251.269 220.512C251.397 220.384 251.552 220.32 251.733 220.32C251.914 220.32 252.069 220.384 252.197 220.512C252.325 220.629 252.389 220.779 252.389 220.96C252.389 221.141 252.325 221.296 252.197 221.424C252.069 221.552 251.914 221.616 251.733 221.616ZM262.801 228.016H255.617C255.638 228.667 255.803 229.248 256.113 229.76C256.422 230.261 256.838 230.651 257.361 230.928C257.894 231.205 258.491 231.344 259.153 231.344C259.697 231.344 260.198 231.248 260.657 231.056C261.126 230.853 261.515 230.56 261.825 230.176L262.289 230.704C261.926 231.141 261.467 231.477 260.913 231.712C260.369 231.947 259.777 232.064 259.137 232.064C258.305 232.064 257.563 231.883 256.913 231.52C256.262 231.157 255.75 230.656 255.377 230.016C255.014 229.376 254.833 228.645 254.833 227.824C254.833 227.013 255.003 226.288 255.345 225.648C255.697 224.997 256.177 224.491 256.785 224.128C257.393 223.765 258.075 223.584 258.833 223.584C259.59 223.584 260.267 223.765 260.865 224.128C261.473 224.48 261.947 224.976 262.289 225.616C262.641 226.256 262.817 226.981 262.817 227.792L262.801 228.016ZM258.833 224.288C258.246 224.288 257.718 224.421 257.249 224.688C256.779 224.944 256.401 225.312 256.113 225.792C255.835 226.261 255.675 226.795 255.633 227.392H262.033C262.001 226.795 261.841 226.261 261.553 225.792C261.265 225.323 260.886 224.955 260.417 224.688C259.947 224.421 259.419 224.288 258.833 224.288ZM269.612 223.584C270.657 223.584 271.484 223.888 272.092 224.496C272.7 225.104 273.004 225.979 273.004 227.12V232H272.204V227.184C272.204 226.245 271.964 225.531 271.484 225.04C271.014 224.549 270.353 224.304 269.5 224.304C268.518 224.304 267.745 224.597 267.18 225.184C266.614 225.771 266.332 226.56 266.332 227.552V232H265.532V223.648H266.3V225.456C266.588 224.869 267.014 224.411 267.58 224.08C268.156 223.749 268.833 223.584 269.612 223.584ZM283.977 220.128V232H283.193V230.032C282.862 230.683 282.398 231.184 281.801 231.536C281.204 231.888 280.526 232.064 279.769 232.064C278.99 232.064 278.286 231.883 277.657 231.52C277.028 231.157 276.532 230.656 276.169 230.016C275.817 229.376 275.641 228.645 275.641 227.824C275.641 227.003 275.817 226.272 276.169 225.632C276.532 224.981 277.028 224.48 277.657 224.128C278.286 223.765 278.99 223.584 279.769 223.584C280.516 223.584 281.182 223.76 281.769 224.112C282.366 224.464 282.836 224.955 283.177 225.584V220.128H283.977ZM279.817 231.344C280.457 231.344 281.028 231.195 281.529 230.896C282.041 230.597 282.441 230.181 282.729 229.648C283.028 229.115 283.177 228.507 283.177 227.824C283.177 227.141 283.028 226.533 282.729 226C282.441 225.467 282.041 225.051 281.529 224.752C281.028 224.453 280.457 224.304 279.817 224.304C279.177 224.304 278.601 224.453 278.089 224.752C277.588 225.051 277.188 225.467 276.889 226C276.601 226.533 276.457 227.141 276.457 227.824C276.457 228.507 276.601 229.115 276.889 229.648C277.188 230.181 277.588 230.597 278.089 230.896C278.601 231.195 279.177 231.344 279.817 231.344ZM289.702 232.064C289.03 232.064 288.39 231.963 287.782 231.76C287.174 231.557 286.699 231.301 286.358 230.992L286.726 230.352C287.067 230.64 287.504 230.88 288.038 231.072C288.582 231.264 289.147 231.36 289.734 231.36C290.576 231.36 291.195 231.221 291.59 230.944C291.995 230.667 292.198 230.283 292.198 229.792C292.198 229.44 292.086 229.163 291.862 228.96C291.648 228.757 291.382 228.608 291.062 228.512C290.742 228.416 290.299 228.315 289.734 228.208C289.072 228.091 288.539 227.963 288.134 227.824C287.728 227.685 287.382 227.461 287.094 227.152C286.806 226.843 286.662 226.416 286.662 225.872C286.662 225.211 286.934 224.667 287.478 224.24C288.032 223.803 288.816 223.584 289.83 223.584C290.363 223.584 290.891 223.659 291.414 223.808C291.936 223.957 292.363 224.155 292.694 224.4L292.326 225.04C291.984 224.795 291.595 224.608 291.158 224.48C290.72 224.352 290.272 224.288 289.814 224.288C289.035 224.288 288.448 224.432 288.054 224.72C287.659 225.008 287.462 225.387 287.462 225.856C287.462 226.229 287.574 226.523 287.798 226.736C288.022 226.939 288.294 227.093 288.614 227.2C288.944 227.296 289.403 227.403 289.99 227.52C290.64 227.637 291.163 227.765 291.558 227.904C291.963 228.032 292.304 228.245 292.582 228.544C292.859 228.843 292.998 229.253 292.998 229.776C292.998 230.469 292.71 231.024 292.134 231.44C291.558 231.856 290.747 232.064 289.702 232.064Z" fill="white"/>
<rect x="43.5" y="195.5" width="321" height="62" rx="19.5" stroke="#A9A9A9"/>
<path d="M9.855 213.215C10.785 213.665 11.505 214.325 12.015 215.195C12.525 216.035 12.78 217.04 12.78 218.21C12.78 219.95 12.225 221.345 11.115 222.395C10.005 223.445 8.58 223.97 6.84 223.97C5.1 223.97 3.675 223.445 2.565 222.395C1.455 221.345 0.9 219.95 0.9 218.21C0.9 217.43 1.005 216.65 1.215 215.87C1.425 215.09 1.905 213.905 2.655 212.315L5.805 205.61H12.105L9.855 213.215ZM25.9987 213.215C26.9287 213.665 27.6487 214.325 28.1588 215.195C28.6687 216.035 28.9237 217.04 28.9237 218.21C28.9237 219.95 28.3687 221.345 27.2587 222.395C26.1487 223.445 24.7237 223.97 22.9837 223.97C21.2437 223.97 19.8187 223.445 18.7087 222.395C17.5987 221.345 17.0437 219.95 17.0437 218.21C17.0437 217.43 17.1487 216.65 17.3587 215.87C17.5687 215.09 18.0487 213.905 18.7987 212.315L21.9487 205.61H28.2488L25.9987 213.215Z" fill="#696969"/>
<path d="M396.145 216.785C395.215 216.335 394.495 215.675 393.985 214.805C393.475 213.965 393.22 212.96 393.22 211.79C393.22 210.05 393.775 208.655 394.885 207.605C395.995 206.555 397.42 206.03 399.16 206.03C400.9 206.03 402.325 206.555 403.435 207.605C404.545 208.655 405.1 210.05 405.1 211.79C405.1 212.57 404.995 213.35 404.785 214.13C404.575 214.91 404.095 216.095 403.345 217.685L400.195 224.39L393.895 224.39L396.145 216.785ZM380.001 216.785C379.071 216.335 378.351 215.675 377.841 214.805C377.331 213.965 377.076 212.96 377.076 211.79C377.076 210.05 377.631 208.655 378.741 207.605C379.851 206.555 381.276 206.03 383.016 206.03C384.756 206.03 386.181 206.555 387.291 207.605C388.401 208.655 388.956 210.05 388.956 211.79C388.956 212.57 388.851 213.35 388.641 214.13C388.431 214.91 387.951 216.095 387.201 217.685L384.051 224.39L377.751 224.39L380.001 216.785Z" fill="#696969"/>
<path d="M134.268 309.536V314.32H140.236V315.056H134.268V320H133.452V308.8H140.94V309.536H134.268ZM143.373 311.648H144.173V320H143.373V311.648ZM143.773 309.616C143.592 309.616 143.437 309.557 143.309 309.44C143.181 309.312 143.117 309.157 143.117 308.976C143.117 308.795 143.181 308.64 143.309 308.512C143.437 308.384 143.592 308.32 143.773 308.32C143.955 308.32 144.109 308.384 144.237 308.512C144.365 308.629 144.429 308.779 144.429 308.96C144.429 309.141 144.365 309.296 144.237 309.424C144.109 309.552 143.955 309.616 143.773 309.616ZM151.865 311.584C152.911 311.584 153.737 311.888 154.345 312.496C154.953 313.104 155.257 313.979 155.257 315.12V320H154.457V315.184C154.457 314.245 154.217 313.531 153.737 313.04C153.268 312.549 152.607 312.304 151.753 312.304C150.772 312.304 149.999 312.597 149.433 313.184C148.868 313.771 148.585 314.56 148.585 315.552V320H147.785V311.648H148.553V313.456C148.841 312.869 149.268 312.411 149.833 312.08C150.409 311.749 151.087 311.584 151.865 311.584ZM166.231 308.128V320H165.447V318.032C165.116 318.683 164.652 319.184 164.055 319.536C163.457 319.888 162.78 320.064 162.023 320.064C161.244 320.064 160.54 319.883 159.911 319.52C159.281 319.157 158.785 318.656 158.423 318.016C158.071 317.376 157.895 316.645 157.895 315.824C157.895 315.003 158.071 314.272 158.423 313.632C158.785 312.981 159.281 312.48 159.911 312.128C160.54 311.765 161.244 311.584 162.023 311.584C162.769 311.584 163.436 311.76 164.023 312.112C164.62 312.464 165.089 312.955 165.431 313.584V308.128H166.231ZM162.071 319.344C162.711 319.344 163.281 319.195 163.783 318.896C164.295 318.597 164.695 318.181 164.983 317.648C165.281 317.115 165.431 316.507 165.431 315.824C165.431 315.141 165.281 314.533 164.983 314C164.695 313.467 164.295 313.051 163.783 312.752C163.281 312.453 162.711 312.304 162.071 312.304C161.431 312.304 160.855 312.453 160.343 312.752C159.841 313.051 159.441 313.467 159.143 314C158.855 314.533 158.711 315.141 158.711 315.824C158.711 316.507 158.855 317.115 159.143 317.648C159.441 318.181 159.841 318.597 160.343 318.896C160.855 319.195 161.431 319.344 162.071 319.344ZM169.843 311.648H170.643V320H169.843V311.648ZM170.243 309.616C170.062 309.616 169.907 309.557 169.779 309.44C169.651 309.312 169.587 309.157 169.587 308.976C169.587 308.795 169.651 308.64 169.779 308.512C169.907 308.384 170.062 308.32 170.243 308.32C170.425 308.32 170.579 308.384 170.707 308.512C170.835 308.629 170.899 308.779 170.899 308.96C170.899 309.141 170.835 309.296 170.707 309.424C170.579 309.552 170.425 309.616 170.243 309.616ZM178.335 311.584C179.381 311.584 180.207 311.888 180.815 312.496C181.423 313.104 181.727 313.979 181.727 315.12V320H180.927V315.184C180.927 314.245 180.687 313.531 180.207 313.04C179.738 312.549 179.077 312.304 178.223 312.304C177.242 312.304 176.469 312.597 175.903 313.184C175.338 313.771 175.055 314.56 175.055 315.552V320H174.255V311.648H175.023V313.456C175.311 312.869 175.738 312.411 176.303 312.08C176.879 311.749 177.557 311.584 178.335 311.584ZM192.797 311.648V319.104C192.797 320.491 192.461 321.515 191.789 322.176C191.117 322.837 190.103 323.168 188.749 323.168C187.981 323.168 187.255 323.051 186.573 322.816C185.89 322.581 185.341 322.256 184.925 321.84L185.357 321.232C185.773 321.616 186.274 321.915 186.861 322.128C187.447 322.341 188.071 322.448 188.733 322.448C189.842 322.448 190.663 322.181 191.197 321.648C191.73 321.125 191.997 320.309 191.997 319.2V317.792C191.655 318.4 191.181 318.869 190.573 319.2C189.965 319.531 189.282 319.696 188.525 319.696C187.746 319.696 187.037 319.525 186.397 319.184C185.767 318.832 185.271 318.347 184.909 317.728C184.546 317.109 184.365 316.411 184.365 315.632C184.365 314.853 184.546 314.155 184.909 313.536C185.271 312.917 185.767 312.437 186.397 312.096C187.037 311.755 187.746 311.584 188.525 311.584C189.293 311.584 189.986 311.755 190.605 312.096C191.223 312.437 191.698 312.917 192.029 313.536V311.648H192.797ZM188.589 318.976C189.239 318.976 189.826 318.837 190.349 318.56C190.871 318.272 191.277 317.877 191.565 317.376C191.863 316.864 192.013 316.283 192.013 315.632C192.013 314.981 191.863 314.405 191.565 313.904C191.277 313.403 190.871 313.013 190.349 312.736C189.826 312.448 189.239 312.304 188.589 312.304C187.938 312.304 187.351 312.448 186.829 312.736C186.317 313.013 185.911 313.403 185.613 313.904C185.325 314.405 185.181 314.981 185.181 315.632C185.181 316.283 185.325 316.864 185.613 317.376C185.911 317.877 186.317 318.272 186.829 318.56C187.351 318.837 187.938 318.976 188.589 318.976ZM203.588 311.584C204.623 311.584 205.418 311.851 205.972 312.384C206.527 312.907 206.804 313.68 206.804 314.704V320H206.036V318.512C205.77 319.003 205.38 319.387 204.868 319.664C204.356 319.931 203.743 320.064 203.028 320.064C202.1 320.064 201.364 319.845 200.82 319.408C200.287 318.971 200.02 318.395 200.02 317.68C200.02 316.987 200.266 316.427 200.756 316C201.258 315.563 202.052 315.344 203.14 315.344H206.004V314.672C206.004 313.893 205.791 313.301 205.364 312.896C204.948 312.491 204.335 312.288 203.524 312.288C202.97 312.288 202.436 312.384 201.924 312.576C201.423 312.768 200.996 313.024 200.644 313.344L200.244 312.768C200.66 312.395 201.162 312.107 201.748 311.904C202.335 311.691 202.948 311.584 203.588 311.584ZM203.14 319.408C203.834 319.408 204.42 319.248 204.9 318.928C205.391 318.608 205.759 318.144 206.004 317.536V315.968H203.156C202.335 315.968 201.738 316.117 201.364 316.416C201.002 316.715 200.82 317.125 200.82 317.648C200.82 318.192 201.023 318.624 201.428 318.944C201.834 319.253 202.404 319.408 203.14 319.408ZM213.668 320.064C212.857 320.064 212.132 319.883 211.492 319.52C210.852 319.157 210.351 318.656 209.988 318.016C209.625 317.365 209.444 316.635 209.444 315.824C209.444 315.003 209.625 314.272 209.988 313.632C210.351 312.981 210.852 312.48 211.492 312.128C212.132 311.765 212.857 311.584 213.668 311.584C214.34 311.584 214.948 311.717 215.492 311.984C216.047 312.24 216.495 312.619 216.836 313.12L216.244 313.552C215.945 313.136 215.572 312.827 215.124 312.624C214.687 312.411 214.201 312.304 213.668 312.304C213.017 312.304 212.431 312.453 211.908 312.752C211.396 313.04 210.991 313.451 210.692 313.984C210.404 314.517 210.26 315.131 210.26 315.824C210.26 316.517 210.404 317.131 210.692 317.664C210.991 318.197 211.396 318.613 211.908 318.912C212.431 319.2 213.017 319.344 213.668 319.344C214.201 319.344 214.687 319.243 215.124 319.04C215.572 318.827 215.945 318.512 216.244 318.096L216.836 318.528C216.495 319.029 216.047 319.413 215.492 319.68C214.948 319.936 214.34 320.064 213.668 320.064ZM223.709 319.472C223.506 319.664 223.25 319.813 222.941 319.92C222.642 320.016 222.327 320.064 221.997 320.064C221.271 320.064 220.711 319.867 220.317 319.472C219.922 319.067 219.725 318.507 219.725 317.792V312.336H218.189V311.648H219.725V309.824H220.525V311.648H223.181V312.336H220.525V317.712C220.525 318.256 220.653 318.672 220.909 318.96C221.175 319.237 221.565 319.376 222.077 319.376C222.599 319.376 223.031 319.221 223.373 318.912L223.709 319.472ZM226.18 311.648H226.98V320H226.18V311.648ZM226.58 309.616C226.398 309.616 226.244 309.557 226.116 309.44C225.988 309.312 225.924 309.157 225.924 308.976C225.924 308.795 225.988 308.64 226.116 308.512C226.244 308.384 226.398 308.32 226.58 308.32C226.761 308.32 226.916 308.384 227.044 308.512C227.172 308.629 227.236 308.779 227.236 308.96C227.236 309.141 227.172 309.296 227.044 309.424C226.916 309.552 226.761 309.616 226.58 309.616ZM237.296 311.648L233.52 320H232.704L228.944 311.648H229.792L233.12 319.12L236.48 311.648H237.296ZM239.285 311.648H240.085V320H239.285V311.648ZM239.685 309.616C239.503 309.616 239.349 309.557 239.221 309.44C239.093 309.312 239.029 309.157 239.029 308.976C239.029 308.795 239.093 308.64 239.221 308.512C239.349 308.384 239.503 308.32 239.685 308.32C239.866 308.32 240.021 308.384 240.149 308.512C240.277 308.629 240.341 308.779 240.341 308.96C240.341 309.141 240.277 309.296 240.149 309.424C240.021 309.552 239.866 309.616 239.685 309.616ZM247.841 319.472C247.638 319.664 247.382 319.813 247.073 319.92C246.774 320.016 246.459 320.064 246.129 320.064C245.403 320.064 244.843 319.867 244.449 319.472C244.054 319.067 243.857 318.507 243.857 317.792V312.336H242.321V311.648H243.857V309.824H244.657V311.648H247.313V312.336H244.657V317.712C244.657 318.256 244.785 318.672 245.041 318.96C245.307 319.237 245.697 319.376 246.209 319.376C246.731 319.376 247.163 319.221 247.505 318.912L247.841 319.472ZM250.312 311.648H251.112V320H250.312V311.648ZM250.712 309.616C250.53 309.616 250.376 309.557 250.248 309.44C250.12 309.312 250.056 309.157 250.056 308.976C250.056 308.795 250.12 308.64 250.248 308.512C250.376 308.384 250.53 308.32 250.712 308.32C250.893 308.32 251.048 308.384 251.176 308.512C251.304 308.629 251.368 308.779 251.368 308.96C251.368 309.141 251.304 309.296 251.176 309.424C251.048 309.552 250.893 309.616 250.712 309.616ZM261.779 316.016H254.595C254.617 316.667 254.782 317.248 255.091 317.76C255.401 318.261 255.817 318.651 256.339 318.928C256.873 319.205 257.47 319.344 258.131 319.344C258.675 319.344 259.177 319.248 259.635 319.056C260.105 318.853 260.494 318.56 260.803 318.176L261.267 318.704C260.905 319.141 260.446 319.477 259.891 319.712C259.347 319.947 258.755 320.064 258.115 320.064C257.283 320.064 256.542 319.883 255.891 319.52C255.241 319.157 254.729 318.656 254.355 318.016C253.993 317.376 253.811 316.645 253.811 315.824C253.811 315.013 253.982 314.288 254.323 313.648C254.675 312.997 255.155 312.491 255.763 312.128C256.371 311.765 257.054 311.584 257.811 311.584C258.569 311.584 259.246 311.765 259.843 312.128C260.451 312.48 260.926 312.976 261.267 313.616C261.619 314.256 261.795 314.981 261.795 315.792L261.779 316.016ZM257.811 312.288C257.225 312.288 256.697 312.421 256.227 312.688C255.758 312.944 255.379 313.312 255.091 313.792C254.814 314.261 254.654 314.795 254.611 315.392H261.011C260.979 314.795 260.819 314.261 260.531 313.792C260.243 313.323 259.865 312.955 259.395 312.688C258.926 312.421 258.398 312.288 257.811 312.288ZM266.622 320.064C265.95 320.064 265.31 319.963 264.702 319.76C264.094 319.557 263.62 319.301 263.278 318.992L263.646 318.352C263.988 318.64 264.425 318.88 264.958 319.072C265.502 319.264 266.068 319.36 266.654 319.36C267.497 319.36 268.116 319.221 268.51 318.944C268.916 318.667 269.118 318.283 269.118 317.792C269.118 317.44 269.006 317.163 268.782 316.96C268.569 316.757 268.302 316.608 267.982 316.512C267.662 316.416 267.22 316.315 266.654 316.208C265.993 316.091 265.46 315.963 265.054 315.824C264.649 315.685 264.302 315.461 264.014 315.152C263.726 314.843 263.582 314.416 263.582 313.872C263.582 313.211 263.854 312.667 264.398 312.24C264.953 311.803 265.737 311.584 266.75 311.584C267.284 311.584 267.812 311.659 268.334 311.808C268.857 311.957 269.284 312.155 269.614 312.4L269.246 313.04C268.905 312.795 268.516 312.608 268.078 312.48C267.641 312.352 267.193 312.288 266.734 312.288C265.956 312.288 265.369 312.432 264.974 312.72C264.58 313.008 264.382 313.387 264.382 313.856C264.382 314.229 264.494 314.523 264.718 314.736C264.942 314.939 265.214 315.093 265.534 315.2C265.865 315.296 266.324 315.403 266.91 315.52C267.561 315.637 268.084 315.765 268.478 315.904C268.884 316.032 269.225 316.245 269.502 316.544C269.78 316.843 269.918 317.253 269.918 317.776C269.918 318.469 269.63 319.024 269.054 319.44C268.478 319.856 267.668 320.064 266.622 320.064Z" fill="white"/>
<rect x="43.5" y="283.5" width="321" height="62" rx="19.5" stroke="#A9A9A9"/>
<path d="M9.855 301.215C10.785 301.665 11.505 302.325 12.015 303.195C12.525 304.035 12.78 305.04 12.78 306.21C12.78 307.95 12.225 309.345 11.115 310.395C10.005 311.445 8.58 311.97 6.84 311.97C5.1 311.97 3.675 311.445 2.565 310.395C1.455 309.345 0.9 307.95 0.9 306.21C0.9 305.43 1.005 304.65 1.215 303.87C1.425 303.09 1.905 301.905 2.655 300.315L5.805 293.61H12.105L9.855 301.215ZM25.9987 301.215C26.9287 301.665 27.6487 302.325 28.1588 303.195C28.6687 304.035 28.9237 305.04 28.9237 306.21C28.9237 307.95 28.3687 309.345 27.2587 310.395C26.1487 311.445 24.7237 311.97 22.9837 311.97C21.2437 311.97 19.8187 311.445 18.7087 310.395C17.5987 309.345 17.0437 307.95 17.0437 306.21C17.0437 305.43 17.1487 304.65 17.3587 303.87C17.5687 303.09 18.0487 301.905 18.7987 300.315L21.9487 293.61H28.2488L25.9987 301.215Z" fill="#696969"/>
<path d="M396.145 304.785C395.215 304.335 394.495 303.675 393.985 302.805C393.475 301.965 393.22 300.96 393.22 299.79C393.22 298.05 393.775 296.655 394.885 295.605C395.995 294.555 397.42 294.03 399.16 294.03C400.9 294.03 402.325 294.555 403.435 295.605C404.545 296.655 405.1 298.05 405.1 299.79C405.1 300.57 404.995 301.35 404.785 302.13C404.575 302.91 404.095 304.095 403.345 305.685L400.195 312.39L393.895 312.39L396.145 304.785ZM380.001 304.785C379.071 304.335 378.351 303.675 377.841 302.805C377.331 301.965 377.076 300.96 377.076 299.79C377.076 298.05 377.631 296.655 378.741 295.605C379.851 294.555 381.276 294.03 383.016 294.03C384.756 294.03 386.181 294.555 387.291 295.605C388.401 296.655 388.956 298.05 388.956 299.79C388.956 300.57 388.851 301.35 388.641 302.13C388.431 302.91 387.951 304.095 387.201 305.685L384.051 312.39L377.751 312.39L380.001 304.785Z" fill="#696969"/>
</svg>
