<svg width="627" height="436" viewBox="0 0 627 436" fill="none" xmlns="http://www.w3.org/2000/svg">
<rect width="627" height="436" fill="#F3CD6A"/>
<path d="M107.296 77.328C106.464 77.328 105.752 77.04 105.16 76.464C104.584 75.872 104.296 75.144 104.296 74.28C104.296 73.416 104.584 72.696 105.16 72.12C105.752 71.544 106.464 71.256 107.296 71.256C108.128 71.256 108.832 71.544 109.408 72.12C110 72.696 110.296 73.416 110.296 74.28C110.296 75.144 110 75.872 109.408 76.464C108.832 77.04 108.128 77.328 107.296 77.328ZM121.11 64.2H128.742C130.566 64.2 132.174 64.552 133.566 65.256C134.974 65.944 136.062 66.92 136.83 68.184C137.614 69.448 138.006 70.92 138.006 72.6C138.006 74.28 137.614 75.752 136.83 77.016C136.062 78.28 134.974 79.264 133.566 79.968C132.174 80.656 130.566 81 128.742 81H121.11V64.2ZM128.55 77.808C130.23 77.808 131.566 77.344 132.558 76.416C133.566 75.472 134.07 74.2 134.07 72.6C134.07 71 133.566 69.736 132.558 68.808C131.566 67.864 130.23 67.392 128.55 67.392H124.998V77.808H128.55ZM146.243 67.896C148.243 67.896 149.779 68.376 150.851 69.336C151.923 70.28 152.459 71.712 152.459 73.632V81H148.955V79.392C148.251 80.592 146.939 81.192 145.019 81.192C144.027 81.192 143.163 81.024 142.427 80.688C141.707 80.352 141.155 79.888 140.771 79.296C140.387 78.704 140.195 78.032 140.195 77.28C140.195 76.08 140.643 75.136 141.539 74.448C142.451 73.76 143.851 73.416 145.739 73.416H148.715C148.715 72.6 148.467 71.976 147.971 71.544C147.475 71.096 146.731 70.872 145.739 70.872C145.051 70.872 144.371 70.984 143.699 71.208C143.043 71.416 142.483 71.704 142.019 72.072L140.675 69.456C141.379 68.96 142.219 68.576 143.195 68.304C144.187 68.032 145.203 67.896 146.243 67.896ZM145.955 78.672C146.595 78.672 147.163 78.528 147.659 78.24C148.155 77.936 148.507 77.496 148.715 76.92V75.6H146.147C144.611 75.6 143.843 76.104 143.843 77.112C143.843 77.592 144.027 77.976 144.395 78.264C144.779 78.536 145.299 78.672 145.955 78.672ZM168.789 68.088L162.957 81.792C162.365 83.28 161.629 84.328 160.749 84.936C159.885 85.544 158.837 85.848 157.605 85.848C156.933 85.848 156.269 85.744 155.613 85.536C154.957 85.328 154.421 85.04 154.005 84.672L155.373 82.008C155.661 82.264 155.989 82.464 156.357 82.608C156.741 82.752 157.117 82.824 157.485 82.824C157.997 82.824 158.413 82.696 158.733 82.44C159.053 82.2 159.341 81.792 159.597 81.216L159.645 81.096L154.053 68.088H157.917L161.541 76.848L165.189 68.088H168.789ZM185.465 67.896C186.665 67.896 187.753 68.176 188.729 68.736C189.721 69.28 190.497 70.056 191.057 71.064C191.617 72.056 191.897 73.216 191.897 74.544C191.897 75.872 191.617 77.04 191.057 78.048C190.497 79.04 189.721 79.816 188.729 80.376C187.753 80.92 186.665 81.192 185.465 81.192C183.689 81.192 182.337 80.632 181.409 79.512V81H177.833V63.192H181.577V69.456C182.521 68.416 183.817 67.896 185.465 67.896ZM184.817 78.12C185.777 78.12 186.561 77.8 187.169 77.16C187.793 76.504 188.105 75.632 188.105 74.544C188.105 73.456 187.793 72.592 187.169 71.952C186.561 71.296 185.777 70.968 184.817 70.968C183.857 70.968 183.065 71.296 182.441 71.952C181.833 72.592 181.529 73.456 181.529 74.544C181.529 75.632 181.833 76.504 182.441 77.16C183.065 77.8 183.857 78.12 184.817 78.12ZM207.228 68.088L201.396 81.792C200.804 83.28 200.068 84.328 199.188 84.936C198.324 85.544 197.276 85.848 196.044 85.848C195.372 85.848 194.708 85.744 194.052 85.536C193.396 85.328 192.86 85.04 192.444 84.672L193.812 82.008C194.1 82.264 194.428 82.464 194.796 82.608C195.18 82.752 195.556 82.824 195.924 82.824C196.436 82.824 196.852 82.696 197.172 82.44C197.492 82.2 197.78 81.792 198.036 81.216L198.084 81.096L192.492 68.088H196.356L199.98 76.848L203.628 68.088H207.228ZM229.425 63.192V81H225.849V79.512C224.921 80.632 223.577 81.192 221.817 81.192C220.601 81.192 219.497 80.92 218.505 80.376C217.529 79.832 216.761 79.056 216.201 78.048C215.641 77.04 215.361 75.872 215.361 74.544C215.361 73.216 215.641 72.048 216.201 71.04C216.761 70.032 217.529 69.256 218.505 68.712C219.497 68.168 220.601 67.896 221.817 67.896C223.465 67.896 224.753 68.416 225.681 69.456V63.192H229.425ZM222.465 78.12C223.409 78.12 224.193 77.8 224.817 77.16C225.441 76.504 225.753 75.632 225.753 74.544C225.753 73.456 225.441 72.592 224.817 71.952C224.193 71.296 223.409 70.968 222.465 70.968C221.505 70.968 220.713 71.296 220.089 71.952C219.465 72.592 219.153 73.456 219.153 74.544C219.153 75.632 219.465 76.504 220.089 77.16C220.713 77.8 221.505 78.12 222.465 78.12ZM238.458 67.896C240.458 67.896 241.994 68.376 243.066 69.336C244.138 70.28 244.674 71.712 244.674 73.632V81H241.17V79.392C240.466 80.592 239.154 81.192 237.234 81.192C236.242 81.192 235.378 81.024 234.642 80.688C233.922 80.352 233.37 79.888 232.986 79.296C232.602 78.704 232.41 78.032 232.41 77.28C232.41 76.08 232.858 75.136 233.754 74.448C234.666 73.76 236.066 73.416 237.954 73.416H240.93C240.93 72.6 240.682 71.976 240.186 71.544C239.69 71.096 238.946 70.872 237.954 70.872C237.266 70.872 236.586 70.984 235.914 71.208C235.258 71.416 234.698 71.704 234.234 72.072L232.89 69.456C233.594 68.96 234.434 68.576 235.41 68.304C236.402 68.032 237.418 67.896 238.458 67.896ZM238.17 78.672C238.81 78.672 239.378 78.528 239.874 78.24C240.37 77.936 240.722 77.496 240.93 76.92V75.6H238.362C236.826 75.6 236.058 76.104 236.058 77.112C236.058 77.592 236.242 77.976 236.61 78.264C236.994 78.536 237.514 78.672 238.17 78.672ZM261.004 68.088L255.172 81.792C254.58 83.28 253.844 84.328 252.964 84.936C252.1 85.544 251.052 85.848 249.82 85.848C249.148 85.848 248.484 85.744 247.828 85.536C247.172 85.328 246.636 85.04 246.22 84.672L247.588 82.008C247.876 82.264 248.204 82.464 248.572 82.608C248.956 82.752 249.332 82.824 249.7 82.824C250.212 82.824 250.628 82.696 250.948 82.44C251.268 82.2 251.556 81.792 251.812 81.216L251.86 81.096L246.268 68.088H250.132L253.756 76.848L257.404 68.088H261.004ZM274.393 81.192C273.321 81.192 272.273 81.064 271.249 80.808C270.225 80.536 269.409 80.2 268.801 79.8L270.049 77.112C270.625 77.48 271.321 77.784 272.137 78.024C272.953 78.248 273.753 78.36 274.537 78.36C276.121 78.36 276.913 77.968 276.913 77.184C276.913 76.816 276.697 76.552 276.265 76.392C275.833 76.232 275.169 76.096 274.273 75.984C273.217 75.824 272.345 75.64 271.657 75.432C270.969 75.224 270.369 74.856 269.857 74.328C269.361 73.8 269.113 73.048 269.113 72.072C269.113 71.256 269.345 70.536 269.809 69.912C270.289 69.272 270.977 68.776 271.873 68.424C272.785 68.072 273.857 67.896 275.089 67.896C276.001 67.896 276.905 68 277.801 68.208C278.713 68.4 279.465 68.672 280.057 69.024L278.809 71.688C277.673 71.048 276.433 70.728 275.089 70.728C274.289 70.728 273.689 70.84 273.289 71.064C272.889 71.288 272.689 71.576 272.689 71.928C272.689 72.328 272.905 72.608 273.337 72.768C273.769 72.928 274.457 73.08 275.401 73.224C276.457 73.4 277.321 73.592 277.993 73.8C278.665 73.992 279.249 74.352 279.745 74.88C280.241 75.408 280.489 76.144 280.489 77.088C280.489 77.888 280.249 78.6 279.769 79.224C279.289 79.848 278.585 80.336 277.657 80.688C276.745 81.024 275.657 81.192 274.393 81.192ZM289.399 81.192C288.023 81.192 286.783 80.912 285.679 80.352C284.591 79.776 283.735 78.984 283.111 77.976C282.503 76.968 282.199 75.824 282.199 74.544C282.199 73.264 282.503 72.12 283.111 71.112C283.735 70.104 284.591 69.32 285.679 68.76C286.783 68.184 288.023 67.896 289.399 67.896C290.759 67.896 291.943 68.184 292.951 68.76C293.975 69.32 294.719 70.128 295.183 71.184L292.279 72.744C291.607 71.56 290.639 70.968 289.375 70.968C288.399 70.968 287.591 71.288 286.951 71.928C286.311 72.568 285.991 73.44 285.991 74.544C285.991 75.648 286.311 76.52 286.951 77.16C287.591 77.8 288.399 78.12 289.375 78.12C290.655 78.12 291.623 77.528 292.279 76.344L295.183 77.928C294.719 78.952 293.975 79.752 292.951 80.328C291.943 80.904 290.759 81.192 289.399 81.192ZM305.453 67.896C307.053 67.896 308.341 68.376 309.317 69.336C310.309 70.296 310.805 71.72 310.805 73.608V81H307.061V74.184C307.061 73.16 306.837 72.4 306.389 71.904C305.941 71.392 305.293 71.136 304.445 71.136C303.501 71.136 302.749 71.432 302.189 72.024C301.629 72.6 301.349 73.464 301.349 74.616V81H297.605V63.192H301.349V69.432C301.845 68.936 302.445 68.56 303.149 68.304C303.853 68.032 304.621 67.896 305.453 67.896ZM327.347 74.592C327.347 74.64 327.323 74.976 327.275 75.6H317.507C317.683 76.4 318.099 77.032 318.755 77.496C319.411 77.96 320.227 78.192 321.203 78.192C321.875 78.192 322.467 78.096 322.979 77.904C323.507 77.696 323.995 77.376 324.443 76.944L326.435 79.104C325.219 80.496 323.443 81.192 321.107 81.192C319.651 81.192 318.363 80.912 317.243 80.352C316.123 79.776 315.259 78.984 314.651 77.976C314.043 76.968 313.739 75.824 313.739 74.544C313.739 73.28 314.035 72.144 314.627 71.136C315.235 70.112 316.059 69.32 317.099 68.76C318.155 68.184 319.331 67.896 320.627 67.896C321.891 67.896 323.035 68.168 324.059 68.712C325.083 69.256 325.883 70.04 326.459 71.064C327.051 72.072 327.347 73.248 327.347 74.592ZM320.651 70.728C319.803 70.728 319.091 70.968 318.515 71.448C317.939 71.928 317.587 72.584 317.459 73.416H323.819C323.691 72.6 323.339 71.952 322.763 71.472C322.187 70.976 321.483 70.728 320.651 70.728ZM343.352 63.192V81H339.776V79.512C338.848 80.632 337.504 81.192 335.744 81.192C334.528 81.192 333.424 80.92 332.432 80.376C331.456 79.832 330.688 79.056 330.128 78.048C329.568 77.04 329.288 75.872 329.288 74.544C329.288 73.216 329.568 72.048 330.128 71.04C330.688 70.032 331.456 69.256 332.432 68.712C333.424 68.168 334.528 67.896 335.744 67.896C337.392 67.896 338.68 68.416 339.608 69.456V63.192H343.352ZM336.392 78.12C337.336 78.12 338.12 77.8 338.744 77.16C339.368 76.504 339.68 75.632 339.68 74.544C339.68 73.456 339.368 72.592 338.744 71.952C338.12 71.296 337.336 70.968 336.392 70.968C335.432 70.968 334.64 71.296 334.016 71.952C333.392 72.592 333.08 73.456 333.08 74.544C333.08 75.632 333.392 76.504 334.016 77.16C334.64 77.8 335.432 78.12 336.392 78.12ZM360.185 68.088V81H356.633V79.464C356.137 80.024 355.545 80.456 354.857 80.76C354.169 81.048 353.425 81.192 352.625 81.192C350.929 81.192 349.585 80.704 348.593 79.728C347.601 78.752 347.105 77.304 347.105 75.384V68.088H350.849V74.832C350.849 76.912 351.721 77.952 353.465 77.952C354.361 77.952 355.081 77.664 355.625 77.088C356.169 76.496 356.441 75.624 356.441 74.472V68.088H360.185ZM364.013 63.192H367.757V81H364.013V63.192ZM384.24 74.592C384.24 74.64 384.216 74.976 384.168 75.6H374.4C374.576 76.4 374.992 77.032 375.648 77.496C376.304 77.96 377.12 78.192 378.096 78.192C378.768 78.192 379.36 78.096 379.872 77.904C380.4 77.696 380.888 77.376 381.336 76.944L383.328 79.104C382.112 80.496 380.336 81.192 378 81.192C376.544 81.192 375.256 80.912 374.136 80.352C373.016 79.776 372.152 78.984 371.544 77.976C370.936 76.968 370.632 75.824 370.632 74.544C370.632 73.28 370.928 72.144 371.52 71.136C372.128 70.112 372.952 69.32 373.992 68.76C375.048 68.184 376.224 67.896 377.52 67.896C378.784 67.896 379.928 68.168 380.952 68.712C381.976 69.256 382.776 70.04 383.352 71.064C383.944 72.072 384.24 73.248 384.24 74.592ZM377.544 70.728C376.696 70.728 375.984 70.968 375.408 71.448C374.832 71.928 374.48 72.584 374.352 73.416H380.712C380.584 72.6 380.232 71.952 379.656 71.472C379.08 70.976 378.376 70.728 377.544 70.728ZM391.437 81.192C390.365 81.192 389.317 81.064 388.293 80.808C387.269 80.536 386.453 80.2 385.845 79.8L387.093 77.112C387.669 77.48 388.365 77.784 389.181 78.024C389.997 78.248 390.797 78.36 391.581 78.36C393.165 78.36 393.957 77.968 393.957 77.184C393.957 76.816 393.741 76.552 393.309 76.392C392.877 76.232 392.213 76.096 391.317 75.984C390.261 75.824 389.389 75.64 388.701 75.432C388.013 75.224 387.413 74.856 386.901 74.328C386.405 73.8 386.157 73.048 386.157 72.072C386.157 71.256 386.389 70.536 386.853 69.912C387.333 69.272 388.021 68.776 388.917 68.424C389.829 68.072 390.901 67.896 392.133 67.896C393.045 67.896 393.949 68 394.845 68.208C395.757 68.4 396.509 68.672 397.101 69.024L395.853 71.688C394.717 71.048 393.477 70.728 392.133 70.728C391.333 70.728 390.733 70.84 390.333 71.064C389.933 71.288 389.733 71.576 389.733 71.928C389.733 72.328 389.949 72.608 390.381 72.768C390.813 72.928 391.501 73.08 392.445 73.224C393.501 73.4 394.365 73.592 395.037 73.8C395.709 73.992 396.293 74.352 396.789 74.88C397.285 75.408 397.533 76.144 397.533 77.088C397.533 77.888 397.293 78.6 396.813 79.224C396.333 79.848 395.629 80.336 394.701 80.688C393.789 81.024 392.701 81.192 391.437 81.192Z" fill="#2B2B2B"/>
<path d="M106.296 150.328C105.464 150.328 104.752 150.04 104.16 149.464C103.584 148.872 103.296 148.144 103.296 147.28C103.296 146.416 103.584 145.696 104.16 145.12C104.752 144.544 105.464 144.256 106.296 144.256C107.128 144.256 107.832 144.544 108.408 145.12C109 145.696 109.296 146.416 109.296 147.28C109.296 148.144 109 148.872 108.408 149.464C107.832 150.04 107.128 150.328 106.296 150.328ZM128.15 154.288C126.438 154.288 124.886 153.92 123.494 153.184C122.118 152.432 121.03 151.4 120.23 150.088C119.446 148.76 119.054 147.264 119.054 145.6C119.054 143.936 119.446 142.448 120.23 141.136C121.03 139.808 122.118 138.776 123.494 138.04C124.886 137.288 126.446 136.912 128.174 136.912C129.63 136.912 130.942 137.168 132.11 137.68C133.294 138.192 134.286 138.928 135.086 139.888L132.59 142.192C131.454 140.88 130.046 140.224 128.366 140.224C127.326 140.224 126.398 140.456 125.582 140.92C124.766 141.368 124.126 142 123.662 142.816C123.214 143.632 122.99 144.56 122.99 145.6C122.99 146.64 123.214 147.568 123.662 148.384C124.126 149.2 124.766 149.84 125.582 150.304C126.398 150.752 127.326 150.976 128.366 150.976C130.046 150.976 131.454 150.312 132.59 148.984L135.086 151.288C134.286 152.264 133.294 153.008 132.11 153.52C130.926 154.032 129.606 154.288 128.15 154.288ZM143.507 154.192C142.147 154.192 140.923 153.912 139.835 153.352C138.763 152.776 137.923 151.984 137.315 150.976C136.707 149.968 136.403 148.824 136.403 147.544C136.403 146.264 136.707 145.12 137.315 144.112C137.923 143.104 138.763 142.32 139.835 141.76C140.923 141.184 142.147 140.896 143.507 140.896C144.867 140.896 146.083 141.184 147.155 141.76C148.227 142.32 149.067 143.104 149.675 144.112C150.283 145.12 150.587 146.264 150.587 147.544C150.587 148.824 150.283 149.968 149.675 150.976C149.067 151.984 148.227 152.776 147.155 153.352C146.083 153.912 144.867 154.192 143.507 154.192ZM143.507 151.12C144.467 151.12 145.251 150.8 145.859 150.16C146.483 149.504 146.795 148.632 146.795 147.544C146.795 146.456 146.483 145.592 145.859 144.952C145.251 144.296 144.467 143.968 143.507 143.968C142.547 143.968 141.755 144.296 141.131 144.952C140.507 145.592 140.195 146.456 140.195 147.544C140.195 148.632 140.507 149.504 141.131 150.16C141.755 150.8 142.547 151.12 143.507 151.12ZM153.449 136.192H157.193V154H153.449V136.192ZM161.028 136.192H164.772V154H161.028V136.192ZM173.815 140.896C175.815 140.896 177.351 141.376 178.423 142.336C179.495 143.28 180.031 144.712 180.031 146.632V154H176.527V152.392C175.823 153.592 174.511 154.192 172.591 154.192C171.599 154.192 170.735 154.024 169.999 153.688C169.279 153.352 168.727 152.888 168.343 152.296C167.959 151.704 167.767 151.032 167.767 150.28C167.767 149.08 168.215 148.136 169.111 147.448C170.023 146.76 171.423 146.416 173.311 146.416H176.287C176.287 145.6 176.039 144.976 175.543 144.544C175.047 144.096 174.303 143.872 173.311 143.872C172.623 143.872 171.943 143.984 171.271 144.208C170.615 144.416 170.055 144.704 169.591 145.072L168.247 142.456C168.951 141.96 169.791 141.576 170.767 141.304C171.759 141.032 172.775 140.896 173.815 140.896ZM173.527 151.672C174.167 151.672 174.735 151.528 175.231 151.24C175.727 150.936 176.079 150.496 176.287 149.92V148.6H173.719C172.183 148.6 171.415 149.104 171.415 150.112C171.415 150.592 171.599 150.976 171.967 151.264C172.351 151.536 172.871 151.672 173.527 151.672ZM191.411 140.896C192.611 140.896 193.699 141.176 194.675 141.736C195.667 142.28 196.443 143.056 197.003 144.064C197.563 145.056 197.843 146.216 197.843 147.544C197.843 148.872 197.563 150.04 197.003 151.048C196.443 152.04 195.667 152.816 194.675 153.376C193.699 153.92 192.611 154.192 191.411 154.192C189.635 154.192 188.283 153.632 187.355 152.512V154H183.779V136.192H187.523V142.456C188.467 141.416 189.763 140.896 191.411 140.896ZM190.763 151.12C191.723 151.12 192.507 150.8 193.115 150.16C193.739 149.504 194.051 148.632 194.051 147.544C194.051 146.456 193.739 145.592 193.115 144.952C192.507 144.296 191.723 143.968 190.763 143.968C189.803 143.968 189.011 144.296 188.387 144.952C187.779 145.592 187.475 146.456 187.475 147.544C187.475 148.632 187.779 149.504 188.387 150.16C189.011 150.8 189.803 151.12 190.763 151.12ZM206.854 154.192C205.494 154.192 204.27 153.912 203.182 153.352C202.11 152.776 201.27 151.984 200.662 150.976C200.054 149.968 199.75 148.824 199.75 147.544C199.75 146.264 200.054 145.12 200.662 144.112C201.27 143.104 202.11 142.32 203.182 141.76C204.27 141.184 205.494 140.896 206.854 140.896C208.214 140.896 209.43 141.184 210.502 141.76C211.574 142.32 212.414 143.104 213.022 144.112C213.63 145.12 213.934 146.264 213.934 147.544C213.934 148.824 213.63 149.968 213.022 150.976C212.414 151.984 211.574 152.776 210.502 153.352C209.43 153.912 208.214 154.192 206.854 154.192ZM206.854 151.12C207.814 151.12 208.598 150.8 209.206 150.16C209.83 149.504 210.142 148.632 210.142 147.544C210.142 146.456 209.83 145.592 209.206 144.952C208.598 144.296 207.814 143.968 206.854 143.968C205.894 143.968 205.102 144.296 204.478 144.952C203.854 145.592 203.542 146.456 203.542 147.544C203.542 148.632 203.854 149.504 204.478 150.16C205.102 150.8 205.894 151.12 206.854 151.12ZM220.372 142.792C220.82 142.168 221.42 141.696 222.172 141.376C222.94 141.056 223.82 140.896 224.812 140.896V144.352C224.396 144.32 224.116 144.304 223.972 144.304C222.9 144.304 222.06 144.608 221.452 145.216C220.844 145.808 220.54 146.704 220.54 147.904V154H216.796V141.088H220.372V142.792ZM232.536 140.896C234.536 140.896 236.072 141.376 237.144 142.336C238.216 143.28 238.752 144.712 238.752 146.632V154H235.248V152.392C234.544 153.592 233.232 154.192 231.312 154.192C230.32 154.192 229.456 154.024 228.72 153.688C228 153.352 227.448 152.888 227.064 152.296C226.68 151.704 226.488 151.032 226.488 150.28C226.488 149.08 226.936 148.136 227.832 147.448C228.744 146.76 230.144 146.416 232.032 146.416H235.008C235.008 145.6 234.76 144.976 234.264 144.544C233.768 144.096 233.024 143.872 232.032 143.872C231.344 143.872 230.664 143.984 229.992 144.208C229.336 144.416 228.776 144.704 228.312 145.072L226.968 142.456C227.672 141.96 228.512 141.576 229.488 141.304C230.48 141.032 231.496 140.896 232.536 140.896ZM232.248 151.672C232.888 151.672 233.456 151.528 233.952 151.24C234.448 150.936 234.8 150.496 235.008 149.92V148.6H232.44C230.904 148.6 230.136 149.104 230.136 150.112C230.136 150.592 230.32 150.976 230.688 151.264C231.072 151.536 231.592 151.672 232.248 151.672ZM250.829 153.376C250.461 153.648 250.005 153.856 249.461 154C248.933 154.128 248.373 154.192 247.781 154.192C246.245 154.192 245.053 153.8 244.205 153.016C243.373 152.232 242.957 151.08 242.957 149.56V144.256H240.965V141.376H242.957V138.232H246.701V141.376H249.917V144.256H246.701V149.512C246.701 150.056 246.837 150.48 247.109 150.784C247.397 151.072 247.797 151.216 248.309 151.216C248.901 151.216 249.405 151.056 249.821 150.736L250.829 153.376ZM253.29 141.088H257.034V154H253.29V141.088ZM255.162 139.288C254.474 139.288 253.914 139.088 253.482 138.688C253.05 138.288 252.834 137.792 252.834 137.2C252.834 136.608 253.05 136.112 253.482 135.712C253.914 135.312 254.474 135.112 255.162 135.112C255.85 135.112 256.41 135.304 256.842 135.688C257.274 136.072 257.49 136.552 257.49 137.128C257.49 137.752 257.274 138.272 256.842 138.688C256.41 139.088 255.85 139.288 255.162 139.288ZM267.013 154.192C265.653 154.192 264.429 153.912 263.341 153.352C262.269 152.776 261.429 151.984 260.821 150.976C260.213 149.968 259.909 148.824 259.909 147.544C259.909 146.264 260.213 145.12 260.821 144.112C261.429 143.104 262.269 142.32 263.341 141.76C264.429 141.184 265.653 140.896 267.013 140.896C268.373 140.896 269.589 141.184 270.661 141.76C271.733 142.32 272.573 143.104 273.181 144.112C273.789 145.12 274.093 146.264 274.093 147.544C274.093 148.824 273.789 149.968 273.181 150.976C272.573 151.984 271.733 152.776 270.661 153.352C269.589 153.912 268.373 154.192 267.013 154.192ZM267.013 151.12C267.973 151.12 268.757 150.8 269.365 150.16C269.989 149.504 270.301 148.632 270.301 147.544C270.301 146.456 269.989 145.592 269.365 144.952C268.757 144.296 267.973 143.968 267.013 143.968C266.053 143.968 265.261 144.296 264.637 144.952C264.013 145.592 263.701 146.456 263.701 147.544C263.701 148.632 264.013 149.504 264.637 150.16C265.261 150.8 266.053 151.12 267.013 151.12ZM284.803 140.896C286.403 140.896 287.691 141.376 288.667 142.336C289.659 143.296 290.155 144.72 290.155 146.608V154H286.411V147.184C286.411 146.16 286.187 145.4 285.739 144.904C285.291 144.392 284.643 144.136 283.795 144.136C282.851 144.136 282.099 144.432 281.539 145.024C280.979 145.6 280.699 146.464 280.699 147.616V154H276.955V141.088H280.531V142.6C281.027 142.056 281.643 141.64 282.379 141.352C283.115 141.048 283.923 140.896 284.803 140.896ZM321.802 141.088L317.122 154H313.522L310.618 145.984L307.618 154H304.018L299.362 141.088H302.89L305.938 149.824L309.106 141.088H312.274L315.346 149.824L318.49 141.088H321.802ZM323.903 141.088H327.647V154H323.903V141.088ZM325.775 139.288C325.087 139.288 324.527 139.088 324.095 138.688C323.663 138.288 323.447 137.792 323.447 137.2C323.447 136.608 323.663 136.112 324.095 135.712C324.527 135.312 325.087 135.112 325.775 135.112C326.463 135.112 327.023 135.304 327.455 135.688C327.887 136.072 328.103 136.552 328.103 137.128C328.103 137.752 327.887 138.272 327.455 138.688C327.023 139.088 326.463 139.288 325.775 139.288ZM339.809 153.376C339.441 153.648 338.985 153.856 338.441 154C337.913 154.128 337.353 154.192 336.761 154.192C335.225 154.192 334.033 153.8 333.185 153.016C332.353 152.232 331.937 151.08 331.937 149.56V144.256H329.945V141.376H331.937V138.232H335.681V141.376H338.897V144.256H335.681V149.512C335.681 150.056 335.817 150.48 336.089 150.784C336.377 151.072 336.777 151.216 337.289 151.216C337.881 151.216 338.385 151.056 338.801 150.736L339.809 153.376ZM350.119 140.896C351.719 140.896 353.007 141.376 353.983 142.336C354.975 143.296 355.471 144.72 355.471 146.608V154H351.727V147.184C351.727 146.16 351.503 145.4 351.055 144.904C350.607 144.392 349.959 144.136 349.111 144.136C348.167 144.136 347.415 144.432 346.855 145.024C346.295 145.6 346.015 146.464 346.015 147.616V154H342.271V136.192H346.015V142.432C346.511 141.936 347.111 141.56 347.815 141.304C348.519 141.032 349.287 140.896 350.119 140.896ZM372.622 154.192C371.246 154.192 370.006 153.912 368.902 153.352C367.814 152.776 366.958 151.984 366.334 150.976C365.726 149.968 365.422 148.824 365.422 147.544C365.422 146.264 365.726 145.12 366.334 144.112C366.958 143.104 367.814 142.32 368.902 141.76C370.006 141.184 371.246 140.896 372.622 140.896C373.982 140.896 375.166 141.184 376.174 141.76C377.198 142.32 377.942 143.128 378.406 144.184L375.502 145.744C374.83 144.56 373.862 143.968 372.598 143.968C371.622 143.968 370.814 144.288 370.174 144.928C369.534 145.568 369.214 146.44 369.214 147.544C369.214 148.648 369.534 149.52 370.174 150.16C370.814 150.8 371.622 151.12 372.598 151.12C373.878 151.12 374.846 150.528 375.502 149.344L378.406 150.928C377.942 151.952 377.198 152.752 376.174 153.328C375.166 153.904 373.982 154.192 372.622 154.192ZM386.901 154.192C385.541 154.192 384.317 153.912 383.229 153.352C382.157 152.776 381.317 151.984 380.709 150.976C380.101 149.968 379.797 148.824 379.797 147.544C379.797 146.264 380.101 145.12 380.709 144.112C381.317 143.104 382.157 142.32 383.229 141.76C384.317 141.184 385.541 140.896 386.901 140.896C388.261 140.896 389.477 141.184 390.549 141.76C391.621 142.32 392.461 143.104 393.069 144.112C393.677 145.12 393.981 146.264 393.981 147.544C393.981 148.824 393.677 149.968 393.069 150.976C392.461 151.984 391.621 152.776 390.549 153.352C389.477 153.912 388.261 154.192 386.901 154.192ZM386.901 151.12C387.861 151.12 388.645 150.8 389.253 150.16C389.877 149.504 390.189 148.632 390.189 147.544C390.189 146.456 389.877 145.592 389.253 144.952C388.645 144.296 387.861 143.968 386.901 143.968C385.941 143.968 385.149 144.296 384.525 144.952C383.901 145.592 383.589 146.456 383.589 147.544C383.589 148.632 383.901 149.504 384.525 150.16C385.149 150.8 385.941 151.12 386.901 151.12ZM396.598 145.744H403.39V148.744H396.598V145.744ZM415.259 153.376C414.891 153.648 414.435 153.856 413.891 154C413.363 154.128 412.803 154.192 412.211 154.192C410.675 154.192 409.483 153.8 408.635 153.016C407.803 152.232 407.387 151.08 407.387 149.56V144.256H405.395V141.376H407.387V138.232H411.131V141.376H414.347V144.256H411.131V149.512C411.131 150.056 411.267 150.48 411.539 150.784C411.827 151.072 412.227 151.216 412.739 151.216C413.331 151.216 413.835 151.056 414.251 150.736L415.259 153.376ZM421.296 142.792C421.744 142.168 422.344 141.696 423.096 141.376C423.864 141.056 424.744 140.896 425.736 140.896V144.352C425.32 144.32 425.04 144.304 424.896 144.304C423.824 144.304 422.984 144.608 422.376 145.216C421.768 145.808 421.464 146.704 421.464 147.904V154H417.72V141.088H421.296V142.792ZM433.46 140.896C435.46 140.896 436.996 141.376 438.068 142.336C439.14 143.28 439.676 144.712 439.676 146.632V154H436.172V152.392C435.468 153.592 434.156 154.192 432.236 154.192C431.244 154.192 430.38 154.024 429.644 153.688C428.924 153.352 428.372 152.888 427.988 152.296C427.604 151.704 427.412 151.032 427.412 150.28C427.412 149.08 427.86 148.136 428.756 147.448C429.668 146.76 431.068 146.416 432.956 146.416H435.932C435.932 145.6 435.684 144.976 435.188 144.544C434.692 144.096 433.948 143.872 432.956 143.872C432.268 143.872 431.588 143.984 430.916 144.208C430.26 144.416 429.7 144.704 429.236 145.072L427.892 142.456C428.596 141.96 429.436 141.576 430.412 141.304C431.404 141.032 432.42 140.896 433.46 140.896ZM433.172 151.672C433.812 151.672 434.38 151.528 434.876 151.24C435.372 150.936 435.724 150.496 435.932 149.92V148.6H433.364C431.828 148.6 431.06 149.104 431.06 150.112C431.06 150.592 431.244 150.976 431.612 151.264C431.996 151.536 432.516 151.672 433.172 151.672ZM456.006 141.088L450.558 154H446.694L441.27 141.088H445.134L448.71 149.872L452.406 141.088H456.006ZM470.19 147.592C470.19 147.64 470.166 147.976 470.118 148.6H460.35C460.526 149.4 460.942 150.032 461.598 150.496C462.254 150.96 463.07 151.192 464.046 151.192C464.718 151.192 465.31 151.096 465.822 150.904C466.35 150.696 466.838 150.376 467.286 149.944L469.278 152.104C468.062 153.496 466.286 154.192 463.95 154.192C462.494 154.192 461.206 153.912 460.086 153.352C458.966 152.776 458.102 151.984 457.494 150.976C456.886 149.968 456.582 148.824 456.582 147.544C456.582 146.28 456.878 145.144 457.47 144.136C458.078 143.112 458.902 142.32 459.942 141.76C460.998 141.184 462.174 140.896 463.47 140.896C464.734 140.896 465.878 141.168 466.902 141.712C467.926 142.256 468.726 143.04 469.302 144.064C469.894 145.072 470.19 146.248 470.19 147.592ZM463.494 143.728C462.646 143.728 461.934 143.968 461.358 144.448C460.782 144.928 460.43 145.584 460.302 146.416H466.662C466.534 145.6 466.182 144.952 465.606 144.472C465.03 143.976 464.326 143.728 463.494 143.728ZM473.043 136.192H476.787V154H473.043V136.192ZM480.622 136.192H484.366V154H480.622V136.192ZM500.849 147.592C500.849 147.64 500.825 147.976 500.777 148.6H491.009C491.185 149.4 491.601 150.032 492.257 150.496C492.913 150.96 493.729 151.192 494.705 151.192C495.377 151.192 495.969 151.096 496.481 150.904C497.009 150.696 497.497 150.376 497.945 149.944L499.937 152.104C498.721 153.496 496.945 154.192 494.609 154.192C493.153 154.192 491.865 153.912 490.745 153.352C489.625 152.776 488.761 151.984 488.153 150.976C487.545 149.968 487.241 148.824 487.241 147.544C487.241 146.28 487.537 145.144 488.129 144.136C488.737 143.112 489.561 142.32 490.601 141.76C491.657 141.184 492.833 140.896 494.129 140.896C495.393 140.896 496.537 141.168 497.561 141.712C498.585 142.256 499.385 143.04 499.961 144.064C500.553 145.072 500.849 146.248 500.849 147.592ZM494.153 143.728C493.305 143.728 492.593 143.968 492.017 144.448C491.441 144.928 491.089 145.584 490.961 146.416H497.321C497.193 145.6 496.841 144.952 496.265 144.472C495.689 143.976 494.985 143.728 494.153 143.728ZM507.277 142.792C507.725 142.168 508.325 141.696 509.077 141.376C509.845 141.056 510.725 140.896 511.717 140.896V144.352C511.301 144.32 511.021 144.304 510.877 144.304C509.805 144.304 508.965 144.608 508.357 145.216C507.749 145.808 507.445 146.704 507.445 147.904V154H503.701V141.088H507.277V142.792ZM518.694 154.192C517.622 154.192 516.574 154.064 515.55 153.808C514.526 153.536 513.71 153.2 513.102 152.8L514.35 150.112C514.926 150.48 515.622 150.784 516.438 151.024C517.254 151.248 518.054 151.36 518.838 151.36C520.422 151.36 521.214 150.968 521.214 150.184C521.214 149.816 520.998 149.552 520.566 149.392C520.134 149.232 519.47 149.096 518.574 148.984C517.518 148.824 516.646 148.64 515.958 148.432C515.27 148.224 514.67 147.856 514.158 147.328C513.662 146.8 513.414 146.048 513.414 145.072C513.414 144.256 513.646 143.536 514.11 142.912C514.59 142.272 515.278 141.776 516.174 141.424C517.086 141.072 518.158 140.896 519.39 140.896C520.302 140.896 521.206 141 522.102 141.208C523.014 141.4 523.766 141.672 524.358 142.024L523.11 144.688C521.974 144.048 520.734 143.728 519.39 143.728C518.59 143.728 517.99 143.84 517.59 144.064C517.19 144.288 516.99 144.576 516.99 144.928C516.99 145.328 517.206 145.608 517.638 145.768C518.07 145.928 518.758 146.08 519.702 146.224C520.758 146.4 521.622 146.592 522.294 146.8C522.966 146.992 523.55 147.352 524.046 147.88C524.542 148.408 524.79 149.144 524.79 150.088C524.79 150.888 524.55 151.6 524.07 152.224C523.59 152.848 522.886 153.336 521.958 153.688C521.046 154.024 519.958 154.192 518.694 154.192Z" fill="#2B2B2B"/>
<path d="M105.296 223.328C104.464 223.328 103.752 223.04 103.16 222.464C102.584 221.872 102.296 221.144 102.296 220.28C102.296 219.416 102.584 218.696 103.16 218.12C103.752 217.544 104.464 217.256 105.296 217.256C106.128 217.256 106.832 217.544 107.408 218.12C108 218.696 108.296 219.416 108.296 220.28C108.296 221.144 108 221.872 107.408 222.464C106.832 223.04 106.128 223.328 105.296 223.328ZM131.446 218.264C132.406 218.568 133.158 219.08 133.702 219.8C134.246 220.504 134.518 221.376 134.518 222.416C134.518 223.888 133.942 225.024 132.79 225.824C131.654 226.608 129.99 227 127.798 227H119.11V210.2H127.318C129.366 210.2 130.934 210.592 132.022 211.376C133.126 212.16 133.678 213.224 133.678 214.568C133.678 215.384 133.478 216.112 133.078 216.752C132.694 217.392 132.15 217.896 131.446 218.264ZM122.974 213.128V217.088H126.838C127.798 217.088 128.526 216.92 129.022 216.584C129.518 216.248 129.766 215.752 129.766 215.096C129.766 214.44 129.518 213.952 129.022 213.632C128.526 213.296 127.798 213.128 126.838 213.128H122.974ZM127.51 224.072C128.534 224.072 129.302 223.904 129.814 223.568C130.342 223.232 130.606 222.712 130.606 222.008C130.606 220.616 129.574 219.92 127.51 219.92H122.974V224.072H127.51ZM150.566 214.088V227H147.014V225.464C146.518 226.024 145.926 226.456 145.238 226.76C144.55 227.048 143.806 227.192 143.006 227.192C141.31 227.192 139.966 226.704 138.974 225.728C137.982 224.752 137.486 223.304 137.486 221.384V214.088H141.23V220.832C141.23 222.912 142.102 223.952 143.846 223.952C144.742 223.952 145.462 223.664 146.006 223.088C146.55 222.496 146.822 221.624 146.822 220.472V214.088H150.566ZM167.547 209.192V227H163.971V225.512C163.043 226.632 161.699 227.192 159.939 227.192C158.723 227.192 157.619 226.92 156.627 226.376C155.651 225.832 154.883 225.056 154.323 224.048C153.763 223.04 153.483 221.872 153.483 220.544C153.483 219.216 153.763 218.048 154.323 217.04C154.883 216.032 155.651 215.256 156.627 214.712C157.619 214.168 158.723 213.896 159.939 213.896C161.587 213.896 162.875 214.416 163.803 215.456V209.192H167.547ZM160.587 224.12C161.531 224.12 162.315 223.8 162.939 223.16C163.563 222.504 163.875 221.632 163.875 220.544C163.875 219.456 163.563 218.592 162.939 217.952C162.315 217.296 161.531 216.968 160.587 216.968C159.627 216.968 158.835 217.296 158.211 217.952C157.587 218.592 157.275 219.456 157.275 220.544C157.275 221.632 157.587 222.504 158.211 223.16C158.835 223.8 159.627 224.12 160.587 224.12ZM184.692 214.088V224.84C184.692 227.208 184.076 228.968 182.844 230.12C181.612 231.272 179.812 231.848 177.444 231.848C176.196 231.848 175.012 231.696 173.892 231.392C172.772 231.088 171.844 230.648 171.108 230.072L172.596 227.384C173.14 227.832 173.828 228.184 174.66 228.44C175.492 228.712 176.324 228.848 177.156 228.848C178.452 228.848 179.404 228.552 180.012 227.96C180.636 227.384 180.948 226.504 180.948 225.32V224.768C179.972 225.84 178.612 226.376 176.868 226.376C175.684 226.376 174.596 226.12 173.604 225.608C172.628 225.08 171.852 224.344 171.276 223.4C170.7 222.456 170.412 221.368 170.412 220.136C170.412 218.904 170.7 217.816 171.276 216.872C171.852 215.928 172.628 215.2 173.604 214.688C174.596 214.16 175.684 213.896 176.868 213.896C178.74 213.896 180.164 214.512 181.14 215.744V214.088H184.692ZM177.612 223.304C178.604 223.304 179.412 223.016 180.036 222.44C180.676 221.848 180.996 221.08 180.996 220.136C180.996 219.192 180.676 218.432 180.036 217.856C179.412 217.264 178.604 216.968 177.612 216.968C176.62 216.968 175.804 217.264 175.164 217.856C174.524 218.432 174.204 219.192 174.204 220.136C174.204 221.08 174.524 221.848 175.164 222.44C175.804 223.016 176.62 223.304 177.612 223.304ZM201.184 220.592C201.184 220.64 201.16 220.976 201.112 221.6H191.344C191.52 222.4 191.936 223.032 192.592 223.496C193.248 223.96 194.064 224.192 195.04 224.192C195.712 224.192 196.304 224.096 196.816 223.904C197.344 223.696 197.832 223.376 198.28 222.944L200.272 225.104C199.056 226.496 197.28 227.192 194.944 227.192C193.488 227.192 192.2 226.912 191.08 226.352C189.96 225.776 189.096 224.984 188.488 223.976C187.88 222.968 187.576 221.824 187.576 220.544C187.576 219.28 187.872 218.144 188.464 217.136C189.072 216.112 189.896 215.32 190.936 214.76C191.992 214.184 193.168 213.896 194.464 213.896C195.728 213.896 196.872 214.168 197.896 214.712C198.92 215.256 199.72 216.04 200.296 217.064C200.888 218.072 201.184 219.248 201.184 220.592ZM194.488 216.728C193.64 216.728 192.928 216.968 192.352 217.448C191.776 217.928 191.424 218.584 191.296 219.416H197.656C197.528 218.6 197.176 217.952 196.6 217.472C196.024 216.976 195.32 216.728 194.488 216.728ZM212.365 226.376C211.997 226.648 211.541 226.856 210.997 227C210.469 227.128 209.909 227.192 209.317 227.192C207.781 227.192 206.589 226.8 205.741 226.016C204.909 225.232 204.493 224.08 204.493 222.56V217.256H202.501V214.376H204.493V211.232H208.237V214.376H211.453V217.256H208.237V222.512C208.237 223.056 208.373 223.48 208.645 223.784C208.933 224.072 209.333 224.216 209.845 224.216C210.437 224.216 210.941 224.056 211.357 223.736L212.365 226.376ZM234.632 220.592C234.632 220.64 234.608 220.976 234.56 221.6H224.792C224.968 222.4 225.384 223.032 226.04 223.496C226.696 223.96 227.512 224.192 228.488 224.192C229.16 224.192 229.752 224.096 230.264 223.904C230.792 223.696 231.28 223.376 231.728 222.944L233.72 225.104C232.504 226.496 230.728 227.192 228.392 227.192C226.936 227.192 225.648 226.912 224.528 226.352C223.408 225.776 222.544 224.984 221.936 223.976C221.328 222.968 221.024 221.824 221.024 220.544C221.024 219.28 221.32 218.144 221.912 217.136C222.52 216.112 223.344 215.32 224.384 214.76C225.44 214.184 226.616 213.896 227.912 213.896C229.176 213.896 230.32 214.168 231.344 214.712C232.368 215.256 233.168 216.04 233.744 217.064C234.336 218.072 234.632 219.248 234.632 220.592ZM227.936 216.728C227.088 216.728 226.376 216.968 225.8 217.448C225.224 217.928 224.872 218.584 224.744 219.416H231.104C230.976 218.6 230.624 217.952 230.048 217.472C229.472 216.976 228.768 216.728 227.936 216.728ZM241.828 227.192C240.756 227.192 239.708 227.064 238.684 226.808C237.66 226.536 236.844 226.2 236.236 225.8L237.484 223.112C238.06 223.48 238.756 223.784 239.572 224.024C240.388 224.248 241.188 224.36 241.972 224.36C243.556 224.36 244.348 223.968 244.348 223.184C244.348 222.816 244.132 222.552 243.7 222.392C243.268 222.232 242.604 222.096 241.708 221.984C240.652 221.824 239.78 221.64 239.092 221.432C238.404 221.224 237.804 220.856 237.292 220.328C236.796 219.8 236.548 219.048 236.548 218.072C236.548 217.256 236.78 216.536 237.244 215.912C237.724 215.272 238.412 214.776 239.308 214.424C240.22 214.072 241.292 213.896 242.524 213.896C243.436 213.896 244.34 214 245.236 214.208C246.148 214.4 246.9 214.672 247.492 215.024L246.244 217.688C245.108 217.048 243.868 216.728 242.524 216.728C241.724 216.728 241.124 216.84 240.724 217.064C240.324 217.288 240.124 217.576 240.124 217.928C240.124 218.328 240.34 218.608 240.772 218.768C241.204 218.928 241.892 219.08 242.836 219.224C243.892 219.4 244.756 219.592 245.428 219.8C246.1 219.992 246.684 220.352 247.18 220.88C247.676 221.408 247.924 222.144 247.924 223.088C247.924 223.888 247.684 224.6 247.204 225.224C246.724 225.848 246.02 226.336 245.092 226.688C244.18 227.024 243.092 227.192 241.828 227.192ZM258.922 226.376C258.554 226.648 258.098 226.856 257.554 227C257.026 227.128 256.466 227.192 255.874 227.192C254.338 227.192 253.146 226.8 252.298 226.016C251.466 225.232 251.05 224.08 251.05 222.56V217.256H249.058V214.376H251.05V211.232H254.794V214.376H258.01V217.256H254.794V222.512C254.794 223.056 254.93 223.48 255.202 223.784C255.49 224.072 255.89 224.216 256.402 224.216C256.994 224.216 257.498 224.056 257.914 223.736L258.922 226.376ZM261.384 214.088H265.128V227H261.384V214.088ZM263.256 212.288C262.568 212.288 262.008 212.088 261.576 211.688C261.144 211.288 260.928 210.792 260.928 210.2C260.928 209.608 261.144 209.112 261.576 208.712C262.008 208.312 262.568 208.112 263.256 208.112C263.944 208.112 264.504 208.304 264.936 208.688C265.368 209.072 265.584 209.552 265.584 210.128C265.584 210.752 265.368 211.272 264.936 211.688C264.504 212.088 263.944 212.288 263.256 212.288ZM285.499 213.896C287.115 213.896 288.395 214.376 289.339 215.336C290.299 216.28 290.779 217.704 290.779 219.608V227H287.035V220.184C287.035 219.16 286.819 218.4 286.387 217.904C285.971 217.392 285.371 217.136 284.587 217.136C283.707 217.136 283.011 217.424 282.499 218C281.987 218.56 281.731 219.4 281.731 220.52V227H277.987V220.184C277.987 218.152 277.171 217.136 275.539 217.136C274.675 217.136 273.987 217.424 273.475 218C272.963 218.56 272.707 219.4 272.707 220.52V227H268.963V214.088H272.539V215.576C273.019 215.032 273.603 214.616 274.291 214.328C274.995 214.04 275.763 213.896 276.595 213.896C277.507 213.896 278.331 214.08 279.067 214.448C279.803 214.8 280.395 215.32 280.843 216.008C281.371 215.336 282.035 214.816 282.835 214.448C283.651 214.08 284.539 213.896 285.499 213.896ZM299.703 213.896C301.703 213.896 303.239 214.376 304.311 215.336C305.383 216.28 305.919 217.712 305.919 219.632V227H302.415V225.392C301.711 226.592 300.399 227.192 298.479 227.192C297.487 227.192 296.623 227.024 295.887 226.688C295.167 226.352 294.615 225.888 294.231 225.296C293.847 224.704 293.655 224.032 293.655 223.28C293.655 222.08 294.103 221.136 294.999 220.448C295.911 219.76 297.311 219.416 299.199 219.416H302.175C302.175 218.6 301.927 217.976 301.431 217.544C300.935 217.096 300.191 216.872 299.199 216.872C298.511 216.872 297.831 216.984 297.159 217.208C296.503 217.416 295.943 217.704 295.479 218.072L294.135 215.456C294.839 214.96 295.679 214.576 296.655 214.304C297.647 214.032 298.663 213.896 299.703 213.896ZM299.415 224.672C300.055 224.672 300.623 224.528 301.119 224.24C301.615 223.936 301.967 223.496 302.175 222.92V221.6H299.607C298.071 221.6 297.303 222.104 297.303 223.112C297.303 223.592 297.487 223.976 297.855 224.264C298.239 224.536 298.759 224.672 299.415 224.672ZM317.995 226.376C317.627 226.648 317.171 226.856 316.627 227C316.099 227.128 315.539 227.192 314.947 227.192C313.411 227.192 312.219 226.8 311.371 226.016C310.539 225.232 310.123 224.08 310.123 222.56V217.256H308.131V214.376H310.123V211.232H313.867V214.376H317.083V217.256H313.867V222.512C313.867 223.056 314.003 223.48 314.275 223.784C314.563 224.072 314.963 224.216 315.475 224.216C316.067 224.216 316.571 224.056 316.987 223.736L317.995 226.376ZM320.457 214.088H324.201V227H320.457V214.088ZM322.329 212.288C321.641 212.288 321.081 212.088 320.649 211.688C320.217 211.288 320.001 210.792 320.001 210.2C320.001 209.608 320.217 209.112 320.649 208.712C321.081 208.312 321.641 208.112 322.329 208.112C323.017 208.112 323.577 208.304 324.009 208.688C324.441 209.072 324.657 209.552 324.657 210.128C324.657 210.752 324.441 211.272 324.009 211.688C323.577 212.088 323.017 212.288 322.329 212.288ZM334.179 227.192C332.819 227.192 331.595 226.912 330.507 226.352C329.435 225.776 328.595 224.984 327.987 223.976C327.379 222.968 327.075 221.824 327.075 220.544C327.075 219.264 327.379 218.12 327.987 217.112C328.595 216.104 329.435 215.32 330.507 214.76C331.595 214.184 332.819 213.896 334.179 213.896C335.539 213.896 336.755 214.184 337.827 214.76C338.899 215.32 339.739 216.104 340.347 217.112C340.955 218.12 341.259 219.264 341.259 220.544C341.259 221.824 340.955 222.968 340.347 223.976C339.739 224.984 338.899 225.776 337.827 226.352C336.755 226.912 335.539 227.192 334.179 227.192ZM334.179 224.12C335.139 224.12 335.923 223.8 336.531 223.16C337.155 222.504 337.467 221.632 337.467 220.544C337.467 219.456 337.155 218.592 336.531 217.952C335.923 217.296 335.139 216.968 334.179 216.968C333.219 216.968 332.427 217.296 331.803 217.952C331.179 218.592 330.867 219.456 330.867 220.544C330.867 221.632 331.179 222.504 331.803 223.16C332.427 223.8 333.219 224.12 334.179 224.12ZM351.97 213.896C353.57 213.896 354.858 214.376 355.834 215.336C356.826 216.296 357.322 217.72 357.322 219.608V227H353.578V220.184C353.578 219.16 353.354 218.4 352.906 217.904C352.458 217.392 351.81 217.136 350.962 217.136C350.018 217.136 349.266 217.432 348.706 218.024C348.146 218.6 347.866 219.464 347.866 220.616V227H344.122V214.088H347.698V215.6C348.194 215.056 348.81 214.64 349.546 214.352C350.282 214.048 351.09 213.896 351.97 213.896Z" fill="#2B2B2B"/>
<path d="M105.296 369.328C104.464 369.328 103.752 369.04 103.16 368.464C102.584 367.872 102.296 367.144 102.296 366.28C102.296 365.416 102.584 364.696 103.16 364.12C103.752 363.544 104.464 363.256 105.296 363.256C106.128 363.256 106.832 363.544 107.408 364.12C108 364.696 108.296 365.416 108.296 366.28C108.296 367.144 108 367.872 107.408 368.464C106.832 369.04 106.128 369.328 105.296 369.328ZM135.262 356.2L127.99 373H124.15L116.902 356.2H121.102L126.214 368.2L131.398 356.2H135.262ZM141.944 373.192C140.584 373.192 139.36 372.912 138.272 372.352C137.2 371.776 136.36 370.984 135.752 369.976C135.144 368.968 134.84 367.824 134.84 366.544C134.84 365.264 135.144 364.12 135.752 363.112C136.36 362.104 137.2 361.32 138.272 360.76C139.36 360.184 140.584 359.896 141.944 359.896C143.304 359.896 144.52 360.184 145.592 360.76C146.664 361.32 147.504 362.104 148.112 363.112C148.72 364.12 149.024 365.264 149.024 366.544C149.024 367.824 148.72 368.968 148.112 369.976C147.504 370.984 146.664 371.776 145.592 372.352C144.52 372.912 143.304 373.192 141.944 373.192ZM141.944 370.12C142.904 370.12 143.688 369.8 144.296 369.16C144.92 368.504 145.232 367.632 145.232 366.544C145.232 365.456 144.92 364.592 144.296 363.952C143.688 363.296 142.904 362.968 141.944 362.968C140.984 362.968 140.192 363.296 139.568 363.952C138.944 364.592 138.632 365.456 138.632 366.544C138.632 367.632 138.944 368.504 139.568 369.16C140.192 369.8 140.984 370.12 141.944 370.12ZM151.887 360.088H155.631V373H151.887V360.088ZM153.759 358.288C153.071 358.288 152.511 358.088 152.079 357.688C151.647 357.288 151.431 356.792 151.431 356.2C151.431 355.608 151.647 355.112 152.079 354.712C152.511 354.312 153.071 354.112 153.759 354.112C154.447 354.112 155.007 354.304 155.439 354.688C155.871 355.072 156.087 355.552 156.087 356.128C156.087 356.752 155.871 357.272 155.439 357.688C155.007 358.088 154.447 358.288 153.759 358.288ZM165.705 373.192C164.329 373.192 163.089 372.912 161.985 372.352C160.897 371.776 160.041 370.984 159.417 369.976C158.809 368.968 158.505 367.824 158.505 366.544C158.505 365.264 158.809 364.12 159.417 363.112C160.041 362.104 160.897 361.32 161.985 360.76C163.089 360.184 164.329 359.896 165.705 359.896C167.065 359.896 168.249 360.184 169.257 360.76C170.281 361.32 171.025 362.128 171.489 363.184L168.585 364.744C167.913 363.56 166.945 362.968 165.681 362.968C164.705 362.968 163.897 363.288 163.257 363.928C162.617 364.568 162.297 365.44 162.297 366.544C162.297 367.648 162.617 368.52 163.257 369.16C163.897 369.8 164.705 370.12 165.681 370.12C166.961 370.12 167.929 369.528 168.585 368.344L171.489 369.928C171.025 370.952 170.281 371.752 169.257 372.328C168.249 372.904 167.065 373.192 165.705 373.192ZM186.489 366.592C186.489 366.64 186.465 366.976 186.417 367.6H176.649C176.825 368.4 177.241 369.032 177.897 369.496C178.553 369.96 179.369 370.192 180.345 370.192C181.017 370.192 181.609 370.096 182.121 369.904C182.649 369.696 183.137 369.376 183.585 368.944L185.577 371.104C184.361 372.496 182.585 373.192 180.249 373.192C178.793 373.192 177.505 372.912 176.385 372.352C175.265 371.776 174.401 370.984 173.793 369.976C173.185 368.968 172.881 367.824 172.881 366.544C172.881 365.28 173.177 364.144 173.769 363.136C174.377 362.112 175.201 361.32 176.241 360.76C177.297 360.184 178.473 359.896 179.769 359.896C181.033 359.896 182.177 360.168 183.201 360.712C184.225 361.256 185.025 362.04 185.601 363.064C186.193 364.072 186.489 365.248 186.489 366.592ZM179.793 362.728C178.945 362.728 178.233 362.968 177.657 363.448C177.081 363.928 176.729 364.584 176.601 365.416H182.961C182.833 364.6 182.481 363.952 181.905 363.472C181.329 362.976 180.625 362.728 179.793 362.728ZM196.499 360.088H200.243V373H196.499V360.088ZM198.371 358.288C197.683 358.288 197.123 358.088 196.691 357.688C196.259 357.288 196.043 356.792 196.043 356.2C196.043 355.608 196.259 355.112 196.691 354.712C197.123 354.312 197.683 354.112 198.371 354.112C199.059 354.112 199.619 354.304 200.051 354.688C200.483 355.072 200.699 355.552 200.699 356.128C200.699 356.752 200.483 357.272 200.051 357.688C199.619 358.088 199.059 358.288 198.371 358.288ZM211.925 359.896C213.525 359.896 214.813 360.376 215.789 361.336C216.781 362.296 217.277 363.72 217.277 365.608V373H213.533V366.184C213.533 365.16 213.309 364.4 212.861 363.904C212.413 363.392 211.765 363.136 210.917 363.136C209.973 363.136 209.221 363.432 208.661 364.024C208.101 364.6 207.821 365.464 207.821 366.616V373H204.077V360.088H207.653V361.6C208.149 361.056 208.765 360.64 209.501 360.352C210.237 360.048 211.045 359.896 211.925 359.896ZM229.359 372.376C228.991 372.648 228.535 372.856 227.991 373C227.463 373.128 226.903 373.192 226.311 373.192C224.775 373.192 223.583 372.8 222.735 372.016C221.903 371.232 221.487 370.08 221.487 368.56V363.256H219.495V360.376H221.487V357.232H225.231V360.376H228.447V363.256H225.231V368.512C225.231 369.056 225.367 369.48 225.639 369.784C225.927 370.072 226.327 370.216 226.839 370.216C227.431 370.216 227.935 370.056 228.351 369.736L229.359 372.376ZM244.07 366.592C244.07 366.64 244.046 366.976 243.998 367.6H234.23C234.406 368.4 234.822 369.032 235.478 369.496C236.134 369.96 236.95 370.192 237.926 370.192C238.598 370.192 239.19 370.096 239.702 369.904C240.23 369.696 240.718 369.376 241.166 368.944L243.158 371.104C241.942 372.496 240.166 373.192 237.83 373.192C236.374 373.192 235.086 372.912 233.966 372.352C232.846 371.776 231.982 370.984 231.374 369.976C230.766 368.968 230.462 367.824 230.462 366.544C230.462 365.28 230.758 364.144 231.35 363.136C231.958 362.112 232.782 361.32 233.822 360.76C234.878 360.184 236.054 359.896 237.35 359.896C238.614 359.896 239.758 360.168 240.782 360.712C241.806 361.256 242.606 362.04 243.182 363.064C243.774 364.072 244.07 365.248 244.07 366.592ZM237.374 362.728C236.526 362.728 235.814 362.968 235.238 363.448C234.662 363.928 234.31 364.584 234.182 365.416H240.542C240.414 364.6 240.062 363.952 239.486 363.472C238.91 362.976 238.206 362.728 237.374 362.728ZM260.243 360.088V370.84C260.243 373.208 259.627 374.968 258.395 376.12C257.163 377.272 255.363 377.848 252.995 377.848C251.747 377.848 250.563 377.696 249.443 377.392C248.323 377.088 247.395 376.648 246.659 376.072L248.147 373.384C248.691 373.832 249.379 374.184 250.211 374.44C251.043 374.712 251.875 374.848 252.707 374.848C254.003 374.848 254.955 374.552 255.563 373.96C256.187 373.384 256.499 372.504 256.499 371.32V370.768C255.523 371.84 254.163 372.376 252.419 372.376C251.235 372.376 250.147 372.12 249.155 371.608C248.179 371.08 247.403 370.344 246.827 369.4C246.251 368.456 245.963 367.368 245.963 366.136C245.963 364.904 246.251 363.816 246.827 362.872C247.403 361.928 248.179 361.2 249.155 360.688C250.147 360.16 251.235 359.896 252.419 359.896C254.291 359.896 255.715 360.512 256.691 361.744V360.088H260.243ZM253.163 369.304C254.155 369.304 254.963 369.016 255.587 368.44C256.227 367.848 256.547 367.08 256.547 366.136C256.547 365.192 256.227 364.432 255.587 363.856C254.963 363.264 254.155 362.968 253.163 362.968C252.171 362.968 251.355 363.264 250.715 363.856C250.075 364.432 249.755 365.192 249.755 366.136C249.755 367.08 250.075 367.848 250.715 368.44C251.355 369.016 252.171 369.304 253.163 369.304ZM267.664 361.792C268.112 361.168 268.712 360.696 269.464 360.376C270.232 360.056 271.112 359.896 272.104 359.896V363.352C271.688 363.32 271.408 363.304 271.264 363.304C270.192 363.304 269.352 363.608 268.744 364.216C268.136 364.808 267.832 365.704 267.832 366.904V373H264.088V360.088H267.664V361.792ZM279.828 359.896C281.828 359.896 283.364 360.376 284.436 361.336C285.508 362.28 286.044 363.712 286.044 365.632V373H282.54V371.392C281.836 372.592 280.524 373.192 278.604 373.192C277.612 373.192 276.748 373.024 276.012 372.688C275.292 372.352 274.74 371.888 274.356 371.296C273.972 370.704 273.78 370.032 273.78 369.28C273.78 368.08 274.228 367.136 275.124 366.448C276.036 365.76 277.436 365.416 279.324 365.416H282.3C282.3 364.6 282.052 363.976 281.556 363.544C281.06 363.096 280.316 362.872 279.324 362.872C278.636 362.872 277.956 362.984 277.284 363.208C276.628 363.416 276.068 363.704 275.604 364.072L274.26 361.456C274.964 360.96 275.804 360.576 276.78 360.304C277.772 360.032 278.788 359.896 279.828 359.896ZM279.54 370.672C280.18 370.672 280.748 370.528 281.244 370.24C281.74 369.936 282.092 369.496 282.3 368.92V367.6H279.732C278.196 367.6 277.428 368.104 277.428 369.112C277.428 369.592 277.612 369.976 277.98 370.264C278.364 370.536 278.884 370.672 279.54 370.672ZM298.12 372.376C297.752 372.648 297.296 372.856 296.752 373C296.224 373.128 295.664 373.192 295.072 373.192C293.536 373.192 292.344 372.8 291.496 372.016C290.664 371.232 290.248 370.08 290.248 368.56V363.256H288.256V360.376H290.248V357.232H293.992V360.376H297.208V363.256H293.992V368.512C293.992 369.056 294.128 369.48 294.4 369.784C294.688 370.072 295.088 370.216 295.6 370.216C296.192 370.216 296.696 370.056 297.112 369.736L298.12 372.376ZM300.582 360.088H304.326V373H300.582V360.088ZM302.454 358.288C301.766 358.288 301.206 358.088 300.774 357.688C300.342 357.288 300.126 356.792 300.126 356.2C300.126 355.608 300.342 355.112 300.774 354.712C301.206 354.312 301.766 354.112 302.454 354.112C303.142 354.112 303.702 354.304 304.134 354.688C304.566 355.072 304.782 355.552 304.782 356.128C304.782 356.752 304.566 357.272 304.134 357.688C303.702 358.088 303.142 358.288 302.454 358.288ZM314.304 373.192C312.944 373.192 311.72 372.912 310.632 372.352C309.56 371.776 308.72 370.984 308.112 369.976C307.504 368.968 307.2 367.824 307.2 366.544C307.2 365.264 307.504 364.12 308.112 363.112C308.72 362.104 309.56 361.32 310.632 360.76C311.72 360.184 312.944 359.896 314.304 359.896C315.664 359.896 316.88 360.184 317.952 360.76C319.024 361.32 319.864 362.104 320.472 363.112C321.08 364.12 321.384 365.264 321.384 366.544C321.384 367.824 321.08 368.968 320.472 369.976C319.864 370.984 319.024 371.776 317.952 372.352C316.88 372.912 315.664 373.192 314.304 373.192ZM314.304 370.12C315.264 370.12 316.048 369.8 316.656 369.16C317.28 368.504 317.592 367.632 317.592 366.544C317.592 365.456 317.28 364.592 316.656 363.952C316.048 363.296 315.264 362.968 314.304 362.968C313.344 362.968 312.552 363.296 311.928 363.952C311.304 364.592 310.992 365.456 310.992 366.544C310.992 367.632 311.304 368.504 311.928 369.16C312.552 369.8 313.344 370.12 314.304 370.12ZM332.095 359.896C333.695 359.896 334.983 360.376 335.959 361.336C336.951 362.296 337.447 363.72 337.447 365.608V373H333.703V366.184C333.703 365.16 333.479 364.4 333.031 363.904C332.583 363.392 331.935 363.136 331.087 363.136C330.143 363.136 329.391 363.432 328.831 364.024C328.271 364.6 327.991 365.464 327.991 366.616V373H324.247V360.088H327.823V361.6C328.319 361.056 328.935 360.64 329.671 360.352C330.407 360.048 331.215 359.896 332.095 359.896Z" fill="#2B2B2B"/>
<path d="M106.296 296.328C105.464 296.328 104.752 296.04 104.16 295.464C103.584 294.872 103.296 294.144 103.296 293.28C103.296 292.416 103.584 291.696 104.16 291.12C104.752 290.544 105.464 290.256 106.296 290.256C107.128 290.256 107.832 290.544 108.408 291.12C109 291.696 109.296 292.416 109.296 293.28C109.296 294.144 109 294.872 108.408 295.464C107.832 296.04 107.128 296.328 106.296 296.328ZM135.398 300L135.374 289.92L130.43 298.224H128.678L123.758 290.136V300H120.11V283.2H123.326L129.614 293.64L135.806 283.2H138.998L139.046 300H135.398ZM148.336 286.896C150.336 286.896 151.872 287.376 152.944 288.336C154.016 289.28 154.552 290.712 154.552 292.632V300H151.048V298.392C150.344 299.592 149.032 300.192 147.112 300.192C146.12 300.192 145.256 300.024 144.52 299.688C143.8 299.352 143.248 298.888 142.864 298.296C142.48 297.704 142.288 297.032 142.288 296.28C142.288 295.08 142.736 294.136 143.632 293.448C144.544 292.76 145.944 292.416 147.832 292.416H150.808C150.808 291.6 150.56 290.976 150.064 290.544C149.568 290.096 148.824 289.872 147.832 289.872C147.144 289.872 146.464 289.984 145.792 290.208C145.136 290.416 144.576 290.704 144.112 291.072L142.768 288.456C143.472 287.96 144.312 287.576 145.288 287.304C146.28 287.032 147.296 286.896 148.336 286.896ZM148.048 297.672C148.688 297.672 149.256 297.528 149.752 297.24C150.248 296.936 150.6 296.496 150.808 295.92V294.6H148.24C146.704 294.6 145.936 295.104 145.936 296.112C145.936 296.592 146.12 296.976 146.488 297.264C146.872 297.536 147.392 297.672 148.048 297.672ZM165.933 286.896C167.133 286.896 168.221 287.176 169.197 287.736C170.189 288.28 170.965 289.056 171.525 290.064C172.085 291.056 172.365 292.216 172.365 293.544C172.365 294.872 172.085 296.04 171.525 297.048C170.965 298.04 170.189 298.816 169.197 299.376C168.221 299.92 167.133 300.192 165.933 300.192C164.285 300.192 162.989 299.672 162.045 298.632V304.656H158.301V287.088H161.877V288.576C162.805 287.456 164.157 286.896 165.933 286.896ZM165.285 297.12C166.245 297.12 167.029 296.8 167.637 296.16C168.261 295.504 168.573 294.632 168.573 293.544C168.573 292.456 168.261 291.592 167.637 290.952C167.029 290.296 166.245 289.968 165.285 289.968C164.325 289.968 163.533 290.296 162.909 290.952C162.301 291.592 161.997 292.456 161.997 293.544C161.997 294.632 162.301 295.504 162.909 296.16C163.533 296.8 164.325 297.12 165.285 297.12Z" fill="#2B2B2B"/>
</svg>
