<svg width="609" height="293" viewBox="0 0 609 293" fill="none" xmlns="http://www.w3.org/2000/svg">
<path d="M9.196 27.176C7.656 27.176 6.26267 26.8387 5.016 26.164C3.784 25.4747 2.816 24.536 2.112 23.348C1.408 22.1453 1.056 20.796 1.056 19.3C1.056 17.804 1.408 16.462 2.112 15.274C2.816 14.0713 3.79133 13.1327 5.038 12.458C6.28467 11.7687 7.678 11.424 9.218 11.424C10.4207 11.424 11.5207 11.6293 12.518 12.04C13.5153 12.436 14.366 13.03 15.07 13.822L13.64 15.208C12.4813 13.9907 11.0367 13.382 9.306 13.382C8.162 13.382 7.128 13.6387 6.204 14.152C5.28 14.6653 4.554 15.3767 4.026 16.286C3.51267 17.1807 3.256 18.1853 3.256 19.3C3.256 20.4147 3.51267 21.4267 4.026 22.336C4.554 23.2307 5.28 23.9347 6.204 24.448C7.128 24.9613 8.162 25.218 9.306 25.218C11.022 25.218 12.4667 24.602 13.64 23.37L15.07 24.756C14.366 25.548 13.508 26.1493 12.496 26.56C11.4987 26.9707 10.3987 27.176 9.196 27.176ZM22.7303 27.132C21.5716 27.132 20.5303 26.8753 19.6063 26.362C18.6823 25.8487 17.9563 25.1447 17.4283 24.25C16.915 23.3407 16.6583 22.314 16.6583 21.17C16.6583 20.026 16.915 19.0067 17.4283 18.112C17.9563 17.2027 18.6823 16.4987 19.6063 16C20.5303 15.4867 21.5716 15.23 22.7303 15.23C23.889 15.23 24.923 15.4867 25.8323 16C26.7563 16.4987 27.475 17.2027 27.9883 18.112C28.5163 19.0067 28.7803 20.026 28.7803 21.17C28.7803 22.314 28.5163 23.3407 27.9883 24.25C27.475 25.1447 26.7563 25.8487 25.8323 26.362C24.923 26.8753 23.889 27.132 22.7303 27.132ZM22.7303 25.284C23.4783 25.284 24.1456 25.1153 24.7323 24.778C25.3336 24.426 25.803 23.942 26.1403 23.326C26.4776 22.6953 26.6463 21.9767 26.6463 21.17C26.6463 20.3633 26.4776 19.652 26.1403 19.036C25.803 18.4053 25.3336 17.9213 24.7323 17.584C24.1456 17.2467 23.4783 17.078 22.7303 17.078C21.9823 17.078 21.3076 17.2467 20.7063 17.584C20.1196 17.9213 19.6503 18.4053 19.2983 19.036C18.961 19.652 18.7923 20.3633 18.7923 21.17C18.7923 21.9767 18.961 22.6953 19.2983 23.326C19.6503 23.942 20.1196 24.426 20.7063 24.778C21.3076 25.1153 21.9823 25.284 22.7303 25.284ZM32.0311 10.676H34.1431V27H32.0311V10.676ZM43.4997 27.132C42.341 27.132 41.2997 26.8753 40.3757 26.362C39.4517 25.8487 38.7257 25.1447 38.1977 24.25C37.6843 23.3407 37.4277 22.314 37.4277 21.17C37.4277 20.026 37.6843 19.0067 38.1977 18.112C38.7257 17.2027 39.4517 16.4987 40.3757 16C41.2997 15.4867 42.341 15.23 43.4997 15.23C44.6583 15.23 45.6923 15.4867 46.6017 16C47.5257 16.4987 48.2443 17.2027 48.7577 18.112C49.2857 19.0067 49.5497 20.026 49.5497 21.17C49.5497 22.314 49.2857 23.3407 48.7577 24.25C48.2443 25.1447 47.5257 25.8487 46.6017 26.362C45.6923 26.8753 44.6583 27.132 43.4997 27.132ZM43.4997 25.284C44.2477 25.284 44.915 25.1153 45.5017 24.778C46.103 24.426 46.5723 23.942 46.9097 23.326C47.247 22.6953 47.4157 21.9767 47.4157 21.17C47.4157 20.3633 47.247 19.652 46.9097 19.036C46.5723 18.4053 46.103 17.9213 45.5017 17.584C44.915 17.2467 44.2477 17.078 43.4997 17.078C42.7517 17.078 42.077 17.2467 41.4757 17.584C40.889 17.9213 40.4197 18.4053 40.0677 19.036C39.7303 19.652 39.5617 20.3633 39.5617 21.17C39.5617 21.9767 39.7303 22.6953 40.0677 23.326C40.4197 23.942 40.889 24.426 41.4757 24.778C42.077 25.1153 42.7517 25.284 43.4997 25.284ZM54.8245 17.298C55.1912 16.6233 55.7338 16.11 56.4525 15.758C57.1712 15.406 58.0438 15.23 59.0705 15.23V17.276C58.9532 17.2613 58.7918 17.254 58.5865 17.254C57.4425 17.254 56.5405 17.5987 55.8805 18.288C55.2352 18.9627 54.9125 19.9307 54.9125 21.192V27H52.8005V15.34H54.8245V17.298ZM65.4335 27.132C64.4802 27.132 63.5635 27.0073 62.6835 26.758C61.8035 26.494 61.1142 26.164 60.6155 25.768L61.4955 24.096C62.0088 24.4627 62.6322 24.756 63.3655 24.976C64.0988 25.196 64.8395 25.306 65.5875 25.306C67.4355 25.306 68.3595 24.778 68.3595 23.722C68.3595 23.37 68.2348 23.0913 67.9855 22.886C67.7362 22.6807 67.4208 22.534 67.0395 22.446C66.6728 22.3433 66.1448 22.2333 65.4555 22.116C64.5168 21.9693 63.7468 21.8007 63.1455 21.61C62.5588 21.4193 62.0528 21.0967 61.6275 20.642C61.2022 20.1873 60.9895 19.5493 60.9895 18.728C60.9895 17.672 61.4295 16.8287 62.3095 16.198C63.1895 15.5527 64.3702 15.23 65.8515 15.23C66.6288 15.23 67.4062 15.3253 68.1835 15.516C68.9608 15.7067 69.5988 15.9633 70.0975 16.286L69.1955 17.958C68.2422 17.342 67.1202 17.034 65.8295 17.034C64.9348 17.034 64.2528 17.1807 63.7835 17.474C63.3142 17.7673 63.0795 18.156 63.0795 18.64C63.0795 19.0213 63.2115 19.322 63.4755 19.542C63.7395 19.762 64.0622 19.9233 64.4435 20.026C64.8395 20.1287 65.3895 20.246 66.0935 20.378C67.0322 20.5393 67.7875 20.7153 68.3595 20.906C68.9462 21.082 69.4448 21.39 69.8555 21.83C70.2662 22.27 70.4715 22.886 70.4715 23.678C70.4715 24.734 70.0168 25.5773 69.1075 26.208C68.2128 26.824 66.9882 27.132 65.4335 27.132Z" fill="white"/>
<rect y="86" width="609" height="207" rx="60" fill="#C5C4C4"/>
<rect x="189" y="144" width="98" height="97" rx="20" fill="#3A3A3A"/>
<rect x="51" y="144" width="98" height="97" rx="20" fill="#1F1F1F"/>
<rect x="328" y="143" width="98" height="97" rx="20" fill="#396AF5"/>
<rect x="467" y="143" width="97" height="97" rx="20" fill="#FFE598"/>
</svg>
