<svg width="327" height="396" viewBox="0 0 327 396" fill="none" xmlns="http://www.w3.org/2000/svg">
<path d="M4.57605 222.645H11.1015V236.94H19.8389V242H4.57605V222.645ZM28.9068 226.599C31.5612 226.599 33.5888 227.198 34.9898 228.396C36.3907 229.576 37.0912 231.401 37.0912 233.871V242H31.2847V240.009C30.5658 241.521 29.1372 242.277 26.9989 242.277C25.8007 242.277 24.7777 242.074 23.9298 241.668C23.1003 241.244 22.4643 240.682 22.0219 239.982C21.5979 239.263 21.386 238.461 21.386 237.576C21.386 236.083 21.9574 234.949 23.1003 234.175C24.2431 233.401 25.9759 233.014 28.2985 233.014H30.8146C30.6118 231.834 29.6625 231.244 27.9667 231.244C27.2846 231.244 26.5934 231.355 25.8929 231.576C25.1924 231.779 24.5934 232.064 24.0957 232.433L22.1049 228.313C22.9712 227.779 24.0127 227.364 25.2293 227.069C26.4643 226.756 27.6902 226.599 28.9068 226.599ZM28.8791 238.516C29.3215 238.516 29.7178 238.396 30.0681 238.157C30.4183 237.917 30.6764 237.558 30.8423 237.078V236.028H29.2939C28.022 236.028 27.386 236.452 27.386 237.3C27.386 237.65 27.515 237.945 27.7731 238.184C28.0496 238.405 28.4183 238.516 28.8791 238.516ZM46.1513 228.507C47.2573 227.235 48.8886 226.599 51.0453 226.599V232.129C50.5476 232.055 50.0868 232.018 49.6628 232.018C47.5246 232.018 46.4554 233.106 46.4554 235.281V242H40.2065V226.875H46.1513V228.507ZM69.9903 226.875V238.986C69.9903 241.862 69.1885 244.018 67.5848 245.456C65.9995 246.912 63.7322 247.641 60.7829 247.641C59.2713 247.641 57.8612 247.475 56.5524 247.143C55.2437 246.83 54.1284 246.369 53.2068 245.76L55.3082 241.502C55.898 241.945 56.6446 242.304 57.5478 242.581C58.4511 242.857 59.3174 242.995 60.1469 242.995C61.4004 242.995 62.3128 242.728 62.8843 242.194C63.4557 241.659 63.7414 240.876 63.7414 239.843V239.567C62.8013 240.636 61.4096 241.17 59.5663 241.17C58.2759 241.17 57.0686 240.876 55.9441 240.286C54.8381 239.677 53.9533 238.82 53.2897 237.714C52.6261 236.59 52.2943 235.309 52.2943 233.871C52.2943 232.433 52.6261 231.161 53.2897 230.055C53.9533 228.949 54.8381 228.101 55.9441 227.511C57.0686 226.903 58.2759 226.599 59.5663 226.599C61.6308 226.599 63.1239 227.263 64.0456 228.59V226.875H69.9903ZM61.2253 236.304C61.9626 236.304 62.5709 236.083 63.0502 235.64C63.5479 235.18 63.7967 234.59 63.7967 233.871C63.7967 233.152 63.5479 232.571 63.0502 232.129C62.5709 231.687 61.9626 231.465 61.2253 231.465C60.4695 231.465 59.8428 231.687 59.3451 232.129C58.8658 232.571 58.6262 233.152 58.6262 233.871C58.6262 234.59 58.875 235.18 59.3727 235.64C59.8704 236.083 60.4879 236.304 61.2253 236.304ZM89.2607 234.424C89.2607 234.516 89.233 235.005 89.1777 235.889H78.6707C78.8919 236.461 79.2606 236.903 79.7767 237.217C80.2928 237.511 80.938 237.659 81.7122 237.659C82.3758 237.659 82.9288 237.576 83.3712 237.41C83.832 237.244 84.3297 236.958 84.8643 236.553L88.127 239.843C86.6523 241.465 84.4496 242.277 81.5187 242.277C79.6938 242.277 78.0901 241.945 76.7076 241.281C75.3251 240.599 74.2559 239.659 73.5002 238.461C72.7444 237.263 72.3665 235.917 72.3665 234.424C72.3665 232.912 72.7352 231.567 73.4725 230.387C74.2283 229.189 75.2513 228.258 76.5417 227.594C77.8504 226.931 79.3159 226.599 80.938 226.599C82.468 226.599 83.8597 226.903 85.1132 227.511C86.3851 228.12 87.3897 229.014 88.127 230.193C88.8828 231.373 89.2607 232.783 89.2607 234.424ZM80.9933 230.857C80.3481 230.857 79.8136 231.032 79.3896 231.382C78.9656 231.733 78.6891 232.23 78.5601 232.875H83.4265C83.2975 232.249 83.021 231.76 82.597 231.41C82.173 231.041 81.6385 230.857 80.9933 230.857ZM111.495 241.475C110.555 242.009 109.273 242.277 107.651 242.277C105.532 242.277 103.9 241.77 102.757 240.756C101.614 239.723 101.043 238.184 101.043 236.138V232.267H98.9693V227.705H101.043V223.474H107.292V227.705H110.389V232.267H107.292V236.083C107.292 236.544 107.412 236.903 107.651 237.161C107.891 237.419 108.204 237.548 108.591 237.548C109.126 237.548 109.596 237.41 110.002 237.134L111.495 241.475ZM113.484 226.875H119.733V242H113.484V226.875ZM116.609 225.659C115.484 225.659 114.572 225.364 113.872 224.774C113.189 224.166 112.848 223.401 112.848 222.479C112.848 221.557 113.189 220.802 113.872 220.212C114.572 219.603 115.484 219.299 116.609 219.299C117.752 219.299 118.664 219.585 119.346 220.156C120.028 220.728 120.369 221.465 120.369 222.368C120.369 223.327 120.028 224.12 119.346 224.746C118.664 225.355 117.752 225.659 116.609 225.659ZM134.061 241.475C133.121 242.009 131.84 242.277 130.217 242.277C128.098 242.277 126.466 241.77 125.323 240.756C124.181 239.723 123.609 238.184 123.609 236.138V232.267H121.535V227.705H123.609V223.474H129.858V227.705H132.955V232.267H129.858V236.083C129.858 236.544 129.978 236.903 130.217 237.161C130.457 237.419 130.77 237.548 131.158 237.548C131.692 237.548 132.162 237.41 132.568 237.134L134.061 241.475ZM136.05 221.484H142.299V242H136.05V221.484ZM161.576 234.424C161.576 234.516 161.549 235.005 161.493 235.889H150.986C151.207 236.461 151.576 236.903 152.092 237.217C152.608 237.511 153.254 237.659 154.028 237.659C154.691 237.659 155.244 237.576 155.687 237.41C156.148 237.244 156.645 236.958 157.18 236.553L160.443 239.843C158.968 241.465 156.765 242.277 153.834 242.277C152.009 242.277 150.406 241.945 149.023 241.281C147.641 240.599 146.571 239.659 145.816 238.461C145.06 237.263 144.682 235.917 144.682 234.424C144.682 232.912 145.051 231.567 145.788 230.387C146.544 229.189 147.567 228.258 148.857 227.594C150.166 226.931 151.631 226.599 153.254 226.599C154.784 226.599 156.175 226.903 157.429 227.511C158.701 228.12 159.705 229.014 160.443 230.193C161.198 231.373 161.576 232.783 161.576 234.424ZM153.309 230.857C152.664 230.857 152.129 231.032 151.705 231.382C151.281 231.733 151.005 232.23 150.876 232.875H155.742C155.613 232.249 155.337 231.76 154.913 231.41C154.489 231.041 153.954 230.857 153.309 230.857Z" fill="white"/>
<path d="M8.04576 276.489H3.09216V272.872H17.5382V276.489H12.6077V289H8.04576V276.489ZM19.1285 276.512H23.5061V289H19.1285V276.512ZM21.3173 275.13C20.5186 275.13 19.8735 274.907 19.382 274.462C18.8905 274.016 18.6447 273.463 18.6447 272.803C18.6447 272.142 18.8905 271.589 19.382 271.144C19.8735 270.699 20.5186 270.476 21.3173 270.476C22.1161 270.476 22.7612 270.691 23.2527 271.121C23.7442 271.536 23.99 272.073 23.99 272.734C23.99 273.425 23.7442 274.001 23.2527 274.462C22.7612 274.907 22.1161 275.13 21.3173 275.13ZM35.3136 288.493C34.945 288.724 34.4918 288.9 33.9542 289.023C33.432 289.146 32.8714 289.207 32.2723 289.207C30.6442 289.207 29.3923 288.808 28.5168 288.009C27.6413 287.211 27.2035 286.02 27.2035 284.438V280.245H25.3834V276.973H27.2035V273.724H31.5811V276.973H34.4381V280.245H31.5811V284.392C31.5811 284.837 31.6963 285.191 31.9267 285.452C32.1725 285.698 32.495 285.82 32.8944 285.82C33.4013 285.82 33.8467 285.69 34.2307 285.429L35.3136 288.493ZM37.3472 271.904H41.7248V289H37.3472V271.904ZM57.6795 282.779C57.6795 282.81 57.6565 283.171 57.6104 283.862H48.5326C48.7169 284.507 49.0702 285.006 49.5925 285.36C50.1301 285.698 50.7982 285.867 51.5969 285.867C52.196 285.867 52.7105 285.782 53.1406 285.613C53.5861 285.444 54.0315 285.168 54.4769 284.784L56.7809 287.18C55.5675 288.532 53.7934 289.207 51.4587 289.207C49.9995 289.207 48.7169 288.931 47.611 288.378C46.5051 287.825 45.6449 287.057 45.0305 286.074C44.4315 285.091 44.132 283.977 44.132 282.733C44.132 281.504 44.4238 280.406 45.0075 279.438C45.6065 278.455 46.4283 277.687 47.4728 277.134C48.5173 276.581 49.6923 276.305 50.9979 276.305C52.2421 276.305 53.371 276.566 54.3848 277.088C55.3985 277.595 56.1973 278.34 56.7809 279.323C57.38 280.291 57.6795 281.443 57.6795 282.779ZM51.0209 279.415C50.3451 279.415 49.7768 279.607 49.316 279.991C48.8705 280.375 48.5864 280.898 48.4635 281.558H53.5784C53.4555 280.898 53.1637 280.375 52.7029 279.991C52.2574 279.607 51.6968 279.415 51.0209 279.415Z" fill="white"/>
<path d="M9.0096 325.23C7.9472 325.23 6.9168 325.09 5.9184 324.808C4.9328 324.514 4.1392 324.136 3.5376 323.675L4.5936 321.333C5.1696 321.755 5.8544 322.094 6.648 322.35C7.4416 322.606 8.2352 322.734 9.0288 322.734C9.912 322.734 10.5648 322.606 10.9872 322.35C11.4096 322.082 11.6208 321.73 11.6208 321.294C11.6208 320.974 11.4928 320.712 11.2368 320.507C10.9936 320.29 10.6736 320.117 10.2768 319.989C9.8928 319.861 9.368 319.72 8.7024 319.566C7.6784 319.323 6.84 319.08 6.1872 318.837C5.5344 318.594 4.9712 318.203 4.4976 317.666C4.0368 317.128 3.8064 316.411 3.8064 315.515C3.8064 314.734 4.0176 314.03 4.44 313.403C4.8624 312.763 5.496 312.258 6.3408 311.886C7.1984 311.515 8.2416 311.33 9.4704 311.33C10.328 311.33 11.1664 311.432 11.9856 311.637C12.8048 311.842 13.5216 312.136 14.136 312.52L13.176 314.882C11.9344 314.178 10.6928 313.826 9.4512 313.826C8.5808 313.826 7.9344 313.966 7.512 314.248C7.1024 314.53 6.8976 314.901 6.8976 315.362C6.8976 315.822 7.1344 316.168 7.608 316.398C8.0944 316.616 8.8304 316.834 9.816 317.051C10.84 317.294 11.6784 317.538 12.3312 317.781C12.984 318.024 13.5408 318.408 14.0016 318.933C14.4752 319.458 14.712 320.168 14.712 321.064C14.712 321.832 14.4944 322.536 14.0592 323.176C13.6368 323.803 12.9968 324.302 12.1392 324.674C11.2816 325.045 10.2384 325.23 9.0096 325.23ZM27.3206 314.67V325H24.479V323.771C24.0822 324.219 23.6086 324.565 23.0582 324.808C22.5078 325.038 21.9126 325.154 21.2726 325.154C19.9158 325.154 18.8406 324.763 18.047 323.982C17.2534 323.202 16.8566 322.043 16.8566 320.507V314.67H19.8518V320.066C19.8518 321.73 20.5494 322.562 21.9446 322.562C22.6614 322.562 23.2374 322.331 23.6726 321.87C24.1078 321.397 24.3254 320.699 24.3254 319.778V314.67H27.3206ZM36.489 314.517C37.449 314.517 38.3194 314.741 39.1002 315.189C39.8938 315.624 40.5146 316.245 40.9626 317.051C41.4106 317.845 41.6346 318.773 41.6346 319.835C41.6346 320.898 41.4106 321.832 40.9626 322.638C40.5146 323.432 39.8938 324.053 39.1002 324.501C38.3194 324.936 37.449 325.154 36.489 325.154C35.0682 325.154 33.9866 324.706 33.2442 323.81V325H30.3834V310.754H33.3786V315.765C34.1338 314.933 35.1706 314.517 36.489 314.517ZM35.9706 322.696C36.7386 322.696 37.3658 322.44 37.8522 321.928C38.3514 321.403 38.601 320.706 38.601 319.835C38.601 318.965 38.3514 318.274 37.8522 317.762C37.3658 317.237 36.7386 316.974 35.9706 316.974C35.2026 316.974 34.569 317.237 34.0698 317.762C33.5834 318.274 33.3402 318.965 33.3402 319.835C33.3402 320.706 33.5834 321.403 34.0698 321.928C34.569 322.44 35.2026 322.696 35.9706 322.696ZM50.5901 324.501C50.2957 324.718 49.9309 324.885 49.4957 325C49.0733 325.102 48.6253 325.154 48.1517 325.154C46.9229 325.154 45.9693 324.84 45.2909 324.213C44.6253 323.586 44.2925 322.664 44.2925 321.448V317.205H42.6988V314.901H44.2925V312.386H47.2877V314.901H49.8605V317.205H47.2877V321.41C47.2877 321.845 47.3965 322.184 47.6141 322.427C47.8445 322.658 48.1645 322.773 48.5741 322.773C49.0477 322.773 49.4509 322.645 49.7837 322.389L50.5901 324.501ZM52.5594 314.67H55.5546V325H52.5594V314.67ZM54.057 313.23C53.5066 313.23 53.0586 313.07 52.713 312.75C52.3674 312.43 52.1946 312.034 52.1946 311.56C52.1946 311.086 52.3674 310.69 52.713 310.37C53.0586 310.05 53.5066 309.89 54.057 309.89C54.6074 309.89 55.0554 310.043 55.401 310.35C55.7466 310.658 55.9194 311.042 55.9194 311.502C55.9194 312.002 55.7466 312.418 55.401 312.75C55.0554 313.07 54.6074 313.23 54.057 313.23ZM65.2848 324.501C64.9904 324.718 64.6256 324.885 64.1904 325C63.768 325.102 63.32 325.154 62.8464 325.154C61.6176 325.154 60.664 324.84 59.9856 324.213C59.32 323.586 58.9872 322.664 58.9872 321.448V317.205H57.3936V314.901H58.9872V312.386H61.9824V314.901H64.5552V317.205H61.9824V321.41C61.9824 321.845 62.0912 322.184 62.3088 322.427C62.5392 322.658 62.8592 322.773 63.2688 322.773C63.7424 322.773 64.1456 322.645 64.4784 322.389L65.2848 324.501ZM67.2542 310.754H70.2494V325H67.2542V310.754ZM83.4356 319.874C83.4356 319.912 83.4164 320.181 83.378 320.68H75.5636C75.7044 321.32 76.0372 321.826 76.562 322.197C77.0868 322.568 77.7396 322.754 78.5204 322.754C79.058 322.754 79.5316 322.677 79.9412 322.523C80.3636 322.357 80.754 322.101 81.1124 321.755L82.706 323.483C81.7332 324.597 80.3124 325.154 78.4436 325.154C77.2788 325.154 76.2484 324.93 75.3524 324.482C74.4564 324.021 73.7652 323.387 73.2788 322.581C72.7924 321.774 72.5492 320.859 72.5492 319.835C72.5492 318.824 72.786 317.915 73.2596 317.109C73.746 316.29 74.4052 315.656 75.2372 315.208C76.082 314.747 77.0228 314.517 78.0596 314.517C79.0708 314.517 79.986 314.734 80.8052 315.17C81.6244 315.605 82.2644 316.232 82.7252 317.051C83.1988 317.858 83.4356 318.798 83.4356 319.874ZM78.0788 316.782C77.4004 316.782 76.8308 316.974 76.37 317.358C75.9092 317.742 75.6276 318.267 75.5252 318.933H80.6132C80.5108 318.28 80.2292 317.762 79.7684 317.378C79.3076 316.981 78.7444 316.782 78.0788 316.782Z" fill="white"/>
<path d="M12.552 356.176C13.192 356.379 13.6933 356.72 14.056 357.2C14.4187 357.669 14.6 358.251 14.6 358.944C14.6 359.925 14.216 360.683 13.448 361.216C12.6907 361.739 11.5813 362 10.12 362H4.328V350.8H9.8C11.1653 350.8 12.2107 351.061 12.936 351.584C13.672 352.107 14.04 352.816 14.04 353.712C14.04 354.256 13.9067 354.741 13.64 355.168C13.384 355.595 13.0213 355.931 12.552 356.176ZM6.904 352.752V355.392H9.48C10.12 355.392 10.6053 355.28 10.936 355.056C11.2667 354.832 11.432 354.501 11.432 354.064C11.432 353.627 11.2667 353.301 10.936 353.088C10.6053 352.864 10.12 352.752 9.48 352.752H6.904ZM9.928 360.048C10.6107 360.048 11.1227 359.936 11.464 359.712C11.816 359.488 11.992 359.141 11.992 358.672C11.992 357.744 11.304 357.28 9.928 357.28H6.904V360.048H9.928ZM20.7224 362.128C19.8157 362.128 18.9997 361.941 18.2744 361.568C17.5597 361.184 16.9997 360.656 16.5944 359.984C16.189 359.312 15.9864 358.549 15.9864 357.696C15.9864 356.843 16.189 356.08 16.5944 355.408C16.9997 354.736 17.5597 354.213 18.2744 353.84C18.9997 353.456 19.8157 353.264 20.7224 353.264C21.629 353.264 22.4397 353.456 23.1544 353.84C23.869 354.213 24.429 354.736 24.8344 355.408C25.2397 356.08 25.4424 356.843 25.4424 357.696C25.4424 358.549 25.2397 359.312 24.8344 359.984C24.429 360.656 23.869 361.184 23.1544 361.568C22.4397 361.941 21.629 362.128 20.7224 362.128ZM20.7224 360.08C21.3624 360.08 21.885 359.867 22.2904 359.44C22.7064 359.003 22.9144 358.421 22.9144 357.696C22.9144 356.971 22.7064 356.395 22.2904 355.968C21.885 355.531 21.3624 355.312 20.7224 355.312C20.0824 355.312 19.5544 355.531 19.1384 355.968C18.7224 356.395 18.5144 356.971 18.5144 357.696C18.5144 358.421 18.7224 359.003 19.1384 359.44C19.5544 359.867 20.0824 360.08 20.7224 360.08ZM36.1187 350.128V362H33.7347V361.008C33.1161 361.755 32.2201 362.128 31.0467 362.128C30.2361 362.128 29.5001 361.947 28.8387 361.584C28.1881 361.221 27.6761 360.704 27.3027 360.032C26.9294 359.36 26.7427 358.581 26.7427 357.696C26.7427 356.811 26.9294 356.032 27.3027 355.36C27.6761 354.688 28.1881 354.171 28.8387 353.808C29.5001 353.445 30.2361 353.264 31.0467 353.264C32.1454 353.264 33.0041 353.611 33.6227 354.304V350.128H36.1187ZM31.4787 360.08C32.1081 360.08 32.6308 359.867 33.0468 359.44C33.4627 359.003 33.6707 358.421 33.6707 357.696C33.6707 356.971 33.4627 356.395 33.0468 355.968C32.6308 355.531 32.1081 355.312 31.4787 355.312C30.8387 355.312 30.3107 355.531 29.8947 355.968C29.4787 356.395 29.2707 356.971 29.2707 357.696C29.2707 358.421 29.4787 359.003 29.8947 359.44C30.3107 359.867 30.8387 360.08 31.4787 360.08ZM47.2129 353.392L43.3249 362.528C42.9302 363.52 42.4395 364.219 41.8529 364.624C41.2769 365.029 40.5782 365.232 39.7569 365.232C39.3089 365.232 38.8662 365.163 38.4289 365.024C37.9915 364.885 37.6342 364.693 37.3569 364.448L38.2689 362.672C38.4609 362.843 38.6795 362.976 38.9249 363.072C39.1809 363.168 39.4315 363.216 39.6769 363.216C40.0182 363.216 40.2955 363.131 40.5089 362.96C40.7222 362.8 40.9142 362.528 41.0849 362.144L41.1169 362.064L37.3889 353.392H39.9649L42.3809 359.232L44.8129 353.392H47.2129Z" fill="white"/>
<path d="M8.57194 390.16C7.62107 390.16 6.75906 389.956 5.98592 389.547C5.22167 389.129 4.61737 388.556 4.17304 387.827C3.73759 387.09 3.51987 386.259 3.51987 385.334C3.51987 384.41 3.73759 383.584 4.17304 382.855C4.61737 382.118 5.22167 381.544 5.98592 381.136C6.75906 380.718 7.62551 380.509 8.58527 380.509C9.39396 380.509 10.1227 380.651 10.7714 380.936C11.429 381.22 11.98 381.629 12.4243 382.162L11.038 383.442C10.407 382.713 9.62501 382.349 8.69191 382.349C8.11428 382.349 7.59885 382.477 7.14563 382.735C6.69241 382.984 6.33694 383.335 6.07923 383.788C5.8304 384.241 5.70599 384.757 5.70599 385.334C5.70599 385.912 5.8304 386.428 6.07923 386.881C6.33694 387.334 6.69241 387.689 7.14563 387.947C7.59885 388.196 8.11428 388.32 8.69191 388.32C9.62501 388.32 10.407 387.952 11.038 387.214L12.4243 388.494C11.98 389.036 11.429 389.449 10.7714 389.733C10.1138 390.018 9.38063 390.16 8.57194 390.16ZM16.7765 382.722C17.8873 382.722 18.7404 382.988 19.3358 383.522C19.9312 384.046 20.2289 384.841 20.2289 385.908V390H18.2827V389.107C17.8917 389.773 17.163 390.107 16.0966 390.107C15.5456 390.107 15.0658 390.013 14.657 389.827C14.2571 389.64 13.9505 389.382 13.7372 389.054C13.5239 388.725 13.4173 388.352 13.4173 387.934C13.4173 387.267 13.6661 386.743 14.1638 386.361C14.6703 385.979 15.4479 385.788 16.4965 385.788H18.1494C18.1494 385.334 18.0117 384.988 17.7362 384.748C17.4607 384.499 17.0475 384.375 16.4965 384.375C16.1144 384.375 15.7367 384.437 15.3635 384.561C14.9991 384.677 14.6881 384.837 14.4304 385.041L13.6839 383.588C14.0749 383.313 14.5415 383.1 15.0835 382.948C15.6345 382.797 16.1988 382.722 16.7765 382.722ZM16.6165 388.707C16.972 388.707 17.2874 388.627 17.5629 388.467C17.8384 388.298 18.0339 388.054 18.1494 387.734V387.001H16.7231C15.87 387.001 15.4435 387.281 15.4435 387.841C15.4435 388.107 15.5456 388.32 15.75 388.48C15.9633 388.631 16.2521 388.707 16.6165 388.707ZM26.5498 382.722C27.2163 382.722 27.8206 382.877 28.3627 383.188C28.9137 383.491 29.3447 383.922 29.6557 384.481C29.9668 385.032 30.1223 385.677 30.1223 386.414C30.1223 387.152 29.9668 387.801 29.6557 388.36C29.3447 388.911 28.9137 389.342 28.3627 389.653C27.8206 389.956 27.2163 390.107 26.5498 390.107C25.6345 390.107 24.9147 389.818 24.3904 389.24V392.586H22.3109V382.828H24.2971V383.655C24.8125 383.033 25.5634 382.722 26.5498 382.722ZM26.1899 388.4C26.7231 388.4 27.1586 388.223 27.4963 387.867C27.8428 387.503 28.0161 387.019 28.0161 386.414C28.0161 385.81 27.8428 385.33 27.4963 384.975C27.1586 384.61 26.7231 384.428 26.1899 384.428C25.6567 384.428 25.2168 384.61 24.8703 384.975C24.5326 385.33 24.3637 385.81 24.3637 386.414C24.3637 387.019 24.5326 387.503 24.8703 387.867C25.2168 388.223 25.6567 388.4 26.1899 388.4ZM36.3398 389.653C36.1354 389.804 35.8821 389.92 35.58 390C35.2867 390.071 34.9757 390.107 34.6469 390.107C33.7938 390.107 33.1317 389.889 32.6607 389.453C32.1986 389.018 31.9675 388.378 31.9675 387.534V384.588H30.8612V382.988H31.9675V381.242H34.047V382.988H35.8332V384.588H34.047V387.507C34.047 387.809 34.1226 388.045 34.2736 388.214C34.4336 388.374 34.6558 388.454 34.9401 388.454C35.2689 388.454 35.5489 388.365 35.7799 388.187L36.3398 389.653ZM37.707 382.828H39.7865V390H37.707V382.828ZM38.7468 381.829C38.3647 381.829 38.0536 381.718 37.8137 381.495C37.5737 381.273 37.4538 380.998 37.4538 380.669C37.4538 380.34 37.5737 380.065 37.8137 379.843C38.0536 379.62 38.3647 379.509 38.7468 379.509C39.1289 379.509 39.4399 379.616 39.6799 379.829C39.9198 380.042 40.0398 380.309 40.0398 380.629C40.0398 380.976 39.9198 381.264 39.6799 381.495C39.4399 381.718 39.1289 381.829 38.7468 381.829ZM45.3289 390.107C44.5735 390.107 43.8937 389.951 43.2894 389.64C42.694 389.32 42.2274 388.88 41.8898 388.32C41.5521 387.761 41.3832 387.125 41.3832 386.414C41.3832 385.703 41.5521 385.068 41.8898 384.508C42.2274 383.948 42.694 383.513 43.2894 383.202C43.8937 382.882 44.5735 382.722 45.3289 382.722C46.0843 382.722 46.7596 382.882 47.3551 383.202C47.9505 383.513 48.417 383.948 48.7547 384.508C49.0924 385.068 49.2612 385.703 49.2612 386.414C49.2612 387.125 49.0924 387.761 48.7547 388.32C48.417 388.88 47.9505 389.32 47.3551 389.64C46.7596 389.951 46.0843 390.107 45.3289 390.107ZM45.3289 388.4C45.8621 388.4 46.2975 388.223 46.6352 387.867C46.9818 387.503 47.1551 387.019 47.1551 386.414C47.1551 385.81 46.9818 385.33 46.6352 384.975C46.2975 384.61 45.8621 384.428 45.3289 384.428C44.7957 384.428 44.3558 384.61 44.0092 384.975C43.6626 385.33 43.4894 385.81 43.4894 386.414C43.4894 387.019 43.6626 387.503 44.0092 387.867C44.3558 388.223 44.7957 388.4 45.3289 388.4ZM55.2101 382.722C56.0987 382.722 56.8141 382.988 57.3562 383.522C57.9072 384.055 58.1827 384.846 58.1827 385.894V390H56.1032V386.214C56.1032 385.646 55.9788 385.223 55.7299 384.948C55.4811 384.664 55.1212 384.521 54.6502 384.521C54.1259 384.521 53.7082 384.686 53.3972 385.015C53.0862 385.334 52.9306 385.814 52.9306 386.454V390H50.8512V382.828H52.8373V383.668C53.1128 383.366 53.455 383.135 53.8637 382.975C54.2725 382.806 54.7213 382.722 55.2101 382.722ZM62.6803 390.107C62.0849 390.107 61.5028 390.036 60.9341 389.893C60.3653 389.742 59.9121 389.556 59.5744 389.333L60.2676 387.841C60.5875 388.045 60.974 388.214 61.4273 388.347C61.8805 388.471 62.3248 388.534 62.7603 388.534C63.64 388.534 64.0799 388.316 64.0799 387.881C64.0799 387.676 63.96 387.53 63.72 387.441C63.4801 387.352 63.1113 387.276 62.6136 387.214C62.0271 387.125 61.5428 387.023 61.1607 386.907C60.7785 386.792 60.4453 386.588 60.1609 386.294C59.8854 386.001 59.7477 385.583 59.7477 385.041C59.7477 384.588 59.8765 384.188 60.1343 383.842C60.4009 383.486 60.783 383.211 61.2806 383.015C61.7872 382.82 62.3826 382.722 63.0669 382.722C63.5734 382.722 64.0755 382.78 64.5731 382.895C65.0797 383.002 65.4974 383.153 65.8262 383.348L65.133 384.828C64.502 384.472 63.8133 384.295 63.0669 384.295C62.6225 384.295 62.2893 384.357 62.0671 384.481C61.8449 384.606 61.7339 384.766 61.7339 384.961C61.7339 385.183 61.8538 385.339 62.0938 385.428C62.3337 385.517 62.7158 385.601 63.2401 385.681C63.8267 385.779 64.3065 385.885 64.6798 386.001C65.053 386.108 65.3774 386.308 65.6529 386.601C65.9284 386.894 66.0661 387.303 66.0661 387.827C66.0661 388.272 65.9328 388.667 65.6662 389.014C65.3996 389.36 65.0086 389.631 64.4932 389.827C63.9866 390.013 63.3823 390.107 62.6803 390.107Z" fill="white"/>
<path d="M13.368 126.466C14.1 126.67 14.676 127.042 15.096 127.582C15.516 128.11 15.726 128.782 15.726 129.598C15.726 130.69 15.312 131.53 14.484 132.118C13.668 132.706 12.474 133 10.902 133H4.89V120.4H10.542C11.982 120.4 13.092 120.688 13.872 121.264C14.664 121.84 15.06 122.638 15.06 123.658C15.06 124.318 14.904 124.888 14.592 125.368C14.292 125.848 13.884 126.214 13.368 126.466ZM6.69 121.858V125.89H10.38C11.304 125.89 12.012 125.722 12.504 125.386C13.008 125.038 13.26 124.534 13.26 123.874C13.26 123.214 13.008 122.716 12.504 122.38C12.012 122.032 11.304 121.858 10.38 121.858H6.69ZM10.83 131.542C11.85 131.542 12.618 131.374 13.134 131.038C13.65 130.702 13.908 130.174 13.908 129.454C13.908 128.05 12.882 127.348 10.83 127.348H6.69V131.542H10.83ZM22.617 133.108C21.669 133.108 20.817 132.898 20.061 132.478C19.305 132.058 18.711 131.482 18.279 130.75C17.859 130.006 17.649 129.166 17.649 128.23C17.649 127.294 17.859 126.46 18.279 125.728C18.711 124.984 19.305 124.408 20.061 124C20.817 123.58 21.669 123.37 22.617 123.37C23.565 123.37 24.411 123.58 25.155 124C25.911 124.408 26.499 124.984 26.919 125.728C27.351 126.46 27.567 127.294 27.567 128.23C27.567 129.166 27.351 130.006 26.919 130.75C26.499 131.482 25.911 132.058 25.155 132.478C24.411 132.898 23.565 133.108 22.617 133.108ZM22.617 131.596C23.229 131.596 23.775 131.458 24.255 131.182C24.747 130.894 25.131 130.498 25.407 129.994C25.683 129.478 25.821 128.89 25.821 128.23C25.821 127.57 25.683 126.988 25.407 126.484C25.131 125.968 24.747 125.572 24.255 125.296C23.775 125.02 23.229 124.882 22.617 124.882C22.005 124.882 21.453 125.02 20.961 125.296C20.481 125.572 20.097 125.968 19.809 126.484C19.533 126.988 19.395 127.57 19.395 128.23C19.395 128.89 19.533 129.478 19.809 129.994C20.097 130.498 20.481 130.894 20.961 131.182C21.453 131.458 22.005 131.596 22.617 131.596ZM30.2268 119.644H31.9548V133H30.2268V119.644ZM44.5242 119.644V133H42.8682V131.488C42.4842 132.016 41.9982 132.418 41.4102 132.694C40.8222 132.97 40.1742 133.108 39.4662 133.108C38.5422 133.108 37.7142 132.904 36.9822 132.496C36.2502 132.088 35.6742 131.518 35.2542 130.786C34.8462 130.042 34.6422 129.19 34.6422 128.23C34.6422 127.27 34.8462 126.424 35.2542 125.692C35.6742 124.96 36.2502 124.39 36.9822 123.982C37.7142 123.574 38.5422 123.37 39.4662 123.37C40.1502 123.37 40.7802 123.502 41.3562 123.766C41.9322 124.018 42.4122 124.396 42.7962 124.9V119.644H44.5242ZM39.6102 131.596C40.2102 131.596 40.7562 131.458 41.2482 131.182C41.7402 130.894 42.1242 130.498 42.4002 129.994C42.6762 129.478 42.8142 128.89 42.8142 128.23C42.8142 127.57 42.6762 126.988 42.4002 126.484C42.1242 125.968 41.7402 125.572 41.2482 125.296C40.7562 125.02 40.2102 124.882 39.6102 124.882C38.9982 124.882 38.4462 125.02 37.9542 125.296C37.4742 125.572 37.0902 125.968 36.8022 126.484C36.5262 126.988 36.3882 127.57 36.3882 128.23C36.3882 128.89 36.5262 129.478 36.8022 129.994C37.0902 130.498 37.4742 130.894 37.9542 131.182C38.4462 131.458 38.9982 131.596 39.6102 131.596ZM48.4957 130.642C48.8317 130.642 49.1077 130.762 49.3237 131.002C49.5517 131.23 49.6657 131.518 49.6657 131.866C49.6657 132.046 49.6417 132.22 49.5937 132.388C49.5577 132.556 49.4797 132.814 49.3597 133.162L48.5137 135.664H47.3797L48.0457 132.982C47.8177 132.898 47.6317 132.76 47.4877 132.568C47.3557 132.364 47.2897 132.13 47.2897 131.866C47.2897 131.506 47.4037 131.212 47.6317 130.984C47.8597 130.756 48.1477 130.642 48.4957 130.642ZM69.4498 133L69.4318 123.82L64.8778 131.47H64.0498L59.4958 123.874V133H57.7678V120.4H59.2438L64.4998 129.256L69.6838 120.4H71.1598L71.1778 133H69.4498ZM83.5992 128.284C83.5992 128.416 83.5872 128.59 83.5632 128.806H75.8232C75.9312 129.646 76.2972 130.324 76.9212 130.84C77.5572 131.344 78.3432 131.596 79.2792 131.596C80.4192 131.596 81.3372 131.212 82.0332 130.444L82.9872 131.56C82.5552 132.064 82.0152 132.448 81.3672 132.712C80.7312 132.976 80.0172 133.108 79.2252 133.108C78.2172 133.108 77.3232 132.904 76.5432 132.496C75.7632 132.076 75.1572 131.494 74.7252 130.75C74.3052 130.006 74.0952 129.166 74.0952 128.23C74.0952 127.306 74.2992 126.472 74.7072 125.728C75.1272 124.984 75.6972 124.408 76.4172 124C77.1492 123.58 77.9712 123.37 78.8832 123.37C79.7952 123.37 80.6052 123.58 81.3132 124C82.0332 124.408 82.5912 124.984 82.9872 125.728C83.3952 126.472 83.5992 127.324 83.5992 128.284ZM78.8832 124.828C78.0552 124.828 77.3592 125.08 76.7952 125.584C76.2432 126.088 75.9192 126.748 75.8232 127.564H81.9432C81.8472 126.76 81.5172 126.106 80.9532 125.602C80.4012 125.086 79.7112 124.828 78.8832 124.828ZM95.2687 119.644V133H93.6127V131.488C93.2287 132.016 92.7427 132.418 92.1547 132.694C91.5667 132.97 90.9187 133.108 90.2107 133.108C89.2867 133.108 88.4587 132.904 87.7267 132.496C86.9947 132.088 86.4187 131.518 85.9987 130.786C85.5907 130.042 85.3867 129.19 85.3867 128.23C85.3867 127.27 85.5907 126.424 85.9987 125.692C86.4187 124.96 86.9947 124.39 87.7267 123.982C88.4587 123.574 89.2867 123.37 90.2107 123.37C90.8947 123.37 91.5247 123.502 92.1007 123.766C92.6767 124.018 93.1567 124.396 93.5407 124.9V119.644H95.2687ZM90.3547 131.596C90.9547 131.596 91.5007 131.458 91.9927 131.182C92.4847 130.894 92.8687 130.498 93.1447 129.994C93.4207 129.478 93.5587 128.89 93.5587 128.23C93.5587 127.57 93.4207 126.988 93.1447 126.484C92.8687 125.968 92.4847 125.572 91.9927 125.296C91.5007 125.02 90.9547 124.882 90.3547 124.882C89.7427 124.882 89.1907 125.02 88.6987 125.296C88.2187 125.572 87.8347 125.968 87.5467 126.484C87.2707 126.988 87.1327 127.57 87.1327 128.23C87.1327 128.89 87.2707 129.478 87.5467 129.994C87.8347 130.498 88.2187 130.894 88.6987 131.182C89.1907 131.458 89.7427 131.596 90.3547 131.596ZM98.8082 123.46H100.536V133H98.8082V123.46ZM99.6722 121.624C99.3362 121.624 99.0542 121.516 98.8262 121.3C98.6102 121.084 98.5022 120.82 98.5022 120.508C98.5022 120.196 98.6102 119.932 98.8262 119.716C99.0542 119.488 99.3362 119.374 99.6722 119.374C100.008 119.374 100.284 119.482 100.5 119.698C100.728 119.902 100.842 120.16 100.842 120.472C100.842 120.796 100.728 121.072 100.5 121.3C100.284 121.516 100.008 121.624 99.6722 121.624ZM112.998 123.46V133H111.36V131.56C111.012 132.052 110.55 132.436 109.974 132.712C109.41 132.976 108.792 133.108 108.12 133.108C106.848 133.108 105.846 132.76 105.114 132.064C104.382 131.356 104.016 130.318 104.016 128.95V123.46H105.744V128.752C105.744 129.676 105.966 130.378 106.41 130.858C106.854 131.326 107.49 131.56 108.318 131.56C109.23 131.56 109.95 131.284 110.478 130.732C111.006 130.18 111.27 129.4 111.27 128.392V123.46H112.998ZM128.491 123.37C129.691 123.37 130.639 123.718 131.335 124.414C132.043 125.11 132.397 126.142 132.397 127.51V133H130.669V127.708C130.669 126.784 130.453 126.088 130.021 125.62C129.601 125.152 128.995 124.918 128.203 124.918C127.327 124.918 126.631 125.194 126.115 125.746C125.599 126.286 125.341 127.066 125.341 128.086V133H123.613V127.708C123.613 126.784 123.397 126.088 122.965 125.62C122.545 125.152 121.939 124.918 121.147 124.918C120.271 124.918 119.575 125.194 119.059 125.746C118.543 126.286 118.285 127.066 118.285 128.086V133H116.557V123.46H118.213V124.882C118.561 124.39 119.017 124.018 119.581 123.766C120.145 123.502 120.787 123.37 121.507 123.37C122.251 123.37 122.911 123.52 123.487 123.82C124.063 124.12 124.507 124.558 124.819 125.134C125.179 124.582 125.677 124.15 126.313 123.838C126.961 123.526 127.687 123.37 128.491 123.37ZM136.279 130.642C136.615 130.642 136.891 130.762 137.107 131.002C137.335 131.23 137.449 131.518 137.449 131.866C137.449 132.046 137.425 132.22 137.377 132.388C137.341 132.556 137.263 132.814 137.143 133.162L136.297 135.664H135.163L135.829 132.982C135.601 132.898 135.415 132.76 135.271 132.568C135.139 132.364 135.073 132.13 135.073 131.866C135.073 131.506 135.187 131.212 135.415 130.984C135.643 130.756 135.931 130.642 136.279 130.642ZM153.975 133L151.257 129.13C150.921 129.154 150.657 129.166 150.465 129.166H147.351V133H145.551V120.4H150.465C152.097 120.4 153.381 120.79 154.317 121.57C155.253 122.35 155.721 123.424 155.721 124.792C155.721 125.764 155.481 126.592 155.001 127.276C154.521 127.96 153.837 128.458 152.949 128.77L155.937 133H153.975ZM150.411 127.636C151.551 127.636 152.421 127.39 153.021 126.898C153.621 126.406 153.921 125.704 153.921 124.792C153.921 123.88 153.621 123.184 153.021 122.704C152.421 122.212 151.551 121.966 150.411 121.966H147.351V127.636H150.411ZM167.269 128.284C167.269 128.416 167.257 128.59 167.233 128.806H159.493C159.601 129.646 159.967 130.324 160.591 130.84C161.227 131.344 162.013 131.596 162.949 131.596C164.089 131.596 165.007 131.212 165.703 130.444L166.657 131.56C166.225 132.064 165.685 132.448 165.037 132.712C164.401 132.976 163.687 133.108 162.895 133.108C161.887 133.108 160.993 132.904 160.213 132.496C159.433 132.076 158.827 131.494 158.395 130.75C157.975 130.006 157.765 129.166 157.765 128.23C157.765 127.306 157.969 126.472 158.377 125.728C158.797 124.984 159.367 124.408 160.087 124C160.819 123.58 161.641 123.37 162.553 123.37C163.465 123.37 164.275 123.58 164.983 124C165.703 124.408 166.261 124.984 166.657 125.728C167.065 126.472 167.269 127.324 167.269 128.284ZM162.553 124.828C161.725 124.828 161.029 125.08 160.465 125.584C159.913 126.088 159.589 126.748 159.493 127.564H165.613C165.517 126.76 165.187 126.106 164.623 125.602C164.071 125.086 163.381 124.828 162.553 124.828ZM179.064 123.46V131.704C179.064 133.372 178.65 134.602 177.822 135.394C176.994 136.198 175.758 136.6 174.114 136.6C173.214 136.6 172.356 136.474 171.54 136.222C170.724 135.982 170.064 135.634 169.56 135.178L170.388 133.846C170.832 134.23 171.378 134.53 172.026 134.746C172.686 134.974 173.364 135.088 174.06 135.088C175.176 135.088 175.998 134.824 176.526 134.296C177.066 133.768 177.336 132.964 177.336 131.884V131.128C176.928 131.62 176.424 131.992 175.824 132.244C175.236 132.484 174.594 132.604 173.898 132.604C172.986 132.604 172.158 132.412 171.414 132.028C170.682 131.632 170.106 131.086 169.686 130.39C169.266 129.682 169.056 128.878 169.056 127.978C169.056 127.078 169.266 126.28 169.686 125.584C170.106 124.876 170.682 124.33 171.414 123.946C172.158 123.562 172.986 123.37 173.898 123.37C174.618 123.37 175.284 123.502 175.896 123.766C176.52 124.03 177.03 124.42 177.426 124.936V123.46H179.064ZM174.096 131.092C174.72 131.092 175.278 130.96 175.77 130.696C176.274 130.432 176.664 130.066 176.94 129.598C177.228 129.118 177.372 128.578 177.372 127.978C177.372 127.054 177.066 126.31 176.454 125.746C175.842 125.17 175.056 124.882 174.096 124.882C173.124 124.882 172.332 125.17 171.72 125.746C171.108 126.31 170.802 127.054 170.802 127.978C170.802 128.578 170.94 129.118 171.216 129.598C171.504 130.066 171.894 130.432 172.386 130.696C172.89 130.96 173.46 131.092 174.096 131.092ZM191.528 123.46V133H189.89V131.56C189.542 132.052 189.08 132.436 188.504 132.712C187.94 132.976 187.322 133.108 186.65 133.108C185.378 133.108 184.376 132.76 183.644 132.064C182.912 131.356 182.546 130.318 182.546 128.95V123.46H184.274V128.752C184.274 129.676 184.496 130.378 184.94 130.858C185.384 131.326 186.02 131.56 186.848 131.56C187.76 131.56 188.48 131.284 189.008 130.732C189.536 130.18 189.8 129.4 189.8 128.392V123.46H191.528ZM195.088 119.644H196.816V133H195.088V119.644ZM203.859 123.37C205.179 123.37 206.187 123.694 206.883 124.342C207.591 124.99 207.945 125.956 207.945 127.24V133H206.307V131.74C206.019 132.184 205.605 132.526 205.065 132.766C204.537 132.994 203.907 133.108 203.175 133.108C202.107 133.108 201.249 132.85 200.601 132.334C199.965 131.818 199.647 131.14 199.647 130.3C199.647 129.46 199.953 128.788 200.565 128.284C201.177 127.768 202.149 127.51 203.481 127.51H206.217V127.168C206.217 126.424 206.001 125.854 205.569 125.458C205.137 125.062 204.501 124.864 203.661 124.864C203.097 124.864 202.545 124.96 202.005 125.152C201.465 125.332 201.009 125.578 200.637 125.89L199.917 124.594C200.409 124.198 200.997 123.898 201.681 123.694C202.365 123.478 203.091 123.37 203.859 123.37ZM203.463 131.776C204.123 131.776 204.693 131.632 205.173 131.344C205.653 131.044 206.001 130.624 206.217 130.084V128.752H203.553C202.089 128.752 201.357 129.244 201.357 130.228C201.357 130.708 201.543 131.086 201.915 131.362C202.287 131.638 202.803 131.776 203.463 131.776ZM213.069 125.062C213.369 124.51 213.813 124.09 214.401 123.802C214.989 123.514 215.703 123.37 216.543 123.37V125.044C216.447 125.032 216.315 125.026 216.147 125.026C215.211 125.026 214.473 125.308 213.933 125.872C213.405 126.424 213.141 127.216 213.141 128.248V133H211.413V123.46H213.069V125.062Z" fill="white"/>
<path d="M5.368 13.514H0.088V11.6H12.826V13.514H7.546V27H5.368V13.514ZM24.8316 15.34L19.1776 28.166C18.679 29.354 18.0923 30.19 17.4176 30.674C16.7576 31.158 15.9583 31.4 15.0196 31.4C14.4476 31.4 13.8903 31.3047 13.3476 31.114C12.8196 30.938 12.3796 30.674 12.0276 30.322L12.9296 28.738C13.531 29.31 14.2276 29.596 15.0196 29.596C15.533 29.596 15.9583 29.4567 16.2956 29.178C16.6476 28.914 16.963 28.452 17.2416 27.792L17.6156 26.978L12.4676 15.34H14.6676L18.7376 24.668L22.7636 15.34H24.8316ZM33.3147 15.23C34.444 15.23 35.456 15.4793 36.3507 15.978C37.2454 16.4767 37.942 17.1733 38.4407 18.068C38.954 18.9627 39.2107 19.9967 39.2107 21.17C39.2107 22.3433 38.954 23.3847 38.4407 24.294C37.942 25.1887 37.2454 25.8853 36.3507 26.384C35.456 26.8827 34.444 27.132 33.3147 27.132C32.4787 27.132 31.7087 26.9707 31.0047 26.648C30.3154 26.3253 29.7287 25.856 29.2447 25.24V31.268H27.1327V15.34H29.1567V17.188C29.626 16.5427 30.22 16.0587 30.9387 15.736C31.6574 15.3987 32.4494 15.23 33.3147 15.23ZM33.1387 25.284C33.8867 25.284 34.554 25.1153 35.1407 24.778C35.742 24.426 36.2114 23.942 36.5487 23.326C36.9007 22.6953 37.0767 21.9767 37.0767 21.17C37.0767 20.3633 36.9007 19.652 36.5487 19.036C36.2114 18.4053 35.742 17.9213 35.1407 17.584C34.554 17.2467 33.8867 17.078 33.1387 17.078C32.4054 17.078 31.738 17.254 31.1367 17.606C30.55 17.9433 30.0807 18.42 29.7287 19.036C29.3914 19.652 29.2227 20.3633 29.2227 21.17C29.2227 21.9767 29.3914 22.6953 29.7287 23.326C30.066 23.942 30.5354 24.426 31.1367 24.778C31.738 25.1153 32.4054 25.284 33.1387 25.284ZM47.4528 27.132C46.2941 27.132 45.2528 26.8753 44.3288 26.362C43.4048 25.8487 42.6788 25.1447 42.1508 24.25C41.6375 23.3407 41.3808 22.314 41.3808 21.17C41.3808 20.026 41.6375 19.0067 42.1508 18.112C42.6788 17.2027 43.4048 16.4987 44.3288 16C45.2528 15.4867 46.2941 15.23 47.4528 15.23C48.6115 15.23 49.6455 15.4867 50.5548 16C51.4788 16.4987 52.1975 17.2027 52.7108 18.112C53.2388 19.0067 53.5028 20.026 53.5028 21.17C53.5028 22.314 53.2388 23.3407 52.7108 24.25C52.1975 25.1447 51.4788 25.8487 50.5548 26.362C49.6455 26.8753 48.6115 27.132 47.4528 27.132ZM47.4528 25.284C48.2008 25.284 48.8681 25.1153 49.4548 24.778C50.0561 24.426 50.5255 23.942 50.8628 23.326C51.2001 22.6953 51.3688 21.9767 51.3688 21.17C51.3688 20.3633 51.2001 19.652 50.8628 19.036C50.5255 18.4053 50.0561 17.9213 49.4548 17.584C48.8681 17.2467 48.2008 17.078 47.4528 17.078C46.7048 17.078 46.0301 17.2467 45.4288 17.584C44.8421 17.9213 44.3728 18.4053 44.0208 19.036C43.6835 19.652 43.5148 20.3633 43.5148 21.17C43.5148 21.9767 43.6835 22.6953 44.0208 23.326C44.3728 23.942 44.8421 24.426 45.4288 24.778C46.0301 25.1153 46.7048 25.284 47.4528 25.284ZM67.9076 15.34V25.416C67.9076 27.4547 67.4016 28.958 66.3896 29.926C65.3776 30.9087 63.867 31.4 61.8576 31.4C60.7576 31.4 59.709 31.246 58.7116 30.938C57.7143 30.6447 56.9076 30.2193 56.2916 29.662L57.3036 28.034C57.8463 28.5033 58.5136 28.87 59.3056 29.134C60.1123 29.4127 60.941 29.552 61.7916 29.552C63.1556 29.552 64.1603 29.2293 64.8056 28.584C65.4656 27.9387 65.7956 26.956 65.7956 25.636V24.712C65.297 25.3133 64.681 25.768 63.9476 26.076C63.229 26.3693 62.4443 26.516 61.5936 26.516C60.479 26.516 59.467 26.2813 58.5576 25.812C57.663 25.328 56.959 24.6607 56.4456 23.81C55.9323 22.9447 55.6756 21.962 55.6756 20.862C55.6756 19.762 55.9323 18.7867 56.4456 17.936C56.959 17.0707 57.663 16.4033 58.5576 15.934C59.467 15.4647 60.479 15.23 61.5936 15.23C62.4736 15.23 63.2876 15.3913 64.0356 15.714C64.7983 16.0367 65.4216 16.5133 65.9056 17.144V15.34H67.9076ZM61.8356 24.668C62.5983 24.668 63.2803 24.5067 63.8816 24.184C64.4976 23.8613 64.9743 23.414 65.3116 22.842C65.6636 22.2553 65.8396 21.5953 65.8396 20.862C65.8396 19.7327 65.4656 18.8233 64.7176 18.134C63.9696 17.43 63.009 17.078 61.8356 17.078C60.6476 17.078 59.6796 17.43 58.9316 18.134C58.1836 18.8233 57.8096 19.7327 57.8096 20.862C57.8096 21.5953 57.9783 22.2553 58.3156 22.842C58.6676 23.414 59.1443 23.8613 59.7456 24.184C60.3616 24.5067 61.0583 24.668 61.8356 24.668ZM74.2971 17.298C74.6638 16.6233 75.2064 16.11 75.9251 15.758C76.6438 15.406 77.5164 15.23 78.5431 15.23V17.276C78.4258 17.2613 78.2644 17.254 78.0591 17.254C76.9151 17.254 76.0131 17.5987 75.3531 18.288C74.7078 18.9627 74.3851 19.9307 74.3851 21.192V27H72.2731V15.34H74.2971V17.298ZM85.7007 15.23C87.314 15.23 88.546 15.626 89.3967 16.418C90.262 17.21 90.6947 18.3907 90.6947 19.96V27H88.6927V25.46C88.3407 26.0027 87.8347 26.4207 87.1747 26.714C86.5293 26.9927 85.7593 27.132 84.8647 27.132C83.5593 27.132 82.5107 26.8167 81.7187 26.186C80.9413 25.5553 80.5527 24.7267 80.5527 23.7C80.5527 22.6733 80.9267 21.852 81.6747 21.236C82.4227 20.6053 83.6107 20.29 85.2387 20.29H88.5827V19.872C88.5827 18.9627 88.3187 18.266 87.7907 17.782C87.2627 17.298 86.4853 17.056 85.4587 17.056C84.7693 17.056 84.0947 17.1733 83.4347 17.408C82.7747 17.628 82.2173 17.9287 81.7627 18.31L80.8827 16.726C81.484 16.242 82.2027 15.8753 83.0387 15.626C83.8747 15.362 84.762 15.23 85.7007 15.23ZM85.2167 25.504C86.0233 25.504 86.72 25.328 87.3067 24.976C87.8933 24.6093 88.3187 24.096 88.5827 23.436V21.808H85.3267C83.5373 21.808 82.6427 22.4093 82.6427 23.612C82.6427 24.1987 82.87 24.6607 83.3247 24.998C83.7793 25.3353 84.41 25.504 85.2167 25.504ZM101.115 15.23C102.244 15.23 103.256 15.4793 104.151 15.978C105.046 16.4767 105.742 17.1733 106.241 18.068C106.754 18.9627 107.011 19.9967 107.011 21.17C107.011 22.3433 106.754 23.3847 106.241 24.294C105.742 25.1887 105.046 25.8853 104.151 26.384C103.256 26.8827 102.244 27.132 101.115 27.132C100.279 27.132 99.5091 26.9707 98.8051 26.648C98.1158 26.3253 97.5291 25.856 97.0451 25.24V31.268H94.9331V15.34H96.9571V17.188C97.4264 16.5427 98.0204 16.0587 98.7391 15.736C99.4578 15.3987 100.25 15.23 101.115 15.23ZM100.939 25.284C101.687 25.284 102.354 25.1153 102.941 24.778C103.542 24.426 104.012 23.942 104.349 23.326C104.701 22.6953 104.877 21.9767 104.877 21.17C104.877 20.3633 104.701 19.652 104.349 19.036C104.012 18.4053 103.542 17.9213 102.941 17.584C102.354 17.2467 101.687 17.078 100.939 17.078C100.206 17.078 99.5384 17.254 98.9371 17.606C98.3504 17.9433 97.8811 18.42 97.5291 19.036C97.1918 19.652 97.0231 20.3633 97.0231 21.17C97.0231 21.9767 97.1918 22.6953 97.5291 23.326C97.8664 23.942 98.3358 24.426 98.9371 24.778C99.5384 25.1153 100.206 25.284 100.939 25.284ZM116.485 15.23C117.967 15.23 119.14 15.6627 120.005 16.528C120.885 17.3787 121.325 18.6327 121.325 20.29V27H119.213V20.532C119.213 19.4027 118.942 18.552 118.399 17.98C117.857 17.408 117.079 17.122 116.067 17.122C114.923 17.122 114.021 17.4593 113.361 18.134C112.701 18.794 112.371 19.7473 112.371 20.994V27H110.259V10.676H112.371V16.99C112.811 16.4327 113.383 16 114.087 15.692C114.806 15.384 115.605 15.23 116.485 15.23ZM135.667 15.34L130.013 28.166C129.514 29.354 128.928 30.19 128.253 30.674C127.593 31.158 126.794 31.4 125.855 31.4C125.283 31.4 124.726 31.3047 124.183 31.114C123.655 30.938 123.215 30.674 122.863 30.322L123.765 28.738C124.366 29.31 125.063 29.596 125.855 29.596C126.368 29.596 126.794 29.4567 127.131 29.178C127.483 28.914 127.798 28.452 128.077 27.792L128.451 26.978L123.303 15.34H125.503L129.573 24.668L133.599 15.34H135.667Z" fill="white"/>
<path d="M39.6 103L39.545 79.9L28.215 98.93H24.2L12.925 80.395V103H4.565V64.5H11.935L26.345 88.425L40.535 64.5H47.85L47.96 103H39.6ZM71.3943 103.44C68.2776 103.44 65.4726 102.798 62.9793 101.515C60.5226 100.195 58.5976 98.38 57.2043 96.07C55.811 93.76 55.1143 91.1383 55.1143 88.205C55.1143 85.2717 55.811 82.65 57.2043 80.34C58.5976 78.03 60.5226 76.2333 62.9793 74.95C65.4726 73.63 68.2776 72.97 71.3943 72.97C74.511 72.97 77.2976 73.63 79.7543 74.95C82.211 76.2333 84.136 78.03 85.5293 80.34C86.9226 82.65 87.6193 85.2717 87.6193 88.205C87.6193 91.1383 86.9226 93.76 85.5293 96.07C84.136 98.38 82.211 100.195 79.7543 101.515C77.2976 102.798 74.511 103.44 71.3943 103.44ZM71.3943 96.4C73.5943 96.4 75.391 95.6667 76.7843 94.2C78.2143 92.6967 78.9293 90.6983 78.9293 88.205C78.9293 85.7117 78.2143 83.7317 76.7843 82.265C75.391 80.7617 73.5943 80.01 71.3943 80.01C69.1943 80.01 67.3793 80.7617 65.9493 82.265C64.5193 83.7317 63.8043 85.7117 63.8043 88.205C63.8043 90.6983 64.5193 92.6967 65.9493 94.2C67.3793 95.6667 69.1943 96.4 71.3943 96.4ZM112.164 72.97C115.831 72.97 118.783 74.07 121.019 76.27C123.293 78.47 124.429 81.7333 124.429 86.06V103H115.849V87.38C115.849 85.0333 115.336 83.2917 114.309 82.155C113.283 80.9817 111.798 80.395 109.854 80.395C107.691 80.395 105.968 81.0733 104.684 82.43C103.401 83.75 102.759 85.73 102.759 88.37V103H94.1793V73.41H102.374V76.875C103.511 75.6283 104.923 74.675 106.609 74.015C108.296 73.3183 110.148 72.97 112.164 72.97ZM152.117 101.57C151.273 102.193 150.228 102.67 148.982 103C147.772 103.293 146.488 103.44 145.132 103.44C141.612 103.44 138.88 102.542 136.937 100.745C135.03 98.9483 134.077 96.3083 134.077 92.825V80.67H129.512V74.07H134.077V66.865H142.657V74.07H150.027V80.67H142.657V92.715C142.657 93.9617 142.968 94.9333 143.592 95.63C144.252 96.29 145.168 96.62 146.342 96.62C147.698 96.62 148.853 96.2533 149.807 95.52L152.117 101.57ZM167.713 103.44C165.256 103.44 162.855 103.147 160.508 102.56C158.161 101.937 156.291 101.167 154.898 100.25L157.758 94.09C159.078 94.9333 160.673 95.63 162.543 96.18C164.413 96.6933 166.246 96.95 168.043 96.95C171.673 96.95 173.488 96.0517 173.488 94.255C173.488 93.4117 172.993 92.8067 172.003 92.44C171.013 92.0733 169.491 91.7617 167.438 91.505C165.018 91.1383 163.02 90.7167 161.443 90.24C159.866 89.7633 158.491 88.92 157.318 87.71C156.181 86.5 155.613 84.7767 155.613 82.54C155.613 80.67 156.145 79.02 157.208 77.59C158.308 76.1233 159.885 74.9867 161.938 74.18C164.028 73.3733 166.485 72.97 169.308 72.97C171.398 72.97 173.47 73.2083 175.523 73.685C177.613 74.125 179.336 74.7483 180.693 75.555L177.833 81.66C175.23 80.1933 172.388 79.46 169.308 79.46C167.475 79.46 166.1 79.7167 165.183 80.23C164.266 80.7433 163.808 81.4033 163.808 82.21C163.808 83.1267 164.303 83.7683 165.293 84.135C166.283 84.5017 167.86 84.85 170.023 85.18C172.443 85.5833 174.423 86.0233 175.963 86.5C177.503 86.94 178.841 87.765 179.978 88.975C181.115 90.185 181.683 91.8717 181.683 94.035C181.683 95.8683 181.133 97.5 180.033 98.93C178.933 100.36 177.32 101.478 175.193 102.285C173.103 103.055 170.61 103.44 167.713 103.44ZM216.787 88.315C216.787 88.425 216.732 89.195 216.622 90.625H194.237C194.64 92.4583 195.593 93.9067 197.097 94.97C198.6 96.0333 200.47 96.565 202.707 96.565C204.247 96.565 205.603 96.345 206.777 95.905C207.987 95.4283 209.105 94.695 210.132 93.705L214.697 98.655C211.91 101.845 207.84 103.44 202.487 103.44C199.15 103.44 196.198 102.798 193.632 101.515C191.065 100.195 189.085 98.38 187.692 96.07C186.298 93.76 185.602 91.1383 185.602 88.205C185.602 85.3083 186.28 82.705 187.637 80.395C189.03 78.0483 190.918 76.2333 193.302 74.95C195.722 73.63 198.417 72.97 201.387 72.97C204.283 72.97 206.905 73.5933 209.252 74.84C211.598 76.0867 213.432 77.8833 214.752 80.23C216.108 82.54 216.787 85.235 216.787 88.315ZM201.442 79.46C199.498 79.46 197.867 80.01 196.547 81.11C195.227 82.21 194.42 83.7133 194.127 85.62H208.702C208.408 83.75 207.602 82.265 206.282 81.165C204.962 80.0283 203.348 79.46 201.442 79.46ZM231.519 77.315C232.546 75.885 233.921 74.8033 235.644 74.07C237.404 73.3367 239.421 72.97 241.694 72.97V80.89C240.741 80.8167 240.099 80.78 239.769 80.78C237.312 80.78 235.387 81.4767 233.994 82.87C232.601 84.2267 231.904 86.28 231.904 89.03V103H223.324V73.41H231.519V77.315ZM255.816 77.315C256.842 75.885 258.217 74.8033 259.941 74.07C261.701 73.3367 263.717 72.97 265.991 72.97V80.89C265.037 80.8167 264.396 80.78 264.066 80.78C261.609 80.78 259.684 81.4767 258.291 82.87C256.897 84.2267 256.201 86.28 256.201 89.03V103H247.621V73.41H255.816V77.315ZM283.691 72.97C288.275 72.97 291.795 74.07 294.251 76.27C296.708 78.4333 297.936 81.715 297.936 86.115V103H289.906V99.315C288.293 102.065 285.286 103.44 280.886 103.44C278.613 103.44 276.633 103.055 274.946 102.285C273.296 101.515 272.031 100.452 271.151 99.095C270.271 97.7383 269.831 96.1983 269.831 94.475C269.831 91.725 270.858 89.5617 272.911 87.985C275.001 86.4083 278.21 85.62 282.536 85.62H289.356C289.356 83.75 288.788 82.32 287.651 81.33C286.515 80.3033 284.81 79.79 282.536 79.79C280.96 79.79 279.401 80.0467 277.861 80.56C276.358 81.0367 275.075 81.6967 274.011 82.54L270.931 76.545C272.545 75.4083 274.47 74.5283 276.706 73.905C278.98 73.2817 281.308 72.97 283.691 72.97ZM283.031 97.665C284.498 97.665 285.8 97.335 286.936 96.675C288.073 95.9783 288.88 94.97 289.356 93.65V90.625H283.471C279.951 90.625 278.191 91.78 278.191 94.09C278.191 95.19 278.613 96.07 279.456 96.73C280.336 97.3533 281.528 97.665 283.031 97.665ZM325.612 101.57C324.768 102.193 323.723 102.67 322.477 103C321.267 103.293 319.983 103.44 318.627 103.44C315.107 103.44 312.375 102.542 310.432 100.745C308.525 98.9483 307.572 96.3083 307.572 92.825V80.67H303.007V74.07H307.572V66.865H316.152V74.07H323.522V80.67H316.152V92.715C316.152 93.9617 316.463 94.9333 317.087 95.63C317.747 96.29 318.663 96.62 319.837 96.62C321.193 96.62 322.348 96.2533 323.302 95.52L325.612 101.57Z" fill="white"/>
</svg>
