<svg width="1440" height="436" viewBox="0 0 1440 436" fill="none" xmlns="http://www.w3.org/2000/svg">
<rect x="-37" width="1493" height="436" fill="#F3CD6A"/>
<path d="M147.06 186.385V193.315H160.965V200.2H147.06V211H138.15V179.5H162.855V186.385H147.06ZM192.415 186.61V211H184.27V208.39C183.37 209.38 182.29 210.13 181.03 210.64C179.77 211.15 178.435 211.405 177.025 211.405C173.875 211.405 171.355 210.475 169.465 208.615C167.605 206.755 166.675 203.965 166.675 200.245V186.61H175.225V198.85C175.225 200.68 175.57 202.015 176.26 202.855C176.95 203.695 177.955 204.115 179.275 204.115C180.625 204.115 181.72 203.65 182.56 202.72C183.43 201.76 183.865 200.305 183.865 198.355V186.61H192.415ZM214.482 186.205C217.512 186.205 219.942 187.105 221.772 188.905C223.632 190.705 224.562 193.42 224.562 197.05V211H216.012V198.445C216.012 195.115 214.677 193.45 212.007 193.45C210.537 193.45 209.352 193.93 208.452 194.89C207.582 195.85 207.147 197.29 207.147 199.21V211H198.597V186.61H206.742V189.265C207.702 188.275 208.842 187.525 210.162 187.015C211.482 186.475 212.922 186.205 214.482 186.205ZM243.422 211.405C240.722 211.405 238.307 210.865 236.177 209.785C234.047 208.705 232.382 207.205 231.182 205.285C230.012 203.365 229.427 201.19 229.427 198.76C229.427 196.33 230.012 194.17 231.182 192.28C232.382 190.36 234.047 188.875 236.177 187.825C238.307 186.745 240.722 186.205 243.422 186.205C246.182 186.205 248.567 186.805 250.577 188.005C252.587 189.175 254.012 190.81 254.852 192.91L248.237 196.285C247.127 194.095 245.507 193 243.377 193C241.847 193 240.572 193.51 239.552 194.53C238.562 195.55 238.067 196.96 238.067 198.76C238.067 200.59 238.562 202.03 239.552 203.08C240.572 204.1 241.847 204.61 243.377 204.61C245.507 204.61 247.127 203.515 248.237 201.325L254.852 204.7C254.012 206.8 252.587 208.45 250.577 209.65C248.567 210.82 246.182 211.405 243.422 211.405ZM275.971 210.01C275.251 210.46 274.366 210.805 273.316 211.045C272.296 211.285 271.201 211.405 270.031 211.405C266.851 211.405 264.406 210.625 262.696 209.065C260.986 207.505 260.131 205.18 260.131 202.09V193.9H256.576V187.51H260.131V181.165H268.681V187.51H274.261V193.9H268.681V202C268.681 202.87 268.906 203.56 269.356 204.07C269.836 204.55 270.466 204.79 271.246 204.79C272.236 204.79 273.106 204.535 273.856 204.025L275.971 210.01ZM279.943 186.61H288.493V211H279.943V186.61ZM284.218 183.91C282.658 183.91 281.398 183.475 280.438 182.605C279.478 181.735 278.998 180.655 278.998 179.365C278.998 178.075 279.478 176.995 280.438 176.125C281.398 175.255 282.658 174.82 284.218 174.82C285.778 174.82 287.038 175.24 287.998 176.08C288.958 176.89 289.438 177.94 289.438 179.23C289.438 180.58 288.958 181.705 287.998 182.605C287.038 183.475 285.778 183.91 284.218 183.91ZM306.965 211.405C304.355 211.405 302 210.865 299.9 209.785C297.8 208.705 296.15 207.205 294.95 205.285C293.78 203.365 293.195 201.19 293.195 198.76C293.195 196.36 293.78 194.2 294.95 192.28C296.15 190.36 297.785 188.875 299.855 187.825C301.955 186.745 304.325 186.205 306.965 186.205C309.605 186.205 311.975 186.745 314.075 187.825C316.175 188.875 317.81 190.36 318.98 192.28C320.15 194.17 320.735 196.33 320.735 198.76C320.735 201.19 320.15 203.365 318.98 205.285C317.81 207.205 316.175 208.705 314.075 209.785C311.975 210.865 309.605 211.405 306.965 211.405ZM306.965 204.61C308.465 204.61 309.695 204.1 310.655 203.08C311.615 202.03 312.095 200.59 312.095 198.76C312.095 196.96 311.615 195.55 310.655 194.53C309.695 193.51 308.465 193 306.965 193C305.465 193 304.235 193.51 303.275 194.53C302.315 195.55 301.835 196.96 301.835 198.76C301.835 200.59 302.315 202.03 303.275 203.08C304.235 204.1 305.465 204.61 306.965 204.61ZM341.255 186.205C344.285 186.205 346.715 187.105 348.545 188.905C350.405 190.705 351.335 193.42 351.335 197.05V211H342.785V198.445C342.785 195.115 341.45 193.45 338.78 193.45C337.31 193.45 336.125 193.93 335.225 194.89C334.355 195.85 333.92 197.29 333.92 199.21V211H325.37V186.61H333.515V189.265C334.475 188.275 335.615 187.525 336.935 187.015C338.255 186.475 339.695 186.205 341.255 186.205ZM367.773 186.205C371.823 186.205 374.913 187.135 377.043 188.995C379.173 190.825 380.238 193.645 380.238 197.455V211H372.273V207.85C371.043 210.22 368.643 211.405 365.073 211.405C363.183 211.405 361.548 211.075 360.168 210.415C358.788 209.755 357.738 208.87 357.018 207.76C356.328 206.62 355.983 205.33 355.983 203.89C355.983 201.58 356.868 199.795 358.638 198.535C360.408 197.245 363.138 196.6 366.828 196.6H371.688C371.538 194.02 369.813 192.73 366.513 192.73C365.343 192.73 364.158 192.925 362.958 193.315C361.758 193.675 360.738 194.185 359.898 194.845L357.018 189.04C358.368 188.14 360.003 187.45 361.923 186.97C363.873 186.46 365.823 186.205 367.773 186.205ZM367.458 206.005C368.448 206.005 369.318 205.765 370.068 205.285C370.818 204.805 371.358 204.1 371.688 203.17V201.055H367.998C365.508 201.055 364.263 201.88 364.263 203.53C364.263 204.28 364.548 204.88 365.118 205.33C365.688 205.78 366.468 206.005 367.458 206.005ZM386.31 177.61H394.86V211H386.31V177.61ZM401.092 186.61H409.642V211H401.092V186.61ZM405.367 183.91C403.807 183.91 402.547 183.475 401.587 182.605C400.627 181.735 400.147 180.655 400.147 179.365C400.147 178.075 400.627 176.995 401.587 176.125C402.547 175.255 403.807 174.82 405.367 174.82C406.927 174.82 408.187 175.24 409.147 176.08C410.107 176.89 410.587 177.94 410.587 179.23C410.587 180.58 410.107 181.705 409.147 182.605C408.187 183.475 406.927 183.91 405.367 183.91ZM432.703 210.01C431.983 210.46 431.098 210.805 430.048 211.045C429.028 211.285 427.933 211.405 426.763 211.405C423.583 211.405 421.138 210.625 419.428 209.065C417.718 207.505 416.863 205.18 416.863 202.09V193.9H413.308V187.51H416.863V181.165H425.413V187.51H430.993V193.9H425.413V202C425.413 202.87 425.638 203.56 426.088 204.07C426.568 204.55 427.198 204.79 427.978 204.79C428.968 204.79 429.838 204.535 430.588 204.025L432.703 210.01ZM436.675 186.61H445.225V211H436.675V186.61ZM440.95 183.91C439.39 183.91 438.13 183.475 437.17 182.605C436.21 181.735 435.73 180.655 435.73 179.365C435.73 178.075 436.21 176.995 437.17 176.125C438.13 175.255 439.39 174.82 440.95 174.82C442.51 174.82 443.77 175.24 444.73 176.08C445.69 176.89 446.17 177.94 446.17 179.23C446.17 180.58 445.69 181.705 444.73 182.605C443.77 183.475 442.51 183.91 440.95 183.91ZM476.387 198.85C476.387 198.91 476.342 199.615 476.252 200.965H458.522C458.882 202.225 459.572 203.2 460.592 203.89C461.642 204.55 462.947 204.88 464.507 204.88C465.677 204.88 466.682 204.715 467.522 204.385C468.392 204.055 469.262 203.515 470.132 202.765L474.632 207.445C472.262 210.085 468.797 211.405 464.237 211.405C461.387 211.405 458.882 210.865 456.722 209.785C454.562 208.705 452.882 207.205 451.682 205.285C450.512 203.365 449.927 201.19 449.927 198.76C449.927 196.36 450.497 194.215 451.637 192.325C452.807 190.405 454.412 188.905 456.452 187.825C458.492 186.745 460.787 186.205 463.337 186.205C465.767 186.205 467.972 186.715 469.952 187.735C471.932 188.725 473.492 190.18 474.632 192.1C475.802 193.99 476.387 196.24 476.387 198.85ZM463.382 192.28C462.062 192.28 460.952 192.655 460.052 193.405C459.182 194.155 458.627 195.175 458.387 196.465H468.377C468.137 195.175 467.567 194.155 466.667 193.405C465.797 192.655 464.702 192.28 463.382 192.28ZM489.869 211.405C487.829 211.405 485.819 211.18 483.839 210.73C481.859 210.25 480.269 209.635 479.069 208.885L481.634 203.035C482.744 203.725 484.064 204.28 485.594 204.7C487.124 205.09 488.639 205.285 490.139 205.285C491.519 205.285 492.494 205.15 493.064 204.88C493.664 204.58 493.964 204.16 493.964 203.62C493.964 203.08 493.604 202.705 492.884 202.495C492.194 202.255 491.084 202.03 489.554 201.82C487.604 201.58 485.939 201.265 484.559 200.875C483.209 200.485 482.039 199.765 481.049 198.715C480.059 197.665 479.564 196.195 479.564 194.305C479.564 192.745 480.029 191.365 480.959 190.165C481.889 188.935 483.239 187.975 485.009 187.285C486.809 186.565 488.954 186.205 491.444 186.205C493.214 186.205 494.969 186.385 496.709 186.745C498.449 187.105 499.904 187.615 501.074 188.275L498.509 194.08C496.349 192.88 494.009 192.28 491.489 192.28C490.139 192.28 489.149 192.445 488.519 192.775C487.889 193.075 487.574 193.48 487.574 193.99C487.574 194.56 487.919 194.965 488.609 195.205C489.299 195.415 490.439 195.64 492.029 195.88C494.039 196.18 495.704 196.525 497.024 196.915C498.344 197.305 499.484 198.025 500.444 199.075C501.434 200.095 501.929 201.535 501.929 203.395C501.929 204.925 501.464 206.305 500.534 207.535C499.604 208.735 498.224 209.68 496.394 210.37C494.594 211.06 492.419 211.405 489.869 211.405Z" fill="#2B2B2B"/>
<path d="M964.328 214.264C965.288 214.568 966.04 215.08 966.584 215.8C967.128 216.504 967.4 217.376 967.4 218.416C967.4 219.888 966.824 221.024 965.672 221.824C964.536 222.608 962.872 223 960.68 223H951.992V206.2H960.2C962.248 206.2 963.816 206.592 964.904 207.376C966.008 208.16 966.56 209.224 966.56 210.568C966.56 211.384 966.36 212.112 965.96 212.752C965.576 213.392 965.032 213.896 964.328 214.264ZM955.856 209.128V213.088H959.72C960.68 213.088 961.408 212.92 961.904 212.584C962.4 212.248 962.648 211.752 962.648 211.096C962.648 210.44 962.4 209.952 961.904 209.632C961.408 209.296 960.68 209.128 959.72 209.128H955.856ZM960.392 220.072C961.416 220.072 962.184 219.904 962.696 219.568C963.224 219.232 963.488 218.712 963.488 218.008C963.488 216.616 962.456 215.92 960.392 215.92H955.856V220.072H960.392ZM983.448 210.088V223H979.896V221.464C979.4 222.024 978.808 222.456 978.12 222.76C977.432 223.048 976.688 223.192 975.888 223.192C974.192 223.192 972.848 222.704 971.856 221.728C970.864 220.752 970.368 219.304 970.368 217.384V210.088H974.112V216.832C974.112 218.912 974.984 219.952 976.728 219.952C977.624 219.952 978.344 219.664 978.888 219.088C979.432 218.496 979.704 217.624 979.704 216.472V210.088H983.448ZM1000.43 205.192V223H996.852V221.512C995.924 222.632 994.58 223.192 992.82 223.192C991.604 223.192 990.5 222.92 989.508 222.376C988.532 221.832 987.764 221.056 987.204 220.048C986.644 219.04 986.364 217.872 986.364 216.544C986.364 215.216 986.644 214.048 987.204 213.04C987.764 212.032 988.532 211.256 989.508 210.712C990.5 210.168 991.604 209.896 992.82 209.896C994.468 209.896 995.756 210.416 996.684 211.456V205.192H1000.43ZM993.468 220.12C994.412 220.12 995.196 219.8 995.82 219.16C996.444 218.504 996.756 217.632 996.756 216.544C996.756 215.456 996.444 214.592 995.82 213.952C995.196 213.296 994.412 212.968 993.468 212.968C992.508 212.968 991.716 213.296 991.092 213.952C990.468 214.592 990.156 215.456 990.156 216.544C990.156 217.632 990.468 218.504 991.092 219.16C991.716 219.8 992.508 220.12 993.468 220.12ZM1017.57 210.088V220.84C1017.57 223.208 1016.96 224.968 1015.73 226.12C1014.49 227.272 1012.69 227.848 1010.33 227.848C1009.08 227.848 1007.89 227.696 1006.77 227.392C1005.65 227.088 1004.73 226.648 1003.99 226.072L1005.48 223.384C1006.02 223.832 1006.71 224.184 1007.54 224.44C1008.37 224.712 1009.21 224.848 1010.04 224.848C1011.33 224.848 1012.29 224.552 1012.89 223.96C1013.52 223.384 1013.83 222.504 1013.83 221.32V220.768C1012.85 221.84 1011.49 222.376 1009.75 222.376C1008.57 222.376 1007.48 222.12 1006.49 221.608C1005.51 221.08 1004.73 220.344 1004.16 219.4C1003.58 218.456 1003.29 217.368 1003.29 216.136C1003.29 214.904 1003.58 213.816 1004.16 212.872C1004.73 211.928 1005.51 211.2 1006.49 210.688C1007.48 210.16 1008.57 209.896 1009.75 209.896C1011.62 209.896 1013.05 210.512 1014.02 211.744V210.088H1017.57ZM1010.49 219.304C1011.49 219.304 1012.29 219.016 1012.92 218.44C1013.56 217.848 1013.88 217.08 1013.88 216.136C1013.88 215.192 1013.56 214.432 1012.92 213.856C1012.29 213.264 1011.49 212.968 1010.49 212.968C1009.5 212.968 1008.69 213.264 1008.05 213.856C1007.41 214.432 1007.09 215.192 1007.09 216.136C1007.09 217.08 1007.41 217.848 1008.05 218.44C1008.69 219.016 1009.5 219.304 1010.49 219.304ZM1034.07 216.592C1034.07 216.64 1034.04 216.976 1033.99 217.6H1024.23C1024.4 218.4 1024.82 219.032 1025.47 219.496C1026.13 219.96 1026.95 220.192 1027.92 220.192C1028.59 220.192 1029.19 220.096 1029.7 219.904C1030.23 219.696 1030.71 219.376 1031.16 218.944L1033.15 221.104C1031.94 222.496 1030.16 223.192 1027.83 223.192C1026.37 223.192 1025.08 222.912 1023.96 222.352C1022.84 221.776 1021.98 220.984 1021.37 219.976C1020.76 218.968 1020.46 217.824 1020.46 216.544C1020.46 215.28 1020.75 214.144 1021.35 213.136C1021.95 212.112 1022.78 211.32 1023.82 210.76C1024.87 210.184 1026.05 209.896 1027.35 209.896C1028.61 209.896 1029.75 210.168 1030.78 210.712C1031.8 211.256 1032.6 212.04 1033.18 213.064C1033.77 214.072 1034.07 215.248 1034.07 216.592ZM1027.37 212.728C1026.52 212.728 1025.81 212.968 1025.23 213.448C1024.66 213.928 1024.31 214.584 1024.18 215.416H1030.54C1030.41 214.6 1030.06 213.952 1029.48 213.472C1028.91 212.976 1028.2 212.728 1027.37 212.728ZM1045.25 222.376C1044.88 222.648 1044.42 222.856 1043.88 223C1043.35 223.128 1042.79 223.192 1042.2 223.192C1040.66 223.192 1039.47 222.8 1038.62 222.016C1037.79 221.232 1037.37 220.08 1037.37 218.56V213.256H1035.38V210.376H1037.37V207.232H1041.12V210.376H1044.33V213.256H1041.12V218.512C1041.12 219.056 1041.25 219.48 1041.53 219.784C1041.81 220.072 1042.21 220.216 1042.73 220.216C1043.32 220.216 1043.82 220.056 1044.24 219.736L1045.25 222.376ZM1067.51 216.592C1067.51 216.64 1067.49 216.976 1067.44 217.6H1057.67C1057.85 218.4 1058.27 219.032 1058.92 219.496C1059.58 219.96 1060.39 220.192 1061.37 220.192C1062.04 220.192 1062.63 220.096 1063.15 219.904C1063.67 219.696 1064.16 219.376 1064.61 218.944L1066.6 221.104C1065.39 222.496 1063.61 223.192 1061.27 223.192C1059.82 223.192 1058.53 222.912 1057.41 222.352C1056.29 221.776 1055.43 220.984 1054.82 219.976C1054.21 218.968 1053.91 217.824 1053.91 216.544C1053.91 215.28 1054.2 214.144 1054.79 213.136C1055.4 212.112 1056.23 211.32 1057.27 210.76C1058.32 210.184 1059.5 209.896 1060.79 209.896C1062.06 209.896 1063.2 210.168 1064.23 210.712C1065.25 211.256 1066.05 212.04 1066.63 213.064C1067.22 214.072 1067.51 215.248 1067.51 216.592ZM1060.82 212.728C1059.97 212.728 1059.26 212.968 1058.68 213.448C1058.11 213.928 1057.75 214.584 1057.63 215.416H1063.99C1063.86 214.6 1063.51 213.952 1062.93 213.472C1062.35 212.976 1061.65 212.728 1060.82 212.728ZM1074.71 223.192C1073.64 223.192 1072.59 223.064 1071.57 222.808C1070.54 222.536 1069.73 222.2 1069.12 221.8L1070.37 219.112C1070.94 219.48 1071.64 219.784 1072.45 220.024C1073.27 220.248 1074.07 220.36 1074.85 220.36C1076.44 220.36 1077.23 219.968 1077.23 219.184C1077.23 218.816 1077.01 218.552 1076.58 218.392C1076.15 218.232 1075.49 218.096 1074.59 217.984C1073.53 217.824 1072.66 217.64 1071.97 217.432C1071.29 217.224 1070.69 216.856 1070.17 216.328C1069.68 215.8 1069.43 215.048 1069.43 214.072C1069.43 213.256 1069.66 212.536 1070.13 211.912C1070.61 211.272 1071.29 210.776 1072.19 210.424C1073.1 210.072 1074.17 209.896 1075.41 209.896C1076.32 209.896 1077.22 210 1078.12 210.208C1079.03 210.4 1079.78 210.672 1080.37 211.024L1079.13 213.688C1077.99 213.048 1076.75 212.728 1075.41 212.728C1074.61 212.728 1074.01 212.84 1073.61 213.064C1073.21 213.288 1073.01 213.576 1073.01 213.928C1073.01 214.328 1073.22 214.608 1073.65 214.768C1074.09 214.928 1074.77 215.08 1075.72 215.224C1076.77 215.4 1077.64 215.592 1078.31 215.8C1078.98 215.992 1079.57 216.352 1080.06 216.88C1080.56 217.408 1080.81 218.144 1080.81 219.088C1080.81 219.888 1080.57 220.6 1080.09 221.224C1079.61 221.848 1078.9 222.336 1077.97 222.688C1077.06 223.024 1075.97 223.192 1074.71 223.192ZM1091.8 222.376C1091.44 222.648 1090.98 222.856 1090.44 223C1089.91 223.128 1089.35 223.192 1088.76 223.192C1087.22 223.192 1086.03 222.8 1085.18 222.016C1084.35 221.232 1083.93 220.08 1083.93 218.56V213.256H1081.94V210.376H1083.93V207.232H1087.68V210.376H1090.89V213.256H1087.68V218.512C1087.68 219.056 1087.81 219.48 1088.08 219.784C1088.37 220.072 1088.77 220.216 1089.28 220.216C1089.88 220.216 1090.38 220.056 1090.8 219.736L1091.8 222.376ZM1094.27 210.088H1098.01V223H1094.27V210.088ZM1096.14 208.288C1095.45 208.288 1094.89 208.088 1094.46 207.688C1094.03 207.288 1093.81 206.792 1093.81 206.2C1093.81 205.608 1094.03 205.112 1094.46 204.712C1094.89 204.312 1095.45 204.112 1096.14 204.112C1096.83 204.112 1097.39 204.304 1097.82 204.688C1098.25 205.072 1098.47 205.552 1098.47 206.128C1098.47 206.752 1098.25 207.272 1097.82 207.688C1097.39 208.088 1096.83 208.288 1096.14 208.288ZM1118.38 209.896C1120 209.896 1121.28 210.376 1122.22 211.336C1123.18 212.28 1123.66 213.704 1123.66 215.608V223H1119.92V216.184C1119.92 215.16 1119.7 214.4 1119.27 213.904C1118.85 213.392 1118.25 213.136 1117.47 213.136C1116.59 213.136 1115.89 213.424 1115.38 214C1114.87 214.56 1114.61 215.4 1114.61 216.52V223H1110.87V216.184C1110.87 214.152 1110.05 213.136 1108.42 213.136C1107.56 213.136 1106.87 213.424 1106.36 214C1105.84 214.56 1105.59 215.4 1105.59 216.52V223H1101.84V210.088H1105.42V211.576C1105.9 211.032 1106.48 210.616 1107.17 210.328C1107.88 210.04 1108.64 209.896 1109.48 209.896C1110.39 209.896 1111.21 210.08 1111.95 210.448C1112.68 210.8 1113.28 211.32 1113.72 212.008C1114.25 211.336 1114.92 210.816 1115.72 210.448C1116.53 210.08 1117.42 209.896 1118.38 209.896ZM1132.58 209.896C1134.58 209.896 1136.12 210.376 1137.19 211.336C1138.26 212.28 1138.8 213.712 1138.8 215.632V223H1135.3V221.392C1134.59 222.592 1133.28 223.192 1131.36 223.192C1130.37 223.192 1129.5 223.024 1128.77 222.688C1128.05 222.352 1127.5 221.888 1127.11 221.296C1126.73 220.704 1126.54 220.032 1126.54 219.28C1126.54 218.08 1126.98 217.136 1127.88 216.448C1128.79 215.76 1130.19 215.416 1132.08 215.416H1135.06C1135.06 214.6 1134.81 213.976 1134.31 213.544C1133.82 213.096 1133.07 212.872 1132.08 212.872C1131.39 212.872 1130.71 212.984 1130.04 213.208C1129.38 213.416 1128.82 213.704 1128.36 214.072L1127.02 211.456C1127.72 210.96 1128.56 210.576 1129.54 210.304C1130.53 210.032 1131.54 209.896 1132.58 209.896ZM1132.3 220.672C1132.94 220.672 1133.5 220.528 1134 220.24C1134.5 219.936 1134.85 219.496 1135.06 218.92V217.6H1132.49C1130.95 217.6 1130.18 218.104 1130.18 219.112C1130.18 219.592 1130.37 219.976 1130.74 220.264C1131.12 220.536 1131.64 220.672 1132.3 220.672ZM1150.88 222.376C1150.51 222.648 1150.05 222.856 1149.51 223C1148.98 223.128 1148.42 223.192 1147.83 223.192C1146.29 223.192 1145.1 222.8 1144.25 222.016C1143.42 221.232 1143 220.08 1143 218.56V213.256H1141.01V210.376H1143V207.232H1146.75V210.376H1149.96V213.256H1146.75V218.512C1146.75 219.056 1146.88 219.48 1147.16 219.784C1147.44 220.072 1147.84 220.216 1148.36 220.216C1148.95 220.216 1149.45 220.056 1149.87 219.736L1150.88 222.376ZM1153.34 210.088H1157.08V223H1153.34V210.088ZM1155.21 208.288C1154.52 208.288 1153.96 208.088 1153.53 207.688C1153.1 207.288 1152.88 206.792 1152.88 206.2C1152.88 205.608 1153.1 205.112 1153.53 204.712C1153.96 204.312 1154.52 204.112 1155.21 204.112C1155.9 204.112 1156.46 204.304 1156.89 204.688C1157.32 205.072 1157.54 205.552 1157.54 206.128C1157.54 206.752 1157.32 207.272 1156.89 207.688C1156.46 208.088 1155.9 208.288 1155.21 208.288ZM1167.06 223.192C1165.7 223.192 1164.48 222.912 1163.39 222.352C1162.32 221.776 1161.48 220.984 1160.87 219.976C1160.26 218.968 1159.96 217.824 1159.96 216.544C1159.96 215.264 1160.26 214.12 1160.87 213.112C1161.48 212.104 1162.32 211.32 1163.39 210.76C1164.48 210.184 1165.7 209.896 1167.06 209.896C1168.42 209.896 1169.64 210.184 1170.71 210.76C1171.78 211.32 1172.62 212.104 1173.23 213.112C1173.84 214.12 1174.14 215.264 1174.14 216.544C1174.14 217.824 1173.84 218.968 1173.23 219.976C1172.62 220.984 1171.78 221.776 1170.71 222.352C1169.64 222.912 1168.42 223.192 1167.06 223.192ZM1167.06 220.12C1168.02 220.12 1168.81 219.8 1169.41 219.16C1170.04 218.504 1170.35 217.632 1170.35 216.544C1170.35 215.456 1170.04 214.592 1169.41 213.952C1168.81 213.296 1168.02 212.968 1167.06 212.968C1166.1 212.968 1165.31 213.296 1164.69 213.952C1164.06 214.592 1163.75 215.456 1163.75 216.544C1163.75 217.632 1164.06 218.504 1164.69 219.16C1165.31 219.8 1166.1 220.12 1167.06 220.12ZM1184.85 209.896C1186.45 209.896 1187.74 210.376 1188.72 211.336C1189.71 212.296 1190.2 213.72 1190.2 215.608V223H1186.46V216.184C1186.46 215.16 1186.24 214.4 1185.79 213.904C1185.34 213.392 1184.69 213.136 1183.84 213.136C1182.9 213.136 1182.15 213.432 1181.59 214.024C1181.03 214.6 1180.75 215.464 1180.75 216.616V223H1177V210.088H1180.58V211.6C1181.08 211.056 1181.69 210.64 1182.43 210.352C1183.16 210.048 1183.97 209.896 1184.85 209.896Z" fill="#2B2B2B"/>
<path d="M957.992 63.2H965.624C967.448 63.2 969.056 63.552 970.448 64.256C971.856 64.944 972.944 65.92 973.712 67.184C974.496 68.448 974.888 69.92 974.888 71.6C974.888 73.28 974.496 74.752 973.712 76.016C972.944 77.28 971.856 78.264 970.448 78.968C969.056 79.656 967.448 80 965.624 80H957.992V63.2ZM965.432 76.808C967.112 76.808 968.448 76.344 969.44 75.416C970.448 74.472 970.952 73.2 970.952 71.6C970.952 70 970.448 68.736 969.44 67.808C968.448 66.864 967.112 66.392 965.432 66.392H961.88V76.808H965.432ZM983.124 66.896C985.124 66.896 986.66 67.376 987.732 68.336C988.804 69.28 989.34 70.712 989.34 72.632V80H985.836V78.392C985.132 79.592 983.82 80.192 981.9 80.192C980.908 80.192 980.044 80.024 979.308 79.688C978.588 79.352 978.036 78.888 977.652 78.296C977.268 77.704 977.076 77.032 977.076 76.28C977.076 75.08 977.524 74.136 978.42 73.448C979.332 72.76 980.732 72.416 982.62 72.416H985.596C985.596 71.6 985.348 70.976 984.852 70.544C984.356 70.096 983.612 69.872 982.62 69.872C981.932 69.872 981.252 69.984 980.58 70.208C979.924 70.416 979.364 70.704 978.9 71.072L977.556 68.456C978.26 67.96 979.1 67.576 980.076 67.304C981.068 67.032 982.084 66.896 983.124 66.896ZM982.836 77.672C983.476 77.672 984.044 77.528 984.54 77.24C985.036 76.936 985.388 76.496 985.596 75.92V74.6H983.028C981.492 74.6 980.724 75.104 980.724 76.112C980.724 76.592 980.908 76.976 981.276 77.264C981.66 77.536 982.18 77.672 982.836 77.672ZM1005.67 67.088L999.838 80.792C999.246 82.28 998.51 83.328 997.63 83.936C996.766 84.544 995.718 84.848 994.486 84.848C993.814 84.848 993.15 84.744 992.494 84.536C991.838 84.328 991.302 84.04 990.886 83.672L992.254 81.008C992.542 81.264 992.87 81.464 993.238 81.608C993.622 81.752 993.998 81.824 994.366 81.824C994.878 81.824 995.294 81.696 995.614 81.44C995.934 81.2 996.222 80.792 996.478 80.216L996.526 80.096L990.934 67.088H994.798L998.422 75.848L1002.07 67.088H1005.67ZM1022.35 66.896C1023.55 66.896 1024.63 67.176 1025.61 67.736C1026.6 68.28 1027.38 69.056 1027.94 70.064C1028.5 71.056 1028.78 72.216 1028.78 73.544C1028.78 74.872 1028.5 76.04 1027.94 77.048C1027.38 78.04 1026.6 78.816 1025.61 79.376C1024.63 79.92 1023.55 80.192 1022.35 80.192C1020.57 80.192 1019.22 79.632 1018.29 78.512V80H1014.71V62.192H1018.46V68.456C1019.4 67.416 1020.7 66.896 1022.35 66.896ZM1021.7 77.12C1022.66 77.12 1023.44 76.8 1024.05 76.16C1024.67 75.504 1024.99 74.632 1024.99 73.544C1024.99 72.456 1024.67 71.592 1024.05 70.952C1023.44 70.296 1022.66 69.968 1021.7 69.968C1020.74 69.968 1019.95 70.296 1019.32 70.952C1018.71 71.592 1018.41 72.456 1018.41 73.544C1018.41 74.632 1018.71 75.504 1019.32 76.16C1019.95 76.8 1020.74 77.12 1021.7 77.12ZM1044.11 67.088L1038.28 80.792C1037.69 82.28 1036.95 83.328 1036.07 83.936C1035.21 84.544 1034.16 84.848 1032.93 84.848C1032.25 84.848 1031.59 84.744 1030.93 84.536C1030.28 84.328 1029.74 84.04 1029.33 83.672L1030.69 81.008C1030.98 81.264 1031.31 81.464 1031.68 81.608C1032.06 81.752 1032.44 81.824 1032.81 81.824C1033.32 81.824 1033.73 81.696 1034.05 81.44C1034.37 81.2 1034.66 80.792 1034.92 80.216L1034.97 80.096L1029.37 67.088H1033.24L1036.86 75.848L1040.51 67.088H1044.11ZM1066.31 62.192V80H1062.73V78.512C1061.8 79.632 1060.46 80.192 1058.7 80.192C1057.48 80.192 1056.38 79.92 1055.39 79.376C1054.41 78.832 1053.64 78.056 1053.08 77.048C1052.52 76.04 1052.24 74.872 1052.24 73.544C1052.24 72.216 1052.52 71.048 1053.08 70.04C1053.64 69.032 1054.41 68.256 1055.39 67.712C1056.38 67.168 1057.48 66.896 1058.7 66.896C1060.35 66.896 1061.63 67.416 1062.56 68.456V62.192H1066.31ZM1059.35 77.12C1060.29 77.12 1061.07 76.8 1061.7 76.16C1062.32 75.504 1062.63 74.632 1062.63 73.544C1062.63 72.456 1062.32 71.592 1061.7 70.952C1061.07 70.296 1060.29 69.968 1059.35 69.968C1058.39 69.968 1057.59 70.296 1056.97 70.952C1056.35 71.592 1056.03 72.456 1056.03 73.544C1056.03 74.632 1056.35 75.504 1056.97 76.16C1057.59 76.8 1058.39 77.12 1059.35 77.12ZM1075.34 66.896C1077.34 66.896 1078.88 67.376 1079.95 68.336C1081.02 69.28 1081.56 70.712 1081.56 72.632V80H1078.05V78.392C1077.35 79.592 1076.04 80.192 1074.12 80.192C1073.12 80.192 1072.26 80.024 1071.52 79.688C1070.8 79.352 1070.25 78.888 1069.87 78.296C1069.48 77.704 1069.29 77.032 1069.29 76.28C1069.29 75.08 1069.74 74.136 1070.64 73.448C1071.55 72.76 1072.95 72.416 1074.84 72.416H1077.81C1077.81 71.6 1077.56 70.976 1077.07 70.544C1076.57 70.096 1075.83 69.872 1074.84 69.872C1074.15 69.872 1073.47 69.984 1072.8 70.208C1072.14 70.416 1071.58 70.704 1071.12 71.072L1069.77 68.456C1070.48 67.96 1071.32 67.576 1072.29 67.304C1073.28 67.032 1074.3 66.896 1075.34 66.896ZM1075.05 77.672C1075.69 77.672 1076.26 77.528 1076.76 77.24C1077.25 76.936 1077.6 76.496 1077.81 75.92V74.6H1075.24C1073.71 74.6 1072.94 75.104 1072.94 76.112C1072.94 76.592 1073.12 76.976 1073.49 77.264C1073.88 77.536 1074.4 77.672 1075.05 77.672ZM1097.89 67.088L1092.05 80.792C1091.46 82.28 1090.73 83.328 1089.85 83.936C1088.98 84.544 1087.93 84.848 1086.7 84.848C1086.03 84.848 1085.37 84.744 1084.71 84.536C1084.05 84.328 1083.52 84.04 1083.1 83.672L1084.47 81.008C1084.76 81.264 1085.09 81.464 1085.45 81.608C1085.84 81.752 1086.21 81.824 1086.58 81.824C1087.09 81.824 1087.51 81.696 1087.83 81.44C1088.15 81.2 1088.44 80.792 1088.69 80.216L1088.74 80.096L1083.15 67.088H1087.01L1090.64 75.848L1094.29 67.088H1097.89ZM1111.27 80.192C1110.2 80.192 1109.15 80.064 1108.13 79.808C1107.11 79.536 1106.29 79.2 1105.68 78.8L1106.93 76.112C1107.51 76.48 1108.2 76.784 1109.02 77.024C1109.83 77.248 1110.63 77.36 1111.42 77.36C1113 77.36 1113.79 76.968 1113.79 76.184C1113.79 75.816 1113.58 75.552 1113.15 75.392C1112.71 75.232 1112.05 75.096 1111.15 74.984C1110.1 74.824 1109.23 74.64 1108.54 74.432C1107.85 74.224 1107.25 73.856 1106.74 73.328C1106.24 72.8 1105.99 72.048 1105.99 71.072C1105.99 70.256 1106.23 69.536 1106.69 68.912C1107.17 68.272 1107.86 67.776 1108.75 67.424C1109.67 67.072 1110.74 66.896 1111.97 66.896C1112.88 66.896 1113.79 67 1114.68 67.208C1115.59 67.4 1116.35 67.672 1116.94 68.024L1115.69 70.688C1114.55 70.048 1113.31 69.728 1111.97 69.728C1111.17 69.728 1110.57 69.84 1110.17 70.064C1109.77 70.288 1109.57 70.576 1109.57 70.928C1109.57 71.328 1109.79 71.608 1110.22 71.768C1110.65 71.928 1111.34 72.08 1112.28 72.224C1113.34 72.4 1114.2 72.592 1114.87 72.8C1115.55 72.992 1116.13 73.352 1116.63 73.88C1117.12 74.408 1117.37 75.144 1117.37 76.088C1117.37 76.888 1117.13 77.6 1116.65 78.224C1116.17 78.848 1115.47 79.336 1114.54 79.688C1113.63 80.024 1112.54 80.192 1111.27 80.192ZM1126.28 80.192C1124.9 80.192 1123.66 79.912 1122.56 79.352C1121.47 78.776 1120.62 77.984 1119.99 76.976C1119.38 75.968 1119.08 74.824 1119.08 73.544C1119.08 72.264 1119.38 71.12 1119.99 70.112C1120.62 69.104 1121.47 68.32 1122.56 67.76C1123.66 67.184 1124.9 66.896 1126.28 66.896C1127.64 66.896 1128.82 67.184 1129.83 67.76C1130.86 68.32 1131.6 69.128 1132.06 70.184L1129.16 71.744C1128.49 70.56 1127.52 69.968 1126.26 69.968C1125.28 69.968 1124.47 70.288 1123.83 70.928C1123.19 71.568 1122.87 72.44 1122.87 73.544C1122.87 74.648 1123.19 75.52 1123.83 76.16C1124.47 76.8 1125.28 77.12 1126.26 77.12C1127.54 77.12 1128.5 76.528 1129.16 75.344L1132.06 76.928C1131.6 77.952 1130.86 78.752 1129.83 79.328C1128.82 79.904 1127.64 80.192 1126.28 80.192ZM1142.33 66.896C1143.93 66.896 1145.22 67.376 1146.2 68.336C1147.19 69.296 1147.69 70.72 1147.69 72.608V80H1143.94V73.184C1143.94 72.16 1143.72 71.4 1143.27 70.904C1142.82 70.392 1142.17 70.136 1141.33 70.136C1140.38 70.136 1139.63 70.432 1139.07 71.024C1138.51 71.6 1138.23 72.464 1138.23 73.616V80H1134.49V62.192H1138.23V68.432C1138.73 67.936 1139.33 67.56 1140.03 67.304C1140.73 67.032 1141.5 66.896 1142.33 66.896ZM1164.23 73.592C1164.23 73.64 1164.2 73.976 1164.16 74.6H1154.39C1154.56 75.4 1154.98 76.032 1155.64 76.496C1156.29 76.96 1157.11 77.192 1158.08 77.192C1158.76 77.192 1159.35 77.096 1159.86 76.904C1160.39 76.696 1160.88 76.376 1161.32 75.944L1163.32 78.104C1162.1 79.496 1160.32 80.192 1157.99 80.192C1156.53 80.192 1155.24 79.912 1154.12 79.352C1153 78.776 1152.14 77.984 1151.53 76.976C1150.92 75.968 1150.62 74.824 1150.62 73.544C1150.62 72.28 1150.92 71.144 1151.51 70.136C1152.12 69.112 1152.94 68.32 1153.98 67.76C1155.04 67.184 1156.21 66.896 1157.51 66.896C1158.77 66.896 1159.92 67.168 1160.94 67.712C1161.96 68.256 1162.76 69.04 1163.34 70.064C1163.93 71.072 1164.23 72.248 1164.23 73.592ZM1157.53 69.728C1156.68 69.728 1155.97 69.968 1155.4 70.448C1154.82 70.928 1154.47 71.584 1154.34 72.416H1160.7C1160.57 71.6 1160.22 70.952 1159.64 70.472C1159.07 69.976 1158.36 69.728 1157.53 69.728ZM1180.23 62.192V80H1176.66V78.512C1175.73 79.632 1174.39 80.192 1172.63 80.192C1171.41 80.192 1170.31 79.92 1169.31 79.376C1168.34 78.832 1167.57 78.056 1167.01 77.048C1166.45 76.04 1166.17 74.872 1166.17 73.544C1166.17 72.216 1166.45 71.048 1167.01 70.04C1167.57 69.032 1168.34 68.256 1169.31 67.712C1170.31 67.168 1171.41 66.896 1172.63 66.896C1174.27 66.896 1175.56 67.416 1176.49 68.456V62.192H1180.23ZM1173.27 77.12C1174.22 77.12 1175 76.8 1175.63 76.16C1176.25 75.504 1176.56 74.632 1176.56 73.544C1176.56 72.456 1176.25 71.592 1175.63 70.952C1175 70.296 1174.22 69.968 1173.27 69.968C1172.31 69.968 1171.52 70.296 1170.9 70.952C1170.27 71.592 1169.96 72.456 1169.96 73.544C1169.96 74.632 1170.27 75.504 1170.9 76.16C1171.52 76.8 1172.31 77.12 1173.27 77.12ZM1197.07 67.088V80H1193.51V78.464C1193.02 79.024 1192.43 79.456 1191.74 79.76C1191.05 80.048 1190.31 80.192 1189.51 80.192C1187.81 80.192 1186.47 79.704 1185.47 78.728C1184.48 77.752 1183.99 76.304 1183.99 74.384V67.088H1187.73V73.832C1187.73 75.912 1188.6 76.952 1190.35 76.952C1191.24 76.952 1191.96 76.664 1192.51 76.088C1193.05 75.496 1193.32 74.624 1193.32 73.472V67.088H1197.07ZM1200.89 62.192H1204.64V80H1200.89V62.192ZM1221.12 73.592C1221.12 73.64 1221.1 73.976 1221.05 74.6H1211.28C1211.46 75.4 1211.87 76.032 1212.53 76.496C1213.19 76.96 1214 77.192 1214.98 77.192C1215.65 77.192 1216.24 77.096 1216.75 76.904C1217.28 76.696 1217.77 76.376 1218.22 75.944L1220.21 78.104C1218.99 79.496 1217.22 80.192 1214.88 80.192C1213.43 80.192 1212.14 79.912 1211.02 79.352C1209.9 78.776 1209.03 77.984 1208.43 76.976C1207.82 75.968 1207.51 74.824 1207.51 73.544C1207.51 72.28 1207.81 71.144 1208.4 70.136C1209.01 69.112 1209.83 68.32 1210.87 67.76C1211.93 67.184 1213.11 66.896 1214.4 66.896C1215.67 66.896 1216.81 67.168 1217.83 67.712C1218.86 68.256 1219.66 69.04 1220.23 70.064C1220.83 71.072 1221.12 72.248 1221.12 73.592ZM1214.43 69.728C1213.58 69.728 1212.87 69.968 1212.29 70.448C1211.71 70.928 1211.36 71.584 1211.23 72.416H1217.59C1217.47 71.6 1217.11 70.952 1216.54 70.472C1215.96 69.976 1215.26 69.728 1214.43 69.728ZM1228.32 80.192C1227.25 80.192 1226.2 80.064 1225.17 79.808C1224.15 79.536 1223.33 79.2 1222.73 78.8L1223.97 76.112C1224.55 76.48 1225.25 76.784 1226.06 77.024C1226.88 77.248 1227.68 77.36 1228.46 77.36C1230.05 77.36 1230.84 76.968 1230.84 76.184C1230.84 75.816 1230.62 75.552 1230.19 75.392C1229.76 75.232 1229.09 75.096 1228.2 74.984C1227.14 74.824 1226.27 74.64 1225.58 74.432C1224.89 74.224 1224.29 73.856 1223.78 73.328C1223.29 72.8 1223.04 72.048 1223.04 71.072C1223.04 70.256 1223.27 69.536 1223.73 68.912C1224.21 68.272 1224.9 67.776 1225.8 67.424C1226.71 67.072 1227.78 66.896 1229.01 66.896C1229.93 66.896 1230.83 67 1231.73 67.208C1232.64 67.4 1233.39 67.672 1233.98 68.024L1232.73 70.688C1231.6 70.048 1230.36 69.728 1229.01 69.728C1228.21 69.728 1227.61 69.84 1227.21 70.064C1226.81 70.288 1226.61 70.576 1226.61 70.928C1226.61 71.328 1226.83 71.608 1227.26 71.768C1227.69 71.928 1228.38 72.08 1229.33 72.224C1230.38 72.4 1231.25 72.592 1231.92 72.8C1232.59 72.992 1233.17 73.352 1233.67 73.88C1234.17 74.408 1234.41 75.144 1234.41 76.088C1234.41 76.888 1234.17 77.6 1233.69 78.224C1233.21 78.848 1232.51 79.336 1231.58 79.688C1230.67 80.024 1229.58 80.192 1228.32 80.192Z" fill="#2B2B2B"/>
<path d="M968.144 354.2L960.872 371H957.032L949.784 354.2H953.984L959.096 366.2L964.28 354.2H968.144ZM974.826 371.192C973.466 371.192 972.242 370.912 971.154 370.352C970.082 369.776 969.242 368.984 968.634 367.976C968.026 366.968 967.722 365.824 967.722 364.544C967.722 363.264 968.026 362.12 968.634 361.112C969.242 360.104 970.082 359.32 971.154 358.76C972.242 358.184 973.466 357.896 974.826 357.896C976.186 357.896 977.402 358.184 978.474 358.76C979.546 359.32 980.386 360.104 980.994 361.112C981.602 362.12 981.906 363.264 981.906 364.544C981.906 365.824 981.602 366.968 980.994 367.976C980.386 368.984 979.546 369.776 978.474 370.352C977.402 370.912 976.186 371.192 974.826 371.192ZM974.826 368.12C975.786 368.12 976.57 367.8 977.178 367.16C977.802 366.504 978.114 365.632 978.114 364.544C978.114 363.456 977.802 362.592 977.178 361.952C976.57 361.296 975.786 360.968 974.826 360.968C973.866 360.968 973.074 361.296 972.45 361.952C971.826 362.592 971.514 363.456 971.514 364.544C971.514 365.632 971.826 366.504 972.45 367.16C973.074 367.8 973.866 368.12 974.826 368.12ZM984.768 358.088H988.512V371H984.768V358.088ZM986.64 356.288C985.952 356.288 985.392 356.088 984.96 355.688C984.528 355.288 984.312 354.792 984.312 354.2C984.312 353.608 984.528 353.112 984.96 352.712C985.392 352.312 985.952 352.112 986.64 352.112C987.328 352.112 987.888 352.304 988.32 352.688C988.752 353.072 988.968 353.552 988.968 354.128C988.968 354.752 988.752 355.272 988.32 355.688C987.888 356.088 987.328 356.288 986.64 356.288ZM998.587 371.192C997.211 371.192 995.971 370.912 994.867 370.352C993.779 369.776 992.923 368.984 992.299 367.976C991.691 366.968 991.387 365.824 991.387 364.544C991.387 363.264 991.691 362.12 992.299 361.112C992.923 360.104 993.779 359.32 994.867 358.76C995.971 358.184 997.211 357.896 998.587 357.896C999.947 357.896 1001.13 358.184 1002.14 358.76C1003.16 359.32 1003.91 360.128 1004.37 361.184L1001.47 362.744C1000.8 361.56 999.827 360.968 998.563 360.968C997.587 360.968 996.779 361.288 996.139 361.928C995.499 362.568 995.179 363.44 995.179 364.544C995.179 365.648 995.499 366.52 996.139 367.16C996.779 367.8 997.587 368.12 998.563 368.12C999.843 368.12 1000.81 367.528 1001.47 366.344L1004.37 367.928C1003.91 368.952 1003.16 369.752 1002.14 370.328C1001.13 370.904 999.947 371.192 998.587 371.192ZM1019.37 364.592C1019.37 364.64 1019.35 364.976 1019.3 365.6H1009.53C1009.71 366.4 1010.12 367.032 1010.78 367.496C1011.43 367.96 1012.25 368.192 1013.23 368.192C1013.9 368.192 1014.49 368.096 1015 367.904C1015.53 367.696 1016.02 367.376 1016.47 366.944L1018.46 369.104C1017.24 370.496 1015.47 371.192 1013.13 371.192C1011.67 371.192 1010.39 370.912 1009.27 370.352C1008.15 369.776 1007.28 368.984 1006.67 367.976C1006.07 366.968 1005.76 365.824 1005.76 364.544C1005.76 363.28 1006.06 362.144 1006.65 361.136C1007.26 360.112 1008.08 359.32 1009.12 358.76C1010.18 358.184 1011.35 357.896 1012.65 357.896C1013.91 357.896 1015.06 358.168 1016.08 358.712C1017.11 359.256 1017.91 360.04 1018.48 361.064C1019.07 362.072 1019.37 363.248 1019.37 364.592ZM1012.67 360.728C1011.83 360.728 1011.11 360.968 1010.54 361.448C1009.96 361.928 1009.61 362.584 1009.48 363.416H1015.84C1015.71 362.6 1015.36 361.952 1014.79 361.472C1014.21 360.976 1013.51 360.728 1012.67 360.728ZM1029.38 358.088H1033.12V371H1029.38V358.088ZM1031.25 356.288C1030.56 356.288 1030 356.088 1029.57 355.688C1029.14 355.288 1028.92 354.792 1028.92 354.2C1028.92 353.608 1029.14 353.112 1029.57 352.712C1030 352.312 1030.56 352.112 1031.25 352.112C1031.94 352.112 1032.5 352.304 1032.93 352.688C1033.36 353.072 1033.58 353.552 1033.58 354.128C1033.58 354.752 1033.36 355.272 1032.93 355.688C1032.5 356.088 1031.94 356.288 1031.25 356.288ZM1044.81 357.896C1046.41 357.896 1047.69 358.376 1048.67 359.336C1049.66 360.296 1050.16 361.72 1050.16 363.608V371H1046.41V364.184C1046.41 363.16 1046.19 362.4 1045.74 361.904C1045.29 361.392 1044.65 361.136 1043.8 361.136C1042.85 361.136 1042.1 361.432 1041.54 362.024C1040.98 362.6 1040.7 363.464 1040.7 364.616V371H1036.96V358.088H1040.53V359.6C1041.03 359.056 1041.65 358.64 1042.38 358.352C1043.12 358.048 1043.93 357.896 1044.81 357.896ZM1062.24 370.376C1061.87 370.648 1061.42 370.856 1060.87 371C1060.34 371.128 1059.78 371.192 1059.19 371.192C1057.66 371.192 1056.46 370.8 1055.62 370.016C1054.78 369.232 1054.37 368.08 1054.37 366.56V361.256H1052.38V358.376H1054.37V355.232H1058.11V358.376H1061.33V361.256H1058.11V366.512C1058.11 367.056 1058.25 367.48 1058.52 367.784C1058.81 368.072 1059.21 368.216 1059.72 368.216C1060.31 368.216 1060.82 368.056 1061.23 367.736L1062.24 370.376ZM1076.95 364.592C1076.95 364.64 1076.93 364.976 1076.88 365.6H1067.11C1067.29 366.4 1067.7 367.032 1068.36 367.496C1069.02 367.96 1069.83 368.192 1070.81 368.192C1071.48 368.192 1072.07 368.096 1072.58 367.904C1073.11 367.696 1073.6 367.376 1074.05 366.944L1076.04 369.104C1074.82 370.496 1073.05 371.192 1070.71 371.192C1069.26 371.192 1067.97 370.912 1066.85 370.352C1065.73 369.776 1064.86 368.984 1064.26 367.976C1063.65 366.968 1063.34 365.824 1063.34 364.544C1063.34 363.28 1063.64 362.144 1064.23 361.136C1064.84 360.112 1065.66 359.32 1066.7 358.76C1067.76 358.184 1068.94 357.896 1070.23 357.896C1071.5 357.896 1072.64 358.168 1073.66 358.712C1074.69 359.256 1075.49 360.04 1076.06 361.064C1076.66 362.072 1076.95 363.248 1076.95 364.592ZM1070.26 360.728C1069.41 360.728 1068.7 360.968 1068.12 361.448C1067.54 361.928 1067.19 362.584 1067.06 363.416H1073.42C1073.3 362.6 1072.94 361.952 1072.37 361.472C1071.79 360.976 1071.09 360.728 1070.26 360.728ZM1093.12 358.088V368.84C1093.12 371.208 1092.51 372.968 1091.28 374.12C1090.04 375.272 1088.24 375.848 1085.88 375.848C1084.63 375.848 1083.44 375.696 1082.32 375.392C1081.2 375.088 1080.28 374.648 1079.54 374.072L1081.03 371.384C1081.57 371.832 1082.26 372.184 1083.09 372.44C1083.92 372.712 1084.76 372.848 1085.59 372.848C1086.88 372.848 1087.84 372.552 1088.44 371.96C1089.07 371.384 1089.38 370.504 1089.38 369.32V368.768C1088.4 369.84 1087.04 370.376 1085.3 370.376C1084.12 370.376 1083.03 370.12 1082.04 369.608C1081.06 369.08 1080.28 368.344 1079.71 367.4C1079.13 366.456 1078.84 365.368 1078.84 364.136C1078.84 362.904 1079.13 361.816 1079.71 360.872C1080.28 359.928 1081.06 359.2 1082.04 358.688C1083.03 358.16 1084.12 357.896 1085.3 357.896C1087.17 357.896 1088.6 358.512 1089.57 359.744V358.088H1093.12ZM1086.04 367.304C1087.04 367.304 1087.84 367.016 1088.47 366.44C1089.11 365.848 1089.43 365.08 1089.43 364.136C1089.43 363.192 1089.11 362.432 1088.47 361.856C1087.84 361.264 1087.04 360.968 1086.04 360.968C1085.05 360.968 1084.24 361.264 1083.6 361.856C1082.96 362.432 1082.64 363.192 1082.64 364.136C1082.64 365.08 1082.96 365.848 1083.6 366.44C1084.24 367.016 1085.05 367.304 1086.04 367.304ZM1100.55 359.792C1100.99 359.168 1101.59 358.696 1102.35 358.376C1103.11 358.056 1103.99 357.896 1104.99 357.896V361.352C1104.57 361.32 1104.29 361.304 1104.15 361.304C1103.07 361.304 1102.23 361.608 1101.63 362.216C1101.02 362.808 1100.71 363.704 1100.71 364.904V371H1096.97V358.088H1100.55V359.792ZM1112.71 357.896C1114.71 357.896 1116.25 358.376 1117.32 359.336C1118.39 360.28 1118.93 361.712 1118.93 363.632V371H1115.42V369.392C1114.72 370.592 1113.41 371.192 1111.49 371.192C1110.49 371.192 1109.63 371.024 1108.89 370.688C1108.17 370.352 1107.62 369.888 1107.24 369.296C1106.85 368.704 1106.66 368.032 1106.66 367.28C1106.66 366.08 1107.11 365.136 1108.01 364.448C1108.92 363.76 1110.32 363.416 1112.21 363.416H1115.18C1115.18 362.6 1114.93 361.976 1114.44 361.544C1113.94 361.096 1113.2 360.872 1112.21 360.872C1111.52 360.872 1110.84 360.984 1110.17 361.208C1109.51 361.416 1108.95 361.704 1108.49 362.072L1107.14 359.456C1107.85 358.96 1108.69 358.576 1109.66 358.304C1110.65 358.032 1111.67 357.896 1112.71 357.896ZM1112.42 368.672C1113.06 368.672 1113.63 368.528 1114.13 368.24C1114.62 367.936 1114.97 367.496 1115.18 366.92V365.6H1112.61C1111.08 365.6 1110.31 366.104 1110.31 367.112C1110.31 367.592 1110.49 367.976 1110.86 368.264C1111.25 368.536 1111.77 368.672 1112.42 368.672ZM1131 370.376C1130.63 370.648 1130.18 370.856 1129.63 371C1129.11 371.128 1128.55 371.192 1127.95 371.192C1126.42 371.192 1125.23 370.8 1124.38 370.016C1123.55 369.232 1123.13 368.08 1123.13 366.56V361.256H1121.14V358.376H1123.13V355.232H1126.87V358.376H1130.09V361.256H1126.87V366.512C1126.87 367.056 1127.01 367.48 1127.28 367.784C1127.57 368.072 1127.97 368.216 1128.48 368.216C1129.07 368.216 1129.58 368.056 1129.99 367.736L1131 370.376ZM1133.46 358.088H1137.21V371H1133.46V358.088ZM1135.34 356.288C1134.65 356.288 1134.09 356.088 1133.66 355.688C1133.22 355.288 1133.01 354.792 1133.01 354.2C1133.01 353.608 1133.22 353.112 1133.66 352.712C1134.09 352.312 1134.65 352.112 1135.34 352.112C1136.02 352.112 1136.58 352.304 1137.02 352.688C1137.45 353.072 1137.66 353.552 1137.66 354.128C1137.66 354.752 1137.45 355.272 1137.02 355.688C1136.58 356.088 1136.02 356.288 1135.34 356.288ZM1147.19 371.192C1145.83 371.192 1144.6 370.912 1143.51 370.352C1142.44 369.776 1141.6 368.984 1140.99 367.976C1140.39 366.968 1140.08 365.824 1140.08 364.544C1140.08 363.264 1140.39 362.12 1140.99 361.112C1141.6 360.104 1142.44 359.32 1143.51 358.76C1144.6 358.184 1145.83 357.896 1147.19 357.896C1148.55 357.896 1149.76 358.184 1150.83 358.76C1151.91 359.32 1152.75 360.104 1153.35 361.112C1153.96 362.12 1154.27 363.264 1154.27 364.544C1154.27 365.824 1153.96 366.968 1153.35 367.976C1152.75 368.984 1151.91 369.776 1150.83 370.352C1149.76 370.912 1148.55 371.192 1147.19 371.192ZM1147.19 368.12C1148.15 368.12 1148.93 367.8 1149.54 367.16C1150.16 366.504 1150.47 365.632 1150.47 364.544C1150.47 363.456 1150.16 362.592 1149.54 361.952C1148.93 361.296 1148.15 360.968 1147.19 360.968C1146.23 360.968 1145.43 361.296 1144.81 361.952C1144.19 362.592 1143.87 363.456 1143.87 364.544C1143.87 365.632 1144.19 366.504 1144.81 367.16C1145.43 367.8 1146.23 368.12 1147.19 368.12ZM1164.98 357.896C1166.58 357.896 1167.86 358.376 1168.84 359.336C1169.83 360.296 1170.33 361.72 1170.33 363.608V371H1166.58V364.184C1166.58 363.16 1166.36 362.4 1165.91 361.904C1165.46 361.392 1164.82 361.136 1163.97 361.136C1163.02 361.136 1162.27 361.432 1161.71 362.024C1161.15 362.6 1160.87 363.464 1160.87 364.616V371H1157.13V358.088H1160.7V359.6C1161.2 359.056 1161.82 358.64 1162.55 358.352C1163.29 358.048 1164.1 357.896 1164.98 357.896Z" fill="#2B2B2B"/>
<path d="M965.032 145.288C963.32 145.288 961.768 144.92 960.376 144.184C959 143.432 957.912 142.4 957.112 141.088C956.328 139.76 955.936 138.264 955.936 136.6C955.936 134.936 956.328 133.448 957.112 132.136C957.912 130.808 959 129.776 960.376 129.04C961.768 128.288 963.328 127.912 965.056 127.912C966.512 127.912 967.824 128.168 968.992 128.68C970.176 129.192 971.168 129.928 971.968 130.888L969.472 133.192C968.336 131.88 966.928 131.224 965.248 131.224C964.208 131.224 963.28 131.456 962.464 131.92C961.648 132.368 961.008 133 960.544 133.816C960.096 134.632 959.872 135.56 959.872 136.6C959.872 137.64 960.096 138.568 960.544 139.384C961.008 140.2 961.648 140.84 962.464 141.304C963.28 141.752 964.208 141.976 965.248 141.976C966.928 141.976 968.336 141.312 969.472 139.984L971.968 142.288C971.168 143.264 970.176 144.008 968.992 144.52C967.808 145.032 966.488 145.288 965.032 145.288ZM980.388 145.192C979.028 145.192 977.804 144.912 976.716 144.352C975.644 143.776 974.804 142.984 974.196 141.976C973.588 140.968 973.284 139.824 973.284 138.544C973.284 137.264 973.588 136.12 974.196 135.112C974.804 134.104 975.644 133.32 976.716 132.76C977.804 132.184 979.028 131.896 980.388 131.896C981.748 131.896 982.964 132.184 984.036 132.76C985.108 133.32 985.948 134.104 986.556 135.112C987.164 136.12 987.468 137.264 987.468 138.544C987.468 139.824 987.164 140.968 986.556 141.976C985.948 142.984 985.108 143.776 984.036 144.352C982.964 144.912 981.748 145.192 980.388 145.192ZM980.388 142.12C981.348 142.12 982.132 141.8 982.74 141.16C983.364 140.504 983.676 139.632 983.676 138.544C983.676 137.456 983.364 136.592 982.74 135.952C982.132 135.296 981.348 134.968 980.388 134.968C979.428 134.968 978.636 135.296 978.012 135.952C977.388 136.592 977.076 137.456 977.076 138.544C977.076 139.632 977.388 140.504 978.012 141.16C978.636 141.8 979.428 142.12 980.388 142.12ZM990.331 127.192H994.075V145H990.331V127.192ZM997.91 127.192H1001.65V145H997.91V127.192ZM1010.7 131.896C1012.7 131.896 1014.23 132.376 1015.3 133.336C1016.38 134.28 1016.91 135.712 1016.91 137.632V145H1013.41V143.392C1012.7 144.592 1011.39 145.192 1009.47 145.192C1008.48 145.192 1007.62 145.024 1006.88 144.688C1006.16 144.352 1005.61 143.888 1005.22 143.296C1004.84 142.704 1004.65 142.032 1004.65 141.28C1004.65 140.08 1005.1 139.136 1005.99 138.448C1006.9 137.76 1008.3 137.416 1010.19 137.416H1013.17C1013.17 136.6 1012.92 135.976 1012.42 135.544C1011.93 135.096 1011.18 134.872 1010.19 134.872C1009.5 134.872 1008.82 134.984 1008.15 135.208C1007.5 135.416 1006.94 135.704 1006.47 136.072L1005.13 133.456C1005.83 132.96 1006.67 132.576 1007.65 132.304C1008.64 132.032 1009.66 131.896 1010.7 131.896ZM1010.41 142.672C1011.05 142.672 1011.62 142.528 1012.11 142.24C1012.61 141.936 1012.96 141.496 1013.17 140.92V139.6H1010.6C1009.06 139.6 1008.3 140.104 1008.3 141.112C1008.3 141.592 1008.48 141.976 1008.85 142.264C1009.23 142.536 1009.75 142.672 1010.41 142.672ZM1028.29 131.896C1029.49 131.896 1030.58 132.176 1031.56 132.736C1032.55 133.28 1033.32 134.056 1033.88 135.064C1034.44 136.056 1034.72 137.216 1034.72 138.544C1034.72 139.872 1034.44 141.04 1033.88 142.048C1033.32 143.04 1032.55 143.816 1031.56 144.376C1030.58 144.92 1029.49 145.192 1028.29 145.192C1026.52 145.192 1025.16 144.632 1024.24 143.512V145H1020.66V127.192H1024.4V133.456C1025.35 132.416 1026.64 131.896 1028.29 131.896ZM1027.64 142.12C1028.6 142.12 1029.39 141.8 1030 141.16C1030.62 140.504 1030.93 139.632 1030.93 138.544C1030.93 137.456 1030.62 136.592 1030 135.952C1029.39 135.296 1028.6 134.968 1027.64 134.968C1026.68 134.968 1025.89 135.296 1025.27 135.952C1024.66 136.592 1024.36 137.456 1024.36 138.544C1024.36 139.632 1024.66 140.504 1025.27 141.16C1025.89 141.8 1026.68 142.12 1027.64 142.12ZM1043.74 145.192C1042.38 145.192 1041.15 144.912 1040.06 144.352C1038.99 143.776 1038.15 142.984 1037.54 141.976C1036.94 140.968 1036.63 139.824 1036.63 138.544C1036.63 137.264 1036.94 136.12 1037.54 135.112C1038.15 134.104 1038.99 133.32 1040.06 132.76C1041.15 132.184 1042.38 131.896 1043.74 131.896C1045.1 131.896 1046.31 132.184 1047.38 132.76C1048.46 133.32 1049.3 134.104 1049.9 135.112C1050.51 136.12 1050.82 137.264 1050.82 138.544C1050.82 139.824 1050.51 140.968 1049.9 141.976C1049.3 142.984 1048.46 143.776 1047.38 144.352C1046.31 144.912 1045.1 145.192 1043.74 145.192ZM1043.74 142.12C1044.7 142.12 1045.48 141.8 1046.09 141.16C1046.71 140.504 1047.02 139.632 1047.02 138.544C1047.02 137.456 1046.71 136.592 1046.09 135.952C1045.48 135.296 1044.7 134.968 1043.74 134.968C1042.78 134.968 1041.98 135.296 1041.36 135.952C1040.74 136.592 1040.42 137.456 1040.42 138.544C1040.42 139.632 1040.74 140.504 1041.36 141.16C1041.98 141.8 1042.78 142.12 1043.74 142.12ZM1057.25 133.792C1057.7 133.168 1058.3 132.696 1059.05 132.376C1059.82 132.056 1060.7 131.896 1061.69 131.896V135.352C1061.28 135.32 1061 135.304 1060.85 135.304C1059.78 135.304 1058.94 135.608 1058.33 136.216C1057.73 136.808 1057.42 137.704 1057.42 138.904V145H1053.68V132.088H1057.25V133.792ZM1069.42 131.896C1071.42 131.896 1072.95 132.376 1074.03 133.336C1075.1 134.28 1075.63 135.712 1075.63 137.632V145H1072.13V143.392C1071.43 144.592 1070.11 145.192 1068.19 145.192C1067.2 145.192 1066.34 145.024 1065.6 144.688C1064.88 144.352 1064.33 143.888 1063.95 143.296C1063.56 142.704 1063.37 142.032 1063.37 141.28C1063.37 140.08 1063.82 139.136 1064.71 138.448C1065.63 137.76 1067.03 137.416 1068.91 137.416H1071.89C1071.89 136.6 1071.64 135.976 1071.15 135.544C1070.65 135.096 1069.91 134.872 1068.91 134.872C1068.23 134.872 1067.55 134.984 1066.87 135.208C1066.22 135.416 1065.66 135.704 1065.19 136.072L1063.85 133.456C1064.55 132.96 1065.39 132.576 1066.37 132.304C1067.36 132.032 1068.38 131.896 1069.42 131.896ZM1069.13 142.672C1069.77 142.672 1070.34 142.528 1070.83 142.24C1071.33 141.936 1071.68 141.496 1071.89 140.92V139.6H1069.32C1067.79 139.6 1067.02 140.104 1067.02 141.112C1067.02 141.592 1067.2 141.976 1067.57 142.264C1067.95 142.536 1068.47 142.672 1069.13 142.672ZM1087.71 144.376C1087.34 144.648 1086.89 144.856 1086.34 145C1085.81 145.128 1085.25 145.192 1084.66 145.192C1083.13 145.192 1081.93 144.8 1081.09 144.016C1080.25 143.232 1079.84 142.08 1079.84 140.56V135.256H1077.85V132.376H1079.84V129.232H1083.58V132.376H1086.8V135.256H1083.58V140.512C1083.58 141.056 1083.72 141.48 1083.99 141.784C1084.28 142.072 1084.68 142.216 1085.19 142.216C1085.78 142.216 1086.29 142.056 1086.7 141.736L1087.71 144.376ZM1090.17 132.088H1093.92V145H1090.17V132.088ZM1092.04 130.288C1091.36 130.288 1090.8 130.088 1090.36 129.688C1089.93 129.288 1089.72 128.792 1089.72 128.2C1089.72 127.608 1089.93 127.112 1090.36 126.712C1090.8 126.312 1091.36 126.112 1092.04 126.112C1092.73 126.112 1093.29 126.304 1093.72 126.688C1094.16 127.072 1094.37 127.552 1094.37 128.128C1094.37 128.752 1094.16 129.272 1093.72 129.688C1093.29 130.088 1092.73 130.288 1092.04 130.288ZM1103.89 145.192C1102.53 145.192 1101.31 144.912 1100.22 144.352C1099.15 143.776 1098.31 142.984 1097.7 141.976C1097.09 140.968 1096.79 139.824 1096.79 138.544C1096.79 137.264 1097.09 136.12 1097.7 135.112C1098.31 134.104 1099.15 133.32 1100.22 132.76C1101.31 132.184 1102.53 131.896 1103.89 131.896C1105.25 131.896 1106.47 132.184 1107.54 132.76C1108.61 133.32 1109.45 134.104 1110.06 135.112C1110.67 136.12 1110.97 137.264 1110.97 138.544C1110.97 139.824 1110.67 140.968 1110.06 141.976C1109.45 142.984 1108.61 143.776 1107.54 144.352C1106.47 144.912 1105.25 145.192 1103.89 145.192ZM1103.89 142.12C1104.85 142.12 1105.64 141.8 1106.25 141.16C1106.87 140.504 1107.18 139.632 1107.18 138.544C1107.18 137.456 1106.87 136.592 1106.25 135.952C1105.64 135.296 1104.85 134.968 1103.89 134.968C1102.93 134.968 1102.14 135.296 1101.52 135.952C1100.89 136.592 1100.58 137.456 1100.58 138.544C1100.58 139.632 1100.89 140.504 1101.52 141.16C1102.14 141.8 1102.93 142.12 1103.89 142.12ZM1121.69 131.896C1123.29 131.896 1124.57 132.376 1125.55 133.336C1126.54 134.296 1127.04 135.72 1127.04 137.608V145H1123.29V138.184C1123.29 137.16 1123.07 136.4 1122.62 135.904C1122.17 135.392 1121.53 135.136 1120.68 135.136C1119.73 135.136 1118.98 135.432 1118.42 136.024C1117.86 136.6 1117.58 137.464 1117.58 138.616V145H1113.84V132.088H1117.41V133.6C1117.91 133.056 1118.53 132.64 1119.26 132.352C1120 132.048 1120.81 131.896 1121.69 131.896ZM1158.68 132.088L1154 145H1150.4L1147.5 136.984L1144.5 145H1140.9L1136.24 132.088H1139.77L1142.82 140.824L1145.99 132.088H1149.16L1152.23 140.824L1155.37 132.088H1158.68ZM1160.78 132.088H1164.53V145H1160.78V132.088ZM1162.66 130.288C1161.97 130.288 1161.41 130.088 1160.98 129.688C1160.54 129.288 1160.33 128.792 1160.33 128.2C1160.33 127.608 1160.54 127.112 1160.98 126.712C1161.41 126.312 1161.97 126.112 1162.66 126.112C1163.34 126.112 1163.9 126.304 1164.34 126.688C1164.77 127.072 1164.98 127.552 1164.98 128.128C1164.98 128.752 1164.77 129.272 1164.34 129.688C1163.9 130.088 1163.34 130.288 1162.66 130.288ZM1176.69 144.376C1176.32 144.648 1175.87 144.856 1175.32 145C1174.79 145.128 1174.23 145.192 1173.64 145.192C1172.11 145.192 1170.91 144.8 1170.07 144.016C1169.23 143.232 1168.82 142.08 1168.82 140.56V135.256H1166.83V132.376H1168.82V129.232H1172.56V132.376H1175.78V135.256H1172.56V140.512C1172.56 141.056 1172.7 141.48 1172.97 141.784C1173.26 142.072 1173.66 142.216 1174.17 142.216C1174.76 142.216 1175.27 142.056 1175.68 141.736L1176.69 144.376ZM1187 131.896C1188.6 131.896 1189.89 132.376 1190.86 133.336C1191.86 134.296 1192.35 135.72 1192.35 137.608V145H1188.61V138.184C1188.61 137.16 1188.38 136.4 1187.94 135.904C1187.49 135.392 1186.84 135.136 1185.99 135.136C1185.05 135.136 1184.3 135.432 1183.74 136.024C1183.18 136.6 1182.9 137.464 1182.9 138.616V145H1179.15V127.192H1182.9V133.432C1183.39 132.936 1183.99 132.56 1184.7 132.304C1185.4 132.032 1186.17 131.896 1187 131.896ZM1209.5 145.192C1208.13 145.192 1206.89 144.912 1205.78 144.352C1204.7 143.776 1203.84 142.984 1203.22 141.976C1202.61 140.968 1202.3 139.824 1202.3 138.544C1202.3 137.264 1202.61 136.12 1203.22 135.112C1203.84 134.104 1204.7 133.32 1205.78 132.76C1206.89 132.184 1208.13 131.896 1209.5 131.896C1210.86 131.896 1212.05 132.184 1213.06 132.76C1214.08 133.32 1214.82 134.128 1215.29 135.184L1212.38 136.744C1211.71 135.56 1210.74 134.968 1209.48 134.968C1208.5 134.968 1207.7 135.288 1207.06 135.928C1206.42 136.568 1206.1 137.44 1206.1 138.544C1206.1 139.648 1206.42 140.52 1207.06 141.16C1207.7 141.8 1208.5 142.12 1209.48 142.12C1210.76 142.12 1211.73 141.528 1212.38 140.344L1215.29 141.928C1214.82 142.952 1214.08 143.752 1213.06 144.328C1212.05 144.904 1210.86 145.192 1209.5 145.192ZM1223.78 145.192C1222.42 145.192 1221.2 144.912 1220.11 144.352C1219.04 143.776 1218.2 142.984 1217.59 141.976C1216.98 140.968 1216.68 139.824 1216.68 138.544C1216.68 137.264 1216.98 136.12 1217.59 135.112C1218.2 134.104 1219.04 133.32 1220.11 132.76C1221.2 132.184 1222.42 131.896 1223.78 131.896C1225.14 131.896 1226.36 132.184 1227.43 132.76C1228.5 133.32 1229.34 134.104 1229.95 135.112C1230.56 136.12 1230.86 137.264 1230.86 138.544C1230.86 139.824 1230.56 140.968 1229.95 141.976C1229.34 142.984 1228.5 143.776 1227.43 144.352C1226.36 144.912 1225.14 145.192 1223.78 145.192ZM1223.78 142.12C1224.74 142.12 1225.53 141.8 1226.13 141.16C1226.76 140.504 1227.07 139.632 1227.07 138.544C1227.07 137.456 1226.76 136.592 1226.13 135.952C1225.53 135.296 1224.74 134.968 1223.78 134.968C1222.82 134.968 1222.03 135.296 1221.41 135.952C1220.78 136.592 1220.47 137.456 1220.47 138.544C1220.47 139.632 1220.78 140.504 1221.41 141.16C1222.03 141.8 1222.82 142.12 1223.78 142.12ZM1233.48 136.744H1240.27V139.744H1233.48V136.744ZM1252.14 144.376C1251.77 144.648 1251.32 144.856 1250.77 145C1250.24 145.128 1249.68 145.192 1249.09 145.192C1247.56 145.192 1246.36 144.8 1245.52 144.016C1244.68 143.232 1244.27 142.08 1244.27 140.56V135.256H1242.28V132.376H1244.27V129.232H1248.01V132.376H1251.23V135.256H1248.01V140.512C1248.01 141.056 1248.15 141.48 1248.42 141.784C1248.71 142.072 1249.11 142.216 1249.62 142.216C1250.21 142.216 1250.72 142.056 1251.13 141.736L1252.14 144.376ZM1258.18 133.792C1258.63 133.168 1259.23 132.696 1259.98 132.376C1260.75 132.056 1261.63 131.896 1262.62 131.896V135.352C1262.2 135.32 1261.92 135.304 1261.78 135.304C1260.71 135.304 1259.87 135.608 1259.26 136.216C1258.65 136.808 1258.35 137.704 1258.35 138.904V145H1254.6V132.088H1258.18V133.792ZM1270.34 131.896C1272.34 131.896 1273.88 132.376 1274.95 133.336C1276.02 134.28 1276.56 135.712 1276.56 137.632V145H1273.05V143.392C1272.35 144.592 1271.04 145.192 1269.12 145.192C1268.13 145.192 1267.26 145.024 1266.53 144.688C1265.81 144.352 1265.25 143.888 1264.87 143.296C1264.49 142.704 1264.29 142.032 1264.29 141.28C1264.29 140.08 1264.74 139.136 1265.64 138.448C1266.55 137.76 1267.95 137.416 1269.84 137.416H1272.81C1272.81 136.6 1272.57 135.976 1272.07 135.544C1271.57 135.096 1270.83 134.872 1269.84 134.872C1269.15 134.872 1268.47 134.984 1267.8 135.208C1267.14 135.416 1266.58 135.704 1266.12 136.072L1264.77 133.456C1265.48 132.96 1266.32 132.576 1267.29 132.304C1268.29 132.032 1269.3 131.896 1270.34 131.896ZM1270.05 142.672C1270.69 142.672 1271.26 142.528 1271.76 142.24C1272.25 141.936 1272.61 141.496 1272.81 140.92V139.6H1270.25C1268.71 139.6 1267.94 140.104 1267.94 141.112C1267.94 141.592 1268.13 141.976 1268.49 142.264C1268.88 142.536 1269.4 142.672 1270.05 142.672ZM1292.89 132.088L1287.44 145H1283.58L1278.15 132.088H1282.02L1285.59 140.872L1289.29 132.088H1292.89ZM1307.07 138.592C1307.07 138.64 1307.05 138.976 1307 139.6H1297.23C1297.41 140.4 1297.82 141.032 1298.48 141.496C1299.14 141.96 1299.95 142.192 1300.93 142.192C1301.6 142.192 1302.19 142.096 1302.7 141.904C1303.23 141.696 1303.72 141.376 1304.17 140.944L1306.16 143.104C1304.94 144.496 1303.17 145.192 1300.83 145.192C1299.38 145.192 1298.09 144.912 1296.97 144.352C1295.85 143.776 1294.98 142.984 1294.38 141.976C1293.77 140.968 1293.46 139.824 1293.46 138.544C1293.46 137.28 1293.76 136.144 1294.35 135.136C1294.96 134.112 1295.78 133.32 1296.82 132.76C1297.88 132.184 1299.06 131.896 1300.35 131.896C1301.62 131.896 1302.76 132.168 1303.78 132.712C1304.81 133.256 1305.61 134.04 1306.18 135.064C1306.78 136.072 1307.07 137.248 1307.07 138.592ZM1300.38 134.728C1299.53 134.728 1298.82 134.968 1298.24 135.448C1297.66 135.928 1297.31 136.584 1297.18 137.416H1303.54C1303.42 136.6 1303.06 135.952 1302.49 135.472C1301.91 134.976 1301.21 134.728 1300.38 134.728ZM1309.92 127.192H1313.67V145H1309.92V127.192ZM1317.5 127.192H1321.25V145H1317.5V127.192ZM1337.73 138.592C1337.73 138.64 1337.71 138.976 1337.66 139.6H1327.89C1328.07 140.4 1328.48 141.032 1329.14 141.496C1329.79 141.96 1330.61 142.192 1331.59 142.192C1332.26 142.192 1332.85 142.096 1333.36 141.904C1333.89 141.696 1334.38 141.376 1334.83 140.944L1336.82 143.104C1335.6 144.496 1333.83 145.192 1331.49 145.192C1330.03 145.192 1328.75 144.912 1327.63 144.352C1326.51 143.776 1325.64 142.984 1325.03 141.976C1324.43 140.968 1324.12 139.824 1324.12 138.544C1324.12 137.28 1324.42 136.144 1325.01 135.136C1325.62 134.112 1326.44 133.32 1327.48 132.76C1328.54 132.184 1329.71 131.896 1331.01 131.896C1332.27 131.896 1333.42 132.168 1334.44 132.712C1335.47 133.256 1336.27 134.04 1336.84 135.064C1337.43 136.072 1337.73 137.248 1337.73 138.592ZM1331.03 134.728C1330.19 134.728 1329.47 134.968 1328.9 135.448C1328.32 135.928 1327.97 136.584 1327.84 137.416H1334.2C1334.07 136.6 1333.72 135.952 1333.15 135.472C1332.57 134.976 1331.87 134.728 1331.03 134.728ZM1344.16 133.792C1344.61 133.168 1345.21 132.696 1345.96 132.376C1346.73 132.056 1347.61 131.896 1348.6 131.896V135.352C1348.18 135.32 1347.9 135.304 1347.76 135.304C1346.69 135.304 1345.85 135.608 1345.24 136.216C1344.63 136.808 1344.33 137.704 1344.33 138.904V145H1340.58V132.088H1344.16V133.792ZM1355.58 145.192C1354.5 145.192 1353.46 145.064 1352.43 144.808C1351.41 144.536 1350.59 144.2 1349.98 143.8L1351.23 141.112C1351.81 141.48 1352.5 141.784 1353.32 142.024C1354.14 142.248 1354.94 142.36 1355.72 142.36C1357.3 142.36 1358.1 141.968 1358.1 141.184C1358.1 140.816 1357.88 140.552 1357.45 140.392C1357.02 140.232 1356.35 140.096 1355.46 139.984C1354.4 139.824 1353.53 139.64 1352.84 139.432C1352.15 139.224 1351.55 138.856 1351.04 138.328C1350.54 137.8 1350.3 137.048 1350.3 136.072C1350.3 135.256 1350.53 134.536 1350.99 133.912C1351.47 133.272 1352.16 132.776 1353.06 132.424C1353.97 132.072 1355.04 131.896 1356.27 131.896C1357.18 131.896 1358.09 132 1358.98 132.208C1359.9 132.4 1360.65 132.672 1361.24 133.024L1359.99 135.688C1358.86 135.048 1357.62 134.728 1356.27 134.728C1355.47 134.728 1354.87 134.84 1354.47 135.064C1354.07 135.288 1353.87 135.576 1353.87 135.928C1353.87 136.328 1354.09 136.608 1354.52 136.768C1354.95 136.928 1355.64 137.08 1356.58 137.224C1357.64 137.4 1358.5 137.592 1359.18 137.8C1359.85 137.992 1360.43 138.352 1360.93 138.88C1361.42 139.408 1361.67 140.144 1361.67 141.088C1361.67 141.888 1361.43 142.6 1360.95 143.224C1360.47 143.848 1359.77 144.336 1358.84 144.688C1357.93 145.024 1356.84 145.192 1355.58 145.192Z" fill="#2B2B2B"/>
<path d="M968.28 298L968.256 287.92L963.312 296.224H961.56L956.64 288.136V298H952.992V281.2H956.208L962.496 291.64L968.688 281.2H971.88L971.928 298H968.28ZM981.218 284.896C983.218 284.896 984.754 285.376 985.826 286.336C986.898 287.28 987.434 288.712 987.434 290.632V298H983.93V296.392C983.226 297.592 981.914 298.192 979.994 298.192C979.002 298.192 978.138 298.024 977.402 297.688C976.682 297.352 976.13 296.888 975.746 296.296C975.362 295.704 975.17 295.032 975.17 294.28C975.17 293.08 975.618 292.136 976.514 291.448C977.426 290.76 978.826 290.416 980.714 290.416H983.69C983.69 289.6 983.442 288.976 982.946 288.544C982.45 288.096 981.706 287.872 980.714 287.872C980.026 287.872 979.346 287.984 978.674 288.208C978.018 288.416 977.458 288.704 976.994 289.072L975.65 286.456C976.354 285.96 977.194 285.576 978.17 285.304C979.162 285.032 980.178 284.896 981.218 284.896ZM980.93 295.672C981.57 295.672 982.138 295.528 982.634 295.24C983.13 294.936 983.482 294.496 983.69 293.92V292.6H981.122C979.586 292.6 978.818 293.104 978.818 294.112C978.818 294.592 979.002 294.976 979.37 295.264C979.754 295.536 980.274 295.672 980.93 295.672ZM998.814 284.896C1000.01 284.896 1001.1 285.176 1002.08 285.736C1003.07 286.28 1003.85 287.056 1004.41 288.064C1004.97 289.056 1005.25 290.216 1005.25 291.544C1005.25 292.872 1004.97 294.04 1004.41 295.048C1003.85 296.04 1003.07 296.816 1002.08 297.376C1001.1 297.92 1000.01 298.192 998.814 298.192C997.166 298.192 995.87 297.672 994.926 296.632V302.656H991.182V285.088H994.758V286.576C995.686 285.456 997.038 284.896 998.814 284.896ZM998.166 295.12C999.126 295.12 999.91 294.8 1000.52 294.16C1001.14 293.504 1001.45 292.632 1001.45 291.544C1001.45 290.456 1001.14 289.592 1000.52 288.952C999.91 288.296 999.126 287.968 998.166 287.968C997.206 287.968 996.414 288.296 995.79 288.952C995.182 289.592 994.878 290.456 994.878 291.544C994.878 292.632 995.182 293.504 995.79 294.16C996.414 294.8 997.206 295.12 998.166 295.12Z" fill="#2B2B2B"/>
<path d="M702.238 193.988C701.55 193.988 701 194.657 701 195.494C701 196.331 701.55 197 702.238 197C702.925 197 703.475 196.331 703.475 195.494C703.475 194.657 702.925 193.988 702.238 193.988Z" fill="#2B2B2B"/>
<path d="M925.354 71.3536C925.549 71.1583 925.549 70.8417 925.354 70.6464L922.172 67.4645C921.976 67.2692 921.66 67.2692 921.464 67.4645C921.269 67.6597 921.269 67.9763 921.464 68.1716L924.293 71L921.464 73.8284C921.269 74.0237 921.269 74.3403 921.464 74.5355C921.66 74.7308 921.976 74.7308 922.172 74.5355L925.354 71.3536ZM701.5 195.494C701.5 194.837 701.913 194.488 702.238 194.488V193.488C701.187 193.488 700.5 194.478 700.5 195.494H701.5ZM702.238 194.488C702.562 194.488 702.975 194.837 702.975 195.494H703.975C703.975 194.478 703.289 193.488 702.238 193.488V194.488ZM702.975 195.494C702.975 196.151 702.562 196.5 702.238 196.5V197.5C703.289 197.5 703.975 196.511 703.975 195.494H702.975ZM702.238 196.5C701.913 196.5 701.5 196.151 701.5 195.494H700.5C700.5 196.511 701.187 197.5 702.238 197.5V196.5ZM703.475 195.994H751.372V194.994H703.475V195.994ZM875.866 71.5H925V70.5H875.866V71.5ZM814.119 133.247C814.119 99.1451 841.764 71.5 875.866 71.5V70.5C841.212 70.5 813.119 98.5928 813.119 133.247H814.119ZM751.372 195.994C786.026 195.994 814.119 167.901 814.119 133.247H813.119C813.119 167.349 785.474 194.994 751.372 194.994V195.994Z" fill="#2E2E2E"/>
<path d="M702.239 194C701.55 194 701 194.667 701 195.5C701 196.333 701.55 197 702.239 197C702.927 197 703.477 196.333 703.477 195.5C703.477 194.667 702.927 194 702.239 194Z" fill="#2B2B2B"/>
<path d="M926.354 135.354C926.549 135.158 926.549 134.842 926.354 134.646L923.172 131.464C922.976 131.269 922.66 131.269 922.464 131.464C922.269 131.66 922.269 131.976 922.464 132.172L925.293 135L922.464 137.828C922.269 138.024 922.269 138.34 922.464 138.536C922.66 138.731 922.976 138.731 923.172 138.536L926.354 135.354ZM701.5 195.5C701.5 194.849 701.912 194.5 702.239 194.5V193.5C701.189 193.5 700.5 194.484 700.5 195.5H701.5ZM702.239 194.5C702.565 194.5 702.977 194.849 702.977 195.5H703.977C703.977 194.484 703.288 193.5 702.239 193.5V194.5ZM702.977 195.5C702.977 196.151 702.565 196.5 702.239 196.5V197.5C703.288 197.5 703.977 196.516 703.977 195.5H702.977ZM702.239 196.5C701.912 196.5 701.5 196.151 701.5 195.5H700.5C700.5 196.516 701.189 197.5 702.239 197.5V196.5ZM703.477 196H783.869V195H703.477V196ZM844.369 135.5H926V134.5H844.369V135.5ZM814.619 165.25C814.619 148.82 827.939 135.5 844.369 135.5V134.5C827.387 134.5 813.619 148.267 813.619 165.25H814.619ZM783.869 196C800.852 196 814.619 182.233 814.619 165.25H813.619C813.619 181.68 800.3 195 783.869 195V196Z" fill="#2E2E2E"/>
<path d="M702.239 194C701.551 194 701 194.651 701 195.465C701 196.279 701.551 196.93 702.239 196.93C702.928 196.93 703.479 196.279 703.479 195.465C703.479 194.651 702.928 194 702.239 194Z" fill="#2B2B2B"/>
<path d="M922.354 215.354C922.549 215.158 922.549 214.842 922.354 214.646L919.172 211.464C918.976 211.269 918.66 211.269 918.464 211.464C918.269 211.66 918.269 211.976 918.464 212.172L921.293 215L918.464 217.828C918.269 218.024 918.269 218.34 918.464 218.536C918.66 218.731 918.976 218.731 919.172 218.536L922.354 215.354ZM701.5 195.465C701.5 194.846 701.902 194.5 702.239 194.5V193.5C701.199 193.5 700.5 194.457 700.5 195.465H701.5ZM702.239 194.5C702.576 194.5 702.979 194.846 702.979 195.465H703.979C703.979 194.457 703.279 193.5 702.239 193.5V194.5ZM702.979 195.465C702.979 196.085 702.576 196.43 702.239 196.43V197.43C703.279 197.43 703.979 196.473 703.979 195.465H702.979ZM702.239 196.43C701.902 196.43 701.5 196.085 701.5 195.465H700.5C700.5 196.473 701.199 197.43 702.239 197.43V196.43ZM703.479 195.965H802.352V194.965H703.479V195.965ZM821.887 215.5H922V214.5H821.887V215.5ZM811.62 205.233C811.62 210.903 816.217 215.5 821.887 215.5V214.5C816.769 214.5 812.62 210.351 812.62 205.233H811.62ZM802.352 195.965C807.47 195.965 811.62 200.114 811.62 205.233H812.62C812.62 199.562 808.023 194.965 802.352 194.965V195.965Z" fill="#2E2E2E"/>
<path d="M702.24 194C701.551 194 701 194.663 701 195.492C701 196.321 701.551 196.984 702.24 196.984C702.929 196.984 703.48 196.321 703.48 195.492C703.48 194.663 702.929 194 702.24 194Z" fill="#2B2B2B"/>
<path d="M923.354 289.354C923.549 289.158 923.549 288.842 923.354 288.646L920.172 285.464C919.976 285.269 919.66 285.269 919.464 285.464C919.269 285.66 919.269 285.976 919.464 286.172L922.293 289L919.464 291.828C919.269 292.024 919.269 292.34 919.464 292.536C919.66 292.731 919.976 292.731 920.172 292.536L923.354 289.354ZM701.5 195.492C701.5 194.849 701.91 194.5 702.24 194.5V193.5C701.192 193.5 700.5 194.478 700.5 195.492H701.5ZM702.24 194.5C702.571 194.5 702.98 194.849 702.98 195.492H703.98C703.98 194.478 703.288 193.5 702.24 193.5V194.5ZM702.98 195.492C702.98 196.136 702.571 196.484 702.24 196.484V197.484C703.288 197.484 703.98 196.507 703.98 195.492H702.98ZM702.24 196.484C701.91 196.484 701.5 196.136 701.5 195.492H700.5C700.5 196.507 701.192 197.484 702.24 197.484V196.484ZM703.48 195.992H765.866V194.992H703.48V195.992ZM859.374 289.5H923V288.5H859.374V289.5ZM812.12 242.246C812.12 268.344 833.276 289.5 859.374 289.5V288.5C833.829 288.5 813.12 267.791 813.12 242.246H812.12ZM765.866 195.992C791.412 195.992 812.12 216.701 812.12 242.246H813.12C813.12 216.148 791.964 194.992 765.866 194.992V195.992Z" fill="#2E2E2E"/>
<path d="M702.239 194C701.551 194 701 194.665 701 195.496C701 196.326 701.551 196.991 702.239 196.991C702.928 196.991 703.479 196.326 703.479 195.496C703.479 194.665 702.928 194 702.239 194Z" fill="#2B2B2B"/>
<path d="M922.354 362.354C922.549 362.158 922.549 361.842 922.354 361.646L919.172 358.464C918.976 358.269 918.66 358.269 918.464 358.464C918.269 358.66 918.269 358.976 918.464 359.172L921.293 362L918.464 364.828C918.269 365.024 918.269 365.34 918.464 365.536C918.66 365.731 918.976 365.731 919.172 365.536L922.354 362.354ZM701.5 195.496C701.5 194.849 701.911 194.5 702.239 194.5V193.5C701.191 193.5 700.5 194.481 700.5 195.496H701.5ZM702.239 194.5C702.568 194.5 702.979 194.849 702.979 195.496H703.979C703.979 194.481 703.288 193.5 702.239 193.5V194.5ZM702.979 195.496C702.979 196.142 702.568 196.491 702.239 196.491V197.491C703.288 197.491 703.979 196.51 703.979 195.496H702.979ZM702.239 196.491C701.911 196.491 701.5 196.142 701.5 195.496H700.5C700.5 196.51 701.191 197.491 702.239 197.491V196.491ZM703.479 195.996H732.12V194.996H703.479V195.996ZM811.62 275.496V282H812.62V275.496H811.62ZM892.12 362.5H922V361.5H892.12V362.5ZM811.62 282C811.62 326.459 847.661 362.5 892.12 362.5V361.5C848.213 361.5 812.62 325.907 812.62 282H811.62ZM732.12 195.996C776.026 195.996 811.62 231.589 811.62 275.496H812.62C812.62 231.037 776.579 194.996 732.12 194.996V195.996Z" fill="#2E2E2E"/>
</svg>
