<svg width="505" height="415" viewBox="0 0 505 415" fill="none" xmlns="http://www.w3.org/2000/svg">
<path d="M451.354 398.354C451.549 398.158 451.549 397.842 451.354 397.646L448.172 394.465C447.976 394.269 447.66 394.269 447.464 394.465C447.269 394.66 447.269 394.976 447.464 395.172L450.293 398L447.464 400.828C447.269 401.024 447.269 401.34 447.464 401.536C447.66 401.731 447.976 401.731 448.172 401.536L451.354 398.354ZM4 398.5L451 398.5L451 397.5L4 397.5L4 398.5Z" fill="#DBDBDB"/>
<path d="M500.646 414.354C500.842 414.549 501.158 414.549 501.354 414.354L504.536 411.172C504.731 410.976 504.731 410.66 504.536 410.464C504.34 410.269 504.024 410.269 503.828 410.464L501 413.293L498.172 410.464C497.976 410.269 497.66 410.269 497.464 410.464C497.269 410.66 497.269 410.976 497.464 411.172L500.646 414.354ZM500.5 2.18557e-08L500.5 414L501.5 414L501.5 -2.18557e-08L500.5 2.18557e-08Z" fill="#DBDBDB"/>
<path d="M23.2489 27.6692C21.9433 27.6692 20.6761 27.508 19.4473 27.1854C18.2185 26.8628 17.2201 26.4328 16.4521 25.8952L17.9497 22.5313C18.6716 23.0075 19.5087 23.3915 20.4611 23.6833C21.4134 23.9752 22.3503 24.1211 23.2719 24.1211C25.023 24.1211 25.8985 23.6833 25.8985 22.8078C25.8985 22.347 25.6451 22.0091 25.1382 21.794C24.6467 21.5636 23.8479 21.3256 22.742 21.0798C21.5286 20.8187 20.5148 20.5422 19.7007 20.2504C18.8867 19.9432 18.1878 19.4593 17.6041 18.7988C17.0204 18.1384 16.7286 17.2475 16.7286 16.1262C16.7286 15.1432 16.9974 14.26 17.535 13.4766C18.0726 12.6779 18.8713 12.0481 19.9311 11.5873C21.0063 11.1265 22.3196 10.8961 23.871 10.8961C24.9308 10.8961 25.9753 11.019 27.0044 11.2648C28.0335 11.4952 28.9398 11.8408 29.7231 12.3016L28.3177 15.6884C26.7817 14.859 25.2918 14.4443 23.8479 14.4443C22.9417 14.4443 22.2812 14.5825 21.8665 14.859C21.4518 15.1201 21.2444 15.4657 21.2444 15.8958C21.2444 16.3259 21.4902 16.6484 21.9817 16.8635C22.4732 17.0785 23.2643 17.3012 24.3548 17.5316C25.5836 17.7928 26.5974 18.0769 27.3961 18.3841C28.2102 18.676 28.9091 19.1521 29.4927 19.8126C30.0918 20.4577 30.3913 21.3409 30.3913 22.4622C30.3913 23.4299 30.1225 24.3054 29.5849 25.0888C29.0473 25.8721 28.2409 26.5019 27.1657 26.978C26.0905 27.4388 24.7849 27.6692 23.2489 27.6692ZM43.6499 24.2132H36.8301L35.5629 27.3467H30.9088L38.0282 11.2187H42.521L49.6634 27.3467H44.9171L43.6499 24.2132ZM42.3136 20.8494L40.24 15.6884L38.1664 20.8494H42.3136ZM58.9298 21.5636V27.3467H54.3678V21.4945L48.2162 11.2187H53.0315L56.8562 17.6238L60.6808 11.2187H65.1045L58.9298 21.5636ZM71.9407 27.6692C70.6351 27.6692 69.3679 27.508 68.1391 27.1854C66.9103 26.8628 65.9119 26.4328 65.1439 25.8952L66.6415 22.5313C67.3634 23.0075 68.2005 23.3915 69.1529 23.6833C70.1052 23.9752 71.0421 24.1211 71.9637 24.1211C73.7148 24.1211 74.5903 23.6833 74.5903 22.8078C74.5903 22.347 74.3369 22.0091 73.83 21.794C73.3385 21.5636 72.5397 21.3256 71.4338 21.0798C70.2204 20.8187 69.2066 20.5422 68.3925 20.2504C67.5785 19.9432 66.8796 19.4593 66.2959 18.7988C65.7122 18.1384 65.4204 17.2475 65.4204 16.1262C65.4204 15.1432 65.6892 14.26 66.2268 13.4766C66.7644 12.6779 67.5631 12.0481 68.6229 11.5873C69.6981 11.1265 71.0114 10.8961 72.5628 10.8961C73.6226 10.8961 74.6671 11.019 75.6962 11.2648C76.7253 11.4952 77.6316 11.8408 78.4149 12.3016L77.0095 15.6884C75.4735 14.859 73.9836 14.4443 72.5397 14.4443C71.6335 14.4443 70.973 14.5825 70.5583 14.859C70.1436 15.1201 69.9362 15.4657 69.9362 15.8958C69.9362 16.3259 70.182 16.6484 70.6735 16.8635C71.165 17.0785 71.9561 17.3012 73.0466 17.5316C74.2754 17.7928 75.2892 18.0769 76.0879 18.3841C76.902 18.676 77.6009 19.1521 78.1845 19.8126C78.7836 20.4577 79.0831 21.3409 79.0831 22.4622C79.0831 23.4299 78.8143 24.3054 78.2767 25.0888C77.7391 25.8721 76.9327 26.5019 75.8575 26.978C74.7823 27.4388 73.4767 27.6692 71.9407 27.6692ZM93.7014 14.6516C95.775 14.6516 97.3571 15.1278 98.4477 16.0801C99.5382 17.0171 100.084 18.4609 100.084 20.4116V27.3467H96.0054V25.7339C95.3757 26.9473 94.1469 27.554 92.319 27.554C91.3514 27.554 90.5142 27.3851 89.8077 27.0472C89.1011 26.7092 88.5635 26.2561 88.1949 25.6878C87.8416 25.1041 87.665 24.4436 87.665 23.7064C87.665 22.5236 88.1181 21.6097 89.0243 20.9646C89.9306 20.3041 91.3283 19.9739 93.2176 19.9739H95.7059C95.6291 18.6529 94.7459 17.9924 93.0563 17.9924C92.4573 17.9924 91.8506 18.0923 91.2362 18.292C90.6218 18.4763 90.0995 18.7374 89.6694 19.0753L88.1949 16.1032C88.8861 15.6424 89.7232 15.2891 90.7062 15.0433C91.7046 14.7822 92.703 14.6516 93.7014 14.6516ZM93.5402 24.7892C94.047 24.7892 94.4925 24.6664 94.8765 24.4206C95.2605 24.1748 95.537 23.8139 95.7059 23.3377V22.2548H93.8166C92.5418 22.2548 91.9043 22.6772 91.9043 23.522C91.9043 23.906 92.0502 24.2132 92.3421 24.4436C92.6339 24.674 93.0333 24.7892 93.5402 24.7892ZM111.325 14.6516C112.877 14.6516 114.121 15.1124 115.058 16.034C116.01 16.9556 116.486 18.3457 116.486 20.2043V27.3467H112.109V20.9185C112.109 19.2136 111.425 18.3611 110.058 18.3611C109.306 18.3611 108.699 18.6068 108.238 19.0984C107.793 19.5899 107.57 20.3272 107.57 21.3102V27.3467H103.192V14.859H107.363V16.2184C107.854 15.7115 108.438 15.3275 109.114 15.0664C109.789 14.7899 110.527 14.6516 111.325 14.6516ZM133.031 10.251V27.3467H128.861V26.1025C128.047 27.0702 126.826 27.554 125.198 27.554C124.061 27.554 123.024 27.2929 122.087 26.7707C121.15 26.2331 120.406 25.4728 119.853 24.4897C119.315 23.5067 119.046 22.37 119.046 21.0798C119.046 19.7896 119.315 18.6606 119.853 17.6929C120.406 16.7099 121.15 15.9572 122.087 15.435C123.024 14.9128 124.061 14.6516 125.198 14.6516C126.688 14.6516 127.84 15.0817 128.654 15.9419V10.251H133.031ZM126.119 24.075C126.872 24.075 127.494 23.8139 127.986 23.2916C128.477 22.754 128.723 22.0168 128.723 21.0798C128.723 20.1582 128.477 19.4363 127.986 18.914C127.51 18.3918 126.887 18.1307 126.119 18.1307C125.351 18.1307 124.722 18.3918 124.23 18.914C123.739 19.4363 123.493 20.1582 123.493 21.0798C123.493 22.0168 123.739 22.754 124.23 23.2916C124.722 23.8139 125.351 24.075 126.119 24.075ZM143.451 11.2187H151.078C152.844 11.2187 154.411 11.5489 155.778 12.2094C157.145 12.8699 158.205 13.8068 158.957 15.0203C159.71 16.2337 160.086 17.6545 160.086 19.2827C160.086 20.9108 159.71 22.3316 158.957 23.5451C158.205 24.7585 157.145 25.6955 155.778 26.356C154.411 27.0164 152.844 27.3467 151.078 27.3467H143.451V11.2187ZM150.893 23.7064C152.276 23.7064 153.382 23.3147 154.211 22.5313C155.056 21.748 155.478 20.6651 155.478 19.2827C155.478 17.9003 155.056 16.8174 154.211 16.034C153.382 15.2507 152.276 14.859 150.893 14.859H148.013V23.7064H150.893ZM170.965 27.6692C169.26 27.6692 167.724 27.3083 166.357 26.5864C165.006 25.8644 163.938 24.866 163.155 23.5912C162.387 22.3163 162.003 20.8801 162.003 19.2827C162.003 17.6852 162.387 16.2491 163.155 14.9742C163.938 13.6993 165.006 12.7009 166.357 11.979C167.724 11.2571 169.26 10.8961 170.965 10.8961C172.67 10.8961 174.198 11.2571 175.55 11.979C176.917 12.7009 177.985 13.6993 178.753 14.9742C179.536 16.2491 179.928 17.6852 179.928 19.2827C179.928 20.8801 179.536 22.3163 178.753 23.5912C177.985 24.866 176.917 25.8644 175.55 26.5864C174.198 27.3083 172.67 27.6692 170.965 27.6692ZM170.965 23.8907C171.779 23.8907 172.517 23.6987 173.177 23.3147C173.838 22.9307 174.36 22.3931 174.744 21.7019C175.128 20.9953 175.32 20.1889 175.32 19.2827C175.32 18.3764 175.128 17.5777 174.744 16.8865C174.36 16.18 173.838 15.6347 173.177 15.2507C172.517 14.8667 171.779 14.6747 170.965 14.6747C170.151 14.6747 169.414 14.8667 168.753 15.2507C168.093 15.6347 167.571 16.18 167.187 16.8865C166.803 17.5777 166.611 18.3764 166.611 19.2827C166.611 20.1889 166.803 20.9953 167.187 21.7019C167.571 22.3931 168.093 22.9307 168.753 23.3147C169.414 23.6987 170.151 23.8907 170.965 23.8907Z" fill="white"/>
<g filter="url(#filter0_d)">
<g filter="url(#filter1_d)">
<path d="M13.0034 89.8447C13.0034 88.7402 13.8988 87.8447 15.0034 87.8447H133.003C134.108 87.8447 135.003 88.7402 135.003 89.8447V208.845C135.003 209.949 134.108 210.845 133.003 210.845H15.0034C13.8988 210.845 13.0034 209.949 13.0034 208.845V89.8447Z" fill="#396AF5"/>
<path d="M15.0034 88.3447H133.003C133.832 88.3447 134.503 89.0163 134.503 89.8447V208.845C134.503 209.673 133.832 210.345 133.003 210.345H15.0034C14.175 210.345 13.5034 209.673 13.5034 208.845V89.8447C13.5034 89.0163 14.175 88.3447 15.0034 88.3447Z" stroke="#333333" stroke-opacity="0.1"/>
</g>
<rect x="13.0034" y="87.8447" width="122" height="12" fill="white" fill-opacity="0.1"/>
</g>
<path d="M56.5882 131.055H51.3802L50.3022 133.505H48.8602L53.2982 123.705H54.6842L59.1362 133.505H57.6662L56.5882 131.055ZM56.0982 129.935L53.9842 125.133L51.8702 129.935H56.0982ZM62.6717 133.589C62.0651 133.589 61.4817 133.51 60.9217 133.351C60.3617 133.183 59.9231 132.973 59.6057 132.721L60.1657 131.657C60.4924 131.89 60.8891 132.077 61.3557 132.217C61.8224 132.357 62.2937 132.427 62.7697 132.427C63.9457 132.427 64.5337 132.091 64.5337 131.419C64.5337 131.195 64.4544 131.018 64.2957 130.887C64.1371 130.756 63.9364 130.663 63.6937 130.607C63.4604 130.542 63.1244 130.472 62.6857 130.397C62.0884 130.304 61.5984 130.196 61.2157 130.075C60.8424 129.954 60.5204 129.748 60.2497 129.459C59.9791 129.17 59.8437 128.764 59.8437 128.241C59.8437 127.569 60.1237 127.032 60.6837 126.631C61.2437 126.22 61.9951 126.015 62.9377 126.015C63.4324 126.015 63.9271 126.076 64.4217 126.197C64.9164 126.318 65.3224 126.482 65.6397 126.687L65.0657 127.751C64.4591 127.359 63.7451 127.163 62.9237 127.163C62.3544 127.163 61.9204 127.256 61.6217 127.443C61.3231 127.63 61.1737 127.877 61.1737 128.185C61.1737 128.428 61.2577 128.619 61.4257 128.759C61.5937 128.899 61.7991 129.002 62.0417 129.067C62.2937 129.132 62.6437 129.207 63.0917 129.291C63.6891 129.394 64.1697 129.506 64.5337 129.627C64.9071 129.739 65.2244 129.935 65.4857 130.215C65.7471 130.495 65.8777 130.887 65.8777 131.391C65.8777 132.063 65.5884 132.6 65.0097 133.001C64.4404 133.393 63.6611 133.589 62.6717 133.589ZM70.6514 130.047L69.1114 131.475V133.505H67.7674V123.117H69.1114V129.781L73.1574 126.085H74.7814L71.6594 129.151L75.0894 133.505H73.4374L70.6514 130.047ZM83.2901 124.139C82.4875 124.139 82.0861 124.573 82.0861 125.441V126.085H84.2421V127.191H82.1141V133.505H80.7701V127.191H79.5101V126.085H80.7701V125.427C80.7701 124.69 80.9848 124.106 81.4141 123.677C81.8435 123.248 82.4455 123.033 83.2201 123.033C83.5188 123.033 83.7988 123.07 84.0601 123.145C84.3215 123.22 84.5455 123.327 84.7321 123.467L84.3261 124.489C84.0181 124.256 83.6728 124.139 83.2901 124.139ZM88.7883 133.589C88.051 133.589 87.3883 133.426 86.8003 133.099C86.2123 132.772 85.7503 132.324 85.4143 131.755C85.0876 131.176 84.9243 130.523 84.9243 129.795C84.9243 129.067 85.0876 128.418 85.4143 127.849C85.7503 127.27 86.2123 126.822 86.8003 126.505C87.3883 126.178 88.051 126.015 88.7883 126.015C89.5256 126.015 90.1836 126.178 90.7623 126.505C91.3503 126.822 91.8076 127.27 92.1343 127.849C92.4703 128.418 92.6383 129.067 92.6383 129.795C92.6383 130.523 92.4703 131.176 92.1343 131.755C91.8076 132.324 91.3503 132.772 90.7623 133.099C90.1836 133.426 89.5256 133.589 88.7883 133.589ZM88.7883 132.413C89.2643 132.413 89.689 132.306 90.0623 132.091C90.445 131.867 90.7436 131.559 90.9583 131.167C91.173 130.766 91.2803 130.308 91.2803 129.795C91.2803 129.282 91.173 128.829 90.9583 128.437C90.7436 128.036 90.445 127.728 90.0623 127.513C89.689 127.298 89.2643 127.191 88.7883 127.191C88.3123 127.191 87.883 127.298 87.5003 127.513C87.127 127.728 86.8283 128.036 86.6043 128.437C86.3896 128.829 86.2823 129.282 86.2823 129.795C86.2823 130.308 86.3896 130.766 86.6043 131.167C86.8283 131.559 87.127 131.867 87.5003 132.091C87.883 132.306 88.3123 132.413 88.7883 132.413ZM95.995 127.331C96.2283 126.902 96.5737 126.575 97.031 126.351C97.4883 126.127 98.0437 126.015 98.697 126.015V127.317C98.6223 127.308 98.5197 127.303 98.389 127.303C97.661 127.303 97.087 127.522 96.667 127.961C96.2563 128.39 96.051 129.006 96.051 129.809V133.505H94.707V126.085H95.995V127.331ZM24.4405 150.331C24.6739 149.902 25.0192 149.575 25.4765 149.351C25.9339 149.127 26.4892 149.015 27.1425 149.015V150.317C27.0679 150.308 26.9652 150.303 26.8345 150.303C26.1065 150.303 25.5325 150.522 25.1125 150.961C24.7019 151.39 24.4965 152.006 24.4965 152.809V156.505H23.1525V149.085H24.4405V150.331ZM35.6467 152.837C35.6467 152.94 35.6373 153.075 35.6187 153.243H29.5987C29.6827 153.896 29.9673 154.424 30.4527 154.825C30.9473 155.217 31.5587 155.413 32.2867 155.413C33.1733 155.413 33.8873 155.114 34.4287 154.517L35.1707 155.385C34.8347 155.777 34.4147 156.076 33.9107 156.281C33.416 156.486 32.8607 156.589 32.2447 156.589C31.4607 156.589 30.7653 156.43 30.1587 156.113C29.552 155.786 29.0807 155.334 28.7447 154.755C28.418 154.176 28.2547 153.523 28.2547 152.795C28.2547 152.076 28.4133 151.428 28.7307 150.849C29.0573 150.27 29.5007 149.822 30.0607 149.505C30.63 149.178 31.2693 149.015 31.9787 149.015C32.688 149.015 33.318 149.178 33.8687 149.505C34.4287 149.822 34.8627 150.27 35.1707 150.849C35.488 151.428 35.6467 152.09 35.6467 152.837ZM31.9787 150.149C31.3347 150.149 30.7933 150.345 30.3547 150.737C29.9253 151.129 29.6733 151.642 29.5987 152.277H34.3587C34.284 151.652 34.0273 151.143 33.5887 150.751C33.1593 150.35 32.6227 150.149 31.9787 150.149ZM40.9569 156.589C40.2009 156.589 39.5243 156.426 38.9269 156.099C38.3389 155.772 37.8769 155.324 37.5409 154.755C37.2049 154.176 37.0369 153.523 37.0369 152.795C37.0369 152.067 37.2049 151.418 37.5409 150.849C37.8769 150.27 38.3389 149.822 38.9269 149.505C39.5243 149.178 40.2009 149.015 40.9569 149.015C41.6289 149.015 42.2263 149.15 42.7489 149.421C43.2809 149.692 43.6916 150.084 43.9809 150.597L42.9589 151.255C42.7256 150.9 42.4363 150.634 42.0909 150.457C41.7456 150.28 41.3629 150.191 40.9429 150.191C40.4576 150.191 40.0189 150.298 39.6269 150.513C39.2443 150.728 38.9409 151.036 38.7169 151.437C38.5023 151.829 38.3949 152.282 38.3949 152.795C38.3949 153.318 38.5023 153.78 38.7169 154.181C38.9409 154.573 39.2443 154.876 39.6269 155.091C40.0189 155.306 40.4576 155.413 40.9429 155.413C41.3629 155.413 41.7456 155.324 42.0909 155.147C42.4363 154.97 42.7256 154.704 42.9589 154.349L43.9809 154.993C43.6916 155.506 43.2809 155.903 42.7489 156.183C42.2263 156.454 41.6289 156.589 40.9569 156.589ZM48.9996 156.589C48.2623 156.589 47.5996 156.426 47.0116 156.099C46.4236 155.772 45.9616 155.324 45.6256 154.755C45.2989 154.176 45.1356 153.523 45.1356 152.795C45.1356 152.067 45.2989 151.418 45.6256 150.849C45.9616 150.27 46.4236 149.822 47.0116 149.505C47.5996 149.178 48.2623 149.015 48.9996 149.015C49.7369 149.015 50.3949 149.178 50.9736 149.505C51.5616 149.822 52.0189 150.27 52.3456 150.849C52.6816 151.418 52.8496 152.067 52.8496 152.795C52.8496 153.523 52.6816 154.176 52.3456 154.755C52.0189 155.324 51.5616 155.772 50.9736 156.099C50.3949 156.426 49.7369 156.589 48.9996 156.589ZM48.9996 155.413C49.4756 155.413 49.9003 155.306 50.2736 155.091C50.6563 154.867 50.9549 154.559 51.1696 154.167C51.3843 153.766 51.4916 153.308 51.4916 152.795C51.4916 152.282 51.3843 151.829 51.1696 151.437C50.9549 151.036 50.6563 150.728 50.2736 150.513C49.9003 150.298 49.4756 150.191 48.9996 150.191C48.5236 150.191 48.0943 150.298 47.7116 150.513C47.3383 150.728 47.0396 151.036 46.8156 151.437C46.6009 151.829 46.4936 152.282 46.4936 152.795C46.4936 153.308 46.6009 153.766 46.8156 154.167C47.0396 154.559 47.3383 154.867 47.7116 155.091C48.0943 155.306 48.5236 155.413 48.9996 155.413ZM64.2003 149.015C65.1336 149.015 65.871 149.286 66.4123 149.827C66.963 150.368 67.2383 151.171 67.2383 152.235V156.505H65.8943V152.389C65.8943 151.67 65.7263 151.129 65.3903 150.765C65.0636 150.401 64.5923 150.219 63.9763 150.219C63.295 150.219 62.7536 150.434 62.3523 150.863C61.951 151.283 61.7503 151.89 61.7503 152.683V156.505H60.4063V152.389C60.4063 151.67 60.2383 151.129 59.9023 150.765C59.5756 150.401 59.1043 150.219 58.4883 150.219C57.807 150.219 57.2656 150.434 56.8643 150.863C56.463 151.283 56.2623 151.89 56.2623 152.683V156.505H54.9183V149.085H56.2063V150.191C56.477 149.808 56.8316 149.519 57.2703 149.323C57.709 149.118 58.2083 149.015 58.7683 149.015C59.347 149.015 59.8603 149.132 60.3083 149.365C60.7563 149.598 61.1016 149.939 61.3443 150.387C61.6243 149.958 62.0116 149.622 62.5063 149.379C63.0103 149.136 63.575 149.015 64.2003 149.015ZM79.2033 149.015C80.1366 149.015 80.8739 149.286 81.4153 149.827C81.9659 150.368 82.2413 151.171 82.2413 152.235V156.505H80.8973V152.389C80.8973 151.67 80.7293 151.129 80.3933 150.765C80.0666 150.401 79.5953 150.219 78.9793 150.219C78.2979 150.219 77.7566 150.434 77.3553 150.863C76.9539 151.283 76.7533 151.89 76.7533 152.683V156.505H75.4093V152.389C75.4093 151.67 75.2413 151.129 74.9053 150.765C74.5786 150.401 74.1073 150.219 73.4913 150.219C72.8099 150.219 72.2686 150.434 71.8673 150.863C71.4659 151.283 71.2653 151.89 71.2653 152.683V156.505H69.9213V149.085H71.2093V150.191C71.4799 149.808 71.8346 149.519 72.2733 149.323C72.7119 149.118 73.2113 149.015 73.7713 149.015C74.3499 149.015 74.8633 149.132 75.3113 149.365C75.7593 149.598 76.1046 149.939 76.3473 150.387C76.6273 149.958 77.0146 149.622 77.5093 149.379C78.0133 149.136 78.5779 149.015 79.2033 149.015ZM91.6713 152.837C91.6713 152.94 91.6619 153.075 91.6433 153.243H85.6233C85.7073 153.896 85.9919 154.424 86.4773 154.825C86.9719 155.217 87.5833 155.413 88.3113 155.413C89.1979 155.413 89.9119 155.114 90.4533 154.517L91.1953 155.385C90.8593 155.777 90.4393 156.076 89.9353 156.281C89.4406 156.486 88.8853 156.589 88.2693 156.589C87.4853 156.589 86.7899 156.43 86.1833 156.113C85.5766 155.786 85.1053 155.334 84.7693 154.755C84.4426 154.176 84.2793 153.523 84.2793 152.795C84.2793 152.076 84.4379 151.428 84.7553 150.849C85.0819 150.27 85.5253 149.822 86.0853 149.505C86.6546 149.178 87.2939 149.015 88.0033 149.015C88.7126 149.015 89.3426 149.178 89.8933 149.505C90.4533 149.822 90.8873 150.27 91.1953 150.849C91.5126 151.428 91.6713 152.09 91.6713 152.837ZM88.0033 150.149C87.3593 150.149 86.8179 150.345 86.3793 150.737C85.9499 151.129 85.6979 151.642 85.6233 152.277H90.3833C90.3086 151.652 90.0519 151.143 89.6133 150.751C89.1839 150.35 88.6473 150.149 88.0033 150.149ZM97.7095 149.015C98.6522 149.015 99.3989 149.29 99.9495 149.841C100.51 150.382 100.79 151.18 100.79 152.235V156.505H99.4455V152.389C99.4455 151.67 99.2729 151.129 98.9275 150.765C98.5822 150.401 98.0875 150.219 97.4435 150.219C96.7155 150.219 96.1415 150.434 95.7215 150.863C95.3015 151.283 95.0915 151.89 95.0915 152.683V156.505H93.7475V149.085H95.0355V150.205C95.3062 149.822 95.6702 149.528 96.1275 149.323C96.5942 149.118 97.1215 149.015 97.7095 149.015ZM110.528 146.117V156.505H109.24V155.329C108.941 155.74 108.563 156.052 108.106 156.267C107.649 156.482 107.145 156.589 106.594 156.589C105.875 156.589 105.231 156.43 104.662 156.113C104.093 155.796 103.645 155.352 103.318 154.783C103.001 154.204 102.842 153.542 102.842 152.795C102.842 152.048 103.001 151.39 103.318 150.821C103.645 150.252 104.093 149.808 104.662 149.491C105.231 149.174 105.875 149.015 106.594 149.015C107.126 149.015 107.616 149.118 108.064 149.323C108.512 149.519 108.885 149.813 109.184 150.205V146.117H110.528ZM106.706 155.413C107.173 155.413 107.597 155.306 107.98 155.091C108.363 154.867 108.661 154.559 108.876 154.167C109.091 153.766 109.198 153.308 109.198 152.795C109.198 152.282 109.091 151.829 108.876 151.437C108.661 151.036 108.363 150.728 107.98 150.513C107.597 150.298 107.173 150.191 106.706 150.191C106.23 150.191 105.801 150.298 105.418 150.513C105.045 150.728 104.746 151.036 104.522 151.437C104.307 151.829 104.2 152.282 104.2 152.795C104.2 153.308 104.307 153.766 104.522 154.167C104.746 154.559 105.045 154.867 105.418 155.091C105.801 155.306 106.23 155.413 106.706 155.413ZM115.983 149.015C117.009 149.015 117.793 149.267 118.335 149.771C118.885 150.275 119.161 151.026 119.161 152.025V156.505H117.887V155.525C117.663 155.87 117.341 156.136 116.921 156.323C116.51 156.5 116.02 156.589 115.451 156.589C114.62 156.589 113.953 156.388 113.449 155.987C112.954 155.586 112.707 155.058 112.707 154.405C112.707 153.752 112.945 153.229 113.421 152.837C113.897 152.436 114.653 152.235 115.689 152.235H117.817V151.969C117.817 151.39 117.649 150.947 117.313 150.639C116.977 150.331 116.482 150.177 115.829 150.177C115.39 150.177 114.961 150.252 114.541 150.401C114.121 150.541 113.766 150.732 113.477 150.975L112.917 149.967C113.299 149.659 113.757 149.426 114.289 149.267C114.821 149.099 115.385 149.015 115.983 149.015ZM115.675 155.553C116.188 155.553 116.631 155.441 117.005 155.217C117.378 154.984 117.649 154.657 117.817 154.237V153.201H115.745C114.606 153.201 114.037 153.584 114.037 154.349C114.037 154.722 114.181 155.016 114.471 155.231C114.76 155.446 115.161 155.553 115.675 155.553ZM126.03 156.071C125.834 156.239 125.591 156.37 125.302 156.463C125.013 156.547 124.714 156.589 124.406 156.589C123.659 156.589 123.081 156.388 122.67 155.987C122.259 155.586 122.054 155.012 122.054 154.265V150.191H120.794V149.085H122.054V147.461H123.398V149.085H125.526V150.191H123.398V154.209C123.398 154.61 123.496 154.918 123.692 155.133C123.897 155.348 124.187 155.455 124.56 155.455C124.971 155.455 125.321 155.338 125.61 155.105L126.03 156.071ZM60.4188 171.085H61.7628V178.505H60.4188V171.085ZM61.0908 169.657C60.8294 169.657 60.6101 169.573 60.4328 169.405C60.2648 169.237 60.1808 169.032 60.1808 168.789C60.1808 168.546 60.2648 168.341 60.4328 168.173C60.6101 167.996 60.8294 167.907 61.0908 167.907C61.3521 167.907 61.5668 167.991 61.7348 168.159C61.9121 168.318 62.0008 168.518 62.0008 168.761C62.0008 169.013 61.9121 169.228 61.7348 169.405C61.5668 169.573 61.3521 169.657 61.0908 169.657ZM67.7169 178.589C66.9796 178.589 66.3169 178.426 65.7289 178.099C65.1409 177.772 64.6789 177.324 64.3429 176.755C64.0163 176.176 63.8529 175.523 63.8529 174.795C63.8529 174.067 64.0163 173.418 64.3429 172.849C64.6789 172.27 65.1409 171.822 65.7289 171.505C66.3169 171.178 66.9796 171.015 67.7169 171.015C68.4543 171.015 69.1123 171.178 69.6909 171.505C70.2789 171.822 70.7363 172.27 71.0629 172.849C71.3989 173.418 71.5669 174.067 71.5669 174.795C71.5669 175.523 71.3989 176.176 71.0629 176.755C70.7363 177.324 70.2789 177.772 69.6909 178.099C69.1123 178.426 68.4543 178.589 67.7169 178.589ZM67.7169 177.413C68.1929 177.413 68.6176 177.306 68.9909 177.091C69.3736 176.867 69.6723 176.559 69.8869 176.167C70.1016 175.766 70.2089 175.308 70.2089 174.795C70.2089 174.282 70.1016 173.829 69.8869 173.437C69.6723 173.036 69.3736 172.728 68.9909 172.513C68.6176 172.298 68.1929 172.191 67.7169 172.191C67.2409 172.191 66.8116 172.298 66.4289 172.513C66.0556 172.728 65.7569 173.036 65.5329 173.437C65.3183 173.829 65.2109 174.282 65.2109 174.795C65.2109 175.308 65.3183 175.766 65.5329 176.167C65.7569 176.559 66.0556 176.867 66.4289 177.091C66.8116 177.306 67.2409 177.413 67.7169 177.413ZM77.5977 171.015C78.5403 171.015 79.287 171.29 79.8377 171.841C80.3977 172.382 80.6777 173.18 80.6777 174.235V178.505H79.3337V174.389C79.3337 173.67 79.161 173.129 78.8157 172.765C78.4703 172.401 77.9757 172.219 77.3317 172.219C76.6037 172.219 76.0297 172.434 75.6097 172.863C75.1897 173.283 74.9797 173.89 74.9797 174.683V178.505H73.6357V171.085H74.9237V172.205C75.1943 171.822 75.5583 171.528 76.0157 171.323C76.4823 171.118 77.0097 171.015 77.5977 171.015ZM85.503 178.589C84.8963 178.589 84.313 178.51 83.753 178.351C83.193 178.183 82.7543 177.973 82.437 177.721L82.997 176.657C83.3236 176.89 83.7203 177.077 84.187 177.217C84.6536 177.357 85.125 177.427 85.601 177.427C86.777 177.427 87.365 177.091 87.365 176.419C87.365 176.195 87.2856 176.018 87.127 175.887C86.9683 175.756 86.7676 175.663 86.525 175.607C86.2916 175.542 85.9556 175.472 85.517 175.397C84.9196 175.304 84.4296 175.196 84.047 175.075C83.6736 174.954 83.3516 174.748 83.081 174.459C82.8103 174.17 82.675 173.764 82.675 173.241C82.675 172.569 82.955 172.032 83.515 171.631C84.075 171.22 84.8263 171.015 85.769 171.015C86.2636 171.015 86.7583 171.076 87.253 171.197C87.7476 171.318 88.1536 171.482 88.471 171.687L87.897 172.751C87.2903 172.359 86.5763 172.163 85.755 172.163C85.1856 172.163 84.7516 172.256 84.453 172.443C84.1543 172.63 84.005 172.877 84.005 173.185C84.005 173.428 84.089 173.619 84.257 173.759C84.425 173.899 84.6303 174.002 84.873 174.067C85.125 174.132 85.475 174.207 85.923 174.291C86.5203 174.394 87.001 174.506 87.365 174.627C87.7383 174.739 88.0556 174.935 88.317 175.215C88.5783 175.495 88.709 175.887 88.709 176.391C88.709 177.063 88.4196 177.6 87.841 178.001C87.2716 178.393 86.4923 178.589 85.503 178.589Z" fill="white"/>
<g filter="url(#filter2_d)">
<g filter="url(#filter3_d)">
<path d="M167.237 230.732C167.237 229.627 168.133 228.732 169.237 228.732H288.237C289.342 228.732 290.237 229.627 290.237 230.732V349.732C290.237 350.837 289.342 351.732 288.237 351.732H169.237C168.133 351.732 167.237 350.837 167.237 349.732V230.732Z" fill="#396AF5"/>
<path d="M169.237 229.232H288.237C289.066 229.232 289.737 229.904 289.737 230.732V349.732C289.737 350.56 289.066 351.232 288.237 351.232H169.237C168.409 351.232 167.737 350.56 167.737 349.732V230.732C167.737 229.904 168.409 229.232 169.237 229.232Z" stroke="#333333" stroke-opacity="0.1"/>
</g>
<rect x="167.237" y="228.732" width="123" height="12" fill="white" fill-opacity="0.1"/>
</g>
<path d="M189.406 268.571C188.426 268.571 187.539 268.357 186.746 267.927C185.962 267.489 185.346 266.891 184.898 266.135C184.45 265.37 184.226 264.511 184.226 263.559C184.226 262.607 184.45 261.753 184.898 260.997C185.346 260.232 185.966 259.635 186.76 259.205C187.553 258.767 188.44 258.547 189.42 258.547C190.185 258.547 190.885 258.678 191.52 258.939C192.154 259.191 192.696 259.569 193.144 260.073L192.234 260.955C191.496 260.181 190.577 259.793 189.476 259.793C188.748 259.793 188.09 259.957 187.502 260.283C186.914 260.61 186.452 261.063 186.116 261.641C185.789 262.211 185.626 262.85 185.626 263.559C185.626 264.269 185.789 264.913 186.116 265.491C186.452 266.061 186.914 266.509 187.502 266.835C188.09 267.162 188.748 267.325 189.476 267.325C190.568 267.325 191.487 266.933 192.234 266.149L193.144 267.031C192.696 267.535 192.15 267.918 191.506 268.179C190.871 268.441 190.171 268.571 189.406 268.571ZM198.018 268.543C197.281 268.543 196.618 268.38 196.03 268.053C195.442 267.727 194.98 267.279 194.644 266.709C194.318 266.131 194.154 265.477 194.154 264.749C194.154 264.021 194.318 263.373 194.644 262.803C194.98 262.225 195.442 261.777 196.03 261.459C196.618 261.133 197.281 260.969 198.018 260.969C198.756 260.969 199.414 261.133 199.992 261.459C200.58 261.777 201.038 262.225 201.364 262.803C201.7 263.373 201.868 264.021 201.868 264.749C201.868 265.477 201.7 266.131 201.364 266.709C201.038 267.279 200.58 267.727 199.992 268.053C199.414 268.38 198.756 268.543 198.018 268.543ZM198.018 267.367C198.494 267.367 198.919 267.26 199.292 267.045C199.675 266.821 199.974 266.513 200.188 266.121C200.403 265.72 200.51 265.263 200.51 264.749C200.51 264.236 200.403 263.783 200.188 263.391C199.974 262.99 199.675 262.682 199.292 262.467C198.919 262.253 198.494 262.145 198.018 262.145C197.542 262.145 197.113 262.253 196.73 262.467C196.357 262.682 196.058 262.99 195.834 263.391C195.62 263.783 195.512 264.236 195.512 264.749C195.512 265.263 195.62 265.72 195.834 266.121C196.058 266.513 196.357 266.821 196.73 267.045C197.113 267.26 197.542 267.367 198.018 267.367ZM203.937 258.071H205.281V268.459H203.937V258.071ZM208.057 258.071H209.401V268.459H208.057V258.071ZM214.879 260.969C215.906 260.969 216.69 261.221 217.231 261.725C217.782 262.229 218.057 262.981 218.057 263.979V268.459H216.783V267.479C216.559 267.825 216.237 268.091 215.817 268.277C215.407 268.455 214.917 268.543 214.347 268.543C213.517 268.543 212.849 268.343 212.345 267.941C211.851 267.54 211.603 267.013 211.603 266.359C211.603 265.706 211.841 265.183 212.317 264.791C212.793 264.39 213.549 264.189 214.585 264.189H216.713V263.923C216.713 263.345 216.545 262.901 216.209 262.593C215.873 262.285 215.379 262.131 214.725 262.131C214.287 262.131 213.857 262.206 213.437 262.355C213.017 262.495 212.663 262.687 212.373 262.929L211.813 261.921C212.196 261.613 212.653 261.38 213.185 261.221C213.717 261.053 214.282 260.969 214.879 260.969ZM214.571 267.507C215.085 267.507 215.528 267.395 215.901 267.171C216.275 266.938 216.545 266.611 216.713 266.191V265.155H214.641C213.503 265.155 212.933 265.538 212.933 266.303C212.933 266.677 213.078 266.971 213.367 267.185C213.657 267.4 214.058 267.507 214.571 267.507ZM224.689 260.969C225.407 260.969 226.051 261.128 226.621 261.445C227.19 261.763 227.633 262.206 227.951 262.775C228.277 263.345 228.441 264.003 228.441 264.749C228.441 265.496 228.277 266.159 227.951 266.737C227.633 267.307 227.19 267.75 226.621 268.067C226.051 268.385 225.407 268.543 224.689 268.543C224.138 268.543 223.634 268.436 223.177 268.221C222.719 268.007 222.341 267.694 222.043 267.283V268.459H220.755V258.071H222.099V262.159C222.397 261.767 222.771 261.473 223.219 261.277C223.667 261.072 224.157 260.969 224.689 260.969ZM224.577 267.367C225.053 267.367 225.477 267.26 225.851 267.045C226.233 266.821 226.532 266.513 226.747 266.121C226.971 265.72 227.083 265.263 227.083 264.749C227.083 264.236 226.971 263.783 226.747 263.391C226.532 262.99 226.233 262.682 225.851 262.467C225.477 262.253 225.053 262.145 224.577 262.145C224.11 262.145 223.685 262.253 223.303 262.467C222.92 262.682 222.621 262.99 222.407 263.391C222.192 263.783 222.085 264.236 222.085 264.749C222.085 265.263 222.192 265.72 222.407 266.121C222.621 266.513 222.92 266.821 223.303 267.045C223.685 267.26 224.11 267.367 224.577 267.367ZM233.686 268.543C232.948 268.543 232.286 268.38 231.698 268.053C231.11 267.727 230.648 267.279 230.312 266.709C229.985 266.131 229.822 265.477 229.822 264.749C229.822 264.021 229.985 263.373 230.312 262.803C230.648 262.225 231.11 261.777 231.698 261.459C232.286 261.133 232.948 260.969 233.686 260.969C234.423 260.969 235.081 261.133 235.66 261.459C236.248 261.777 236.705 262.225 237.032 262.803C237.368 263.373 237.536 264.021 237.536 264.749C237.536 265.477 237.368 266.131 237.032 266.709C236.705 267.279 236.248 267.727 235.66 268.053C235.081 268.38 234.423 268.543 233.686 268.543ZM233.686 267.367C234.162 267.367 234.586 267.26 234.96 267.045C235.342 266.821 235.641 266.513 235.856 266.121C236.07 265.72 236.178 265.263 236.178 264.749C236.178 264.236 236.07 263.783 235.856 263.391C235.641 262.99 235.342 262.682 234.96 262.467C234.586 262.253 234.162 262.145 233.686 262.145C233.21 262.145 232.78 262.253 232.398 262.467C232.024 262.682 231.726 262.99 231.502 263.391C231.287 263.783 231.18 264.236 231.18 264.749C231.18 265.263 231.287 265.72 231.502 266.121C231.726 266.513 232.024 266.821 232.398 267.045C232.78 267.26 233.21 267.367 233.686 267.367ZM240.892 262.285C241.126 261.856 241.471 261.529 241.928 261.305C242.386 261.081 242.941 260.969 243.594 260.969V262.271C243.52 262.262 243.417 262.257 243.286 262.257C242.558 262.257 241.984 262.477 241.564 262.915C241.154 263.345 240.948 263.961 240.948 264.763V268.459H239.604V261.039H240.892V262.285ZM248.149 260.969C249.176 260.969 249.96 261.221 250.501 261.725C251.052 262.229 251.327 262.981 251.327 263.979V268.459H250.053V267.479C249.829 267.825 249.507 268.091 249.087 268.277C248.676 268.455 248.186 268.543 247.617 268.543C246.786 268.543 246.119 268.343 245.615 267.941C245.12 267.54 244.873 267.013 244.873 266.359C244.873 265.706 245.111 265.183 245.587 264.791C246.063 264.39 246.819 264.189 247.855 264.189H249.983V263.923C249.983 263.345 249.815 262.901 249.479 262.593C249.143 262.285 248.648 262.131 247.995 262.131C247.556 262.131 247.127 262.206 246.707 262.355C246.287 262.495 245.932 262.687 245.643 262.929L245.083 261.921C245.466 261.613 245.923 261.38 246.455 261.221C246.987 261.053 247.552 260.969 248.149 260.969ZM247.841 267.507C248.354 267.507 248.798 267.395 249.171 267.171C249.544 266.938 249.815 266.611 249.983 266.191V265.155H247.911C246.772 265.155 246.203 265.538 246.203 266.303C246.203 266.677 246.348 266.971 246.637 267.185C246.926 267.4 247.328 267.507 247.841 267.507ZM258.196 268.025C258 268.193 257.758 268.324 257.468 268.417C257.179 268.501 256.88 268.543 256.572 268.543C255.826 268.543 255.247 268.343 254.836 267.941C254.426 267.54 254.22 266.966 254.22 266.219V262.145H252.96V261.039H254.22V259.415H255.564V261.039H257.692V262.145H255.564V266.163C255.564 266.565 255.662 266.873 255.858 267.087C256.064 267.302 256.353 267.409 256.726 267.409C257.137 267.409 257.487 267.293 257.776 267.059L258.196 268.025ZM266.491 264.791C266.491 264.894 266.482 265.029 266.463 265.197H260.443C260.527 265.851 260.812 266.378 261.297 266.779C261.792 267.171 262.403 267.367 263.131 267.367C264.018 267.367 264.732 267.069 265.273 266.471L266.015 267.339C265.679 267.731 265.259 268.03 264.755 268.235C264.26 268.441 263.705 268.543 263.089 268.543C262.305 268.543 261.61 268.385 261.003 268.067C260.396 267.741 259.925 267.288 259.589 266.709C259.262 266.131 259.099 265.477 259.099 264.749C259.099 264.031 259.258 263.382 259.575 262.803C259.902 262.225 260.345 261.777 260.905 261.459C261.474 261.133 262.114 260.969 262.823 260.969C263.532 260.969 264.162 261.133 264.713 261.459C265.273 261.777 265.707 262.225 266.015 262.803C266.332 263.382 266.491 264.045 266.491 264.791ZM262.823 262.103C262.179 262.103 261.638 262.299 261.199 262.691C260.77 263.083 260.518 263.597 260.443 264.231H265.203C265.128 263.606 264.872 263.097 264.433 262.705C264.004 262.304 263.467 262.103 262.823 262.103ZM196.056 286.039L193.284 293.459H191.996L189.854 287.831L187.684 293.459H186.396L183.638 286.039H184.912L187.068 291.947L189.308 286.039H190.442L192.64 291.975L194.852 286.039H196.056ZM197.63 286.039H198.974V293.459H197.63V286.039ZM198.302 284.611C198.04 284.611 197.821 284.527 197.644 284.359C197.476 284.191 197.392 283.986 197.392 283.743C197.392 283.501 197.476 283.295 197.644 283.127C197.821 282.95 198.04 282.861 198.302 282.861C198.563 282.861 198.778 282.945 198.946 283.113C199.123 283.272 199.212 283.473 199.212 283.715C199.212 283.967 199.123 284.182 198.946 284.359C198.778 284.527 198.563 284.611 198.302 284.611ZM205.922 293.025C205.726 293.193 205.483 293.324 205.194 293.417C204.904 293.501 204.606 293.543 204.298 293.543C203.551 293.543 202.972 293.343 202.562 292.941C202.151 292.54 201.946 291.966 201.946 291.219V287.145H200.686V286.039H201.946V284.415H203.29V286.039H205.418V287.145H203.29V291.163C203.29 291.565 203.388 291.873 203.584 292.087C203.789 292.302 204.078 292.409 204.452 292.409C204.862 292.409 205.212 292.293 205.502 292.059L205.922 293.025ZM211.719 285.969C212.661 285.969 213.408 286.245 213.959 286.795C214.519 287.337 214.799 288.135 214.799 289.189V293.459H213.455V289.343C213.455 288.625 213.282 288.083 212.937 287.719C212.591 287.355 212.097 287.173 211.453 287.173C210.725 287.173 210.151 287.388 209.731 287.817C209.311 288.237 209.101 288.844 209.101 289.637V293.459H207.757V283.071H209.101V287.089C209.381 286.735 209.745 286.459 210.193 286.263C210.65 286.067 211.159 285.969 211.719 285.969ZM224.644 293.543C223.906 293.543 223.244 293.38 222.656 293.053C222.068 292.727 221.606 292.279 221.27 291.709C220.943 291.131 220.78 290.477 220.78 289.749C220.78 289.021 220.943 288.373 221.27 287.803C221.606 287.225 222.068 286.777 222.656 286.459C223.244 286.133 223.906 285.969 224.644 285.969C225.381 285.969 226.039 286.133 226.618 286.459C227.206 286.777 227.663 287.225 227.99 287.803C228.326 288.373 228.494 289.021 228.494 289.749C228.494 290.477 228.326 291.131 227.99 291.709C227.663 292.279 227.206 292.727 226.618 293.053C226.039 293.38 225.381 293.543 224.644 293.543ZM224.644 292.367C225.12 292.367 225.544 292.26 225.918 292.045C226.3 291.821 226.599 291.513 226.814 291.121C227.028 290.72 227.136 290.263 227.136 289.749C227.136 289.236 227.028 288.783 226.814 288.391C226.599 287.99 226.3 287.682 225.918 287.467C225.544 287.253 225.12 287.145 224.644 287.145C224.168 287.145 223.738 287.253 223.356 287.467C222.982 287.682 222.684 287.99 222.46 288.391C222.245 288.783 222.138 289.236 222.138 289.749C222.138 290.263 222.245 290.72 222.46 291.121C222.684 291.513 222.982 291.821 223.356 292.045C223.738 292.26 224.168 292.367 224.644 292.367ZM234.734 293.025C234.538 293.193 234.296 293.324 234.006 293.417C233.717 293.501 233.418 293.543 233.11 293.543C232.364 293.543 231.785 293.343 231.374 292.941C230.964 292.54 230.758 291.966 230.758 291.219V287.145H229.498V286.039H230.758V284.415H232.102V286.039H234.23V287.145H232.102V291.163C232.102 291.565 232.2 291.873 232.396 292.087C232.602 292.302 232.891 292.409 233.264 292.409C233.675 292.409 234.025 292.293 234.314 292.059L234.734 293.025ZM240.531 285.969C241.474 285.969 242.221 286.245 242.771 286.795C243.331 287.337 243.611 288.135 243.611 289.189V293.459H242.267V289.343C242.267 288.625 242.095 288.083 241.749 287.719C241.404 287.355 240.909 287.173 240.265 287.173C239.537 287.173 238.963 287.388 238.543 287.817C238.123 288.237 237.913 288.844 237.913 289.637V293.459H236.569V283.071H237.913V287.089C238.193 286.735 238.557 286.459 239.005 286.263C239.463 286.067 239.971 285.969 240.531 285.969ZM253.056 289.791C253.056 289.894 253.046 290.029 253.028 290.197H247.008C247.092 290.851 247.376 291.378 247.862 291.779C248.356 292.171 248.968 292.367 249.696 292.367C250.582 292.367 251.296 292.069 251.838 291.471L252.58 292.339C252.244 292.731 251.824 293.03 251.32 293.235C250.825 293.441 250.27 293.543 249.654 293.543C248.87 293.543 248.174 293.385 247.568 293.067C246.961 292.741 246.49 292.288 246.154 291.709C245.827 291.131 245.664 290.477 245.664 289.749C245.664 289.031 245.822 288.382 246.14 287.803C246.466 287.225 246.91 286.777 247.47 286.459C248.039 286.133 248.678 285.969 249.388 285.969C250.097 285.969 250.727 286.133 251.278 286.459C251.838 286.777 252.272 287.225 252.58 287.803C252.897 288.382 253.056 289.045 253.056 289.791ZM249.388 287.103C248.744 287.103 248.202 287.299 247.764 287.691C247.334 288.083 247.082 288.597 247.008 289.231H251.768C251.693 288.606 251.436 288.097 250.998 287.705C250.568 287.304 250.032 287.103 249.388 287.103ZM256.42 287.285C256.653 286.856 256.998 286.529 257.456 286.305C257.913 286.081 258.468 285.969 259.122 285.969V287.271C259.047 287.262 258.944 287.257 258.814 287.257C258.086 287.257 257.512 287.477 257.092 287.915C256.681 288.345 256.476 288.961 256.476 289.763V293.459H255.132V286.039H256.42V287.285ZM189 315.025C188.804 315.193 188.561 315.324 188.272 315.417C187.982 315.501 187.684 315.543 187.376 315.543C186.629 315.543 186.05 315.343 185.64 314.941C185.229 314.54 185.024 313.966 185.024 313.219V309.145H183.764V308.039H185.024V306.415H186.368V308.039H188.496V309.145H186.368V313.163C186.368 313.565 186.466 313.873 186.662 314.087C186.867 314.302 187.156 314.409 187.53 314.409C187.94 314.409 188.29 314.293 188.58 314.059L189 315.025ZM192.123 309.285C192.356 308.856 192.701 308.529 193.159 308.305C193.616 308.081 194.171 307.969 194.825 307.969V309.271C194.75 309.262 194.647 309.257 194.517 309.257C193.789 309.257 193.215 309.477 192.795 309.915C192.384 310.345 192.179 310.961 192.179 311.763V315.459H190.835V308.039H192.123V309.285ZM199.379 307.969C200.406 307.969 201.19 308.221 201.731 308.725C202.282 309.229 202.557 309.981 202.557 310.979V315.459H201.283V314.479C201.059 314.825 200.737 315.091 200.317 315.277C199.907 315.455 199.417 315.543 198.847 315.543C198.017 315.543 197.349 315.343 196.845 314.941C196.351 314.54 196.103 314.013 196.103 313.359C196.103 312.706 196.341 312.183 196.817 311.791C197.293 311.39 198.049 311.189 199.085 311.189H201.213V310.923C201.213 310.345 201.045 309.901 200.709 309.593C200.373 309.285 199.879 309.131 199.225 309.131C198.787 309.131 198.357 309.206 197.937 309.355C197.517 309.495 197.163 309.687 196.873 309.929L196.313 308.921C196.696 308.613 197.153 308.38 197.685 308.221C198.217 308.053 198.782 307.969 199.379 307.969ZM199.071 314.507C199.585 314.507 200.028 314.395 200.401 314.171C200.775 313.938 201.045 313.611 201.213 313.191V312.155H199.141C198.003 312.155 197.433 312.538 197.433 313.303C197.433 313.677 197.578 313.971 197.867 314.185C198.157 314.4 198.558 314.507 199.071 314.507ZM211.684 308.039L208.436 315.459H207.064L203.816 308.039H205.216L207.764 313.989L210.368 308.039H211.684ZM219.649 311.791C219.649 311.894 219.64 312.029 219.621 312.197H213.601C213.685 312.851 213.97 313.378 214.455 313.779C214.95 314.171 215.561 314.367 216.289 314.367C217.176 314.367 217.89 314.069 218.431 313.471L219.173 314.339C218.837 314.731 218.417 315.03 217.913 315.235C217.418 315.441 216.863 315.543 216.247 315.543C215.463 315.543 214.768 315.385 214.161 315.067C213.554 314.741 213.083 314.288 212.747 313.709C212.42 313.131 212.257 312.477 212.257 311.749C212.257 311.031 212.416 310.382 212.733 309.803C213.06 309.225 213.503 308.777 214.063 308.459C214.632 308.133 215.272 307.969 215.981 307.969C216.69 307.969 217.32 308.133 217.871 308.459C218.431 308.777 218.865 309.225 219.173 309.803C219.49 310.382 219.649 311.045 219.649 311.791ZM215.981 309.103C215.337 309.103 214.796 309.299 214.357 309.691C213.928 310.083 213.676 310.597 213.601 311.231H218.361C218.286 310.606 218.03 310.097 217.591 309.705C217.162 309.304 216.625 309.103 215.981 309.103ZM221.725 305.071H223.069V315.459H221.725V305.071ZM232.552 311.791C232.552 311.894 232.542 312.029 232.524 312.197H226.504C226.588 312.851 226.872 313.378 227.358 313.779C227.852 314.171 228.464 314.367 229.192 314.367C230.078 314.367 230.792 314.069 231.334 313.471L232.076 314.339C231.74 314.731 231.32 315.03 230.816 315.235C230.321 315.441 229.766 315.543 229.15 315.543C228.366 315.543 227.67 315.385 227.064 315.067C226.457 314.741 225.986 314.288 225.65 313.709C225.323 313.131 225.16 312.477 225.16 311.749C225.16 311.031 225.318 310.382 225.636 309.803C225.962 309.225 226.406 308.777 226.966 308.459C227.535 308.133 228.174 307.969 228.884 307.969C229.593 307.969 230.223 308.133 230.774 308.459C231.334 308.777 231.768 309.225 232.076 309.803C232.393 310.382 232.552 311.045 232.552 311.791ZM228.884 309.103C228.24 309.103 227.698 309.299 227.26 309.691C226.83 310.083 226.578 310.597 226.504 311.231H231.264C231.189 310.606 230.932 310.097 230.494 309.705C230.064 309.304 229.528 309.103 228.884 309.103ZM235.916 309.285C236.149 308.856 236.494 308.529 236.952 308.305C237.409 308.081 237.964 307.969 238.618 307.969V309.271C238.543 309.262 238.44 309.257 238.31 309.257C237.582 309.257 237.008 309.477 236.588 309.915C236.177 310.345 235.972 310.961 235.972 311.763V315.459H234.628V308.039H235.916V309.285ZM242.667 315.543C242.06 315.543 241.477 315.464 240.917 315.305C240.357 315.137 239.918 314.927 239.601 314.675L240.161 313.611C240.488 313.845 240.884 314.031 241.351 314.171C241.818 314.311 242.289 314.381 242.765 314.381C243.941 314.381 244.529 314.045 244.529 313.373C244.529 313.149 244.45 312.972 244.291 312.841C244.132 312.711 243.932 312.617 243.689 312.561C243.456 312.496 243.12 312.426 242.681 312.351C242.084 312.258 241.594 312.151 241.211 312.029C240.838 311.908 240.516 311.703 240.245 311.413C239.974 311.124 239.839 310.718 239.839 310.195C239.839 309.523 240.119 308.987 240.679 308.585C241.239 308.175 241.99 307.969 242.933 307.969C243.428 307.969 243.922 308.03 244.417 308.151C244.912 308.273 245.318 308.436 245.635 308.641L245.061 309.705C244.454 309.313 243.74 309.117 242.919 309.117C242.35 309.117 241.916 309.211 241.617 309.397C241.318 309.584 241.169 309.831 241.169 310.139C241.169 310.382 241.253 310.573 241.421 310.713C241.589 310.853 241.794 310.956 242.037 311.021C242.289 311.087 242.639 311.161 243.087 311.245C243.684 311.348 244.165 311.46 244.529 311.581C244.902 311.693 245.22 311.889 245.481 312.169C245.742 312.449 245.873 312.841 245.873 313.345C245.873 314.017 245.584 314.554 245.005 314.955C244.436 315.347 243.656 315.543 242.667 315.543Z" fill="white"/>
<g filter="url(#filter4_d)">
<g filter="url(#filter5_d)">
<path d="M321.472 89.8452C321.472 88.7406 322.367 87.8452 323.472 87.8452H442.472C443.576 87.8452 444.472 88.7406 444.472 89.8452V208.845C444.472 209.95 443.576 210.845 442.472 210.845H323.472C322.367 210.845 321.472 209.95 321.472 208.845V89.8452Z" fill="#396AF5"/>
<path d="M323.472 88.3452H442.472C443.3 88.3452 443.972 89.0168 443.972 89.8452V208.845C443.972 209.674 443.3 210.345 442.472 210.345H323.472C322.643 210.345 321.972 209.674 321.972 208.845V89.8452C321.972 89.0168 322.643 88.3452 323.472 88.3452Z" stroke="#333333" stroke-opacity="0.1"/>
</g>
<rect x="321.472" y="87.8452" width="123" height="12" fill="white" fill-opacity="0.1"/>
</g>
<path d="M345.897 117.774V127.574H344.749L338.869 120.266V127.574H337.469V117.774H338.617L344.497 125.082V117.774H345.897ZM355.55 123.906C355.55 124.008 355.541 124.144 355.522 124.312H349.502C349.586 124.965 349.871 125.492 350.356 125.894C350.851 126.286 351.462 126.482 352.19 126.482C353.077 126.482 353.791 126.183 354.332 125.586L355.074 126.454C354.738 126.846 354.318 127.144 353.814 127.35C353.319 127.555 352.764 127.658 352.148 127.658C351.364 127.658 350.669 127.499 350.062 127.182C349.455 126.855 348.984 126.402 348.648 125.824C348.321 125.245 348.158 124.592 348.158 123.864C348.158 123.145 348.317 122.496 348.634 121.918C348.961 121.339 349.404 120.891 349.964 120.574C350.533 120.247 351.173 120.084 351.882 120.084C352.591 120.084 353.221 120.247 353.772 120.574C354.332 120.891 354.766 121.339 355.074 121.918C355.391 122.496 355.55 123.159 355.55 123.906ZM351.882 121.218C351.238 121.218 350.697 121.414 350.258 121.806C349.829 122.198 349.577 122.711 349.502 123.346H354.262C354.187 122.72 353.931 122.212 353.492 121.82C353.063 121.418 352.526 121.218 351.882 121.218ZM364.332 123.906C364.332 124.008 364.323 124.144 364.304 124.312H358.284C358.368 124.965 358.653 125.492 359.138 125.894C359.633 126.286 360.244 126.482 360.972 126.482C361.859 126.482 362.573 126.183 363.114 125.586L363.856 126.454C363.52 126.846 363.1 127.144 362.596 127.35C362.102 127.555 361.546 127.658 360.93 127.658C360.146 127.658 359.451 127.499 358.844 127.182C358.238 126.855 357.766 126.402 357.43 125.824C357.104 125.245 356.94 124.592 356.94 123.864C356.94 123.145 357.099 122.496 357.416 121.918C357.743 121.339 358.186 120.891 358.746 120.574C359.316 120.247 359.955 120.084 360.664 120.084C361.374 120.084 362.004 120.247 362.554 120.574C363.114 120.891 363.548 121.339 363.856 121.918C364.174 122.496 364.332 123.159 364.332 123.906ZM360.664 121.218C360.02 121.218 359.479 121.414 359.04 121.806C358.611 122.198 358.359 122.711 358.284 123.346H363.044C362.97 122.72 362.713 122.212 362.274 121.82C361.845 121.418 361.308 121.218 360.664 121.218ZM373.409 117.186V127.574H372.121V126.398C371.822 126.808 371.444 127.121 370.987 127.336C370.529 127.55 370.025 127.658 369.475 127.658C368.756 127.658 368.112 127.499 367.543 127.182C366.973 126.864 366.525 126.421 366.199 125.852C365.881 125.273 365.723 124.61 365.723 123.864C365.723 123.117 365.881 122.459 366.199 121.89C366.525 121.32 366.973 120.877 367.543 120.56C368.112 120.242 368.756 120.084 369.475 120.084C370.007 120.084 370.497 120.186 370.945 120.392C371.393 120.588 371.766 120.882 372.065 121.274V117.186H373.409ZM369.587 126.482C370.053 126.482 370.478 126.374 370.861 126.16C371.243 125.936 371.542 125.628 371.757 125.236C371.971 124.834 372.079 124.377 372.079 123.864C372.079 123.35 371.971 122.898 371.757 122.506C371.542 122.104 371.243 121.796 370.861 121.582C370.478 121.367 370.053 121.26 369.587 121.26C369.111 121.26 368.681 121.367 368.299 121.582C367.925 121.796 367.627 122.104 367.403 122.506C367.188 122.898 367.081 123.35 367.081 123.864C367.081 124.377 367.188 124.834 367.403 125.236C367.627 125.628 367.925 125.936 368.299 126.16C368.681 126.374 369.111 126.482 369.587 126.482ZM382.833 120.084C383.86 120.084 384.644 120.336 385.185 120.84C385.736 121.344 386.011 122.095 386.011 123.094V127.574H384.737V126.594C384.513 126.939 384.191 127.205 383.771 127.392C383.361 127.569 382.871 127.658 382.301 127.658C381.471 127.658 380.803 127.457 380.299 127.056C379.805 126.654 379.557 126.127 379.557 125.474C379.557 124.82 379.795 124.298 380.271 123.906C380.747 123.504 381.503 123.304 382.539 123.304H384.667V123.038C384.667 122.459 384.499 122.016 384.163 121.708C383.827 121.4 383.333 121.246 382.679 121.246C382.241 121.246 381.811 121.32 381.391 121.47C380.971 121.61 380.617 121.801 380.327 122.044L379.767 121.036C380.15 120.728 380.607 120.494 381.139 120.336C381.671 120.168 382.236 120.084 382.833 120.084ZM382.525 126.622C383.039 126.622 383.482 126.51 383.855 126.286C384.229 126.052 384.499 125.726 384.667 125.306V124.27H382.595C381.457 124.27 380.887 124.652 380.887 125.418C380.887 125.791 381.032 126.085 381.321 126.3C381.611 126.514 382.012 126.622 382.525 126.622ZM396.612 120.084C397.331 120.084 397.975 120.242 398.544 120.56C399.114 120.877 399.557 121.32 399.874 121.89C400.201 122.459 400.364 123.117 400.364 123.864C400.364 124.61 400.201 125.273 399.874 125.852C399.557 126.421 399.114 126.864 398.544 127.182C397.975 127.499 397.331 127.658 396.612 127.658C396.08 127.658 395.59 127.555 395.142 127.35C394.704 127.144 394.33 126.846 394.022 126.454V130.29H392.678V120.154H393.966V121.33C394.265 120.919 394.643 120.611 395.1 120.406C395.558 120.191 396.062 120.084 396.612 120.084ZM396.5 126.482C396.976 126.482 397.401 126.374 397.774 126.16C398.157 125.936 398.456 125.628 398.67 125.236C398.894 124.834 399.006 124.377 399.006 123.864C399.006 123.35 398.894 122.898 398.67 122.506C398.456 122.104 398.157 121.796 397.774 121.582C397.401 121.367 396.976 121.26 396.5 121.26C396.034 121.26 395.609 121.372 395.226 121.596C394.853 121.81 394.554 122.114 394.33 122.506C394.116 122.898 394.008 123.35 394.008 123.864C394.008 124.377 394.116 124.834 394.33 125.236C394.545 125.628 394.844 125.936 395.226 126.16C395.609 126.374 396.034 126.482 396.5 126.482ZM402.431 117.186H403.775V127.574H402.431V117.186ZM409.253 120.084C410.28 120.084 411.064 120.336 411.605 120.84C412.156 121.344 412.431 122.095 412.431 123.094V127.574H411.157V126.594C410.933 126.939 410.611 127.205 410.191 127.392C409.781 127.569 409.291 127.658 408.721 127.658C407.891 127.658 407.223 127.457 406.719 127.056C406.225 126.654 405.977 126.127 405.977 125.474C405.977 124.82 406.215 124.298 406.691 123.906C407.167 123.504 407.923 123.304 408.959 123.304H411.087V123.038C411.087 122.459 410.919 122.016 410.583 121.708C410.247 121.4 409.753 121.246 409.099 121.246C408.661 121.246 408.231 121.32 407.811 121.47C407.391 121.61 407.037 121.801 406.747 122.044L406.187 121.036C406.57 120.728 407.027 120.494 407.559 120.336C408.091 120.168 408.656 120.084 409.253 120.084ZM408.945 126.622C409.459 126.622 409.902 126.51 410.275 126.286C410.649 126.052 410.919 125.726 411.087 125.306V124.27H409.015C407.877 124.27 407.307 124.652 407.307 125.418C407.307 125.791 407.452 126.085 407.741 126.3C408.031 126.514 408.432 126.622 408.945 126.622ZM418.404 127.658C417.648 127.658 416.971 127.494 416.374 127.168C415.786 126.841 415.324 126.393 414.988 125.824C414.652 125.245 414.484 124.592 414.484 123.864C414.484 123.136 414.652 122.487 414.988 121.918C415.324 121.339 415.786 120.891 416.374 120.574C416.971 120.247 417.648 120.084 418.404 120.084C419.076 120.084 419.673 120.219 420.196 120.49C420.728 120.76 421.138 121.152 421.428 121.666L420.406 122.324C420.172 121.969 419.883 121.703 419.538 121.526C419.192 121.348 418.81 121.26 418.39 121.26C417.904 121.26 417.466 121.367 417.074 121.582C416.691 121.796 416.388 122.104 416.164 122.506C415.949 122.898 415.842 123.35 415.842 123.864C415.842 124.386 415.949 124.848 416.164 125.25C416.388 125.642 416.691 125.945 417.074 126.16C417.466 126.374 417.904 126.482 418.39 126.482C418.81 126.482 419.192 126.393 419.538 126.216C419.883 126.038 420.172 125.772 420.406 125.418L421.428 126.062C421.138 126.575 420.728 126.972 420.196 127.252C419.673 127.522 419.076 127.658 418.404 127.658ZM429.974 123.906C429.974 124.008 429.965 124.144 429.946 124.312H423.926C424.01 124.965 424.295 125.492 424.78 125.894C425.275 126.286 425.886 126.482 426.614 126.482C427.501 126.482 428.215 126.183 428.756 125.586L429.498 126.454C429.162 126.846 428.742 127.144 428.238 127.35C427.744 127.555 427.188 127.658 426.572 127.658C425.788 127.658 425.093 127.499 424.486 127.182C423.88 126.855 423.408 126.402 423.072 125.824C422.746 125.245 422.582 124.592 422.582 123.864C422.582 123.145 422.741 122.496 423.058 121.918C423.385 121.339 423.828 120.891 424.388 120.574C424.958 120.247 425.597 120.084 426.306 120.084C427.016 120.084 427.646 120.247 428.196 120.574C428.756 120.891 429.19 121.339 429.498 121.918C429.816 122.496 429.974 123.159 429.974 123.906ZM426.306 121.218C425.662 121.218 425.121 121.414 424.682 121.806C424.253 122.198 424.001 122.711 423.926 123.346H428.686C428.612 122.72 428.355 122.212 427.916 121.82C427.487 121.418 426.95 121.218 426.306 121.218ZM348.163 143.154L345.391 150.574H344.103L341.961 144.946L339.791 150.574H338.503L335.745 143.154H337.019L339.175 149.062L341.415 143.154H342.549L344.747 149.09L346.959 143.154H348.163ZM353.699 143.084C354.642 143.084 355.389 143.359 355.939 143.91C356.499 144.451 356.779 145.249 356.779 146.304V150.574H355.435V146.458C355.435 145.739 355.263 145.198 354.917 144.834C354.572 144.47 354.077 144.288 353.433 144.288C352.705 144.288 352.131 144.502 351.711 144.932C351.291 145.352 351.081 145.958 351.081 146.752V150.574H349.737V140.186H351.081V144.204C351.361 143.849 351.725 143.574 352.173 143.378C352.631 143.182 353.139 143.084 353.699 143.084ZM366.223 146.906C366.223 147.008 366.214 147.144 366.195 147.312H360.175C360.259 147.965 360.544 148.492 361.029 148.894C361.524 149.286 362.135 149.482 362.863 149.482C363.75 149.482 364.464 149.183 365.005 148.586L365.747 149.454C365.411 149.846 364.991 150.144 364.487 150.35C363.993 150.555 363.437 150.658 362.821 150.658C362.037 150.658 361.342 150.499 360.735 150.182C360.129 149.855 359.657 149.402 359.321 148.824C358.995 148.245 358.831 147.592 358.831 146.864C358.831 146.145 358.99 145.496 359.307 144.918C359.634 144.339 360.077 143.891 360.637 143.574C361.207 143.247 361.846 143.084 362.555 143.084C363.265 143.084 363.895 143.247 364.445 143.574C365.005 143.891 365.439 144.339 365.747 144.918C366.065 145.496 366.223 146.159 366.223 146.906ZM362.555 144.218C361.911 144.218 361.37 144.414 360.931 144.806C360.502 145.198 360.25 145.711 360.175 146.346H364.935C364.861 145.72 364.604 145.212 364.165 144.82C363.736 144.418 363.199 144.218 362.555 144.218ZM369.588 144.4C369.821 143.97 370.166 143.644 370.624 143.42C371.081 143.196 371.636 143.084 372.29 143.084V144.386C372.215 144.376 372.112 144.372 371.982 144.372C371.254 144.372 370.68 144.591 370.26 145.03C369.849 145.459 369.644 146.075 369.644 146.878V150.574H368.3V143.154H369.588V144.4ZM380.794 146.906C380.794 147.008 380.785 147.144 380.766 147.312H374.746C374.83 147.965 375.115 148.492 375.6 148.894C376.095 149.286 376.706 149.482 377.434 149.482C378.321 149.482 379.035 149.183 379.576 148.586L380.318 149.454C379.982 149.846 379.562 150.144 379.058 150.35C378.563 150.555 378.008 150.658 377.392 150.658C376.608 150.658 375.913 150.499 375.306 150.182C374.699 149.855 374.228 149.402 373.892 148.824C373.565 148.245 373.402 147.592 373.402 146.864C373.402 146.145 373.561 145.496 373.878 144.918C374.205 144.339 374.648 143.891 375.208 143.574C375.777 143.247 376.417 143.084 377.126 143.084C377.835 143.084 378.465 143.247 379.016 143.574C379.576 143.891 380.01 144.339 380.318 144.918C380.635 145.496 380.794 146.159 380.794 146.906ZM377.126 144.218C376.482 144.218 375.941 144.414 375.502 144.806C375.073 145.198 374.821 145.711 374.746 146.346H379.506C379.431 145.72 379.175 145.212 378.736 144.82C378.307 144.418 377.77 144.218 377.126 144.218ZM391.012 150.14C390.816 150.308 390.573 150.438 390.284 150.532C389.995 150.616 389.696 150.658 389.388 150.658C388.641 150.658 388.063 150.457 387.652 150.056C387.241 149.654 387.036 149.08 387.036 148.334V144.26H385.776V143.154H387.036V141.53H388.38V143.154H390.508V144.26H388.38V148.278C388.38 148.679 388.478 148.987 388.674 149.202C388.879 149.416 389.169 149.524 389.542 149.524C389.953 149.524 390.303 149.407 390.592 149.174L391.012 150.14ZM395.779 150.658C395.041 150.658 394.379 150.494 393.791 150.168C393.203 149.841 392.741 149.393 392.405 148.824C392.078 148.245 391.915 147.592 391.915 146.864C391.915 146.136 392.078 145.487 392.405 144.918C392.741 144.339 393.203 143.891 393.791 143.574C394.379 143.247 395.041 143.084 395.779 143.084C396.516 143.084 397.174 143.247 397.753 143.574C398.341 143.891 398.798 144.339 399.125 144.918C399.461 145.487 399.629 146.136 399.629 146.864C399.629 147.592 399.461 148.245 399.125 148.824C398.798 149.393 398.341 149.841 397.753 150.168C397.174 150.494 396.516 150.658 395.779 150.658ZM395.779 149.482C396.255 149.482 396.679 149.374 397.053 149.16C397.435 148.936 397.734 148.628 397.949 148.236C398.163 147.834 398.271 147.377 398.271 146.864C398.271 146.35 398.163 145.898 397.949 145.506C397.734 145.104 397.435 144.796 397.053 144.582C396.679 144.367 396.255 144.26 395.779 144.26C395.303 144.26 394.873 144.367 394.491 144.582C394.117 144.796 393.819 145.104 393.595 145.506C393.38 145.898 393.273 146.35 393.273 146.864C393.273 147.377 393.38 147.834 393.595 148.236C393.819 148.628 394.117 148.936 394.491 149.16C394.873 149.374 395.303 149.482 395.779 149.482ZM408.383 141.208C407.581 141.208 407.179 141.642 407.179 142.51V143.154H409.335V144.26H407.207V150.574H405.863V144.26H404.603V143.154H405.863V142.496C405.863 141.758 406.078 141.175 406.507 140.746C406.937 140.316 407.539 140.102 408.313 140.102C408.612 140.102 408.892 140.139 409.153 140.214C409.415 140.288 409.639 140.396 409.825 140.536L409.419 141.558C409.111 141.324 408.766 141.208 408.383 141.208ZM417.409 146.906C417.409 147.008 417.4 147.144 417.381 147.312H411.361C411.445 147.965 411.73 148.492 412.215 148.894C412.71 149.286 413.321 149.482 414.049 149.482C414.936 149.482 415.65 149.183 416.191 148.586L416.933 149.454C416.597 149.846 416.177 150.144 415.673 150.35C415.179 150.555 414.623 150.658 414.007 150.658C413.223 150.658 412.528 150.499 411.921 150.182C411.315 149.855 410.843 149.402 410.507 148.824C410.181 148.245 410.017 147.592 410.017 146.864C410.017 146.145 410.176 145.496 410.493 144.918C410.82 144.339 411.263 143.891 411.823 143.574C412.393 143.247 413.032 143.084 413.741 143.084C414.451 143.084 415.081 143.247 415.631 143.574C416.191 143.891 416.625 144.339 416.933 144.918C417.251 145.496 417.409 146.159 417.409 146.906ZM413.741 144.218C413.097 144.218 412.556 144.414 412.117 144.806C411.688 145.198 411.436 145.711 411.361 146.346H416.121C416.047 145.72 415.79 145.212 415.351 144.82C414.922 144.418 414.385 144.218 413.741 144.218ZM426.192 146.906C426.192 147.008 426.182 147.144 426.164 147.312H420.144C420.228 147.965 420.512 148.492 420.998 148.894C421.492 149.286 422.104 149.482 422.832 149.482C423.718 149.482 424.432 149.183 424.974 148.586L425.716 149.454C425.38 149.846 424.96 150.144 424.456 150.35C423.961 150.555 423.406 150.658 422.79 150.658C422.006 150.658 421.31 150.499 420.704 150.182C420.097 149.855 419.626 149.402 419.29 148.824C418.963 148.245 418.8 147.592 418.8 146.864C418.8 146.145 418.958 145.496 419.276 144.918C419.602 144.339 420.046 143.891 420.606 143.574C421.175 143.247 421.814 143.084 422.524 143.084C423.233 143.084 423.863 143.247 424.414 143.574C424.974 143.891 425.408 144.339 425.716 144.918C426.033 145.496 426.192 146.159 426.192 146.906ZM422.524 144.218C421.88 144.218 421.338 144.414 420.9 144.806C420.47 145.198 420.218 145.711 420.144 146.346H424.904C424.829 145.72 424.572 145.212 424.134 144.82C423.704 144.418 423.168 144.218 422.524 144.218ZM428.268 140.186H429.612V150.574H428.268V140.186ZM362.438 165.154L358.84 173.316C358.523 174.072 358.149 174.604 357.72 174.912C357.3 175.22 356.791 175.374 356.194 175.374C355.83 175.374 355.475 175.313 355.13 175.192C354.794 175.08 354.514 174.912 354.29 174.688L354.864 173.68C355.247 174.044 355.69 174.226 356.194 174.226C356.521 174.226 356.791 174.137 357.006 173.96C357.23 173.792 357.431 173.498 357.608 173.078L357.846 172.56L354.57 165.154H355.97L358.56 171.09L361.122 165.154H362.438ZM366.875 172.658C366.138 172.658 365.475 172.494 364.887 172.168C364.299 171.841 363.837 171.393 363.501 170.824C363.175 170.245 363.011 169.592 363.011 168.864C363.011 168.136 363.175 167.487 363.501 166.918C363.837 166.339 364.299 165.891 364.887 165.574C365.475 165.247 366.138 165.084 366.875 165.084C367.613 165.084 368.271 165.247 368.849 165.574C369.437 165.891 369.895 166.339 370.221 166.918C370.557 167.487 370.725 168.136 370.725 168.864C370.725 169.592 370.557 170.245 370.221 170.824C369.895 171.393 369.437 171.841 368.849 172.168C368.271 172.494 367.613 172.658 366.875 172.658ZM366.875 171.482C367.351 171.482 367.776 171.374 368.149 171.16C368.532 170.936 368.831 170.628 369.045 170.236C369.26 169.834 369.367 169.377 369.367 168.864C369.367 168.35 369.26 167.898 369.045 167.506C368.831 167.104 368.532 166.796 368.149 166.582C367.776 166.367 367.351 166.26 366.875 166.26C366.399 166.26 365.97 166.367 365.587 166.582C365.214 166.796 364.915 167.104 364.691 167.506C364.477 167.898 364.369 168.35 364.369 168.864C364.369 169.377 364.477 169.834 364.691 170.236C364.915 170.628 365.214 170.936 365.587 171.16C365.97 171.374 366.399 171.482 366.875 171.482ZM379.71 165.154V172.574H378.436V171.454C378.165 171.836 377.806 172.135 377.358 172.35C376.919 172.555 376.439 172.658 375.916 172.658C374.927 172.658 374.147 172.387 373.578 171.846C373.009 171.295 372.724 170.488 372.724 169.424V165.154H374.068V169.27C374.068 169.988 374.241 170.534 374.586 170.908C374.931 171.272 375.426 171.454 376.07 171.454C376.779 171.454 377.339 171.239 377.75 170.81C378.161 170.38 378.366 169.774 378.366 168.99V165.154H379.71ZM383.767 166.4C384 165.97 384.345 165.644 384.803 165.42C385.26 165.196 385.815 165.084 386.469 165.084V166.386C386.394 166.376 386.291 166.372 386.161 166.372C385.433 166.372 384.859 166.591 384.439 167.03C384.028 167.459 383.823 168.075 383.823 168.878V172.574H382.479V165.154H383.767V166.4ZM390.518 172.658C389.911 172.658 389.328 172.578 388.768 172.42C388.208 172.252 387.769 172.042 387.452 171.79L388.012 170.726C388.338 170.959 388.735 171.146 389.202 171.286C389.668 171.426 390.14 171.496 390.616 171.496C391.792 171.496 392.38 171.16 392.38 170.488C392.38 170.264 392.3 170.086 392.142 169.956C391.983 169.825 391.782 169.732 391.54 169.676C391.306 169.61 390.97 169.54 390.532 169.466C389.934 169.372 389.444 169.265 389.062 169.144C388.688 169.022 388.366 168.817 388.096 168.528C387.825 168.238 387.69 167.832 387.69 167.31C387.69 166.638 387.97 166.101 388.53 165.7C389.09 165.289 389.841 165.084 390.784 165.084C391.278 165.084 391.773 165.144 392.268 165.266C392.762 165.387 393.168 165.55 393.486 165.756L392.912 166.82C392.305 166.428 391.591 166.232 390.77 166.232C390.2 166.232 389.766 166.325 389.468 166.512C389.169 166.698 389.02 166.946 389.02 167.254C389.02 167.496 389.104 167.688 389.272 167.828C389.44 167.968 389.645 168.07 389.888 168.136C390.14 168.201 390.49 168.276 390.938 168.36C391.535 168.462 392.016 168.574 392.38 168.696C392.753 168.808 393.07 169.004 393.332 169.284C393.593 169.564 393.724 169.956 393.724 170.46C393.724 171.132 393.434 171.668 392.856 172.07C392.286 172.462 391.507 172.658 390.518 172.658ZM402.319 168.906C402.319 169.008 402.31 169.144 402.291 169.312H396.271C396.355 169.965 396.64 170.492 397.125 170.894C397.62 171.286 398.231 171.482 398.959 171.482C399.846 171.482 400.56 171.183 401.101 170.586L401.843 171.454C401.507 171.846 401.087 172.144 400.583 172.35C400.089 172.555 399.533 172.658 398.917 172.658C398.133 172.658 397.438 172.499 396.831 172.182C396.225 171.855 395.753 171.402 395.417 170.824C395.091 170.245 394.927 169.592 394.927 168.864C394.927 168.145 395.086 167.496 395.403 166.918C395.73 166.339 396.173 165.891 396.733 165.574C397.303 165.247 397.942 165.084 398.651 165.084C399.361 165.084 399.991 165.247 400.541 165.574C401.101 165.891 401.535 166.339 401.843 166.918C402.161 167.496 402.319 168.159 402.319 168.906ZM398.651 166.218C398.007 166.218 397.466 166.414 397.027 166.806C396.598 167.198 396.346 167.711 396.271 168.346H401.031C400.957 167.72 400.7 167.212 400.261 166.82C399.832 166.418 399.295 166.218 398.651 166.218ZM404.396 162.186H405.74V172.574H404.396V162.186ZM411.232 163.208C410.429 163.208 410.028 163.642 410.028 164.51V165.154H412.184V166.26H410.056V172.574H408.712V166.26H407.452V165.154H408.712V164.496C408.712 163.758 408.927 163.175 409.356 162.746C409.785 162.316 410.387 162.102 411.162 162.102C411.461 162.102 411.741 162.139 412.002 162.214C412.263 162.288 412.487 162.396 412.674 162.536L412.268 163.558C411.96 163.324 411.615 163.208 411.232 163.208Z" fill="white"/>
<g filter="url(#filter6_d)">
<g filter="url(#filter7_d)">
<path d="M13.0039 230.732C13.0039 229.627 13.8993 228.732 15.0039 228.732H134.004C135.108 228.732 136.004 229.627 136.004 230.732V349.732C136.004 350.837 135.108 351.732 134.004 351.732H15.0039C13.8993 351.732 13.0039 350.837 13.0039 349.732V230.732Z" fill="#396AF5"/>
<path d="M15.0039 229.232H134.004C134.832 229.232 135.504 229.904 135.504 230.732V349.732C135.504 350.56 134.832 351.232 134.004 351.232H15.0039C14.1755 351.232 13.5039 350.56 13.5039 349.732V230.732C13.5039 229.904 14.1755 229.232 15.0039 229.232Z" stroke="#333333" stroke-opacity="0.1"/>
</g>
<rect x="13.0039" y="228.732" width="123" height="12" fill="white" fill-opacity="0.1"/>
</g>
<path d="M61.2768 276.192H57.9168V274.974H66.0228V276.192H62.6628V284.774H61.2768V276.192ZM69.8672 277.284C70.8938 277.284 71.6778 277.536 72.2192 278.04C72.7698 278.544 73.0452 279.295 73.0452 280.294V284.774H71.7712V283.794C71.5472 284.139 71.2252 284.405 70.8052 284.592C70.3945 284.769 69.9045 284.858 69.3352 284.858C68.5045 284.858 67.8372 284.657 67.3332 284.256C66.8385 283.855 66.5912 283.327 66.5912 282.674C66.5912 282.021 66.8292 281.498 67.3052 281.106C67.7812 280.705 68.5372 280.504 69.5732 280.504H71.7012V280.238C71.7012 279.659 71.5332 279.216 71.1972 278.908C70.8612 278.6 70.3665 278.446 69.7132 278.446C69.2745 278.446 68.8452 278.521 68.4252 278.67C68.0052 278.81 67.6505 279.001 67.3612 279.244L66.8012 278.236C67.1838 277.928 67.6412 277.695 68.1732 277.536C68.7052 277.368 69.2698 277.284 69.8672 277.284ZM69.5592 283.822C70.0725 283.822 70.5158 283.71 70.8892 283.486C71.2625 283.253 71.5332 282.926 71.7012 282.506V281.47H69.6292C68.4905 281.47 67.9212 281.853 67.9212 282.618C67.9212 282.991 68.0658 283.285 68.3552 283.5C68.6445 283.715 69.0458 283.822 69.5592 283.822ZM78.6263 281.316L77.0863 282.744V284.774H75.7423V274.386H77.0863V281.05L81.1323 277.354H82.7563L79.6343 280.42L83.0643 284.774H81.4123L78.6263 281.316ZM90.9708 281.106C90.9708 281.209 90.9615 281.344 90.9428 281.512H84.9228C85.0068 282.165 85.2915 282.693 85.7768 283.094C86.2715 283.486 86.8828 283.682 87.6108 283.682C88.4975 283.682 89.2115 283.383 89.7528 282.786L90.4948 283.654C90.1588 284.046 89.7388 284.345 89.2348 284.55C88.7402 284.755 88.1848 284.858 87.5688 284.858C86.7848 284.858 86.0895 284.699 85.4828 284.382C84.8762 284.055 84.4048 283.603 84.0688 283.024C83.7422 282.445 83.5788 281.792 83.5788 281.064C83.5788 280.345 83.7375 279.697 84.0548 279.118C84.3815 278.539 84.8248 278.091 85.3848 277.774C85.9542 277.447 86.5935 277.284 87.3028 277.284C88.0122 277.284 88.6422 277.447 89.1928 277.774C89.7528 278.091 90.1868 278.539 90.4948 279.118C90.8122 279.697 90.9708 280.359 90.9708 281.106ZM87.3028 278.418C86.6588 278.418 86.1175 278.614 85.6788 279.006C85.2495 279.398 84.9975 279.911 84.9228 280.546H89.6828C89.6082 279.921 89.3515 279.412 88.9128 279.02C88.4835 278.619 87.9468 278.418 87.3028 278.418ZM59.8361 300.284C60.7788 300.284 61.5254 300.559 62.0761 301.11C62.6361 301.651 62.9161 302.449 62.9161 303.504V307.774H61.5721V303.658C61.5721 302.939 61.3994 302.398 61.0541 302.034C60.7088 301.67 60.2141 301.488 59.5701 301.488C58.8421 301.488 58.2681 301.703 57.8481 302.132C57.4281 302.552 57.2181 303.159 57.2181 303.952V307.774H55.8741V300.354H57.1621V301.474C57.4328 301.091 57.7968 300.797 58.2541 300.592C58.7208 300.387 59.2481 300.284 59.8361 300.284ZM68.8324 307.858C68.0951 307.858 67.4324 307.695 66.8444 307.368C66.2564 307.041 65.7944 306.593 65.4584 306.024C65.1318 305.445 64.9684 304.792 64.9684 304.064C64.9684 303.336 65.1318 302.687 65.4584 302.118C65.7944 301.539 66.2564 301.091 66.8444 300.774C67.4324 300.447 68.0951 300.284 68.8324 300.284C69.5698 300.284 70.2278 300.447 70.8064 300.774C71.3944 301.091 71.8518 301.539 72.1784 302.118C72.5144 302.687 72.6824 303.336 72.6824 304.064C72.6824 304.792 72.5144 305.445 72.1784 306.024C71.8518 306.593 71.3944 307.041 70.8064 307.368C70.2278 307.695 69.5698 307.858 68.8324 307.858ZM68.8324 306.682C69.3084 306.682 69.7331 306.575 70.1064 306.36C70.4891 306.136 70.7878 305.828 71.0024 305.436C71.2171 305.035 71.3244 304.577 71.3244 304.064C71.3244 303.551 71.2171 303.098 71.0024 302.706C70.7878 302.305 70.4891 301.997 70.1064 301.782C69.7331 301.567 69.3084 301.46 68.8324 301.46C68.3564 301.46 67.9271 301.567 67.5444 301.782C67.1711 301.997 66.8724 302.305 66.6484 302.706C66.4338 303.098 66.3264 303.551 66.3264 304.064C66.3264 304.577 66.4338 305.035 66.6484 305.436C66.8724 305.828 67.1711 306.136 67.5444 306.36C67.9271 306.575 68.3564 306.682 68.8324 306.682ZM78.9231 307.34C78.7271 307.508 78.4845 307.639 78.1951 307.732C77.9058 307.816 77.6071 307.858 77.2991 307.858C76.5525 307.858 75.9738 307.657 75.5631 307.256C75.1525 306.855 74.9471 306.281 74.9471 305.534V301.46H73.6871V300.354H74.9471V298.73H76.2911V300.354H78.4191V301.46H76.2911V305.478C76.2911 305.879 76.3891 306.187 76.5851 306.402C76.7905 306.617 77.0798 306.724 77.4531 306.724C77.8638 306.724 78.2138 306.607 78.5031 306.374L78.9231 307.34ZM87.2179 304.106C87.2179 304.209 87.2086 304.344 87.1899 304.512H81.1699C81.2539 305.165 81.5386 305.693 82.0239 306.094C82.5186 306.486 83.1299 306.682 83.8579 306.682C84.7446 306.682 85.4586 306.383 85.9999 305.786L86.7419 306.654C86.4059 307.046 85.9859 307.345 85.4819 307.55C84.9873 307.755 84.4319 307.858 83.8159 307.858C83.0319 307.858 82.3366 307.699 81.7299 307.382C81.1233 307.055 80.6519 306.603 80.3159 306.024C79.9893 305.445 79.8259 304.792 79.8259 304.064C79.8259 303.345 79.9846 302.697 80.3019 302.118C80.6286 301.539 81.0719 301.091 81.6319 300.774C82.2013 300.447 82.8406 300.284 83.5499 300.284C84.2593 300.284 84.8893 300.447 85.4399 300.774C85.9999 301.091 86.4339 301.539 86.7419 302.118C87.0593 302.697 87.2179 303.359 87.2179 304.106ZM83.5499 301.418C82.9059 301.418 82.3646 301.614 81.9259 302.006C81.4966 302.398 81.2446 302.911 81.1699 303.546H85.9299C85.8553 302.921 85.5986 302.412 85.1599 302.02C84.7306 301.619 84.1939 301.418 83.5499 301.418ZM91.4222 307.858C90.8155 307.858 90.2322 307.779 89.6722 307.62C89.1122 307.452 88.6735 307.242 88.3562 306.99L88.9162 305.926C89.2429 306.159 89.6395 306.346 90.1062 306.486C90.5729 306.626 91.0442 306.696 91.5202 306.696C92.6962 306.696 93.2842 306.36 93.2842 305.688C93.2842 305.464 93.2049 305.287 93.0462 305.156C92.8875 305.025 92.6869 304.932 92.4442 304.876C92.2109 304.811 91.8749 304.741 91.4362 304.666C90.8389 304.573 90.3489 304.465 89.9662 304.344C89.5929 304.223 89.2709 304.017 89.0002 303.728C88.7295 303.439 88.5942 303.033 88.5942 302.51C88.5942 301.838 88.8742 301.301 89.4342 300.9C89.9942 300.489 90.7455 300.284 91.6882 300.284C92.1829 300.284 92.6775 300.345 93.1722 300.466C93.6669 300.587 94.0729 300.751 94.3902 300.956L93.8162 302.02C93.2095 301.628 92.4955 301.432 91.6742 301.432C91.1049 301.432 90.6709 301.525 90.3722 301.712C90.0735 301.899 89.9242 302.146 89.9242 302.454C89.9242 302.697 90.0082 302.888 90.1762 303.028C90.3442 303.168 90.5495 303.271 90.7922 303.336C91.0442 303.401 91.3942 303.476 91.8422 303.56C92.4395 303.663 92.9202 303.775 93.2842 303.896C93.6575 304.008 93.9749 304.204 94.2362 304.484C94.4975 304.764 94.6282 305.156 94.6282 305.66C94.6282 306.332 94.3389 306.869 93.7602 307.27C93.1909 307.662 92.4115 307.858 91.4222 307.858Z" fill="white"/>
<g filter="url(#filter8_d)">
<g filter="url(#filter9_d)">
<path d="M167.237 89.8452C167.237 88.7406 168.133 87.8452 169.237 87.8452H287.237C288.342 87.8452 289.237 88.7406 289.237 89.8452V208.845C289.237 209.95 288.342 210.845 287.237 210.845H169.237C168.133 210.845 167.237 209.95 167.237 208.845V89.8452Z" fill="#396AF5"/>
<path d="M169.237 88.3452H287.237C288.066 88.3452 288.737 89.0168 288.737 89.8452V208.845C288.737 209.674 288.066 210.345 287.237 210.345H169.237C168.409 210.345 167.737 209.674 167.737 208.845V89.8452C167.737 89.0168 168.409 88.3452 169.237 88.3452Z" stroke="#333333" stroke-opacity="0.1"/>
</g>
<rect x="167.237" y="87.8452" width="122" height="12" fill="white" fill-opacity="0.1"/>
</g>
<path d="M199.497 131.121H200.897V139.703H206.203V140.921H199.497V131.121ZM210.906 141.005C210.168 141.005 209.506 140.842 208.918 140.515C208.33 140.188 207.868 139.74 207.532 139.171C207.205 138.592 207.042 137.939 207.042 137.211C207.042 136.483 207.205 135.834 207.532 135.265C207.868 134.686 208.33 134.238 208.918 133.921C209.506 133.594 210.168 133.431 210.906 133.431C211.643 133.431 212.301 133.594 212.88 133.921C213.468 134.238 213.925 134.686 214.252 135.265C214.588 135.834 214.756 136.483 214.756 137.211C214.756 137.939 214.588 138.592 214.252 139.171C213.925 139.74 213.468 140.188 212.88 140.515C212.301 140.842 211.643 141.005 210.906 141.005ZM210.906 139.829C211.382 139.829 211.806 139.722 212.18 139.507C212.562 139.283 212.861 138.975 213.076 138.583C213.29 138.182 213.398 137.724 213.398 137.211C213.398 136.698 213.29 136.245 213.076 135.853C212.861 135.452 212.562 135.144 212.18 134.929C211.806 134.714 211.382 134.607 210.906 134.607C210.43 134.607 210 134.714 209.618 134.929C209.244 135.144 208.946 135.452 208.722 135.853C208.507 136.245 208.4 136.698 208.4 137.211C208.4 137.724 208.507 138.182 208.722 138.583C208.946 138.975 209.244 139.283 209.618 139.507C210 139.722 210.43 139.829 210.906 139.829ZM220.003 141.005C219.265 141.005 218.603 140.842 218.015 140.515C217.427 140.188 216.965 139.74 216.629 139.171C216.302 138.592 216.139 137.939 216.139 137.211C216.139 136.483 216.302 135.834 216.629 135.265C216.965 134.686 217.427 134.238 218.015 133.921C218.603 133.594 219.265 133.431 220.003 133.431C220.74 133.431 221.398 133.594 221.977 133.921C222.565 134.238 223.022 134.686 223.349 135.265C223.685 135.834 223.853 136.483 223.853 137.211C223.853 137.939 223.685 138.592 223.349 139.171C223.022 139.74 222.565 140.188 221.977 140.515C221.398 140.842 220.74 141.005 220.003 141.005ZM220.003 139.829C220.479 139.829 220.903 139.722 221.277 139.507C221.659 139.283 221.958 138.975 222.173 138.583C222.387 138.182 222.495 137.724 222.495 137.211C222.495 136.698 222.387 136.245 222.173 135.853C221.958 135.452 221.659 135.144 221.277 134.929C220.903 134.714 220.479 134.607 220.003 134.607C219.527 134.607 219.097 134.714 218.715 134.929C218.341 135.144 218.043 135.452 217.819 135.853C217.604 136.245 217.497 136.698 217.497 137.211C217.497 137.724 217.604 138.182 217.819 138.583C218.043 138.975 218.341 139.283 218.715 139.507C219.097 139.722 219.527 139.829 220.003 139.829ZM228.805 137.463L227.265 138.891V140.921H225.921V130.533H227.265V137.197L231.311 133.501H232.935L229.813 136.567L233.243 140.921H231.591L228.805 137.463ZM241.444 131.555C240.641 131.555 240.24 131.989 240.24 132.857V133.501H242.396V134.607H240.268V140.921H238.924V134.607H237.664V133.501H238.924V132.843C238.924 132.106 239.139 131.522 239.568 131.093C239.997 130.664 240.599 130.449 241.374 130.449C241.673 130.449 241.953 130.486 242.214 130.561C242.475 130.636 242.699 130.743 242.886 130.883L242.48 131.905C242.172 131.672 241.827 131.555 241.444 131.555ZM246.942 141.005C246.205 141.005 245.542 140.842 244.954 140.515C244.366 140.188 243.904 139.74 243.568 139.171C243.241 138.592 243.078 137.939 243.078 137.211C243.078 136.483 243.241 135.834 243.568 135.265C243.904 134.686 244.366 134.238 244.954 133.921C245.542 133.594 246.205 133.431 246.942 133.431C247.679 133.431 248.337 133.594 248.916 133.921C249.504 134.238 249.961 134.686 250.288 135.265C250.624 135.834 250.792 136.483 250.792 137.211C250.792 137.939 250.624 138.592 250.288 139.171C249.961 139.74 249.504 140.188 248.916 140.515C248.337 140.842 247.679 141.005 246.942 141.005ZM246.942 139.829C247.418 139.829 247.843 139.722 248.216 139.507C248.599 139.283 248.897 138.975 249.112 138.583C249.327 138.182 249.434 137.724 249.434 137.211C249.434 136.698 249.327 136.245 249.112 135.853C248.897 135.452 248.599 135.144 248.216 134.929C247.843 134.714 247.418 134.607 246.942 134.607C246.466 134.607 246.037 134.714 245.654 134.929C245.281 135.144 244.982 135.452 244.758 135.853C244.543 136.245 244.436 136.698 244.436 137.211C244.436 137.724 244.543 138.182 244.758 138.583C244.982 138.975 245.281 139.283 245.654 139.507C246.037 139.722 246.466 139.829 246.942 139.829ZM254.149 134.747C254.382 134.318 254.728 133.991 255.185 133.767C255.642 133.543 256.198 133.431 256.851 133.431V134.733C256.776 134.724 256.674 134.719 256.543 134.719C255.815 134.719 255.241 134.938 254.821 135.377C254.41 135.806 254.205 136.422 254.205 137.225V140.921H252.861V133.501H254.149V134.747ZM198.075 154.555C197.272 154.555 196.871 154.989 196.871 155.857V156.501H199.027V157.607H196.899V163.921H195.555V157.607H194.295V156.501H195.555V155.843C195.555 155.106 195.77 154.522 196.199 154.093C196.628 153.664 197.23 153.449 198.005 153.449C198.304 153.449 198.584 153.486 198.845 153.561C199.106 153.636 199.33 153.743 199.517 153.883L199.111 154.905C198.803 154.672 198.458 154.555 198.075 154.555ZM207.101 160.253C207.101 160.356 207.092 160.491 207.073 160.659H201.053C201.137 161.312 201.422 161.84 201.907 162.241C202.402 162.633 203.013 162.829 203.741 162.829C204.628 162.829 205.342 162.53 205.883 161.933L206.625 162.801C206.289 163.193 205.869 163.492 205.365 163.697C204.871 163.902 204.315 164.005 203.699 164.005C202.915 164.005 202.22 163.846 201.613 163.529C201.007 163.202 200.535 162.75 200.199 162.171C199.873 161.592 199.709 160.939 199.709 160.211C199.709 159.492 199.868 158.844 200.185 158.265C200.512 157.686 200.955 157.238 201.515 156.921C202.085 156.594 202.724 156.431 203.433 156.431C204.143 156.431 204.773 156.594 205.323 156.921C205.883 157.238 206.317 157.686 206.625 158.265C206.943 158.844 207.101 159.506 207.101 160.253ZM203.433 157.565C202.789 157.565 202.248 157.761 201.809 158.153C201.38 158.545 201.128 159.058 201.053 159.693H205.813C205.739 159.068 205.482 158.559 205.043 158.167C204.614 157.766 204.077 157.565 203.433 157.565ZM215.884 160.253C215.884 160.356 215.874 160.491 215.856 160.659H209.836C209.92 161.312 210.204 161.84 210.69 162.241C211.184 162.633 211.796 162.829 212.524 162.829C213.41 162.829 214.124 162.53 214.666 161.933L215.408 162.801C215.072 163.193 214.652 163.492 214.148 163.697C213.653 163.902 213.098 164.005 212.482 164.005C211.698 164.005 211.002 163.846 210.396 163.529C209.789 163.202 209.318 162.75 208.982 162.171C208.655 161.592 208.492 160.939 208.492 160.211C208.492 159.492 208.65 158.844 208.968 158.265C209.294 157.686 209.738 157.238 210.298 156.921C210.867 156.594 211.506 156.431 212.216 156.431C212.925 156.431 213.555 156.594 214.106 156.921C214.666 157.238 215.1 157.686 215.408 158.265C215.725 158.844 215.884 159.506 215.884 160.253ZM212.216 157.565C211.572 157.565 211.03 157.761 210.592 158.153C210.162 158.545 209.91 159.058 209.836 159.693H214.596C214.521 159.068 214.264 158.559 213.826 158.167C213.396 157.766 212.86 157.565 212.216 157.565ZM224.96 153.533V163.921H223.672V162.745C223.373 163.156 222.995 163.468 222.538 163.683C222.08 163.898 221.576 164.005 221.026 164.005C220.307 164.005 219.663 163.846 219.094 163.529C218.524 163.212 218.076 162.768 217.75 162.199C217.432 161.62 217.274 160.958 217.274 160.211C217.274 159.464 217.432 158.806 217.75 158.237C218.076 157.668 218.524 157.224 219.094 156.907C219.663 156.59 220.307 156.431 221.026 156.431C221.558 156.431 222.048 156.534 222.496 156.739C222.944 156.935 223.317 157.229 223.616 157.621V153.533H224.96ZM221.138 162.829C221.604 162.829 222.029 162.722 222.412 162.507C222.794 162.283 223.093 161.975 223.308 161.583C223.522 161.182 223.63 160.724 223.63 160.211C223.63 159.698 223.522 159.245 223.308 158.853C223.093 158.452 222.794 158.144 222.412 157.929C222.029 157.714 221.604 157.607 221.138 157.607C220.662 157.607 220.232 157.714 219.85 157.929C219.476 158.144 219.178 158.452 218.954 158.853C218.739 159.245 218.632 159.698 218.632 160.211C218.632 160.724 218.739 161.182 218.954 161.583C219.178 161.975 219.476 162.283 219.85 162.507C220.232 162.722 220.662 162.829 221.138 162.829ZM231.647 156.431C232.365 156.431 233.009 156.59 233.579 156.907C234.148 157.224 234.591 157.668 234.909 158.237C235.235 158.806 235.399 159.464 235.399 160.211C235.399 160.958 235.235 161.62 234.909 162.199C234.591 162.768 234.148 163.212 233.579 163.529C233.009 163.846 232.365 164.005 231.647 164.005C231.096 164.005 230.592 163.898 230.135 163.683C229.677 163.468 229.299 163.156 229.001 162.745V163.921H227.713V153.533H229.057V157.621C229.355 157.229 229.729 156.935 230.177 156.739C230.625 156.534 231.115 156.431 231.647 156.431ZM231.535 162.829C232.011 162.829 232.435 162.722 232.809 162.507C233.191 162.283 233.49 161.975 233.705 161.583C233.929 161.182 234.041 160.724 234.041 160.211C234.041 159.698 233.929 159.245 233.705 158.853C233.49 158.452 233.191 158.144 232.809 157.929C232.435 157.714 232.011 157.607 231.535 157.607C231.068 157.607 230.643 157.714 230.261 157.929C229.878 158.144 229.579 158.452 229.365 158.853C229.15 159.245 229.043 159.698 229.043 160.211C229.043 160.724 229.15 161.182 229.365 161.583C229.579 161.975 229.878 162.283 230.261 162.507C230.643 162.722 231.068 162.829 231.535 162.829ZM240.099 156.431C241.126 156.431 241.91 156.683 242.451 157.187C243.002 157.691 243.277 158.442 243.277 159.441V163.921H242.003V162.941C241.779 163.286 241.457 163.552 241.037 163.739C240.627 163.916 240.137 164.005 239.567 164.005C238.737 164.005 238.069 163.804 237.565 163.403C237.071 163.002 236.823 162.474 236.823 161.821C236.823 161.168 237.061 160.645 237.537 160.253C238.013 159.852 238.769 159.651 239.805 159.651H241.933V159.385C241.933 158.806 241.765 158.363 241.429 158.055C241.093 157.747 240.599 157.593 239.945 157.593C239.507 157.593 239.077 157.668 238.657 157.817C238.237 157.957 237.883 158.148 237.593 158.391L237.033 157.383C237.416 157.075 237.873 156.842 238.405 156.683C238.937 156.515 239.502 156.431 240.099 156.431ZM239.791 162.969C240.305 162.969 240.748 162.857 241.121 162.633C241.495 162.4 241.765 162.073 241.933 161.653V160.617H239.861C238.723 160.617 238.153 161 238.153 161.765C238.153 162.138 238.298 162.432 238.587 162.647C238.877 162.862 239.278 162.969 239.791 162.969ZM249.25 164.005C248.494 164.005 247.817 163.842 247.22 163.515C246.632 163.188 246.17 162.74 245.834 162.171C245.498 161.592 245.33 160.939 245.33 160.211C245.33 159.483 245.498 158.834 245.834 158.265C246.17 157.686 246.632 157.238 247.22 156.921C247.817 156.594 248.494 156.431 249.25 156.431C249.922 156.431 250.519 156.566 251.042 156.837C251.574 157.108 251.984 157.5 252.274 158.013L251.252 158.671C251.018 158.316 250.729 158.05 250.384 157.873C250.038 157.696 249.656 157.607 249.236 157.607C248.75 157.607 248.312 157.714 247.92 157.929C247.537 158.144 247.234 158.452 247.01 158.853C246.795 159.245 246.688 159.698 246.688 160.211C246.688 160.734 246.795 161.196 247.01 161.597C247.234 161.989 247.537 162.292 247.92 162.507C248.312 162.722 248.75 162.829 249.236 162.829C249.656 162.829 250.038 162.74 250.384 162.563C250.729 162.386 251.018 162.12 251.252 161.765L252.274 162.409C251.984 162.922 251.574 163.319 251.042 163.599C250.519 163.87 249.922 164.005 249.25 164.005ZM257.012 160.463L255.472 161.891V163.921H254.128V153.533H255.472V160.197L259.518 156.501H261.142L258.02 159.567L261.45 163.921H259.798L257.012 160.463Z" fill="white"/>
<defs>
<filter id="filter0_d" x="0.00341797" y="86.8447" width="148" height="149.091" filterUnits="userSpaceOnUse" color-interpolation-filters="sRGB">
<feFlood flood-opacity="0" result="BackgroundImageFix"/>
<feColorMatrix in="SourceAlpha" type="matrix" values="0 0 0 0 0 0 0 0 0 0 0 0 0 0 0 0 0 0 127 0"/>
<feOffset dy="12"/>
<feGaussianBlur stdDeviation="6.5"/>
<feColorMatrix type="matrix" values="0 0 0 0 0 0 0 0 0 0 0 0 0 0 0 0 0 0 0.25 0"/>
<feBlend mode="normal" in2="BackgroundImageFix" result="effect1_dropShadow"/>
<feBlend mode="normal" in="SourceGraphic" in2="effect1_dropShadow" result="shape"/>
</filter>
<filter id="filter1_d" x="5.00342" y="83.8447" width="138" height="139" filterUnits="userSpaceOnUse" color-interpolation-filters="sRGB">
<feFlood flood-opacity="0" result="BackgroundImageFix"/>
<feColorMatrix in="SourceAlpha" type="matrix" values="0 0 0 0 0 0 0 0 0 0 0 0 0 0 0 0 0 0 127 0"/>
<feOffset dy="4"/>
<feGaussianBlur stdDeviation="4"/>
<feColorMatrix type="matrix" values="0 0 0 0 0 0 0 0 0 0 0 0 0 0 0 0 0 0 0.1 0"/>
<feBlend mode="normal" in2="BackgroundImageFix" result="effect1_dropShadow"/>
<feBlend mode="normal" in="SourceGraphic" in2="effect1_dropShadow" result="shape"/>
</filter>
<filter id="filter2_d" x="154.237" y="227.732" width="149.091" height="149.091" filterUnits="userSpaceOnUse" color-interpolation-filters="sRGB">
<feFlood flood-opacity="0" result="BackgroundImageFix"/>
<feColorMatrix in="SourceAlpha" type="matrix" values="0 0 0 0 0 0 0 0 0 0 0 0 0 0 0 0 0 0 127 0"/>
<feOffset dy="12"/>
<feGaussianBlur stdDeviation="6.5"/>
<feColorMatrix type="matrix" values="0 0 0 0 0 0 0 0 0 0 0 0 0 0 0 0 0 0 0.25 0"/>
<feBlend mode="normal" in2="BackgroundImageFix" result="effect1_dropShadow"/>
<feBlend mode="normal" in="SourceGraphic" in2="effect1_dropShadow" result="shape"/>
</filter>
<filter id="filter3_d" x="159.237" y="224.732" width="139" height="139" filterUnits="userSpaceOnUse" color-interpolation-filters="sRGB">
<feFlood flood-opacity="0" result="BackgroundImageFix"/>
<feColorMatrix in="SourceAlpha" type="matrix" values="0 0 0 0 0 0 0 0 0 0 0 0 0 0 0 0 0 0 127 0"/>
<feOffset dy="4"/>
<feGaussianBlur stdDeviation="4"/>
<feColorMatrix type="matrix" values="0 0 0 0 0 0 0 0 0 0 0 0 0 0 0 0 0 0 0.1 0"/>
<feBlend mode="normal" in2="BackgroundImageFix" result="effect1_dropShadow"/>
<feBlend mode="normal" in="SourceGraphic" in2="effect1_dropShadow" result="shape"/>
</filter>
<filter id="filter4_d" x="308.472" y="86.8452" width="149.091" height="149.091" filterUnits="userSpaceOnUse" color-interpolation-filters="sRGB">
<feFlood flood-opacity="0" result="BackgroundImageFix"/>
<feColorMatrix in="SourceAlpha" type="matrix" values="0 0 0 0 0 0 0 0 0 0 0 0 0 0 0 0 0 0 127 0"/>
<feOffset dy="12"/>
<feGaussianBlur stdDeviation="6.5"/>
<feColorMatrix type="matrix" values="0 0 0 0 0 0 0 0 0 0 0 0 0 0 0 0 0 0 0.25 0"/>
<feBlend mode="normal" in2="BackgroundImageFix" result="effect1_dropShadow"/>
<feBlend mode="normal" in="SourceGraphic" in2="effect1_dropShadow" result="shape"/>
</filter>
<filter id="filter5_d" x="313.472" y="83.8452" width="139" height="139" filterUnits="userSpaceOnUse" color-interpolation-filters="sRGB">
<feFlood flood-opacity="0" result="BackgroundImageFix"/>
<feColorMatrix in="SourceAlpha" type="matrix" values="0 0 0 0 0 0 0 0 0 0 0 0 0 0 0 0 0 0 127 0"/>
<feOffset dy="4"/>
<feGaussianBlur stdDeviation="4"/>
<feColorMatrix type="matrix" values="0 0 0 0 0 0 0 0 0 0 0 0 0 0 0 0 0 0 0.1 0"/>
<feBlend mode="normal" in2="BackgroundImageFix" result="effect1_dropShadow"/>
<feBlend mode="normal" in="SourceGraphic" in2="effect1_dropShadow" result="shape"/>
</filter>
<filter id="filter6_d" x="0.00390625" y="227.732" width="149.091" height="149.091" filterUnits="userSpaceOnUse" color-interpolation-filters="sRGB">
<feFlood flood-opacity="0" result="BackgroundImageFix"/>
<feColorMatrix in="SourceAlpha" type="matrix" values="0 0 0 0 0 0 0 0 0 0 0 0 0 0 0 0 0 0 127 0"/>
<feOffset dy="12"/>
<feGaussianBlur stdDeviation="6.5"/>
<feColorMatrix type="matrix" values="0 0 0 0 0 0 0 0 0 0 0 0 0 0 0 0 0 0 0.25 0"/>
<feBlend mode="normal" in2="BackgroundImageFix" result="effect1_dropShadow"/>
<feBlend mode="normal" in="SourceGraphic" in2="effect1_dropShadow" result="shape"/>
</filter>
<filter id="filter7_d" x="5.00391" y="224.732" width="139" height="139" filterUnits="userSpaceOnUse" color-interpolation-filters="sRGB">
<feFlood flood-opacity="0" result="BackgroundImageFix"/>
<feColorMatrix in="SourceAlpha" type="matrix" values="0 0 0 0 0 0 0 0 0 0 0 0 0 0 0 0 0 0 127 0"/>
<feOffset dy="4"/>
<feGaussianBlur stdDeviation="4"/>
<feColorMatrix type="matrix" values="0 0 0 0 0 0 0 0 0 0 0 0 0 0 0 0 0 0 0.1 0"/>
<feBlend mode="normal" in2="BackgroundImageFix" result="effect1_dropShadow"/>
<feBlend mode="normal" in="SourceGraphic" in2="effect1_dropShadow" result="shape"/>
</filter>
<filter id="filter8_d" x="154.237" y="86.8452" width="148" height="149.091" filterUnits="userSpaceOnUse" color-interpolation-filters="sRGB">
<feFlood flood-opacity="0" result="BackgroundImageFix"/>
<feColorMatrix in="SourceAlpha" type="matrix" values="0 0 0 0 0 0 0 0 0 0 0 0 0 0 0 0 0 0 127 0"/>
<feOffset dy="12"/>
<feGaussianBlur stdDeviation="6.5"/>
<feColorMatrix type="matrix" values="0 0 0 0 0 0 0 0 0 0 0 0 0 0 0 0 0 0 0.25 0"/>
<feBlend mode="normal" in2="BackgroundImageFix" result="effect1_dropShadow"/>
<feBlend mode="normal" in="SourceGraphic" in2="effect1_dropShadow" result="shape"/>
</filter>
<filter id="filter9_d" x="159.237" y="83.8452" width="138" height="139" filterUnits="userSpaceOnUse" color-interpolation-filters="sRGB">
<feFlood flood-opacity="0" result="BackgroundImageFix"/>
<feColorMatrix in="SourceAlpha" type="matrix" values="0 0 0 0 0 0 0 0 0 0 0 0 0 0 0 0 0 0 127 0"/>
<feOffset dy="4"/>
<feGaussianBlur stdDeviation="4"/>
<feColorMatrix type="matrix" values="0 0 0 0 0 0 0 0 0 0 0 0 0 0 0 0 0 0 0.1 0"/>
<feBlend mode="normal" in2="BackgroundImageFix" result="effect1_dropShadow"/>
<feBlend mode="normal" in="SourceGraphic" in2="effect1_dropShadow" result="shape"/>
</filter>
</defs>
</svg>
