<svg width="501" height="415" viewBox="0 0 501 415" fill="none" xmlns="http://www.w3.org/2000/svg">
<path d="M53.6465 397.646C53.4512 397.842 53.4512 398.158 53.6465 398.354L56.8285 401.536C57.0237 401.731 57.3403 401.731 57.5356 401.536C57.7308 401.34 57.7308 401.024 57.5356 400.828L54.7071 398L57.5356 395.172C57.7308 394.976 57.7308 394.66 57.5356 394.464C57.3403 394.269 57.0237 394.269 56.8285 394.464L53.6465 397.646ZM501 397.5L54 397.5V398.5L501 398.5V397.5Z" fill="#DBDBDB"/>
<path d="M3.64645 414.354C3.84171 414.549 4.15829 414.549 4.35355 414.354L7.53553 411.172C7.7308 410.976 7.7308 410.66 7.53553 410.464C7.34027 410.269 7.02369 410.269 6.82843 410.464L4 413.293L1.17157 410.464C0.976311 410.269 0.659728 410.269 0.464466 410.464C0.269204 410.66 0.269204 410.976 0.464466 411.172L3.64645 414.354ZM3.5 0V414H4.5V0L3.5 0Z" fill="#DBDBDB"/>
<g filter="url(#filter0_d)">
<g filter="url(#filter1_d)">
<path d="M79.2812 89.498C79.2812 88.3935 80.1767 87.498 81.2812 87.498H200.281C201.386 87.498 202.281 88.3935 202.281 89.498V208.498C202.281 209.603 201.386 210.498 200.281 210.498H81.2812C80.1767 210.498 79.2812 209.603 79.2812 208.498V89.498Z" fill="#986AF3"/>
<path d="M81.2812 87.998H200.281C201.11 87.998 201.781 88.6696 201.781 89.498V208.498C201.781 209.326 201.11 209.998 200.281 209.998H81.2812C80.4528 209.998 79.7812 209.326 79.7812 208.498V89.498C79.7812 88.6696 80.4528 87.998 81.2812 87.998Z" stroke="#333333" stroke-opacity="0.1"/>
</g>
<rect x="79.2812" y="87.498" width="123" height="12" fill="white" fill-opacity="0.1"/>
</g>
<path d="M65.0458 14.4893H60.0922V10.872H74.5382V14.4893H69.6077V27H65.0458V14.4893ZM91.928 10.872V27H87.3661V20.7101H81.1453V27H76.5834V10.872H81.1453V16.9315H87.3661V10.872H91.928ZM95.4915 10.872H100.053V27H95.4915V10.872ZM118.989 10.872V27H115.234L108.114 18.4061V27H103.645V10.872H107.4L114.519 19.4659V10.872H118.989ZM128.774 21.1478L127.069 22.968V27H122.553V10.872H127.069V17.5766L133.312 10.872H138.335L131.746 18.0144L138.681 27H133.382L128.774 21.1478ZM145.554 27.3226C144.248 27.3226 142.981 27.1613 141.752 26.8387C140.523 26.5162 139.525 26.0861 138.757 25.5485L140.254 22.1846C140.976 22.6608 141.813 23.0448 142.766 23.3366C143.718 23.6285 144.655 23.7744 145.577 23.7744C147.328 23.7744 148.203 23.3366 148.203 22.4611C148.203 22.0003 147.95 21.6624 147.443 21.4474C146.951 21.217 146.153 20.9789 145.047 20.7331C143.833 20.472 142.82 20.1955 142.005 19.9037C141.191 19.5965 140.493 19.1126 139.909 18.4522C139.325 17.7917 139.033 16.9008 139.033 15.7795C139.033 14.7965 139.302 13.9133 139.84 13.1299C140.377 12.3312 141.176 11.7014 142.236 11.2406C143.311 10.7798 144.624 10.5494 146.176 10.5494C147.236 10.5494 148.28 10.6723 149.309 10.9181C150.338 11.1485 151.245 11.4941 152.028 11.9549L150.622 15.3418C149.086 14.5123 147.597 14.0976 146.153 14.0976C145.246 14.0976 144.586 14.2358 144.171 14.5123C143.757 14.7734 143.549 15.119 143.549 15.5491C143.549 15.9792 143.795 16.3018 144.286 16.5168C144.778 16.7318 145.569 16.9546 146.66 17.185C147.888 17.4461 148.902 17.7302 149.701 18.0374C150.515 18.3293 151.214 18.8054 151.797 19.4659C152.397 20.111 152.696 20.9942 152.696 22.1155C152.696 23.0832 152.427 23.9587 151.89 24.7421C151.352 25.5254 150.546 26.1552 149.47 26.6314C148.395 27.0922 147.09 27.3226 145.554 27.3226ZM167.314 14.305C169.388 14.305 170.97 14.7811 172.061 15.7334C173.151 16.6704 173.696 18.1142 173.696 20.065V27H169.618V25.3872C168.989 26.6006 167.76 27.2074 165.932 27.2074C164.964 27.2074 164.127 27.0384 163.421 26.7005C162.714 26.3626 162.176 25.9094 161.808 25.3411C161.455 24.7574 161.278 24.097 161.278 23.3597C161.278 22.177 161.731 21.263 162.637 20.6179C163.544 19.9574 164.941 19.6272 166.831 19.6272H169.319C169.242 18.3062 168.359 17.6458 166.669 17.6458C166.07 17.6458 165.464 17.7456 164.849 17.9453C164.235 18.1296 163.712 18.3907 163.282 18.7286L161.808 15.7565C162.499 15.2957 163.336 14.9424 164.319 14.6966C165.318 14.4355 166.316 14.305 167.314 14.305ZM167.153 24.4426C167.66 24.4426 168.105 24.3197 168.489 24.0739C168.873 23.8282 169.15 23.4672 169.319 22.991V21.9082H167.43C166.155 21.9082 165.517 22.3306 165.517 23.1754C165.517 23.5594 165.663 23.8666 165.955 24.097C166.247 24.3274 166.646 24.4426 167.153 24.4426ZM184.938 14.305C186.49 14.305 187.734 14.7658 188.671 15.6874C189.623 16.609 190.099 17.999 190.099 19.8576V27H185.722V20.5718C185.722 18.8669 185.038 18.0144 183.671 18.0144C182.919 18.0144 182.312 18.2602 181.851 18.7517C181.406 19.2432 181.183 19.9805 181.183 20.9635V27H176.805V14.5123H180.975V15.8717C181.467 15.3648 182.051 14.9808 182.727 14.7197C183.402 14.4432 184.14 14.305 184.938 14.305ZM206.644 9.90432V27H202.474V25.7558C201.66 26.7235 200.439 27.2074 198.811 27.2074C197.674 27.2074 196.637 26.9462 195.7 26.424C194.763 25.8864 194.018 25.1261 193.466 24.143C192.928 23.16 192.659 22.0234 192.659 20.7331C192.659 19.4429 192.928 18.3139 193.466 17.3462C194.018 16.3632 194.763 15.6106 195.7 15.0883C196.637 14.5661 197.674 14.305 198.811 14.305C200.301 14.305 201.453 14.735 202.267 15.5952V9.90432H206.644ZM199.732 23.7283C200.485 23.7283 201.107 23.4672 201.599 22.945C202.09 22.4074 202.336 21.6701 202.336 20.7331C202.336 19.8115 202.09 19.0896 201.599 18.5674C201.122 18.0451 200.5 17.784 199.732 17.784C198.964 17.784 198.335 18.0451 197.843 18.5674C197.352 19.0896 197.106 19.8115 197.106 20.7331C197.106 21.6701 197.352 22.4074 197.843 22.945C198.335 23.4672 198.964 23.7283 199.732 23.7283ZM221.626 14.3971V17.9453H228.746V21.4704H221.626V27H217.064V10.872H229.713V14.3971H221.626ZM244.479 20.7792C244.479 20.8099 244.456 21.1709 244.41 21.8621H235.332C235.517 22.5072 235.87 23.0064 236.392 23.3597C236.93 23.6976 237.598 23.8666 238.397 23.8666C238.996 23.8666 239.51 23.7821 239.94 23.6131C240.386 23.4442 240.831 23.1677 241.277 22.7837L243.581 25.1798C242.367 26.5315 240.593 27.2074 238.259 27.2074C236.799 27.2074 235.517 26.9309 234.411 26.3779C233.305 25.825 232.445 25.057 231.83 24.0739C231.231 23.0909 230.932 21.9773 230.932 20.7331C230.932 19.5043 231.224 18.4061 231.807 17.4384C232.406 16.4554 233.228 15.6874 234.273 15.1344C235.317 14.5814 236.492 14.305 237.798 14.305C239.042 14.305 240.171 14.5661 241.185 15.0883C242.198 15.5952 242.997 16.3402 243.581 17.3232C244.18 18.2909 244.479 19.4429 244.479 20.7792ZM237.821 17.4154C237.145 17.4154 236.577 17.6074 236.116 17.9914C235.67 18.3754 235.386 18.8976 235.263 19.5581H240.378C240.255 18.8976 239.963 18.3754 239.503 17.9914C239.057 17.6074 238.497 17.4154 237.821 17.4154ZM259.607 20.7792C259.607 20.8099 259.584 21.1709 259.538 21.8621H250.461C250.645 22.5072 250.998 23.0064 251.52 23.3597C252.058 23.6976 252.726 23.8666 253.525 23.8666C254.124 23.8666 254.638 23.7821 255.069 23.6131C255.514 23.4442 255.959 23.1677 256.405 22.7837L258.709 25.1798C257.495 26.5315 255.721 27.2074 253.387 27.2074C251.927 27.2074 250.645 26.9309 249.539 26.3779C248.433 25.825 247.573 25.057 246.958 24.0739C246.359 23.0909 246.06 21.9773 246.06 20.7331C246.06 19.5043 246.352 18.4061 246.935 17.4384C247.534 16.4554 248.356 15.6874 249.401 15.1344C250.445 14.5814 251.62 14.305 252.926 14.305C254.17 14.305 255.299 14.5661 256.313 15.0883C257.326 15.5952 258.125 16.3402 258.709 17.3232C259.308 18.2909 259.607 19.4429 259.607 20.7792ZM252.949 17.4154C252.273 17.4154 251.705 17.6074 251.244 17.9914C250.798 18.3754 250.514 18.8976 250.391 19.5581H255.506C255.383 18.8976 255.092 18.3754 254.631 17.9914C254.185 17.6074 253.625 17.4154 252.949 17.4154ZM261.971 9.90432H266.349V27H261.971V9.90432Z" fill="white"/>
<g filter="url(#filter2_d)">
<g filter="url(#filter3_d)">
<path d="M77.8008 236.318C77.8008 235.213 78.6962 234.318 79.8008 234.318H197.801C198.905 234.318 199.801 235.213 199.801 236.318V355.318C199.801 356.422 198.905 357.318 197.801 357.318H79.8008C78.6962 357.318 77.8008 356.422 77.8008 355.318V236.318Z" fill="#986AF3"/>
<path d="M79.8008 234.818H197.801C198.629 234.818 199.301 235.489 199.301 236.318V355.318C199.301 356.146 198.629 356.818 197.801 356.818H79.8008C78.9724 356.818 78.3008 356.146 78.3008 355.318V236.318C78.3008 235.489 78.9724 234.818 79.8008 234.818Z" stroke="#333333" stroke-opacity="0.1"/>
</g>
<rect x="77.8008" y="234.318" width="122" height="12" fill="white" fill-opacity="0.1"/>
</g>
<path d="M116.368 277.588V281.004H121.282V282.208H116.368V286.17H114.968V276.37H121.884V277.588H116.368ZM130.342 282.502C130.342 282.605 130.333 282.74 130.314 282.908H124.294C124.378 283.562 124.663 284.089 125.148 284.49C125.643 284.882 126.254 285.078 126.982 285.078C127.869 285.078 128.583 284.78 129.124 284.182L129.866 285.05C129.53 285.442 129.11 285.741 128.606 285.946C128.112 286.152 127.556 286.254 126.94 286.254C126.156 286.254 125.461 286.096 124.854 285.778C124.248 285.452 123.776 284.999 123.44 284.42C123.114 283.842 122.95 283.188 122.95 282.46C122.95 281.742 123.109 281.093 123.426 280.514C123.753 279.936 124.196 279.488 124.756 279.17C125.326 278.844 125.965 278.68 126.674 278.68C127.384 278.68 128.014 278.844 128.564 279.17C129.124 279.488 129.558 279.936 129.866 280.514C130.184 281.093 130.342 281.756 130.342 282.502ZM126.674 279.814C126.03 279.814 125.489 280.01 125.05 280.402C124.621 280.794 124.369 281.308 124.294 281.942H129.054C128.98 281.317 128.723 280.808 128.284 280.416C127.855 280.015 127.318 279.814 126.674 279.814ZM134.915 278.68C135.942 278.68 136.726 278.932 137.267 279.436C137.818 279.94 138.093 280.692 138.093 281.69V286.17H136.819V285.19C136.595 285.536 136.273 285.802 135.853 285.988C135.443 286.166 134.953 286.254 134.383 286.254C133.553 286.254 132.885 286.054 132.381 285.652C131.887 285.251 131.639 284.724 131.639 284.07C131.639 283.417 131.877 282.894 132.353 282.502C132.829 282.101 133.585 281.9 134.621 281.9H136.749V281.634C136.749 281.056 136.581 280.612 136.245 280.304C135.909 279.996 135.415 279.842 134.761 279.842C134.323 279.842 133.893 279.917 133.473 280.066C133.053 280.206 132.699 280.398 132.409 280.64L131.849 279.632C132.232 279.324 132.689 279.091 133.221 278.932C133.753 278.764 134.318 278.68 134.915 278.68ZM134.607 285.218C135.121 285.218 135.564 285.106 135.937 284.882C136.311 284.649 136.581 284.322 136.749 283.902V282.866H134.677C133.539 282.866 132.969 283.249 132.969 284.014C132.969 284.388 133.114 284.682 133.403 284.896C133.693 285.111 134.094 285.218 134.607 285.218ZM142.079 279.996C142.312 279.567 142.657 279.24 143.115 279.016C143.572 278.792 144.127 278.68 144.781 278.68V279.982C144.706 279.973 144.603 279.968 144.473 279.968C143.745 279.968 143.171 280.188 142.751 280.626C142.34 281.056 142.135 281.672 142.135 282.474V286.17H140.791V278.75H142.079V279.996ZM153.891 286.254C153.153 286.254 152.491 286.091 151.903 285.764C151.315 285.438 150.853 284.99 150.517 284.42C150.19 283.842 150.027 283.188 150.027 282.46C150.027 281.732 150.19 281.084 150.517 280.514C150.853 279.936 151.315 279.488 151.903 279.17C152.491 278.844 153.153 278.68 153.891 278.68C154.628 278.68 155.286 278.844 155.865 279.17C156.453 279.488 156.91 279.936 157.237 280.514C157.573 281.084 157.741 281.732 157.741 282.46C157.741 283.188 157.573 283.842 157.237 284.42C156.91 284.99 156.453 285.438 155.865 285.764C155.286 286.091 154.628 286.254 153.891 286.254ZM153.891 285.078C154.367 285.078 154.791 284.971 155.165 284.756C155.547 284.532 155.846 284.224 156.061 283.832C156.275 283.431 156.383 282.974 156.383 282.46C156.383 281.947 156.275 281.494 156.061 281.102C155.846 280.701 155.547 280.393 155.165 280.178C154.791 279.964 154.367 279.856 153.891 279.856C153.415 279.856 152.985 279.964 152.603 280.178C152.229 280.393 151.931 280.701 151.707 281.102C151.492 281.494 151.385 281.947 151.385 282.46C151.385 282.974 151.492 283.431 151.707 283.832C151.931 284.224 152.229 284.532 152.603 284.756C152.985 284.971 153.415 285.078 153.891 285.078ZM162.525 276.804C161.723 276.804 161.321 277.238 161.321 278.106V278.75H163.477V279.856H161.349V286.17H160.005V279.856H158.745V278.75H160.005V278.092C160.005 277.355 160.22 276.772 160.649 276.342C161.079 275.913 161.681 275.698 162.455 275.698C162.754 275.698 163.034 275.736 163.295 275.81C163.557 275.885 163.781 275.992 163.967 276.132L163.561 277.154C163.253 276.921 162.908 276.804 162.525 276.804ZM89.3754 298.782V309.17H88.0874V307.994C87.7887 308.405 87.4107 308.718 86.9534 308.932C86.4961 309.147 85.9921 309.254 85.4414 309.254C84.7227 309.254 84.0787 309.096 83.5094 308.778C82.9401 308.461 82.4921 308.018 82.1654 307.448C81.8481 306.87 81.6894 306.207 81.6894 305.46C81.6894 304.714 81.8481 304.056 82.1654 303.486C82.4921 302.917 82.9401 302.474 83.5094 302.156C84.0787 301.839 84.7227 301.68 85.4414 301.68C85.9734 301.68 86.4634 301.783 86.9114 301.988C87.3594 302.184 87.7327 302.478 88.0314 302.87V298.782H89.3754ZM85.5534 308.078C86.0201 308.078 86.4447 307.971 86.8274 307.756C87.2101 307.532 87.5087 307.224 87.7234 306.832C87.9381 306.431 88.0454 305.974 88.0454 305.46C88.0454 304.947 87.9381 304.494 87.7234 304.102C87.5087 303.701 87.2101 303.393 86.8274 303.178C86.4447 302.964 86.0201 302.856 85.5534 302.856C85.0774 302.856 84.6481 302.964 84.2654 303.178C83.8921 303.393 83.5934 303.701 83.3694 304.102C83.1547 304.494 83.0474 304.947 83.0474 305.46C83.0474 305.974 83.1547 306.431 83.3694 306.832C83.5934 307.224 83.8921 307.532 84.2654 307.756C84.6481 307.971 85.0774 308.078 85.5534 308.078ZM92.1284 301.75H93.4724V309.17H92.1284V301.75ZM92.8004 300.322C92.539 300.322 92.3197 300.238 92.1424 300.07C91.9744 299.902 91.8904 299.697 91.8904 299.454C91.8904 299.212 91.9744 299.006 92.1424 298.838C92.3197 298.661 92.539 298.572 92.8004 298.572C93.0617 298.572 93.2764 298.656 93.4444 298.824C93.6217 298.983 93.7104 299.184 93.7104 299.426C93.7104 299.678 93.6217 299.893 93.4444 300.07C93.2764 300.238 93.0617 300.322 92.8004 300.322ZM98.3765 309.254C97.7699 309.254 97.1865 309.175 96.6265 309.016C96.0665 308.848 95.6279 308.638 95.3105 308.386L95.8705 307.322C96.1972 307.556 96.5939 307.742 97.0605 307.882C97.5272 308.022 97.9985 308.092 98.4745 308.092C99.6505 308.092 100.239 307.756 100.239 307.084C100.239 306.86 100.159 306.683 100.001 306.552C99.8419 306.422 99.6412 306.328 99.3985 306.272C99.1652 306.207 98.8292 306.137 98.3905 306.062C97.7932 305.969 97.3032 305.862 96.9205 305.74C96.5472 305.619 96.2252 305.414 95.9545 305.124C95.6839 304.835 95.5485 304.429 95.5485 303.906C95.5485 303.234 95.8285 302.698 96.3885 302.296C96.9485 301.886 97.6999 301.68 98.6425 301.68C99.1372 301.68 99.6319 301.741 100.127 301.862C100.621 301.984 101.027 302.147 101.345 302.352L100.771 303.416C100.164 303.024 99.4499 302.828 98.6285 302.828C98.0592 302.828 97.6252 302.922 97.3265 303.108C97.0279 303.295 96.8785 303.542 96.8785 303.85C96.8785 304.093 96.9625 304.284 97.1305 304.424C97.2985 304.564 97.5039 304.667 97.7465 304.732C97.9985 304.798 98.3485 304.872 98.7965 304.956C99.3939 305.059 99.8745 305.171 100.239 305.292C100.612 305.404 100.929 305.6 101.191 305.88C101.452 306.16 101.583 306.552 101.583 307.056C101.583 307.728 101.293 308.265 100.715 308.666C100.145 309.058 99.3659 309.254 98.3765 309.254ZM105.6 309.254C104.994 309.254 104.41 309.175 103.85 309.016C103.29 308.848 102.852 308.638 102.534 308.386L103.094 307.322C103.421 307.556 103.818 307.742 104.284 307.882C104.751 308.022 105.222 308.092 105.698 308.092C106.874 308.092 107.462 307.756 107.462 307.084C107.462 306.86 107.383 306.683 107.224 306.552C107.066 306.422 106.865 306.328 106.622 306.272C106.389 306.207 106.053 306.137 105.614 306.062C105.017 305.969 104.527 305.862 104.144 305.74C103.771 305.619 103.449 305.414 103.178 305.124C102.908 304.835 102.772 304.429 102.772 303.906C102.772 303.234 103.052 302.698 103.612 302.296C104.172 301.886 104.924 301.68 105.866 301.68C106.361 301.68 106.856 301.741 107.35 301.862C107.845 301.984 108.251 302.147 108.568 302.352L107.994 303.416C107.388 303.024 106.674 302.828 105.852 302.828C105.283 302.828 104.849 302.922 104.55 303.108C104.252 303.295 104.102 303.542 104.102 303.85C104.102 304.093 104.186 304.284 104.354 304.424C104.522 304.564 104.728 304.667 104.97 304.732C105.222 304.798 105.572 304.872 106.02 304.956C106.618 305.059 107.098 305.171 107.462 305.292C107.836 305.404 108.153 305.6 108.414 305.88C108.676 306.16 108.806 306.552 108.806 307.056C108.806 307.728 108.517 308.265 107.938 308.666C107.369 309.058 106.59 309.254 105.6 309.254ZM113.398 301.68C114.425 301.68 115.209 301.932 115.75 302.436C116.301 302.94 116.576 303.692 116.576 304.69V309.17H115.302V308.19C115.078 308.536 114.756 308.802 114.336 308.988C113.925 309.166 113.435 309.254 112.866 309.254C112.035 309.254 111.368 309.054 110.864 308.652C110.369 308.251 110.122 307.724 110.122 307.07C110.122 306.417 110.36 305.894 110.836 305.502C111.312 305.101 112.068 304.9 113.104 304.9H115.232V304.634C115.232 304.056 115.064 303.612 114.728 303.304C114.392 302.996 113.897 302.842 113.244 302.842C112.805 302.842 112.376 302.917 111.956 303.066C111.536 303.206 111.181 303.398 110.892 303.64L110.332 302.632C110.715 302.324 111.172 302.091 111.704 301.932C112.236 301.764 112.801 301.68 113.398 301.68ZM113.09 308.218C113.603 308.218 114.047 308.106 114.42 307.882C114.793 307.649 115.064 307.322 115.232 306.902V305.866H113.16C112.021 305.866 111.452 306.249 111.452 307.014C111.452 307.388 111.597 307.682 111.886 307.896C112.175 308.111 112.577 308.218 113.09 308.218ZM123.207 301.68C123.926 301.68 124.57 301.839 125.139 302.156C125.708 302.474 126.152 302.917 126.469 303.486C126.796 304.056 126.959 304.714 126.959 305.46C126.959 306.207 126.796 306.87 126.469 307.448C126.152 308.018 125.708 308.461 125.139 308.778C124.57 309.096 123.926 309.254 123.207 309.254C122.675 309.254 122.185 309.152 121.737 308.946C121.298 308.741 120.925 308.442 120.617 308.05V311.886H119.273V301.75H120.561V302.926C120.86 302.516 121.238 302.208 121.695 302.002C122.152 301.788 122.656 301.68 123.207 301.68ZM123.095 308.078C123.571 308.078 123.996 307.971 124.369 307.756C124.752 307.532 125.05 307.224 125.265 306.832C125.489 306.431 125.601 305.974 125.601 305.46C125.601 304.947 125.489 304.494 125.265 304.102C125.05 303.701 124.752 303.393 124.369 303.178C123.996 302.964 123.571 302.856 123.095 302.856C122.628 302.856 122.204 302.968 121.821 303.192C121.448 303.407 121.149 303.71 120.925 304.102C120.71 304.494 120.603 304.947 120.603 305.46C120.603 305.974 120.71 306.431 120.925 306.832C121.14 307.224 121.438 307.532 121.821 307.756C122.204 307.971 122.628 308.078 123.095 308.078ZM132.204 309.254C131.467 309.254 130.804 309.091 130.216 308.764C129.628 308.438 129.166 307.99 128.83 307.42C128.503 306.842 128.34 306.188 128.34 305.46C128.34 304.732 128.503 304.084 128.83 303.514C129.166 302.936 129.628 302.488 130.216 302.17C130.804 301.844 131.467 301.68 132.204 301.68C132.941 301.68 133.599 301.844 134.178 302.17C134.766 302.488 135.223 302.936 135.55 303.514C135.886 304.084 136.054 304.732 136.054 305.46C136.054 306.188 135.886 306.842 135.55 307.42C135.223 307.99 134.766 308.438 134.178 308.764C133.599 309.091 132.941 309.254 132.204 309.254ZM132.204 308.078C132.68 308.078 133.105 307.971 133.478 307.756C133.861 307.532 134.159 307.224 134.374 306.832C134.589 306.431 134.696 305.974 134.696 305.46C134.696 304.947 134.589 304.494 134.374 304.102C134.159 303.701 133.861 303.393 133.478 303.178C133.105 302.964 132.68 302.856 132.204 302.856C131.728 302.856 131.299 302.964 130.916 303.178C130.543 303.393 130.244 303.701 130.02 304.102C129.805 304.494 129.698 304.947 129.698 305.46C129.698 305.974 129.805 306.431 130.02 306.832C130.244 307.224 130.543 307.532 130.916 307.756C131.299 307.971 131.728 308.078 132.204 308.078ZM138.123 301.75H139.467V309.17H138.123V301.75ZM138.795 300.322C138.533 300.322 138.314 300.238 138.137 300.07C137.969 299.902 137.885 299.697 137.885 299.454C137.885 299.212 137.969 299.006 138.137 298.838C138.314 298.661 138.533 298.572 138.795 298.572C139.056 298.572 139.271 298.656 139.439 298.824C139.616 298.983 139.705 299.184 139.705 299.426C139.705 299.678 139.616 299.893 139.439 300.07C139.271 300.238 139.056 300.322 138.795 300.322ZM146.205 301.68C147.148 301.68 147.894 301.956 148.445 302.506C149.005 303.048 149.285 303.846 149.285 304.9V309.17H147.941V305.054C147.941 304.336 147.768 303.794 147.423 303.43C147.078 303.066 146.583 302.884 145.939 302.884C145.211 302.884 144.637 303.099 144.217 303.528C143.797 303.948 143.587 304.555 143.587 305.348V309.17H142.243V301.75H143.531V302.87C143.802 302.488 144.166 302.194 144.623 301.988C145.09 301.783 145.617 301.68 146.205 301.68ZM156.154 308.736C155.958 308.904 155.716 309.035 155.426 309.128C155.137 309.212 154.838 309.254 154.53 309.254C153.784 309.254 153.205 309.054 152.794 308.652C152.384 308.251 152.178 307.677 152.178 306.93V302.856H150.918V301.75H152.178V300.126H153.522V301.75H155.65V302.856H153.522V306.874C153.522 307.276 153.62 307.584 153.816 307.798C154.022 308.013 154.311 308.12 154.684 308.12C155.095 308.12 155.445 308.004 155.734 307.77L156.154 308.736ZM167.271 301.68C168.204 301.68 168.942 301.951 169.483 302.492C170.034 303.034 170.309 303.836 170.309 304.9V309.17H168.965V305.054C168.965 304.336 168.797 303.794 168.461 303.43C168.134 303.066 167.663 302.884 167.047 302.884C166.366 302.884 165.824 303.099 165.423 303.528C165.022 303.948 164.821 304.555 164.821 305.348V309.17H163.477V305.054C163.477 304.336 163.309 303.794 162.973 303.43C162.646 303.066 162.175 302.884 161.559 302.884C160.878 302.884 160.336 303.099 159.935 303.528C159.534 303.948 159.333 304.555 159.333 305.348V309.17H157.989V301.75H159.277V302.856C159.548 302.474 159.902 302.184 160.341 301.988C160.78 301.783 161.279 301.68 161.839 301.68C162.418 301.68 162.931 301.797 163.379 302.03C163.827 302.264 164.172 302.604 164.415 303.052C164.695 302.623 165.082 302.287 165.577 302.044C166.081 301.802 166.646 301.68 167.271 301.68ZM179.739 305.502C179.739 305.605 179.73 305.74 179.711 305.908H173.691C173.775 306.562 174.06 307.089 174.545 307.49C175.04 307.882 175.651 308.078 176.379 308.078C177.266 308.078 177.98 307.78 178.521 307.182L179.263 308.05C178.927 308.442 178.507 308.741 178.003 308.946C177.508 309.152 176.953 309.254 176.337 309.254C175.553 309.254 174.858 309.096 174.251 308.778C173.644 308.452 173.173 307.999 172.837 307.42C172.51 306.842 172.347 306.188 172.347 305.46C172.347 304.742 172.506 304.093 172.823 303.514C173.15 302.936 173.593 302.488 174.153 302.17C174.722 301.844 175.362 301.68 176.071 301.68C176.78 301.68 177.41 301.844 177.961 302.17C178.521 302.488 178.955 302.936 179.263 303.514C179.58 304.093 179.739 304.756 179.739 305.502ZM176.071 302.814C175.427 302.814 174.886 303.01 174.447 303.402C174.018 303.794 173.766 304.308 173.691 304.942H178.451C178.376 304.317 178.12 303.808 177.681 303.416C177.252 303.015 176.715 302.814 176.071 302.814ZM185.777 301.68C186.72 301.68 187.467 301.956 188.017 302.506C188.577 303.048 188.857 303.846 188.857 304.9V309.17H187.513V305.054C187.513 304.336 187.341 303.794 186.995 303.43C186.65 303.066 186.155 302.884 185.511 302.884C184.783 302.884 184.209 303.099 183.789 303.528C183.369 303.948 183.159 304.555 183.159 305.348V309.17H181.815V301.75H183.103V302.87C183.374 302.488 183.738 302.194 184.195 301.988C184.662 301.783 185.189 301.68 185.777 301.68ZM195.727 308.736C195.531 308.904 195.288 309.035 194.999 309.128C194.709 309.212 194.411 309.254 194.103 309.254C193.356 309.254 192.777 309.054 192.367 308.652C191.956 308.251 191.751 307.677 191.751 306.93V302.856H190.491V301.75H191.751V300.126H193.095V301.75H195.223V302.856H193.095V306.874C193.095 307.276 193.193 307.584 193.389 307.798C193.594 308.013 193.883 308.12 194.257 308.12C194.667 308.12 195.017 308.004 195.307 307.77L195.727 308.736Z" fill="white"/>
<path d="M120.405 137.37V147.17H119.257L113.377 139.862V147.17H111.977V137.37H113.125L119.005 144.678V137.37H120.405ZM126.53 147.254C125.793 147.254 125.13 147.091 124.542 146.764C123.954 146.437 123.492 145.989 123.156 145.42C122.83 144.841 122.666 144.188 122.666 143.46C122.666 142.732 122.83 142.083 123.156 141.514C123.492 140.935 123.954 140.487 124.542 140.17C125.13 139.843 125.793 139.68 126.53 139.68C127.268 139.68 127.926 139.843 128.504 140.17C129.092 140.487 129.55 140.935 129.876 141.514C130.212 142.083 130.38 142.732 130.38 143.46C130.38 144.188 130.212 144.841 129.876 145.42C129.55 145.989 129.092 146.437 128.504 146.764C127.926 147.091 127.268 147.254 126.53 147.254ZM126.53 146.078C127.006 146.078 127.431 145.971 127.804 145.756C128.187 145.532 128.486 145.224 128.7 144.832C128.915 144.431 129.022 143.973 129.022 143.46C129.022 142.947 128.915 142.494 128.7 142.102C128.486 141.701 128.187 141.393 127.804 141.178C127.431 140.963 127.006 140.856 126.53 140.856C126.054 140.856 125.625 140.963 125.242 141.178C124.869 141.393 124.57 141.701 124.346 142.102C124.132 142.494 124.024 142.947 124.024 143.46C124.024 143.973 124.132 144.431 124.346 144.832C124.57 145.224 124.869 145.532 125.242 145.756C125.625 145.971 126.054 146.078 126.53 146.078ZM136.621 146.736C136.425 146.904 136.182 147.035 135.893 147.128C135.604 147.212 135.305 147.254 134.997 147.254C134.25 147.254 133.672 147.053 133.261 146.652C132.85 146.251 132.645 145.677 132.645 144.93V140.856H131.385V139.75H132.645V138.126H133.989V139.75H136.117V140.856H133.989V144.874C133.989 145.275 134.087 145.583 134.283 145.798C134.488 146.013 134.778 146.12 135.151 146.12C135.562 146.12 135.912 146.003 136.201 145.77L136.621 146.736ZM144.554 147.254C143.947 147.254 143.364 147.175 142.804 147.016C142.244 146.848 141.805 146.638 141.488 146.386L142.048 145.322C142.374 145.555 142.771 145.742 143.238 145.882C143.704 146.022 144.176 146.092 144.652 146.092C145.828 146.092 146.416 145.756 146.416 145.084C146.416 144.86 146.336 144.683 146.178 144.552C146.019 144.421 145.818 144.328 145.576 144.272C145.342 144.207 145.006 144.137 144.568 144.062C143.97 143.969 143.48 143.861 143.098 143.74C142.724 143.619 142.402 143.413 142.132 143.124C141.861 142.835 141.726 142.429 141.726 141.906C141.726 141.234 142.006 140.697 142.566 140.296C143.126 139.885 143.877 139.68 144.82 139.68C145.314 139.68 145.809 139.741 146.304 139.862C146.798 139.983 147.204 140.147 147.522 140.352L146.948 141.416C146.341 141.024 145.627 140.828 144.806 140.828C144.236 140.828 143.802 140.921 143.504 141.108C143.205 141.295 143.056 141.542 143.056 141.85C143.056 142.093 143.14 142.284 143.308 142.424C143.476 142.564 143.681 142.667 143.924 142.732C144.176 142.797 144.526 142.872 144.974 142.956C145.571 143.059 146.052 143.171 146.416 143.292C146.789 143.404 147.106 143.6 147.368 143.88C147.629 144.16 147.76 144.552 147.76 145.056C147.76 145.728 147.47 146.265 146.892 146.666C146.322 147.058 145.543 147.254 144.554 147.254ZM156.565 139.75V147.17H155.291V146.05C155.021 146.433 154.661 146.731 154.213 146.946C153.775 147.151 153.294 147.254 152.771 147.254C151.782 147.254 151.003 146.983 150.433 146.442C149.864 145.891 149.579 145.084 149.579 144.02V139.75H150.923V143.866C150.923 144.585 151.096 145.131 151.441 145.504C151.787 145.868 152.281 146.05 152.925 146.05C153.635 146.05 154.195 145.835 154.605 145.406C155.016 144.977 155.221 144.37 155.221 143.586V139.75H156.565ZM160.622 140.996C160.855 140.567 161.201 140.24 161.658 140.016C162.115 139.792 162.671 139.68 163.324 139.68V140.982C163.249 140.973 163.147 140.968 163.016 140.968C162.288 140.968 161.714 141.187 161.294 141.626C160.883 142.055 160.678 142.671 160.678 143.474V147.17H159.334V139.75H160.622V140.996ZM171.828 143.502C171.828 143.605 171.819 143.74 171.8 143.908H165.78C165.864 144.561 166.149 145.089 166.634 145.49C167.129 145.882 167.74 146.078 168.468 146.078C169.355 146.078 170.069 145.779 170.61 145.182L171.352 146.05C171.016 146.442 170.596 146.741 170.092 146.946C169.597 147.151 169.042 147.254 168.426 147.254C167.642 147.254 166.947 147.095 166.34 146.778C165.733 146.451 165.262 145.999 164.926 145.42C164.599 144.841 164.436 144.188 164.436 143.46C164.436 142.741 164.595 142.093 164.912 141.514C165.239 140.935 165.682 140.487 166.242 140.17C166.811 139.843 167.451 139.68 168.16 139.68C168.869 139.68 169.499 139.843 170.05 140.17C170.61 140.487 171.044 140.935 171.352 141.514C171.669 142.093 171.828 142.755 171.828 143.502ZM168.16 140.814C167.516 140.814 166.975 141.01 166.536 141.402C166.107 141.794 165.855 142.307 165.78 142.942H170.54C170.465 142.317 170.209 141.808 169.77 141.416C169.341 141.015 168.804 140.814 168.16 140.814ZM110.323 162.75L107.551 170.17H106.263L104.121 164.542L101.951 170.17H100.663L97.9054 162.75H99.1794L101.335 168.658L103.575 162.75H104.709L106.907 168.686L109.119 162.75H110.323ZM115.859 162.68C116.802 162.68 117.549 162.955 118.099 163.506C118.659 164.047 118.939 164.845 118.939 165.9V170.17H117.595V166.054C117.595 165.335 117.423 164.794 117.077 164.43C116.732 164.066 116.237 163.884 115.593 163.884C114.865 163.884 114.291 164.099 113.871 164.528C113.451 164.948 113.241 165.555 113.241 166.348V170.17H111.897V159.782H113.241V163.8C113.521 163.445 113.885 163.17 114.333 162.974C114.791 162.778 115.299 162.68 115.859 162.68ZM128.384 166.502C128.384 166.605 128.374 166.74 128.356 166.908H122.336C122.42 167.561 122.704 168.089 123.19 168.49C123.684 168.882 124.296 169.078 125.024 169.078C125.91 169.078 126.624 168.779 127.166 168.182L127.908 169.05C127.572 169.442 127.152 169.741 126.648 169.946C126.153 170.151 125.598 170.254 124.982 170.254C124.198 170.254 123.502 170.095 122.896 169.778C122.289 169.451 121.818 168.999 121.482 168.42C121.155 167.841 120.992 167.188 120.992 166.46C120.992 165.741 121.15 165.093 121.468 164.514C121.794 163.935 122.238 163.487 122.798 163.17C123.367 162.843 124.006 162.68 124.716 162.68C125.425 162.68 126.055 162.843 126.606 163.17C127.166 163.487 127.6 163.935 127.908 164.514C128.225 165.093 128.384 165.755 128.384 166.502ZM124.716 163.814C124.072 163.814 123.53 164.01 123.092 164.402C122.662 164.794 122.41 165.307 122.336 165.942H127.096C127.021 165.317 126.764 164.808 126.326 164.416C125.896 164.015 125.36 163.814 124.716 163.814ZM131.748 163.996C131.981 163.567 132.326 163.24 132.784 163.016C133.241 162.792 133.796 162.68 134.45 162.68V163.982C134.375 163.973 134.272 163.968 134.142 163.968C133.414 163.968 132.84 164.187 132.42 164.626C132.009 165.055 131.804 165.671 131.804 166.474V170.17H130.46V162.75H131.748V163.996ZM142.954 166.502C142.954 166.605 142.945 166.74 142.926 166.908H136.906C136.99 167.561 137.275 168.089 137.76 168.49C138.255 168.882 138.866 169.078 139.594 169.078C140.481 169.078 141.195 168.779 141.736 168.182L142.478 169.05C142.142 169.442 141.722 169.741 141.218 169.946C140.723 170.151 140.168 170.254 139.552 170.254C138.768 170.254 138.073 170.095 137.466 169.778C136.859 169.451 136.388 168.999 136.052 168.42C135.725 167.841 135.562 167.188 135.562 166.46C135.562 165.741 135.721 165.093 136.038 164.514C136.365 163.935 136.808 163.487 137.368 163.17C137.937 162.843 138.577 162.68 139.286 162.68C139.995 162.68 140.625 162.843 141.176 163.17C141.736 163.487 142.17 163.935 142.478 164.514C142.795 165.093 142.954 165.755 142.954 166.502ZM139.286 163.814C138.642 163.814 138.101 164.01 137.662 164.402C137.233 164.794 136.981 165.307 136.906 165.942H141.666C141.591 165.317 141.335 164.808 140.896 164.416C140.467 164.015 139.93 163.814 139.286 163.814ZM153.172 169.736C152.976 169.904 152.733 170.035 152.444 170.128C152.155 170.212 151.856 170.254 151.548 170.254C150.801 170.254 150.223 170.053 149.812 169.652C149.401 169.251 149.196 168.677 149.196 167.93V163.856H147.936V162.75H149.196V161.126H150.54V162.75H152.668V163.856H150.54V167.874C150.54 168.275 150.638 168.583 150.834 168.798C151.039 169.013 151.329 169.12 151.702 169.12C152.113 169.12 152.463 169.003 152.752 168.77L153.172 169.736ZM157.939 170.254C157.201 170.254 156.539 170.091 155.951 169.764C155.363 169.437 154.901 168.989 154.565 168.42C154.238 167.841 154.075 167.188 154.075 166.46C154.075 165.732 154.238 165.083 154.565 164.514C154.901 163.935 155.363 163.487 155.951 163.17C156.539 162.843 157.201 162.68 157.939 162.68C158.676 162.68 159.334 162.843 159.913 163.17C160.501 163.487 160.958 163.935 161.285 164.514C161.621 165.083 161.789 165.732 161.789 166.46C161.789 167.188 161.621 167.841 161.285 168.42C160.958 168.989 160.501 169.437 159.913 169.764C159.334 170.091 158.676 170.254 157.939 170.254ZM157.939 169.078C158.415 169.078 158.839 168.971 159.213 168.756C159.595 168.532 159.894 168.224 160.109 167.832C160.323 167.431 160.431 166.973 160.431 166.46C160.431 165.947 160.323 165.494 160.109 165.102C159.894 164.701 159.595 164.393 159.213 164.178C158.839 163.963 158.415 163.856 157.939 163.856C157.463 163.856 157.033 163.963 156.651 164.178C156.277 164.393 155.979 164.701 155.755 165.102C155.54 165.494 155.433 165.947 155.433 166.46C155.433 166.973 155.54 167.431 155.755 167.832C155.979 168.224 156.277 168.532 156.651 168.756C157.033 168.971 157.463 169.078 157.939 169.078ZM174.925 162.75V169.162C174.925 170.459 174.603 171.416 173.959 172.032C173.315 172.657 172.354 172.97 171.075 172.97C170.375 172.97 169.708 172.872 169.073 172.676C168.439 172.489 167.925 172.219 167.533 171.864L168.177 170.828C168.523 171.127 168.947 171.36 169.451 171.528C169.965 171.705 170.492 171.794 171.033 171.794C171.901 171.794 172.541 171.589 172.951 171.178C173.371 170.767 173.581 170.142 173.581 169.302V168.714C173.264 169.097 172.872 169.386 172.405 169.582C171.948 169.769 171.449 169.862 170.907 169.862C170.198 169.862 169.554 169.713 168.975 169.414C168.406 169.106 167.958 168.681 167.631 168.14C167.305 167.589 167.141 166.964 167.141 166.264C167.141 165.564 167.305 164.943 167.631 164.402C167.958 163.851 168.406 163.427 168.975 163.128C169.554 162.829 170.198 162.68 170.907 162.68C171.467 162.68 171.985 162.783 172.461 162.988C172.947 163.193 173.343 163.497 173.651 163.898V162.75H174.925ZM171.061 168.686C171.547 168.686 171.981 168.583 172.363 168.378C172.755 168.173 173.059 167.888 173.273 167.524C173.497 167.151 173.609 166.731 173.609 166.264C173.609 165.545 173.371 164.967 172.895 164.528C172.419 164.08 171.808 163.856 171.061 163.856C170.305 163.856 169.689 164.08 169.213 164.528C168.737 164.967 168.499 165.545 168.499 166.264C168.499 166.731 168.607 167.151 168.821 167.524C169.045 167.888 169.349 168.173 169.731 168.378C170.123 168.583 170.567 168.686 171.061 168.686ZM180.881 170.254C180.144 170.254 179.481 170.091 178.893 169.764C178.305 169.437 177.843 168.989 177.507 168.42C177.181 167.841 177.017 167.188 177.017 166.46C177.017 165.732 177.181 165.083 177.507 164.514C177.843 163.935 178.305 163.487 178.893 163.17C179.481 162.843 180.144 162.68 180.881 162.68C181.619 162.68 182.277 162.843 182.855 163.17C183.443 163.487 183.901 163.935 184.227 164.514C184.563 165.083 184.731 165.732 184.731 166.46C184.731 167.188 184.563 167.841 184.227 168.42C183.901 168.989 183.443 169.437 182.855 169.764C182.277 170.091 181.619 170.254 180.881 170.254ZM180.881 169.078C181.357 169.078 181.782 168.971 182.155 168.756C182.538 168.532 182.837 168.224 183.051 167.832C183.266 167.431 183.373 166.973 183.373 166.46C183.373 165.947 183.266 165.494 183.051 165.102C182.837 164.701 182.538 164.393 182.155 164.178C181.782 163.963 181.357 163.856 180.881 163.856C180.405 163.856 179.976 163.963 179.593 164.178C179.22 164.393 178.921 164.701 178.697 165.102C178.483 165.494 178.375 165.947 178.375 166.46C178.375 166.973 178.483 167.431 178.697 167.832C178.921 168.224 179.22 168.532 179.593 168.756C179.976 168.971 180.405 169.078 180.881 169.078Z" fill="white"/>
<g filter="url(#filter4_d)">
<g filter="url(#filter5_d)">
<path d="M233.512 236.317C233.512 235.213 234.407 234.317 235.512 234.317H353.512C354.616 234.317 355.512 235.213 355.512 236.317V355.317C355.512 356.422 354.616 357.317 353.512 357.317H235.512C234.407 357.317 233.512 356.422 233.512 355.317V236.317Z" fill="#986AF3"/>
<path d="M235.512 234.817H353.512C354.34 234.817 355.012 235.489 355.012 236.317V355.317C355.012 356.146 354.34 356.817 353.512 356.817H235.512C234.683 356.817 234.012 356.146 234.012 355.317V236.317C234.012 235.489 234.683 234.817 235.512 234.817Z" stroke="#333333" stroke-opacity="0.1"/>
</g>
<rect x="233.512" y="234.317" width="122" height="12" fill="white" fill-opacity="0.1"/>
</g>
<path d="M258.479 282.109C259.748 282.109 260.747 282.413 261.475 283.019C262.203 283.626 262.567 284.461 262.567 285.525C262.567 286.589 262.203 287.425 261.475 288.031C260.747 288.638 259.748 288.941 258.479 288.941H256.057V291.909H254.657V282.109H258.479ZM258.437 287.723C259.324 287.723 260 287.537 260.467 287.163C260.934 286.781 261.167 286.235 261.167 285.525C261.167 284.816 260.934 284.275 260.467 283.901C260 283.519 259.324 283.327 258.437 283.327H256.057V287.723H258.437ZM265.803 285.735C266.036 285.306 266.381 284.979 266.839 284.755C267.296 284.531 267.851 284.419 268.505 284.419V285.721C268.43 285.712 268.327 285.707 268.197 285.707C267.469 285.707 266.895 285.927 266.475 286.365C266.064 286.795 265.859 287.411 265.859 288.213V291.909H264.515V284.489H265.803V285.735ZM277.009 288.241C277.009 288.344 277 288.479 276.981 288.647H270.961C271.045 289.301 271.33 289.828 271.815 290.229C272.31 290.621 272.921 290.817 273.649 290.817C274.536 290.817 275.25 290.519 275.791 289.921L276.533 290.789C276.197 291.181 275.777 291.48 275.273 291.685C274.778 291.891 274.223 291.993 273.607 291.993C272.823 291.993 272.128 291.835 271.521 291.517C270.914 291.191 270.443 290.738 270.107 290.159C269.78 289.581 269.617 288.927 269.617 288.199C269.617 287.481 269.776 286.832 270.093 286.253C270.42 285.675 270.863 285.227 271.423 284.909C271.992 284.583 272.632 284.419 273.341 284.419C274.05 284.419 274.68 284.583 275.231 284.909C275.791 285.227 276.225 285.675 276.533 286.253C276.85 286.832 277.009 287.495 277.009 288.241ZM273.341 285.553C272.697 285.553 272.156 285.749 271.717 286.141C271.288 286.533 271.036 287.047 270.961 287.681H275.721C275.646 287.056 275.39 286.547 274.951 286.155C274.522 285.754 273.985 285.553 273.341 285.553ZM281.213 291.993C280.606 291.993 280.023 291.914 279.463 291.755C278.903 291.587 278.464 291.377 278.147 291.125L278.707 290.061C279.034 290.295 279.43 290.481 279.897 290.621C280.364 290.761 280.835 290.831 281.311 290.831C282.487 290.831 283.075 290.495 283.075 289.823C283.075 289.599 282.996 289.422 282.837 289.291C282.678 289.161 282.478 289.067 282.235 289.011C282.002 288.946 281.666 288.876 281.227 288.801C280.63 288.708 280.14 288.601 279.757 288.479C279.384 288.358 279.062 288.153 278.791 287.863C278.52 287.574 278.385 287.168 278.385 286.645C278.385 285.973 278.665 285.437 279.225 285.035C279.785 284.625 280.536 284.419 281.479 284.419C281.974 284.419 282.468 284.48 282.963 284.601C283.458 284.723 283.864 284.886 284.181 285.091L283.607 286.155C283 285.763 282.286 285.567 281.465 285.567C280.896 285.567 280.462 285.661 280.163 285.847C279.864 286.034 279.715 286.281 279.715 286.589C279.715 286.832 279.799 287.023 279.967 287.163C280.135 287.303 280.34 287.406 280.583 287.471C280.835 287.537 281.185 287.611 281.633 287.695C282.23 287.798 282.711 287.91 283.075 288.031C283.448 288.143 283.766 288.339 284.027 288.619C284.288 288.899 284.419 289.291 284.419 289.795C284.419 290.467 284.13 291.004 283.551 291.405C282.982 291.797 282.202 291.993 281.213 291.993ZM288.437 291.993C287.83 291.993 287.247 291.914 286.687 291.755C286.127 291.587 285.688 291.377 285.371 291.125L285.931 290.061C286.257 290.295 286.654 290.481 287.121 290.621C287.587 290.761 288.059 290.831 288.535 290.831C289.711 290.831 290.299 290.495 290.299 289.823C290.299 289.599 290.219 289.422 290.061 289.291C289.902 289.161 289.701 289.067 289.459 289.011C289.225 288.946 288.889 288.876 288.451 288.801C287.853 288.708 287.363 288.601 286.981 288.479C286.607 288.358 286.285 288.153 286.015 287.863C285.744 287.574 285.609 287.168 285.609 286.645C285.609 285.973 285.889 285.437 286.449 285.035C287.009 284.625 287.76 284.419 288.703 284.419C289.197 284.419 289.692 284.48 290.187 284.601C290.681 284.723 291.087 284.886 291.405 285.091L290.831 286.155C290.224 285.763 289.51 285.567 288.689 285.567C288.119 285.567 287.685 285.661 287.387 285.847C287.088 286.034 286.939 286.281 286.939 286.589C286.939 286.832 287.023 287.023 287.191 287.163C287.359 287.303 287.564 287.406 287.807 287.471C288.059 287.537 288.409 287.611 288.857 287.695C289.454 287.798 289.935 287.91 290.299 288.031C290.672 288.143 290.989 288.339 291.251 288.619C291.512 288.899 291.643 289.291 291.643 289.795C291.643 290.467 291.353 291.004 290.775 291.405C290.205 291.797 289.426 291.993 288.437 291.993ZM300.238 288.241C300.238 288.344 300.229 288.479 300.21 288.647H294.19C294.274 289.301 294.559 289.828 295.044 290.229C295.539 290.621 296.15 290.817 296.878 290.817C297.765 290.817 298.479 290.519 299.02 289.921L299.762 290.789C299.426 291.181 299.006 291.48 298.502 291.685C298.008 291.891 297.452 291.993 296.836 291.993C296.052 291.993 295.357 291.835 294.75 291.517C294.144 291.191 293.672 290.738 293.336 290.159C293.01 289.581 292.846 288.927 292.846 288.199C292.846 287.481 293.005 286.832 293.322 286.253C293.649 285.675 294.092 285.227 294.652 284.909C295.222 284.583 295.861 284.419 296.57 284.419C297.28 284.419 297.91 284.583 298.46 284.909C299.02 285.227 299.454 285.675 299.762 286.253C300.08 286.832 300.238 287.495 300.238 288.241ZM296.57 285.553C295.926 285.553 295.385 285.749 294.946 286.141C294.517 286.533 294.265 287.047 294.19 287.681H298.95C298.876 287.056 298.619 286.547 298.18 286.155C297.751 285.754 297.214 285.553 296.57 285.553ZM309.315 281.521V291.909H308.027V290.733C307.728 291.144 307.35 291.457 306.893 291.671C306.435 291.886 305.931 291.993 305.381 291.993C304.662 291.993 304.018 291.835 303.449 291.517C302.879 291.2 302.431 290.757 302.105 290.187C301.787 289.609 301.629 288.946 301.629 288.199C301.629 287.453 301.787 286.795 302.105 286.225C302.431 285.656 302.879 285.213 303.449 284.895C304.018 284.578 304.662 284.419 305.381 284.419C305.913 284.419 306.403 284.522 306.851 284.727C307.299 284.923 307.672 285.217 307.971 285.609V281.521H309.315ZM305.493 290.817C305.959 290.817 306.384 290.71 306.767 290.495C307.149 290.271 307.448 289.963 307.663 289.571C307.877 289.17 307.985 288.713 307.985 288.199C307.985 287.686 307.877 287.233 307.663 286.841C307.448 286.44 307.149 286.132 306.767 285.917C306.384 285.703 305.959 285.595 305.493 285.595C305.017 285.595 304.587 285.703 304.205 285.917C303.831 286.132 303.533 286.44 303.309 286.841C303.094 287.233 302.987 287.686 302.987 288.199C302.987 288.713 303.094 289.17 303.309 289.571C303.533 289.963 303.831 290.271 304.205 290.495C304.587 290.71 305.017 290.817 305.493 290.817ZM318.753 282.543C317.951 282.543 317.549 282.977 317.549 283.845V284.489H319.705V285.595H317.577V291.909H316.233V285.595H314.973V284.489H316.233V283.831C316.233 283.094 316.448 282.511 316.877 282.081C317.307 281.652 317.909 281.437 318.683 281.437C318.982 281.437 319.262 281.475 319.523 281.549C319.785 281.624 320.009 281.731 320.195 281.871L319.789 282.893C319.481 282.66 319.136 282.543 318.753 282.543ZM324.252 291.993C323.514 291.993 322.852 291.83 322.264 291.503C321.676 291.177 321.214 290.729 320.878 290.159C320.551 289.581 320.388 288.927 320.388 288.199C320.388 287.471 320.551 286.823 320.878 286.253C321.214 285.675 321.676 285.227 322.264 284.909C322.852 284.583 323.514 284.419 324.252 284.419C324.989 284.419 325.647 284.583 326.226 284.909C326.814 285.227 327.271 285.675 327.598 286.253C327.934 286.823 328.102 287.471 328.102 288.199C328.102 288.927 327.934 289.581 327.598 290.159C327.271 290.729 326.814 291.177 326.226 291.503C325.647 291.83 324.989 291.993 324.252 291.993ZM324.252 290.817C324.728 290.817 325.152 290.71 325.526 290.495C325.908 290.271 326.207 289.963 326.422 289.571C326.636 289.17 326.744 288.713 326.744 288.199C326.744 287.686 326.636 287.233 326.422 286.841C326.207 286.44 325.908 286.132 325.526 285.917C325.152 285.703 324.728 285.595 324.252 285.595C323.776 285.595 323.346 285.703 322.964 285.917C322.59 286.132 322.292 286.44 322.068 286.841C321.853 287.233 321.746 287.686 321.746 288.199C321.746 288.713 321.853 289.17 322.068 289.571C322.292 289.963 322.59 290.271 322.964 290.495C323.346 290.71 323.776 290.817 324.252 290.817ZM331.458 285.735C331.692 285.306 332.037 284.979 332.494 284.755C332.952 284.531 333.507 284.419 334.16 284.419V285.721C334.086 285.712 333.983 285.707 333.852 285.707C333.124 285.707 332.55 285.927 332.13 286.365C331.72 286.795 331.514 287.411 331.514 288.213V291.909H330.17V284.489H331.458V285.735ZM282.487 314.475C282.291 314.643 282.048 314.774 281.759 314.867C281.47 314.951 281.171 314.993 280.863 314.993C280.116 314.993 279.538 314.793 279.127 314.391C278.716 313.99 278.511 313.416 278.511 312.669V308.595H277.251V307.489H278.511V305.865H279.855V307.489H281.983V308.595H279.855V312.613C279.855 313.015 279.953 313.323 280.149 313.537C280.354 313.752 280.644 313.859 281.017 313.859C281.428 313.859 281.778 313.743 282.067 313.509L282.487 314.475ZM284.322 307.489H285.666V314.909H284.322V307.489ZM284.994 306.061C284.733 306.061 284.513 305.977 284.336 305.809C284.168 305.641 284.084 305.436 284.084 305.193C284.084 304.951 284.168 304.745 284.336 304.577C284.513 304.4 284.733 304.311 284.994 304.311C285.255 304.311 285.47 304.395 285.638 304.563C285.815 304.722 285.904 304.923 285.904 305.165C285.904 305.417 285.815 305.632 285.638 305.809C285.47 305.977 285.255 306.061 284.994 306.061ZM297.724 307.419C298.657 307.419 299.395 307.69 299.936 308.231C300.487 308.773 300.762 309.575 300.762 310.639V314.909H299.418V310.793C299.418 310.075 299.25 309.533 298.914 309.169C298.587 308.805 298.116 308.623 297.5 308.623C296.819 308.623 296.277 308.838 295.876 309.267C295.475 309.687 295.274 310.294 295.274 311.087V314.909H293.93V310.793C293.93 310.075 293.762 309.533 293.426 309.169C293.099 308.805 292.628 308.623 292.012 308.623C291.331 308.623 290.789 308.838 290.388 309.267C289.987 309.687 289.786 310.294 289.786 311.087V314.909H288.442V307.489H289.73V308.595C290.001 308.213 290.355 307.923 290.794 307.727C291.233 307.522 291.732 307.419 292.292 307.419C292.871 307.419 293.384 307.536 293.832 307.769C294.28 308.003 294.625 308.343 294.868 308.791C295.148 308.362 295.535 308.026 296.03 307.783C296.534 307.541 297.099 307.419 297.724 307.419ZM310.192 311.241C310.192 311.344 310.183 311.479 310.164 311.647H304.144C304.228 312.301 304.513 312.828 304.998 313.229C305.493 313.621 306.104 313.817 306.832 313.817C307.719 313.817 308.433 313.519 308.974 312.921L309.716 313.789C309.38 314.181 308.96 314.48 308.456 314.685C307.961 314.891 307.406 314.993 306.79 314.993C306.006 314.993 305.311 314.835 304.704 314.517C304.097 314.191 303.626 313.738 303.29 313.159C302.963 312.581 302.8 311.927 302.8 311.199C302.8 310.481 302.959 309.832 303.276 309.253C303.603 308.675 304.046 308.227 304.606 307.909C305.175 307.583 305.815 307.419 306.524 307.419C307.233 307.419 307.863 307.583 308.414 307.909C308.974 308.227 309.408 308.675 309.716 309.253C310.033 309.832 310.192 310.495 310.192 311.241ZM306.524 308.553C305.88 308.553 305.339 308.749 304.9 309.141C304.471 309.533 304.219 310.047 304.144 310.681H308.904C308.829 310.056 308.573 309.547 308.134 309.155C307.705 308.754 307.168 308.553 306.524 308.553Z" fill="white"/>
<g filter="url(#filter6_d)">
<g filter="url(#filter7_d)">
<path d="M233.512 89.499C233.512 88.3945 234.407 87.499 235.512 87.499H353.512C354.616 87.499 355.512 88.3945 355.512 89.499V208.499C355.512 209.604 354.616 210.499 353.512 210.499H235.512C234.407 210.499 233.512 209.604 233.512 208.499V89.499Z" fill="#986AF3"/>
<path d="M235.512 87.999H353.512C354.34 87.999 355.012 88.6706 355.012 89.499V208.499C355.012 209.327 354.34 209.999 353.512 209.999H235.512C234.683 209.999 234.012 209.327 234.012 208.499V89.499C234.012 88.6706 234.683 87.999 235.512 87.999Z" stroke="#333333" stroke-opacity="0.1"/>
</g>
<rect x="233.512" y="87.499" width="122" height="12" fill="white" fill-opacity="0.1"/>
</g>
<path d="M256.377 127.37V137.17H255.229L249.349 129.862V137.17H247.949V127.37H249.097L254.977 134.678V127.37H256.377ZM266.03 133.502C266.03 133.605 266.021 133.74 266.002 133.908H259.982C260.066 134.561 260.351 135.089 260.836 135.49C261.331 135.882 261.942 136.078 262.67 136.078C263.557 136.078 264.271 135.779 264.812 135.182L265.554 136.05C265.218 136.442 264.798 136.741 264.294 136.946C263.799 137.151 263.244 137.254 262.628 137.254C261.844 137.254 261.149 137.095 260.542 136.778C259.935 136.451 259.464 135.999 259.128 135.42C258.801 134.841 258.638 134.188 258.638 133.46C258.638 132.741 258.797 132.093 259.114 131.514C259.441 130.935 259.884 130.487 260.444 130.17C261.013 129.843 261.653 129.68 262.362 129.68C263.071 129.68 263.701 129.843 264.252 130.17C264.812 130.487 265.246 130.935 265.554 131.514C265.871 132.093 266.03 132.755 266.03 133.502ZM262.362 130.814C261.718 130.814 261.177 131.01 260.738 131.402C260.309 131.794 260.057 132.307 259.982 132.942H264.742C264.667 132.317 264.411 131.808 263.972 131.416C263.543 131.015 263.006 130.814 262.362 130.814ZM274.812 133.502C274.812 133.605 274.803 133.74 274.784 133.908H268.764C268.848 134.561 269.133 135.089 269.618 135.49C270.113 135.882 270.724 136.078 271.452 136.078C272.339 136.078 273.053 135.779 273.594 135.182L274.336 136.05C274 136.442 273.58 136.741 273.076 136.946C272.582 137.151 272.026 137.254 271.41 137.254C270.626 137.254 269.931 137.095 269.324 136.778C268.718 136.451 268.246 135.999 267.91 135.42C267.584 134.841 267.42 134.188 267.42 133.46C267.42 132.741 267.579 132.093 267.896 131.514C268.223 130.935 268.666 130.487 269.226 130.17C269.796 129.843 270.435 129.68 271.144 129.68C271.854 129.68 272.484 129.843 273.034 130.17C273.594 130.487 274.028 130.935 274.336 131.514C274.654 132.093 274.812 132.755 274.812 133.502ZM271.144 130.814C270.5 130.814 269.959 131.01 269.52 131.402C269.091 131.794 268.839 132.307 268.764 132.942H273.524C273.45 132.317 273.193 131.808 272.754 131.416C272.325 131.015 271.788 130.814 271.144 130.814ZM283.889 126.782V137.17H282.601V135.994C282.302 136.405 281.924 136.717 281.467 136.932C281.009 137.147 280.505 137.254 279.955 137.254C279.236 137.254 278.592 137.095 278.023 136.778C277.453 136.461 277.005 136.017 276.679 135.448C276.361 134.869 276.203 134.207 276.203 133.46C276.203 132.713 276.361 132.055 276.679 131.486C277.005 130.917 277.453 130.473 278.023 130.156C278.592 129.839 279.236 129.68 279.955 129.68C280.487 129.68 280.977 129.783 281.425 129.988C281.873 130.184 282.246 130.478 282.545 130.87V126.782H283.889ZM280.067 136.078C280.533 136.078 280.958 135.971 281.341 135.756C281.723 135.532 282.022 135.224 282.237 134.832C282.451 134.431 282.559 133.973 282.559 133.46C282.559 132.947 282.451 132.494 282.237 132.102C282.022 131.701 281.723 131.393 281.341 131.178C280.958 130.963 280.533 130.856 280.067 130.856C279.591 130.856 279.161 130.963 278.779 131.178C278.405 131.393 278.107 131.701 277.883 132.102C277.668 132.494 277.561 132.947 277.561 133.46C277.561 133.973 277.668 134.431 277.883 134.832C278.107 135.224 278.405 135.532 278.779 135.756C279.161 135.971 279.591 136.078 280.067 136.078ZM293.327 127.804C292.525 127.804 292.123 128.238 292.123 129.106V129.75H294.279V130.856H292.151V137.17H290.807V130.856H289.547V129.75H290.807V129.092C290.807 128.355 291.022 127.771 291.451 127.342C291.881 126.913 292.483 126.698 293.257 126.698C293.556 126.698 293.836 126.735 294.097 126.81C294.359 126.885 294.583 126.992 294.769 127.132L294.363 128.154C294.055 127.921 293.71 127.804 293.327 127.804ZM298.826 137.254C298.088 137.254 297.426 137.091 296.838 136.764C296.25 136.437 295.788 135.989 295.452 135.42C295.125 134.841 294.962 134.188 294.962 133.46C294.962 132.732 295.125 132.083 295.452 131.514C295.788 130.935 296.25 130.487 296.838 130.17C297.426 129.843 298.088 129.68 298.826 129.68C299.563 129.68 300.221 129.843 300.8 130.17C301.388 130.487 301.845 130.935 302.172 131.514C302.508 132.083 302.676 132.732 302.676 133.46C302.676 134.188 302.508 134.841 302.172 135.42C301.845 135.989 301.388 136.437 300.8 136.764C300.221 137.091 299.563 137.254 298.826 137.254ZM298.826 136.078C299.302 136.078 299.726 135.971 300.1 135.756C300.482 135.532 300.781 135.224 300.996 134.832C301.21 134.431 301.318 133.973 301.318 133.46C301.318 132.947 301.21 132.494 300.996 132.102C300.781 131.701 300.482 131.393 300.1 131.178C299.726 130.963 299.302 130.856 298.826 130.856C298.35 130.856 297.92 130.963 297.538 131.178C297.164 131.393 296.866 131.701 296.642 132.102C296.427 132.494 296.32 132.947 296.32 133.46C296.32 133.973 296.427 134.431 296.642 134.832C296.866 135.224 297.164 135.532 297.538 135.756C297.92 135.971 298.35 136.078 298.826 136.078ZM306.032 130.996C306.266 130.567 306.611 130.24 307.068 130.016C307.526 129.792 308.081 129.68 308.734 129.68V130.982C308.66 130.973 308.557 130.968 308.426 130.968C307.698 130.968 307.124 131.187 306.704 131.626C306.294 132.055 306.088 132.671 306.088 133.474V137.17H304.744V129.75H306.032V130.996ZM315.954 130.996C316.188 130.567 316.533 130.24 316.99 130.016C317.448 129.792 318.003 129.68 318.656 129.68V130.982C318.582 130.973 318.479 130.968 318.348 130.968C317.62 130.968 317.046 131.187 316.626 131.626C316.216 132.055 316.01 132.671 316.01 133.474V137.17H314.666V129.75H315.954V130.996ZM327.16 133.502C327.16 133.605 327.151 133.74 327.132 133.908H321.112C321.196 134.561 321.481 135.089 321.966 135.49C322.461 135.882 323.072 136.078 323.8 136.078C324.687 136.078 325.401 135.779 325.942 135.182L326.684 136.05C326.348 136.442 325.928 136.741 325.424 136.946C324.93 137.151 324.374 137.254 323.758 137.254C322.974 137.254 322.279 137.095 321.672 136.778C321.066 136.451 320.594 135.999 320.258 135.42C319.932 134.841 319.768 134.188 319.768 133.46C319.768 132.741 319.927 132.093 320.244 131.514C320.571 130.935 321.014 130.487 321.574 130.17C322.144 129.843 322.783 129.68 323.492 129.68C324.202 129.68 324.832 129.843 325.382 130.17C325.942 130.487 326.376 130.935 326.684 131.514C327.002 132.093 327.16 132.755 327.16 133.502ZM323.492 130.814C322.848 130.814 322.307 131.01 321.868 131.402C321.439 131.794 321.187 132.307 321.112 132.942H325.872C325.798 132.317 325.541 131.808 325.102 131.416C324.673 131.015 324.136 130.814 323.492 130.814ZM331.734 129.68C332.76 129.68 333.544 129.932 334.086 130.436C334.636 130.94 334.912 131.691 334.912 132.69V137.17H333.638V136.19C333.414 136.535 333.092 136.801 332.672 136.988C332.261 137.165 331.771 137.254 331.202 137.254C330.371 137.254 329.704 137.053 329.2 136.652C328.705 136.251 328.458 135.723 328.458 135.07C328.458 134.417 328.696 133.894 329.172 133.502C329.648 133.101 330.404 132.9 331.44 132.9H333.568V132.634C333.568 132.055 333.4 131.612 333.064 131.304C332.728 130.996 332.233 130.842 331.58 130.842C331.141 130.842 330.712 130.917 330.292 131.066C329.872 131.206 329.517 131.397 329.228 131.64L328.668 130.632C329.05 130.324 329.508 130.091 330.04 129.932C330.572 129.764 331.136 129.68 331.734 129.68ZM331.426 136.218C331.939 136.218 332.382 136.106 332.756 135.882C333.129 135.649 333.4 135.322 333.568 134.902V133.866H331.496C330.357 133.866 329.788 134.249 329.788 135.014C329.788 135.387 329.932 135.681 330.222 135.896C330.511 136.111 330.912 136.218 331.426 136.218ZM337.609 126.782H338.953V137.17H337.609V126.782ZM241.493 149.782H242.837V160.17H241.493V149.782ZM245.613 152.75H246.957V160.17H245.613V152.75ZM246.285 151.322C246.024 151.322 245.804 151.238 245.627 151.07C245.459 150.902 245.375 150.697 245.375 150.454C245.375 150.211 245.459 150.006 245.627 149.838C245.804 149.661 246.024 149.572 246.285 149.572C246.546 149.572 246.761 149.656 246.929 149.824C247.106 149.983 247.195 150.183 247.195 150.426C247.195 150.678 247.106 150.893 246.929 151.07C246.761 151.238 246.546 151.322 246.285 151.322ZM252.449 150.804C251.647 150.804 251.245 151.238 251.245 152.106V152.75H253.401V153.856H251.273V160.17H249.929V153.856H248.669V152.75H249.929V152.092C249.929 151.355 250.144 150.771 250.573 150.342C251.003 149.913 251.605 149.698 252.379 149.698C252.678 149.698 252.958 149.735 253.219 149.81C253.481 149.885 253.705 149.992 253.891 150.132L253.485 151.154C253.177 150.921 252.832 150.804 252.449 150.804ZM261.475 156.502C261.475 156.605 261.466 156.74 261.447 156.908H255.427C255.511 157.561 255.796 158.089 256.281 158.49C256.776 158.882 257.387 159.078 258.115 159.078C259.002 159.078 259.716 158.779 260.257 158.182L260.999 159.05C260.663 159.442 260.243 159.741 259.739 159.946C259.245 160.151 258.689 160.254 258.073 160.254C257.289 160.254 256.594 160.095 255.987 159.778C255.381 159.451 254.909 158.999 254.573 158.42C254.247 157.841 254.083 157.188 254.083 156.46C254.083 155.741 254.242 155.093 254.559 154.514C254.886 153.935 255.329 153.487 255.889 153.17C256.459 152.843 257.098 152.68 257.807 152.68C258.517 152.68 259.147 152.843 259.697 153.17C260.257 153.487 260.691 153.935 260.999 154.514C261.317 155.093 261.475 155.755 261.475 156.502ZM257.807 153.814C257.163 153.814 256.622 154.01 256.183 154.402C255.754 154.794 255.502 155.307 255.427 155.942H260.187C260.113 155.317 259.856 154.808 259.417 154.416C258.988 154.015 258.451 153.814 257.807 153.814ZM274.227 156.502C274.227 156.605 274.218 156.74 274.199 156.908H268.179C268.263 157.561 268.548 158.089 269.033 158.49C269.528 158.882 270.139 159.078 270.867 159.078C271.754 159.078 272.468 158.779 273.009 158.182L273.751 159.05C273.415 159.442 272.995 159.741 272.491 159.946C271.997 160.151 271.441 160.254 270.825 160.254C270.041 160.254 269.346 160.095 268.739 159.778C268.133 159.451 267.661 158.999 267.325 158.42C266.999 157.841 266.835 157.188 266.835 156.46C266.835 155.741 266.994 155.093 267.311 154.514C267.638 153.935 268.081 153.487 268.641 153.17C269.211 152.843 269.85 152.68 270.559 152.68C271.269 152.68 271.899 152.843 272.449 153.17C273.009 153.487 273.443 153.935 273.751 154.514C274.069 155.093 274.227 155.755 274.227 156.502ZM270.559 153.814C269.915 153.814 269.374 154.01 268.935 154.402C268.506 154.794 268.254 155.307 268.179 155.942H272.939C272.865 155.317 272.608 154.808 272.169 154.416C271.74 154.015 271.203 153.814 270.559 153.814ZM280.831 160.17L278.689 157.328L276.519 160.17H275.021L277.947 156.376L275.161 152.75H276.659L278.703 155.424L280.733 152.75H282.203L279.403 156.376L282.357 160.17H280.831ZM287.967 152.68C288.686 152.68 289.33 152.839 289.899 153.156C290.469 153.473 290.912 153.917 291.229 154.486C291.556 155.055 291.719 155.713 291.719 156.46C291.719 157.207 291.556 157.869 291.229 158.448C290.912 159.017 290.469 159.461 289.899 159.778C289.33 160.095 288.686 160.254 287.967 160.254C287.435 160.254 286.945 160.151 286.497 159.946C286.059 159.741 285.685 159.442 285.377 159.05V162.886H284.033V152.75H285.321V153.926C285.62 153.515 285.998 153.207 286.455 153.002C286.913 152.787 287.417 152.68 287.967 152.68ZM287.855 159.078C288.331 159.078 288.756 158.971 289.129 158.756C289.512 158.532 289.811 158.224 290.025 157.832C290.249 157.431 290.361 156.973 290.361 156.46C290.361 155.947 290.249 155.494 290.025 155.102C289.811 154.701 289.512 154.393 289.129 154.178C288.756 153.963 288.331 153.856 287.855 153.856C287.389 153.856 286.964 153.968 286.581 154.192C286.208 154.407 285.909 154.71 285.685 155.102C285.471 155.494 285.363 155.947 285.363 156.46C285.363 156.973 285.471 157.431 285.685 157.832C285.9 158.224 286.199 158.532 286.581 158.756C286.964 158.971 287.389 159.078 287.855 159.078ZM300.492 156.502C300.492 156.605 300.483 156.74 300.464 156.908H294.444C294.528 157.561 294.813 158.089 295.298 158.49C295.793 158.882 296.404 159.078 297.132 159.078C298.019 159.078 298.733 158.779 299.274 158.182L300.016 159.05C299.68 159.442 299.26 159.741 298.756 159.946C298.262 160.151 297.706 160.254 297.09 160.254C296.306 160.254 295.611 160.095 295.004 159.778C294.398 159.451 293.926 158.999 293.59 158.42C293.264 157.841 293.1 157.188 293.1 156.46C293.1 155.741 293.259 155.093 293.576 154.514C293.903 153.935 294.346 153.487 294.906 153.17C295.476 152.843 296.115 152.68 296.824 152.68C297.534 152.68 298.164 152.843 298.714 153.17C299.274 153.487 299.708 153.935 300.016 154.514C300.334 155.093 300.492 155.755 300.492 156.502ZM296.824 153.814C296.18 153.814 295.639 154.01 295.2 154.402C294.771 154.794 294.519 155.307 294.444 155.942H299.204C299.13 155.317 298.873 154.808 298.434 154.416C298.005 154.015 297.468 153.814 296.824 153.814ZM303.856 153.996C304.09 153.567 304.435 153.24 304.892 153.016C305.35 152.792 305.905 152.68 306.558 152.68V153.982C306.484 153.973 306.381 153.968 306.25 153.968C305.522 153.968 304.948 154.187 304.528 154.626C304.118 155.055 303.912 155.671 303.912 156.474V160.17H302.568V152.75H303.856V153.996ZM308.425 152.75H309.769V160.17H308.425V152.75ZM309.097 151.322C308.836 151.322 308.616 151.238 308.439 151.07C308.271 150.902 308.187 150.697 308.187 150.454C308.187 150.211 308.271 150.006 308.439 149.838C308.616 149.661 308.836 149.572 309.097 149.572C309.358 149.572 309.573 149.656 309.741 149.824C309.918 149.983 310.007 150.183 310.007 150.426C310.007 150.678 309.918 150.893 309.741 151.07C309.573 151.238 309.358 151.322 309.097 151.322ZM319.251 156.502C319.251 156.605 319.242 156.74 319.223 156.908H313.203C313.287 157.561 313.572 158.089 314.057 158.49C314.552 158.882 315.163 159.078 315.891 159.078C316.778 159.078 317.492 158.779 318.033 158.182L318.775 159.05C318.439 159.442 318.019 159.741 317.515 159.946C317.02 160.151 316.465 160.254 315.849 160.254C315.065 160.254 314.37 160.095 313.763 159.778C313.156 159.451 312.685 158.999 312.349 158.42C312.022 157.841 311.859 157.188 311.859 156.46C311.859 155.741 312.018 155.093 312.335 154.514C312.662 153.935 313.105 153.487 313.665 153.17C314.234 152.843 314.874 152.68 315.583 152.68C316.292 152.68 316.922 152.843 317.473 153.17C318.033 153.487 318.467 153.935 318.775 154.514C319.092 155.093 319.251 155.755 319.251 156.502ZM315.583 153.814C314.939 153.814 314.398 154.01 313.959 154.402C313.53 154.794 313.278 155.307 313.203 155.942H317.963C317.888 155.317 317.632 154.808 317.193 154.416C316.764 154.015 316.227 153.814 315.583 153.814ZM325.289 152.68C326.232 152.68 326.979 152.955 327.529 153.506C328.089 154.047 328.369 154.845 328.369 155.9V160.17H327.025V156.054C327.025 155.335 326.853 154.794 326.507 154.43C326.162 154.066 325.667 153.884 325.023 153.884C324.295 153.884 323.721 154.099 323.301 154.528C322.881 154.948 322.671 155.555 322.671 156.348V160.17H321.327V152.75H322.615V153.87C322.886 153.487 323.25 153.193 323.707 152.988C324.174 152.783 324.701 152.68 325.289 152.68ZM334.342 160.254C333.586 160.254 332.909 160.091 332.312 159.764C331.724 159.437 331.262 158.989 330.926 158.42C330.59 157.841 330.422 157.188 330.422 156.46C330.422 155.732 330.59 155.083 330.926 154.514C331.262 153.935 331.724 153.487 332.312 153.17C332.909 152.843 333.586 152.68 334.342 152.68C335.014 152.68 335.611 152.815 336.134 153.086C336.666 153.357 337.076 153.749 337.366 154.262L336.344 154.92C336.11 154.565 335.821 154.299 335.476 154.122C335.13 153.945 334.748 153.856 334.328 153.856C333.842 153.856 333.404 153.963 333.012 154.178C332.629 154.393 332.326 154.701 332.102 155.102C331.887 155.494 331.78 155.947 331.78 156.46C331.78 156.983 331.887 157.445 332.102 157.846C332.326 158.238 332.629 158.541 333.012 158.756C333.404 158.971 333.842 159.078 334.328 159.078C334.748 159.078 335.13 158.989 335.476 158.812C335.821 158.635 336.11 158.369 336.344 158.014L337.366 158.658C337.076 159.171 336.666 159.568 336.134 159.848C335.611 160.119 335.014 160.254 334.342 160.254ZM345.912 156.502C345.912 156.605 345.903 156.74 345.884 156.908H339.864C339.948 157.561 340.233 158.089 340.718 158.49C341.213 158.882 341.824 159.078 342.552 159.078C343.439 159.078 344.153 158.779 344.694 158.182L345.436 159.05C345.1 159.442 344.68 159.741 344.176 159.946C343.682 160.151 343.126 160.254 342.51 160.254C341.726 160.254 341.031 160.095 340.424 159.778C339.818 159.451 339.346 158.999 339.01 158.42C338.684 157.841 338.52 157.188 338.52 156.46C338.52 155.741 338.679 155.093 338.996 154.514C339.323 153.935 339.766 153.487 340.326 153.17C340.896 152.843 341.535 152.68 342.244 152.68C342.954 152.68 343.584 152.843 344.134 153.17C344.694 153.487 345.128 153.935 345.436 154.514C345.754 155.093 345.912 155.755 345.912 156.502ZM342.244 153.814C341.6 153.814 341.059 154.01 340.62 154.402C340.191 154.794 339.939 155.307 339.864 155.942H344.624C344.55 155.317 344.293 154.808 343.854 154.416C343.425 154.015 342.888 153.814 342.244 153.814ZM273.847 174.68C274.873 174.68 275.657 174.932 276.199 175.436C276.749 175.94 277.025 176.691 277.025 177.69V182.17H275.751V181.19C275.527 181.535 275.205 181.801 274.785 181.988C274.374 182.165 273.884 182.254 273.315 182.254C272.484 182.254 271.817 182.053 271.313 181.652C270.818 181.251 270.571 180.723 270.571 180.07C270.571 179.417 270.809 178.894 271.285 178.502C271.761 178.101 272.517 177.9 273.553 177.9H275.681V177.634C275.681 177.055 275.513 176.612 275.177 176.304C274.841 175.996 274.346 175.842 273.693 175.842C273.254 175.842 272.825 175.917 272.405 176.066C271.985 176.206 271.63 176.397 271.341 176.64L270.781 175.632C271.163 175.324 271.621 175.091 272.153 174.932C272.685 174.764 273.249 174.68 273.847 174.68ZM273.539 181.218C274.052 181.218 274.495 181.106 274.869 180.882C275.242 180.649 275.513 180.322 275.681 179.902V178.866H273.609C272.47 178.866 271.901 179.249 271.901 180.014C271.901 180.387 272.045 180.681 272.335 180.896C272.624 181.111 273.025 181.218 273.539 181.218ZM286.763 171.782V182.17H285.475V180.994C285.176 181.405 284.798 181.717 284.341 181.932C283.883 182.147 283.379 182.254 282.829 182.254C282.11 182.254 281.466 182.095 280.897 181.778C280.327 181.461 279.879 181.017 279.553 180.448C279.235 179.869 279.077 179.207 279.077 178.46C279.077 177.713 279.235 177.055 279.553 176.486C279.879 175.917 280.327 175.473 280.897 175.156C281.466 174.839 282.11 174.68 282.829 174.68C283.361 174.68 283.851 174.783 284.299 174.988C284.747 175.184 285.12 175.478 285.419 175.87V171.782H286.763ZM282.941 181.078C283.407 181.078 283.832 180.971 284.215 180.756C284.597 180.532 284.896 180.224 285.111 179.832C285.325 179.431 285.433 178.973 285.433 178.46C285.433 177.947 285.325 177.494 285.111 177.102C284.896 176.701 284.597 176.393 284.215 176.178C283.832 175.963 283.407 175.856 282.941 175.856C282.465 175.856 282.035 175.963 281.653 176.178C281.279 176.393 280.981 176.701 280.757 177.102C280.542 177.494 280.435 177.947 280.435 178.46C280.435 178.973 280.542 179.431 280.757 179.832C280.981 180.224 281.279 180.532 281.653 180.756C282.035 180.971 282.465 181.078 282.941 181.078ZM296.082 174.75L292.834 182.17H291.462L288.214 174.75H289.614L292.162 180.7L294.766 174.75H296.082ZM297.546 174.75H298.89V182.17H297.546V174.75ZM298.218 173.322C297.957 173.322 297.737 173.238 297.56 173.07C297.392 172.902 297.308 172.697 297.308 172.454C297.308 172.211 297.392 172.006 297.56 171.838C297.737 171.661 297.957 171.572 298.218 171.572C298.479 171.572 298.694 171.656 298.862 171.824C299.039 171.983 299.128 172.183 299.128 172.426C299.128 172.678 299.039 172.893 298.862 173.07C298.694 173.238 298.479 173.322 298.218 173.322ZM304.9 182.254C304.144 182.254 303.467 182.091 302.87 181.764C302.282 181.437 301.82 180.989 301.484 180.42C301.148 179.841 300.98 179.188 300.98 178.46C300.98 177.732 301.148 177.083 301.484 176.514C301.82 175.935 302.282 175.487 302.87 175.17C303.467 174.843 304.144 174.68 304.9 174.68C305.572 174.68 306.169 174.815 306.692 175.086C307.224 175.357 307.635 175.749 307.924 176.262L306.902 176.92C306.669 176.565 306.379 176.299 306.034 176.122C305.689 175.945 305.306 175.856 304.886 175.856C304.401 175.856 303.962 175.963 303.57 176.178C303.187 176.393 302.884 176.701 302.66 177.102C302.445 177.494 302.338 177.947 302.338 178.46C302.338 178.983 302.445 179.445 302.66 179.846C302.884 180.238 303.187 180.541 303.57 180.756C303.962 180.971 304.401 181.078 304.886 181.078C305.306 181.078 305.689 180.989 306.034 180.812C306.379 180.635 306.669 180.369 306.902 180.014L307.924 180.658C307.635 181.171 307.224 181.568 306.692 181.848C306.169 182.119 305.572 182.254 304.9 182.254ZM316.471 178.502C316.471 178.605 316.461 178.74 316.443 178.908H310.423C310.507 179.561 310.791 180.089 311.277 180.49C311.771 180.882 312.383 181.078 313.111 181.078C313.997 181.078 314.711 180.779 315.253 180.182L315.995 181.05C315.659 181.442 315.239 181.741 314.735 181.946C314.24 182.151 313.685 182.254 313.069 182.254C312.285 182.254 311.589 182.095 310.983 181.778C310.376 181.451 309.905 180.999 309.569 180.42C309.242 179.841 309.079 179.188 309.079 178.46C309.079 177.741 309.237 177.093 309.555 176.514C309.881 175.935 310.325 175.487 310.885 175.17C311.454 174.843 312.093 174.68 312.803 174.68C313.512 174.68 314.142 174.843 314.693 175.17C315.253 175.487 315.687 175.935 315.995 176.514C316.312 177.093 316.471 177.755 316.471 178.502ZM312.803 175.814C312.159 175.814 311.617 176.01 311.179 176.402C310.749 176.794 310.497 177.307 310.423 177.942H315.183C315.108 177.317 314.851 176.808 314.413 176.416C313.983 176.015 313.447 175.814 312.803 175.814Z" fill="white"/>
<defs>
<filter id="filter0_d" x="66.2812" y="86.498" width="149.091" height="149.091" filterUnits="userSpaceOnUse" color-interpolation-filters="sRGB">
<feFlood flood-opacity="0" result="BackgroundImageFix"/>
<feColorMatrix in="SourceAlpha" type="matrix" values="0 0 0 0 0 0 0 0 0 0 0 0 0 0 0 0 0 0 127 0"/>
<feOffset dy="12"/>
<feGaussianBlur stdDeviation="6.5"/>
<feColorMatrix type="matrix" values="0 0 0 0 0 0 0 0 0 0 0 0 0 0 0 0 0 0 0.25 0"/>
<feBlend mode="normal" in2="BackgroundImageFix" result="effect1_dropShadow"/>
<feBlend mode="normal" in="SourceGraphic" in2="effect1_dropShadow" result="shape"/>
</filter>
<filter id="filter1_d" x="71.2812" y="83.498" width="139" height="139" filterUnits="userSpaceOnUse" color-interpolation-filters="sRGB">
<feFlood flood-opacity="0" result="BackgroundImageFix"/>
<feColorMatrix in="SourceAlpha" type="matrix" values="0 0 0 0 0 0 0 0 0 0 0 0 0 0 0 0 0 0 127 0"/>
<feOffset dy="4"/>
<feGaussianBlur stdDeviation="4"/>
<feColorMatrix type="matrix" values="0 0 0 0 0 0 0 0 0 0 0 0 0 0 0 0 0 0 0.1 0"/>
<feBlend mode="normal" in2="BackgroundImageFix" result="effect1_dropShadow"/>
<feBlend mode="normal" in="SourceGraphic" in2="effect1_dropShadow" result="shape"/>
</filter>
<filter id="filter2_d" x="64.8008" y="233.318" width="148" height="149.091" filterUnits="userSpaceOnUse" color-interpolation-filters="sRGB">
<feFlood flood-opacity="0" result="BackgroundImageFix"/>
<feColorMatrix in="SourceAlpha" type="matrix" values="0 0 0 0 0 0 0 0 0 0 0 0 0 0 0 0 0 0 127 0"/>
<feOffset dy="12"/>
<feGaussianBlur stdDeviation="6.5"/>
<feColorMatrix type="matrix" values="0 0 0 0 0 0 0 0 0 0 0 0 0 0 0 0 0 0 0.25 0"/>
<feBlend mode="normal" in2="BackgroundImageFix" result="effect1_dropShadow"/>
<feBlend mode="normal" in="SourceGraphic" in2="effect1_dropShadow" result="shape"/>
</filter>
<filter id="filter3_d" x="69.8008" y="230.318" width="138" height="139" filterUnits="userSpaceOnUse" color-interpolation-filters="sRGB">
<feFlood flood-opacity="0" result="BackgroundImageFix"/>
<feColorMatrix in="SourceAlpha" type="matrix" values="0 0 0 0 0 0 0 0 0 0 0 0 0 0 0 0 0 0 127 0"/>
<feOffset dy="4"/>
<feGaussianBlur stdDeviation="4"/>
<feColorMatrix type="matrix" values="0 0 0 0 0 0 0 0 0 0 0 0 0 0 0 0 0 0 0.1 0"/>
<feBlend mode="normal" in2="BackgroundImageFix" result="effect1_dropShadow"/>
<feBlend mode="normal" in="SourceGraphic" in2="effect1_dropShadow" result="shape"/>
</filter>
<filter id="filter4_d" x="220.512" y="233.317" width="148" height="149.091" filterUnits="userSpaceOnUse" color-interpolation-filters="sRGB">
<feFlood flood-opacity="0" result="BackgroundImageFix"/>
<feColorMatrix in="SourceAlpha" type="matrix" values="0 0 0 0 0 0 0 0 0 0 0 0 0 0 0 0 0 0 127 0"/>
<feOffset dy="12"/>
<feGaussianBlur stdDeviation="6.5"/>
<feColorMatrix type="matrix" values="0 0 0 0 0 0 0 0 0 0 0 0 0 0 0 0 0 0 0.25 0"/>
<feBlend mode="normal" in2="BackgroundImageFix" result="effect1_dropShadow"/>
<feBlend mode="normal" in="SourceGraphic" in2="effect1_dropShadow" result="shape"/>
</filter>
<filter id="filter5_d" x="225.512" y="230.317" width="138" height="139" filterUnits="userSpaceOnUse" color-interpolation-filters="sRGB">
<feFlood flood-opacity="0" result="BackgroundImageFix"/>
<feColorMatrix in="SourceAlpha" type="matrix" values="0 0 0 0 0 0 0 0 0 0 0 0 0 0 0 0 0 0 127 0"/>
<feOffset dy="4"/>
<feGaussianBlur stdDeviation="4"/>
<feColorMatrix type="matrix" values="0 0 0 0 0 0 0 0 0 0 0 0 0 0 0 0 0 0 0.1 0"/>
<feBlend mode="normal" in2="BackgroundImageFix" result="effect1_dropShadow"/>
<feBlend mode="normal" in="SourceGraphic" in2="effect1_dropShadow" result="shape"/>
</filter>
<filter id="filter6_d" x="220.512" y="86.499" width="148" height="149.091" filterUnits="userSpaceOnUse" color-interpolation-filters="sRGB">
<feFlood flood-opacity="0" result="BackgroundImageFix"/>
<feColorMatrix in="SourceAlpha" type="matrix" values="0 0 0 0 0 0 0 0 0 0 0 0 0 0 0 0 0 0 127 0"/>
<feOffset dy="12"/>
<feGaussianBlur stdDeviation="6.5"/>
<feColorMatrix type="matrix" values="0 0 0 0 0 0 0 0 0 0 0 0 0 0 0 0 0 0 0.25 0"/>
<feBlend mode="normal" in2="BackgroundImageFix" result="effect1_dropShadow"/>
<feBlend mode="normal" in="SourceGraphic" in2="effect1_dropShadow" result="shape"/>
</filter>
<filter id="filter7_d" x="225.512" y="83.499" width="138" height="139" filterUnits="userSpaceOnUse" color-interpolation-filters="sRGB">
<feFlood flood-opacity="0" result="BackgroundImageFix"/>
<feColorMatrix in="SourceAlpha" type="matrix" values="0 0 0 0 0 0 0 0 0 0 0 0 0 0 0 0 0 0 127 0"/>
<feOffset dy="4"/>
<feGaussianBlur stdDeviation="4"/>
<feColorMatrix type="matrix" values="0 0 0 0 0 0 0 0 0 0 0 0 0 0 0 0 0 0 0.1 0"/>
<feBlend mode="normal" in2="BackgroundImageFix" result="effect1_dropShadow"/>
<feBlend mode="normal" in="SourceGraphic" in2="effect1_dropShadow" result="shape"/>
</filter>
</defs>
</svg>
