<svg width="335" height="192" viewBox="0 0 335 192" fill="none" xmlns="http://www.w3.org/2000/svg">
<rect y="10" width="246" height="24" rx="8" fill="#F3CD6A"/>
<path d="M38.474 17.2L35.268 27H32.832L30.676 20.364L28.45 27H26.028L22.808 17.2H25.16L27.372 24.088L29.682 17.2H31.782L34.022 24.144L36.304 17.2H38.474ZM44.5792 19.356C45.5125 19.356 46.2639 19.636 46.8332 20.196C47.4119 20.756 47.7012 21.5867 47.7012 22.688V27H45.5172V23.024C45.5172 22.4267 45.3865 21.9833 45.1252 21.694C44.8639 21.3953 44.4859 21.246 43.9912 21.246C43.4405 21.246 43.0019 21.4187 42.6752 21.764C42.3485 22.1 42.1852 22.604 42.1852 23.276V27H40.0012V16.612H42.1852V20.252C42.4745 19.9627 42.8245 19.7433 43.2352 19.594C43.6459 19.4353 44.0939 19.356 44.5792 19.356ZM52.9289 19.356C54.0956 19.356 54.9916 19.636 55.6169 20.196C56.2422 20.7467 56.5549 21.582 56.5549 22.702V27H54.5109V26.062C54.1002 26.762 53.3349 27.112 52.2149 27.112C51.6362 27.112 51.1322 27.014 50.7029 26.818C50.2829 26.622 49.9609 26.3513 49.7369 26.006C49.5129 25.6607 49.4009 25.2687 49.4009 24.83C49.4009 24.13 49.6622 23.5793 50.1849 23.178C50.7169 22.7767 51.5336 22.576 52.6349 22.576H54.3709C54.3709 22.1 54.2262 21.736 53.9369 21.484C53.6476 21.2227 53.2136 21.092 52.6349 21.092C52.2336 21.092 51.8369 21.1573 51.4449 21.288C51.0622 21.4093 50.7356 21.5773 50.4649 21.792L49.6809 20.266C50.0916 19.9767 50.5816 19.7527 51.1509 19.594C51.7296 19.4353 52.3222 19.356 52.9289 19.356ZM52.7609 25.642C53.1342 25.642 53.4656 25.558 53.7549 25.39C54.0442 25.2127 54.2496 24.956 54.3709 24.62V23.85H52.8729C51.9769 23.85 51.5289 24.144 51.5289 24.732C51.5289 25.012 51.6362 25.236 51.8509 25.404C52.0749 25.5627 52.3782 25.642 52.7609 25.642ZM63.5995 26.636C63.3849 26.7947 63.1189 26.916 62.8015 27C62.4935 27.0747 62.1669 27.112 61.8215 27.112C60.9255 27.112 60.2302 26.8833 59.7355 26.426C59.2502 25.9687 59.0075 25.2967 59.0075 24.41V21.316H57.8455V19.636H59.0075V17.802H61.1915V19.636H63.0675V21.316H61.1915V24.382C61.1915 24.6993 61.2709 24.9467 61.4295 25.124C61.5975 25.292 61.8309 25.376 62.1295 25.376C62.4749 25.376 62.7689 25.2827 63.0115 25.096L63.5995 26.636ZM74.0683 26.636C73.8537 26.7947 73.5877 26.916 73.2703 27C72.9623 27.0747 72.6357 27.112 72.2903 27.112C71.3943 27.112 70.699 26.8833 70.2043 26.426C69.719 25.9687 69.4763 25.2967 69.4763 24.41V21.316H68.3143V19.636H69.4763V17.802H71.6603V19.636H73.5363V21.316H71.6603V24.382C71.6603 24.6993 71.7397 24.9467 71.8983 25.124C72.0663 25.292 72.2997 25.376 72.5983 25.376C72.9437 25.376 73.2377 25.2827 73.4803 25.096L74.0683 26.636ZM80.0823 19.356C81.0157 19.356 81.767 19.636 82.3363 20.196C82.915 20.756 83.2043 21.5867 83.2043 22.688V27H81.0203V23.024C81.0203 22.4267 80.8897 21.9833 80.6283 21.694C80.367 21.3953 79.989 21.246 79.4943 21.246C78.9437 21.246 78.505 21.4187 78.1783 21.764C77.8517 22.1 77.6883 22.604 77.6883 23.276V27H75.5043V16.612H77.6883V20.252C77.9777 19.9627 78.3277 19.7433 78.7383 19.594C79.149 19.4353 79.597 19.356 80.0823 19.356ZM92.854 23.262C92.854 23.29 92.84 23.486 92.812 23.85H87.114C87.2167 24.3167 87.4594 24.6853 87.842 24.956C88.2247 25.2267 88.7007 25.362 89.27 25.362C89.662 25.362 90.0074 25.306 90.306 25.194C90.614 25.0727 90.8987 24.886 91.16 24.634L92.322 25.894C91.6127 26.706 90.5767 27.112 89.214 27.112C88.3647 27.112 87.6134 26.9487 86.96 26.622C86.3067 26.286 85.8027 25.824 85.448 25.236C85.0934 24.648 84.916 23.9807 84.916 23.234C84.916 22.4967 85.0887 21.834 85.434 21.246C85.7887 20.6487 86.2694 20.1867 86.876 19.86C87.492 19.524 88.178 19.356 88.934 19.356C89.6714 19.356 90.3387 19.5147 90.936 19.832C91.5334 20.1493 92 20.6067 92.336 21.204C92.6814 21.792 92.854 22.478 92.854 23.262ZM88.948 21.008C88.4534 21.008 88.038 21.148 87.702 21.428C87.366 21.708 87.1607 22.0907 87.086 22.576H90.796C90.7214 22.1 90.516 21.722 90.18 21.442C89.844 21.1527 89.4334 21.008 88.948 21.008ZM106.281 19.468V27H104.209V26.104C103.92 26.4307 103.574 26.6827 103.173 26.86C102.772 27.028 102.338 27.112 101.871 27.112C100.882 27.112 100.098 26.8273 99.5189 26.258C98.9403 25.6887 98.6509 24.844 98.6509 23.724V19.468H100.835V23.402C100.835 24.6153 101.344 25.222 102.361 25.222C102.884 25.222 103.304 25.054 103.621 24.718C103.938 24.3727 104.097 23.864 104.097 23.192V19.468H106.281ZM111.048 27.112C110.423 27.112 109.812 27.0373 109.214 26.888C108.617 26.7293 108.141 26.5333 107.786 26.3L108.514 24.732C108.85 24.9467 109.256 25.124 109.732 25.264C110.208 25.3947 110.675 25.46 111.132 25.46C112.056 25.46 112.518 25.2313 112.518 24.774C112.518 24.5593 112.392 24.4053 112.14 24.312C111.888 24.2187 111.501 24.1393 110.978 24.074C110.362 23.9807 109.854 23.8733 109.452 23.752C109.051 23.6307 108.701 23.416 108.402 23.108C108.113 22.8 107.968 22.3613 107.968 21.792C107.968 21.316 108.104 20.896 108.374 20.532C108.654 20.1587 109.056 19.8693 109.578 19.664C110.11 19.4587 110.736 19.356 111.454 19.356C111.986 19.356 112.514 19.4167 113.036 19.538C113.568 19.65 114.007 19.8087 114.352 20.014L113.624 21.568C112.962 21.1947 112.238 21.008 111.454 21.008C110.988 21.008 110.638 21.0733 110.404 21.204C110.171 21.3347 110.054 21.5027 110.054 21.708C110.054 21.9413 110.18 22.1047 110.432 22.198C110.684 22.2913 111.086 22.38 111.636 22.464C112.252 22.5667 112.756 22.6787 113.148 22.8C113.54 22.912 113.881 23.122 114.17 23.43C114.46 23.738 114.604 24.1673 114.604 24.718C114.604 25.1847 114.464 25.6 114.184 25.964C113.904 26.328 113.494 26.6127 112.952 26.818C112.42 27.014 111.786 27.112 111.048 27.112ZM123.54 23.262C123.54 23.29 123.526 23.486 123.498 23.85H117.8C117.902 24.3167 118.145 24.6853 118.528 24.956C118.91 25.2267 119.386 25.362 119.956 25.362C120.348 25.362 120.693 25.306 120.992 25.194C121.3 25.0727 121.584 24.886 121.846 24.634L123.008 25.894C122.298 26.706 121.262 27.112 119.9 27.112C119.05 27.112 118.299 26.9487 117.646 26.622C116.992 26.286 116.488 25.824 116.134 25.236C115.779 24.648 115.602 23.9807 115.602 23.234C115.602 22.4967 115.774 21.834 116.12 21.246C116.474 20.6487 116.955 20.1867 117.562 19.86C118.178 19.524 118.864 19.356 119.62 19.356C120.357 19.356 121.024 19.5147 121.622 19.832C122.219 20.1493 122.686 20.6067 123.022 21.204C123.367 21.792 123.54 22.478 123.54 23.262ZM119.634 21.008C119.139 21.008 118.724 21.148 118.388 21.428C118.052 21.708 117.846 22.0907 117.772 22.576H121.482C121.407 22.1 121.202 21.722 120.866 21.442C120.53 21.1527 120.119 21.008 119.634 21.008ZM127.29 20.462C127.551 20.098 127.901 19.8227 128.34 19.636C128.788 19.4493 129.301 19.356 129.88 19.356V21.372C129.637 21.3533 129.474 21.344 129.39 21.344C128.764 21.344 128.274 21.5213 127.92 21.876C127.565 22.2213 127.388 22.744 127.388 23.444V27H125.204V19.468H127.29V20.462ZM147.714 19.468L144.984 27H142.884L141.19 22.324L139.44 27H137.34L134.624 19.468H136.682L138.46 24.564L140.308 19.468H142.156L143.948 24.564L145.782 19.468H147.714ZM151.731 19.356C152.898 19.356 153.794 19.636 154.419 20.196C155.044 20.7467 155.357 21.582 155.357 22.702V27H153.313V26.062C152.902 26.762 152.137 27.112 151.017 27.112C150.438 27.112 149.934 27.014 149.505 26.818C149.085 26.622 148.763 26.3513 148.539 26.006C148.315 25.6607 148.203 25.2687 148.203 24.83C148.203 24.13 148.464 23.5793 148.987 23.178C149.519 22.7767 150.336 22.576 151.437 22.576H153.173C153.173 22.1 153.028 21.736 152.739 21.484C152.45 21.2227 152.016 21.092 151.437 21.092C151.036 21.092 150.639 21.1573 150.247 21.288C149.864 21.4093 149.538 21.5773 149.267 21.792L148.483 20.266C148.894 19.9767 149.384 19.7527 149.953 19.594C150.532 19.4353 151.124 19.356 151.731 19.356ZM151.563 25.642C151.936 25.642 152.268 25.558 152.557 25.39C152.846 25.2127 153.052 24.956 153.173 24.62V23.85H151.675C150.779 23.85 150.331 24.144 150.331 24.732C150.331 25.012 150.438 25.236 150.653 25.404C150.877 25.5627 151.18 25.642 151.563 25.642ZM162.122 19.356C163.055 19.356 163.806 19.636 164.376 20.196C164.954 20.756 165.244 21.5867 165.244 22.688V27H163.06V23.024C163.06 22.4267 162.929 21.9833 162.668 21.694C162.406 21.3953 162.028 21.246 161.534 21.246C160.983 21.246 160.544 21.4187 160.218 21.764C159.891 22.1 159.728 22.604 159.728 23.276V27H157.544V19.468H159.63V20.35C159.919 20.0327 160.278 19.79 160.708 19.622C161.137 19.4447 161.608 19.356 162.122 19.356ZM172.291 26.636C172.077 26.7947 171.811 26.916 171.493 27C171.185 27.0747 170.859 27.112 170.513 27.112C169.617 27.112 168.922 26.8833 168.427 26.426C167.942 25.9687 167.699 25.2967 167.699 24.41V21.316H166.537V19.636H167.699V17.802H169.883V19.636H171.759V21.316H169.883V24.382C169.883 24.6993 169.963 24.9467 170.121 25.124C170.289 25.292 170.523 25.376 170.821 25.376C171.167 25.376 171.461 25.2827 171.703 25.096L172.291 26.636ZM176.261 27.112C175.636 27.112 175.025 27.0373 174.427 26.888C173.83 26.7293 173.354 26.5333 172.999 26.3L173.727 24.732C174.063 24.9467 174.469 25.124 174.945 25.264C175.421 25.3947 175.888 25.46 176.345 25.46C177.269 25.46 177.731 25.2313 177.731 24.774C177.731 24.5593 177.605 24.4053 177.353 24.312C177.101 24.2187 176.714 24.1393 176.191 24.074C175.575 23.9807 175.067 23.8733 174.665 23.752C174.264 23.6307 173.914 23.416 173.615 23.108C173.326 22.8 173.181 22.3613 173.181 21.792C173.181 21.316 173.317 20.896 173.587 20.532C173.867 20.1587 174.269 19.8693 174.791 19.664C175.323 19.4587 175.949 19.356 176.667 19.356C177.199 19.356 177.727 19.4167 178.249 19.538C178.781 19.65 179.22 19.8087 179.565 20.014L178.837 21.568C178.175 21.1947 177.451 21.008 176.667 21.008C176.201 21.008 175.851 21.0733 175.617 21.204C175.384 21.3347 175.267 21.5027 175.267 21.708C175.267 21.9413 175.393 22.1047 175.645 22.198C175.897 22.2913 176.299 22.38 176.849 22.464C177.465 22.5667 177.969 22.6787 178.361 22.8C178.753 22.912 179.094 23.122 179.383 23.43C179.673 23.738 179.817 24.1673 179.817 24.718C179.817 25.1847 179.677 25.6 179.397 25.964C179.117 26.328 178.707 26.6127 178.165 26.818C177.633 27.014 176.999 27.112 176.261 27.112ZM190.408 26.636C190.193 26.7947 189.927 26.916 189.61 27C189.302 27.0747 188.975 27.112 188.63 27.112C187.734 27.112 187.038 26.8833 186.544 26.426C186.058 25.9687 185.816 25.2967 185.816 24.41V21.316H184.654V19.636H185.816V17.802H188V19.636H189.876V21.316H188V24.382C188 24.6993 188.079 24.9467 188.238 25.124C188.406 25.292 188.639 25.376 188.938 25.376C189.283 25.376 189.577 25.2827 189.82 25.096L190.408 26.636ZM195.195 27.112C194.402 27.112 193.688 26.9487 193.053 26.622C192.428 26.286 191.938 25.824 191.583 25.236C191.229 24.648 191.051 23.9807 191.051 23.234C191.051 22.4873 191.229 21.82 191.583 21.232C191.938 20.644 192.428 20.1867 193.053 19.86C193.688 19.524 194.402 19.356 195.195 19.356C195.989 19.356 196.698 19.524 197.323 19.86C197.949 20.1867 198.439 20.644 198.793 21.232C199.148 21.82 199.325 22.4873 199.325 23.234C199.325 23.9807 199.148 24.648 198.793 25.236C198.439 25.824 197.949 26.286 197.323 26.622C196.698 26.9487 195.989 27.112 195.195 27.112ZM195.195 25.32C195.755 25.32 196.213 25.1333 196.567 24.76C196.931 24.3773 197.113 23.8687 197.113 23.234C197.113 22.5993 196.931 22.0953 196.567 21.722C196.213 21.3393 195.755 21.148 195.195 21.148C194.635 21.148 194.173 21.3393 193.809 21.722C193.445 22.0953 193.263 22.5993 193.263 23.234C193.263 23.8687 193.445 24.3773 193.809 24.76C194.173 25.1333 194.635 25.32 195.195 25.32ZM212.842 16.612V27H210.756V26.132C210.215 26.7853 209.431 27.112 208.404 27.112C207.695 27.112 207.051 26.9533 206.472 26.636C205.903 26.3187 205.455 25.866 205.128 25.278C204.801 24.69 204.638 24.0087 204.638 23.234C204.638 22.4593 204.801 21.778 205.128 21.19C205.455 20.602 205.903 20.1493 206.472 19.832C207.051 19.5147 207.695 19.356 208.404 19.356C209.365 19.356 210.117 19.6593 210.658 20.266V16.612H212.842ZM208.782 25.32C209.333 25.32 209.79 25.1333 210.154 24.76C210.518 24.3773 210.7 23.8687 210.7 23.234C210.7 22.5993 210.518 22.0953 210.154 21.722C209.79 21.3393 209.333 21.148 208.782 21.148C208.222 21.148 207.76 21.3393 207.396 21.722C207.032 22.0953 206.85 22.5993 206.85 23.234C206.85 23.8687 207.032 24.3773 207.396 24.76C207.76 25.1333 208.222 25.32 208.782 25.32ZM218.657 27.112C217.864 27.112 217.15 26.9487 216.515 26.622C215.89 26.286 215.4 25.824 215.045 25.236C214.691 24.648 214.513 23.9807 214.513 23.234C214.513 22.4873 214.691 21.82 215.045 21.232C215.4 20.644 215.89 20.1867 216.515 19.86C217.15 19.524 217.864 19.356 218.657 19.356C219.451 19.356 220.16 19.524 220.785 19.86C221.411 20.1867 221.901 20.644 222.255 21.232C222.61 21.82 222.787 22.4873 222.787 23.234C222.787 23.9807 222.61 24.648 222.255 25.236C221.901 25.824 221.411 26.286 220.785 26.622C220.16 26.9487 219.451 27.112 218.657 27.112ZM218.657 25.32C219.217 25.32 219.675 25.1333 220.029 24.76C220.393 24.3773 220.575 23.8687 220.575 23.234C220.575 22.5993 220.393 22.0953 220.029 21.722C219.675 21.3393 219.217 21.148 218.657 21.148C218.097 21.148 217.635 21.3393 217.271 21.722C216.907 22.0953 216.725 22.5993 216.725 23.234C216.725 23.8687 216.907 24.3773 217.271 24.76C217.635 25.1333 218.097 25.32 218.657 25.32Z" fill="#252424"/>
<path d="M2.09281 105.547C1.75512 105.547 1.4663 105.432 1.22636 105.201C0.995307 104.97 0.87978 104.676 0.87978 104.321C0.87978 103.983 0.99975 103.699 1.23969 103.468C1.47963 103.228 1.764 103.108 2.09281 103.108C2.42162 103.108 2.70155 103.228 2.9326 103.468C3.17254 103.699 3.29251 103.983 3.29251 104.321C3.29251 104.676 3.17254 104.97 2.9326 105.201C2.70155 105.432 2.42162 105.547 2.09281 105.547ZM16.3427 106.84V108H9.57104V98.669H16.1561V99.8287H10.904V102.695H15.5829V103.828H10.904V106.84H16.3427ZM22.8638 108L20.8243 105.294L18.7581 108H17.3318L20.1178 104.388L17.4651 100.935H18.8914L20.8376 103.481L22.7705 100.935H24.1701L21.5041 104.388L24.3167 108H22.8638ZM29.6588 100.868C30.3431 100.868 30.9563 101.02 31.4984 101.322C32.0405 101.624 32.4626 102.046 32.7647 102.588C33.0758 103.13 33.2313 103.757 33.2313 104.468C33.2313 105.178 33.0758 105.809 32.7647 106.36C32.4626 106.902 32.0405 107.325 31.4984 107.627C30.9563 107.929 30.3431 108.08 29.6588 108.08C29.1523 108.08 28.6857 107.982 28.2592 107.787C27.8415 107.591 27.486 107.307 27.1928 106.934V110.586H25.9131V100.935H27.1395V102.055C27.4238 101.664 27.7837 101.371 28.2192 101.175C28.6546 100.971 29.1345 100.868 29.6588 100.868ZM29.5522 106.96C30.0054 106.96 30.4098 106.858 30.7652 106.654C31.1296 106.44 31.414 106.147 31.6183 105.774C31.8316 105.392 31.9383 104.956 31.9383 104.468C31.9383 103.979 31.8316 103.548 31.6183 103.175C31.414 102.792 31.1296 102.499 30.7652 102.295C30.4098 102.09 30.0054 101.988 29.5522 101.988C29.1079 101.988 28.7035 102.095 28.3392 102.308C27.9837 102.512 27.6993 102.801 27.486 103.175C27.2816 103.548 27.1795 103.979 27.1795 104.468C27.1795 104.956 27.2816 105.392 27.486 105.774C27.6904 106.147 27.9748 106.44 28.3392 106.654C28.7035 106.858 29.1079 106.96 29.5522 106.96ZM35.1993 98.1091H36.479V108H35.1993V98.1091ZM42.1482 108.08C41.4462 108.08 40.8152 107.924 40.2554 107.613C39.6955 107.302 39.2556 106.876 38.9357 106.334C38.6246 105.783 38.4691 105.161 38.4691 104.468C38.4691 103.774 38.6246 103.157 38.9357 102.615C39.2556 102.064 39.6955 101.637 40.2554 101.335C40.8152 101.024 41.4462 100.868 42.1482 100.868C42.8503 100.868 43.4768 101.024 44.0277 101.335C44.5876 101.637 45.023 102.064 45.3341 102.615C45.654 103.157 45.814 103.774 45.814 104.468C45.814 105.161 45.654 105.783 45.3341 106.334C45.023 106.876 44.5876 107.302 44.0277 107.613C43.4768 107.924 42.8503 108.08 42.1482 108.08ZM42.1482 106.96C42.6014 106.96 43.0058 106.858 43.3612 106.654C43.7256 106.44 44.01 106.147 44.2144 105.774C44.4188 105.392 44.521 104.956 44.521 104.468C44.521 103.979 44.4188 103.548 44.2144 103.175C44.01 102.792 43.7256 102.499 43.3612 102.295C43.0058 102.09 42.6014 101.988 42.1482 101.988C41.695 101.988 41.2862 102.09 40.9219 102.295C40.5664 102.499 40.282 102.792 40.0687 103.175C39.8643 103.548 39.7621 103.979 39.7621 104.468C39.7621 104.956 39.8643 105.392 40.0687 105.774C40.282 106.147 40.5664 106.44 40.9219 106.654C41.2862 106.858 41.695 106.96 42.1482 106.96ZM49.01 102.121C49.2322 101.713 49.561 101.402 49.9965 101.188C50.4319 100.975 50.9607 100.868 51.5827 100.868V102.108C51.5116 102.099 51.4139 102.095 51.2895 102.095C50.5963 102.095 50.0498 102.304 49.6499 102.721C49.2589 103.13 49.0634 103.717 49.0634 104.481V108H47.7837V100.935H49.01V102.121ZM59.6799 104.508C59.6799 104.605 59.671 104.734 59.6532 104.894H53.9213C54.0013 105.516 54.2723 106.018 54.7344 106.4C55.2054 106.774 55.7875 106.96 56.4807 106.96C57.3249 106.96 58.0047 106.676 58.5202 106.107L59.2266 106.934C58.9067 107.307 58.5068 107.591 58.0269 107.787C57.556 107.982 57.0272 108.08 56.4407 108.08C55.6942 108.08 55.0321 107.929 54.4545 107.627C53.8769 107.316 53.4281 106.885 53.1082 106.334C52.7971 105.783 52.6416 105.161 52.6416 104.468C52.6416 103.783 52.7927 103.166 53.0948 102.615C53.4059 102.064 53.828 101.637 54.3612 101.335C54.9033 101.024 55.512 100.868 56.1874 100.868C56.8628 100.868 57.4626 101.024 57.987 101.335C58.5202 101.637 58.9334 102.064 59.2266 102.615C59.5288 103.166 59.6799 103.797 59.6799 104.508ZM56.1874 101.948C55.5742 101.948 55.0588 102.135 54.6411 102.508C54.2323 102.881 53.9924 103.37 53.9213 103.974H58.4535C58.3824 103.379 58.138 102.895 57.7204 102.521C57.3116 102.139 56.8006 101.948 56.1874 101.948ZM76.1272 100.935L73.4879 108H72.2615L70.222 102.641L68.1559 108H66.9295L64.3035 100.935H65.5165L67.5694 106.56L69.7022 100.935H70.7819L72.8747 106.587L74.9808 100.935H76.1272ZM77.6257 100.935H78.9054V108H77.6257V100.935ZM78.2655 99.5754C78.0167 99.5754 77.8079 99.4955 77.639 99.3355C77.4791 99.1755 77.3991 98.98 77.3991 98.749C77.3991 98.5179 77.4791 98.3224 77.639 98.1625C77.8079 97.9936 78.0167 97.9092 78.2655 97.9092C78.5144 97.9092 78.7187 97.9892 78.8787 98.1491C79.0476 98.3002 79.132 98.4913 79.132 98.7223C79.132 98.9623 79.0476 99.1667 78.8787 99.3355C78.7187 99.4955 78.5144 99.5754 78.2655 99.5754ZM85.521 107.587C85.3344 107.747 85.1033 107.871 84.8279 107.96C84.5524 108.04 84.268 108.08 83.9747 108.08C83.2638 108.08 82.7128 107.889 82.3218 107.507C81.9308 107.125 81.7353 106.578 81.7353 105.867V101.988H80.5356V100.935H81.7353V99.3888H83.015V100.935H85.0411V101.988H83.015V105.814C83.015 106.196 83.1083 106.489 83.2949 106.694C83.4904 106.898 83.7659 107 84.1214 107C84.5124 107 84.8456 106.889 85.1211 106.667L85.521 107.587ZM91.0405 100.868C91.938 100.868 92.649 101.131 93.1733 101.655C93.7065 102.17 93.9731 102.93 93.9731 103.934V108H92.6934V104.081C92.6934 103.397 92.529 102.881 92.2002 102.535C91.8714 102.188 91.4004 102.015 90.7872 102.015C90.094 102.015 89.5475 102.219 89.1476 102.628C88.7477 103.028 88.5478 103.606 88.5478 104.361V108H87.2681V98.1091H88.5478V101.935C88.8144 101.597 89.1609 101.335 89.5875 101.148C90.0229 100.962 90.5073 100.868 91.0405 100.868ZM99.6062 108.08C98.9042 108.08 98.2732 107.924 97.7134 107.613C97.1535 107.302 96.7136 106.876 96.3937 106.334C96.0827 105.783 95.9272 105.161 95.9272 104.468C95.9272 103.774 96.0827 103.157 96.3937 102.615C96.7136 102.064 97.1535 101.637 97.7134 101.335C98.2732 101.024 98.9042 100.868 99.6062 100.868C100.308 100.868 100.935 101.024 101.486 101.335C102.046 101.637 102.481 102.064 102.792 102.615C103.112 103.157 103.272 103.774 103.272 104.468C103.272 105.161 103.112 105.783 102.792 106.334C102.481 106.876 102.046 107.302 101.486 107.613C100.935 107.924 100.308 108.08 99.6062 108.08ZM99.6062 106.96C100.059 106.96 100.464 106.858 100.819 106.654C101.184 106.44 101.468 106.147 101.672 105.774C101.877 105.392 101.979 104.956 101.979 104.468C101.979 103.979 101.877 103.548 101.672 103.175C101.468 102.792 101.184 102.499 100.819 102.295C100.464 102.09 100.059 101.988 99.6062 101.988C99.153 101.988 98.7442 102.09 98.3799 102.295C98.0244 102.499 97.74 102.792 97.5268 103.175C97.3224 103.548 97.2202 103.979 97.2202 104.468C97.2202 104.956 97.3224 105.392 97.5268 105.774C97.74 106.147 98.0244 106.44 98.3799 106.654C98.7442 106.858 99.153 106.96 99.6062 106.96ZM111.827 100.935V108H110.614V106.934C110.356 107.298 110.014 107.582 109.587 107.787C109.17 107.982 108.712 108.08 108.214 108.08C107.272 108.08 106.53 107.822 105.988 107.307C105.446 106.783 105.175 106.014 105.175 105.001V100.935H106.455V104.854C106.455 105.538 106.619 106.058 106.948 106.414C107.277 106.76 107.748 106.934 108.361 106.934C109.036 106.934 109.57 106.729 109.961 106.32C110.352 105.912 110.547 105.334 110.547 104.588V100.935H111.827ZM118.435 107.587C118.249 107.747 118.017 107.871 117.742 107.96C117.467 108.04 117.182 108.08 116.889 108.08C116.178 108.08 115.627 107.889 115.236 107.507C114.845 107.125 114.649 106.578 114.649 105.867V101.988H113.45V100.935H114.649V99.3888H115.929V100.935H117.955V101.988H115.929V105.814C115.929 106.196 116.022 106.489 116.209 106.694C116.405 106.898 116.68 107 117.036 107C117.427 107 117.76 106.889 118.035 106.667L118.435 107.587ZM134.653 100.935L132.013 108H130.787L128.747 102.641L126.681 108H125.455L122.829 100.935H124.042L126.095 106.56L128.228 100.935H129.307L131.4 106.587L133.506 100.935H134.653ZM138.982 108.08C138.28 108.08 137.649 107.924 137.089 107.613C136.529 107.302 136.089 106.876 135.769 106.334C135.458 105.783 135.303 105.161 135.303 104.468C135.303 103.774 135.458 103.157 135.769 102.615C136.089 102.064 136.529 101.637 137.089 101.335C137.649 101.024 138.28 100.868 138.982 100.868C139.684 100.868 140.31 101.024 140.861 101.335C141.421 101.637 141.857 102.064 142.168 102.615C142.488 103.157 142.648 103.774 142.648 104.468C142.648 105.161 142.488 105.783 142.168 106.334C141.857 106.876 141.421 107.302 140.861 107.613C140.31 107.924 139.684 108.08 138.982 108.08ZM138.982 106.96C139.435 106.96 139.839 106.858 140.195 106.654C140.559 106.44 140.844 106.147 141.048 105.774C141.252 105.392 141.355 104.956 141.355 104.468C141.355 103.979 141.252 103.548 141.048 103.175C140.844 102.792 140.559 102.499 140.195 102.295C139.839 102.09 139.435 101.988 138.982 101.988C138.529 101.988 138.12 102.09 137.755 102.295C137.4 102.499 137.116 102.792 136.902 103.175C136.698 103.548 136.596 103.979 136.596 104.468C136.596 104.956 136.698 105.392 136.902 105.774C137.116 106.147 137.4 106.44 137.755 106.654C138.12 106.858 138.529 106.96 138.982 106.96ZM145.844 102.121C146.066 101.713 146.395 101.402 146.83 101.188C147.265 100.975 147.794 100.868 148.416 100.868V102.108C148.345 102.099 148.247 102.095 148.123 102.095C147.43 102.095 146.883 102.304 146.483 102.721C146.092 103.13 145.897 103.717 145.897 104.481V108H144.617V100.935H145.844V102.121ZM151.42 102.121C151.642 101.713 151.971 101.402 152.406 101.188C152.842 100.975 153.37 100.868 153.993 100.868V102.108C153.921 102.099 153.824 102.095 153.699 102.095C153.006 102.095 152.46 102.304 152.06 102.721C151.669 103.13 151.473 103.717 151.473 104.481V108H150.193V100.935H151.42V102.121ZM162.308 100.935L158.882 108.706C158.58 109.426 158.224 109.933 157.816 110.226C157.416 110.519 156.931 110.666 156.363 110.666C156.016 110.666 155.678 110.608 155.35 110.493C155.03 110.386 154.763 110.226 154.55 110.013L155.096 109.053C155.461 109.4 155.883 109.573 156.363 109.573C156.674 109.573 156.931 109.489 157.136 109.32C157.349 109.16 157.54 108.88 157.709 108.48L157.936 107.987L154.816 100.935H156.149L158.615 106.587L161.055 100.935H162.308Z" fill="white"/>
<path d="M2.09281 71.5473C1.75512 71.5473 1.4663 71.4318 1.22636 71.2007C0.995307 70.9696 0.87978 70.6764 0.87978 70.3209C0.87978 69.9832 0.99975 69.6989 1.23969 69.4678C1.47963 69.2279 1.764 69.1079 2.09281 69.1079C2.42162 69.1079 2.70155 69.2279 2.9326 69.4678C3.17254 69.6989 3.29251 69.9832 3.29251 70.3209C3.29251 70.6764 3.17254 70.9696 2.9326 71.2007C2.70155 71.4318 2.42162 71.5473 2.09281 71.5473ZM10.904 65.8287V69.0812H15.5829V70.2276H10.904V74H9.57104V64.669H16.1561V65.8287H10.904ZM17.9156 66.9351H19.1953V74H17.9156V66.9351ZM18.5555 65.5754C18.3066 65.5754 18.0978 65.4955 17.929 65.3355C17.769 65.1755 17.689 64.98 17.689 64.749C17.689 64.5179 17.769 64.3224 17.929 64.1625C18.0978 63.9936 18.3066 63.9092 18.5555 63.9092C18.8043 63.9092 19.0087 63.9892 19.1686 64.1491C19.3375 64.3002 19.4219 64.4913 19.4219 64.7223C19.4219 64.9623 19.3375 65.1667 19.1686 65.3355C19.0087 65.4955 18.8043 65.5754 18.5555 65.5754ZM25.611 66.8684C26.5085 66.8684 27.2195 67.1306 27.7438 67.6549C28.277 68.1703 28.5436 68.9302 28.5436 69.9343V74H27.2639V70.081C27.2639 69.3967 27.0995 68.8813 26.7707 68.5347C26.4419 68.1881 25.9709 68.0148 25.3577 68.0148C24.6646 68.0148 24.118 68.2192 23.7181 68.628C23.3182 69.0279 23.1183 69.6055 23.1183 70.3609V74H21.8386V66.9351H23.065V68.0015C23.3227 67.6371 23.6693 67.3572 24.1047 67.1617C24.549 66.9662 25.0511 66.8684 25.611 66.8684ZM37.8159 64.1091V74H36.5895V72.8803C36.3051 73.2713 35.9452 73.569 35.5098 73.7734C35.0743 73.9778 34.5944 74.08 34.0701 74.08C33.3859 74.08 32.7727 73.9289 32.2306 73.6268C31.6885 73.3246 31.2619 72.9025 30.9509 72.3604C30.6488 71.8094 30.4977 71.1785 30.4977 70.4675C30.4977 69.7566 30.6488 69.1301 30.9509 68.588C31.2619 68.0459 31.6885 67.6238 32.2306 67.3217C32.7727 67.0195 33.3859 66.8684 34.0701 66.8684C34.5767 66.8684 35.0432 66.9662 35.4698 67.1617C35.8963 67.3483 36.2518 67.6283 36.5362 68.0015V64.1091H37.8159ZM34.1768 72.9603C34.6211 72.9603 35.0254 72.8581 35.3898 72.6537C35.7541 72.4404 36.0385 72.1471 36.2429 71.7739C36.4473 71.3918 36.5495 70.9563 36.5495 70.4675C36.5495 69.9788 36.4473 69.5478 36.2429 69.1745C36.0385 68.7924 35.7541 68.4992 35.3898 68.2948C35.0254 68.0904 34.6211 67.9882 34.1768 67.9882C33.7235 67.9882 33.3148 68.0904 32.9504 68.2948C32.5949 68.4992 32.3106 68.7924 32.0973 69.1745C31.8929 69.5478 31.7907 69.9788 31.7907 70.4675C31.7907 70.9563 31.8929 71.3918 32.0973 71.7739C32.3106 72.1471 32.5949 72.4404 32.9504 72.6537C33.3148 72.8581 33.7235 72.9603 34.1768 72.9603ZM47.9893 66.8684C48.8868 66.8684 49.5977 67.1306 50.1221 67.6549C50.6553 68.1703 50.9219 68.9302 50.9219 69.9343V74H49.6422V70.081C49.6422 69.3967 49.4778 68.8813 49.149 68.5347C48.8202 68.1881 48.3492 68.0148 47.736 68.0148C47.0428 68.0148 46.4963 68.2192 46.0964 68.628C45.6965 69.0279 45.4965 69.6055 45.4965 70.3609V74H44.2169V64.1091H45.4965V67.9348C45.7631 67.5972 46.1097 67.335 46.5363 67.1484C46.9717 66.9618 47.4561 66.8684 47.9893 66.8684ZM53.4901 66.9351H54.7697V74H53.4901V66.9351ZM54.1299 65.5754C53.8811 65.5754 53.6722 65.4955 53.5034 65.3355C53.3434 65.1755 53.2635 64.98 53.2635 64.749C53.2635 64.5179 53.3434 64.3224 53.5034 64.1625C53.6722 63.9936 53.8811 63.9092 54.1299 63.9092C54.3787 63.9092 54.5831 63.9892 54.7431 64.1491C54.9119 64.3002 54.9964 64.4913 54.9964 64.7223C54.9964 64.9623 54.9119 65.1667 54.7431 65.3355C54.5831 65.4955 54.3787 65.5754 54.1299 65.5754ZM64.078 64.1091V74H62.8517V72.8803C62.5673 73.2713 62.2074 73.569 61.7719 73.7734C61.3365 73.9778 60.8566 74.08 60.3323 74.08C59.648 74.08 59.0349 73.9289 58.4928 73.6268C57.9507 73.3246 57.5241 72.9025 57.2131 72.3604C56.9109 71.8094 56.7599 71.1785 56.7599 70.4675C56.7599 69.7566 56.9109 69.1301 57.2131 68.588C57.5241 68.0459 57.9507 67.6238 58.4928 67.3217C59.0349 67.0195 59.648 66.8684 60.3323 66.8684C60.8388 66.8684 61.3054 66.9662 61.732 67.1617C62.1585 67.3483 62.514 67.6283 62.7984 68.0015V64.1091H64.078ZM60.4389 72.9603C60.8833 72.9603 61.2876 72.8581 61.652 72.6537C62.0163 72.4404 62.3007 72.1471 62.5051 71.7739C62.7095 71.3918 62.8117 70.9563 62.8117 70.4675C62.8117 69.9788 62.7095 69.5478 62.5051 69.1745C62.3007 68.7924 62.0163 68.4992 61.652 68.2948C61.2876 68.0904 60.8833 67.9882 60.4389 67.9882C59.9857 67.9882 59.5769 68.0904 59.2126 68.2948C58.8571 68.4992 58.5727 68.7924 58.3595 69.1745C58.1551 69.5478 58.0529 69.9788 58.0529 70.4675C58.0529 70.9563 58.1551 71.3918 58.3595 71.7739C58.5727 72.1471 58.8571 72.4404 59.2126 72.6537C59.5769 72.8581 59.9857 72.9603 60.4389 72.9603ZM73.3643 64.1091V74H72.1379V72.8803C71.8535 73.2713 71.4936 73.569 71.0582 73.7734C70.6227 73.9778 70.1428 74.08 69.6185 74.08C68.9343 74.08 68.3211 73.9289 67.779 73.6268C67.2369 73.3246 66.8103 72.9025 66.4993 72.3604C66.1972 71.8094 66.0461 71.1785 66.0461 70.4675C66.0461 69.7566 66.1972 69.1301 66.4993 68.588C66.8103 68.0459 67.2369 67.6238 67.779 67.3217C68.3211 67.0195 68.9343 66.8684 69.6185 66.8684C70.1251 66.8684 70.5916 66.9662 71.0182 67.1617C71.4447 67.3483 71.8002 67.6283 72.0846 68.0015V64.1091H73.3643ZM69.7252 72.9603C70.1695 72.9603 70.5738 72.8581 70.9382 72.6537C71.3026 72.4404 71.5869 72.1471 71.7913 71.7739C71.9957 71.3918 72.0979 70.9563 72.0979 70.4675C72.0979 69.9788 71.9957 69.5478 71.7913 69.1745C71.5869 68.7924 71.3026 68.4992 70.9382 68.2948C70.5738 68.0904 70.1695 67.9882 69.7252 67.9882C69.2719 67.9882 68.8632 68.0904 68.4988 68.2948C68.1433 68.4992 67.859 68.7924 67.6457 69.1745C67.4413 69.5478 67.3391 69.9788 67.3391 70.4675C67.3391 70.9563 67.4413 71.3918 67.6457 71.7739C67.859 72.1471 68.1433 72.4404 68.4988 72.6537C68.8632 72.8581 69.2719 72.9603 69.7252 72.9603ZM82.3705 70.5075C82.3705 70.6053 82.3617 70.7341 82.3439 70.8941H76.612C76.692 71.5162 76.963 72.0183 77.4251 72.4004C77.8961 72.7736 78.4782 72.9603 79.1713 72.9603C80.0156 72.9603 80.6954 72.6759 81.2108 72.1071L81.9173 72.9336C81.5974 73.3068 81.1975 73.5912 80.7176 73.7867C80.2466 73.9822 79.7179 74.08 79.1314 74.08C78.3849 74.08 77.7228 73.9289 77.1452 73.6268C76.5676 73.3157 76.1188 72.8847 75.7989 72.3338C75.4878 71.7828 75.3323 71.1607 75.3323 70.4675C75.3323 69.7833 75.4834 69.1657 75.7855 68.6147C76.0966 68.0637 76.5187 67.6371 77.0519 67.335C77.594 67.024 78.2027 66.8684 78.8781 66.8684C79.5535 66.8684 80.1533 67.024 80.6776 67.335C81.2108 67.6371 81.6241 68.0637 81.9173 68.6147C82.2195 69.1657 82.3705 69.7966 82.3705 70.5075ZM78.8781 67.9482C78.2649 67.9482 77.7495 68.1348 77.3318 68.508C76.923 68.8813 76.6831 69.37 76.612 69.9743H81.1442C81.0731 69.3789 80.8287 68.8946 80.411 68.5214C80.0022 68.1392 79.4913 67.9482 78.8781 67.9482ZM88.1198 66.8684C89.0174 66.8684 89.7283 67.1306 90.2526 67.6549C90.7858 68.1703 91.0524 68.9302 91.0524 69.9343V74H89.7728V70.081C89.7728 69.3967 89.6084 68.8813 89.2796 68.5347C88.9507 68.1881 88.4798 68.0148 87.8666 68.0148C87.1734 68.0148 86.6269 68.2192 86.227 68.628C85.8271 69.0279 85.6271 69.6055 85.6271 70.3609V74H84.3475V66.9351H85.5738V68.0015C85.8315 67.6371 86.1781 67.3572 86.6136 67.1617C87.0579 66.9662 87.56 66.8684 88.1198 66.8684ZM104.159 66.9351V73.0402C104.159 74.2755 103.852 75.1864 103.239 75.7729C102.626 76.3683 101.71 76.666 100.493 76.666C99.8265 76.666 99.1911 76.5727 98.5868 76.3861C97.9825 76.2083 97.4937 75.9506 97.1205 75.6129L97.7337 74.6265C98.0625 74.9109 98.4668 75.1331 98.9467 75.293C99.4355 75.4619 99.9376 75.5463 100.453 75.5463C101.279 75.5463 101.888 75.3508 102.279 74.9598C102.679 74.5687 102.879 73.9733 102.879 73.1735V72.6137C102.577 72.978 102.204 73.2535 101.759 73.4401C101.324 73.6179 100.848 73.7067 100.333 73.7067C99.6576 73.7067 99.0445 73.5646 98.4935 73.2802C97.9514 72.9869 97.5248 72.5826 97.2138 72.0671C96.9028 71.5428 96.7473 70.9474 96.7473 70.2809C96.7473 69.6144 96.9028 69.0235 97.2138 68.508C97.5248 67.9837 97.9514 67.5794 98.4935 67.295C99.0445 67.0106 99.6576 66.8684 100.333 66.8684C100.866 66.8684 101.359 66.9662 101.813 67.1617C102.275 67.3572 102.652 67.646 102.946 68.0282V66.9351H104.159ZM100.48 72.587C100.942 72.587 101.355 72.4893 101.719 72.2938C102.093 72.0983 102.381 71.8272 102.586 71.4806C102.799 71.1252 102.906 70.7253 102.906 70.2809C102.906 69.5967 102.679 69.0457 102.226 68.628C101.773 68.2014 101.191 67.9882 100.48 67.9882C99.7598 67.9882 99.1733 68.2014 98.7201 68.628C98.2669 69.0457 98.0403 69.5967 98.0403 70.2809C98.0403 70.7253 98.1425 71.1252 98.3469 71.4806C98.5601 71.8272 98.849 72.0983 99.2133 72.2938C99.5866 72.4893 100.009 72.587 100.48 72.587ZM113.189 70.5075C113.189 70.6053 113.18 70.7341 113.162 70.8941H107.43C107.51 71.5162 107.781 72.0183 108.243 72.4004C108.714 72.7736 109.297 72.9603 109.99 72.9603C110.834 72.9603 111.514 72.6759 112.029 72.1071L112.736 72.9336C112.416 73.3068 112.016 73.5912 111.536 73.7867C111.065 73.9822 110.536 74.08 109.95 74.08C109.203 74.08 108.541 73.9289 107.964 73.6268C107.386 73.3157 106.937 72.8847 106.617 72.3338C106.306 71.7828 106.151 71.1607 106.151 70.4675C106.151 69.7833 106.302 69.1657 106.604 68.6147C106.915 68.0637 107.337 67.6371 107.87 67.335C108.412 67.024 109.021 66.8684 109.696 66.8684C110.372 66.8684 110.972 67.024 111.496 67.335C112.029 67.6371 112.442 68.0637 112.736 68.6147C113.038 69.1657 113.189 69.7966 113.189 70.5075ZM109.696 67.9482C109.083 67.9482 108.568 68.1348 108.15 68.508C107.741 68.8813 107.501 69.37 107.43 69.9743H111.963C111.891 69.3789 111.647 68.8946 111.229 68.5214C110.821 68.1392 110.31 67.9482 109.696 67.9482ZM124.004 66.8684C124.892 66.8684 125.594 67.1262 126.11 67.6416C126.634 68.157 126.896 68.9213 126.896 69.9343V74H125.617V70.081C125.617 69.3967 125.457 68.8813 125.137 68.5347C124.826 68.1881 124.377 68.0148 123.79 68.0148C123.142 68.0148 122.626 68.2192 122.244 68.628C121.862 69.0279 121.671 69.6055 121.671 70.3609V74H120.391V70.081C120.391 69.3967 120.231 68.8813 119.911 68.5347C119.6 68.1881 119.151 68.0148 118.565 68.0148C117.916 68.0148 117.401 68.2192 117.019 68.628C116.637 69.0279 116.445 69.6055 116.445 70.3609V74H115.166V66.9351H116.392V67.9882C116.65 67.6238 116.988 67.3483 117.405 67.1617C117.823 66.9662 118.298 66.8684 118.832 66.8684C119.383 66.8684 119.871 66.9795 120.298 67.2017C120.724 67.4239 121.053 67.7482 121.284 68.1748C121.551 67.766 121.92 67.4461 122.391 67.215C122.871 66.984 123.408 66.8684 124.004 66.8684ZM131.477 74.08C130.899 74.08 130.344 74.0044 129.811 73.8534C129.277 73.6934 128.86 73.4935 128.558 73.2535L129.091 72.2404C129.402 72.4626 129.78 72.6403 130.224 72.7736C130.668 72.9069 131.117 72.9736 131.57 72.9736C132.69 72.9736 133.25 72.6537 133.25 72.0138C133.25 71.8005 133.174 71.6317 133.023 71.5073C132.872 71.3829 132.681 71.294 132.45 71.2407C132.228 71.1785 131.908 71.1118 131.49 71.0407C130.921 70.9519 130.455 70.8497 130.091 70.7341C129.735 70.6186 129.429 70.4231 129.171 70.1476C128.913 69.8721 128.784 69.4856 128.784 68.9879C128.784 68.3481 129.051 67.8371 129.584 67.455C130.117 67.064 130.833 66.8684 131.73 66.8684C132.201 66.8684 132.672 66.9262 133.143 67.0417C133.614 67.1573 134.001 67.3128 134.303 67.5083L133.756 68.5214C133.179 68.1481 132.499 67.9615 131.717 67.9615C131.175 67.9615 130.762 68.0504 130.477 68.2281C130.193 68.4058 130.051 68.6413 130.051 68.9346C130.051 69.1657 130.131 69.3478 130.291 69.4811C130.45 69.6144 130.646 69.7122 130.877 69.7744C131.117 69.8366 131.45 69.9077 131.877 69.9877C132.446 70.0854 132.903 70.1921 133.25 70.3076C133.605 70.4142 133.907 70.6008 134.156 70.8674C134.405 71.134 134.529 71.5073 134.529 71.9872C134.529 72.627 134.254 73.138 133.703 73.5201C133.161 73.8934 132.419 74.08 131.477 74.08Z" fill="white"/>
<path d="M2.09281 139.547C1.75512 139.547 1.4663 139.432 1.22636 139.201C0.995307 138.97 0.87978 138.676 0.87978 138.321C0.87978 137.983 0.99975 137.699 1.23969 137.468C1.47963 137.228 1.764 137.108 2.09281 137.108C2.42162 137.108 2.70155 137.228 2.9326 137.468C3.17254 137.699 3.29251 137.983 3.29251 138.321C3.29251 138.676 3.17254 138.97 2.9326 139.201C2.70155 139.432 2.42162 139.547 2.09281 139.547ZM16.3427 140.84V142H9.57104V132.669H16.1561V133.829H10.904V136.695H15.5829V137.828H10.904V140.84H16.3427ZM22.2868 134.868C23.1844 134.868 23.8953 135.131 24.4196 135.655C24.9528 136.17 25.2194 136.93 25.2194 137.934V142H23.9397V138.081C23.9397 137.397 23.7753 136.881 23.4465 136.535C23.1177 136.188 22.6467 136.015 22.0336 136.015C21.3404 136.015 20.7939 136.219 20.394 136.628C19.9941 137.028 19.7941 137.606 19.7941 138.361V142H18.5144V134.935H19.7408V136.001C19.9985 135.637 20.3451 135.357 20.7805 135.162C21.2249 134.966 21.727 134.868 22.2868 134.868ZM26.8812 144.666C26.5702 144.666 26.2813 144.63 26.0147 144.559C25.7481 144.488 25.526 144.382 25.3482 144.239L25.7615 143.253C26.0281 143.475 26.3747 143.586 26.8012 143.586C27.1389 143.586 27.3966 143.48 27.5744 143.266C27.761 143.062 27.8543 142.755 27.8543 142.347V134.935H29.134V142.32C29.134 143.049 28.9385 143.622 28.5474 144.039C28.1564 144.457 27.601 144.666 26.8812 144.666ZM28.4941 133.575C28.2453 133.575 28.0365 133.495 27.8676 133.335C27.7077 133.176 27.6277 132.98 27.6277 132.749C27.6277 132.518 27.7077 132.322 27.8676 132.162C28.0365 131.994 28.2453 131.909 28.4941 131.909C28.743 131.909 28.9473 131.989 29.1073 132.149C29.2762 132.3 29.3606 132.491 29.3606 132.722C29.3606 132.962 29.2762 133.167 29.1073 133.335C28.9473 133.495 28.743 133.575 28.4941 133.575ZM34.8016 142.08C34.0996 142.08 33.4686 141.924 32.9087 141.613C32.3489 141.302 31.909 140.876 31.5891 140.334C31.278 139.783 31.1225 139.161 31.1225 138.468C31.1225 137.774 31.278 137.157 31.5891 136.615C31.909 136.064 32.3489 135.637 32.9087 135.335C33.4686 135.024 34.0996 134.868 34.8016 134.868C35.5037 134.868 36.1302 135.024 36.6811 135.335C37.241 135.637 37.6764 136.064 37.9875 136.615C38.3074 137.157 38.4674 137.774 38.4674 138.468C38.4674 139.161 38.3074 139.783 37.9875 140.334C37.6764 140.876 37.241 141.302 36.6811 141.613C36.1302 141.924 35.5037 142.08 34.8016 142.08ZM34.8016 140.96C35.2548 140.96 35.6592 140.858 36.0146 140.654C36.379 140.44 36.6634 140.147 36.8678 139.774C37.0722 139.392 37.1744 138.956 37.1744 138.468C37.1744 137.979 37.0722 137.548 36.8678 137.175C36.6634 136.792 36.379 136.499 36.0146 136.295C35.6592 136.09 35.2548 135.988 34.8016 135.988C34.3484 135.988 33.9396 136.09 33.5752 136.295C33.2198 136.499 32.9354 136.792 32.7221 137.175C32.5177 137.548 32.4155 137.979 32.4155 138.468C32.4155 138.956 32.5177 139.392 32.7221 139.774C32.9354 140.147 33.2198 140.44 33.5752 140.654C33.9396 140.858 34.3484 140.96 34.8016 140.96ZM46.4936 134.935L43.0678 142.706C42.7656 143.426 42.4102 143.933 42.0014 144.226C41.6015 144.519 41.1171 144.666 40.5484 144.666C40.2018 144.666 39.8641 144.608 39.5353 144.493C39.2154 144.386 38.9488 144.226 38.7355 144.013L39.2821 143.053C39.6464 143.4 40.0685 143.573 40.5484 143.573C40.8594 143.573 41.1171 143.489 41.3215 143.32C41.5348 143.16 41.7259 142.88 41.8947 142.48L42.1213 141.987L39.0021 134.935H40.3351L42.8012 140.587L45.2406 134.935H46.4936ZM55.6399 141.587C55.4533 141.747 55.2223 141.871 54.9468 141.96C54.6713 142.04 54.3869 142.08 54.0937 142.08C53.3827 142.08 52.8318 141.889 52.4407 141.507C52.0497 141.125 51.8542 140.578 51.8542 139.867V135.988H50.6545V134.935H51.8542V133.389H53.1339V134.935H55.1601V135.988H53.1339V139.814C53.1339 140.196 53.2272 140.489 53.4138 140.694C53.6093 140.898 53.8848 141 54.2403 141C54.6313 141 54.9646 140.889 55.24 140.667L55.6399 141.587ZM61.1594 134.868C62.0569 134.868 62.7679 135.131 63.2922 135.655C63.8254 136.17 64.092 136.93 64.092 137.934V142H62.8123V138.081C62.8123 137.397 62.6479 136.881 62.3191 136.535C61.9903 136.188 61.5193 136.015 60.9061 136.015C60.213 136.015 59.6664 136.219 59.2665 136.628C58.8666 137.028 58.6667 137.606 58.6667 138.361V142H57.387V132.109H58.6667V135.935C58.9333 135.597 59.2799 135.335 59.7064 135.148C60.1419 134.962 60.6262 134.868 61.1594 134.868ZM73.0843 138.508C73.0843 138.605 73.0754 138.734 73.0577 138.894H67.3258C67.4057 139.516 67.6768 140.018 68.1389 140.4C68.6099 140.774 69.192 140.96 69.8851 140.96C70.7294 140.96 71.4092 140.676 71.9246 140.107L72.6311 140.934C72.3112 141.307 71.9113 141.591 71.4314 141.787C70.9604 141.982 70.4317 142.08 69.8451 142.08C69.0987 142.08 68.4366 141.929 67.859 141.627C67.2813 141.316 66.8326 140.885 66.5126 140.334C66.2016 139.783 66.0461 139.161 66.0461 138.468C66.0461 137.783 66.1972 137.166 66.4993 136.615C66.8103 136.064 67.2325 135.637 67.7657 135.335C68.3077 135.024 68.9165 134.868 69.5919 134.868C70.2673 134.868 70.8671 135.024 71.3914 135.335C71.9246 135.637 72.3378 136.064 72.6311 136.615C72.9333 137.166 73.0843 137.797 73.0843 138.508ZM69.5919 135.948C68.9787 135.948 68.4633 136.135 68.0456 136.508C67.6368 136.881 67.3969 137.37 67.3258 137.974H71.858C71.7869 137.379 71.5425 136.895 71.1248 136.521C70.716 136.139 70.205 135.948 69.5919 135.948ZM82.6134 134.868C83.511 134.868 84.2219 135.131 84.7462 135.655C85.2794 136.17 85.546 136.93 85.546 137.934V142H84.2663V138.081C84.2663 137.397 84.1019 136.881 83.7731 136.535C83.4443 136.188 82.9733 136.015 82.3601 136.015C81.667 136.015 81.1204 136.219 80.7205 136.628C80.3206 137.028 80.1207 137.606 80.1207 138.361V142H78.841V134.935H80.0674V136.001C80.3251 135.637 80.6717 135.357 81.1071 135.162C81.5514 134.966 82.0535 134.868 82.6134 134.868ZM94.5383 138.508C94.5383 138.605 94.5295 138.734 94.5117 138.894H88.7798C88.8598 139.516 89.1308 140.018 89.5929 140.4C90.0639 140.774 90.646 140.96 91.3391 140.96C92.1834 140.96 92.8632 140.676 93.3786 140.107L94.0851 140.934C93.7652 141.307 93.3653 141.591 92.8854 141.787C92.4144 141.982 91.8857 142.08 91.2991 142.08C90.5527 142.08 89.8906 141.929 89.313 141.627C88.7353 141.316 88.2866 140.885 87.9666 140.334C87.6556 139.783 87.5001 139.161 87.5001 138.468C87.5001 137.783 87.6512 137.166 87.9533 136.615C88.2644 136.064 88.6865 135.637 89.2197 135.335C89.7618 135.024 90.3705 134.868 91.0459 134.868C91.7213 134.868 92.3211 135.024 92.8454 135.335C93.3786 135.637 93.7919 136.064 94.0851 136.615C94.3873 137.166 94.5383 137.797 94.5383 138.508ZM91.0459 135.948C90.4327 135.948 89.9173 136.135 89.4996 136.508C89.0908 136.881 88.8509 137.37 88.7798 137.974H93.312C93.2409 137.379 92.9965 136.895 92.5788 136.521C92.17 136.139 91.6591 135.948 91.0459 135.948ZM107.076 134.935L104.436 142H103.21L101.171 136.641L99.1044 142H97.878L95.252 134.935H96.465L98.5179 140.56L100.651 134.935H101.73L103.823 140.587L105.929 134.935H107.076ZM114.927 134.868C115.904 134.868 116.651 135.108 117.166 135.588C117.69 136.068 117.953 136.784 117.953 137.734V142H116.74V141.067C116.526 141.396 116.22 141.649 115.82 141.827C115.429 141.996 114.962 142.08 114.42 142.08C113.629 142.08 112.994 141.889 112.514 141.507C112.043 141.125 111.807 140.623 111.807 140C111.807 139.378 112.034 138.881 112.487 138.508C112.941 138.125 113.66 137.934 114.647 137.934H116.673V137.681C116.673 137.13 116.513 136.708 116.193 136.415C115.873 136.121 115.402 135.975 114.78 135.975C114.362 135.975 113.954 136.046 113.554 136.188C113.154 136.321 112.816 136.504 112.541 136.735L112.007 135.775C112.372 135.482 112.807 135.259 113.314 135.108C113.82 134.948 114.358 134.868 114.927 134.868ZM114.633 141.094C115.122 141.094 115.544 140.987 115.9 140.774C116.255 140.551 116.513 140.24 116.673 139.841V138.854H114.7C113.616 138.854 113.074 139.218 113.074 139.947C113.074 140.303 113.212 140.583 113.487 140.787C113.763 140.991 114.145 141.094 114.633 141.094ZM124.493 141.587C124.306 141.747 124.075 141.871 123.8 141.96C123.524 142.04 123.24 142.08 122.947 142.08C122.236 142.08 121.685 141.889 121.294 141.507C120.903 141.125 120.707 140.578 120.707 139.867V135.988H119.508V134.935H120.707V133.389H121.987V134.935H124.013V135.988H121.987V139.814C121.987 140.196 122.08 140.489 122.267 140.694C122.462 140.898 122.738 141 123.093 141C123.484 141 123.818 140.889 124.093 140.667L124.493 141.587ZM135.078 134.868C135.967 134.868 136.669 135.126 137.184 135.642C137.708 136.157 137.971 136.921 137.971 137.934V142H136.691V138.081C136.691 137.397 136.531 136.881 136.211 136.535C135.9 136.188 135.451 136.015 134.865 136.015C134.216 136.015 133.7 136.219 133.318 136.628C132.936 137.028 132.745 137.606 132.745 138.361V142H131.465V138.081C131.465 137.397 131.305 136.881 130.986 136.535C130.675 136.188 130.226 136.015 129.639 136.015C128.991 136.015 128.475 136.219 128.093 136.628C127.711 137.028 127.52 137.606 127.52 138.361V142H126.24V134.935H127.466V135.988C127.724 135.624 128.062 135.348 128.48 135.162C128.897 134.966 129.373 134.868 129.906 134.868C130.457 134.868 130.946 134.98 131.372 135.202C131.799 135.424 132.128 135.748 132.359 136.175C132.625 135.766 132.994 135.446 133.465 135.215C133.945 134.984 134.482 134.868 135.078 134.868ZM143.59 142.08C142.888 142.08 142.257 141.924 141.697 141.613C141.137 141.302 140.697 140.876 140.377 140.334C140.066 139.783 139.911 139.161 139.911 138.468C139.911 137.774 140.066 137.157 140.377 136.615C140.697 136.064 141.137 135.637 141.697 135.335C142.257 135.024 142.888 134.868 143.59 134.868C144.292 134.868 144.919 135.024 145.47 135.335C146.029 135.637 146.465 136.064 146.776 136.615C147.096 137.157 147.256 137.774 147.256 138.468C147.256 139.161 147.096 139.783 146.776 140.334C146.465 140.876 146.029 141.302 145.47 141.613C144.919 141.924 144.292 142.08 143.59 142.08ZM143.59 140.96C144.043 140.96 144.448 140.858 144.803 140.654C145.167 140.44 145.452 140.147 145.656 139.774C145.861 139.392 145.963 138.956 145.963 138.468C145.963 137.979 145.861 137.548 145.656 137.175C145.452 136.792 145.167 136.499 144.803 136.295C144.448 136.09 144.043 135.988 143.59 135.988C143.137 135.988 142.728 136.09 142.364 136.295C142.008 136.499 141.724 136.792 141.511 137.175C141.306 137.548 141.204 137.979 141.204 138.468C141.204 138.956 141.306 139.392 141.511 139.774C141.724 140.147 142.008 140.44 142.364 140.654C142.728 140.858 143.137 140.96 143.59 140.96ZM151.252 142.08C150.674 142.08 150.119 142.004 149.585 141.853C149.052 141.693 148.635 141.493 148.332 141.254L148.866 140.24C149.177 140.463 149.554 140.64 149.999 140.774C150.443 140.907 150.892 140.974 151.345 140.974C152.465 140.974 153.025 140.654 153.025 140.014C153.025 139.801 152.949 139.632 152.798 139.507C152.647 139.383 152.456 139.294 152.225 139.241C152.003 139.178 151.683 139.112 151.265 139.041C150.696 138.952 150.23 138.85 149.865 138.734C149.51 138.619 149.203 138.423 148.946 138.148C148.688 137.872 148.559 137.486 148.559 136.988C148.559 136.348 148.826 135.837 149.359 135.455C149.892 135.064 150.607 134.868 151.505 134.868C151.976 134.868 152.447 134.926 152.918 135.042C153.389 135.157 153.775 135.313 154.078 135.508L153.531 136.521C152.953 136.148 152.274 135.962 151.492 135.962C150.95 135.962 150.536 136.05 150.252 136.228C149.968 136.406 149.825 136.641 149.825 136.935C149.825 137.166 149.905 137.348 150.065 137.481C150.225 137.614 150.421 137.712 150.652 137.774C150.892 137.837 151.225 137.908 151.652 137.988C152.22 138.085 152.678 138.192 153.025 138.308C153.38 138.414 153.682 138.601 153.931 138.867C154.18 139.134 154.304 139.507 154.304 139.987C154.304 140.627 154.029 141.138 153.478 141.52C152.936 141.893 152.194 142.08 151.252 142.08ZM159.849 134.868C160.533 134.868 161.147 135.02 161.689 135.322C162.231 135.624 162.653 136.046 162.955 136.588C163.266 137.13 163.422 137.757 163.422 138.468C163.422 139.178 163.266 139.809 162.955 140.36C162.653 140.902 162.231 141.325 161.689 141.627C161.147 141.929 160.533 142.08 159.849 142.08C159.343 142.08 158.876 141.982 158.45 141.787C158.032 141.591 157.676 141.307 157.383 140.934V144.586H156.103V134.935H157.33V136.055C157.614 135.664 157.974 135.371 158.41 135.175C158.845 134.971 159.325 134.868 159.849 134.868ZM159.743 140.96C160.196 140.96 160.6 140.858 160.956 140.654C161.32 140.44 161.604 140.147 161.809 139.774C162.022 139.392 162.129 138.956 162.129 138.468C162.129 137.979 162.022 137.548 161.809 137.175C161.604 136.792 161.32 136.499 160.956 136.295C160.6 136.09 160.196 135.988 159.743 135.988C159.298 135.988 158.894 136.095 158.53 136.308C158.174 136.512 157.89 136.801 157.676 137.175C157.472 137.548 157.37 137.979 157.37 138.468C157.37 138.956 157.472 139.392 157.676 139.774C157.881 140.147 158.165 140.44 158.53 140.654C158.894 140.858 159.298 140.96 159.743 140.96ZM169.162 134.868C170.06 134.868 170.771 135.131 171.295 135.655C171.828 136.17 172.095 136.93 172.095 137.934V142H170.815V138.081C170.815 137.397 170.651 136.881 170.322 136.535C169.993 136.188 169.522 136.015 168.909 136.015C168.216 136.015 167.669 136.219 167.269 136.628C166.869 137.028 166.669 137.606 166.669 138.361V142H165.39V132.109H166.669V135.935C166.936 135.597 167.283 135.335 167.709 135.148C168.145 134.962 168.629 134.868 169.162 134.868ZM181.087 138.508C181.087 138.605 181.078 138.734 181.06 138.894H175.328C175.408 139.516 175.679 140.018 176.142 140.4C176.613 140.774 177.195 140.96 177.888 140.96C178.732 140.96 179.412 140.676 179.927 140.107L180.634 140.934C180.314 141.307 179.914 141.591 179.434 141.787C178.963 141.982 178.434 142.08 177.848 142.08C177.101 142.08 176.439 141.929 175.862 141.627C175.284 141.316 174.835 140.885 174.515 140.334C174.204 139.783 174.049 139.161 174.049 138.468C174.049 137.783 174.2 137.166 174.502 136.615C174.813 136.064 175.235 135.637 175.768 135.335C176.31 135.024 176.919 134.868 177.595 134.868C178.27 134.868 178.87 135.024 179.394 135.335C179.927 135.637 180.341 136.064 180.634 136.615C180.936 137.166 181.087 137.797 181.087 138.508ZM177.595 135.948C176.981 135.948 176.466 136.135 176.048 136.508C175.639 136.881 175.4 137.37 175.328 137.974H179.861C179.79 137.379 179.545 136.895 179.127 136.521C178.719 136.139 178.208 135.948 177.595 135.948ZM184.29 136.121C184.512 135.713 184.841 135.402 185.277 135.188C185.712 134.975 186.241 134.868 186.863 134.868V136.108C186.792 136.099 186.694 136.095 186.57 136.095C185.877 136.095 185.33 136.304 184.93 136.721C184.539 137.13 184.344 137.717 184.344 138.481V142H183.064V134.935H184.29V136.121ZM194.96 138.508C194.96 138.605 194.951 138.734 194.933 138.894H189.202C189.282 139.516 189.553 140.018 190.015 140.4C190.486 140.774 191.068 140.96 191.761 140.96C192.605 140.96 193.285 140.676 193.8 140.107L194.507 140.934C194.187 141.307 193.787 141.591 193.307 141.787C192.836 141.982 192.307 142.08 191.721 142.08C190.974 142.08 190.312 141.929 189.735 141.627C189.157 141.316 188.708 140.885 188.388 140.334C188.077 139.783 187.922 139.161 187.922 138.468C187.922 137.783 188.073 137.166 188.375 136.615C188.686 136.064 189.108 135.637 189.641 135.335C190.184 135.024 190.792 134.868 191.468 134.868C192.143 134.868 192.743 135.024 193.267 135.335C193.8 135.637 194.214 136.064 194.507 136.615C194.809 137.166 194.96 137.797 194.96 138.508ZM191.468 135.948C190.854 135.948 190.339 136.135 189.921 136.508C189.513 136.881 189.273 137.37 189.202 137.974H193.734C193.663 137.379 193.418 136.895 193.001 136.521C192.592 136.139 192.081 135.948 191.468 135.948ZM203.289 134.868C204.267 134.868 205.013 135.108 205.529 135.588C206.053 136.068 206.315 136.784 206.315 137.734V142H205.102V141.067C204.889 141.396 204.582 141.649 204.183 141.827C203.792 141.996 203.325 142.08 202.783 142.08C201.992 142.08 201.357 141.889 200.877 141.507C200.406 141.125 200.17 140.623 200.17 140C200.17 139.378 200.397 138.881 200.85 138.508C201.303 138.125 202.023 137.934 203.01 137.934H205.036V137.681C205.036 137.13 204.876 136.708 204.556 136.415C204.236 136.121 203.765 135.975 203.143 135.975C202.725 135.975 202.316 136.046 201.916 136.188C201.517 136.321 201.179 136.504 200.903 136.735L200.37 135.775C200.735 135.482 201.17 135.259 201.677 135.108C202.183 134.948 202.721 134.868 203.289 134.868ZM202.996 141.094C203.485 141.094 203.907 140.987 204.263 140.774C204.618 140.551 204.876 140.24 205.036 139.841V138.854H203.063C201.979 138.854 201.437 139.218 201.437 139.947C201.437 140.303 201.574 140.583 201.85 140.787C202.125 140.991 202.507 141.094 202.996 141.094ZM212.656 134.868C213.553 134.868 214.264 135.131 214.789 135.655C215.322 136.17 215.588 136.93 215.588 137.934V142H214.309V138.081C214.309 137.397 214.144 136.881 213.816 136.535C213.487 136.188 213.016 136.015 212.403 136.015C211.709 136.015 211.163 136.219 210.763 136.628C210.363 137.028 210.163 137.606 210.163 138.361V142H208.884V134.935H210.11V136.001C210.368 135.637 210.714 135.357 211.15 135.162C211.594 134.966 212.096 134.868 212.656 134.868ZM224.861 132.109V142H223.634V140.88C223.35 141.271 222.99 141.569 222.555 141.773C222.119 141.978 221.639 142.08 221.115 142.08C220.431 142.08 219.818 141.929 219.275 141.627C218.733 141.325 218.307 140.902 217.996 140.36C217.694 139.809 217.543 139.178 217.543 138.468C217.543 137.757 217.694 137.13 217.996 136.588C218.307 136.046 218.733 135.624 219.275 135.322C219.818 135.02 220.431 134.868 221.115 134.868C221.622 134.868 222.088 134.966 222.515 135.162C222.941 135.348 223.297 135.628 223.581 136.001V132.109H224.861ZM221.222 140.96C221.666 140.96 222.07 140.858 222.435 140.654C222.799 140.44 223.083 140.147 223.288 139.774C223.492 139.392 223.594 138.956 223.594 138.468C223.594 137.979 223.492 137.548 223.288 137.175C223.083 136.792 222.799 136.499 222.435 136.295C222.07 136.09 221.666 135.988 221.222 135.988C220.768 135.988 220.36 136.09 219.995 136.295C219.64 136.499 219.355 136.792 219.142 137.175C218.938 137.548 218.836 137.979 218.836 138.468C218.836 138.956 218.938 139.392 219.142 139.774C219.355 140.147 219.64 140.44 219.995 140.654C220.36 140.858 220.768 140.96 221.222 140.96ZM232.488 136.121C232.71 135.713 233.039 135.402 233.475 135.188C233.91 134.975 234.439 134.868 235.061 134.868V136.108C234.99 136.099 234.892 136.095 234.768 136.095C234.074 136.095 233.528 136.304 233.128 136.721C232.737 137.13 232.541 137.717 232.541 138.481V142H231.262V134.935H232.488V136.121ZM243.158 138.508C243.158 138.605 243.149 138.734 243.131 138.894H237.399C237.479 139.516 237.75 140.018 238.213 140.4C238.684 140.774 239.266 140.96 239.959 140.96C240.803 140.96 241.483 140.676 241.998 140.107L242.705 140.934C242.385 141.307 241.985 141.591 241.505 141.787C241.034 141.982 240.505 142.08 239.919 142.08C239.172 142.08 238.51 141.929 237.933 141.627C237.355 141.316 236.906 140.885 236.586 140.334C236.275 139.783 236.12 139.161 236.12 138.468C236.12 137.783 236.271 137.166 236.573 136.615C236.884 136.064 237.306 135.637 237.839 135.335C238.381 135.024 238.99 134.868 239.665 134.868C240.341 134.868 240.941 135.024 241.465 135.335C241.998 135.637 242.411 136.064 242.705 136.615C243.007 137.166 243.158 137.797 243.158 138.508ZM239.665 135.948C239.052 135.948 238.537 136.135 238.119 136.508C237.71 136.881 237.47 137.37 237.399 137.974H241.932C241.86 137.379 241.616 136.895 241.198 136.521C240.79 136.139 240.279 135.948 239.665 135.948ZM245.135 132.109H246.415V142H245.135V132.109ZM251.631 134.868C252.608 134.868 253.355 135.108 253.87 135.588C254.394 136.068 254.656 136.784 254.656 137.734V142H253.443V141.067C253.23 141.396 252.924 141.649 252.524 141.827C252.133 141.996 251.666 142.08 251.124 142.08C250.333 142.08 249.698 141.889 249.218 141.507C248.747 141.125 248.511 140.623 248.511 140C248.511 139.378 248.738 138.881 249.191 138.508C249.644 138.125 250.364 137.934 251.351 137.934H253.377V137.681C253.377 137.13 253.217 136.708 252.897 136.415C252.577 136.121 252.106 135.975 251.484 135.975C251.066 135.975 250.657 136.046 250.258 136.188C249.858 136.321 249.52 136.504 249.244 136.735L248.711 135.775C249.076 135.482 249.511 135.259 250.018 135.108C250.524 134.948 251.062 134.868 251.631 134.868ZM251.337 141.094C251.826 141.094 252.248 140.987 252.604 140.774C252.959 140.551 253.217 140.24 253.377 139.841V138.854H251.404C250.32 138.854 249.778 139.218 249.778 139.947C249.778 140.303 249.915 140.583 250.191 140.787C250.466 140.991 250.848 141.094 251.337 141.094ZM261.73 142L259.691 139.294L257.624 142H256.198L258.984 138.388L256.331 134.935H257.758L259.704 137.481L261.637 134.935H263.036L260.37 138.388L263.183 142H261.73Z" fill="white"/>
<path d="M2.09281 173.547C1.75512 173.547 1.4663 173.432 1.22636 173.201C0.995307 172.97 0.87978 172.676 0.87978 172.321C0.87978 171.983 0.99975 171.699 1.23969 171.468C1.47963 171.228 1.764 171.108 2.09281 171.108C2.42162 171.108 2.70155 171.228 2.9326 171.468C3.17254 171.699 3.29251 171.983 3.29251 172.321C3.29251 172.676 3.17254 172.97 2.9326 173.201C2.70155 173.432 2.42162 173.547 2.09281 173.547ZM15.8495 171.161C16.3916 171.312 16.8181 171.588 17.1292 171.988C17.4402 172.379 17.5957 172.876 17.5957 173.481C17.5957 174.289 17.2891 174.911 16.6759 175.347C16.0716 175.782 15.1874 176 14.0233 176H9.57104V166.669H13.7567C14.8231 166.669 15.6451 166.882 16.2227 167.309C16.8092 167.735 17.1025 168.326 17.1025 169.082C17.1025 169.57 16.987 169.993 16.7559 170.348C16.5337 170.704 16.2316 170.975 15.8495 171.161ZM10.904 167.749V170.735H13.6367C14.321 170.735 14.8453 170.61 15.2096 170.361C15.5829 170.104 15.7695 169.73 15.7695 169.242C15.7695 168.753 15.5829 168.384 15.2096 168.135C14.8453 167.878 14.321 167.749 13.6367 167.749H10.904ZM13.9699 174.92C14.7253 174.92 15.2941 174.796 15.6762 174.547C16.0583 174.298 16.2494 173.907 16.2494 173.374C16.2494 172.334 15.4896 171.814 13.9699 171.814H10.904V174.92H13.9699ZM26.0581 172.508C26.0581 172.605 26.0492 172.734 26.0314 172.894H20.2995C20.3795 173.516 20.6505 174.018 21.1126 174.4C21.5836 174.774 22.1657 174.96 22.8589 174.96C23.7031 174.96 24.3829 174.676 24.8984 174.107L25.6048 174.934C25.2849 175.307 24.885 175.591 24.4051 175.787C23.9342 175.982 23.4054 176.08 22.8189 176.08C22.0724 176.08 21.4103 175.929 20.8327 175.627C20.2551 175.316 19.8063 174.885 19.4864 174.334C19.1753 173.783 19.0198 173.161 19.0198 172.468C19.0198 171.783 19.1709 171.166 19.473 170.615C19.7841 170.064 20.2062 169.637 20.7394 169.335C21.2815 169.024 21.8902 168.868 22.5656 168.868C23.241 168.868 23.8408 169.024 24.3652 169.335C24.8984 169.637 25.3116 170.064 25.6048 170.615C25.907 171.166 26.0581 171.797 26.0581 172.508ZM22.5656 169.948C21.9524 169.948 21.437 170.135 21.0193 170.508C20.6105 170.881 20.3706 171.37 20.2995 171.974H24.8317C24.7606 171.379 24.5162 170.895 24.0986 170.521C23.6898 170.139 23.1788 169.948 22.5656 169.948ZM34.3874 168.868C35.365 168.868 36.1115 169.108 36.6269 169.588C37.1512 170.068 37.4134 170.784 37.4134 171.734V176H36.2003V175.067C35.987 175.396 35.6805 175.649 35.2806 175.827C34.8895 175.996 34.423 176.08 33.8809 176.08C33.09 176.08 32.4546 175.889 31.9747 175.507C31.5037 175.125 31.2682 174.623 31.2682 174C31.2682 173.378 31.4948 172.881 31.9481 172.508C32.4013 172.125 33.1211 171.934 34.1075 171.934H36.1337V171.681C36.1337 171.13 35.9737 170.708 35.6538 170.415C35.3339 170.121 34.8629 169.975 34.2408 169.975C33.8231 169.975 33.4144 170.046 33.0145 170.188C32.6146 170.321 32.2769 170.504 32.0014 170.735L31.4682 169.775C31.8325 169.482 32.268 169.259 32.7745 169.108C33.2811 168.948 33.8187 168.868 34.3874 168.868ZM34.0942 175.094C34.5829 175.094 35.0051 174.987 35.3605 174.774C35.716 174.551 35.9737 174.24 36.1337 173.841V172.854H34.1608C33.0767 172.854 32.5346 173.218 32.5346 173.947C32.5346 174.303 32.6723 174.583 32.9478 174.787C33.2233 174.991 33.6054 175.094 34.0942 175.094ZM50.5419 168.935L47.9026 176H46.6762L44.6368 170.641L42.5706 176H41.3442L38.7182 168.935H39.9313L41.9841 174.56L44.1169 168.935H45.1966L47.2894 174.587L49.3956 168.935H50.5419ZM54.3918 168.868C55.3693 168.868 56.1158 169.108 56.6313 169.588C57.1556 170.068 57.4177 170.784 57.4177 171.734V176H56.2047V175.067C55.9914 175.396 55.6848 175.649 55.2849 175.827C54.8939 175.996 54.4274 176.08 53.8853 176.08C53.0944 176.08 52.459 175.889 51.9791 175.507C51.5081 175.125 51.2726 174.623 51.2726 174C51.2726 173.378 51.4992 172.881 51.9524 172.508C52.4056 172.125 53.1255 171.934 54.1119 171.934H56.138V171.681C56.138 171.13 55.9781 170.708 55.6582 170.415C55.3382 170.121 54.8673 169.975 54.2452 169.975C53.8275 169.975 53.4187 170.046 53.0188 170.188C52.6189 170.321 52.2812 170.504 52.0057 170.735L51.4725 169.775C51.8369 169.482 52.2723 169.259 52.7789 169.108C53.2854 168.948 53.8231 168.868 54.3918 168.868ZM54.0986 175.094C54.5873 175.094 55.0094 174.987 55.3649 174.774C55.7204 174.551 55.9781 174.24 56.138 173.841V172.854H54.1652C53.081 172.854 52.5389 173.218 52.5389 173.947C52.5389 174.303 52.6767 174.583 52.9522 174.787C53.2277 174.991 53.6098 175.094 54.0986 175.094ZM61.2122 170.121C61.4344 169.713 61.7632 169.402 62.1986 169.188C62.6341 168.975 63.1628 168.868 63.7849 168.868V170.108C63.7138 170.099 63.616 170.095 63.4916 170.095C62.7985 170.095 62.2519 170.304 61.852 170.721C61.461 171.13 61.2655 171.717 61.2655 172.481V176H59.9858V168.935H61.2122V170.121ZM71.882 172.508C71.882 172.605 71.8731 172.734 71.8554 172.894H66.1235C66.2034 173.516 66.4745 174.018 66.9366 174.4C67.4076 174.774 67.9897 174.96 68.6828 174.96C69.5271 174.96 70.2069 174.676 70.7223 174.107L71.4288 174.934C71.1089 175.307 70.709 175.591 70.2291 175.787C69.7581 175.982 69.2294 176.08 68.6428 176.08C67.8964 176.08 67.2343 175.929 66.6567 175.627C66.079 175.316 65.6303 174.885 65.3103 174.334C64.9993 173.783 64.8438 173.161 64.8438 172.468C64.8438 171.783 64.9949 171.166 65.297 170.615C65.608 170.064 66.0302 169.637 66.5634 169.335C67.1054 169.024 67.7142 168.868 68.3896 168.868C69.065 168.868 69.6648 169.024 70.1891 169.335C70.7223 169.637 71.1355 170.064 71.4288 170.615C71.731 171.166 71.882 171.797 71.882 172.508ZM68.3896 169.948C67.7764 169.948 67.261 170.135 66.8433 170.508C66.4345 170.881 66.1946 171.37 66.1235 171.974H70.6557C70.5846 171.379 70.3402 170.895 69.9225 170.521C69.5137 170.139 69.0027 169.948 68.3896 169.948ZM80.6646 176.08C79.9626 176.08 79.3316 175.924 78.7718 175.613C78.2119 175.302 77.772 174.876 77.4521 174.334C77.1411 173.783 76.9855 173.161 76.9855 172.468C76.9855 171.774 77.1411 171.157 77.4521 170.615C77.772 170.064 78.2119 169.637 78.7718 169.335C79.3316 169.024 79.9626 168.868 80.6646 168.868C81.3667 168.868 81.9932 169.024 82.5442 169.335C83.104 169.637 83.5395 170.064 83.8505 170.615C84.1704 171.157 84.3304 171.774 84.3304 172.468C84.3304 173.161 84.1704 173.783 83.8505 174.334C83.5395 174.876 83.104 175.302 82.5442 175.613C81.9932 175.924 81.3667 176.08 80.6646 176.08ZM80.6646 174.96C81.1178 174.96 81.5222 174.858 81.8777 174.654C82.242 174.44 82.5264 174.147 82.7308 173.774C82.9352 173.392 83.0374 172.956 83.0374 172.468C83.0374 171.979 82.9352 171.548 82.7308 171.175C82.5264 170.792 82.242 170.499 81.8777 170.295C81.5222 170.09 81.1178 169.988 80.6646 169.988C80.2114 169.988 79.8026 170.09 79.4383 170.295C79.0828 170.499 78.7984 170.792 78.5851 171.175C78.3807 171.548 78.2786 171.979 78.2786 172.468C78.2786 172.956 78.3807 173.392 78.5851 173.774C78.7984 174.147 79.0828 174.44 79.4383 174.654C79.8026 174.858 80.2114 174.96 80.6646 174.96ZM88.8861 167.082C88.1219 167.082 87.7397 167.495 87.7397 168.322V168.935H89.7925V169.988H87.7664V176H86.4867V169.988H85.287V168.935H86.4867V168.309C86.4867 167.607 86.6911 167.051 87.0999 166.642C87.5087 166.234 88.0819 166.029 88.8195 166.029C89.1038 166.029 89.3704 166.065 89.6193 166.136C89.8681 166.207 90.0814 166.309 90.2591 166.442L89.8725 167.415C89.5793 167.193 89.2505 167.082 88.8861 167.082ZM98.7249 168.868C99.4092 168.868 100.022 169.02 100.564 169.322C101.107 169.624 101.529 170.046 101.831 170.588C102.142 171.13 102.297 171.757 102.297 172.468C102.297 173.178 102.142 173.809 101.831 174.36C101.529 174.902 101.107 175.325 100.564 175.627C100.022 175.929 99.4092 176.08 98.7249 176.08C98.2184 176.08 97.7518 175.982 97.3252 175.787C96.9076 175.591 96.5521 175.307 96.2588 174.934V178.586H94.9792V168.935H96.2055V170.055C96.4899 169.664 96.8498 169.371 97.2853 169.175C97.7207 168.971 98.2006 168.868 98.7249 168.868ZM98.6183 174.96C99.0715 174.96 99.4758 174.858 99.8313 174.654C100.196 174.44 100.48 174.147 100.684 173.774C100.898 173.392 101.004 172.956 101.004 172.468C101.004 171.979 100.898 171.548 100.684 171.175C100.48 170.792 100.196 170.499 99.8313 170.295C99.4758 170.09 99.0715 169.988 98.6183 169.988C98.1739 169.988 97.7696 170.095 97.4052 170.308C97.0498 170.512 96.7654 170.801 96.5521 171.175C96.3477 171.548 96.2455 171.979 96.2455 172.468C96.2455 172.956 96.3477 173.392 96.5521 173.774C96.7565 174.147 97.0409 174.44 97.4052 174.654C97.7696 174.858 98.1739 174.96 98.6183 174.96ZM107.291 176.08C106.589 176.08 105.958 175.924 105.398 175.613C104.839 175.302 104.399 174.876 104.079 174.334C103.768 173.783 103.612 173.161 103.612 172.468C103.612 171.774 103.768 171.157 104.079 170.615C104.399 170.064 104.839 169.637 105.398 169.335C105.958 169.024 106.589 168.868 107.291 168.868C107.993 168.868 108.62 169.024 109.171 169.335C109.731 169.637 110.166 170.064 110.477 170.615C110.797 171.157 110.957 171.774 110.957 172.468C110.957 173.161 110.797 173.783 110.477 174.334C110.166 174.876 109.731 175.302 109.171 175.613C108.62 175.924 107.993 176.08 107.291 176.08ZM107.291 174.96C107.745 174.96 108.149 174.858 108.504 174.654C108.869 174.44 109.153 174.147 109.357 173.774C109.562 173.392 109.664 172.956 109.664 172.468C109.664 171.979 109.562 171.548 109.357 171.175C109.153 170.792 108.869 170.499 108.504 170.295C108.149 170.09 107.745 169.988 107.291 169.988C106.838 169.988 106.429 170.09 106.065 170.295C105.709 170.499 105.425 170.792 105.212 171.175C105.007 171.548 104.905 171.979 104.905 172.468C104.905 172.956 105.007 173.392 105.212 173.774C105.425 174.147 105.709 174.44 106.065 174.654C106.429 174.858 106.838 174.96 107.291 174.96ZM114.953 176.08C114.375 176.08 113.82 176.004 113.287 175.853C112.753 175.693 112.336 175.493 112.034 175.254L112.567 174.24C112.878 174.463 113.256 174.64 113.7 174.774C114.144 174.907 114.593 174.974 115.046 174.974C116.166 174.974 116.726 174.654 116.726 174.014C116.726 173.801 116.65 173.632 116.499 173.507C116.348 173.383 116.157 173.294 115.926 173.241C115.704 173.178 115.384 173.112 114.966 173.041C114.398 172.952 113.931 172.85 113.567 172.734C113.211 172.619 112.905 172.423 112.647 172.148C112.389 171.872 112.26 171.486 112.26 170.988C112.26 170.348 112.527 169.837 113.06 169.455C113.593 169.064 114.309 168.868 115.206 168.868C115.677 168.868 116.148 168.926 116.619 169.042C117.09 169.157 117.477 169.313 117.779 169.508L117.232 170.521C116.655 170.148 115.975 169.962 115.193 169.962C114.651 169.962 114.238 170.05 113.953 170.228C113.669 170.406 113.527 170.641 113.527 170.935C113.527 171.166 113.607 171.348 113.767 171.481C113.927 171.614 114.122 171.712 114.353 171.774C114.593 171.837 114.926 171.908 115.353 171.988C115.922 172.085 116.379 172.192 116.726 172.308C117.081 172.414 117.383 172.601 117.632 172.867C117.881 173.134 118.005 173.507 118.005 173.987C118.005 174.627 117.73 175.138 117.179 175.52C116.637 175.893 115.895 176.08 114.953 176.08ZM121.831 176.08C121.253 176.08 120.698 176.004 120.165 175.853C119.631 175.693 119.214 175.493 118.912 175.254L119.445 174.24C119.756 174.463 120.134 174.64 120.578 174.774C121.022 174.907 121.471 174.974 121.924 174.974C123.044 174.974 123.604 174.654 123.604 174.014C123.604 173.801 123.528 173.632 123.377 173.507C123.226 173.383 123.035 173.294 122.804 173.241C122.582 173.178 122.262 173.112 121.844 173.041C121.275 172.952 120.809 172.85 120.445 172.734C120.089 172.619 119.783 172.423 119.525 172.148C119.267 171.872 119.138 171.486 119.138 170.988C119.138 170.348 119.405 169.837 119.938 169.455C120.471 169.064 121.187 168.868 122.084 168.868C122.555 168.868 123.026 168.926 123.497 169.042C123.968 169.157 124.355 169.313 124.657 169.508L124.11 170.521C123.533 170.148 122.853 169.962 122.071 169.962C121.529 169.962 121.116 170.05 120.831 170.228C120.547 170.406 120.405 170.641 120.405 170.935C120.405 171.166 120.485 171.348 120.645 171.481C120.804 171.614 121 171.712 121.231 171.774C121.471 171.837 121.804 171.908 122.231 171.988C122.8 172.085 123.257 172.192 123.604 172.308C123.959 172.414 124.261 172.601 124.51 172.867C124.759 173.134 124.883 173.507 124.883 173.987C124.883 174.627 124.608 175.138 124.057 175.52C123.515 175.893 122.773 176.08 121.831 176.08ZM126.683 168.935H127.962V176H126.683V168.935ZM127.323 167.575C127.074 167.575 126.865 167.495 126.696 167.335C126.536 167.176 126.456 166.98 126.456 166.749C126.456 166.518 126.536 166.322 126.696 166.162C126.865 165.994 127.074 165.909 127.323 165.909C127.571 165.909 127.776 165.989 127.936 166.149C128.105 166.3 128.189 166.491 128.189 166.722C128.189 166.962 128.105 167.167 127.936 167.335C127.776 167.495 127.571 167.575 127.323 167.575ZM134.351 168.868C135.036 168.868 135.649 169.02 136.191 169.322C136.733 169.624 137.155 170.046 137.457 170.588C137.768 171.13 137.924 171.757 137.924 172.468C137.924 173.178 137.768 173.809 137.457 174.36C137.155 174.902 136.733 175.325 136.191 175.627C135.649 175.929 135.036 176.08 134.351 176.08C133.827 176.08 133.347 175.978 132.912 175.773C132.476 175.569 132.116 175.271 131.832 174.88V176H130.606V166.109H131.885V170.001C132.17 169.628 132.525 169.348 132.952 169.162C133.378 168.966 133.845 168.868 134.351 168.868ZM134.245 174.96C134.698 174.96 135.102 174.858 135.458 174.654C135.822 174.44 136.107 174.147 136.311 173.774C136.524 173.392 136.631 172.956 136.631 172.468C136.631 171.979 136.524 171.548 136.311 171.175C136.107 170.792 135.822 170.499 135.458 170.295C135.102 170.09 134.698 169.988 134.245 169.988C133.8 169.988 133.396 170.09 133.032 170.295C132.667 170.499 132.383 170.792 132.179 171.175C131.974 171.548 131.872 171.979 131.872 172.468C131.872 172.956 131.974 173.392 132.179 173.774C132.383 174.147 132.667 174.44 133.032 174.654C133.396 174.858 133.8 174.96 134.245 174.96ZM139.892 166.109H141.172V176H139.892V166.109ZM150.2 172.508C150.2 172.605 150.191 172.734 150.173 172.894H144.441C144.521 173.516 144.792 174.018 145.255 174.4C145.726 174.774 146.308 174.96 147.001 174.96C147.845 174.96 148.525 174.676 149.04 174.107L149.747 174.934C149.427 175.307 149.027 175.591 148.547 175.787C148.076 175.982 147.547 176.08 146.961 176.08C146.214 176.08 145.552 175.929 144.975 175.627C144.397 175.316 143.948 174.885 143.628 174.334C143.317 173.783 143.162 173.161 143.162 172.468C143.162 171.783 143.313 171.166 143.615 170.615C143.926 170.064 144.348 169.637 144.881 169.335C145.423 169.024 146.032 168.868 146.707 168.868C147.383 168.868 147.983 169.024 148.507 169.335C149.04 169.637 149.453 170.064 149.747 170.615C150.049 171.166 150.2 171.797 150.2 172.508ZM146.707 169.948C146.094 169.948 145.579 170.135 145.161 170.508C144.752 170.881 144.512 171.37 144.441 171.974H148.974C148.902 171.379 148.658 170.895 148.24 170.521C147.832 170.139 147.321 169.948 146.707 169.948ZM159.702 168.868C160.387 168.868 161 169.02 161.542 169.322C162.084 169.624 162.506 170.046 162.808 170.588C163.119 171.13 163.275 171.757 163.275 172.468C163.275 173.178 163.119 173.809 162.808 174.36C162.506 174.902 162.084 175.325 161.542 175.627C161 175.929 160.387 176.08 159.702 176.08C159.196 176.08 158.729 175.982 158.303 175.787C157.885 175.591 157.53 175.307 157.236 174.934V178.586H155.957V168.935H157.183V170.055C157.467 169.664 157.827 169.371 158.263 169.175C158.698 168.971 159.178 168.868 159.702 168.868ZM159.596 174.96C160.049 174.96 160.453 174.858 160.809 174.654C161.173 174.44 161.457 174.147 161.662 173.774C161.875 173.392 161.982 172.956 161.982 172.468C161.982 171.979 161.875 171.548 161.662 171.175C161.457 170.792 161.173 170.499 160.809 170.295C160.453 170.09 160.049 169.988 159.596 169.988C159.151 169.988 158.747 170.095 158.383 170.308C158.027 170.512 157.743 170.801 157.53 171.175C157.325 171.548 157.223 171.979 157.223 172.468C157.223 172.956 157.325 173.392 157.53 173.774C157.734 174.147 158.018 174.44 158.383 174.654C158.747 174.858 159.151 174.96 159.596 174.96ZM166.469 170.121C166.691 169.713 167.02 169.402 167.456 169.188C167.891 168.975 168.42 168.868 169.042 168.868V170.108C168.971 170.099 168.873 170.095 168.749 170.095C168.055 170.095 167.509 170.304 167.109 170.721C166.718 171.13 166.523 171.717 166.523 172.481V176H165.243V168.935H166.469V170.121ZM173.78 176.08C173.078 176.08 172.447 175.924 171.887 175.613C171.327 175.302 170.887 174.876 170.567 174.334C170.256 173.783 170.101 173.161 170.101 172.468C170.101 171.774 170.256 171.157 170.567 170.615C170.887 170.064 171.327 169.637 171.887 169.335C172.447 169.024 173.078 168.868 173.78 168.868C174.482 168.868 175.108 169.024 175.659 169.335C176.219 169.637 176.655 170.064 176.966 170.615C177.286 171.157 177.446 171.774 177.446 172.468C177.446 173.161 177.286 173.783 176.966 174.334C176.655 174.876 176.219 175.302 175.659 175.613C175.108 175.924 174.482 176.08 173.78 176.08ZM173.78 174.96C174.233 174.96 174.637 174.858 174.993 174.654C175.357 174.44 175.642 174.147 175.846 173.774C176.05 173.392 176.153 172.956 176.153 172.468C176.153 171.979 176.05 171.548 175.846 171.175C175.642 170.792 175.357 170.499 174.993 170.295C174.637 170.09 174.233 169.988 173.78 169.988C173.327 169.988 172.918 170.09 172.554 170.295C172.198 170.499 171.914 170.792 171.7 171.175C171.496 171.548 171.394 171.979 171.394 172.468C171.394 172.956 171.496 173.392 171.7 173.774C171.914 174.147 172.198 174.44 172.554 174.654C172.918 174.858 173.327 174.96 173.78 174.96ZM183.161 168.868C183.845 168.868 184.459 169.02 185.001 169.322C185.543 169.624 185.965 170.046 186.267 170.588C186.578 171.13 186.734 171.757 186.734 172.468C186.734 173.178 186.578 173.809 186.267 174.36C185.965 174.902 185.543 175.325 185.001 175.627C184.459 175.929 183.845 176.08 183.161 176.08C182.637 176.08 182.157 175.978 181.721 175.773C181.286 175.569 180.926 175.271 180.642 174.88V176H179.415V166.109H180.695V170.001C180.979 169.628 181.335 169.348 181.761 169.162C182.188 168.966 182.655 168.868 183.161 168.868ZM183.054 174.96C183.508 174.96 183.912 174.858 184.267 174.654C184.632 174.44 184.916 174.147 185.121 173.774C185.334 173.392 185.441 172.956 185.441 172.468C185.441 171.979 185.334 171.548 185.121 171.175C184.916 170.792 184.632 170.499 184.267 170.295C183.912 170.09 183.508 169.988 183.054 169.988C182.61 169.988 182.206 170.09 181.841 170.295C181.477 170.499 181.193 170.792 180.988 171.175C180.784 171.548 180.682 171.979 180.682 172.468C180.682 172.956 180.784 173.392 180.988 173.774C181.193 174.147 181.477 174.44 181.841 174.654C182.206 174.858 182.61 174.96 183.054 174.96ZM188.702 166.109H189.981V176H188.702V166.109ZM199.01 172.508C199.01 172.605 199.001 172.734 198.983 172.894H193.251C193.331 173.516 193.602 174.018 194.064 174.4C194.535 174.774 195.117 174.96 195.81 174.96C196.655 174.96 197.334 174.676 197.85 174.107L198.556 174.934C198.236 175.307 197.837 175.591 197.357 175.787C196.886 175.982 196.357 176.08 195.77 176.08C195.024 176.08 194.362 175.929 193.784 175.627C193.207 175.316 192.758 174.885 192.438 174.334C192.127 173.783 191.971 173.161 191.971 172.468C191.971 171.783 192.122 171.166 192.425 170.615C192.736 170.064 193.158 169.637 193.691 169.335C194.233 169.024 194.842 168.868 195.517 168.868C196.193 168.868 196.792 169.024 197.317 169.335C197.85 169.637 198.263 170.064 198.556 170.615C198.859 171.166 199.01 171.797 199.01 172.508ZM195.517 169.948C194.904 169.948 194.389 170.135 193.971 170.508C193.562 170.881 193.322 171.37 193.251 171.974H197.783C197.712 171.379 197.468 170.895 197.05 170.521C196.641 170.139 196.13 169.948 195.517 169.948ZM209.824 168.868C210.713 168.868 211.415 169.126 211.93 169.642C212.455 170.157 212.717 170.921 212.717 171.934V176H211.437V172.081C211.437 171.397 211.277 170.881 210.957 170.535C210.646 170.188 210.198 170.015 209.611 170.015C208.962 170.015 208.447 170.219 208.065 170.628C207.683 171.028 207.492 171.606 207.492 172.361V176H206.212V172.081C206.212 171.397 206.052 170.881 205.732 170.535C205.421 170.188 204.972 170.015 204.386 170.015C203.737 170.015 203.222 170.219 202.839 170.628C202.457 171.028 202.266 171.606 202.266 172.361V176H200.987V168.935H202.213V169.988C202.471 169.624 202.808 169.348 203.226 169.162C203.644 168.966 204.119 168.868 204.652 168.868C205.203 168.868 205.692 168.98 206.119 169.202C206.545 169.424 206.874 169.748 207.105 170.175C207.372 169.766 207.74 169.446 208.211 169.215C208.691 168.984 209.229 168.868 209.824 168.868ZM217.298 176.08C216.72 176.08 216.165 176.004 215.631 175.853C215.098 175.693 214.681 175.493 214.378 175.254L214.912 174.24C215.223 174.463 215.6 174.64 216.045 174.774C216.489 174.907 216.938 174.974 217.391 174.974C218.511 174.974 219.071 174.654 219.071 174.014C219.071 173.801 218.995 173.632 218.844 173.507C218.693 173.383 218.502 173.294 218.271 173.241C218.049 173.178 217.729 173.112 217.311 173.041C216.742 172.952 216.276 172.85 215.911 172.734C215.556 172.619 215.249 172.423 214.992 172.148C214.734 171.872 214.605 171.486 214.605 170.988C214.605 170.348 214.872 169.837 215.405 169.455C215.938 169.064 216.653 168.868 217.551 168.868C218.022 168.868 218.493 168.926 218.964 169.042C219.435 169.157 219.821 169.313 220.124 169.508L219.577 170.521C218.999 170.148 218.32 169.962 217.538 169.962C216.995 169.962 216.582 170.05 216.298 170.228C216.014 170.406 215.871 170.641 215.871 170.935C215.871 171.166 215.951 171.348 216.111 171.481C216.271 171.614 216.467 171.712 216.698 171.774C216.938 171.837 217.271 171.908 217.698 171.988C218.266 172.085 218.724 172.192 219.071 172.308C219.426 172.414 219.728 172.601 219.977 172.867C220.226 173.134 220.35 173.507 220.35 173.987C220.35 174.627 220.075 175.138 219.524 175.52C218.982 175.893 218.24 176.08 217.298 176.08Z" fill="white"/>
</svg>
