<svg width="337" height="158" viewBox="0 0 337 158" fill="none" xmlns="http://www.w3.org/2000/svg">
<rect y="10" width="247" height="24" rx="8" fill="#F3CD6A"/>
<path d="M41.974 17.2L38.768 27H36.332L34.176 20.364L31.95 27H29.528L26.308 17.2H28.66L30.872 24.088L33.182 17.2H35.282L37.522 24.144L39.804 17.2H41.974ZM48.0792 19.356C49.0125 19.356 49.7639 19.636 50.3332 20.196C50.9119 20.756 51.2012 21.5867 51.2012 22.688V27H49.0172V23.024C49.0172 22.4267 48.8865 21.9833 48.6252 21.694C48.3639 21.3953 47.9859 21.246 47.4912 21.246C46.9405 21.246 46.5019 21.4187 46.1752 21.764C45.8485 22.1 45.6852 22.604 45.6852 23.276V27H43.5012V16.612H45.6852V20.252C45.9745 19.9627 46.3245 19.7433 46.7352 19.594C47.1459 19.4353 47.5939 19.356 48.0792 19.356ZM57.0569 27.112C56.2636 27.112 55.5496 26.9487 54.9149 26.622C54.2896 26.286 53.7996 25.824 53.4449 25.236C53.0903 24.648 52.9129 23.9807 52.9129 23.234C52.9129 22.4873 53.0903 21.82 53.4449 21.232C53.7996 20.644 54.2896 20.1867 54.9149 19.86C55.5496 19.524 56.2636 19.356 57.0569 19.356C57.8503 19.356 58.5596 19.524 59.1849 19.86C59.8103 20.1867 60.3003 20.644 60.6549 21.232C61.0096 21.82 61.1869 22.4873 61.1869 23.234C61.1869 23.9807 61.0096 24.648 60.6549 25.236C60.3003 25.824 59.8103 26.286 59.1849 26.622C58.5596 26.9487 57.8503 27.112 57.0569 27.112ZM57.0569 25.32C57.6169 25.32 58.0743 25.1333 58.4289 24.76C58.7929 24.3773 58.9749 23.8687 58.9749 23.234C58.9749 22.5993 58.7929 22.0953 58.4289 21.722C58.0743 21.3393 57.6169 21.148 57.0569 21.148C56.4969 21.148 56.0349 21.3393 55.6709 21.722C55.3069 22.0953 55.1249 22.5993 55.1249 23.234C55.1249 23.8687 55.3069 24.3773 55.6709 24.76C56.0349 25.1333 56.4969 25.32 57.0569 25.32ZM71.8896 26.636C71.6749 26.7947 71.4089 26.916 71.0916 27C70.7836 27.0747 70.4569 27.112 70.1116 27.112C69.2156 27.112 68.5203 26.8833 68.0256 26.426C67.5403 25.9687 67.2976 25.2967 67.2976 24.41V21.316H66.1356V19.636H67.2976V17.802H69.4816V19.636H71.3576V21.316H69.4816V24.382C69.4816 24.6993 69.5609 24.9467 69.7196 25.124C69.8876 25.292 70.1209 25.376 70.4196 25.376C70.7649 25.376 71.0589 25.2827 71.3016 25.096L71.8896 26.636ZM77.9036 19.356C78.8369 19.356 79.5882 19.636 80.1576 20.196C80.7362 20.756 81.0256 21.5867 81.0256 22.688V27H78.8416V23.024C78.8416 22.4267 78.7109 21.9833 78.4496 21.694C78.1882 21.3953 77.8102 21.246 77.3156 21.246C76.7649 21.246 76.3262 21.4187 75.9996 21.764C75.6729 22.1 75.5096 22.604 75.5096 23.276V27H73.3256V16.612H75.5096V20.252C75.7989 19.9627 76.1489 19.7433 76.5596 19.594C76.9702 19.4353 77.4182 19.356 77.9036 19.356ZM90.6753 23.262C90.6753 23.29 90.6613 23.486 90.6333 23.85H84.9353C85.038 24.3167 85.2806 24.6853 85.6633 24.956C86.046 25.2267 86.522 25.362 87.0913 25.362C87.4833 25.362 87.8286 25.306 88.1273 25.194C88.4353 25.0727 88.72 24.886 88.9813 24.634L90.1433 25.894C89.434 26.706 88.398 27.112 87.0353 27.112C86.186 27.112 85.4346 26.9487 84.7813 26.622C84.128 26.286 83.624 25.824 83.2693 25.236C82.9146 24.648 82.7373 23.9807 82.7373 23.234C82.7373 22.4967 82.91 21.834 83.2553 21.246C83.61 20.6487 84.0906 20.1867 84.6973 19.86C85.3133 19.524 85.9993 19.356 86.7553 19.356C87.4926 19.356 88.16 19.5147 88.7573 19.832C89.3546 20.1493 89.8213 20.6067 90.1573 21.204C90.5026 21.792 90.6753 22.478 90.6753 23.262ZM86.7693 21.008C86.2746 21.008 85.8593 21.148 85.5233 21.428C85.1873 21.708 84.982 22.0907 84.9073 22.576H88.6173C88.5426 22.1 88.3373 21.722 88.0013 21.442C87.6653 21.1527 87.2546 21.008 86.7693 21.008ZM104.102 19.468V27H102.03V26.104C101.741 26.4307 101.396 26.6827 100.994 26.86C100.593 27.028 100.159 27.112 99.6922 27.112C98.7028 27.112 97.9188 26.8273 97.3402 26.258C96.7615 25.6887 96.4722 24.844 96.4722 23.724V19.468H98.6562V23.402C98.6562 24.6153 99.1648 25.222 100.182 25.222C100.705 25.222 101.125 25.054 101.442 24.718C101.76 24.3727 101.918 23.864 101.918 23.192V19.468H104.102ZM108.869 27.112C108.244 27.112 107.633 27.0373 107.035 26.888C106.438 26.7293 105.962 26.5333 105.607 26.3L106.335 24.732C106.671 24.9467 107.077 25.124 107.553 25.264C108.029 25.3947 108.496 25.46 108.953 25.46C109.877 25.46 110.339 25.2313 110.339 24.774C110.339 24.5593 110.213 24.4053 109.961 24.312C109.709 24.2187 109.322 24.1393 108.799 24.074C108.183 23.9807 107.675 23.8733 107.273 23.752C106.872 23.6307 106.522 23.416 106.223 23.108C105.934 22.8 105.789 22.3613 105.789 21.792C105.789 21.316 105.925 20.896 106.195 20.532C106.475 20.1587 106.877 19.8693 107.399 19.664C107.931 19.4587 108.557 19.356 109.275 19.356C109.807 19.356 110.335 19.4167 110.857 19.538C111.389 19.65 111.828 19.8087 112.173 20.014L111.445 21.568C110.783 21.1947 110.059 21.008 109.275 21.008C108.809 21.008 108.459 21.0733 108.225 21.204C107.992 21.3347 107.875 21.5027 107.875 21.708C107.875 21.9413 108.001 22.1047 108.253 22.198C108.505 22.2913 108.907 22.38 109.457 22.464C110.073 22.5667 110.577 22.6787 110.969 22.8C111.361 22.912 111.702 23.122 111.991 23.43C112.281 23.738 112.425 24.1673 112.425 24.718C112.425 25.1847 112.285 25.6 112.005 25.964C111.725 26.328 111.315 26.6127 110.773 26.818C110.241 27.014 109.607 27.112 108.869 27.112ZM121.361 23.262C121.361 23.29 121.347 23.486 121.319 23.85H115.621C115.724 24.3167 115.966 24.6853 116.349 24.956C116.732 25.2267 117.208 25.362 117.777 25.362C118.169 25.362 118.514 25.306 118.813 25.194C119.121 25.0727 119.406 24.886 119.667 24.634L120.829 25.894C120.12 26.706 119.084 27.112 117.721 27.112C116.872 27.112 116.12 26.9487 115.467 26.622C114.814 26.286 114.31 25.824 113.955 25.236C113.6 24.648 113.423 23.9807 113.423 23.234C113.423 22.4967 113.596 21.834 113.941 21.246C114.296 20.6487 114.776 20.1867 115.383 19.86C115.999 19.524 116.685 19.356 117.441 19.356C118.178 19.356 118.846 19.5147 119.443 19.832C120.04 20.1493 120.507 20.6067 120.843 21.204C121.188 21.792 121.361 22.478 121.361 23.262ZM117.455 21.008C116.96 21.008 116.545 21.148 116.209 21.428C115.873 21.708 115.668 22.0907 115.593 22.576H119.303C119.228 22.1 119.023 21.722 118.687 21.442C118.351 21.1527 117.94 21.008 117.455 21.008ZM125.111 20.462C125.372 20.098 125.722 19.8227 126.161 19.636C126.609 19.4493 127.122 19.356 127.701 19.356V21.372C127.458 21.3533 127.295 21.344 127.211 21.344C126.586 21.344 126.096 21.5213 125.741 21.876C125.386 22.2213 125.209 22.744 125.209 23.444V27H123.025V19.468H125.111V20.462ZM145.535 19.468L142.805 27H140.705L139.011 22.324L137.261 27H135.161L132.445 19.468H134.503L136.281 24.564L138.129 19.468H139.977L141.769 24.564L143.603 19.468H145.535ZM149.552 19.356C150.719 19.356 151.615 19.636 152.24 20.196C152.866 20.7467 153.178 21.582 153.178 22.702V27H151.134V26.062C150.724 26.762 149.958 27.112 148.838 27.112C148.26 27.112 147.756 27.014 147.326 26.818C146.906 26.622 146.584 26.3513 146.36 26.006C146.136 25.6607 146.024 25.2687 146.024 24.83C146.024 24.13 146.286 23.5793 146.808 23.178C147.34 22.7767 148.157 22.576 149.258 22.576H150.994C150.994 22.1 150.85 21.736 150.56 21.484C150.271 21.2227 149.837 21.092 149.258 21.092C148.857 21.092 148.46 21.1573 148.068 21.288C147.686 21.4093 147.359 21.5773 147.088 21.792L146.304 20.266C146.715 19.9767 147.205 19.7527 147.774 19.594C148.353 19.4353 148.946 19.356 149.552 19.356ZM149.384 25.642C149.758 25.642 150.089 25.558 150.378 25.39C150.668 25.2127 150.873 24.956 150.994 24.62V23.85H149.496C148.6 23.85 148.152 24.144 148.152 24.732C148.152 25.012 148.26 25.236 148.474 25.404C148.698 25.5627 149.002 25.642 149.384 25.642ZM159.943 19.356C160.876 19.356 161.628 19.636 162.197 20.196C162.776 20.756 163.065 21.5867 163.065 22.688V27H160.881V23.024C160.881 22.4267 160.75 21.9833 160.489 21.694C160.228 21.3953 159.85 21.246 159.355 21.246C158.804 21.246 158.366 21.4187 158.039 21.764C157.712 22.1 157.549 22.604 157.549 23.276V27H155.365V19.468H157.451V20.35C157.74 20.0327 158.1 19.79 158.529 19.622C158.958 19.4447 159.43 19.356 159.943 19.356ZM170.113 26.636C169.898 26.7947 169.632 26.916 169.315 27C169.007 27.0747 168.68 27.112 168.335 27.112C167.439 27.112 166.743 26.8833 166.249 26.426C165.763 25.9687 165.521 25.2967 165.521 24.41V21.316H164.359V19.636H165.521V17.802H167.705V19.636H169.581V21.316H167.705V24.382C167.705 24.6993 167.784 24.9467 167.943 25.124C168.111 25.292 168.344 25.376 168.643 25.376C168.988 25.376 169.282 25.2827 169.525 25.096L170.113 26.636ZM174.083 27.112C173.457 27.112 172.846 27.0373 172.249 26.888C171.651 26.7293 171.175 26.5333 170.821 26.3L171.549 24.732C171.885 24.9467 172.291 25.124 172.767 25.264C173.243 25.3947 173.709 25.46 174.167 25.46C175.091 25.46 175.553 25.2313 175.553 24.774C175.553 24.5593 175.427 24.4053 175.175 24.312C174.923 24.2187 174.535 24.1393 174.013 24.074C173.397 23.9807 172.888 23.8733 172.487 23.752C172.085 23.6307 171.735 23.416 171.437 23.108C171.147 22.8 171.003 22.3613 171.003 21.792C171.003 21.316 171.138 20.896 171.409 20.532C171.689 20.1587 172.09 19.8693 172.613 19.664C173.145 19.4587 173.77 19.356 174.489 19.356C175.021 19.356 175.548 19.4167 176.071 19.538C176.603 19.65 177.041 19.8087 177.387 20.014L176.659 21.568C175.996 21.1947 175.273 21.008 174.489 21.008C174.022 21.008 173.672 21.0733 173.439 21.204C173.205 21.3347 173.089 21.5027 173.089 21.708C173.089 21.9413 173.215 22.1047 173.467 22.198C173.719 22.2913 174.12 22.38 174.671 22.464C175.287 22.5667 175.791 22.6787 176.183 22.8C176.575 22.912 176.915 23.122 177.205 23.43C177.494 23.738 177.639 24.1673 177.639 24.718C177.639 25.1847 177.499 25.6 177.219 25.964C176.939 26.328 176.528 26.6127 175.987 26.818C175.455 27.014 174.82 27.112 174.083 27.112ZM188.229 26.636C188.014 26.7947 187.748 26.916 187.431 27C187.123 27.0747 186.796 27.112 186.451 27.112C185.555 27.112 184.86 26.8833 184.365 26.426C183.88 25.9687 183.637 25.2967 183.637 24.41V21.316H182.475V19.636H183.637V17.802H185.821V19.636H187.697V21.316H185.821V24.382C185.821 24.6993 185.9 24.9467 186.059 25.124C186.227 25.292 186.46 25.376 186.759 25.376C187.104 25.376 187.398 25.2827 187.641 25.096L188.229 26.636ZM193.017 27.112C192.223 27.112 191.509 26.9487 190.875 26.622C190.249 26.286 189.759 25.824 189.405 25.236C189.05 24.648 188.873 23.9807 188.873 23.234C188.873 22.4873 189.05 21.82 189.405 21.232C189.759 20.644 190.249 20.1867 190.875 19.86C191.509 19.524 192.223 19.356 193.017 19.356C193.81 19.356 194.519 19.524 195.145 19.86C195.77 20.1867 196.26 20.644 196.615 21.232C196.969 21.82 197.147 22.4873 197.147 23.234C197.147 23.9807 196.969 24.648 196.615 25.236C196.26 25.824 195.77 26.286 195.145 26.622C194.519 26.9487 193.81 27.112 193.017 27.112ZM193.017 25.32C193.577 25.32 194.034 25.1333 194.389 24.76C194.753 24.3773 194.935 23.8687 194.935 23.234C194.935 22.5993 194.753 22.0953 194.389 21.722C194.034 21.3393 193.577 21.148 193.017 21.148C192.457 21.148 191.995 21.3393 191.631 21.722C191.267 22.0953 191.085 22.5993 191.085 23.234C191.085 23.8687 191.267 24.3773 191.631 24.76C191.995 25.1333 192.457 25.32 193.017 25.32ZM207.443 19.356C208.143 19.356 208.778 19.5193 209.347 19.846C209.926 20.1633 210.379 20.616 210.705 21.204C211.032 21.7827 211.195 22.4593 211.195 23.234C211.195 24.0087 211.032 24.69 210.705 25.278C210.379 25.8567 209.926 26.3093 209.347 26.636C208.778 26.9533 208.143 27.112 207.443 27.112C206.407 27.112 205.619 26.7853 205.077 26.132V27H202.991V16.612H205.175V20.266C205.726 19.6593 206.482 19.356 207.443 19.356ZM207.065 25.32C207.625 25.32 208.083 25.1333 208.437 24.76C208.801 24.3773 208.983 23.8687 208.983 23.234C208.983 22.5993 208.801 22.0953 208.437 21.722C208.083 21.3393 207.625 21.148 207.065 21.148C206.505 21.148 206.043 21.3393 205.679 21.722C205.325 22.0953 205.147 22.5993 205.147 23.234C205.147 23.8687 205.325 24.3773 205.679 24.76C206.043 25.1333 206.505 25.32 207.065 25.32ZM220.245 23.262C220.245 23.29 220.231 23.486 220.203 23.85H214.505C214.608 24.3167 214.851 24.6853 215.233 24.956C215.616 25.2267 216.092 25.362 216.661 25.362C217.053 25.362 217.399 25.306 217.697 25.194C218.005 25.0727 218.29 24.886 218.551 24.634L219.713 25.894C219.004 26.706 217.968 27.112 216.605 27.112C215.756 27.112 215.005 26.9487 214.351 26.622C213.698 26.286 213.194 25.824 212.839 25.236C212.485 24.648 212.307 23.9807 212.307 23.234C212.307 22.4967 212.48 21.834 212.825 21.246C213.18 20.6487 213.661 20.1867 214.267 19.86C214.883 19.524 215.569 19.356 216.325 19.356C217.063 19.356 217.73 19.5147 218.327 19.832C218.925 20.1493 219.391 20.6067 219.727 21.204C220.073 21.792 220.245 22.478 220.245 23.262ZM216.339 21.008C215.845 21.008 215.429 21.148 215.093 21.428C214.757 21.708 214.552 22.0907 214.477 22.576H218.187C218.113 22.1 217.907 21.722 217.571 21.442C217.235 21.1527 216.825 21.008 216.339 21.008Z" fill="#252424"/>
<path d="M3.09281 71.5473C2.75512 71.5473 2.4663 71.4318 2.22636 71.2007C1.99531 70.9696 1.87978 70.6764 1.87978 70.3209C1.87978 69.9832 1.99975 69.6989 2.23969 69.4678C2.47963 69.2279 2.764 69.1079 3.09281 69.1079C3.42162 69.1079 3.70155 69.2279 3.9326 69.4678C4.17254 69.6989 4.29251 69.9832 4.29251 70.3209C4.29251 70.6764 4.17254 70.9696 3.9326 71.2007C3.70155 71.4318 3.42162 71.5473 3.09281 71.5473ZM10.571 64.669H11.904V74H10.571V64.669ZM18.4833 66.8684C19.3809 66.8684 20.0918 67.1306 20.6161 67.6549C21.1493 68.1703 21.4159 68.9302 21.4159 69.9343V74H20.1363V70.081C20.1363 69.3967 19.9719 68.8813 19.643 68.5347C19.3142 68.1881 18.8432 68.0148 18.2301 68.0148C17.5369 68.0148 16.9904 68.2192 16.5905 68.628C16.1906 69.0279 15.9906 69.6055 15.9906 70.3609V74H14.7109V66.9351H15.9373V68.0015C16.195 67.6371 16.5416 67.3572 16.977 67.1617C17.4214 66.9662 17.9235 66.8684 18.4833 66.8684ZM26.0103 74.08C25.4327 74.08 24.8773 74.0044 24.3441 73.8534C23.8109 73.6934 23.3932 73.4935 23.091 73.2535L23.6242 72.2404C23.9353 72.4626 24.313 72.6403 24.7573 72.7736C25.2016 72.9069 25.6504 72.9736 26.1036 72.9736C27.2233 72.9736 27.7832 72.6537 27.7832 72.0138C27.7832 71.8005 27.7077 71.6317 27.5566 71.5073C27.4055 71.3829 27.2145 71.294 26.9834 71.2407C26.7612 71.1785 26.4413 71.1118 26.0236 71.0407C25.4549 70.9519 24.9883 70.8497 24.624 70.7341C24.2685 70.6186 23.9619 70.4231 23.7042 70.1476C23.4465 69.8721 23.3176 69.4856 23.3176 68.9879C23.3176 68.3481 23.5842 67.8371 24.1174 67.455C24.6506 67.064 25.366 66.8684 26.2636 66.8684C26.7346 66.8684 27.2056 66.9262 27.6766 67.0417C28.1476 67.1573 28.5341 67.3128 28.8363 67.5083L28.2897 68.5214C27.7121 68.1481 27.0323 67.9615 26.2502 67.9615C25.7082 67.9615 25.2949 68.0504 25.0106 68.2281C24.7262 68.4058 24.584 68.6413 24.584 68.9346C24.584 69.1657 24.664 69.3478 24.8239 69.4811C24.9839 69.6144 25.1794 69.7122 25.4105 69.7744C25.6504 69.8366 25.9836 69.9077 26.4102 69.9877C26.979 70.0854 27.4366 70.1921 27.7832 70.3076C28.1387 70.4142 28.4408 70.6008 28.6896 70.8674C28.9385 71.134 29.0629 71.5073 29.0629 71.9872C29.0629 72.627 28.7874 73.138 28.2364 73.5201C27.6943 73.8934 26.9523 74.08 26.0103 74.08ZM34.6078 66.8684C35.2921 66.8684 35.9053 67.0195 36.4474 67.3217C36.9895 67.6238 37.4116 68.0459 37.7137 68.588C38.0248 69.1301 38.1803 69.7566 38.1803 70.4675C38.1803 71.1785 38.0248 71.8094 37.7137 72.3604C37.4116 72.9025 36.9895 73.3246 36.4474 73.6268C35.9053 73.9289 35.2921 74.08 34.6078 74.08C34.1013 74.08 33.6348 73.9822 33.2082 73.7867C32.7905 73.5912 32.4351 73.3068 32.1418 72.9336V76.586H30.8621V66.9351H32.0885V68.0548C32.3728 67.6638 32.7328 67.3705 33.1682 67.175C33.6037 66.9706 34.0835 66.8684 34.6078 66.8684ZM34.5012 72.9603C34.9544 72.9603 35.3588 72.8581 35.7142 72.6537C36.0786 72.4404 36.363 72.1471 36.5674 71.7739C36.7806 71.3918 36.8873 70.9563 36.8873 70.4675C36.8873 69.9788 36.7806 69.5478 36.5674 69.1745C36.363 68.7924 36.0786 68.4992 35.7142 68.2948C35.3588 68.0904 34.9544 67.9882 34.5012 67.9882C34.0569 67.9882 33.6525 68.0948 33.2882 68.3081C32.9327 68.5125 32.6483 68.8013 32.4351 69.1745C32.2307 69.5478 32.1285 69.9788 32.1285 70.4675C32.1285 70.9563 32.2307 71.3918 32.4351 71.7739C32.6394 72.1471 32.9238 72.4404 33.2882 72.6537C33.6525 72.8581 34.0569 72.9603 34.5012 72.9603ZM40.1483 66.9351H41.428V74H40.1483V66.9351ZM40.7882 65.5754C40.5394 65.5754 40.3305 65.4955 40.1617 65.3355C40.0017 65.1755 39.9217 64.98 39.9217 64.749C39.9217 64.5179 40.0017 64.3224 40.1617 64.1625C40.3305 63.9936 40.5394 63.9092 40.7882 63.9092C41.037 63.9092 41.2414 63.9892 41.4014 64.1491C41.5702 64.3002 41.6546 64.4913 41.6546 64.7223C41.6546 64.9623 41.5702 65.1667 41.4014 65.3355C41.2414 65.4955 41.037 65.5754 40.7882 65.5754ZM45.2977 68.1215C45.5198 67.7127 45.8486 67.4016 46.2841 67.1884C46.7195 66.9751 47.2483 66.8684 47.8704 66.8684V68.1081C47.7993 68.0993 47.7015 68.0948 47.5771 68.0948C46.8839 68.0948 46.3374 68.3036 45.9375 68.7213C45.5465 69.1301 45.351 69.7166 45.351 70.4809V74H44.0713V66.9351H45.2977V68.1215ZM49.6475 66.9351H50.9272V74H49.6475V66.9351ZM50.2874 65.5754C50.0385 65.5754 49.8297 65.4955 49.6609 65.3355C49.5009 65.1755 49.4209 64.98 49.4209 64.749C49.4209 64.5179 49.5009 64.3224 49.6609 64.1625C49.8297 63.9936 50.0385 63.9092 50.2874 63.9092C50.5362 63.9092 50.7406 63.9892 50.9005 64.1491C51.0694 64.3002 51.1538 64.4913 51.1538 64.7223C51.1538 64.9623 51.0694 65.1667 50.9005 65.3355C50.7406 65.4955 50.5362 65.5754 50.2874 65.5754ZM57.3429 66.8684C58.2404 66.8684 58.9514 67.1306 59.4757 67.6549C60.0089 68.1703 60.2755 68.9302 60.2755 69.9343V74H58.9958V70.081C58.9958 69.3967 58.8314 68.8813 58.5026 68.5347C58.1738 68.1881 57.7028 68.0148 57.0896 68.0148C56.3965 68.0148 55.8499 68.2192 55.45 68.628C55.0501 69.0279 54.8502 69.6055 54.8502 70.3609V74H53.5705V66.9351H54.7969V68.0015C55.0546 67.6371 55.4012 67.3572 55.8366 67.1617C56.2809 66.9662 56.783 66.8684 57.3429 66.8684ZM69.6411 66.9351V73.0402C69.6411 74.2755 69.3345 75.1864 68.7213 75.7729C68.1081 76.3683 67.1928 76.666 65.9753 76.666C65.3088 76.666 64.6734 76.5727 64.0691 76.3861C63.4648 76.2083 62.9761 75.9506 62.6028 75.6129L63.216 74.6265C63.5448 74.9109 63.9492 75.1331 64.429 75.293C64.9178 75.4619 65.4199 75.5463 65.9353 75.5463C66.7618 75.5463 67.3705 75.3508 67.7615 74.9598C68.1614 74.5687 68.3614 73.9733 68.3614 73.1735V72.6137C68.0592 72.978 67.686 73.2535 67.2417 73.4401C66.8062 73.6179 66.3308 73.7067 65.8154 73.7067C65.14 73.7067 64.5268 73.5646 63.9758 73.2802C63.4337 72.9869 63.0072 72.5826 62.6961 72.0671C62.3851 71.5428 62.2296 70.9474 62.2296 70.2809C62.2296 69.6144 62.3851 69.0235 62.6961 68.508C63.0072 67.9837 63.4337 67.5794 63.9758 67.295C64.5268 67.0106 65.14 66.8684 65.8154 66.8684C66.3486 66.8684 66.8418 66.9662 67.295 67.1617C67.7571 67.3572 68.1348 67.646 68.428 68.0282V66.9351H69.6411ZM65.962 72.587C66.4241 72.587 66.8373 72.4893 67.2017 72.2938C67.5749 72.0983 67.8637 71.8272 68.0681 71.4806C68.2814 71.1252 68.388 70.7253 68.388 70.2809C68.388 69.5967 68.1614 69.0457 67.7082 68.628C67.255 68.2014 66.6729 67.9882 65.962 67.9882C65.2422 67.9882 64.6556 68.2014 64.2024 68.628C63.7492 69.0457 63.5226 69.5967 63.5226 70.2809C63.5226 70.7253 63.6248 71.1252 63.8292 71.4806C64.0425 71.8272 64.3313 72.0983 64.6956 72.2938C65.0689 72.4893 65.491 72.587 65.962 72.587Z" fill="white"/>
<path d="M2.09281 139.547C1.75512 139.547 1.4663 139.432 1.22636 139.201C0.995307 138.97 0.87978 138.676 0.87978 138.321C0.87978 137.983 0.99975 137.699 1.23969 137.468C1.47963 137.228 1.764 137.108 2.09281 137.108C2.42162 137.108 2.70155 137.228 2.9326 137.468C3.17254 137.699 3.29251 137.983 3.29251 138.321C3.29251 138.676 3.17254 138.97 2.9326 139.201C2.70155 139.432 2.42162 139.547 2.09281 139.547ZM17.5957 132.669V142H16.2627V137.841H10.904V142H9.57104V132.669H10.904V136.681H16.2627V132.669H17.5957ZM26.7871 138.508C26.7871 138.605 26.7782 138.734 26.7604 138.894H21.0285C21.1085 139.516 21.3795 140.018 21.8416 140.4C22.3126 140.774 22.8947 140.96 23.5879 140.96C24.4321 140.96 25.1119 140.676 25.6273 140.107L26.3338 140.934C26.0139 141.307 25.614 141.591 25.1341 141.787C24.6631 141.982 24.1344 142.08 23.5479 142.08C22.8014 142.08 22.1393 141.929 21.5617 141.627C20.9841 141.316 20.5353 140.885 20.2154 140.334C19.9043 139.783 19.7488 139.161 19.7488 138.468C19.7488 137.783 19.8999 137.166 20.202 136.615C20.5131 136.064 20.9352 135.637 21.4684 135.335C22.0105 135.024 22.6192 134.868 23.2946 134.868C23.97 134.868 24.5698 135.024 25.0941 135.335C25.6273 135.637 26.0406 136.064 26.3338 136.615C26.636 137.166 26.7871 137.797 26.7871 138.508ZM23.2946 135.948C22.6814 135.948 22.166 136.135 21.7483 136.508C21.3395 136.881 21.0996 137.37 21.0285 137.974H25.5607C25.4896 137.379 25.2452 136.895 24.8275 136.521C24.4188 136.139 23.9078 135.948 23.2946 135.948ZM29.9903 136.121C30.2125 135.713 30.5413 135.402 30.9767 135.188C31.4122 134.975 31.9409 134.868 32.563 134.868V136.108C32.4919 136.099 32.3942 136.095 32.2697 136.095C31.5766 136.095 31.0301 136.304 30.6302 136.721C30.2391 137.13 30.0436 137.717 30.0436 138.481V142H28.764V134.935H29.9903V136.121ZM36.4184 142.08C35.8408 142.08 35.2853 142.004 34.7521 141.853C34.2189 141.693 33.8013 141.493 33.4991 141.254L34.0323 140.24C34.3434 140.463 34.721 140.64 35.1654 140.774C35.6097 140.907 36.0585 140.974 36.5117 140.974C37.6314 140.974 38.1913 140.654 38.1913 140.014C38.1913 139.801 38.1157 139.632 37.9647 139.507C37.8136 139.383 37.6225 139.294 37.3915 139.241C37.1693 139.178 36.8494 139.112 36.4317 139.041C35.863 138.952 35.3964 138.85 35.0321 138.734C34.6766 138.619 34.37 138.423 34.1123 138.148C33.8546 137.872 33.7257 137.486 33.7257 136.988C33.7257 136.348 33.9923 135.837 34.5255 135.455C35.0587 135.064 35.7741 134.868 36.6717 134.868C37.1427 134.868 37.6137 134.926 38.0846 135.042C38.5556 135.157 38.9422 135.313 39.2444 135.508L38.6978 136.521C38.1202 136.148 37.4404 135.962 36.6583 135.962C36.1162 135.962 35.703 136.05 35.4186 136.228C35.1343 136.406 34.9921 136.641 34.9921 136.935C34.9921 137.166 35.0721 137.348 35.232 137.481C35.392 137.614 35.5875 137.712 35.8185 137.774C36.0585 137.837 36.3917 137.908 36.8183 137.988C37.387 138.085 37.8447 138.192 38.1913 138.308C38.5467 138.414 38.8489 138.601 39.0977 138.867C39.3466 139.134 39.471 139.507 39.471 139.987C39.471 140.627 39.1955 141.138 38.6445 141.52C38.1024 141.893 37.3604 142.08 36.4184 142.08ZM47.6553 138.508C47.6553 138.605 47.6464 138.734 47.6286 138.894H41.8967C41.9767 139.516 42.2477 140.018 42.7098 140.4C43.1808 140.774 43.7629 140.96 44.4561 140.96C45.3003 140.96 45.9801 140.676 46.4956 140.107L47.2021 140.934C46.8821 141.307 46.4822 141.591 46.0024 141.787C45.5314 141.982 45.0026 142.08 44.4161 142.08C43.6696 142.08 43.0075 141.929 42.4299 141.627C41.8523 141.316 41.4035 140.885 41.0836 140.334C40.7725 139.783 40.617 139.161 40.617 138.468C40.617 137.783 40.7681 137.166 41.0703 136.615C41.3813 136.064 41.8034 135.637 42.3366 135.335C42.8787 135.024 43.4874 134.868 44.1628 134.868C44.8382 134.868 45.438 135.024 45.9624 135.335C46.4956 135.637 46.9088 136.064 47.2021 136.615C47.5042 137.166 47.6553 137.797 47.6553 138.508ZM44.1628 135.948C43.5496 135.948 43.0342 136.135 42.6165 136.508C42.2077 136.881 41.9678 137.37 41.8967 137.974H46.4289C46.3578 137.379 46.1134 136.895 45.6958 136.521C45.287 136.139 44.776 135.948 44.1628 135.948ZM49.6322 132.109H50.9118V142H49.6322V132.109ZM56.1412 133.082C55.3769 133.082 54.9948 133.495 54.9948 134.322V134.935H57.0476V135.988H55.0214V142H53.7418V135.988H52.5421V134.935H53.7418V134.309C53.7418 133.607 53.9462 133.051 54.3549 132.642C54.7637 132.234 55.3369 132.029 56.0745 132.029C56.3589 132.029 56.6255 132.065 56.8743 132.136C57.1231 132.207 57.3364 132.309 57.5142 132.442L57.1276 133.415C56.8343 133.193 56.5055 133.082 56.1412 133.082ZM65.0469 130.776H66.2066L61.8077 143.333H60.648L65.0469 130.776ZM79.1116 132.669V142H77.7786V137.841H72.4199V142H71.0869V132.669H72.4199V136.681H77.7786V132.669H79.1116ZM81.9178 134.935H83.1975V142H81.9178V134.935ZM82.5577 133.575C82.3089 133.575 82.1 133.495 81.9312 133.335C81.7712 133.176 81.6912 132.98 81.6912 132.749C81.6912 132.518 81.7712 132.322 81.9312 132.162C82.1 131.994 82.3089 131.909 82.5577 131.909C82.8065 131.909 83.0109 131.989 83.1709 132.149C83.3397 132.3 83.4241 132.491 83.4241 132.722C83.4241 132.962 83.3397 133.167 83.1709 133.335C83.0109 133.495 82.8065 133.575 82.5577 133.575ZM94.6786 134.868C95.5673 134.868 96.2693 135.126 96.7848 135.642C97.3091 136.157 97.5712 136.921 97.5712 137.934V142H96.2915V138.081C96.2915 137.397 96.1316 136.881 95.8117 136.535C95.5006 136.188 95.0519 136.015 94.4653 136.015C93.8166 136.015 93.3012 136.219 92.9191 136.628C92.5369 137.028 92.3459 137.606 92.3459 138.361V142H91.0662V138.081C91.0662 137.397 90.9062 136.881 90.5863 136.535C90.2753 136.188 89.8265 136.015 89.24 136.015C88.5912 136.015 88.0758 136.219 87.6937 136.628C87.3116 137.028 87.1205 137.606 87.1205 138.361V142H85.8408V134.935H87.0672V135.988C87.3249 135.624 87.6626 135.348 88.0803 135.162C88.4979 134.966 88.9734 134.868 89.5066 134.868C90.0575 134.868 90.5463 134.98 90.9729 135.202C91.3994 135.424 91.7282 135.748 91.9593 136.175C92.2259 135.766 92.5947 135.446 93.0657 135.215C93.5456 134.984 94.0832 134.868 94.6786 134.868ZM102.152 142.08C101.574 142.08 101.019 142.004 100.486 141.853C99.9525 141.693 99.5348 141.493 99.2327 141.254L99.7659 140.24C100.077 140.463 100.455 140.64 100.899 140.774C101.343 140.907 101.792 140.974 102.245 140.974C103.365 140.974 103.925 140.654 103.925 140.014C103.925 139.801 103.849 139.632 103.698 139.507C103.547 139.383 103.356 139.294 103.125 139.241C102.903 139.178 102.583 139.112 102.165 139.041C101.597 138.952 101.13 138.85 100.766 138.734C100.41 138.619 100.104 138.423 99.8459 138.148C99.5882 137.872 99.4593 137.486 99.4593 136.988C99.4593 136.348 99.7259 135.837 100.259 135.455C100.792 135.064 101.508 134.868 102.405 134.868C102.876 134.868 103.347 134.926 103.818 135.042C104.289 135.157 104.676 135.313 104.978 135.508L104.431 136.521C103.854 136.148 103.174 135.962 102.392 135.962C101.85 135.962 101.437 136.05 101.152 136.228C100.868 136.406 100.726 136.641 100.726 136.935C100.726 137.166 100.806 137.348 100.966 137.481C101.126 137.614 101.321 137.712 101.552 137.774C101.792 137.837 102.125 137.908 102.552 137.988C103.121 138.085 103.578 138.192 103.925 138.308C104.28 138.414 104.582 138.601 104.831 138.867C105.08 139.134 105.205 139.507 105.205 139.987C105.205 140.627 104.929 141.138 104.378 141.52C103.836 141.893 103.094 142.08 102.152 142.08ZM113.389 138.508C113.389 138.605 113.38 138.734 113.362 138.894H107.63C107.71 139.516 107.981 140.018 108.443 140.4C108.914 140.774 109.496 140.96 110.19 140.96C111.034 140.96 111.714 140.676 112.229 140.107L112.936 140.934C112.616 141.307 112.216 141.591 111.736 141.787C111.265 141.982 110.736 142.08 110.15 142.08C109.403 142.08 108.741 141.929 108.163 141.627C107.586 141.316 107.137 140.885 106.817 140.334C106.506 139.783 106.351 139.161 106.351 138.468C106.351 137.783 106.502 137.166 106.804 136.615C107.115 136.064 107.537 135.637 108.07 135.335C108.612 135.024 109.221 134.868 109.896 134.868C110.572 134.868 111.172 135.024 111.696 135.335C112.229 135.637 112.642 136.064 112.936 136.615C113.238 137.166 113.389 137.797 113.389 138.508ZM109.896 135.948C109.283 135.948 108.768 136.135 108.35 136.508C107.941 136.881 107.701 137.37 107.63 137.974H112.162C112.091 137.379 111.847 136.895 111.429 136.521C111.021 136.139 110.51 135.948 109.896 135.948ZM115.366 132.109H116.645V142H115.366V132.109ZM121.875 133.082C121.11 133.082 120.728 133.495 120.728 134.322V134.935H122.781V135.988H120.755V142H119.475V135.988H118.276V134.935H119.475V134.309C119.475 133.607 119.68 133.051 120.089 132.642C120.497 132.234 121.07 132.029 121.808 132.029C122.092 132.029 122.359 132.065 122.608 132.136C122.857 132.207 123.07 132.309 123.248 132.442L122.861 133.415C122.568 133.193 122.239 133.082 121.875 133.082Z" fill="white"/>
<path d="M2.09281 105.547C1.75512 105.547 1.4663 105.432 1.22636 105.201C0.995307 104.97 0.87978 104.676 0.87978 104.321C0.87978 103.983 0.99975 103.699 1.23969 103.468C1.47963 103.228 1.764 103.108 2.09281 103.108C2.42162 103.108 2.70155 103.228 2.9326 103.468C3.17254 103.699 3.29251 103.983 3.29251 104.321C3.29251 104.676 3.17254 104.97 2.9326 105.201C2.70155 105.432 2.42162 105.547 2.09281 105.547ZM9.57104 98.669H10.904V108H9.57104V98.669ZM17.4833 100.868C18.3809 100.868 19.0918 101.131 19.6161 101.655C20.1493 102.17 20.4159 102.93 20.4159 103.934V108H19.1363V104.081C19.1363 103.397 18.9719 102.881 18.643 102.535C18.3142 102.188 17.8432 102.015 17.2301 102.015C16.5369 102.015 15.9904 102.219 15.5905 102.628C15.1906 103.028 14.9906 103.606 14.9906 104.361V108H13.7109V100.935H14.9373V102.001C15.195 101.637 15.5416 101.357 15.977 101.162C16.4214 100.966 16.9235 100.868 17.4833 100.868ZM25.5702 99.0822C24.8059 99.0822 24.4238 99.4955 24.4238 100.322V100.935H26.4766V101.988H24.4504V108H23.1708V101.988H21.9711V100.935H23.1708V100.309C23.1708 99.6065 23.3752 99.0511 23.7839 98.6423C24.1927 98.2336 24.7659 98.0292 25.5035 98.0292C25.7879 98.0292 26.0545 98.0647 26.3033 98.1358C26.5521 98.2069 26.7654 98.3091 26.9432 98.4424L26.5566 99.4155C26.2633 99.1933 25.9345 99.0822 25.5702 99.0822ZM27.6896 98.1091H28.9693V108H27.6896V98.1091ZM38.1915 100.935V108H36.9785V106.934C36.7207 107.298 36.3786 107.582 35.9521 107.787C35.5344 107.982 35.0767 108.08 34.5791 108.08C33.6371 108.08 32.895 107.822 32.353 107.307C31.8109 106.783 31.5398 106.014 31.5398 105.001V100.935H32.8195V104.854C32.8195 105.538 32.9839 106.058 33.3127 106.414C33.6415 106.76 34.1125 106.934 34.7257 106.934C35.4011 106.934 35.9343 106.729 36.3253 106.32C36.7163 105.912 36.9118 105.334 36.9118 104.588V100.935H38.1915ZM47.2127 104.508C47.2127 104.605 47.2038 104.734 47.186 104.894H41.4541C41.5341 105.516 41.8051 106.018 42.2672 106.4C42.7382 106.774 43.3203 106.96 44.0135 106.96C44.8577 106.96 45.5375 106.676 46.053 106.107L46.7595 106.934C46.4395 107.307 46.0396 107.591 45.5598 107.787C45.0888 107.982 44.56 108.08 43.9735 108.08C43.227 108.08 42.5649 107.929 41.9873 107.627C41.4097 107.316 40.9609 106.885 40.641 106.334C40.33 105.783 40.1744 105.161 40.1744 104.468C40.1744 103.783 40.3255 103.166 40.6277 102.615C40.9387 102.064 41.3608 101.637 41.894 101.335C42.4361 101.024 43.0448 100.868 43.7202 100.868C44.3956 100.868 44.9955 101.024 45.5198 101.335C46.053 101.637 46.4662 102.064 46.7595 102.615C47.0616 103.166 47.2127 103.797 47.2127 104.508ZM43.7202 101.948C43.107 101.948 42.5916 102.135 42.1739 102.508C41.7651 102.881 41.5252 103.37 41.4541 103.974H45.9863C45.9152 103.379 45.6708 102.895 45.2532 102.521C44.8444 102.139 44.3334 101.948 43.7202 101.948ZM52.962 100.868C53.8595 100.868 54.5705 101.131 55.0948 101.655C55.628 102.17 55.8946 102.93 55.8946 103.934V108H54.6149V104.081C54.6149 103.397 54.4505 102.881 54.1217 102.535C53.7929 102.188 53.3219 102.015 52.7087 102.015C52.0155 102.015 51.469 102.219 51.0691 102.628C50.6692 103.028 50.4693 103.606 50.4693 104.361V108H49.1896V100.935H50.4159V102.001C50.6736 101.637 51.0202 101.357 51.4557 101.162C51.9 100.966 52.4021 100.868 52.962 100.868ZM61.5811 108.08C60.8612 108.08 60.217 107.924 59.6482 107.613C59.0883 107.302 58.6485 106.876 58.3285 106.334C58.0086 105.783 57.8487 105.161 57.8487 104.468C57.8487 103.774 58.0086 103.157 58.3285 102.615C58.6485 102.064 59.0883 101.637 59.6482 101.335C60.217 101.024 60.8612 100.868 61.5811 100.868C62.2209 100.868 62.7896 100.997 63.2873 101.255C63.7938 101.513 64.1849 101.886 64.4603 102.375L63.4872 103.001C63.2651 102.664 62.9896 102.41 62.6608 102.241C62.332 102.073 61.9676 101.988 61.5677 101.988C61.1056 101.988 60.6879 102.09 60.3147 102.295C59.9504 102.499 59.6615 102.792 59.4483 103.175C59.2439 103.548 59.1417 103.979 59.1417 104.468C59.1417 104.965 59.2439 105.405 59.4483 105.787C59.6615 106.16 59.9504 106.449 60.3147 106.654C60.6879 106.858 61.1056 106.96 61.5677 106.96C61.9676 106.96 62.332 106.876 62.6608 106.707C62.9896 106.538 63.2651 106.285 63.4872 105.947L64.4603 106.56C64.1849 107.049 63.7938 107.427 63.2873 107.693C62.7896 107.951 62.2209 108.08 61.5811 108.08ZM66.3171 100.935H67.5967V108H66.3171V100.935ZM66.9569 99.5754C66.7081 99.5754 66.4992 99.4955 66.3304 99.3355C66.1704 99.1755 66.0905 98.98 66.0905 98.749C66.0905 98.5179 66.1704 98.3224 66.3304 98.1625C66.4992 97.9936 66.7081 97.9092 66.9569 97.9092C67.2057 97.9092 67.4101 97.9892 67.5701 98.1491C67.7389 98.3002 67.8234 98.4913 67.8234 98.7223C67.8234 98.9623 67.7389 99.1667 67.5701 99.3355C67.4101 99.4955 67.2057 99.5754 66.9569 99.5754ZM72.8127 100.868C73.7903 100.868 74.5367 101.108 75.0522 101.588C75.5765 102.068 75.8386 102.784 75.8386 103.734V108H74.6256V107.067C74.4123 107.396 74.1057 107.649 73.7058 107.827C73.3148 107.996 72.8483 108.08 72.3062 108.08C71.5153 108.08 70.8799 107.889 70.4 107.507C69.929 107.125 69.6935 106.623 69.6935 106C69.6935 105.378 69.9201 104.881 70.3733 104.508C70.8266 104.125 71.5464 103.934 72.5328 103.934H74.559V103.681C74.559 103.13 74.399 102.708 74.0791 102.415C73.7592 102.121 73.2882 101.975 72.6661 101.975C72.2484 101.975 71.8396 102.046 71.4397 102.188C71.0398 102.321 70.7021 102.504 70.4267 102.735L69.8935 101.775C70.2578 101.482 70.6933 101.259 71.1998 101.108C71.7063 100.948 72.244 100.868 72.8127 100.868ZM72.5195 107.094C73.0082 107.094 73.4304 106.987 73.7858 106.774C74.1413 106.551 74.399 106.24 74.559 105.841V104.854H72.5861C71.5019 104.854 70.9599 105.218 70.9599 105.947C70.9599 106.303 71.0976 106.583 71.3731 106.787C71.6486 106.991 72.0307 107.094 72.5195 107.094ZM78.4067 98.1091H79.6864V108H78.4067V98.1091Z" fill="white"/>
</svg>
